<svg id="svg" version="1.1" xmlns="http://www.w3.org/2000/svg" xmlns:xlink="http://www.w3.org/1999/xlink" width="400" height="222.10095497953614" viewBox="0, 0, 400,222.10095497953614"><g id="svgg"><path id="path0" d="M241.778 77.794 C 239.916 78.199,238.000 79.932,238.000 81.212 C 238.000 81.509,237.898 81.814,237.774 81.891 C 237.522 82.047,237.691 82.444,238.009 82.444 C 238.121 82.444,238.414 82.050,238.660 81.568 C 240.941 77.097,246.508 80.335,244.737 85.104 C 244.107 86.799,243.554 87.529,240.051 91.287 C 238.862 92.563,237.813 93.738,237.720 93.898 C 237.487 94.301,239.037 94.433,243.355 94.378 C 247.119 94.329,247.419 94.241,247.669 93.098 C 247.748 92.741,247.904 92.392,248.017 92.323 C 248.130 92.253,248.222 91.895,248.222 91.527 L 248.222 90.857 247.468 91.657 L 246.713 92.458 243.764 92.395 C 240.342 92.323,240.246 92.251,241.651 90.806 C 243.945 88.446,246.020 85.889,246.548 84.773 C 248.412 80.833,245.745 76.931,241.778 77.794 M146.667 83.672 C 145.872 83.953,145.017 84.192,144.767 84.203 C 143.413 84.260,142.658 85.111,143.961 85.111 C 145.825 85.111,145.778 84.844,145.773 95.459 C 145.767 105.941,145.818 105.619,144.094 106.103 C 142.093 106.664,142.956 106.889,147.111 106.889 C 151.171 106.889,152.013 106.695,150.319 106.152 C 148.804 105.665,148.899 106.429,148.835 94.248 C 148.785 84.644,148.735 83.224,148.444 83.194 C 148.261 83.176,147.461 83.391,146.667 83.672 M155.611 83.543 C 154.870 84.161,154.898 85.809,155.659 86.308 C 157.035 87.210,158.616 86.252,158.359 84.672 C 158.134 83.282,156.653 82.674,155.611 83.543 M197.333 84.487 C 192.038 88.413,189.285 95.709,190.851 101.667 C 191.476 104.045,191.827 105.115,192.021 105.235 C 192.131 105.303,192.222 105.511,192.222 105.696 C 192.222 107.098,197.561 112.889,198.854 112.889 C 199.369 112.889,199.093 112.041,198.373 111.417 C 194.890 108.397,193.560 104.689,193.562 98.000 C 193.564 91.578,194.512 88.838,197.924 85.400 C 199.818 83.490,199.449 82.919,197.333 84.487 M205.555 83.962 C 204.010 84.698,202.257 86.692,201.907 88.111 C 201.324 90.472,201.736 91.359,202.551 89.500 C 204.937 84.055,211.778 85.203,211.778 91.048 C 211.778 94.504,210.749 96.246,205.243 102.111 C 202.001 105.564,201.333 106.338,201.333 106.640 C 201.333 106.818,203.257 106.889,208.086 106.889 L 214.839 106.889 215.445 105.389 C 216.303 103.267,216.389 103.047,216.526 102.618 C 216.755 101.899,216.244 101.987,215.511 102.794 C 214.270 104.160,214.009 104.222,209.567 104.222 C 204.810 104.222,204.818 104.229,206.931 102.000 C 208.378 100.473,210.157 98.557,211.722 96.840 C 212.242 96.270,212.667 95.710,212.667 95.596 C 212.667 95.481,212.807 95.271,212.980 95.128 C 214.490 93.874,215.367 89.152,214.475 87.072 C 213.181 84.053,208.667 82.480,205.555 83.962 M251.111 83.839 C 251.111 83.995,251.840 84.873,252.732 85.791 C 254.340 87.446,256.000 90.166,256.000 91.143 C 256.000 91.386,256.109 91.789,256.243 92.039 C 256.920 93.304,256.891 102.882,256.204 104.889 C 255.419 107.184,254.343 108.966,252.756 110.600 C 250.346 113.081,250.573 113.786,253.122 111.736 C 255.889 109.512,258.667 105.888,258.667 104.503 C 258.667 104.345,258.757 104.043,258.867 103.830 C 260.653 100.395,259.754 93.203,256.999 88.889 C 255.176 86.034,251.111 82.547,251.111 83.839 M164.942 91.713 C 162.751 92.449,162.225 92.889,163.534 92.889 C 164.928 92.889,165.001 93.217,164.990 99.455 C 164.980 105.695,164.957 105.797,163.478 106.180 C 161.659 106.652,162.652 106.889,166.444 106.889 C 170.285 106.889,171.100 106.688,169.431 106.152 C 167.974 105.684,168.000 105.794,168.000 100.009 L 168.000 94.754 168.722 94.076 C 170.059 92.822,171.793 92.388,172.885 93.033 C 174.102 93.752,174.222 94.386,174.222 100.076 C 174.222 105.751,174.203 105.838,172.904 106.163 C 170.955 106.651,171.937 106.889,175.898 106.889 C 179.808 106.889,180.861 106.593,178.668 106.111 C 177.422 105.838,177.333 105.419,177.333 99.818 C 177.333 94.773,177.338 94.727,177.861 94.162 C 179.597 92.289,182.329 92.260,183.205 94.106 C 184.135 96.066,183.602 106.000,182.568 106.000 C 182.405 106.000,182.035 106.197,181.747 106.437 L 181.222 106.874 184.963 106.881 C 188.720 106.889,189.631 106.658,187.857 106.150 C 186.625 105.796,186.562 105.501,186.486 99.667 C 186.448 96.733,186.323 94.238,186.209 94.122 C 186.094 94.006,186.000 93.704,186.000 93.451 C 186.000 90.530,180.630 90.184,177.698 92.916 C 177.057 93.512,176.857 93.442,176.135 92.366 C 174.714 90.248,171.724 90.407,168.533 92.770 C 168.152 93.052,167.957 92.830,167.915 92.067 C 167.878 91.404,167.628 90.871,167.376 90.917 C 167.291 90.933,166.196 91.291,164.942 91.713 M157.000 91.266 C 156.756 91.327,156.461 91.467,156.344 91.577 C 156.228 91.687,155.965 91.778,155.759 91.778 C 155.553 91.778,155.098 91.927,154.748 92.110 C 154.398 92.292,153.948 92.442,153.749 92.443 C 153.329 92.445,152.825 92.973,153.039 93.187 C 153.119 93.268,153.563 93.333,154.024 93.333 C 155.498 93.333,155.556 93.570,155.554 99.549 C 155.553 105.434,155.468 105.753,153.793 106.166 C 151.820 106.652,152.834 106.889,156.889 106.889 C 160.997 106.889,161.759 106.705,160.049 106.126 C 158.524 105.610,158.567 105.827,158.444 98.159 C 158.322 90.525,158.404 90.916,157.000 91.266 M224.889 91.699 C 223.397 91.923,221.778 92.568,221.778 92.939 C 221.778 93.259,221.872 93.286,222.348 93.106 C 224.005 92.475,224.655 92.957,225.204 95.222 C 225.411 96.078,225.675 97.085,225.790 97.460 C 226.268 99.014,226.078 99.710,224.625 101.743 C 222.250 105.066,221.704 105.411,220.077 104.624 C 218.897 104.053,217.857 106.008,218.938 106.765 C 220.536 107.885,221.849 107.136,224.473 103.611 C 226.392 101.033,226.680 100.991,227.126 103.222 C 227.702 106.100,227.941 106.617,228.889 107.027 C 230.110 107.555,231.269 106.894,232.810 104.789 C 234.077 103.058,233.762 102.543,232.366 104.064 C 230.836 105.730,230.156 105.345,229.528 102.457 C 229.407 101.900,229.221 101.044,229.115 100.556 C 229.009 100.067,228.826 99.294,228.708 98.837 C 228.207 96.902,231.102 93.325,232.776 93.812 C 234.585 94.337,235.821 92.428,234.096 91.772 C 232.737 91.256,231.346 92.107,229.454 94.613 C 228.558 95.800,228.269 95.994,228.130 95.500 C 228.087 95.347,227.929 94.772,227.778 94.222 C 227.284 92.421,227.049 91.965,226.506 91.759 C 225.965 91.553,225.884 91.550,224.889 91.699 M180.889 116.596 C 178.842 117.310,177.708 118.526,177.246 120.500 C 177.034 121.404,177.585 121.281,178.110 120.307 C 179.929 116.929,184.444 118.047,184.444 121.876 C 184.444 122.785,184.344 123.591,184.222 123.667 C 184.100 123.742,184.000 123.953,184.000 124.135 C 184.000 124.973,182.440 126.949,178.503 131.096 C 176.494 133.212,176.355 133.130,181.825 133.060 L 186.539 133.000 186.804 132.444 C 187.593 130.787,187.773 130.129,187.538 129.758 C 187.388 129.520,187.339 129.514,187.337 129.733 C 187.324 130.774,186.283 131.111,183.079 131.111 C 179.525 131.111,179.541 131.127,181.243 129.384 C 181.927 128.684,182.952 127.563,183.521 126.892 C 184.090 126.222,184.716 125.494,184.912 125.275 C 188.469 121.287,185.542 114.972,180.889 116.596 M146.556 122.430 C 144.856 122.717,144.129 123.351,145.563 123.295 C 146.600 123.254,146.719 123.354,147.074 124.556 C 147.970 127.590,147.935 127.808,146.177 130.111 L 144.990 131.667 143.773 131.667 C 142.344 131.667,141.788 132.650,142.964 133.097 C 144.104 133.531,145.040 132.937,146.530 130.835 C 147.642 129.266,148.430 129.041,148.454 130.286 C 148.509 133.244,150.583 134.106,152.275 131.874 C 153.194 130.661,153.002 130.262,151.974 131.247 C 150.909 132.267,150.685 131.970,149.813 128.386 C 149.444 126.868,149.483 126.546,150.167 125.495 C 151.160 123.969,151.443 123.736,152.256 123.781 C 153.683 123.861,153.778 123.819,153.778 123.111 C 153.778 121.799,152.219 122.146,150.614 123.815 C 149.281 125.202,148.889 125.294,148.889 124.220 C 148.889 123.519,148.475 122.444,148.205 122.444 C 148.112 122.444,147.903 122.407,147.740 122.362 C 147.578 122.317,147.044 122.347,146.556 122.430 M168.826 122.359 C 168.651 122.534,169.240 123.455,170.161 124.444 C 171.644 126.038,171.425 126.092,162.911 126.222 L 155.667 126.333 155.596 126.944 L 155.526 127.556 162.778 127.556 C 171.404 127.556,171.752 127.639,170.149 129.333 C 167.896 131.715,168.496 132.373,170.809 130.056 C 171.647 129.216,172.909 128.185,173.612 127.767 C 174.937 126.979,175.051 126.752,174.320 126.350 C 173.302 125.790,171.368 124.270,170.422 123.286 C 169.433 122.257,169.114 122.071,168.826 122.359 " stroke="none" fill="#101010" fill-rule="evenodd"></path><path id="path1" d="M0.000 111.111 L 0.000 222.222 200.000 222.222 L 400.000 222.222 400.000 111.111 L 400.000 0.000 200.000 0.000 L 0.000 0.000 0.000 111.111 M244.966 77.722 C 246.819 78.748,248.226 81.414,247.566 82.647 C 247.438 82.886,247.333 83.305,247.333 83.577 C 247.333 84.174,246.654 85.778,246.402 85.778 C 246.303 85.778,246.222 85.908,246.222 86.067 C 246.222 86.373,244.795 88.049,242.505 90.435 C 240.927 92.079,240.965 92.167,243.222 92.117 C 246.492 92.044,246.453 92.053,247.251 91.207 C 248.230 90.169,249.623 90.620,248.706 91.678 C 248.605 91.794,248.333 92.467,248.102 93.175 C 247.579 94.769,247.883 94.696,242.111 94.618 C 236.700 94.546,236.434 94.417,238.151 92.705 C 245.043 85.834,246.508 81.872,242.801 80.133 C 241.475 79.510,239.111 80.527,239.111 81.720 C 239.111 81.874,239.035 82.000,238.942 82.000 C 238.848 82.000,238.673 82.225,238.553 82.500 C 238.430 82.779,238.137 83.000,237.889 83.000 C 237.339 83.000,237.165 81.984,237.568 81.131 C 237.718 80.814,238.001 80.219,238.198 79.808 C 239.200 77.714,242.895 76.575,244.966 77.722 M149.111 93.819 C 149.111 106.013,149.080 105.778,150.678 105.778 C 151.369 105.778,151.887 106.284,151.699 106.775 C 151.589 107.059,150.897 107.111,147.214 107.111 L 142.859 107.111 142.930 106.500 C 142.988 105.994,143.130 105.870,143.755 105.778 C 145.430 105.531,145.436 105.495,145.509 95.928 C 145.586 85.828,145.541 85.556,143.791 85.556 C 143.016 85.556,142.798 85.282,142.983 84.543 C 143.086 84.135,143.269 84.000,143.719 84.000 C 144.049 84.000,144.722 83.862,145.215 83.694 C 145.708 83.525,146.411 83.286,146.778 83.162 C 147.144 83.038,147.819 82.926,148.278 82.913 L 149.111 82.889 149.111 93.819 M158.303 83.475 C 159.648 84.820,158.744 86.894,156.818 86.882 C 155.487 86.874,155.065 86.617,154.714 85.603 C 153.973 83.458,156.681 81.852,158.303 83.475 M199.371 83.257 C 199.953 83.783,199.884 84.052,198.944 84.926 C 198.240 85.582,197.573 86.319,196.224 87.935 C 196.101 88.083,196.000 88.308,196.000 88.435 C 196.000 88.562,195.900 88.667,195.778 88.667 C 195.656 88.667,195.556 88.809,195.556 88.982 C 195.556 89.155,195.415 89.580,195.243 89.926 C 194.614 91.192,194.471 91.713,194.098 94.106 C 193.572 97.476,193.889 103.152,194.691 104.719 C 194.800 104.931,194.889 105.287,194.889 105.510 C 194.889 105.733,195.036 106.109,195.215 106.346 C 195.395 106.584,195.545 106.953,195.548 107.167 C 195.552 107.381,195.656 107.556,195.778 107.556 C 195.900 107.556,196.000 107.666,196.000 107.802 C 196.000 108.145,198.013 110.631,198.978 111.481 C 199.873 112.268,199.986 112.762,199.348 113.103 C 198.635 113.485,197.440 112.811,195.478 110.920 C 193.074 108.603,191.732 106.317,190.634 102.667 C 189.974 100.473,190.292 93.788,191.133 92.170 C 191.243 91.957,191.333 91.623,191.333 91.426 C 191.333 91.103,191.941 89.830,192.227 89.556 C 192.290 89.494,192.452 89.194,192.587 88.889 C 193.150 87.610,197.652 83.333,198.435 83.333 C 198.562 83.333,198.667 83.233,198.667 83.111 C 198.667 82.788,198.909 82.838,199.371 83.257 M210.333 83.190 C 213.800 84.114,215.176 85.967,215.161 89.692 C 215.157 90.928,215.054 92.128,214.934 92.359 C 214.813 92.589,214.604 93.028,214.470 93.333 C 213.737 94.996,212.100 97.175,209.778 99.579 C 205.285 104.230,205.210 103.867,210.644 103.746 L 214.183 103.667 215.132 102.611 C 216.620 100.954,217.609 101.435,216.678 103.363 C 216.427 103.881,216.222 104.438,216.222 104.600 C 216.222 104.762,216.138 105.069,216.036 105.281 C 215.934 105.493,215.705 105.967,215.528 106.333 L 215.205 107.000 208.047 107.059 C 199.354 107.130,199.662 107.360,203.333 103.547 C 209.142 97.513,210.239 96.015,211.304 92.651 C 213.205 86.651,205.217 83.877,202.896 89.731 C 202.421 90.928,200.653 91.213,200.969 90.042 C 202.507 84.348,205.756 81.971,210.333 83.190 M251.875 83.196 C 254.488 84.552,259.333 90.778,259.333 92.779 C 259.333 92.978,259.429 93.319,259.546 93.538 C 260.275 94.900,260.294 102.239,259.570 102.963 C 259.440 103.093,259.333 103.431,259.333 103.714 C 259.333 103.997,259.248 104.402,259.144 104.614 C 259.040 104.826,258.770 105.400,258.544 105.889 C 257.542 108.059,254.256 111.812,252.760 112.493 C 252.464 112.628,252.222 112.810,252.222 112.899 C 252.222 113.186,251.253 113.321,250.956 113.075 C 250.458 112.661,250.636 112.079,251.500 111.299 C 251.958 110.884,252.783 109.998,253.333 109.328 C 253.883 108.659,254.408 108.078,254.500 108.037 C 254.592 107.996,254.667 107.829,254.667 107.666 C 254.667 107.503,254.807 107.086,254.979 106.740 C 255.514 105.665,255.742 105.029,255.884 104.222 C 256.616 100.042,256.613 96.740,255.875 92.222 C 255.545 90.203,254.137 87.739,252.168 85.733 C 250.471 84.003,250.453 83.972,250.805 83.434 C 251.226 82.792,251.135 82.812,251.875 83.196 M158.537 90.579 C 158.847 90.698,158.890 91.543,158.896 97.746 C 158.904 105.443,158.960 105.773,160.258 105.781 C 160.991 105.786,161.391 106.094,161.297 106.582 C 161.185 107.165,152.746 107.355,152.526 106.780 C 152.338 106.291,152.846 105.779,153.527 105.771 C 154.947 105.754,154.992 105.589,155.076 100.157 C 155.172 93.969,155.113 93.690,153.696 93.598 C 151.998 93.489,152.255 92.550,154.164 91.891 C 154.927 91.627,155.619 91.344,155.702 91.261 C 155.784 91.179,156.060 91.108,156.315 91.103 C 156.569 91.099,157.028 90.952,157.333 90.778 C 157.974 90.411,158.062 90.397,158.537 90.579 M167.871 90.579 C 168.118 90.674,168.222 91.006,168.222 91.699 L 168.222 92.685 168.829 92.122 C 170.509 90.564,173.356 89.991,175.064 90.867 C 175.904 91.298,176.889 92.270,176.889 92.668 C 176.889 93.047,177.226 92.913,177.987 92.234 C 179.608 90.786,181.895 90.160,183.740 90.657 C 184.777 90.936,186.222 92.221,186.222 92.864 C 186.222 93.073,186.347 93.369,186.500 93.522 C 186.699 93.722,186.815 95.347,186.911 99.289 C 187.064 105.571,187.101 105.776,188.081 105.781 C 188.982 105.786,189.397 106.060,189.297 106.582 C 189.222 106.970,188.927 107.004,185.149 107.061 L 181.081 107.121 181.151 106.505 C 181.210 105.997,181.343 105.877,181.913 105.822 C 183.108 105.705,183.222 105.188,183.222 99.910 C 183.222 93.354,182.463 92.094,179.405 93.575 C 177.581 94.458,177.513 94.693,177.595 99.835 C 177.677 104.973,177.835 105.618,179.041 105.735 C 179.840 105.813,180.334 106.278,180.143 106.775 C 180.034 107.058,179.365 107.111,175.881 107.111 L 171.748 107.111 171.819 106.500 C 171.877 105.991,172.010 105.877,172.608 105.819 C 173.913 105.694,174.000 105.338,174.000 100.103 C 174.000 95.907,173.955 95.323,173.565 94.517 C 172.684 92.692,170.649 92.754,168.767 94.664 C 168.224 95.216,168.222 95.231,168.222 99.852 C 168.222 105.006,168.394 105.774,169.548 105.781 C 170.322 105.786,170.726 106.085,170.630 106.582 C 170.541 107.045,162.826 107.359,162.385 106.918 C 162.031 106.565,162.628 105.778,163.250 105.778 C 164.550 105.778,164.651 105.318,164.659 99.394 L 164.667 94.010 164.113 93.647 C 163.808 93.448,163.420 93.338,163.251 93.403 C 162.865 93.551,162.444 93.147,162.444 92.628 C 162.444 92.193,163.496 91.556,164.214 91.556 C 164.466 91.556,164.846 91.468,165.059 91.360 C 166.736 90.510,167.289 90.356,167.871 90.579 M227.051 91.611 C 227.684 92.296,228.220 93.668,228.234 94.638 L 228.246 95.444 228.845 94.686 C 231.544 91.270,233.336 90.350,234.745 91.656 C 235.486 92.343,235.502 93.185,234.788 93.899 C 234.229 94.458,233.041 94.649,232.778 94.222 C 232.443 93.681,230.444 94.754,230.444 95.475 C 230.444 95.561,230.305 95.790,230.134 95.983 C 229.584 96.603,228.876 98.022,229.009 98.237 C 229.080 98.352,229.224 98.920,229.328 99.501 C 230.280 104.771,230.707 105.348,232.295 103.504 C 233.290 102.349,234.222 102.315,234.222 103.434 C 234.222 103.661,232.287 106.206,231.680 106.778 C 229.717 108.628,226.895 107.040,226.890 104.083 C 226.889 103.823,226.734 103.239,226.545 102.786 L 226.201 101.963 225.504 102.926 C 225.121 103.456,224.676 104.021,224.515 104.183 C 224.354 104.344,224.222 104.546,224.222 104.631 C 224.222 105.635,220.926 107.898,219.831 107.644 C 217.518 107.107,217.508 104.249,219.820 104.229 C 220.271 104.225,220.702 104.322,220.778 104.444 C 221.288 105.271,221.881 104.785,224.073 101.741 C 225.781 99.370,225.945 98.993,225.583 98.275 C 225.349 97.810,224.662 94.924,224.665 94.416 C 224.668 93.782,223.981 93.444,222.685 93.444 C 221.527 93.444,221.440 93.408,221.382 92.889 C 221.316 92.310,222.599 91.560,223.669 91.552 C 223.912 91.550,224.261 91.452,224.444 91.333 C 225.088 90.918,226.555 91.074,227.051 91.611 M184.628 116.569 C 188.549 118.525,187.749 123.095,182.525 128.580 C 181.931 129.204,181.202 129.979,180.906 130.302 L 180.367 130.889 183.057 130.889 L 185.746 130.889 186.571 130.111 C 187.342 129.384,187.965 129.151,188.284 129.470 C 188.407 129.592,188.148 130.439,187.509 132.000 C 186.977 133.301,187.346 133.218,181.809 133.282 C 175.659 133.353,175.702 133.383,178.198 130.804 C 181.297 127.602,181.806 127.016,182.742 125.578 C 184.663 122.625,184.567 120.154,182.484 118.944 C 181.145 118.167,179.579 118.782,178.528 120.500 C 177.290 122.522,176.262 122.154,176.976 119.945 C 178.000 116.774,181.735 115.127,184.628 116.569 M148.610 122.278 C 148.866 122.553,149.109 123.077,149.149 123.443 C 149.247 124.334,149.803 124.394,150.292 123.565 C 151.239 121.963,153.371 121.395,154.124 122.544 C 154.762 123.517,153.699 124.657,152.559 124.223 C 151.949 123.992,151.747 124.128,150.556 125.572 C 150.067 126.165,149.982 128.738,150.437 129.192 C 150.563 129.319,150.667 129.694,150.667 130.026 C 150.667 131.467,151.163 131.692,152.076 130.667 C 153.251 129.348,154.033 130.272,152.967 131.719 C 150.871 134.562,148.222 134.251,148.222 131.161 C 148.222 130.080,147.672 129.914,147.066 130.813 C 144.970 133.922,143.385 134.568,142.049 132.858 C 141.467 132.113,142.780 130.625,143.576 131.128 C 144.214 131.532,144.847 131.342,145.300 130.611 C 145.547 130.214,145.930 129.686,146.152 129.438 C 147.120 128.356,147.343 127.668,147.095 126.525 C 146.966 125.931,146.804 125.144,146.735 124.778 C 146.553 123.803,146.238 123.520,145.411 123.591 C 144.364 123.682,143.941 123.185,144.651 122.701 C 145.980 121.796,147.964 121.584,148.610 122.278 M171.242 123.508 C 172.231 124.451,173.531 125.477,174.131 125.789 C 175.661 126.583,175.578 126.951,173.556 128.322 C 172.639 128.943,171.389 129.968,170.778 130.599 C 169.735 131.676,169.406 131.869,168.722 131.804 C 168.146 131.749,168.456 130.622,169.333 129.581 C 170.728 127.927,171.069 128.013,162.833 127.947 L 155.444 127.889 155.375 127.040 C 155.249 125.513,155.032 125.556,162.990 125.556 C 166.927 125.556,170.211 125.493,170.288 125.415 C 170.365 125.338,169.982 124.765,169.436 124.142 C 168.525 123.099,168.220 122.299,168.593 121.926 C 168.965 121.553,169.572 121.915,171.242 123.508 " stroke="none" fill="#fbfbfb" fill-rule="evenodd"></path><path id="path2" d="M240.690 77.574 C 240.397 77.692,240.214 77.843,240.282 77.912 C 240.350 77.980,240.608 77.928,240.855 77.796 C 241.420 77.494,244.371 77.479,244.556 77.778 C 244.631 77.900,244.812 77.997,244.958 77.993 C 245.103 77.989,245.028 77.839,244.791 77.660 C 244.296 77.285,241.555 77.228,240.690 77.574 M239.364 78.388 C 238.859 78.740,237.777 80.254,237.779 80.607 C 237.779 80.701,238.054 80.364,238.390 79.858 C 238.725 79.353,239.250 78.731,239.556 78.477 C 240.217 77.927,240.103 77.874,239.364 78.388 M246.361 78.877 C 246.499 79.067,246.770 79.522,246.963 79.889 C 247.157 80.256,247.320 80.402,247.324 80.214 C 247.329 80.026,247.058 79.570,246.722 79.202 C 246.386 78.833,246.224 78.687,246.361 78.877 M240.276 80.072 C 240.000 80.226,239.617 80.597,239.425 80.898 L 239.075 81.444 239.521 80.941 C 239.766 80.664,240.299 80.293,240.705 80.116 C 241.112 79.940,241.294 79.795,241.111 79.794 C 240.928 79.794,240.552 79.919,240.276 80.072 M242.889 80.165 C 243.972 80.691,244.144 80.898,244.524 82.135 C 244.708 82.733,244.865 83.009,244.873 82.749 C 244.915 81.478,243.516 79.770,242.444 79.784 C 242.261 79.786,242.461 79.958,242.889 80.165 M247.366 81.889 C 247.364 82.819,247.401 82.922,247.596 82.520 C 247.756 82.188,247.757 81.845,247.598 81.409 C 247.386 80.827,247.368 80.864,247.366 81.889 M238.368 82.546 C 238.210 82.958,237.637 83.000,237.481 82.611 C 237.393 82.394,237.365 82.395,237.351 82.618 C 237.323 83.076,238.003 83.204,238.393 82.813 C 238.590 82.616,238.695 82.398,238.625 82.329 C 238.556 82.260,238.440 82.357,238.368 82.546 M147.000 83.103 C 146.756 83.205,146.121 83.405,145.589 83.548 C 145.058 83.691,144.676 83.861,144.740 83.925 C 144.853 84.038,145.785 83.779,147.333 83.202 C 147.761 83.042,147.961 82.913,147.778 82.915 C 147.594 82.917,147.244 83.002,147.000 83.103 M148.834 89.722 C 148.865 93.481,148.918 98.256,148.951 100.333 C 148.984 102.411,149.034 99.336,149.061 93.500 C 149.089 87.664,149.036 82.889,148.944 82.889 C 148.853 82.889,148.803 85.964,148.834 89.722 M155.201 83.389 C 154.781 83.885,154.782 83.886,155.222 83.529 C 155.467 83.331,155.817 83.114,156.000 83.047 C 156.283 82.943,156.280 82.921,155.979 82.906 C 155.784 82.897,155.434 83.114,155.201 83.389 M157.487 83.113 C 158.230 83.412,158.729 84.329,158.626 85.205 C 158.577 85.625,158.616 85.920,158.713 85.860 C 159.487 85.382,158.334 82.865,157.359 82.903 C 157.114 82.913,157.154 82.979,157.487 83.113 M198.667 83.085 C 198.667 83.193,198.867 83.334,199.111 83.398 C 199.704 83.553,199.672 83.822,198.957 84.705 L 198.358 85.444 199.068 84.792 C 199.884 84.041,199.938 83.769,199.371 83.257 C 198.921 82.849,198.667 82.787,198.667 83.085 M206.889 83.132 C 206.642 83.308,206.805 83.334,207.521 83.234 C 209.906 82.901,212.754 84.012,213.963 85.749 C 214.350 86.305,214.667 86.661,214.667 86.540 C 214.667 84.560,208.614 81.907,206.889 83.132 M250.806 83.433 C 250.610 83.732,250.537 84.031,250.644 84.097 C 250.751 84.163,250.890 84.018,250.954 83.775 C 251.017 83.532,251.235 83.333,251.437 83.333 C 251.639 83.333,251.742 83.233,251.667 83.111 C 251.446 82.754,251.187 82.851,250.806 83.433 M197.222 84.028 C 195.514 85.306,192.444 88.594,192.444 89.147 C 192.444 89.276,192.880 88.796,193.412 88.080 C 194.454 86.678,196.148 85.007,197.222 84.320 C 198.011 83.817,198.551 83.327,198.294 83.349 C 198.193 83.357,197.711 83.663,197.222 84.028 M205.209 83.683 C 204.972 83.876,204.911 83.965,205.073 83.881 C 205.235 83.798,205.635 83.649,205.962 83.551 C 206.438 83.407,206.465 83.368,206.098 83.352 C 205.846 83.342,205.446 83.491,205.209 83.683 M244.590 83.860 C 244.498 84.210,244.475 84.549,244.540 84.614 C 244.718 84.793,244.937 84.077,244.842 83.624 C 244.780 83.328,244.713 83.390,244.590 83.860 M252.122 83.501 C 252.238 83.593,252.708 84.012,253.167 84.433 C 253.625 84.854,254.000 85.135,254.000 85.058 C 254.000 84.841,252.361 83.337,252.122 83.335 C 251.989 83.334,251.989 83.395,252.122 83.501 M247.129 83.827 C 247.119 84.037,246.913 84.562,246.670 84.993 C 246.428 85.425,246.309 85.778,246.405 85.778 C 246.666 85.778,247.386 84.038,247.257 83.719 C 247.191 83.556,247.139 83.600,247.129 83.827 M143.019 84.365 C 142.913 84.640,142.948 84.673,143.162 84.500 C 143.317 84.373,143.644 84.221,143.889 84.161 C 144.239 84.075,144.209 84.046,143.746 84.026 C 143.389 84.010,143.104 84.143,143.019 84.365 M154.597 84.466 C 154.530 84.722,154.562 85.147,154.668 85.410 C 154.823 85.796,154.863 85.705,154.875 84.944 C 154.890 83.914,154.787 83.737,154.597 84.466 M203.350 85.034 C 202.849 85.603,202.504 86.128,202.583 86.201 C 202.663 86.274,202.778 86.183,202.840 86.000 C 202.902 85.817,203.343 85.292,203.819 84.833 C 204.296 84.375,204.590 84.000,204.473 84.000 C 204.356 84.000,203.850 84.465,203.350 85.034 M252.018 85.616 C 252.680 86.260,253.272 86.752,253.333 86.709 C 253.458 86.620,251.171 84.444,250.953 84.444 C 250.877 84.444,251.356 84.972,252.018 85.616 M244.240 85.141 C 244.219 85.580,242.737 87.812,241.751 88.889 C 239.394 91.465,239.228 91.687,241.063 89.808 C 243.102 87.720,244.584 85.587,244.369 85.053 C 244.299 84.882,244.251 84.915,244.240 85.141 M143.032 85.385 C 143.090 85.479,143.412 85.556,143.748 85.556 C 144.425 85.556,144.930 85.882,145.299 86.556 C 145.505 86.931,145.543 86.941,145.549 86.620 C 145.559 86.021,144.708 85.384,143.778 85.295 C 143.309 85.251,142.974 85.291,143.032 85.385 M197.014 86.698 C 196.450 87.326,196.054 87.901,196.135 87.975 C 196.217 88.050,196.328 87.984,196.384 87.829 C 196.439 87.674,196.600 87.419,196.742 87.262 C 196.884 87.105,197.294 86.657,197.653 86.266 C 198.012 85.875,198.246 85.556,198.173 85.556 C 198.101 85.556,197.579 86.069,197.014 86.698 M255.333 86.329 C 255.761 86.815,256.170 87.265,256.243 87.329 C 256.315 87.392,256.788 88.094,257.293 88.889 C 257.799 89.683,258.215 90.251,258.218 90.150 C 258.228 89.756,256.233 86.958,255.418 86.222 L 254.556 85.444 255.333 86.329 M154.889 86.158 C 154.889 86.352,155.777 86.966,155.889 86.849 C 155.926 86.810,155.716 86.598,155.423 86.379 C 155.129 86.159,154.889 86.060,154.889 86.158 M245.521 86.773 C 245.217 87.200,244.494 88.050,243.914 88.663 C 243.333 89.276,242.936 89.778,243.031 89.778 C 243.337 89.778,246.344 86.270,246.179 86.105 C 246.120 86.046,245.824 86.347,245.521 86.773 M206.500 86.381 C 206.836 86.432,207.386 86.432,207.722 86.381 C 208.058 86.330,207.783 86.289,207.111 86.289 C 206.439 86.289,206.164 86.330,206.500 86.381 M202.006 86.770 C 201.857 86.950,201.774 87.211,201.821 87.351 C 201.867 87.491,202.025 87.345,202.170 87.025 C 202.467 86.374,202.409 86.285,202.006 86.770 M208.667 86.527 C 208.667 86.588,209.068 86.864,209.559 87.140 C 210.194 87.497,210.608 87.965,210.995 88.765 C 211.294 89.383,211.543 89.748,211.547 89.575 C 211.565 88.911,210.456 87.422,209.577 86.928 C 209.076 86.646,208.667 86.466,208.667 86.527 M204.197 87.500 C 203.490 88.282,203.031 88.889,203.148 88.889 C 203.198 88.889,203.615 88.439,204.075 87.889 C 204.993 86.791,205.075 86.529,204.197 87.500 M214.682 87.042 C 214.732 87.619,215.080 88.109,215.095 87.624 C 215.104 87.356,215.011 87.076,214.889 87.000 C 214.767 86.924,214.674 86.944,214.682 87.042 M254.035 87.889 C 254.327 88.378,254.705 89.053,254.876 89.389 C 255.046 89.724,255.224 89.961,255.270 89.915 C 255.386 89.799,254.245 87.742,253.837 87.333 C 253.654 87.150,253.743 87.400,254.035 87.889 M195.158 89.430 C 194.786 90.246,194.821 90.418,195.239 89.821 C 195.431 89.547,195.553 89.213,195.508 89.080 C 195.464 88.947,195.306 89.105,195.158 89.430 M201.043 89.722 C 200.977 90.058,201.015 90.428,201.128 90.544 C 201.255 90.675,201.333 90.440,201.333 89.933 C 201.333 88.960,201.210 88.871,201.043 89.722 M202.599 89.892 C 202.396 90.318,202.275 90.667,202.331 90.667 C 202.483 90.667,203.158 89.306,203.056 89.204 C 203.008 89.156,202.802 89.465,202.599 89.892 M191.560 90.659 C 191.420 90.921,191.350 91.304,191.405 91.512 C 191.483 91.808,191.510 91.791,191.530 91.433 C 191.544 91.183,191.674 90.859,191.819 90.715 C 191.963 90.570,192.021 90.392,191.948 90.318 C 191.874 90.244,191.699 90.398,191.560 90.659 M211.607 90.889 C 211.607 91.317,211.653 91.492,211.709 91.278 C 211.765 91.064,211.765 90.714,211.709 90.500 C 211.653 90.286,211.607 90.461,211.607 90.889 M157.333 90.801 C 156.969 91.024,156.931 91.088,157.222 90.985 C 158.632 90.489,158.544 90.086,158.672 97.556 L 158.788 104.333 158.838 97.524 C 158.883 91.489,158.849 90.699,158.537 90.579 C 158.056 90.395,157.969 90.411,157.333 90.801 M166.444 90.778 C 166.139 90.952,166.015 91.099,166.170 91.103 C 166.324 91.108,166.636 90.995,166.862 90.854 C 167.557 90.420,168.000 90.772,168.000 91.758 C 168.000 92.829,168.247 93.031,168.803 92.416 C 169.033 92.162,169.506 91.807,169.853 91.628 C 170.201 91.448,170.429 91.244,170.360 91.175 C 170.232 91.046,168.688 92.121,168.392 92.544 C 168.302 92.672,168.227 92.313,168.226 91.746 C 168.221 90.419,167.632 90.099,166.444 90.778 M171.111 90.795 L 170.556 91.130 171.111 90.954 C 171.830 90.726,174.425 90.732,175.000 90.963 C 175.248 91.063,175.199 90.991,174.889 90.801 C 174.159 90.353,171.850 90.349,171.111 90.795 M180.556 90.790 C 179.999 91.062,179.981 91.093,180.444 90.977 C 183.010 90.336,185.027 90.935,185.892 92.595 C 186.096 92.985,186.220 93.082,186.221 92.852 C 186.227 91.225,182.467 89.856,180.556 90.790 M241.599 91.177 C 240.792 92.010,240.723 92.230,241.278 92.205 C 241.541 92.193,241.570 92.149,241.370 92.069 C 241.158 91.984,241.283 91.732,241.802 91.197 C 242.203 90.783,242.482 90.444,242.421 90.444 C 242.359 90.444,241.990 90.774,241.599 91.177 M247.327 91.146 C 246.909 91.665,246.508 91.887,245.771 92.006 L 244.778 92.167 245.699 92.194 C 246.495 92.218,246.716 92.114,247.321 91.425 C 248.090 90.549,248.817 90.511,248.547 91.360 C 248.446 91.679,248.477 91.784,248.643 91.681 C 249.009 91.455,248.940 90.734,248.537 90.579 C 247.991 90.370,247.925 90.400,247.327 91.146 M258.222 90.630 C 258.222 90.731,258.297 90.890,258.389 90.981 C 258.481 91.073,258.725 91.565,258.932 92.074 C 259.139 92.583,259.314 92.883,259.321 92.741 C 259.337 92.409,258.499 90.444,258.341 90.444 C 258.276 90.444,258.222 90.528,258.222 90.630 M176.114 91.839 C 176.452 92.301,176.775 92.632,176.832 92.575 C 176.890 92.518,176.613 92.140,176.218 91.736 L 175.500 91.000 176.114 91.839 M178.712 91.651 C 177.623 92.421,177.547 92.591,178.556 92.003 C 179.599 91.394,179.958 91.106,179.656 91.122 C 179.539 91.128,179.115 91.366,178.712 91.651 M214.690 92.138 C 214.519 92.734,214.280 93.350,214.158 93.505 C 214.036 93.661,213.997 93.849,214.071 93.923 C 214.145 93.997,214.322 93.770,214.464 93.418 C 214.606 93.066,214.819 92.566,214.938 92.307 C 215.058 92.048,215.120 91.660,215.077 91.445 C 215.035 91.228,214.862 91.538,214.690 92.138 M224.444 91.335 C 224.216 91.484,224.449 91.508,225.180 91.411 C 226.080 91.292,226.361 91.350,226.958 91.781 L 227.667 92.293 227.128 91.702 C 226.556 91.074,225.141 90.881,224.444 91.335 M232.168 91.417 C 231.458 91.732,230.162 92.933,229.500 93.889 C 229.246 94.256,229.580 93.985,230.241 93.289 C 232.015 91.421,233.426 90.929,234.526 91.794 C 235.696 92.715,234.905 94.391,233.414 94.149 C 232.967 94.077,232.710 94.112,232.786 94.235 C 233.043 94.651,234.237 94.450,234.788 93.899 C 236.319 92.368,234.313 90.467,232.168 91.417 M154.111 91.897 C 153.214 92.308,153.750 92.308,154.697 91.898 C 155.108 91.719,155.294 91.577,155.111 91.582 C 154.928 91.587,154.478 91.729,154.111 91.897 M163.056 91.905 C 162.719 92.087,162.444 92.287,162.444 92.348 C 162.444 92.410,162.669 92.339,162.944 92.191 C 163.219 92.044,163.744 91.850,164.111 91.762 C 164.714 91.617,164.724 91.600,164.222 91.587 C 163.917 91.580,163.392 91.723,163.056 91.905 M194.056 92.961 C 193.903 93.771,193.787 94.710,193.798 95.050 C 193.809 95.389,193.962 94.869,194.138 93.894 C 194.314 92.919,194.430 91.979,194.395 91.805 C 194.361 91.632,194.208 92.152,194.056 92.961 M222.444 91.889 C 221.727 92.299,222.093 92.302,223.222 91.895 C 223.927 91.641,223.996 91.575,223.556 91.573 C 223.250 91.572,222.750 91.714,222.444 91.889 M255.911 92.333 C 255.989 92.822,256.126 93.772,256.216 94.444 L 256.379 95.667 256.402 94.667 C 256.415 94.117,256.277 93.167,256.097 92.556 C 255.808 91.576,255.786 91.550,255.911 92.333 M247.875 93.179 L 247.429 94.333 242.402 94.333 C 239.637 94.333,237.422 94.408,237.479 94.500 C 237.612 94.715,247.147 94.712,247.456 94.497 C 247.716 94.315,248.540 92.244,248.406 92.110 C 248.359 92.063,248.120 92.544,247.875 93.179 M152.815 92.370 C 152.256 92.929,152.690 93.555,153.611 93.518 L 154.556 93.481 153.722 93.394 C 152.878 93.305,152.513 92.633,153.167 92.369 C 153.322 92.307,153.338 92.250,153.204 92.240 C 153.071 92.230,152.896 92.289,152.815 92.370 M211.263 92.529 C 211.179 92.747,211.117 93.092,211.125 93.296 C 211.135 93.541,211.212 93.485,211.354 93.130 C 211.472 92.835,211.534 92.490,211.492 92.364 C 211.449 92.237,211.347 92.312,211.263 92.529 M221.374 92.833 C 221.441 93.419,221.497 93.444,222.685 93.444 C 223.442 93.444,224.092 93.573,224.352 93.774 C 224.761 94.090,224.761 94.083,224.345 93.597 C 223.957 93.142,223.787 93.106,222.702 93.241 L 221.492 93.392 221.604 92.807 C 221.666 92.486,221.623 92.222,221.510 92.222 C 221.397 92.222,221.335 92.497,221.374 92.833 M227.568 92.556 C 227.565 92.678,227.704 93.228,227.877 93.778 C 228.055 94.340,228.199 94.570,228.207 94.303 C 228.216 94.042,228.076 93.492,227.898 93.081 C 227.719 92.670,227.571 92.433,227.568 92.556 M162.462 92.789 C 162.434 93.159,162.914 93.532,163.251 93.403 C 163.420 93.338,163.808 93.448,164.113 93.647 C 164.417 93.847,164.667 93.924,164.667 93.819 C 164.667 93.572,163.659 93.111,163.119 93.111 C 162.891 93.111,162.653 92.986,162.592 92.833 C 162.530 92.681,162.472 92.661,162.462 92.789 M237.700 93.132 C 237.125 93.804,237.382 93.880,238.001 93.221 C 238.287 92.916,238.427 92.667,238.310 92.667 C 238.194 92.667,237.919 92.876,237.700 93.132 M170.667 93.222 C 169.728 93.584,170.085 93.658,171.085 93.309 C 172.088 92.960,173.071 93.404,173.485 94.396 C 173.660 94.816,173.855 95.108,173.918 95.045 C 174.110 94.853,173.367 93.604,172.841 93.236 C 172.251 92.822,171.714 92.819,170.667 93.222 M179.562 93.241 C 178.673 93.627,178.059 94.138,177.723 94.775 C 177.593 95.021,177.794 94.896,178.169 94.496 C 180.388 92.136,182.922 92.898,183.174 96.000 L 183.256 97.000 183.295 95.933 C 183.381 93.552,181.677 92.323,179.562 93.241 M190.556 93.778 C 190.472 94.041,190.454 94.306,190.515 94.367 C 190.576 94.428,190.694 94.263,190.778 94.000 C 190.861 93.737,190.879 93.472,190.818 93.411 C 190.757 93.350,190.639 93.515,190.556 93.778 M259.340 93.556 C 259.340 93.739,259.437 94.039,259.556 94.222 C 259.747 94.519,259.771 94.519,259.771 94.222 C 259.771 94.039,259.674 93.739,259.556 93.556 C 259.364 93.259,259.340 93.259,259.340 93.556 M168.938 94.139 C 168.544 94.447,168.222 94.816,168.222 94.958 C 168.222 95.101,168.467 94.954,168.766 94.631 C 169.065 94.309,169.440 93.999,169.599 93.942 C 169.759 93.885,169.836 93.780,169.771 93.709 C 169.706 93.637,169.331 93.831,168.938 94.139 M210.667 94.462 C 210.154 95.730,208.420 98.175,206.890 99.785 C 205.126 101.643,204.629 102.278,206.111 100.781 C 208.895 97.969,211.291 94.651,211.053 93.936 C 211.010 93.807,210.836 94.043,210.667 94.462 M155.000 99.556 C 155.000 102.589,155.073 104.954,155.163 104.812 C 155.253 104.671,155.327 102.306,155.327 99.556 C 155.327 96.806,155.253 94.440,155.163 94.300 C 155.073 94.159,155.000 96.524,155.000 99.556 M213.612 94.500 C 213.215 95.002,212.838 95.835,213.075 95.689 C 213.293 95.554,214.041 94.222,213.899 94.222 C 213.862 94.222,213.733 94.347,213.612 94.500 M224.693 94.556 C 224.682 94.800,224.823 95.450,225.006 96.000 C 225.222 96.652,225.304 96.768,225.240 96.333 C 225.082 95.262,224.714 94.066,224.693 94.556 M164.761 99.444 C 164.762 102.133,164.794 103.203,164.833 101.821 C 164.872 100.439,164.872 98.239,164.832 96.932 C 164.793 95.625,164.761 96.756,164.761 99.444 M186.720 99.667 C 186.689 103.718,186.741 104.651,187.023 105.111 C 187.216 105.425,187.287 105.473,187.187 105.222 C 187.089 104.978,186.953 102.528,186.884 99.778 L 186.758 94.778 186.720 99.667 M190.295 96.333 C 190.296 97.189,190.336 97.512,190.384 97.051 C 190.433 96.590,190.432 95.890,190.383 95.495 C 190.334 95.101,190.294 95.478,190.295 96.333 M259.880 98.444 C 259.872 101.942,259.881 102.015,260.064 100.021 C 260.170 98.871,260.174 97.221,260.073 96.354 C 259.918 95.028,259.888 95.360,259.880 98.444 M177.421 98.333 C 177.421 100.044,177.456 100.715,177.499 99.824 C 177.541 98.932,177.541 97.532,177.498 96.712 C 177.455 95.893,177.421 96.622,177.421 98.333 M211.095 97.833 C 210.438 98.597,209.798 99.296,209.672 99.385 C 209.526 99.490,209.524 99.549,209.667 99.550 C 209.872 99.550,211.509 97.793,212.179 96.852 C 212.777 96.014,212.249 96.490,211.095 97.833 M228.920 97.497 C 228.760 97.797,228.781 98.244,228.993 99.017 C 229.158 99.619,229.303 99.893,229.313 99.626 C 229.324 99.359,229.231 98.871,229.106 98.543 C 228.944 98.116,228.953 97.857,229.138 97.634 C 229.280 97.463,229.341 97.266,229.272 97.198 C 229.203 97.129,229.045 97.264,228.920 97.497 M225.349 97.709 C 225.340 97.977,225.433 98.258,225.556 98.333 C 225.818 98.496,225.818 98.278,225.556 97.667 C 225.371 97.238,225.364 97.240,225.349 97.709 M190.293 100.000 C 190.293 100.794,190.334 101.119,190.383 100.722 C 190.432 100.325,190.432 99.675,190.383 99.278 C 190.334 98.881,190.293 99.206,190.293 100.000 M207.356 101.866 C 206.435 102.794,205.789 103.617,205.875 103.755 C 206.040 104.022,212.814 104.071,213.736 103.811 C 214.018 103.732,212.642 103.702,210.677 103.746 C 208.713 103.789,206.851 103.761,206.541 103.683 L 205.977 103.541 206.711 102.806 C 208.121 101.392,209.200 100.222,209.095 100.222 C 209.037 100.222,208.254 100.962,207.356 101.866 M224.667 100.889 C 224.406 101.256,224.242 101.556,224.303 101.556 C 224.364 101.556,224.628 101.256,224.889 100.889 C 225.150 100.522,225.314 100.222,225.252 100.222 C 225.191 100.222,224.928 100.522,224.667 100.889 M193.822 101.111 C 193.813 101.539,193.950 102.489,194.126 103.222 C 194.439 104.531,194.442 104.535,194.306 103.444 C 194.009 101.065,193.839 100.247,193.822 101.111 M229.352 100.667 C 229.359 100.850,229.451 101.200,229.556 101.444 L 229.747 101.889 229.759 101.444 C 229.765 101.200,229.674 100.850,229.556 100.667 C 229.364 100.370,229.341 100.370,229.352 100.667 M256.175 102.222 C 256.093 102.894,255.970 103.844,255.901 104.333 C 255.801 105.043,255.845 104.975,256.120 104.000 C 256.309 103.328,256.433 102.378,256.394 101.889 C 256.327 101.037,256.318 101.051,256.175 102.222 M190.463 101.889 C 190.457 102.133,190.548 102.483,190.667 102.667 C 190.952 103.108,190.952 102.553,190.667 101.889 L 190.476 101.444 190.463 101.889 M215.269 102.452 C 214.471 103.320,214.226 103.717,214.650 103.454 C 214.893 103.305,216.298 101.556,216.176 101.556 C 216.130 101.556,215.722 101.959,215.269 102.452 M216.627 101.920 C 216.739 102.121,216.787 102.496,216.733 102.754 C 216.645 103.178,216.660 103.185,216.887 102.829 C 217.159 102.403,216.995 101.556,216.641 101.556 C 216.503 101.556,216.498 101.691,216.627 101.920 M223.368 102.722 C 222.406 104.110,221.935 104.601,221.441 104.726 C 221.025 104.831,221.027 104.839,221.473 104.863 C 221.932 104.888,222.915 103.864,223.846 102.389 C 224.456 101.423,224.091 101.678,223.368 102.722 M225.286 102.889 C 224.832 103.500,224.532 103.999,224.619 103.998 C 224.707 103.997,225.101 103.528,225.497 102.956 L 226.216 101.916 226.467 102.636 C 226.605 103.032,226.770 103.304,226.833 103.241 C 226.974 103.100,226.447 101.778,226.251 101.778 C 226.174 101.778,225.740 102.278,225.286 102.889 M229.793 102.363 C 229.784 102.624,229.924 103.174,230.102 103.586 C 230.518 104.543,230.529 104.178,230.123 102.889 C 229.945 102.327,229.801 102.097,229.793 102.363 M232.757 102.944 L 232.333 103.444 232.807 103.045 C 233.334 102.601,234.179 103.074,233.850 103.629 C 233.644 103.975,232.868 105.110,232.448 105.680 C 232.263 105.931,232.478 105.740,232.926 105.254 C 234.191 103.885,234.377 103.429,233.891 102.891 C 233.380 102.327,233.275 102.332,232.757 102.944 M203.111 103.751 C 200.860 106.166,200.328 107.136,201.278 107.094 C 201.510 107.083,201.555 107.031,201.389 106.964 C 201.236 106.902,201.111 106.717,201.111 106.553 C 201.111 106.221,201.157 106.164,202.881 104.373 C 203.549 103.679,203.999 103.121,203.881 103.133 C 203.763 103.145,203.417 103.423,203.111 103.751 M190.898 103.470 C 190.886 103.793,191.817 106.035,191.920 105.931 C 191.964 105.888,191.754 105.261,191.454 104.537 C 191.153 103.814,190.903 103.334,190.898 103.470 M183.147 104.265 C 183.127 104.716,183.011 105.147,182.889 105.222 C 182.767 105.298,182.667 105.476,182.667 105.618 C 182.667 105.760,182.823 105.654,183.014 105.381 C 183.219 105.087,183.325 104.591,183.272 104.165 C 183.183 103.447,183.182 103.447,183.147 104.265 M231.868 104.026 C 231.635 104.285,231.244 104.579,231.000 104.679 C 230.713 104.796,230.674 104.865,230.889 104.871 C 231.287 104.884,231.526 104.722,232.090 104.056 C 232.627 103.421,232.435 103.396,231.868 104.026 M259.137 103.704 C 259.123 103.847,259.046 104.147,258.967 104.371 C 258.856 104.687,258.885 104.721,259.099 104.524 C 259.251 104.384,259.327 104.084,259.269 103.857 C 259.210 103.630,259.151 103.561,259.137 103.704 M177.576 104.156 C 177.551 104.761,177.996 105.778,178.285 105.778 C 178.414 105.778,178.407 105.667,178.269 105.500 C 178.143 105.347,177.940 104.872,177.818 104.444 C 177.662 103.899,177.590 103.813,177.576 104.156 M226.904 104.069 C 226.853 105.396,228.151 107.576,228.974 107.547 C 229.111 107.542,228.968 107.400,228.658 107.231 C 228.013 106.880,227.709 106.352,227.247 104.778 C 227.067 104.167,226.913 103.848,226.904 104.069 M145.333 104.303 C 145.333 104.470,145.124 104.895,144.867 105.248 L 144.401 105.889 144.978 105.265 C 145.489 104.714,145.752 104.000,145.444 104.000 C 145.383 104.000,145.333 104.137,145.333 104.303 M218.572 104.560 C 218.336 104.739,218.186 104.927,218.238 104.979 C 218.291 105.030,218.569 104.881,218.858 104.648 C 219.466 104.155,219.211 104.077,218.572 104.560 M220.111 104.444 C 220.723 104.707,220.940 104.707,220.778 104.444 C 220.702 104.322,220.421 104.229,220.154 104.238 C 219.684 104.253,219.683 104.260,220.111 104.444 M223.646 105.056 C 223.299 105.514,222.887 106.021,222.730 106.183 C 222.573 106.344,222.448 106.544,222.453 106.627 C 222.463 106.810,223.929 105.156,224.239 104.611 C 224.615 103.949,224.306 104.181,223.646 105.056 M215.801 105.128 C 215.644 105.547,215.368 106.189,215.186 106.556 L 214.857 107.222 215.317 106.698 C 215.570 106.409,215.778 106.004,215.778 105.798 C 215.778 105.591,215.889 105.311,216.025 105.175 C 216.161 105.039,216.230 104.802,216.179 104.648 C 216.128 104.494,215.957 104.710,215.801 105.128 M194.460 104.820 C 194.510 105.397,194.858 105.886,194.873 105.402 C 194.882 105.134,194.789 104.853,194.667 104.778 C 194.544 104.702,194.451 104.721,194.460 104.820 M158.889 105.057 C 158.889 105.179,159.039 105.403,159.222 105.556 C 159.408 105.710,159.556 105.734,159.556 105.610 C 159.556 105.488,159.406 105.263,159.222 105.111 C 159.036 104.957,158.889 104.933,158.889 105.057 M164.222 105.222 C 164.065 105.411,163.987 105.616,164.048 105.677 C 164.109 105.739,164.287 105.634,164.444 105.444 C 164.602 105.255,164.680 105.050,164.619 104.989 C 164.558 104.928,164.379 105.033,164.222 105.222 M258.502 105.491 C 258.351 105.814,258.268 106.120,258.318 106.170 C 258.451 106.303,258.930 105.343,258.848 105.106 C 258.809 104.995,258.654 105.168,258.502 105.491 M154.322 105.538 C 154.206 105.651,153.821 105.776,153.467 105.816 C 152.723 105.900,152.210 106.521,152.579 106.890 C 152.745 107.056,152.809 106.978,152.796 106.626 C 152.781 106.216,152.929 106.101,153.622 105.985 C 154.387 105.857,155.298 105.333,154.756 105.333 C 154.633 105.333,154.438 105.426,154.322 105.538 M143.037 105.926 C 142.956 106.007,142.890 106.182,142.892 106.315 C 142.895 106.475,142.950 106.470,143.059 106.300 C 143.149 106.160,143.472 105.998,143.778 105.942 L 144.333 105.838 143.759 105.808 C 143.444 105.791,143.119 105.844,143.037 105.926 M150.703 105.935 C 151.366 106.037,151.724 106.645,151.285 106.923 C 151.054 107.070,151.054 107.105,151.285 107.108 C 151.703 107.113,151.870 106.490,151.553 106.108 C 151.402 105.927,151.016 105.793,150.695 105.811 L 150.111 105.844 150.703 105.935 M160.444 105.980 C 160.823 106.088,160.995 106.290,160.984 106.614 C 160.974 106.875,161.049 107.038,161.150 106.976 C 161.767 106.595,161.126 105.748,160.260 105.800 C 160.048 105.813,160.127 105.890,160.444 105.980 M162.432 106.246 C 162.245 106.595,162.246 106.779,162.437 106.968 C 162.629 107.159,162.663 107.139,162.571 106.889 C 162.399 106.418,162.686 106.062,163.333 105.942 C 163.885 105.839,163.885 105.838,163.286 105.808 C 162.879 105.788,162.600 105.931,162.432 106.246 M169.667 105.977 C 170.166 106.086,170.329 106.244,170.317 106.606 C 170.308 106.872,170.383 107.038,170.484 106.976 C 171.147 106.566,170.450 105.751,169.482 105.804 C 169.129 105.823,169.179 105.870,169.667 105.977 M171.926 105.926 C 171.844 106.007,171.779 106.182,171.781 106.315 C 171.783 106.475,171.839 106.470,171.948 106.300 C 172.038 106.160,172.361 105.998,172.667 105.942 L 173.222 105.838 172.648 105.808 C 172.332 105.791,172.007 105.844,171.926 105.926 M179.300 106.022 C 179.906 106.205,180.023 106.334,179.924 106.711 C 179.831 107.066,179.864 107.114,180.063 106.915 C 180.461 106.517,179.962 105.897,179.200 105.843 C 178.582 105.799,178.586 105.807,179.300 106.022 M181.188 106.121 C 181.115 106.309,181.119 106.526,181.195 106.602 C 181.271 106.678,181.333 106.581,181.333 106.386 C 181.333 106.191,181.558 105.988,181.833 105.935 L 182.333 105.838 181.826 105.808 C 181.548 105.791,181.260 105.932,181.188 106.121 M188.039 105.935 C 188.841 106.058,189.314 106.617,188.875 106.923 C 188.602 107.113,188.604 107.132,188.889 107.054 C 189.880 106.784,189.240 105.764,188.111 105.814 C 187.465 105.843,187.463 105.847,188.039 105.935 M194.889 106.043 C 194.889 106.114,195.038 106.458,195.221 106.808 C 195.403 107.158,195.550 107.294,195.547 107.111 C 195.544 106.928,195.395 106.584,195.215 106.346 C 195.036 106.109,194.889 105.973,194.889 106.043 M192.000 106.283 C 192.000 106.549,193.831 109.333,194.005 109.333 C 194.103 109.333,193.731 108.658,193.180 107.833 C 192.083 106.193,192.000 106.084,192.000 106.283 M218.226 106.599 C 218.221 106.928,219.092 107.556,219.549 107.554 C 219.736 107.553,219.591 107.398,219.227 107.208 C 218.863 107.018,218.490 106.744,218.397 106.598 C 218.267 106.393,218.228 106.393,218.226 106.599 M254.936 106.896 C 254.788 107.133,254.667 107.454,254.668 107.608 C 254.669 107.763,254.821 107.599,255.005 107.245 C 255.390 106.506,255.339 106.250,254.936 106.896 M257.475 107.413 C 256.635 108.846,254.809 110.765,253.177 111.929 C 252.396 112.486,251.817 113.003,251.891 113.076 C 251.964 113.149,252.094 113.110,252.179 112.988 C 252.264 112.867,252.633 112.578,253.000 112.346 C 254.611 111.327,258.538 106.909,258.165 106.535 C 258.104 106.474,257.793 106.869,257.475 107.413 M221.333 107.222 C 221.028 107.397,220.878 107.540,221.000 107.540 C 221.122 107.540,221.472 107.397,221.778 107.222 C 222.083 107.048,222.233 106.905,222.111 106.905 C 221.989 106.905,221.639 107.048,221.333 107.222 M253.811 108.774 C 253.530 109.185,252.707 110.103,251.983 110.813 C 251.259 111.523,250.667 112.261,250.667 112.452 C 250.667 112.852,251.091 113.336,251.433 113.327 C 251.562 113.323,251.492 113.218,251.278 113.093 C 250.632 112.717,250.830 112.193,252.062 111.013 C 253.309 109.818,254.567 108.271,254.415 108.119 C 254.365 108.068,254.093 108.363,253.811 108.774 M196.663 109.135 C 197.048 109.698,197.807 110.594,198.348 111.126 C 199.399 112.157,199.572 112.728,198.944 113.093 C 198.433 113.391,198.793 113.400,199.348 113.103 C 200.017 112.745,199.870 112.344,198.602 111.070 C 197.955 110.420,197.097 109.489,196.695 109.000 L 195.963 108.111 196.663 109.135 M194.457 109.877 C 195.117 110.767,197.894 113.092,198.311 113.105 C 198.421 113.108,198.071 112.799,197.533 112.418 C 196.996 112.037,196.011 111.212,195.345 110.585 C 194.680 109.958,194.280 109.639,194.457 109.877 M179.295 116.783 C 177.306 118.087,175.832 121.778,177.301 121.778 C 177.535 121.778,177.869 121.553,178.044 121.278 C 179.029 119.722,179.389 119.050,179.162 119.191 C 179.021 119.278,178.627 119.846,178.286 120.452 C 177.308 122.194,176.501 121.865,177.178 120.000 C 177.895 118.027,178.731 117.132,180.419 116.529 C 181.087 116.290,181.128 116.242,180.667 116.245 C 180.361 116.247,179.744 116.489,179.295 116.783 M184.428 116.811 C 185.177 117.185,185.773 117.676,186.055 118.154 C 186.299 118.569,186.554 118.853,186.621 118.786 C 187.021 118.386,184.580 116.272,183.679 116.238 C 183.441 116.230,183.778 116.487,184.428 116.811 M179.876 118.771 C 179.639 118.950,179.549 119.100,179.678 119.104 C 179.806 119.108,180.006 119.018,180.122 118.904 C 180.238 118.790,180.733 118.656,181.222 118.608 L 182.111 118.519 181.209 118.482 C 180.705 118.461,180.117 118.588,179.876 118.771 M186.750 120.889 C 186.746 122.563,186.767 122.661,186.930 121.745 C 187.031 121.177,187.033 120.327,186.934 119.856 C 186.788 119.164,186.753 119.361,186.750 120.889 M183.798 120.111 C 183.791 120.233,183.926 120.783,184.100 121.333 C 184.273 121.883,184.414 122.133,184.413 121.889 C 184.411 121.425,183.822 119.722,183.798 120.111 M146.556 122.018 C 146.220 122.176,146.307 122.198,146.915 122.109 C 147.993 121.951,148.436 122.156,148.794 122.978 C 149.029 123.517,149.096 123.567,149.102 123.205 C 149.122 122.168,147.673 121.492,146.556 122.018 M152.222 122.021 C 151.966 122.203,152.031 122.227,152.505 122.124 C 153.394 121.929,154.000 122.330,154.000 123.111 C 154.000 123.860,153.458 124.254,152.647 124.093 L 152.111 123.987 152.628 124.215 C 153.235 124.482,153.867 124.219,154.225 123.550 C 154.772 122.528,153.199 121.327,152.222 122.021 M168.546 122.015 C 168.466 122.145,168.460 122.312,168.533 122.385 C 168.607 122.459,168.667 122.402,168.667 122.259 C 168.667 121.631,169.565 122.109,170.883 123.438 C 171.667 124.229,172.342 124.843,172.383 124.802 C 172.424 124.761,171.780 124.065,170.951 123.256 C 169.501 121.841,168.859 121.509,168.546 122.015 M151.095 122.723 C 150.780 122.998,150.385 123.422,150.217 123.667 C 150.048 123.911,150.330 123.716,150.844 123.233 C 151.696 122.431,151.880 122.220,151.722 122.223 C 151.692 122.224,151.409 122.449,151.095 122.723 M183.889 123.111 C 183.805 123.495,183.785 123.860,183.847 123.921 C 183.908 123.982,184.027 123.717,184.111 123.333 C 184.195 122.949,184.215 122.585,184.153 122.524 C 184.092 122.463,183.973 122.727,183.889 123.111 M145.667 123.494 C 145.911 123.554,146.236 123.705,146.389 123.829 C 146.577 123.981,146.667 123.981,146.667 123.829 C 146.667 123.563,146.118 123.323,145.593 123.359 C 145.319 123.378,145.339 123.414,145.667 123.494 M169.730 124.459 C 170.750 125.578,170.889 125.556,162.990 125.556 C 155.032 125.556,155.249 125.513,155.375 127.040 L 155.444 127.889 162.833 127.947 C 171.079 128.013,170.731 127.924,169.316 129.601 C 168.818 130.192,168.460 130.799,168.521 130.949 C 168.604 131.154,168.636 131.150,168.649 130.932 C 168.659 130.773,168.972 130.323,169.346 129.932 C 171.450 127.733,171.587 127.778,162.760 127.778 L 155.556 127.778 155.556 126.913 C 155.556 125.739,155.294 125.778,163.185 125.774 C 171.028 125.771,171.192 125.739,169.893 124.506 L 169.009 123.667 169.730 124.459 M185.171 125.189 C 184.654 125.941,183.668 127.131,182.981 127.833 C 182.293 128.536,181.819 129.111,181.927 129.111 C 182.035 129.111,182.312 128.886,182.543 128.611 C 182.774 128.336,183.459 127.564,184.065 126.896 C 185.138 125.713,186.326 124.026,186.183 123.891 C 186.143 123.853,185.688 124.438,185.171 125.189 M149.111 124.354 C 149.111 124.709,149.309 124.746,149.741 124.472 C 149.966 124.329,149.927 124.255,149.574 124.163 C 149.267 124.082,149.111 124.147,149.111 124.354 M150.911 124.821 C 150.539 125.272,150.289 125.697,150.356 125.764 C 150.423 125.830,150.587 125.689,150.721 125.450 C 150.855 125.211,151.193 124.787,151.472 124.508 C 151.751 124.228,151.892 124.000,151.784 124.000 C 151.676 124.000,151.283 124.369,150.911 124.821 M146.692 124.667 C 146.682 124.972,146.770 125.372,146.889 125.556 C 147.163 125.980,147.163 125.523,146.889 124.667 L 146.711 124.111 146.692 124.667 M182.577 125.839 C 181.985 126.715,181.674 127.290,181.884 127.115 C 182.315 126.758,183.845 124.438,183.728 124.320 C 183.686 124.278,183.168 124.962,182.577 125.839 M172.667 124.992 C 172.667 125.166,174.028 126.046,174.133 125.941 C 174.193 125.881,173.887 125.624,173.454 125.368 C 173.021 125.113,172.667 124.944,172.667 124.992 M149.884 126.500 C 149.816 126.775,149.850 127.400,149.961 127.889 C 150.151 128.728,150.161 128.700,150.137 127.389 C 150.109 125.875,150.072 125.745,149.884 126.500 M174.743 126.406 C 175.262 126.979,175.254 126.992,173.822 127.862 C 173.113 128.293,172.346 128.851,172.119 129.103 C 171.891 129.355,172.480 129.044,173.428 128.413 C 175.400 127.099,175.936 126.000,174.605 126.000 C 174.479 126.000,174.541 126.183,174.743 126.406 M147.044 128.044 C 146.829 128.420,146.699 128.773,146.754 128.829 C 146.810 128.884,147.021 128.612,147.222 128.222 C 147.698 127.302,147.554 127.157,147.044 128.044 M180.485 128.390 C 180.080 128.848,179.055 129.934,178.207 130.804 C 176.812 132.236,176.237 133.333,176.882 133.333 C 177.000 133.333,177.041 133.186,176.972 133.007 C 176.814 132.595,177.328 131.938,179.713 129.500 C 180.760 128.431,181.527 127.556,181.419 127.557 C 181.311 127.557,180.891 127.932,180.485 128.390 M145.576 130.223 C 144.819 131.334,144.284 131.576,143.576 131.128 C 142.710 130.581,141.504 132.091,142.114 132.959 C 142.444 133.429,142.450 133.422,142.311 132.723 C 142.093 131.629,142.508 131.270,143.786 131.446 C 144.905 131.600,144.791 131.686,146.513 129.389 C 146.627 129.236,146.634 129.111,146.527 129.112 C 146.421 129.112,145.993 129.612,145.576 130.223 M150.238 129.265 C 150.288 129.842,150.636 130.331,150.651 129.846 C 150.660 129.579,150.567 129.298,150.444 129.222 C 150.322 129.147,150.229 129.166,150.238 129.265 M187.752 129.535 C 187.955 129.664,188.015 129.946,187.928 130.365 L 187.796 131.000 188.099 130.333 C 188.439 129.583,188.369 129.332,187.820 129.337 C 187.519 129.339,187.505 129.379,187.752 129.535 M170.379 130.697 C 169.794 131.292,169.394 131.777,169.491 131.776 C 169.718 131.774,171.658 129.802,171.537 129.697 C 171.486 129.653,170.965 130.103,170.379 130.697 M147.423 130.034 C 147.329 130.187,147.362 130.231,147.506 130.142 C 147.796 129.963,148.015 130.281,148.235 131.203 C 148.355 131.704,148.405 131.758,148.422 131.403 C 148.473 130.306,147.814 129.402,147.423 130.034 M186.333 130.340 C 185.967 130.641,185.774 130.887,185.906 130.888 C 186.037 130.888,186.380 130.639,186.667 130.333 C 187.325 129.632,187.193 129.635,186.333 130.340 M152.444 130.226 C 152.184 130.398,152.230 130.434,152.658 130.390 C 153.543 130.299,153.428 130.903,152.321 132.167 C 151.359 133.265,151.115 133.794,151.962 132.944 C 153.659 131.243,154.024 129.186,152.444 130.226 M146.391 131.342 C 146.056 131.826,145.856 132.220,145.947 132.217 C 146.037 132.215,146.393 131.815,146.737 131.329 C 147.081 130.842,147.281 130.448,147.181 130.453 C 147.081 130.458,146.726 130.858,146.391 131.342 M151.778 131.000 C 151.441 131.406,150.966 131.433,150.814 131.056 C 150.726 130.838,150.698 130.839,150.684 131.063 C 150.652 131.584,151.355 131.632,151.846 131.142 C 152.107 130.881,152.261 130.667,152.188 130.667 C 152.114 130.667,151.930 130.817,151.778 131.000 M181.944 131.053 C 182.586 131.098,183.636 131.098,184.278 131.053 C 184.919 131.008,184.394 130.971,183.111 130.971 C 181.828 130.971,181.303 131.008,181.944 131.053 M148.445 132.070 C 148.440 133.191,150.501 134.363,151.015 133.532 C 151.117 133.366,151.012 133.335,150.694 133.436 C 149.979 133.663,149.349 133.370,148.874 132.591 C 148.639 132.205,148.446 131.970,148.445 132.070 M187.129 132.489 C 187.119 132.697,186.936 132.969,186.722 133.093 C 186.508 133.218,186.446 133.323,186.584 133.327 C 186.951 133.336,187.394 132.727,187.261 132.396 C 187.187 132.213,187.140 132.246,187.129 132.489 M145.046 132.952 C 144.653 133.257,144.109 133.434,143.564 133.434 C 143.090 133.434,142.751 133.512,142.809 133.606 C 143.108 134.091,144.911 133.554,145.543 132.792 C 145.929 132.327,145.793 132.371,145.046 132.952 " stroke="none" fill="#9f9f9f" fill-rule="evenodd"></path><path id="path3" d="M241.111 77.781 C 240.877 77.935,241.008 77.957,241.556 77.857 C 242.514 77.681,242.695 77.554,241.981 77.559 C 241.686 77.561,241.294 77.661,241.111 77.781 M243.556 77.759 C 243.983 77.843,244.660 78.075,245.059 78.274 C 245.459 78.473,245.727 78.542,245.655 78.426 C 245.446 78.087,243.996 77.553,243.362 77.581 C 242.878 77.602,242.912 77.633,243.556 77.759 M239.667 78.444 C 239.300 78.687,239.100 78.886,239.222 78.886 C 239.344 78.886,239.744 78.687,240.111 78.444 C 240.478 78.202,240.678 78.003,240.556 78.003 C 240.433 78.003,240.033 78.202,239.667 78.444 M238.444 79.778 C 238.183 80.144,238.020 80.444,238.081 80.444 C 238.142 80.444,238.406 80.144,238.667 79.778 C 238.928 79.411,239.091 79.111,239.030 79.111 C 238.969 79.111,238.706 79.411,238.444 79.778 M239.829 80.133 C 239.429 80.448,238.953 81.022,238.770 81.408 C 238.588 81.795,238.565 81.912,238.719 81.668 C 239.539 80.376,240.426 79.801,241.726 79.720 L 243.000 79.640 241.778 79.600 C 240.765 79.567,240.431 79.659,239.829 80.133 M244.323 81.006 C 244.936 81.909,245.032 83.481,244.576 85.111 C 244.485 85.436,244.564 85.356,244.766 84.919 C 245.436 83.467,245.110 81.274,244.099 80.434 C 243.893 80.263,243.993 80.520,244.323 81.006 M247.182 82.000 C 247.182 82.794,247.223 83.119,247.272 82.722 C 247.321 82.325,247.321 81.675,247.272 81.278 C 247.223 80.881,247.182 81.206,247.182 82.000 M237.804 81.037 C 237.789 81.180,237.713 81.480,237.634 81.704 C 237.522 82.020,237.552 82.054,237.766 81.857 C 237.918 81.717,237.994 81.417,237.936 81.190 C 237.877 80.963,237.818 80.895,237.804 81.037 M237.556 82.492 C 237.556 82.588,237.756 82.667,238.000 82.667 C 238.244 82.667,238.444 82.588,238.444 82.492 C 238.444 82.396,238.244 82.317,238.000 82.317 C 237.756 82.317,237.556 82.396,237.556 82.492 M157.718 83.485 C 158.481 84.107,158.609 85.215,158.015 86.070 L 157.523 86.778 158.095 86.154 C 158.972 85.198,158.792 83.849,157.717 83.324 L 157.222 83.081 157.718 83.485 M207.556 83.337 C 206.961 83.459,207.193 83.504,208.537 83.526 C 209.505 83.542,210.255 83.519,210.204 83.475 C 209.979 83.281,208.264 83.191,207.556 83.337 M198.833 83.481 C 199.220 83.637,199.181 84.370,198.778 84.525 C 198.594 84.595,198.444 84.770,198.444 84.914 C 198.444 85.058,198.699 84.902,199.009 84.566 C 199.574 83.957,199.465 83.305,198.806 83.351 C 198.649 83.362,198.659 83.410,198.833 83.481 M250.966 83.676 C 250.893 83.865,250.896 84.082,250.973 84.158 C 251.049 84.234,251.111 84.137,251.111 83.942 C 251.111 83.747,251.286 83.542,251.500 83.487 C 251.864 83.391,251.864 83.383,251.493 83.359 C 251.275 83.345,251.038 83.488,250.966 83.676 M145.222 83.895 C 144.733 84.056,144.533 84.188,144.778 84.188 C 145.022 84.188,145.572 84.054,146.000 83.889 C 146.997 83.505,146.392 83.510,145.222 83.895 M197.111 84.453 C 196.439 84.939,195.848 85.459,195.798 85.609 C 195.747 85.759,195.880 85.707,196.092 85.495 C 196.304 85.283,196.920 84.805,197.461 84.433 C 198.002 84.061,198.444 83.711,198.444 83.656 C 198.444 83.496,198.396 83.525,197.111 84.453 M205.235 83.896 C 204.686 84.311,205.047 84.306,205.778 83.889 C 206.100 83.705,206.193 83.571,206.000 83.570 C 205.817 83.570,205.473 83.717,205.235 83.896 M210.889 83.720 C 211.072 83.792,211.555 84.036,211.961 84.264 C 212.367 84.491,212.640 84.581,212.568 84.464 C 212.400 84.194,211.123 83.550,210.799 83.573 C 210.665 83.583,210.706 83.649,210.889 83.720 M252.111 83.707 C 252.977 84.580,254.474 85.786,253.889 85.140 C 253.522 84.735,252.922 84.197,252.556 83.944 C 252.189 83.691,251.989 83.584,252.111 83.707 M154.949 84.889 C 154.949 85.439,154.993 85.664,155.046 85.389 C 155.099 85.114,155.099 84.664,155.046 84.389 C 154.993 84.114,154.949 84.339,154.949 84.889 M203.945 84.723 C 203.395 85.173,201.872 87.333,202.105 87.333 C 202.158 87.333,202.511 86.882,202.891 86.331 C 203.270 85.779,203.849 85.079,204.177 84.775 C 204.919 84.087,204.766 84.052,203.945 84.723 M252.213 85.389 C 253.134 86.370,253.333 86.546,253.333 86.380 C 253.333 86.344,252.858 85.869,252.278 85.324 L 251.222 84.333 252.213 85.389 M213.354 85.209 C 213.549 85.461,213.874 85.914,214.076 86.216 C 214.279 86.518,214.444 86.660,214.444 86.531 C 214.444 86.402,214.119 85.949,213.722 85.524 C 213.325 85.099,213.159 84.958,213.354 85.209 M143.034 85.167 C 143.091 85.258,143.459 85.333,143.853 85.333 C 144.809 85.333,145.548 85.884,145.586 86.624 C 145.614 87.178,145.623 87.184,145.715 86.700 C 145.867 85.900,145.045 85.168,143.891 85.076 C 143.363 85.034,142.978 85.075,143.034 85.167 M246.051 85.683 C 245.776 86.102,245.596 86.444,245.649 86.444 C 245.804 86.444,246.725 85.095,246.633 85.003 C 246.587 84.958,246.326 85.264,246.051 85.683 M194.871 86.389 C 193.560 87.857,193.263 88.222,193.379 88.222 C 193.446 88.222,193.971 87.672,194.546 87.000 C 195.609 85.755,195.864 85.276,194.871 86.389 M243.485 87.041 C 242.417 88.663,242.531 88.777,243.637 87.193 C 244.107 86.521,244.450 85.931,244.400 85.881 C 244.350 85.831,243.938 86.353,243.485 87.041 M254.667 85.913 C 254.667 85.985,255.017 86.395,255.445 86.822 C 255.873 87.250,256.587 88.190,257.032 88.911 C 257.835 90.212,258.254 90.682,257.756 89.722 C 257.035 88.334,254.667 85.414,254.667 85.913 M196.150 87.460 C 195.686 88.124,195.353 88.667,195.410 88.667 C 195.561 88.667,197.156 86.415,197.068 86.327 C 197.027 86.286,196.614 86.796,196.150 87.460 M203.741 87.602 C 202.886 88.681,202.387 89.572,202.549 89.734 C 202.610 89.796,202.805 89.506,202.980 89.090 C 203.156 88.674,203.646 87.958,204.069 87.500 C 204.492 87.042,204.758 86.667,204.660 86.667 C 204.562 86.667,204.148 87.087,203.741 87.602 M209.932 87.000 C 210.487 87.389,211.294 88.632,211.557 89.503 C 211.669 89.878,211.747 89.958,211.759 89.711 C 211.798 88.891,210.284 86.667,209.687 86.667 C 209.560 86.667,209.671 86.817,209.932 87.000 M243.980 88.278 C 243.200 89.164,242.738 89.750,242.953 89.579 C 243.421 89.209,245.643 86.667,245.499 86.667 C 245.443 86.667,244.760 87.392,243.980 88.278 M253.894 87.222 C 254.125 87.589,254.591 88.389,254.931 89.000 C 255.270 89.611,255.549 90.005,255.552 89.876 C 255.556 89.598,254.081 87.099,253.722 86.778 C 253.586 86.656,253.663 86.856,253.894 87.222 M201.580 88.593 C 201.198 89.749,201.318 90.556,201.870 90.556 C 202.105 90.556,202.322 90.428,202.354 90.272 C 202.385 90.116,202.360 90.091,202.298 90.217 C 202.236 90.342,202.044 90.444,201.870 90.444 C 201.492 90.444,201.442 89.295,201.792 88.640 C 201.922 88.397,201.993 88.090,201.949 87.958 C 201.905 87.826,201.739 88.111,201.580 88.593 M214.955 89.556 C 214.955 90.228,214.997 90.503,215.048 90.167 C 215.099 89.831,215.099 89.281,215.048 88.944 C 214.997 88.608,214.955 88.883,214.955 89.556 M241.159 89.840 C 240.522 90.486,240.000 91.093,240.000 91.190 C 240.000 91.286,240.125 91.226,240.278 91.057 C 240.431 90.887,241.001 90.280,241.546 89.707 C 242.903 88.282,242.593 88.388,241.159 89.840 M191.814 90.787 C 191.442 91.604,191.513 91.779,191.915 91.036 C 192.103 90.689,192.215 90.364,192.165 90.313 C 192.114 90.262,191.956 90.475,191.814 90.787 M255.571 90.376 C 255.621 90.953,255.969 91.442,255.984 90.958 C 255.993 90.690,255.900 90.409,255.778 90.333 C 255.656 90.258,255.563 90.277,255.571 90.376 M258.016 90.556 C 258.016 90.678,258.159 91.028,258.333 91.333 C 258.508 91.639,258.651 91.789,258.651 91.667 C 258.651 91.544,258.508 91.194,258.333 90.889 C 258.159 90.583,258.016 90.433,258.016 90.556 M157.794 90.879 C 157.600 90.999,157.654 91.085,157.978 91.170 C 158.427 91.287,158.439 91.433,158.500 97.589 L 158.563 103.889 158.615 97.413 C 158.668 90.730,158.623 90.367,157.794 90.879 M166.556 91.005 C 166.189 91.175,166.020 91.318,166.181 91.323 C 166.342 91.329,166.673 91.226,166.918 91.096 C 167.248 90.919,167.453 90.933,167.717 91.151 C 168.016 91.398,168.055 91.392,167.962 91.111 C 167.815 90.666,167.364 90.632,166.556 91.005 M171.333 90.971 C 170.185 91.353,169.278 91.887,168.779 92.477 L 168.337 93.000 168.890 92.541 C 170.728 91.019,172.397 90.649,174.889 91.214 C 175.200 91.284,175.102 91.199,174.667 91.020 C 173.735 90.637,172.398 90.618,171.333 90.971 M180.778 91.008 C 179.940 91.298,179.934 91.307,180.667 91.158 C 181.094 91.071,181.991 91.009,182.660 91.020 C 183.440 91.033,183.718 90.979,183.437 90.869 C 182.780 90.612,181.771 90.665,180.778 91.008 M247.364 91.444 L 246.631 92.222 243.760 92.222 C 241.147 92.222,240.449 92.076,241.111 91.667 C 241.233 91.591,241.333 91.413,241.333 91.271 C 241.333 91.129,241.178 91.235,240.987 91.506 C 240.410 92.330,240.755 92.444,243.820 92.444 L 246.725 92.444 247.474 91.651 C 248.182 90.900,248.223 90.885,248.238 91.373 C 248.252 91.856,248.265 91.861,248.432 91.444 C 248.615 90.989,248.543 90.667,248.258 90.667 C 248.170 90.667,247.768 91.017,247.364 91.444 M184.358 91.329 C 184.617 91.433,185.090 91.852,185.411 92.259 C 185.732 92.667,185.996 92.895,185.998 92.766 C 186.001 92.413,184.581 91.109,184.212 91.125 C 184.028 91.133,184.092 91.221,184.358 91.329 M178.778 91.883 C 178.289 92.184,177.958 92.434,178.043 92.438 C 178.235 92.446,179.778 91.544,179.778 91.422 C 179.778 91.278,179.709 91.309,178.778 91.883 M214.556 91.778 C 214.472 92.041,214.454 92.306,214.515 92.367 C 214.576 92.428,214.694 92.263,214.778 92.000 C 214.861 91.737,214.879 91.472,214.818 91.411 C 214.757 91.350,214.639 91.515,214.556 91.778 M224.667 91.574 C 224.224 91.731,224.291 91.750,225.000 91.669 C 226.235 91.529,226.851 91.736,227.221 92.417 C 227.395 92.738,227.542 92.870,227.547 92.712 C 227.577 91.735,225.988 91.107,224.667 91.574 M232.667 91.548 C 232.250 91.676,232.379 91.712,233.185 91.692 C 234.428 91.663,234.998 92.169,234.781 93.111 C 234.684 93.533,234.707 93.587,234.879 93.333 C 235.230 92.814,235.156 92.469,234.566 91.879 C 234.005 91.318,233.630 91.253,232.667 91.548 M238.491 92.714 C 237.258 94.078,237.188 94.462,238.180 94.418 C 238.773 94.392,238.773 94.391,238.111 94.247 L 237.444 94.102 238.646 92.826 C 239.306 92.125,239.806 91.520,239.757 91.482 C 239.707 91.444,239.138 91.998,238.491 92.714 M176.176 92.447 C 176.776 93.314,177.186 93.530,177.443 93.114 C 177.519 92.991,177.436 92.949,177.255 93.018 C 177.052 93.096,176.784 92.891,176.533 92.467 C 176.314 92.096,176.009 91.743,175.855 91.684 C 175.701 91.625,175.846 91.968,176.176 92.447 M193.917 92.472 C 193.731 93.399,193.911 93.578,194.111 92.667 C 194.195 92.283,194.218 91.922,194.162 91.865 C 194.105 91.809,193.995 92.082,193.917 92.472 M222.444 92.110 C 221.949 92.288,221.659 92.540,221.645 92.806 C 221.626 93.159,221.637 93.163,221.716 92.833 C 221.767 92.619,221.940 92.444,222.101 92.444 C 222.262 92.444,222.730 92.298,223.141 92.120 C 224.046 91.727,223.532 91.720,222.444 92.110 M231.103 92.435 C 230.680 92.797,230.402 93.097,230.486 93.102 C 230.570 93.107,230.968 92.811,231.369 92.444 C 232.311 91.584,232.107 91.577,231.103 92.435 M256.019 92.000 C 256.026 92.183,256.117 92.533,256.222 92.778 L 256.413 93.222 256.425 92.778 C 256.432 92.533,256.341 92.183,256.222 92.000 C 256.031 91.704,256.008 91.704,256.019 92.000 M211.581 92.482 C 211.567 92.686,211.498 93.036,211.428 93.260 C 211.306 93.645,211.313 93.646,211.554 93.271 C 211.693 93.053,211.763 92.703,211.707 92.493 C 211.617 92.149,211.605 92.148,211.581 92.482 M162.803 92.929 C 162.864 93.029,163.159 93.111,163.458 93.111 C 163.756 93.111,164.200 93.311,164.444 93.556 C 164.689 93.800,164.889 93.915,164.889 93.812 C 164.889 93.451,164.105 92.942,163.401 92.845 C 163.010 92.791,162.741 92.829,162.803 92.929 M170.556 93.012 C 169.993 93.287,169.976 93.317,170.444 93.204 C 171.783 92.880,172.200 92.861,172.653 93.104 C 173.333 93.468,173.992 94.639,174.032 95.556 C 174.064 96.280,174.073 96.289,174.163 95.688 C 174.464 93.660,172.386 92.118,170.556 93.012 M179.556 93.023 C 179.196 93.244,179.157 93.308,179.444 93.205 C 179.689 93.118,180.289 92.974,180.778 92.885 L 181.667 92.722 180.889 92.702 C 180.461 92.691,179.861 92.836,179.556 93.023 M214.036 93.232 C 213.664 94.049,213.735 94.223,214.137 93.480 C 214.325 93.133,214.438 92.808,214.387 92.757 C 214.336 92.706,214.178 92.920,214.036 93.232 M222.333 93.109 C 222.052 93.229,222.304 93.254,223.024 93.177 C 224.034 93.070,224.199 93.114,224.524 93.578 C 224.725 93.864,224.889 93.992,224.889 93.862 C 224.889 93.097,223.396 92.657,222.333 93.109 M190.688 94.343 C 190.534 95.071,190.450 96.017,190.502 96.444 C 190.587 97.150,190.599 97.129,190.632 96.222 C 190.653 95.672,190.775 94.841,190.904 94.376 C 191.034 93.910,191.101 93.414,191.054 93.274 C 191.007 93.134,190.843 93.615,190.688 94.343 M247.573 93.316 C 247.563 93.490,247.390 93.815,247.188 94.038 C 246.980 94.267,246.929 94.444,247.069 94.444 C 247.392 94.444,247.838 93.609,247.699 93.265 C 247.627 93.090,247.585 93.107,247.573 93.316 M259.245 93.778 C 259.720 96.367,259.721 96.370,259.747 95.667 C 259.760 95.300,259.620 94.550,259.436 94.000 C 259.165 93.189,259.129 93.147,259.245 93.778 M154.998 93.812 C 155.306 94.319,155.347 95.144,155.289 99.735 C 155.252 102.669,155.297 105.023,155.389 104.966 C 155.839 104.687,155.570 94.288,155.098 93.747 L 154.640 93.222 154.998 93.812 M168.685 94.092 C 168.281 94.509,168.003 94.984,168.069 95.147 C 168.151 95.355,168.192 95.332,168.205 95.072 C 168.214 94.867,168.595 94.392,169.051 94.016 C 169.506 93.641,169.776 93.333,169.650 93.333 C 169.524 93.333,169.090 93.675,168.685 94.092 M178.017 94.017 C 177.641 94.393,177.333 94.815,177.333 94.955 C 177.333 95.095,177.505 94.963,177.715 94.661 C 177.926 94.358,178.301 93.939,178.549 93.730 C 178.797 93.520,178.933 93.345,178.850 93.341 C 178.768 93.337,178.393 93.641,178.017 94.017 M182.667 93.471 C 182.667 93.593,182.813 93.887,182.993 94.124 C 183.172 94.361,183.319 94.456,183.319 94.333 C 183.319 94.211,183.172 93.917,182.993 93.680 C 182.813 93.442,182.667 93.348,182.667 93.471 M229.430 94.389 C 228.965 94.969,228.547 95.492,228.502 95.549 C 228.457 95.607,228.318 95.507,228.193 95.327 C 227.995 95.041,227.978 95.042,228.057 95.333 C 228.215 95.913,228.597 95.701,229.553 94.500 C 230.064 93.858,230.436 93.333,230.379 93.333 C 230.322 93.333,229.895 93.808,229.430 94.389 M256.516 94.667 C 256.516 95.461,256.556 95.786,256.605 95.389 C 256.654 94.992,256.654 94.342,256.605 93.944 C 256.556 93.547,256.516 93.872,256.516 94.667 M193.649 98.000 C 193.649 100.506,193.682 101.531,193.721 100.278 C 193.761 99.025,193.761 96.975,193.721 95.722 C 193.682 94.469,193.649 95.494,193.649 98.000 M211.045 94.234 C 210.873 94.918,209.284 97.434,208.491 98.278 C 208.175 98.614,208.011 98.888,208.125 98.888 C 208.618 98.885,211.448 94.454,211.279 93.949 C 211.228 93.796,211.123 93.924,211.045 94.234 M232.964 94.060 C 233.329 94.183,233.776 94.192,234.025 94.081 C 234.344 93.938,234.183 93.884,233.394 93.868 C 232.440 93.850,232.397 93.869,232.964 94.060 M243.611 94.375 C 243.825 94.431,244.175 94.431,244.389 94.375 C 244.603 94.320,244.428 94.274,244.000 94.274 C 243.572 94.274,243.397 94.320,243.611 94.375 M186.540 99.444 C 186.540 102.256,186.572 103.375,186.611 101.932 C 186.649 100.489,186.649 98.189,186.610 96.821 C 186.571 95.453,186.540 96.633,186.540 99.444 M224.920 94.667 C 224.920 94.850,225.006 95.200,225.111 95.444 C 225.231 95.725,225.302 95.766,225.302 95.556 C 225.302 95.372,225.216 95.022,225.111 94.778 C 224.991 94.498,224.920 94.457,224.920 94.667 M183.429 99.889 C 183.429 102.822,183.461 103.991,183.499 102.487 C 183.538 100.983,183.538 98.583,183.499 97.154 C 183.461 95.725,183.429 96.956,183.429 99.889 M229.698 95.810 C 229.349 96.295,229.107 96.736,229.160 96.789 C 229.213 96.843,229.527 96.473,229.857 95.968 C 230.636 94.779,230.521 94.665,229.698 95.810 M164.976 98.444 C 164.976 100.094,165.011 100.769,165.054 99.944 C 165.096 99.119,165.096 97.769,165.054 96.944 C 165.011 96.119,164.976 96.794,164.976 98.444 M168.086 98.333 C 168.087 99.922,168.122 100.543,168.165 99.713 C 168.208 98.883,168.208 97.583,168.164 96.824 C 168.121 96.065,168.086 96.744,168.086 98.333 M210.398 98.278 C 209.477 99.286,208.014 100.861,207.147 101.778 C 204.798 104.261,204.760 104.223,209.611 104.219 C 211.842 104.217,213.783 104.142,213.924 104.052 C 214.066 103.962,212.282 103.920,209.961 103.958 C 204.923 104.041,205.060 104.288,208.244 100.865 C 211.170 97.720,212.303 96.444,212.173 96.444 C 212.118 96.444,211.319 97.269,210.398 98.278 M256.736 98.333 C 256.737 99.067,256.778 99.340,256.828 98.940 C 256.877 98.541,256.876 97.941,256.825 97.607 C 256.775 97.273,256.734 97.600,256.736 98.333 M225.691 97.889 C 225.874 98.706,226.001 98.883,225.997 98.315 C 225.995 98.081,225.892 97.739,225.768 97.556 C 225.603 97.312,225.582 97.402,225.691 97.889 M259.834 98.111 C 259.836 98.600,259.882 98.774,259.935 98.497 C 259.988 98.221,259.986 97.821,259.930 97.609 C 259.875 97.396,259.831 97.622,259.834 98.111 M228.686 98.778 C 228.679 99.022,228.770 99.372,228.889 99.556 C 229.174 99.997,229.174 99.442,228.889 98.778 L 228.698 98.333 228.686 98.778 M206.769 100.234 C 206.163 100.852,205.817 101.291,206.000 101.210 C 206.322 101.067,208.153 99.111,207.965 99.111 C 207.914 99.111,207.376 99.617,206.769 100.234 M190.484 100.222 C 190.473 100.650,190.612 101.500,190.792 102.111 C 191.142 103.297,191.132 103.158,190.673 100.444 C 190.516 99.514,190.502 99.498,190.484 100.222 M224.556 101.493 C 223.822 102.532,223.185 103.497,223.139 103.636 C 223.093 103.775,223.728 102.957,224.550 101.818 C 225.371 100.679,226.009 99.715,225.966 99.676 C 225.924 99.636,225.289 100.454,224.556 101.493 M259.622 100.889 C 259.622 101.561,259.664 101.836,259.715 101.500 C 259.766 101.164,259.766 100.614,259.715 100.278 C 259.664 99.942,259.622 100.217,259.622 100.889 M229.115 100.796 C 229.116 101.031,229.219 101.372,229.343 101.556 C 229.508 101.799,229.529 101.709,229.420 101.222 C 229.237 100.405,229.110 100.228,229.115 100.796 M256.516 102.000 C 256.516 102.794,256.556 103.119,256.605 102.722 C 256.654 102.325,256.654 101.675,256.605 101.278 C 256.556 100.881,256.516 101.206,256.516 102.000 M226.397 101.833 C 226.523 101.986,226.727 102.461,226.849 102.889 C 227.005 103.434,227.077 103.521,227.091 103.177 C 227.116 102.573,226.671 101.556,226.382 101.556 C 226.253 101.556,226.259 101.666,226.397 101.833 M215.987 102.056 C 215.810 102.208,215.416 102.636,215.111 103.007 C 214.731 103.468,214.824 103.415,215.407 102.838 C 215.876 102.375,216.351 102.053,216.463 102.122 C 216.575 102.192,216.667 102.143,216.667 102.013 C 216.667 101.698,216.379 101.716,215.987 102.056 M225.620 102.056 C 224.656 103.315,224.148 104.066,224.338 103.952 C 224.601 103.793,226.076 101.778,225.930 101.778 C 225.876 101.778,225.737 101.903,225.620 102.056 M203.824 103.389 C 203.092 104.153,202.214 105.128,201.874 105.556 C 201.176 106.434,201.449 106.171,203.773 103.722 C 204.673 102.775,205.352 102.000,205.282 102.000 C 205.213 102.000,204.556 102.625,203.824 103.389 M193.809 103.000 C 193.809 103.244,193.895 103.644,194.000 103.889 L 194.191 104.333 194.191 103.889 C 194.191 103.644,194.105 103.244,194.000 103.000 L 193.809 102.556 193.809 103.000 M232.642 103.500 C 232.338 103.836,231.956 104.311,231.794 104.556 C 231.632 104.800,231.896 104.559,232.381 104.020 C 233.147 103.169,234.101 102.853,233.636 103.605 C 233.545 103.753,233.591 103.782,233.754 103.681 C 233.959 103.555,233.961 103.443,233.761 103.202 C 233.401 102.768,233.273 102.802,232.642 103.500 M168.037 104.354 C 168.009 105.054,168.116 105.363,168.500 105.688 C 168.996 106.108,168.997 106.108,168.628 105.667 C 168.423 105.422,168.214 104.822,168.165 104.333 L 168.075 103.444 168.037 104.354 M256.127 104.127 C 256.045 104.453,256.028 104.769,256.089 104.830 C 256.151 104.891,256.267 104.675,256.349 104.349 C 256.431 104.024,256.448 103.707,256.387 103.646 C 256.326 103.585,256.209 103.801,256.127 104.127 M145.586 104.245 C 145.569 104.564,145.310 105.089,145.011 105.412 C 144.711 105.735,144.554 106.000,144.662 106.000 C 145.044 106.000,145.808 104.665,145.712 104.166 C 145.625 103.715,145.613 103.723,145.586 104.245 M177.343 104.397 C 177.332 104.990,177.938 106.002,178.303 105.997 C 178.460 105.994,178.445 105.923,178.263 105.808 C 178.102 105.706,177.832 105.232,177.662 104.756 C 177.437 104.126,177.350 104.028,177.343 104.397 M227.118 104.222 C 227.118 104.406,227.215 104.706,227.333 104.889 C 227.525 105.185,227.549 105.185,227.549 104.889 C 227.549 104.706,227.452 104.406,227.333 104.222 C 227.142 103.926,227.118 103.926,227.118 104.222 M232.889 104.667 C 232.628 105.033,232.464 105.333,232.525 105.333 C 232.586 105.333,232.850 105.033,233.111 104.667 C 233.372 104.300,233.536 104.000,233.475 104.000 C 233.414 104.000,233.150 104.300,232.889 104.667 M174.030 104.649 C 174.014 104.945,173.835 105.370,173.632 105.594 C 173.425 105.823,173.373 106.000,173.513 106.000 C 173.880 106.000,174.264 105.162,174.155 104.600 C 174.066 104.140,174.059 104.143,174.030 104.649 M223.269 105.209 C 222.816 105.752,222.444 106.255,222.444 106.328 C 222.444 106.451,223.288 105.506,223.977 104.611 C 224.593 103.812,224.063 104.259,223.269 105.209 M218.667 104.778 C 218.512 104.964,218.488 105.111,218.612 105.111 C 218.734 105.111,218.959 104.961,219.111 104.778 C 219.265 104.592,219.289 104.444,219.166 104.444 C 219.043 104.444,218.819 104.594,218.667 104.778 M148.903 104.910 C 148.888 105.283,149.557 106.005,149.906 105.993 C 150.019 105.990,149.930 105.881,149.708 105.752 C 149.486 105.623,149.218 105.301,149.111 105.037 C 148.980 104.711,148.913 104.670,148.903 104.910 M158.681 104.910 C 158.666 105.283,159.335 106.005,159.684 105.993 C 159.797 105.990,159.708 105.881,159.486 105.752 C 159.264 105.623,158.995 105.301,158.889 105.037 C 158.757 104.711,158.690 104.670,158.681 104.910 M164.684 104.871 C 164.675 105.045,164.495 105.395,164.286 105.649 C 163.927 106.085,163.935 106.084,164.423 105.634 C 164.708 105.372,164.887 105.022,164.822 104.856 C 164.724 104.613,164.698 104.616,164.684 104.871 M191.556 104.710 C 191.556 104.780,191.705 105.125,191.888 105.475 C 192.070 105.825,192.217 105.961,192.214 105.778 C 192.211 105.594,192.061 105.250,191.882 105.013 C 191.702 104.776,191.556 104.639,191.556 104.710 M194.231 104.808 C 194.226 104.947,194.368 105.397,194.547 105.808 C 194.725 106.219,194.875 106.442,194.880 106.303 C 194.885 106.165,194.743 105.715,194.564 105.303 C 194.386 104.892,194.236 104.669,194.231 104.808 M258.372 105.228 C 258.290 105.469,258.162 105.817,258.088 106.000 C 258.014 106.183,258.122 106.106,258.327 105.828 C 258.532 105.549,258.660 105.202,258.611 105.056 C 258.561 104.906,258.456 104.982,258.372 105.228 M215.147 106.121 C 214.775 106.938,214.846 107.112,215.249 106.369 C 215.437 106.022,215.549 105.697,215.498 105.646 C 215.447 105.595,215.289 105.809,215.147 106.121 M231.653 106.278 L 231.000 107.000 231.722 106.347 C 232.119 105.988,232.444 105.663,232.444 105.625 C 232.444 105.453,232.261 105.605,231.653 106.278 M150.444 106.143 C 150.628 106.214,150.912 106.437,151.076 106.637 C 151.345 106.965,151.366 106.958,151.295 106.556 C 151.245 106.269,151.021 106.093,150.664 106.061 C 150.360 106.034,150.261 106.071,150.444 106.143 M152.933 106.267 C 152.787 106.413,152.667 106.632,152.667 106.754 C 152.667 106.875,152.792 106.813,152.944 106.617 C 153.097 106.420,153.422 106.213,153.667 106.156 C 154.102 106.054,154.101 106.051,153.656 106.026 C 153.405 106.012,153.080 106.120,152.933 106.267 M160.389 106.229 C 160.664 106.340,160.889 106.550,160.889 106.697 C 160.889 106.843,160.941 106.911,161.005 106.847 C 161.263 106.589,160.811 106.001,160.365 106.014 C 159.894 106.028,159.894 106.030,160.389 106.229 M169.722 106.229 C 169.997 106.340,170.222 106.550,170.222 106.697 C 170.222 106.843,170.286 106.899,170.365 106.820 C 170.582 106.604,169.995 105.998,169.584 106.014 C 169.339 106.024,169.384 106.093,169.722 106.229 M178.889 106.158 C 179.072 106.225,179.397 106.433,179.611 106.619 C 179.825 106.805,180.000 106.862,180.000 106.746 C 180.000 106.378,179.485 105.999,179.011 106.018 C 178.691 106.030,178.654 106.071,178.889 106.158 M181.435 106.237 C 181.200 106.618,181.411 106.656,181.876 106.315 C 182.237 106.052,182.248 106.000,181.944 106.000 C 181.745 106.000,181.516 106.107,181.435 106.237 M188.167 106.229 C 189.356 106.707,188.583 106.890,185.167 106.938 L 181.667 106.987 184.889 107.057 C 188.724 107.141,189.221 107.064,188.886 106.439 C 188.755 106.195,188.432 106.006,188.159 106.014 L 187.667 106.028 188.167 106.229 M192.700 107.124 C 192.979 107.620,193.343 108.138,193.508 108.275 C 193.674 108.413,193.488 108.007,193.094 107.374 C 192.245 106.008,191.978 105.838,192.700 107.124 M227.955 106.530 C 228.269 107.164,229.310 107.515,230.191 107.283 C 230.602 107.174,230.897 107.045,230.847 106.995 C 230.796 106.945,230.460 106.984,230.100 107.083 C 229.393 107.277,228.531 107.011,228.041 106.447 C 227.789 106.157,227.777 106.169,227.955 106.530 M218.887 106.894 C 219.551 107.477,221.345 107.420,221.961 106.796 C 222.311 106.442,222.293 106.440,221.667 106.764 C 220.808 107.208,219.581 107.206,218.883 106.760 L 218.333 106.409 218.887 106.894 M145.400 107.055 C 146.475 107.095,148.175 107.095,149.178 107.054 C 150.180 107.013,149.300 106.980,147.222 106.980 C 145.144 106.980,144.324 107.014,145.400 107.055 M154.944 107.054 C 156.014 107.095,157.764 107.095,158.833 107.054 C 159.903 107.014,159.028 106.980,156.889 106.980 C 154.750 106.980,153.875 107.014,154.944 107.054 M164.611 107.054 C 165.619 107.095,167.269 107.095,168.278 107.054 C 169.286 107.013,168.461 106.979,166.444 106.979 C 164.428 106.979,163.603 107.013,164.611 107.054 M173.944 107.054 C 174.953 107.095,176.603 107.095,177.611 107.054 C 178.619 107.013,177.794 106.979,175.778 106.979 C 173.761 106.979,172.936 107.013,173.944 107.054 M204.847 107.055 C 206.719 107.092,209.719 107.092,211.514 107.055 C 213.309 107.018,211.778 106.987,208.111 106.987 C 204.444 106.987,202.976 107.018,204.847 107.055 M256.667 108.181 C 255.793 109.335,254.795 110.369,253.328 111.641 C 252.368 112.474,252.364 112.482,253.222 111.868 C 254.848 110.704,257.814 107.511,257.527 107.234 C 257.482 107.190,257.094 107.616,256.667 108.181 M195.643 108.111 C 195.817 108.478,196.328 109.178,196.778 109.667 L 197.596 110.556 196.743 109.413 C 196.273 108.785,195.762 108.085,195.608 107.858 C 195.446 107.619,195.461 107.727,195.643 108.111 M254.222 108.667 C 253.961 109.033,253.798 109.333,253.859 109.333 C 253.920 109.333,254.183 109.033,254.444 108.667 C 254.706 108.300,254.869 108.000,254.808 108.000 C 254.747 108.000,254.483 108.300,254.222 108.667 M195.000 110.222 C 195.351 110.589,195.712 110.889,195.802 110.889 C 195.892 110.889,195.666 110.589,195.299 110.222 C 194.932 109.856,194.571 109.556,194.497 109.556 C 194.422 109.556,194.649 109.856,195.000 110.222 M252.432 110.833 L 251.667 111.667 252.500 110.901 C 252.958 110.480,253.333 110.105,253.333 110.068 C 253.333 109.898,253.145 110.058,252.432 110.833 M196.581 111.595 C 197.566 112.339,197.757 112.398,197.009 111.728 C 196.637 111.395,196.245 111.120,196.137 111.117 C 196.029 111.114,196.229 111.329,196.581 111.595 M198.722 111.684 C 199.156 112.199,199.230 112.793,198.883 112.965 C 198.758 113.027,198.783 113.052,198.939 113.021 C 199.433 112.923,199.375 112.106,198.843 111.654 L 198.333 111.222 198.722 111.684 M250.969 112.111 C 250.797 112.560,251.030 113.115,251.382 113.094 C 251.605 113.080,251.606 113.052,251.389 112.964 C 251.236 112.902,251.111 112.669,251.111 112.444 C 251.111 112.220,251.236 111.987,251.389 111.925 C 251.606 111.837,251.605 111.809,251.382 111.795 C 251.225 111.786,251.040 111.928,250.969 112.111 M181.947 116.379 C 182.223 116.433,182.623 116.431,182.836 116.375 C 183.048 116.319,182.822 116.276,182.333 116.278 C 181.844 116.281,181.671 116.326,181.947 116.379 M179.644 116.896 C 178.758 117.334,177.333 118.995,177.333 119.588 C 177.333 119.750,177.508 119.574,177.722 119.197 C 178.528 117.778,179.286 117.156,180.889 116.596 C 181.185 116.492,181.185 116.478,180.889 116.462 C 180.706 116.453,180.145 116.648,179.644 116.896 M183.556 116.553 C 183.556 116.612,183.931 116.832,184.389 117.041 C 185.679 117.629,185.735 117.625,184.778 117.014 C 183.917 116.465,183.556 116.328,183.556 116.553 M182.862 118.933 C 183.275 119.197,183.798 119.820,184.024 120.318 C 184.334 121.000,184.436 121.099,184.440 120.722 C 184.445 120.189,182.869 118.442,182.389 118.448 C 182.236 118.450,182.449 118.668,182.862 118.933 M177.960 120.556 C 177.634 121.270,177.025 121.316,177.218 120.611 C 177.339 120.167,177.327 120.156,177.103 120.513 C 176.965 120.735,176.907 121.060,176.974 121.236 C 177.188 121.791,177.682 121.584,178.066 120.778 C 178.270 120.350,178.387 120.000,178.325 120.000 C 178.263 120.000,178.099 120.250,177.960 120.556 M186.416 122.000 C 186.347 122.428,186.218 122.978,186.131 123.222 C 186.043 123.467,186.134 123.386,186.333 123.043 C 186.531 122.700,186.660 122.150,186.618 121.821 C 186.549 121.274,186.531 121.289,186.416 122.000 M168.779 122.220 C 168.701 122.347,168.792 122.382,168.995 122.305 C 169.217 122.219,169.589 122.424,170.008 122.863 C 170.373 123.244,170.739 123.556,170.823 123.556 C 170.907 123.556,170.637 123.206,170.222 122.778 C 169.458 121.989,169.025 121.822,168.779 122.220 M146.278 122.375 C 146.492 122.431,146.842 122.431,147.056 122.375 C 147.269 122.320,147.094 122.274,146.667 122.274 C 146.239 122.274,146.064 122.320,146.278 122.375 M153.389 122.362 C 153.845 122.497,153.935 123.692,153.500 123.838 C 153.340 123.892,153.364 123.921,153.556 123.907 C 154.109 123.867,154.005 122.351,153.444 122.294 C 153.099 122.258,153.087 122.273,153.389 122.362 M144.858 122.902 L 144.333 123.360 145.000 122.969 C 145.877 122.456,145.890 122.444,145.617 122.444 C 145.488 122.444,145.146 122.650,144.858 122.902 M150.886 123.226 C 150.473 123.651,150.197 124.000,150.273 124.000 C 150.467 124.000,151.815 122.630,151.717 122.532 C 151.673 122.487,151.299 122.800,150.886 123.226 M184.248 122.815 C 184.234 122.958,184.158 123.258,184.078 123.482 C 183.967 123.798,183.996 123.832,184.210 123.635 C 184.362 123.495,184.438 123.195,184.380 122.968 C 184.322 122.741,184.262 122.672,184.248 122.815 M148.922 124.265 C 148.877 125.070,149.180 125.202,149.810 124.652 L 150.333 124.196 149.738 124.557 C 149.152 124.914,149.142 124.910,149.049 124.293 L 148.955 123.667 148.922 124.265 M151.254 123.949 C 151.196 124.042,151.540 124.082,152.019 124.036 C 152.497 123.991,152.889 123.914,152.889 123.866 C 152.889 123.700,151.360 123.778,151.254 123.949 M185.368 124.546 C 185.113 124.979,184.944 125.333,184.992 125.333 C 185.166 125.333,186.046 123.972,185.941 123.867 C 185.881 123.807,185.624 124.113,185.368 124.546 M183.705 124.339 C 183.623 124.580,183.495 124.928,183.421 125.111 C 183.348 125.294,183.455 125.217,183.660 124.939 C 183.865 124.661,183.993 124.313,183.944 124.167 C 183.895 124.017,183.790 124.093,183.705 124.339 M170.228 124.740 C 171.269 125.932,170.864 126.000,162.735 126.000 C 158.786 126.000,155.555 126.075,155.555 126.167 C 155.555 126.566,170.186 126.132,170.597 125.721 C 170.969 125.349,170.957 125.302,170.333 124.721 L 169.679 124.111 170.228 124.740 M146.908 124.667 C 146.915 124.850,147.006 125.200,147.111 125.444 L 147.302 125.889 147.314 125.444 C 147.321 125.200,147.230 124.850,147.111 124.667 C 146.920 124.370,146.897 124.370,146.908 124.667 M150.399 125.113 C 149.912 125.969,150.057 125.968,150.667 125.111 C 150.928 124.744,151.060 124.445,150.960 124.446 C 150.860 124.447,150.607 124.747,150.399 125.113 M173.222 125.647 C 173.589 125.962,173.981 126.221,174.093 126.221 C 174.334 126.222,174.331 126.220,173.333 125.576 L 172.556 125.074 173.222 125.647 M182.471 126.444 C 182.078 126.933,181.837 127.331,181.934 127.329 C 182.109 127.324,183.445 125.556,183.274 125.556 C 183.225 125.556,182.864 125.956,182.471 126.444 M184.444 125.731 C 184.444 125.827,183.774 126.652,182.955 127.564 C 182.135 128.476,181.746 128.972,182.088 128.667 C 183.117 127.750,184.951 125.556,184.689 125.556 C 184.554 125.556,184.444 125.634,184.444 125.731 M147.349 126.463 C 147.358 126.758,147.455 127.200,147.566 127.444 C 147.706 127.754,147.726 127.620,147.632 127.000 C 147.475 125.968,147.326 125.686,147.349 126.463 M174.655 126.505 C 174.818 126.722,174.913 126.930,174.865 126.968 C 174.817 127.006,174.531 127.203,174.228 127.407 C 173.926 127.611,173.776 127.776,173.895 127.773 C 174.627 127.756,175.225 126.913,174.790 126.511 C 174.387 126.139,174.378 126.138,174.655 126.505 M149.587 127.333 C 149.587 127.517,149.673 127.867,149.778 128.111 C 149.898 128.391,149.969 128.432,149.969 128.222 C 149.969 128.039,149.883 127.689,149.778 127.444 C 149.657 127.164,149.587 127.123,149.587 127.333 M159.167 127.722 C 161.214 127.759,164.564 127.759,166.611 127.722 C 168.658 127.685,166.983 127.655,162.889 127.655 C 158.794 127.655,157.119 127.685,159.167 127.722 M180.326 128.915 C 179.597 129.663,179.100 130.238,179.223 130.193 C 179.464 130.104,181.904 127.556,181.748 127.556 C 181.695 127.556,181.056 128.167,180.326 128.915 M170.581 128.097 C 170.664 128.313,170.334 128.860,169.689 129.577 C 169.127 130.203,168.667 130.826,168.667 130.962 C 168.667 131.099,168.837 130.963,169.046 130.661 C 169.254 130.358,169.753 129.761,170.155 129.333 C 170.907 128.532,171.051 128.127,170.669 127.890 C 170.544 127.813,170.506 127.901,170.581 128.097 M150.038 129.222 C 150.034 129.467,150.117 129.867,150.222 130.111 C 150.466 130.677,150.466 130.093,150.222 129.333 C 150.079 128.887,150.043 128.865,150.038 129.222 M146.222 129.778 C 145.961 130.144,145.798 130.444,145.859 130.444 C 145.920 130.444,146.183 130.144,146.444 129.778 C 146.706 129.411,146.869 129.111,146.808 129.111 C 146.747 129.111,146.483 129.411,146.222 129.778 M147.083 130.056 C 146.807 130.453,146.339 131.128,146.043 131.556 L 145.506 132.333 146.096 131.667 C 146.421 131.300,146.853 130.725,147.058 130.389 C 147.477 129.700,148.138 129.580,148.291 130.167 C 148.385 130.525,148.395 130.526,148.419 130.174 C 148.474 129.354,147.624 129.278,147.083 130.056 M187.612 130.278 C 187.603 130.864,187.636 130.916,187.785 130.556 C 188.031 129.961,188.042 129.556,187.812 129.556 C 187.708 129.556,187.618 129.881,187.612 130.278 M186.496 130.451 C 186.097 130.814,185.826 131.111,185.893 131.111 C 186.164 131.111,187.082 130.398,187.197 130.098 C 187.359 129.674,187.339 129.684,186.496 130.451 M152.408 130.707 C 152.110 130.991,152.041 131.087,152.254 130.922 C 153.094 130.269,153.059 130.841,152.188 132.000 C 151.682 132.672,151.496 133.022,151.774 132.778 C 152.052 132.533,152.525 131.947,152.826 131.474 C 153.491 130.428,153.221 129.933,152.408 130.707 M145.234 131.099 C 145.019 131.336,144.578 131.571,144.255 131.621 L 143.667 131.711 144.239 131.744 C 144.593 131.765,145.010 131.566,145.333 131.222 C 145.620 130.917,145.803 130.667,145.740 130.667 C 145.676 130.667,145.449 130.861,145.234 131.099 M150.459 130.917 C 150.441 131.374,151.005 131.856,151.381 131.705 C 151.558 131.634,151.516 131.584,151.271 131.573 C 151.053 131.563,150.784 131.331,150.674 131.056 C 150.538 130.717,150.468 130.672,150.459 130.917 M177.701 131.700 C 177.231 132.223,176.898 132.779,176.961 132.936 C 177.046 133.147,177.081 133.137,177.094 132.898 C 177.103 132.720,177.480 132.197,177.930 131.736 C 178.380 131.274,178.705 130.864,178.652 130.823 C 178.599 130.783,178.171 131.177,177.701 131.700 M148.455 131.140 C 148.415 132.509,149.681 133.746,150.720 133.353 C 151.142 133.193,151.086 133.162,150.367 133.159 C 149.348 133.155,149.255 133.072,148.810 131.778 C 148.621 131.228,148.461 130.941,148.455 131.140 M142.489 131.600 C 141.604 132.485,142.742 133.740,144.092 133.367 C 144.836 133.161,145.835 132.444,145.376 132.444 C 145.260 132.444,145.050 132.583,144.909 132.753 C 144.565 133.168,143.587 133.334,142.941 133.089 C 142.205 132.809,142.321 131.749,143.111 131.531 C 143.576 131.403,143.592 131.374,143.211 131.355 C 142.961 131.343,142.636 131.453,142.489 131.600 M186.712 132.677 C 186.459 133.082,186.135 133.115,181.943 133.161 L 177.444 133.212 181.667 133.280 C 186.248 133.354,186.768 133.302,186.981 132.748 C 187.186 132.214,187.027 132.172,186.712 132.677 " stroke="none" fill="#7c7c7c" fill-rule="evenodd"></path><path id="path4" d="M145.656 95.444 C 145.656 100.089,145.686 102.020,145.722 99.737 C 145.758 97.453,145.758 93.653,145.722 91.292 C 145.686 88.932,145.656 90.800,145.656 95.444 M256.528 98.333 C 256.528 99.678,256.565 100.199,256.609 99.492 C 256.653 98.785,256.653 97.685,256.608 97.047 C 256.563 96.410,256.527 96.989,256.528 98.333 M174.092 100.222 C 174.092 102.483,174.125 103.408,174.166 102.278 C 174.206 101.147,174.206 99.297,174.166 98.167 C 174.125 97.036,174.092 97.961,174.092 100.222 M159.514 125.944 C 161.508 125.981,164.708 125.981,166.625 125.944 C 168.542 125.907,166.911 125.877,163.000 125.877 C 159.089 125.877,157.520 125.907,159.514 125.944 " stroke="none" fill="#848484" fill-rule="evenodd"></path></g></svg>