<svg id="svg" version="1.1" xmlns="http://www.w3.org/2000/svg" xmlns:xlink="http://www.w3.org/1999/xlink" width="400" height="218.64716636197443" viewBox="0, 0, 400,218.64716636197443"><g id="svgg"><path id="path0" d="M0.000 109.349 L 0.000 218.699 200.000 218.699 L 400.000 218.699 400.000 109.349 L 400.000 0.000 200.000 0.000 L 0.000 0.000 0.000 109.349 M224.763 80.623 C 226.261 81.741,226.696 83.367,226.009 85.279 C 225.790 85.888,225.538 86.386,225.450 86.386 C 225.362 86.386,225.234 86.558,225.166 86.769 C 225.098 86.979,224.267 87.988,223.319 89.010 L 221.596 90.869 223.650 90.932 C 225.645 90.993,225.719 90.978,226.212 90.405 C 227.196 89.261,227.504 90.102,226.736 91.836 L 226.244 92.946 222.484 92.947 C 218.050 92.947,218.038 92.939,219.738 91.139 C 221.747 89.014,221.974 88.754,222.848 87.589 C 224.474 85.423,224.606 83.530,223.211 82.400 C 222.141 81.533,220.145 82.304,219.682 83.765 C 219.547 84.189,218.829 84.368,218.620 84.029 C 218.168 83.298,220.208 80.432,221.354 80.190 C 222.422 79.964,224.180 80.187,224.763 80.623 M149.033 84.402 C 149.212 84.690,148.324 86.879,147.896 87.206 C 147.656 87.389,146.686 87.479,144.961 87.479 L 142.384 87.479 142.050 88.125 C 141.565 89.064,141.619 89.174,142.646 89.345 C 148.624 90.338,151.016 97.358,146.678 101.177 C 144.043 103.495,137.999 103.397,137.999 101.035 C 137.999 99.673,139.588 99.417,141.373 100.492 C 143.630 101.851,144.978 101.339,146.112 98.692 C 147.454 95.562,144.080 91.853,139.890 91.853 C 138.728 91.853,138.695 91.456,139.688 89.389 C 140.164 88.399,140.832 86.974,141.173 86.222 L 141.794 84.855 144.653 84.847 C 146.719 84.842,147.664 84.753,148.059 84.527 C 148.712 84.154,148.868 84.134,149.033 84.402 M99.289 92.154 C 99.289 101.331,99.271 101.177,100.424 101.487 C 101.051 101.656,101.266 101.820,101.214 102.090 C 101.099 102.690,94.697 102.770,94.697 102.171 C 94.697 101.899,94.978 101.651,95.537 101.431 C 96.311 101.127,96.390 101.017,96.522 100.055 C 96.704 98.722,96.706 89.053,96.523 87.534 L 96.385 86.386 95.526 86.386 C 94.492 86.386,94.363 85.541,95.353 85.250 C 95.653 85.162,96.342 84.951,96.884 84.781 C 97.425 84.612,98.188 84.460,98.578 84.445 L 99.289 84.418 99.289 92.154 M106.106 84.780 C 106.696 85.314,106.646 86.701,106.020 87.139 C 104.465 88.228,102.543 86.213,103.806 84.818 C 104.264 84.312,105.566 84.291,106.106 84.780 M137.087 84.936 C 137.130 85.156,136.609 85.897,135.815 86.745 C 134.639 88.002,134.004 89.029,133.397 90.651 C 131.700 95.190,133.065 102.265,136.223 105.293 C 137.895 106.897,137.180 107.702,135.310 106.321 C 128.173 101.048,128.426 89.782,135.790 84.961 C 136.665 84.388,136.980 84.382,137.087 84.936 M200.897 84.835 C 203.510 86.022,204.042 88.752,202.102 91.018 C 201.591 91.615,201.418 91.962,201.599 92.022 C 204.685 93.051,204.895 99.230,201.915 101.347 C 199.366 103.158,194.552 103.405,193.695 101.770 C 192.853 100.162,194.795 99.502,196.698 100.749 C 199.332 102.474,202.063 100.243,201.545 96.789 C 201.313 95.246,199.716 94.116,197.594 93.994 C 196.094 93.908,196.024 93.218,197.466 92.728 C 201.756 91.270,201.537 85.850,197.226 86.805 C 196.361 86.997,194.645 88.498,194.642 89.065 C 194.642 89.155,194.432 89.229,194.176 89.229 C 193.497 89.229,193.752 87.967,194.696 86.653 C 196.126 84.661,198.793 83.879,200.897 84.835 M266.769 84.680 C 266.959 84.870,267.031 86.461,267.031 90.465 L 267.031 95.987 268.289 96.053 L 269.546 96.118 269.546 97.102 L 269.546 98.086 268.296 98.152 L 267.047 98.217 266.984 100.339 L 266.922 102.460 265.773 102.527 C 264.367 102.607,264.188 102.302,264.188 99.827 L 264.188 98.207 260.634 98.146 L 257.080 98.086 257.015 97.203 C 256.954 96.369,257.189 95.982,261.154 90.368 C 265.552 84.143,265.890 83.801,266.769 84.680 M272.623 85.303 C 279.691 90.525,279.483 101.871,272.233 106.535 C 270.339 107.753,270.224 106.882,272.031 105.007 C 276.278 100.599,276.270 90.848,272.016 86.594 C 271.015 85.593,270.750 85.196,270.858 84.857 C 271.052 84.244,271.259 84.296,272.623 85.303 M243.581 91.246 L 243.641 94.685 246.971 94.746 L 250.301 94.806 250.301 95.790 L 250.301 96.774 246.971 96.835 L 243.642 96.895 243.581 100.224 L 243.521 103.554 242.590 103.621 C 241.429 103.705,241.468 103.822,241.394 100.055 L 241.334 96.993 238.054 96.884 L 234.773 96.774 234.707 95.741 L 234.640 94.708 237.987 94.648 L 241.334 94.587 241.395 91.431 C 241.463 87.904,241.558 87.643,242.737 87.742 L 243.521 87.808 243.581 91.246 M263.899 88.879 C 263.792 89.156,261.620 92.276,259.653 94.977 L 258.892 96.023 261.595 95.961 L 264.297 95.899 264.299 92.236 C 264.301 88.861,264.207 88.075,263.899 88.879 M106.506 95.502 C 106.625 101.184,106.655 101.320,107.840 101.557 C 108.324 101.654,108.487 101.796,108.434 102.075 C 108.368 102.419,108.011 102.467,105.121 102.521 L 101.882 102.582 101.952 102.084 C 102.003 101.729,102.191 101.566,102.608 101.518 C 103.657 101.397,103.767 101.024,103.846 97.335 C 103.938 92.993,103.810 92.424,102.721 92.332 C 101.816 92.256,101.636 91.799,102.359 91.412 C 103.050 91.042,105.934 90.117,106.178 90.187 C 106.312 90.225,106.439 92.283,106.506 95.502 M113.109 90.865 L 113.177 91.626 114.260 90.920 C 116.245 89.625,119.628 90.196,119.628 91.826 C 119.628 92.056,119.812 91.978,120.242 91.566 C 120.579 91.243,120.973 90.979,121.116 90.979 C 121.260 90.979,121.378 90.887,121.378 90.775 C 121.378 90.472,123.741 90.040,124.619 90.182 C 126.594 90.503,127.075 91.793,127.223 97.168 L 127.336 101.279 127.960 101.404 C 128.668 101.546,129.139 102.001,128.929 102.341 C 128.842 102.482,127.658 102.570,125.861 102.570 C 124.064 102.570,122.880 102.482,122.793 102.341 C 122.597 102.024,123.098 101.476,123.584 101.476 C 124.299 101.476,124.440 100.744,124.418 97.171 C 124.388 92.436,123.931 91.471,122.013 92.095 C 120.408 92.617,120.284 92.969,120.284 97.019 C 120.284 100.751,120.425 101.476,121.151 101.476 C 121.756 101.476,122.375 102.139,121.995 102.379 C 121.231 102.864,115.876 102.597,115.950 102.078 C 115.994 101.767,116.195 101.561,116.496 101.518 C 117.439 101.383,117.551 100.955,117.551 97.452 C 117.551 92.587,117.112 91.614,115.174 92.178 C 113.353 92.707,113.286 92.878,113.286 96.991 C 113.286 100.968,113.379 101.353,114.388 101.554 C 114.884 101.654,115.048 101.795,114.995 102.075 C 114.921 102.458,109.811 102.793,108.969 102.470 C 108.543 102.307,109.028 101.476,109.549 101.476 C 110.401 101.476,110.549 100.905,110.625 97.335 C 110.713 93.218,110.566 92.445,109.664 92.289 C 108.749 92.132,108.631 91.268,109.499 91.079 C 109.838 91.005,110.312 90.861,110.552 90.759 C 112.541 89.915,113.026 89.935,113.109 90.865 M156.566 91.166 C 156.810 91.509,157.078 92.210,157.160 92.724 L 157.309 93.658 158.394 92.421 C 160.369 90.170,162.493 89.879,162.493 91.861 C 162.493 92.749,162.030 93.015,160.781 92.843 L 159.711 92.696 158.945 93.751 C 157.806 95.320,157.650 95.690,157.884 96.270 C 157.996 96.547,158.257 97.562,158.464 98.524 C 158.989 100.964,159.191 101.123,160.258 99.944 C 161.747 98.300,162.134 99.266,160.742 101.151 C 159.072 103.411,157.309 103.457,156.622 101.258 C 156.490 100.837,156.250 100.055,156.089 99.522 L 155.796 98.551 154.441 100.330 C 152.583 102.771,151.598 103.293,150.232 102.562 C 148.855 101.825,150.079 99.975,151.592 100.506 C 152.439 100.803,153.022 100.422,153.722 99.114 C 153.853 98.868,154.086 98.537,154.239 98.377 C 155.353 97.212,155.458 96.510,154.878 94.108 C 154.419 92.202,154.419 92.202,153.139 92.191 C 151.586 92.177,151.638 91.623,153.245 91.045 C 155.132 90.367,156.020 90.400,156.566 91.166 M211.637 91.635 C 211.902 92.176,212.124 92.898,212.129 93.240 C 212.138 93.845,212.160 93.833,213.003 92.766 C 214.785 90.512,216.411 89.908,217.148 91.227 C 217.720 92.251,216.991 93.038,215.637 92.858 C 214.619 92.723,214.568 92.744,213.939 93.544 C 212.458 95.429,212.442 95.711,213.594 99.672 C 213.996 101.052,214.082 101.068,215.025 99.934 C 216.417 98.258,217.016 99.208,215.694 100.995 C 213.858 103.477,211.282 103.286,211.260 100.667 C 211.258 100.450,211.125 99.897,210.965 99.437 L 210.674 98.600 210.148 99.234 C 209.859 99.582,209.377 100.205,209.076 100.617 C 207.438 102.863,205.485 103.576,204.793 102.181 C 204.167 100.918,205.093 99.970,206.420 100.515 C 207.344 100.895,207.282 100.941,208.875 98.701 C 210.327 96.657,210.314 96.723,209.750 94.165 C 209.364 92.418,209.060 92.103,207.885 92.236 C 206.692 92.370,206.417 91.709,207.490 91.285 C 210.159 90.231,210.982 90.300,211.637 91.635 M185.413 95.590 C 185.523 96.906,185.591 96.895,177.667 96.832 L 170.476 96.774 170.409 95.732 L 170.342 94.691 177.845 94.748 L 185.347 94.806 185.413 95.590 M125.861 109.409 C 128.733 111.016,128.217 114.021,124.348 118.207 L 122.933 119.738 124.923 119.801 C 126.798 119.861,126.946 119.832,127.492 119.309 C 128.487 118.356,128.678 118.901,128.006 120.776 L 127.634 121.815 123.740 121.815 C 119.209 121.815,119.275 121.863,121.141 119.902 C 124.684 116.178,125.314 115.179,125.314 113.282 C 125.314 110.447,122.353 109.872,121.069 112.458 C 120.769 113.061,119.847 113.275,119.847 112.741 C 119.847 110.088,123.479 108.076,125.861 109.409 M98.581 113.559 C 98.702 113.710,98.871 114.158,98.956 114.555 L 99.110 115.277 100.078 114.281 C 101.400 112.921,102.788 112.933,102.788 114.306 C 102.788 114.917,102.234 115.231,101.367 115.111 C 100.220 114.952,99.191 116.829,99.705 118.142 C 99.813 118.418,100.017 119.074,100.158 119.599 L 100.415 120.554 101.012 119.982 C 102.401 118.651,102.560 119.830,101.186 121.265 C 99.802 122.709,99.032 122.529,98.397 120.612 C 97.973 119.334,97.888 119.306,97.205 120.220 C 95.750 122.166,94.711 122.677,93.939 121.824 C 93.224 121.034,93.645 120.284,94.803 120.284 C 96.110 120.284,97.660 118.400,97.471 117.039 C 97.186 114.987,97.037 114.712,96.165 114.640 C 95.636 114.595,95.353 114.462,95.353 114.258 C 95.353 113.554,98.098 112.960,98.581 113.559 M115.234 114.447 C 115.907 115.086,116.875 115.842,117.387 116.128 C 117.898 116.413,118.316 116.808,118.316 117.004 C 118.316 117.200,117.898 117.594,117.387 117.880 C 116.875 118.165,115.907 118.922,115.234 119.560 C 113.386 121.316,112.387 120.843,114.051 119.001 C 114.472 118.535,114.817 118.093,114.817 118.020 C 114.817 117.946,112.283 117.860,109.185 117.828 L 103.554 117.769 103.554 117.004 L 103.554 116.238 108.912 116.183 C 115.295 116.116,115.094 116.161,114.075 115.033 C 112.391 113.169,113.369 112.676,115.234 114.447 " stroke="none" fill="#fbfbfb" fill-rule="evenodd"></path><path id="path1" d="M221.812 80.456 C 220.967 80.615,219.620 81.637,219.374 82.305 C 219.024 83.256,218.913 83.980,219.117 83.980 C 219.232 83.980,219.387 83.785,219.463 83.546 C 220.203 81.216,223.659 81.205,224.355 83.531 C 224.877 85.270,223.900 87.162,220.794 90.432 C 219.766 91.514,218.923 92.474,218.921 92.564 C 218.919 92.654,220.529 92.728,222.499 92.728 L 226.081 92.728 226.345 92.017 C 226.490 91.627,226.699 91.136,226.809 90.927 C 227.217 90.154,226.988 90.078,226.236 90.737 C 225.481 91.400,225.412 91.416,223.268 91.416 C 220.608 91.416,220.606 91.407,222.800 89.157 C 226.119 85.754,226.912 82.963,225.040 81.272 C 224.544 80.823,223.936 80.481,223.637 80.481 C 223.346 80.481,222.977 80.445,222.817 80.401 C 222.657 80.358,222.205 80.382,221.812 80.456 M148.181 84.760 C 147.863 84.995,147.033 85.074,144.871 85.074 L 141.985 85.074 141.653 85.785 C 141.470 86.176,140.962 87.283,140.526 88.245 C 140.089 89.207,139.594 90.286,139.427 90.642 C 139.036 91.475,139.154 91.635,140.166 91.635 C 144.486 91.635,147.761 95.570,146.295 98.998 C 145.155 101.663,143.596 102.242,141.370 100.830 C 139.264 99.495,137.148 100.395,138.782 101.930 C 139.620 102.717,143.531 102.724,145.054 101.941 C 150.752 99.010,148.797 89.666,142.485 89.666 C 141.430 89.666,141.221 89.220,141.767 88.136 L 142.264 87.151 145.045 87.090 L 147.826 87.029 148.278 86.007 C 148.829 84.761,148.794 84.308,148.181 84.760 M97.430 84.971 C 96.949 85.144,96.439 85.287,96.296 85.289 C 95.018 85.305,94.678 86.155,95.946 86.164 C 96.818 86.170,96.884 86.710,96.884 93.868 C 96.884 101.349,96.845 101.593,95.641 101.735 C 95.320 101.773,95.018 101.927,94.969 102.078 C 94.900 102.287,95.575 102.351,97.868 102.351 C 100.162 102.351,100.835 102.287,100.766 102.078 C 100.715 101.927,100.486 101.770,100.255 101.727 C 99.051 101.505,99.071 101.650,99.071 92.804 C 99.071 83.637,99.215 84.328,97.430 84.971 M104.194 84.804 C 103.436 85.323,103.647 86.699,104.531 87.007 C 105.832 87.460,106.848 86.055,105.942 85.054 C 105.563 84.636,104.634 84.502,104.194 84.804 M135.156 85.808 C 130.316 89.639,129.001 95.977,131.819 101.887 C 132.513 103.342,135.757 106.725,136.459 106.725 C 137.107 106.725,137.033 106.570,135.735 105.209 C 133.129 102.477,132.138 98.556,132.699 93.194 C 132.838 91.868,133.041 90.605,133.152 90.389 C 133.262 90.172,133.513 89.620,133.709 89.163 C 134.119 88.207,134.209 88.087,135.757 86.397 C 137.473 84.524,137.162 84.220,135.156 85.808 M196.380 85.472 C 195.028 86.329,193.362 89.010,194.181 89.010 C 194.314 89.010,194.423 88.928,194.423 88.826 C 194.423 87.945,196.815 86.386,198.166 86.386 C 201.969 86.386,201.703 91.364,197.822 92.846 C 196.509 93.347,196.568 93.510,198.164 93.791 C 200.788 94.254,201.859 95.389,201.859 97.710 C 201.859 100.947,199.366 102.551,196.686 101.039 C 195.069 100.126,193.767 100.171,193.767 101.138 C 193.767 103.145,199.824 102.957,202.133 100.878 C 204.475 98.768,204.249 93.955,201.738 92.474 C 200.815 91.929,200.804 91.758,201.648 91.048 C 205.398 87.892,200.588 82.802,196.380 85.472 M263.513 87.465 C 257.489 96.009,257.408 96.136,257.408 97.080 L 257.408 97.977 261.009 97.977 L 264.610 97.977 264.672 100.109 L 264.735 102.242 265.656 102.309 L 266.578 102.375 266.640 100.231 L 266.703 98.086 267.972 98.020 C 269.343 97.949,269.586 97.728,269.347 96.774 C 269.220 96.267,269.114 96.227,267.902 96.227 L 266.594 96.227 266.594 90.541 L 266.594 84.855 265.973 84.855 C 265.430 84.855,265.126 85.177,263.513 87.465 M270.968 85.014 C 270.968 85.102,271.337 85.522,271.788 85.949 C 274.583 88.590,275.232 90.488,275.232 96.009 C 275.232 101.052,274.687 102.717,272.227 105.177 C 270.839 106.566,270.700 107.094,271.904 106.413 C 277.818 103.067,279.299 94.019,274.923 87.977 C 273.778 86.396,270.968 84.291,270.968 85.014 M264.625 92.072 L 264.625 96.227 261.673 96.227 C 260.049 96.227,258.721 96.154,258.721 96.063 C 258.721 95.890,259.423 94.848,262.295 90.760 C 263.833 88.569,264.342 87.934,264.571 87.920 C 264.601 87.918,264.625 89.787,264.625 92.072 M241.767 88.409 C 241.712 88.559,241.641 90.060,241.610 91.744 L 241.553 94.806 238.218 94.866 L 234.882 94.927 234.882 95.681 L 234.882 96.435 238.218 96.495 L 241.553 96.555 241.662 99.945 L 241.771 103.335 242.537 103.335 L 243.302 103.335 243.412 99.945 L 243.521 96.555 246.870 96.495 L 250.218 96.435 250.150 95.730 L 250.082 95.025 246.802 94.915 L 243.521 94.806 243.461 91.471 L 243.400 88.136 242.634 88.136 C 242.212 88.136,241.822 88.259,241.767 88.409 M104.214 91.007 C 102.106 91.782,101.737 92.072,102.859 92.072 C 103.994 92.072,104.101 92.484,104.097 96.843 C 104.094 100.933,103.961 101.453,102.843 101.742 C 101.350 102.129,102.175 102.351,105.103 102.351 C 107.382 102.351,108.053 102.287,107.984 102.078 C 107.934 101.927,107.681 101.773,107.421 101.735 C 106.375 101.581,106.288 101.103,106.288 95.523 C 106.288 92.663,106.214 90.332,106.124 90.344 C 106.033 90.356,105.174 90.654,104.214 91.007 M110.826 90.949 C 109.112 91.522,108.687 91.853,109.665 91.853 C 110.731 91.853,110.880 92.459,110.880 96.774 C 110.880 101.056,110.772 101.510,109.683 101.783 C 108.331 102.123,109.284 102.351,112.028 102.344 C 114.624 102.338,114.882 102.304,114.502 102.016 C 114.268 101.839,113.943 101.695,113.780 101.695 C 113.130 101.695,112.849 100.270,112.849 96.986 C 112.849 92.996,113.108 92.432,115.213 91.837 C 117.249 91.262,117.838 92.484,117.862 97.327 C 117.880 101.018,117.748 101.516,116.681 101.783 C 115.338 102.121,116.279 102.351,118.999 102.351 C 121.525 102.351,121.836 102.312,121.597 102.023 C 121.447 101.843,121.134 101.695,120.902 101.695 C 120.108 101.695,119.847 100.484,119.847 96.798 L 119.847 93.418 120.514 92.750 C 121.473 91.792,122.637 91.483,123.539 91.949 C 124.548 92.471,124.658 92.986,124.658 97.184 C 124.658 101.117,124.560 101.580,123.692 101.731 C 123.462 101.771,123.232 101.927,123.182 102.078 C 123.112 102.287,123.739 102.351,125.843 102.351 C 128.482 102.351,129.482 102.080,127.964 101.776 C 126.979 101.579,126.845 100.981,126.845 96.762 C 126.845 90.231,124.815 88.515,120.722 91.584 C 119.847 92.239,119.713 92.281,119.519 91.960 C 118.295 89.934,116.118 89.767,113.817 91.523 C 113.012 92.136,112.849 92.057,112.849 91.052 C 112.849 90.651,112.775 90.336,112.685 90.353 C 112.594 90.369,111.758 90.638,110.826 90.949 M153.762 91.169 C 152.314 91.617,151.961 92.153,153.250 91.947 C 154.382 91.766,154.681 92.089,155.119 93.967 C 155.813 96.950,155.875 96.589,154.278 98.822 C 152.700 101.028,152.437 101.232,151.685 100.830 C 150.816 100.365,150.147 100.609,150.068 101.420 C 149.869 103.484,152.026 102.871,154.103 100.274 C 155.981 97.925,155.983 97.924,156.332 99.232 C 156.485 99.805,156.706 100.638,156.824 101.084 C 157.318 102.958,158.704 103.066,160.233 101.349 C 161.707 99.696,161.724 98.889,160.255 100.323 C 158.966 101.582,158.803 101.354,157.708 96.762 C 157.414 95.527,157.462 95.378,158.749 93.523 C 159.483 92.466,159.494 92.460,160.497 92.573 C 162.136 92.758,162.836 91.992,161.846 91.096 C 161.062 90.387,159.243 91.513,157.848 93.572 C 157.383 94.258,157.083 94.022,156.904 92.830 C 156.609 90.864,155.924 90.501,153.762 91.169 M208.655 91.169 C 207.344 91.574,206.768 92.229,207.952 91.970 C 209.345 91.664,209.506 91.887,210.288 95.216 L 210.641 96.719 209.640 98.168 C 207.886 100.707,207.094 101.375,206.522 100.803 C 206.392 100.673,206.004 100.600,205.658 100.639 C 204.819 100.735,204.613 101.952,205.368 102.357 C 206.514 102.970,207.470 102.359,209.316 99.836 C 210.676 97.977,210.925 97.833,211.111 98.797 C 211.949 103.130,213.258 103.802,215.343 100.969 C 216.446 99.470,216.260 98.972,215.095 100.306 C 213.946 101.622,213.583 101.184,212.711 97.430 C 212.236 95.386,212.216 95.496,213.371 93.877 L 214.385 92.456 215.426 92.579 C 217.001 92.766,217.747 91.806,216.608 91.059 C 215.887 90.587,214.797 91.044,213.787 92.241 C 213.421 92.675,212.908 93.282,212.647 93.590 L 212.171 94.150 211.936 93.534 C 211.806 93.196,211.700 92.753,211.700 92.550 C 211.696 91.034,210.642 90.556,208.655 91.169 M170.585 95.681 L 170.585 96.446 177.802 96.446 L 185.019 96.446 185.019 95.681 L 185.019 94.915 177.802 94.915 L 170.585 94.915 170.585 95.681 M121.882 109.841 C 121.124 110.379,120.570 111.198,120.282 112.202 C 120.026 113.092,120.573 113.080,120.943 112.187 C 122.121 109.343,126.053 110.603,125.685 113.706 C 125.483 115.411,124.954 116.215,121.861 119.515 C 119.814 121.699,119.717 121.597,123.850 121.597 L 127.415 121.597 127.812 120.492 C 128.286 119.176,128.181 118.968,127.425 119.724 C 126.899 120.251,126.734 120.284,124.668 120.284 C 122.010 120.284,122.000 120.258,123.929 118.207 C 127.119 114.813,127.950 112.805,126.958 110.887 C 126.145 109.315,123.414 108.753,121.882 109.841 M96.755 113.707 C 95.540 114.005,95.378 114.259,96.328 114.379 L 97.194 114.489 97.576 115.977 C 97.991 117.597,97.942 117.857,96.974 119.189 C 95.903 120.661,95.765 120.756,94.900 120.610 C 94.052 120.466,93.697 120.798,93.961 121.487 C 94.298 122.365,95.516 121.876,96.681 120.394 C 97.891 118.854,98.408 118.611,98.425 119.574 C 98.461 121.644,99.876 122.391,101.145 121.009 C 102.078 119.994,102.207 119.265,101.300 120.134 C 100.284 121.108,100.035 120.852,99.489 118.274 C 99.067 116.280,100.035 114.675,101.596 114.780 C 102.490 114.840,102.833 114.331,102.276 113.773 C 101.784 113.281,100.583 113.858,99.897 114.917 C 99.321 115.806,99.038 115.803,98.772 114.908 C 98.361 113.528,98.107 113.376,96.755 113.707 M113.505 113.752 C 113.505 113.887,113.855 114.386,114.283 114.860 C 115.524 116.234,115.531 116.232,109.262 116.297 L 103.635 116.355 103.704 116.953 L 103.773 117.551 109.331 117.660 C 115.516 117.782,115.462 117.765,114.278 119.181 C 112.887 120.847,113.368 121.000,115.025 119.419 C 115.650 118.823,116.597 118.061,117.129 117.724 C 118.308 116.979,118.308 116.984,117.212 116.368 C 116.725 116.094,115.781 115.338,115.115 114.687 C 113.913 113.514,113.505 113.277,113.505 113.752 " stroke="none" fill="#0c0c0c" fill-rule="evenodd"></path><path id="path2" d="M222.256 80.201 C 222.588 80.251,223.080 80.250,223.349 80.198 C 223.618 80.146,223.346 80.105,222.745 80.106 C 222.143 80.108,221.923 80.150,222.256 80.201 M99.169 92.182 C 99.169 96.512,99.198 98.314,99.234 96.187 C 99.270 94.060,99.270 90.517,99.234 88.314 C 99.199 86.111,99.169 87.851,99.169 92.182 M197.438 84.597 C 197.232 84.679,197.893 84.746,198.907 84.746 C 199.920 84.746,200.581 84.679,200.375 84.597 C 200.169 84.515,199.508 84.448,198.907 84.448 C 198.305 84.448,197.644 84.515,197.438 84.597 M265.206 84.582 C 265.150 84.672,265.464 84.746,265.904 84.746 L 266.703 84.746 266.812 90.432 L 266.922 96.118 268.179 96.184 L 269.437 96.249 269.437 97.102 L 269.437 97.955 268.179 98.021 L 266.922 98.086 266.859 100.208 L 266.797 102.329 265.710 102.414 L 264.623 102.498 265.772 102.479 L 266.922 102.460 266.984 100.339 L 267.047 98.217 268.296 98.152 L 269.546 98.086 269.546 97.102 L 269.546 96.118 268.289 96.053 L 267.031 95.987 267.031 90.465 C 267.031 86.461,266.959 84.870,266.769 84.680 C 266.480 84.391,265.367 84.321,265.206 84.582 M135.223 85.418 L 134.609 85.981 135.320 85.486 C 135.711 85.214,136.031 84.961,136.031 84.923 C 136.031 84.751,135.789 84.899,135.223 85.418 M95.134 85.303 C 94.894 85.465,94.983 85.485,95.462 85.378 C 96.266 85.198,96.441 85.073,95.881 85.077 C 95.651 85.079,95.314 85.180,95.134 85.303 M135.913 86.441 L 134.828 87.589 135.976 86.504 C 137.043 85.495,137.224 85.293,137.061 85.293 C 137.027 85.293,136.510 85.809,135.913 86.441 M273.701 86.386 C 274.171 86.867,274.605 87.261,274.665 87.261 C 274.725 87.261,274.390 86.867,273.920 86.386 C 273.450 85.905,273.017 85.511,272.957 85.511 C 272.896 85.511,273.232 85.905,273.701 86.386 M148.278 86.370 C 148.278 87.069,147.569 87.261,144.995 87.261 C 143.567 87.261,142.353 87.335,142.297 87.425 C 142.031 87.851,147.873 87.376,148.187 86.946 C 148.499 86.518,148.589 86.167,148.387 86.167 C 148.327 86.167,148.278 86.259,148.278 86.370 M105.993 86.881 C 105.707 87.180,105.375 87.279,104.860 87.219 C 104.459 87.172,104.179 87.211,104.238 87.307 C 104.439 87.631,105.582 87.480,106.099 87.061 C 106.383 86.831,106.566 86.601,106.506 86.551 C 106.446 86.500,106.215 86.649,105.993 86.881 M197.266 86.615 C 196.800 86.785,196.833 86.799,197.487 86.709 C 197.908 86.652,198.591 86.701,199.003 86.820 C 199.415 86.938,199.660 86.945,199.548 86.837 C 199.229 86.527,197.870 86.395,197.266 86.615 M241.654 88.070 C 241.399 88.406,241.400 88.424,241.662 88.190 C 242.031 87.861,243.330 87.826,243.486 88.141 C 243.548 88.264,243.573 88.240,243.542 88.086 C 243.451 87.626,242.000 87.614,241.654 88.070 M203.089 88.600 C 202.907 89.512,203.083 89.689,203.280 88.792 C 203.364 88.414,203.386 88.059,203.330 88.003 C 203.274 87.947,203.166 88.216,203.089 88.600 M200.606 89.010 C 200.606 89.552,200.649 89.773,200.701 89.502 C 200.753 89.232,200.753 88.789,200.701 88.518 C 200.649 88.248,200.606 88.469,200.606 89.010 M222.354 89.838 C 220.998 91.215,220.989 91.204,223.455 91.152 L 225.588 91.107 223.527 91.034 L 221.466 90.961 222.535 89.876 C 223.122 89.280,223.554 88.792,223.494 88.792 C 223.434 88.792,222.921 89.263,222.354 89.838 M142.829 89.526 C 142.879 89.570,143.215 89.671,143.576 89.752 C 144.055 89.859,144.143 89.839,143.904 89.676 C 143.608 89.477,142.609 89.337,142.829 89.526 M226.223 90.377 C 225.807 90.869,225.807 90.869,226.261 90.487 C 226.919 89.933,227.080 90.011,226.939 90.815 C 226.831 91.432,226.846 91.462,227.050 91.045 C 227.534 90.054,226.918 89.556,226.223 90.377 M116.293 90.258 C 116.564 90.310,117.007 90.310,117.277 90.258 C 117.548 90.206,117.326 90.163,116.785 90.163 C 116.244 90.163,116.022 90.206,116.293 90.258 M123.510 90.258 C 123.781 90.310,124.224 90.310,124.494 90.258 C 124.765 90.206,124.543 90.163,124.002 90.163 C 123.461 90.163,123.239 90.206,123.510 90.258 M139.020 90.687 C 138.822 90.885,138.834 91.585,139.038 91.710 C 139.128 91.766,139.202 91.526,139.202 91.176 C 139.202 90.827,139.194 90.541,139.184 90.541 C 139.174 90.541,139.100 90.607,139.020 90.687 M154.208 90.740 C 154.022 90.858,154.295 90.888,154.917 90.818 C 155.596 90.741,156.055 90.803,156.313 91.005 C 156.662 91.279,156.670 91.271,156.397 90.924 C 156.076 90.514,154.742 90.401,154.208 90.740 M161.072 90.703 C 162.262 90.877,162.796 92.184,161.892 92.711 C 161.681 92.833,161.612 92.937,161.739 92.940 C 162.141 92.952,162.493 92.441,162.493 91.844 C 162.493 91.092,161.859 90.533,161.054 90.574 L 160.416 90.607 161.072 90.703 M201.787 91.099 C 201.447 91.398,201.201 91.720,201.241 91.815 C 201.280 91.910,201.593 91.662,201.935 91.264 C 202.675 90.406,202.631 90.357,201.787 91.099 M210.057 90.704 C 210.537 90.753,211.078 90.908,211.260 91.050 C 211.549 91.274,211.553 91.258,211.291 90.924 C 211.081 90.656,210.720 90.552,210.088 90.578 L 209.185 90.615 210.057 90.704 M215.118 90.714 C 215.060 90.809,215.350 90.848,215.765 90.799 C 216.196 90.749,216.680 90.838,216.897 91.009 C 217.241 91.278,217.249 91.270,216.977 90.924 C 216.672 90.535,215.323 90.383,215.118 90.714 M219.454 91.471 L 218.589 92.400 219.519 91.536 C 220.383 90.732,220.549 90.541,220.383 90.541 C 220.348 90.541,219.929 90.960,219.454 91.471 M199.549 91.471 L 198.907 92.182 199.617 91.539 C 200.008 91.186,200.328 90.866,200.328 90.828 C 200.328 90.659,200.148 90.808,199.549 91.471 M158.475 92.337 C 157.809 93.085,157.311 93.743,157.369 93.800 C 157.426 93.858,157.640 93.665,157.845 93.371 C 158.049 93.078,158.601 92.419,159.070 91.908 C 159.540 91.397,159.871 90.979,159.805 90.979 C 159.739 90.979,159.140 91.590,158.475 92.337 M132.859 92.291 C 132.775 92.788,132.753 93.241,132.809 93.297 C 132.865 93.353,132.976 92.989,133.056 92.488 C 133.136 91.986,133.159 91.534,133.107 91.481 C 133.055 91.429,132.944 91.794,132.859 92.291 M152.065 91.744 C 152.099 92.083,152.280 92.188,152.872 92.210 C 153.611 92.238,153.614 92.236,152.939 92.143 C 152.533 92.087,152.195 91.892,152.131 91.677 C 152.051 91.409,152.033 91.428,152.065 91.744 M109.030 92.087 C 109.083 92.171,109.417 92.283,109.773 92.335 C 110.129 92.388,110.377 92.361,110.325 92.277 C 110.272 92.192,109.938 92.080,109.582 92.028 C 109.226 91.975,108.978 92.002,109.030 92.087 M114.926 92.072 C 114.650 92.191,114.610 92.260,114.817 92.260 C 114.997 92.260,115.342 92.176,115.582 92.072 C 115.858 91.954,115.898 91.884,115.692 91.884 C 115.511 91.884,115.167 91.969,114.926 92.072 M122.927 91.920 C 122.977 91.956,123.313 92.159,123.674 92.370 L 124.330 92.754 123.814 92.304 C 123.530 92.056,123.194 91.853,123.067 91.853 C 122.940 91.853,122.877 91.883,122.927 91.920 M202.054 92.464 C 202.341 92.696,202.768 93.121,203.002 93.408 C 203.236 93.696,203.355 93.783,203.266 93.603 C 203.003 93.068,202.441 92.484,201.971 92.256 C 201.637 92.094,201.657 92.144,202.054 92.464 M120.406 92.996 C 120.128 93.392,120.074 94.107,120.110 96.878 L 120.154 100.273 120.274 96.752 C 120.359 94.236,120.479 93.128,120.694 92.870 C 120.859 92.672,120.938 92.510,120.870 92.510 C 120.802 92.510,120.593 92.728,120.406 92.996 M197.086 92.843 C 196.182 93.235,196.195 93.917,197.107 93.958 C 197.661 93.982,197.665 93.977,197.160 93.889 C 196.409 93.758,196.468 93.258,197.266 92.980 C 197.627 92.854,197.922 92.697,197.922 92.630 C 197.922 92.476,197.942 92.471,197.086 92.843 M214.195 93.002 L 213.778 93.494 214.261 93.085 C 214.604 92.795,214.922 92.718,215.355 92.818 C 215.806 92.923,215.879 92.902,215.637 92.738 C 215.115 92.385,214.644 92.471,214.195 93.002 M126.896 93.384 C 126.896 93.805,126.941 93.978,126.996 93.767 C 127.051 93.557,127.051 93.212,126.996 93.002 C 126.941 92.791,126.896 92.963,126.896 93.384 M274.959 93.494 C 274.962 93.975,275.007 94.146,275.059 93.874 C 275.111 93.602,275.109 93.208,275.055 92.999 C 275.000 92.790,274.957 93.013,274.959 93.494 M113.204 93.283 C 113.129 93.479,113.087 95.230,113.112 97.175 L 113.156 100.711 113.276 96.884 C 113.405 92.745,113.405 92.758,113.204 93.283 M117.260 93.166 C 117.271 93.734,117.615 94.667,117.623 94.150 C 117.626 93.909,117.545 93.516,117.441 93.275 C 117.326 93.007,117.256 92.965,117.260 93.166 M143.904 93.007 C 143.904 93.049,144.224 93.318,144.615 93.604 C 145.054 93.926,145.207 93.979,145.015 93.742 C 144.724 93.384,143.904 92.841,143.904 93.007 M154.753 93.712 C 154.933 94.517,155.059 94.691,155.054 94.132 C 155.052 93.901,154.951 93.565,154.829 93.384 C 154.667 93.145,154.646 93.233,154.753 93.712 M130.176 94.040 C 130.176 94.461,130.221 94.634,130.277 94.423 C 130.332 94.213,130.332 93.868,130.277 93.658 C 130.221 93.447,130.176 93.619,130.176 94.040 M277.692 95.025 C 277.756 95.867,277.844 96.597,277.887 96.647 C 278.039 96.823,277.921 94.581,277.749 94.040 C 277.648 93.723,277.624 94.135,277.692 95.025 M124.440 97.226 C 124.440 99.166,124.340 100.836,124.209 101.108 C 123.986 101.569,123.990 101.571,124.318 101.161 C 124.645 100.753,124.863 93.822,124.549 93.822 C 124.489 93.822,124.440 95.354,124.440 97.226 M209.735 94.387 C 209.737 94.617,209.839 94.954,209.961 95.134 C 210.123 95.374,210.143 95.285,210.036 94.806 C 209.856 94.002,209.731 93.827,209.735 94.387 M127.152 97.540 C 127.152 99.404,127.186 100.167,127.227 99.235 C 127.268 98.302,127.268 96.777,127.227 95.845 C 127.186 94.913,127.152 95.675,127.152 97.540 M148.588 96.133 C 148.580 97.700,148.598 97.776,148.773 96.918 C 148.882 96.386,148.886 95.623,148.782 95.183 C 148.629 94.535,148.595 94.700,148.588 96.133 M185.128 95.646 L 185.128 96.555 177.768 96.555 C 173.720 96.555,170.454 96.629,170.509 96.720 C 170.691 97.013,184.898 96.918,185.194 96.621 C 185.482 96.334,185.555 95.002,185.293 94.839 C 185.202 94.783,185.128 95.147,185.128 95.646 M275.186 95.899 C 275.187 96.501,275.230 96.721,275.280 96.388 C 275.330 96.056,275.329 95.564,275.277 95.295 C 275.225 95.026,275.184 95.298,275.186 95.899 M146.122 95.571 C 146.122 95.752,146.206 96.096,146.309 96.337 C 146.428 96.612,146.497 96.653,146.497 96.446 C 146.497 96.266,146.413 95.921,146.309 95.681 C 146.191 95.405,146.122 95.365,146.122 95.571 M257.185 96.018 C 257.053 96.264,256.976 96.830,257.013 97.276 L 257.080 98.086 260.625 98.146 L 264.171 98.206 264.247 99.896 L 264.324 101.586 264.311 99.836 L 264.297 98.086 260.744 98.026 L 257.190 97.966 257.190 97.192 C 257.190 96.766,257.292 96.227,257.416 95.994 C 257.541 95.762,257.593 95.571,257.533 95.571 C 257.473 95.571,257.316 95.772,257.185 96.018 M261.564 96.009 L 258.830 96.139 261.496 96.183 C 263.087 96.210,264.217 96.139,264.297 96.009 C 264.372 95.888,264.402 95.810,264.365 95.834 C 264.328 95.859,263.067 95.937,261.564 96.009 M201.584 97.237 C 201.647 97.824,201.735 98.346,201.779 98.396 C 201.953 98.594,201.840 96.755,201.660 96.471 C 201.543 96.286,201.513 96.584,201.584 97.237 M234.838 96.708 C 234.923 96.792,236.439 96.890,238.207 96.927 C 239.976 96.963,241.354 96.924,241.269 96.840 C 241.185 96.757,239.668 96.658,237.900 96.622 C 236.131 96.585,234.753 96.624,234.838 96.708 M246.911 96.665 L 243.521 96.792 246.843 96.838 C 248.873 96.866,250.218 96.798,250.301 96.665 C 250.375 96.545,250.405 96.467,250.368 96.492 C 250.331 96.517,248.775 96.595,246.911 96.665 M130.173 97.649 C 130.176 97.890,130.253 98.382,130.344 98.742 C 130.494 99.332,130.512 99.343,130.515 98.852 C 130.518 98.551,130.441 98.059,130.344 97.758 C 130.207 97.330,130.170 97.306,130.173 97.649 M274.955 98.414 C 274.955 98.835,275.000 99.008,275.055 98.797 C 275.110 98.587,275.110 98.242,275.055 98.032 C 275.000 97.821,274.955 97.993,274.955 98.414 M132.798 98.305 C 132.800 98.546,132.877 99.038,132.969 99.399 C 133.119 99.988,133.136 99.999,133.140 99.508 C 133.142 99.207,133.065 98.715,132.969 98.414 C 132.832 97.986,132.795 97.962,132.798 98.305 M146.127 98.622 C 145.999 98.989,145.941 99.289,145.998 99.289 C 146.146 99.289,146.559 98.153,146.450 98.045 C 146.401 97.995,146.255 98.255,146.127 98.622 M153.883 98.907 L 153.490 99.617 153.941 99.071 C 154.341 98.586,154.518 98.196,154.339 98.196 C 154.305 98.196,154.100 98.516,153.883 98.907 M155.360 98.912 L 154.948 99.399 155.421 98.999 C 155.879 98.613,155.897 98.613,155.997 98.999 C 156.085 99.341,156.104 99.345,156.126 99.029 C 156.166 98.439,155.807 98.384,155.360 98.912 M158.369 98.852 C 158.369 99.032,158.453 99.377,158.557 99.617 C 158.675 99.893,158.745 99.933,158.745 99.727 C 158.745 99.546,158.660 99.202,158.557 98.961 C 158.438 98.685,158.369 98.645,158.369 98.852 M215.002 100.000 L 214.293 100.929 215.046 100.105 C 215.587 99.514,215.915 99.319,216.210 99.415 C 216.549 99.526,216.564 99.508,216.293 99.313 C 215.811 98.967,215.774 98.986,215.002 100.000 M145.012 100.441 C 144.389 101.209,144.364 101.274,144.868 100.820 C 145.391 100.349,146.012 99.500,145.825 99.512 C 145.791 99.514,145.425 99.932,145.012 100.441 M200.671 100.328 C 200.198 100.932,200.160 101.034,200.527 100.713 C 200.965 100.330,201.544 99.508,201.375 99.508 C 201.340 99.508,201.023 99.877,200.671 100.328 M138.799 99.891 C 138.744 99.981,139.126 100.057,139.649 100.060 C 140.171 100.063,140.482 99.991,140.338 99.899 C 140.000 99.684,138.929 99.678,138.799 99.891 M146.846 100.875 L 145.981 101.804 146.911 100.940 C 147.775 100.136,147.941 99.945,147.775 99.945 C 147.740 99.945,147.321 100.364,146.846 100.875 M103.689 100.503 C 103.655 101.098,103.250 101.476,102.648 101.476 C 102.379 101.476,102.108 101.557,102.047 101.655 C 101.987 101.754,102.221 101.793,102.568 101.742 C 103.340 101.629,103.956 100.993,103.817 100.454 C 103.727 100.105,103.711 100.111,103.689 100.503 M113.293 100.957 C 113.282 101.346,113.882 101.741,114.314 101.629 C 114.630 101.547,114.612 101.522,114.226 101.502 C 113.962 101.488,113.645 101.304,113.522 101.093 C 113.400 100.883,113.296 100.822,113.293 100.957 M106.916 101.312 C 107.081 101.523,107.425 101.683,107.681 101.670 C 108.123 101.645,108.125 101.639,107.709 101.537 C 107.469 101.478,107.124 101.317,106.944 101.179 C 106.658 100.962,106.655 100.979,106.916 101.312 M110.104 101.236 C 109.990 101.345,109.699 101.481,109.459 101.539 C 109.044 101.639,109.045 101.645,109.487 101.670 C 109.743 101.683,110.074 101.547,110.224 101.367 C 110.521 101.009,110.438 100.919,110.104 101.236 M117.102 101.236 C 116.988 101.345,116.698 101.481,116.457 101.539 C 116.042 101.639,116.044 101.645,116.485 101.670 C 116.741 101.683,117.073 101.547,117.223 101.367 C 117.519 101.009,117.436 100.919,117.102 101.236 M127.649 101.482 C 127.748 101.576,128.018 101.687,128.249 101.728 C 128.479 101.770,128.709 101.927,128.759 102.078 C 128.876 102.428,123.007 102.476,122.834 102.127 C 122.773 102.004,122.748 102.028,122.779 102.182 C 122.849 102.530,128.549 102.703,128.885 102.367 C 129.186 102.066,128.719 101.551,128.025 101.418 C 127.719 101.360,127.549 101.388,127.649 101.482 M153.280 101.621 C 153.115 101.821,152.685 102.165,152.324 102.386 C 151.963 102.606,151.792 102.787,151.944 102.788 C 152.219 102.788,153.980 101.275,153.717 101.263 C 153.642 101.260,153.445 101.421,153.280 101.621 M160.186 101.713 C 160.106 101.843,159.731 102.138,159.353 102.368 C 158.975 102.598,158.787 102.787,158.936 102.788 C 159.216 102.788,160.751 101.494,160.483 101.483 C 160.400 101.479,160.266 101.583,160.186 101.713 M208.081 101.713 C 208.001 101.843,207.626 102.138,207.248 102.368 C 206.870 102.598,206.682 102.787,206.831 102.788 C 207.111 102.788,208.646 101.494,208.378 101.483 C 208.295 101.479,208.161 101.583,208.081 101.713 M101.039 101.981 C 101.039 102.294,100.630 102.348,97.813 102.406 L 94.587 102.473 97.820 102.521 C 100.997 102.569,101.803 102.386,101.175 101.758 C 101.100 101.683,101.039 101.783,101.039 101.981 M108.256 101.981 C 108.256 102.294,107.847 102.348,105.030 102.406 L 101.804 102.473 105.037 102.521 C 108.214 102.569,109.020 102.386,108.392 101.758 C 108.317 101.683,108.256 101.783,108.256 101.981 M114.817 101.998 C 114.817 102.339,114.531 102.368,111.775 102.308 C 110.103 102.271,108.780 102.315,108.836 102.406 C 109.055 102.758,114.821 102.595,114.960 102.232 C 115.031 102.047,115.028 101.833,114.953 101.758 C 114.878 101.683,114.817 101.791,114.817 101.998 M117.268 102.513 C 118.074 102.555,119.452 102.555,120.329 102.514 C 121.207 102.472,120.547 102.438,118.863 102.437 C 117.179 102.437,116.461 102.471,117.268 102.513 M243.412 103.211 C 243.412 103.405,243.121 103.465,242.448 103.412 C 241.919 103.370,241.531 103.409,241.587 103.499 C 241.742 103.751,243.367 103.694,243.530 103.430 C 243.609 103.302,243.615 103.138,243.543 103.065 C 243.471 102.993,243.412 103.059,243.412 103.211 M274.022 104.921 L 272.827 106.178 274.084 104.983 C 274.776 104.325,275.342 103.760,275.342 103.725 C 275.342 103.563,275.133 103.752,274.022 104.921 M133.834 105.030 C 134.371 105.601,134.838 106.069,134.873 106.069 C 135.038 106.069,134.864 105.873,133.898 104.966 L 132.859 103.991 133.834 105.030 M135.921 105.194 C 136.514 105.796,137.048 106.288,137.108 106.288 C 137.168 106.288,136.732 105.796,136.140 105.194 C 135.548 104.593,135.014 104.101,134.954 104.101 C 134.893 104.101,135.329 104.593,135.921 105.194 M270.818 106.489 C 270.840 106.780,271.006 107.059,271.186 107.107 C 271.403 107.166,271.430 107.134,271.266 107.015 C 271.130 106.916,270.964 106.638,270.898 106.397 C 270.803 106.052,270.786 106.072,270.818 106.489 M136.003 106.780 C 136.334 107.203,136.807 107.280,137.013 106.946 C 137.090 106.822,137.001 106.786,136.805 106.861 C 136.616 106.934,136.291 106.859,136.083 106.695 C 135.739 106.425,135.731 106.433,136.003 106.780 M122.859 109.092 C 122.652 109.175,123.158 109.242,123.986 109.241 C 124.813 109.240,125.376 109.168,125.238 109.079 C 124.927 108.881,123.371 108.889,122.859 109.092 M127.392 112.521 C 127.392 113.159,127.464 113.568,127.553 113.429 C 127.641 113.290,127.713 112.881,127.713 112.521 C 127.713 112.160,127.641 111.751,127.553 111.612 C 127.464 111.473,127.392 111.882,127.392 112.521 M119.983 112.092 C 119.908 112.287,119.855 112.611,119.866 112.812 C 119.876 113.012,119.971 112.886,120.077 112.531 C 120.283 111.841,120.210 111.500,119.983 112.092 M125.380 113.286 C 125.380 113.948,125.421 114.218,125.471 113.887 C 125.521 113.557,125.521 113.015,125.471 112.685 C 125.421 112.354,125.380 112.624,125.380 113.286 M96.446 113.515 C 96.207 113.677,96.295 113.697,96.774 113.590 C 97.578 113.410,97.753 113.285,97.193 113.289 C 96.963 113.291,96.627 113.393,96.446 113.515 M114.926 114.379 C 115.519 114.981,116.052 115.473,116.113 115.473 C 116.173 115.473,115.737 114.981,115.145 114.379 C 114.553 113.778,114.019 113.286,113.958 113.286 C 113.898 113.286,114.334 113.778,114.926 114.379 M113.458 114.270 C 113.582 114.511,113.963 114.953,114.305 115.253 L 114.926 115.799 114.272 115.035 C 113.235 113.823,113.221 113.810,113.458 114.270 M102.361 114.806 C 102.187 114.916,101.744 114.964,101.377 114.912 L 100.711 114.816 101.345 115.025 C 101.917 115.213,102.788 115.017,102.788 114.700 C 102.788 114.559,102.727 114.575,102.361 114.806 M109.131 116.129 L 103.554 116.250 109.063 116.299 C 112.554 116.330,114.622 116.268,114.707 116.129 C 114.782 116.009,114.812 115.932,114.775 115.959 C 114.738 115.986,112.198 116.063,109.131 116.129 M113.965 119.089 C 113.591 119.514,113.286 119.928,113.286 120.008 C 113.286 120.088,113.361 120.060,113.452 119.945 C 113.543 119.831,113.906 119.418,114.258 119.027 C 114.610 118.636,114.841 118.316,114.771 118.316 C 114.701 118.316,114.338 118.664,113.965 119.089 M123.278 119.148 C 122.425 120.038,122.481 120.070,124.822 120.020 L 126.955 119.975 124.899 119.902 L 122.843 119.830 123.464 119.182 C 123.805 118.826,124.035 118.535,123.975 118.535 C 123.915 118.535,123.601 118.811,123.278 119.148 M127.485 119.355 L 126.955 119.956 127.611 119.410 C 127.972 119.109,128.308 118.838,128.358 118.808 C 128.408 118.778,128.351 118.753,128.232 118.753 C 128.113 118.753,127.776 119.024,127.485 119.355 M96.020 119.943 C 95.876 120.116,95.544 120.300,95.282 120.351 C 94.819 120.441,94.819 120.444,95.264 120.473 C 95.516 120.490,95.900 120.306,96.118 120.066 C 96.336 119.825,96.462 119.628,96.397 119.628 C 96.333 119.628,96.163 119.770,96.020 119.943 M120.186 120.928 C 119.975 121.161,119.854 121.481,119.917 121.639 C 120.005 121.859,120.035 121.853,120.048 121.614 C 120.058 121.443,120.228 121.123,120.428 120.903 C 120.627 120.683,120.740 120.503,120.680 120.503 C 120.620 120.503,120.398 120.694,120.186 120.928 M98.940 121.761 C 99.389 122.291,99.861 122.377,100.383 122.024 C 100.625 121.860,100.552 121.839,100.101 121.944 C 99.668 122.045,99.350 121.967,99.007 121.677 L 98.524 121.268 98.940 121.761 M94.184 122.089 C 94.239 122.179,94.519 122.253,94.806 122.253 C 95.092 122.253,95.372 122.179,95.428 122.089 C 95.484 121.998,95.204 121.925,94.806 121.925 C 94.408 121.925,94.128 121.998,94.184 122.089 " stroke="none" fill="#9f9f9f" fill-rule="evenodd"></path><path id="path3" d="M96.761 93.712 C 96.761 97.201,96.792 98.597,96.828 96.815 C 96.865 95.034,96.865 92.180,96.828 90.473 C 96.791 88.767,96.761 90.224,96.761 93.712 M241.530 91.416 C 241.530 93.160,241.564 93.874,241.606 93.002 C 241.647 92.130,241.647 90.703,241.606 89.831 C 241.564 88.958,241.530 89.672,241.530 91.416 M243.499 91.416 C 243.499 93.160,243.533 93.874,243.574 93.002 C 243.616 92.130,243.616 90.703,243.574 89.831 C 243.533 88.958,243.499 89.672,243.499 91.416 M250.242 95.790 C 250.242 96.211,250.287 96.383,250.342 96.173 C 250.397 95.962,250.397 95.618,250.342 95.407 C 250.287 95.197,250.242 95.369,250.242 95.790 M241.530 100.164 C 241.530 101.908,241.564 102.622,241.606 101.750 C 241.647 100.878,241.647 99.451,241.606 98.578 C 241.564 97.706,241.530 98.420,241.530 100.164 M243.498 100.055 C 243.498 101.739,243.533 102.399,243.574 101.521 C 243.616 100.644,243.616 99.266,243.574 98.460 C 243.532 97.653,243.498 98.371,243.498 100.055 M106.354 117.823 C 107.654 117.862,109.720 117.862,110.947 117.823 C 112.173 117.784,111.110 117.752,108.584 117.752 C 106.058 117.753,105.055 117.785,106.354 117.823 M113.559 117.811 C 113.770 117.866,114.114 117.866,114.325 117.811 C 114.535 117.756,114.363 117.711,113.942 117.711 C 113.521 117.711,113.349 117.756,113.559 117.811 M123.510 120.226 C 124.021 120.272,124.858 120.272,125.369 120.226 C 125.880 120.180,125.462 120.142,124.440 120.142 C 123.417 120.142,122.999 120.180,123.510 120.226 " stroke="none" fill="#848484" fill-rule="evenodd"></path><path id="path4" d="M224.604 80.768 C 224.604 80.806,224.923 81.126,225.314 81.479 L 226.025 82.121 225.383 81.411 C 224.784 80.748,224.604 80.599,224.604 80.768 M225.978 83.652 C 225.980 84.254,226.022 84.474,226.073 84.141 C 226.123 83.809,226.122 83.317,226.070 83.048 C 226.018 82.779,225.977 83.051,225.978 83.652 M218.844 83.362 C 218.701 83.910,218.831 84.206,219.204 84.182 C 219.392 84.169,219.388 84.134,219.191 84.054 C 219.022 83.986,218.969 83.742,219.051 83.415 C 219.124 83.125,219.135 82.887,219.076 82.887 C 219.017 82.887,218.913 83.101,218.844 83.362 M104.234 84.597 C 104.174 84.695,104.414 84.733,104.768 84.681 C 105.123 84.629,105.413 84.549,105.413 84.502 C 105.413 84.336,104.343 84.421,104.234 84.597 M198.417 84.793 C 198.750 84.844,199.242 84.842,199.511 84.790 C 199.780 84.738,199.508 84.697,198.907 84.699 C 198.305 84.701,198.085 84.743,198.417 84.793 M266.102 84.794 L 266.594 84.884 266.594 90.556 C 266.594 93.675,266.668 96.228,266.758 96.228 C 266.848 96.228,266.873 93.644,266.812 90.487 L 266.703 84.746 266.156 84.725 C 265.681 84.706,265.674 84.715,266.102 84.794 M135.921 86.123 C 135.320 86.771,134.739 87.465,134.631 87.664 C 134.524 87.863,134.479 87.977,134.533 87.917 C 134.587 87.857,135.208 87.192,135.913 86.439 C 136.617 85.686,137.153 85.042,137.104 85.008 C 137.055 84.973,136.523 85.475,135.921 86.123 M143.521 85.017 C 144.333 85.059,145.662 85.059,146.473 85.017 C 147.285 84.975,146.621 84.941,144.997 84.941 C 143.373 84.941,142.709 84.975,143.521 85.017 M273.811 86.714 C 274.219 87.135,274.602 87.479,274.662 87.479 C 274.722 87.479,274.438 87.135,274.030 86.714 C 273.621 86.293,273.238 85.949,273.178 85.949 C 273.118 85.949,273.403 86.293,273.811 86.714 M142.126 87.425 C 141.862 87.762,141.867 87.776,142.168 87.541 C 142.379 87.377,143.505 87.249,145.120 87.206 L 147.731 87.136 145.079 87.089 C 142.778 87.048,142.387 87.093,142.126 87.425 M241.803 88.085 C 241.746 88.177,242.084 88.216,242.555 88.171 C 243.026 88.126,243.412 88.051,243.412 88.003 C 243.412 87.840,241.907 87.917,241.803 88.085 M264.188 88.136 C 263.977 88.272,263.956 88.349,264.128 88.351 C 264.328 88.353,264.413 89.375,264.462 92.346 L 264.527 96.337 264.576 92.127 C 264.603 89.811,264.601 87.918,264.571 87.920 C 264.541 87.922,264.369 88.019,264.188 88.136 M222.355 89.618 C 220.629 91.363,220.664 91.425,223.346 91.370 L 225.588 91.325 223.455 91.253 C 220.947 91.169,220.980 91.229,222.574 89.618 C 223.262 88.923,223.775 88.354,223.715 88.354 C 223.655 88.354,223.043 88.923,222.355 89.618 M141.595 89.326 C 141.828 89.513,142.172 89.659,142.360 89.649 C 142.655 89.634,142.656 89.615,142.373 89.510 C 142.192 89.443,141.848 89.298,141.607 89.187 C 141.177 88.989,141.177 88.992,141.595 89.326 M106.382 95.681 C 106.382 98.568,106.413 99.718,106.451 98.238 C 106.489 96.757,106.489 94.396,106.451 92.989 C 106.413 91.583,106.382 92.794,106.382 95.681 M112.884 91.130 C 112.847 91.865,113.146 92.257,113.414 91.823 C 113.509 91.669,113.478 91.626,113.334 91.714 C 113.186 91.806,113.062 91.592,113.007 91.147 L 112.919 90.432 112.884 91.130 M211.184 91.307 C 211.689 92.170,211.700 92.183,211.700 91.914 C 211.700 91.787,211.498 91.451,211.250 91.167 L 210.800 90.651 211.184 91.307 M159.093 91.908 L 158.229 92.838 159.209 91.963 C 159.749 91.482,160.233 91.063,160.285 91.033 C 160.337 91.003,160.284 90.979,160.168 90.979 C 160.052 90.979,159.569 91.397,159.093 91.908 M199.344 91.781 C 198.863 92.213,198.666 92.464,198.907 92.339 C 199.312 92.129,200.520 90.967,200.311 90.988 C 200.260 90.993,199.825 91.350,199.344 91.781 M219.354 91.745 C 218.848 92.267,218.683 92.582,218.836 92.734 C 219.183 93.081,226.192 92.916,226.264 92.559 C 226.295 92.405,226.270 92.381,226.209 92.504 C 226.084 92.757,218.917 92.827,218.917 92.575 C 218.917 92.490,219.232 92.097,219.616 91.700 C 220.001 91.303,220.266 90.979,220.206 90.979 C 220.146 90.979,219.763 91.323,219.354 91.745 M108.967 91.635 C 109.017 91.820,109.334 91.978,109.694 91.998 C 110.245 92.027,110.258 92.017,109.787 91.921 C 109.486 91.860,109.159 91.696,109.059 91.558 C 108.939 91.390,108.908 91.415,108.967 91.635 M201.001 91.682 C 200.992 91.888,201.206 92.164,201.476 92.295 C 201.894 92.498,201.916 92.490,201.621 92.248 C 201.430 92.091,201.216 91.815,201.146 91.635 C 201.043 91.369,201.015 91.378,201.001 91.682 M139.913 91.789 C 140.183 91.841,140.626 91.841,140.897 91.789 C 141.167 91.737,140.946 91.694,140.405 91.694 C 139.863 91.694,139.642 91.737,139.913 91.789 M147.402 92.455 C 147.688 92.846,147.957 93.166,147.999 93.166 C 148.165 93.166,147.622 92.345,147.264 92.054 C 147.027 91.862,147.080 92.015,147.402 92.455 M277.122 92.510 C 277.122 92.690,277.207 93.034,277.310 93.275 C 277.428 93.551,277.498 93.591,277.498 93.384 C 277.498 93.204,277.413 92.859,277.310 92.619 C 277.192 92.343,277.122 92.303,277.122 92.510 M110.662 96.726 C 110.662 99.995,110.599 100.821,110.316 101.264 L 109.970 101.804 110.425 101.288 C 110.855 100.801,111.181 92.728,110.771 92.728 C 110.711 92.728,110.662 94.527,110.662 96.726 M275.174 93.384 C 275.174 93.805,275.219 93.978,275.274 93.767 C 275.329 93.557,275.329 93.212,275.274 93.002 C 275.219 92.791,275.174 92.963,275.174 93.384 M103.972 96.774 C 103.972 98.939,104.005 99.795,104.045 98.677 C 104.085 97.558,104.085 95.787,104.045 94.740 C 104.005 93.694,103.972 94.609,103.972 96.774 M119.943 93.448 C 119.884 93.604,119.863 95.252,119.896 97.111 L 119.958 100.492 120.066 96.829 C 120.173 93.229,120.160 92.883,119.943 93.448 M144.560 93.234 C 144.560 93.272,144.880 93.592,145.271 93.945 L 145.981 94.587 145.339 93.876 C 144.740 93.214,144.560 93.065,144.560 93.234 M196.665 93.384 C 196.714 93.565,196.992 93.731,197.283 93.753 C 197.701 93.785,197.721 93.768,197.376 93.673 C 197.135 93.607,196.857 93.441,196.758 93.304 C 196.638 93.140,196.607 93.168,196.665 93.384 M130.395 94.040 C 130.395 94.461,130.440 94.634,130.495 94.423 C 130.550 94.213,130.550 93.868,130.495 93.658 C 130.440 93.447,130.395 93.619,130.395 94.040 M112.937 96.993 C 112.937 98.917,112.971 99.675,113.011 98.677 C 113.052 97.679,113.052 96.105,113.011 95.178 C 112.970 94.252,112.937 95.068,112.937 96.993 M132.611 95.681 C 132.612 96.884,132.649 97.348,132.693 96.712 C 132.737 96.077,132.737 95.093,132.692 94.525 C 132.647 93.958,132.611 94.478,132.611 95.681 M117.749 97.321 C 117.749 99.306,117.782 100.118,117.823 99.125 C 117.863 98.133,117.863 96.509,117.823 95.517 C 117.782 94.524,117.749 95.336,117.749 97.321 M126.933 97.540 C 126.933 99.404,126.967 100.167,127.008 99.235 C 127.049 98.302,127.049 96.777,127.008 95.845 C 126.967 94.913,126.933 95.675,126.933 97.540 M238.163 94.688 L 234.773 94.806 234.773 95.681 L 234.773 96.555 238.044 96.616 C 240.312 96.658,241.374 96.759,241.506 96.944 C 241.642 97.137,241.670 97.120,241.606 96.884 C 241.533 96.614,240.928 96.545,238.200 96.495 L 234.882 96.435 234.882 95.675 L 234.882 94.915 238.150 94.915 C 240.092 94.915,241.472 94.827,241.553 94.697 C 241.627 94.576,241.658 94.499,241.620 94.524 C 241.583 94.549,240.027 94.623,238.163 94.688 M243.586 94.740 C 243.671 94.824,245.187 94.922,246.955 94.958 C 248.724 94.995,250.102 94.956,250.017 94.872 C 249.933 94.788,248.416 94.690,246.648 94.653 C 244.879 94.617,243.501 94.656,243.586 94.740 M170.452 95.006 C 170.387 95.176,170.366 95.595,170.405 95.936 L 170.476 96.555 177.802 96.555 L 185.128 96.555 185.157 95.790 L 185.186 95.025 185.088 95.735 L 184.991 96.446 177.788 96.446 L 170.585 96.446 170.585 95.684 L 170.585 94.921 177.857 94.860 L 185.128 94.800 177.850 94.748 C 171.741 94.705,170.552 94.746,170.452 95.006 M130.188 95.899 C 130.190 96.501,130.232 96.721,130.283 96.388 C 130.333 96.056,130.332 95.564,130.280 95.295 C 130.228 95.026,130.187 95.298,130.188 95.899 M277.584 95.681 C 277.586 96.162,277.631 96.333,277.683 96.061 C 277.736 95.789,277.734 95.395,277.679 95.186 C 277.624 94.977,277.581 95.200,277.584 95.681 M203.864 96.446 C 203.840 96.987,203.771 97.676,203.709 97.977 L 203.596 98.524 203.831 97.985 C 203.960 97.689,204.030 97.000,203.986 96.454 L 203.906 95.462 203.864 96.446 M146.591 97.212 C 146.592 97.813,146.635 98.033,146.685 97.701 C 146.735 97.368,146.734 96.876,146.682 96.607 C 146.630 96.338,146.589 96.610,146.591 97.212 M210.405 96.468 C 210.396 96.660,210.112 97.202,209.775 97.671 C 209.006 98.740,208.806 99.071,208.927 99.071 C 209.182 99.071,210.640 96.663,210.539 96.409 C 210.455 96.200,210.418 96.216,210.405 96.468 M257.249 97.102 C 257.249 97.644,257.292 97.865,257.344 97.594 C 257.396 97.324,257.396 96.881,257.344 96.610 C 257.292 96.340,257.249 96.561,257.249 97.102 M243.557 96.592 C 243.477 96.672,243.413 96.844,243.415 96.975 C 243.417 97.120,243.484 97.108,243.588 96.944 C 243.706 96.758,244.754 96.657,247.029 96.610 L 250.301 96.543 247.002 96.495 C 245.188 96.468,243.638 96.512,243.557 96.592 M148.303 97.795 C 148.289 97.996,148.221 98.340,148.152 98.561 C 148.033 98.940,148.039 98.941,148.276 98.572 C 148.413 98.357,148.481 98.013,148.427 97.806 C 148.338 97.468,148.326 97.466,148.303 97.795 M157.931 97.758 C 157.931 97.939,158.016 98.283,158.119 98.524 C 158.238 98.799,158.307 98.840,158.307 98.633 C 158.307 98.453,158.223 98.108,158.119 97.868 C 158.001 97.592,157.931 97.552,157.931 97.758 M275.174 98.414 C 275.174 98.835,275.219 99.008,275.274 98.797 C 275.329 98.587,275.329 98.242,275.274 98.032 C 275.219 97.821,275.174 97.993,275.174 98.414 M264.358 99.344 C 264.468 101.812,264.555 102.057,264.590 100.000 C 264.610 98.887,264.552 97.977,264.461 97.977 C 264.371 97.976,264.325 98.592,264.358 99.344 M266.687 98.268 C 266.626 98.428,266.605 99.436,266.641 100.509 L 266.707 102.460 266.814 100.218 C 266.921 97.994,266.902 97.707,266.687 98.268 M277.216 98.758 C 277.136 99.079,277.112 99.383,277.164 99.435 C 277.215 99.486,277.323 99.266,277.404 98.946 C 277.484 98.625,277.508 98.321,277.456 98.269 C 277.405 98.218,277.297 98.438,277.216 98.758 M201.476 99.344 C 201.241 99.987,201.247 100.014,201.537 99.630 C 201.816 99.263,201.980 98.633,201.798 98.633 C 201.764 98.633,201.619 98.953,201.476 99.344 M96.690 100.328 C 96.676 100.599,96.468 101.017,96.227 101.258 C 95.987 101.498,95.886 101.695,96.004 101.695 C 96.351 101.695,96.928 100.656,96.818 100.229 C 96.737 99.920,96.710 99.941,96.690 100.328 M145.093 100.656 L 144.451 101.367 145.161 100.725 C 145.552 100.371,145.872 100.051,145.872 100.014 C 145.872 99.845,145.692 99.994,145.093 100.656 M158.570 100.192 C 158.553 100.642,159.109 101.116,159.479 100.967 C 159.652 100.898,159.611 100.848,159.370 100.837 C 159.155 100.828,158.891 100.599,158.782 100.328 C 158.648 99.995,158.580 99.951,158.570 100.192 M214.872 100.383 C 214.384 100.922,213.985 100.940,213.667 100.437 C 213.526 100.215,213.458 100.186,213.505 100.367 C 213.691 101.091,214.297 101.166,214.919 100.544 C 215.248 100.215,215.461 99.945,215.393 99.945 C 215.324 99.945,215.089 100.142,214.872 100.383 M152.856 100.510 C 152.690 100.709,152.358 100.815,152.070 100.760 C 151.796 100.708,151.624 100.749,151.687 100.852 C 151.892 101.183,152.573 101.051,152.980 100.601 C 153.197 100.361,153.323 100.164,153.259 100.164 C 153.195 100.164,153.014 100.320,152.856 100.510 M194.123 100.337 C 194.065 100.432,194.354 100.471,194.767 100.422 C 195.179 100.374,195.517 100.296,195.517 100.249 C 195.517 100.085,194.229 100.166,194.123 100.337 M99.088 100.622 C 99.078 100.814,99.292 101.159,99.563 101.388 C 100.050 101.801,100.052 101.801,99.700 101.367 C 99.506 101.126,99.292 100.782,99.226 100.601 C 99.123 100.323,99.102 100.326,99.088 100.622 M204.732 101.487 C 204.702 102.050,205.044 102.570,205.444 102.570 C 205.563 102.570,205.501 102.447,205.306 102.296 C 205.111 102.146,204.909 101.777,204.857 101.476 L 204.762 100.929 204.732 101.487 M143.357 101.476 C 142.752 101.630,142.743 101.645,143.248 101.666 C 143.548 101.678,143.942 101.593,144.122 101.476 C 144.495 101.236,144.302 101.236,143.357 101.476 M141.826 102.570 L 140.295 102.711 141.717 102.734 C 142.499 102.747,143.335 102.673,143.576 102.570 C 144.054 102.364,144.052 102.364,141.826 102.570 M195.132 102.607 C 195.283 102.703,196.047 102.772,196.829 102.760 C 198.462 102.734,198.210 102.632,196.226 102.514 C 195.473 102.469,194.981 102.511,195.132 102.607 M275.341 103.062 C 275.019 103.502,274.966 103.654,275.203 103.462 C 275.561 103.171,276.103 102.351,275.937 102.351 C 275.896 102.351,275.627 102.671,275.341 103.062 M133.844 104.866 C 134.497 105.528,135.081 106.069,135.141 106.069 C 135.201 106.069,134.716 105.528,134.062 104.866 C 133.409 104.204,132.825 103.663,132.765 103.663 C 132.705 103.663,133.190 104.204,133.844 104.866 M134.672 103.991 C 134.796 104.232,135.177 104.674,135.518 104.975 L 136.140 105.521 135.486 104.756 C 134.449 103.544,134.434 103.531,134.672 103.991 M273.769 104.871 C 273.205 105.410,272.815 105.850,272.903 105.850 C 272.991 105.850,273.498 105.407,274.030 104.866 C 275.275 103.597,275.100 103.601,273.769 104.871 M123.510 109.285 C 123.781 109.337,124.224 109.337,124.494 109.285 C 124.765 109.233,124.543 109.190,124.002 109.190 C 123.461 109.190,123.239 109.233,123.510 109.285 M127.333 112.411 C 127.333 112.832,127.378 113.004,127.433 112.794 C 127.488 112.583,127.488 112.239,127.433 112.028 C 127.378 111.818,127.333 111.990,127.333 112.411 M98.647 114.558 C 98.626 115.002,99.055 115.692,99.352 115.688 C 99.557 115.686,99.558 115.647,99.355 115.518 C 99.210 115.426,98.995 115.108,98.877 114.811 C 98.758 114.513,98.655 114.400,98.647 114.558 M125.191 116.840 L 124.549 117.551 125.260 116.908 C 125.922 116.309,126.071 116.129,125.902 116.129 C 125.864 116.129,125.545 116.449,125.191 116.840 M122.570 118.589 L 121.706 119.519 122.635 118.654 C 123.147 118.179,123.565 117.761,123.565 117.725 C 123.565 117.559,123.374 117.725,122.570 118.589 M122.923 119.285 C 122.649 119.577,122.476 119.946,122.540 120.105 C 122.630 120.329,122.659 120.323,122.673 120.080 C 122.682 119.907,122.904 119.538,123.166 119.260 C 123.427 118.981,123.592 118.753,123.532 118.753 C 123.472 118.753,123.198 118.992,122.923 119.285 M97.410 119.464 L 96.993 119.956 97.498 119.528 C 97.930 119.162,98.033 119.146,98.206 119.418 C 98.374 119.684,98.408 119.674,98.411 119.355 C 98.416 118.822,97.906 118.877,97.410 119.464 M96.250 119.863 C 95.800 120.472,95.668 120.524,94.842 120.418 L 93.931 120.301 94.762 120.536 C 95.641 120.784,96.193 120.509,96.693 119.576 C 97.010 118.982,96.801 119.119,96.250 119.863 M113.384 120.085 C 113.143 120.473,113.672 120.861,113.997 120.534 C 114.216 120.313,114.187 120.290,113.849 120.419 C 113.515 120.546,113.458 120.504,113.569 120.213 C 113.727 119.802,113.609 119.720,113.384 120.085 M120.328 120.984 C 119.587 121.725,119.984 121.816,123.729 121.766 L 127.392 121.717 123.838 121.652 C 120.359 121.587,120.014 121.517,120.547 120.984 C 120.691 120.840,120.760 120.722,120.700 120.722 C 120.640 120.722,120.472 120.840,120.328 120.984 " stroke="none" fill="#7c7c7c" fill-rule="evenodd"></path></g></svg>