<svg id="svg" version="1.1" xmlns="http://www.w3.org/2000/svg" xmlns:xlink="http://www.w3.org/1999/xlink" width="400" height="191.19496855345912" viewBox="0, 0, 400,191.19496855345912"><g id="svgg"><path id="path0" d="M163.384 59.990 C 161.063 62.215,156.979 67.923,156.979 68.942 C 156.979 68.972,156.691 69.627,156.339 70.397 C 155.411 72.427,154.495 75.190,153.847 77.916 C 153.307 80.187,153.156 81.004,152.947 82.792 C 152.830 83.791,152.695 84.671,152.648 84.748 C 152.402 85.151,152.578 94.748,152.867 96.685 C 154.303 106.320,157.854 114.167,163.321 119.790 L 164.623 121.128 164.625 120.440 C 164.626 120.009,164.476 119.581,164.222 119.293 C 163.695 118.695,161.206 114.999,161.043 114.573 C 160.974 114.393,160.652 113.772,160.326 113.193 C 159.293 111.357,157.807 107.546,157.008 104.685 C 156.421 102.581,155.942 99.886,155.460 95.975 C 155.198 93.848,155.200 86.406,155.463 84.321 C 155.932 80.611,156.244 78.451,156.404 77.820 C 156.498 77.452,156.714 76.525,156.886 75.761 C 157.275 74.025,158.392 70.595,159.003 69.258 C 159.257 68.703,159.465 68.185,159.465 68.108 C 159.465 67.965,159.748 67.408,160.945 65.201 C 161.535 64.115,163.035 61.944,164.263 60.402 C 165.281 59.123,164.615 58.811,163.384 59.990 M230.210 59.521 C 230.210 60.088,230.405 60.487,231.140 61.429 C 233.464 64.405,235.825 68.953,237.085 72.882 C 237.866 75.317,237.784 75.001,238.629 78.776 C 239.860 84.274,239.797 95.660,238.502 101.721 C 238.334 102.510,238.120 103.542,238.027 104.015 C 237.934 104.489,237.781 105.091,237.687 105.354 C 237.593 105.617,237.371 106.348,237.194 106.979 C 237.018 107.610,236.804 108.298,236.720 108.509 C 236.635 108.719,236.433 109.235,236.270 109.656 C 235.547 111.526,235.222 112.253,234.349 113.958 C 233.396 115.819,232.237 117.576,230.924 119.150 C 230.367 119.817,230.198 120.176,230.246 120.584 C 230.404 121.916,235.357 115.921,237.354 111.982 C 238.323 110.071,239.197 108.106,239.197 107.840 C 239.197 107.732,239.281 107.494,239.383 107.311 C 239.784 106.597,240.591 103.809,241.306 100.669 C 243.379 91.566,242.254 78.852,238.691 71.128 C 236.589 66.570,234.668 63.635,231.644 60.358 L 230.210 58.805 230.210 59.521 M194.892 61.736 C 193.515 62.284,192.559 63.407,192.025 65.105 C 191.510 66.741,191.889 67.063,192.623 65.614 C 194.939 61.044,200.829 63.805,199.135 68.666 C 198.407 70.754,197.656 71.780,194.159 75.463 C 192.745 76.953,191.587 78.266,191.587 78.382 C 191.587 78.530,193.052 78.576,196.578 78.540 L 201.569 78.489 202.242 76.808 C 203.030 74.838,202.954 74.586,201.902 75.682 C 201.248 76.362,201.013 76.484,200.328 76.499 C 199.700 76.512,195.517 76.502,194.790 76.485 C 194.385 76.476,194.615 76.186,197.302 73.315 C 199.663 70.792,201.147 68.760,201.147 68.050 C 201.147 67.863,201.233 67.656,201.338 67.591 C 201.608 67.424,201.577 64.753,201.297 64.110 C 200.291 61.797,197.419 60.732,194.892 61.736 M116.360 79.653 C 114.319 80.199,114.043 80.401,115.105 80.570 C 116.436 80.783,116.472 81.002,116.405 88.410 C 116.342 95.446,116.301 95.679,115.096 95.920 C 114.786 95.982,114.532 96.151,114.532 96.295 C 114.532 96.507,115.094 96.558,117.400 96.558 C 119.822 96.558,120.268 96.514,120.268 96.272 C 120.268 96.103,120.090 95.982,119.837 95.979 C 118.616 95.961,118.652 96.206,118.547 87.340 C 118.486 82.208,118.382 79.270,118.260 79.241 C 118.155 79.216,117.300 79.401,116.360 79.653 M123.136 79.541 C 122.348 80.329,122.937 81.644,124.078 81.644 C 124.817 81.644,125.239 81.192,125.239 80.399 C 125.239 79.284,123.927 78.750,123.136 79.541 M135.230 84.891 C 134.765 84.963,133.991 85.314,133.420 85.712 C 132.351 86.457,132.131 86.408,132.125 85.421 C 132.122 84.903,131.471 84.654,131.097 85.028 C 131.023 85.102,130.441 85.338,129.803 85.554 C 128.589 85.965,128.328 86.284,129.178 86.321 C 130.131 86.363,130.210 86.726,130.210 91.024 C 130.210 95.396,130.059 95.985,128.938 95.985 C 128.639 95.985,128.488 96.075,128.537 96.224 C 128.667 96.614,133.843 96.666,133.843 96.277 C 133.843 96.098,133.670 95.985,133.395 95.985 C 132.400 95.985,132.314 95.619,132.314 91.403 L 132.314 87.521 132.825 87.082 C 135.671 84.635,136.902 85.967,136.902 91.490 C 136.902 95.677,136.826 95.985,135.788 95.985 C 135.543 95.985,135.373 96.104,135.373 96.277 C 135.373 96.666,140.740 96.615,140.870 96.224 C 140.920 96.074,140.766 95.985,140.456 95.985 C 139.229 95.985,138.925 94.755,139.037 90.243 C 139.108 87.388,139.149 87.283,140.535 86.447 C 141.326 85.971,141.883 85.938,142.633 86.326 C 144.416 87.248,144.367 95.985,142.578 95.985 C 142.401 95.985,142.256 96.116,142.256 96.277 C 142.256 96.666,147.433 96.614,147.562 96.224 C 147.614 96.068,147.441 95.985,147.063 95.985 C 145.992 95.985,145.889 95.585,145.889 91.437 C 145.889 87.256,145.681 86.193,144.705 85.371 C 143.587 84.431,141.433 84.699,139.834 85.978 C 138.992 86.651,138.627 86.771,138.617 86.377 C 138.590 85.376,136.901 84.635,135.230 84.891 M123.043 85.493 C 121.209 86.168,120.878 86.424,121.844 86.424 C 123.057 86.424,123.136 86.713,123.136 91.126 C 123.136 95.477,122.993 95.985,121.768 95.985 C 121.392 95.985,121.220 96.068,121.272 96.224 C 121.330 96.401,122.088 96.463,124.187 96.463 C 126.286 96.463,127.044 96.401,127.103 96.224 C 127.153 96.075,127.003 95.985,126.710 95.985 C 125.386 95.985,125.341 95.802,125.271 90.074 C 125.197 84.120,125.437 84.613,123.043 85.493 M168.260 89.866 L 168.260 90.631 197.520 90.631 C 229.466 90.631,227.166 90.713,226.881 89.579 L 226.761 89.101 197.511 89.101 L 168.260 89.101 168.260 89.866 M218.012 100.802 C 216.962 102.306,215.191 104.818,214.075 106.383 C 212.165 109.062,212.046 109.284,212.046 110.160 L 212.046 111.090 215.467 111.090 C 219.448 111.090,219.120 110.874,219.120 113.496 L 219.120 115.296 220.070 115.296 L 221.020 115.296 221.074 113.241 L 221.128 111.185 222.323 111.129 L 223.518 111.072 223.518 110.325 L 223.518 109.578 222.323 109.522 L 221.128 109.465 221.033 103.824 L 220.937 98.184 220.428 98.125 C 219.969 98.072,219.732 98.335,218.012 100.802 M219.120 105.079 C 219.120 109.920,219.366 109.560,216.066 109.560 C 214.570 109.560,213.357 109.480,213.293 109.376 C 213.192 109.212,214.216 107.659,217.608 102.829 C 219.110 100.690,219.120 100.705,219.120 105.079 M141.297 103.605 C 140.644 103.953,139.409 105.629,139.637 105.858 C 139.701 105.922,140.105 105.629,140.534 105.208 C 140.964 104.787,141.570 104.392,141.881 104.329 C 144.706 103.764,145.312 107.141,142.639 108.551 C 141.386 109.212,141.298 109.368,142.170 109.378 C 144.980 109.412,146.133 112.593,143.988 114.397 C 143.219 115.044,142.522 115.055,141.414 114.436 C 140.423 113.883,139.919 113.835,139.566 114.261 C 138.543 115.493,142.375 115.971,144.455 114.871 C 146.678 113.695,147.105 110.452,145.261 108.747 L 144.485 108.029 144.878 107.600 C 147.236 105.020,144.458 101.922,141.297 103.605 M173.184 104.545 C 172.567 104.719,172.084 104.965,172.084 105.105 C 172.084 105.409,172.234 105.415,173.023 105.140 C 173.747 104.888,174.451 105.384,174.637 106.277 C 174.695 106.558,174.892 107.494,175.074 108.356 L 175.404 109.925 174.320 111.521 C 173.724 112.398,172.993 113.350,172.694 113.636 L 172.152 114.156 171.272 113.830 C 170.015 113.364,169.278 114.154,170.029 115.162 C 170.847 116.260,172.105 115.613,174.016 113.111 C 175.580 111.063,175.714 111.012,176.040 112.348 C 176.166 112.866,176.352 113.618,176.454 114.020 C 177.060 116.411,178.926 116.031,180.733 113.149 C 181.054 112.637,181.053 112.620,180.686 112.620 C 180.477 112.620,180.306 112.693,180.306 112.782 C 180.306 113.062,179.170 114.149,178.877 114.149 C 178.401 114.149,177.247 110.465,177.247 108.945 C 177.247 107.539,179.564 105.071,180.244 105.751 C 180.772 106.279,181.549 105.871,181.549 105.067 C 181.549 103.462,179.696 103.980,178.107 106.029 C 177.055 107.386,176.828 107.457,176.651 106.485 C 176.229 104.174,175.648 103.849,173.184 104.545 M116.635 107.455 C 116.372 107.543,115.920 107.667,115.631 107.731 C 114.906 107.891,114.969 108.189,115.721 108.154 C 117.102 108.091,117.771 110.999,116.714 112.475 C 115.409 114.297,115.317 114.367,114.416 114.232 C 113.533 114.099,113.091 114.617,113.583 115.210 C 114.168 115.915,115.203 115.351,116.468 113.638 C 117.405 112.370,117.597 112.409,117.999 113.949 C 118.522 115.948,119.715 116.068,120.847 114.235 C 121.387 113.362,121.196 113.160,120.553 113.924 C 119.747 114.883,119.493 114.592,118.847 111.965 L 118.521 110.642 119.260 109.575 C 119.971 108.551,120.031 108.511,120.779 108.557 C 121.839 108.623,122.274 108.150,121.631 107.630 C 121.023 107.138,118.951 108.363,118.932 109.226 C 118.923 109.669,118.164 109.326,118.164 108.878 C 118.164 108.346,117.850 107.636,117.514 107.412 C 117.268 107.247,117.257 107.248,116.635 107.455 M133.011 107.397 C 132.777 107.631,132.889 107.850,133.674 108.701 C 135.002 110.142,135.031 110.134,128.782 110.134 L 123.327 110.134 123.327 110.705 L 123.327 111.275 128.822 111.326 C 134.889 111.382,134.915 111.388,133.920 112.524 C 132.317 114.354,132.675 114.820,134.392 113.138 C 135.089 112.455,136.025 111.671,136.472 111.395 C 137.485 110.771,137.483 110.737,136.388 110.045 C 135.895 109.734,134.961 108.983,134.313 108.377 C 133.664 107.770,133.078 107.329,133.011 107.397 M190.325 108.299 C 190.267 108.449,190.248 108.816,190.282 109.114 L 190.344 109.656 197.382 109.706 L 204.420 109.756 204.361 108.941 L 204.302 108.126 197.366 108.076 C 191.499 108.034,190.413 108.068,190.325 108.299 " stroke="none" fill="#0b0b0b" fill-rule="evenodd"></path><path id="path1" d="M0.000 95.602 L 0.000 191.205 200.000 191.205 L 400.000 191.205 400.000 95.602 L 400.000 0.000 200.000 0.000 L 0.000 0.000 0.000 95.602 M164.972 59.313 C 165.019 59.866,164.896 60.150,164.303 60.850 C 161.857 63.739,160.288 66.505,158.799 70.554 C 158.509 71.343,158.207 72.161,158.127 72.371 C 157.986 72.745,157.521 74.386,157.180 75.717 C 157.021 76.336,156.631 78.287,156.206 80.593 C 154.934 87.485,155.471 98.189,157.438 105.163 C 157.601 105.741,157.792 106.429,157.862 106.692 C 157.933 106.955,158.052 107.256,158.127 107.361 C 158.203 107.467,158.324 107.799,158.396 108.099 C 158.879 110.118,163.418 118.401,164.435 119.120 C 164.956 119.489,165.211 121.077,164.791 121.336 C 164.608 121.449,162.233 119.169,161.464 118.144 C 161.355 117.997,160.882 117.361,160.413 116.730 C 159.944 116.099,159.453 115.469,159.321 115.331 C 159.190 115.192,159.082 114.955,159.082 114.805 C 159.082 114.654,159.016 114.532,158.934 114.532 C 158.853 114.532,158.617 114.209,158.411 113.815 C 158.204 113.420,157.979 113.054,157.911 113.002 C 157.641 112.792,155.440 108.004,154.966 106.597 C 154.789 106.071,154.576 105.468,154.492 105.258 C 154.111 104.298,153.922 103.659,153.755 102.772 C 153.656 102.247,153.444 101.343,153.284 100.765 C 152.407 97.591,151.953 89.560,152.398 85.086 C 152.714 81.908,153.263 78.534,153.557 77.966 C 153.651 77.784,153.728 77.471,153.728 77.271 C 153.728 76.869,154.247 75.032,154.498 74.546 C 154.586 74.374,154.717 73.922,154.789 73.540 C 154.860 73.157,154.995 72.798,155.089 72.740 C 155.182 72.682,155.258 72.508,155.258 72.352 C 155.258 72.088,155.782 70.874,156.899 68.547 C 158.438 65.343,160.319 62.677,162.779 60.217 C 164.627 58.369,164.882 58.264,164.972 59.313 M231.686 59.990 C 234.405 62.814,238.432 68.894,238.432 70.177 C 238.432 70.280,238.497 70.364,238.576 70.364 C 238.654 70.364,238.876 70.773,239.067 71.272 C 239.259 71.771,239.484 72.312,239.569 72.473 C 239.653 72.634,239.787 73.061,239.866 73.423 C 239.945 73.784,240.075 74.211,240.155 74.372 C 240.513 75.097,240.713 75.670,240.827 76.291 C 240.949 76.958,241.118 77.604,241.503 78.869 C 241.712 79.557,241.869 80.614,242.368 84.704 C 242.584 86.480,242.633 88.149,242.556 91.205 C 242.436 95.979,242.375 96.527,241.359 102.008 C 241.300 102.323,241.188 102.667,241.110 102.772 C 241.032 102.878,240.907 103.308,240.834 103.728 C 240.760 104.149,240.582 104.837,240.438 105.258 C 239.602 107.702,239.117 108.967,238.524 110.251 C 238.158 111.043,237.859 111.771,237.859 111.869 C 237.859 111.966,237.791 112.046,237.709 112.046 C 237.627 112.046,237.459 112.283,237.337 112.572 C 236.878 113.651,235.120 116.363,234.024 117.681 C 232.793 119.163,230.465 121.415,230.164 121.415 C 229.527 121.415,229.733 120.097,230.508 119.216 C 230.879 118.795,231.587 117.849,232.082 117.113 C 232.577 116.377,233.026 115.731,233.078 115.679 C 233.772 114.985,236.192 109.387,237.004 106.597 C 237.188 105.966,237.406 105.277,237.488 105.067 C 237.570 104.857,237.682 104.383,237.738 104.015 C 237.793 103.647,237.980 102.744,238.152 102.008 C 239.385 96.748,239.547 83.805,238.437 79.350 C 238.345 78.982,238.125 77.949,237.948 77.055 C 237.772 76.162,237.562 75.258,237.483 75.048 C 237.403 74.837,237.186 74.149,237.000 73.518 C 236.813 72.887,236.543 72.100,236.399 71.768 C 236.255 71.437,236.138 71.117,236.138 71.057 C 236.138 70.067,232.464 63.509,230.567 61.113 C 229.997 60.393,229.828 60.010,229.828 59.440 C 229.828 58.360,230.230 58.480,231.686 59.990 M199.344 61.661 C 202.362 63.266,202.671 67.798,199.962 70.747 C 199.720 71.011,199.231 71.570,198.876 71.990 C 198.520 72.410,197.509 73.500,196.629 74.413 C 195.749 75.325,195.029 76.121,195.029 76.181 C 195.029 76.241,196.356 76.291,197.978 76.291 L 200.927 76.291 201.515 75.702 C 201.839 75.379,202.103 75.035,202.103 74.937 C 202.103 74.690,203.009 74.716,203.165 74.969 C 203.236 75.083,203.198 75.272,203.081 75.390 C 202.964 75.507,202.868 75.723,202.868 75.870 C 202.868 76.123,202.779 76.354,202.020 78.062 L 201.700 78.782 196.598 78.732 C 191.194 78.678,190.792 78.599,191.621 77.755 C 192.894 76.458,196.621 72.440,196.969 71.989 C 197.213 71.673,197.478 71.386,197.559 71.351 C 197.639 71.316,197.706 71.207,197.706 71.108 C 197.706 71.010,197.901 70.608,198.140 70.216 C 199.601 67.820,199.338 64.791,197.598 63.965 C 195.724 63.076,193.628 63.909,192.822 65.864 C 192.518 66.600,192.384 66.730,191.930 66.730 C 191.202 66.730,191.300 65.822,192.252 63.767 C 193.310 61.483,196.967 60.397,199.344 61.661 M118.588 78.824 C 118.610 78.850,118.675 82.553,118.731 87.053 C 118.843 95.967,118.774 95.475,119.950 95.730 C 120.568 95.864,120.835 96.324,120.439 96.575 C 120.140 96.764,114.924 96.815,114.452 96.633 C 113.885 96.416,114.101 95.845,114.799 95.714 C 115.976 95.493,115.960 95.586,116.023 88.610 C 116.090 81.163,116.067 80.998,114.967 80.917 C 113.830 80.833,113.773 79.732,114.906 79.732 C 115.256 79.732,116.982 79.254,117.686 78.961 C 118.070 78.802,118.511 78.735,118.588 78.824 M124.726 78.999 C 126.244 79.807,125.744 81.836,124.026 81.836 C 122.987 81.836,122.562 81.415,122.562 80.388 C 122.562 79.146,123.668 78.436,124.726 78.999 M125.621 89.930 C 125.726 95.741,125.737 95.793,126.890 95.793 C 127.480 95.793,127.668 96.178,127.233 96.496 C 126.541 97.002,121.144 96.764,121.067 96.224 C 121.017 95.872,121.097 95.793,121.506 95.793 C 122.773 95.793,122.945 95.246,122.945 91.201 C 122.945 87.022,122.888 86.807,121.791 86.807 C 120.645 86.807,120.682 86.022,121.845 85.656 C 122.292 85.516,122.744 85.353,122.849 85.294 C 123.362 85.007,124.804 84.560,125.143 84.582 C 125.514 84.607,125.529 84.778,125.621 89.930 M132.469 85.326 L 132.528 86.044 133.138 85.588 C 135.147 84.084,137.199 84.115,138.506 85.669 L 139.008 86.265 139.589 85.776 C 141.098 84.506,143.352 84.128,144.557 84.943 C 145.899 85.850,146.143 86.778,146.230 91.300 C 146.312 95.612,146.357 95.793,147.339 95.793 C 147.826 95.793,148.062 96.221,147.748 96.535 C 147.521 96.762,142.733 96.847,142.176 96.633 C 141.667 96.438,141.837 96.034,142.583 95.666 C 143.541 95.193,143.651 94.656,143.557 90.918 C 143.445 86.443,142.260 85.189,139.967 87.118 L 139.388 87.606 139.388 91.281 C 139.388 95.323,139.519 95.793,140.644 95.793 C 141.189 95.793,141.489 96.321,141.089 96.575 C 140.741 96.795,135.549 96.795,135.202 96.575 C 134.850 96.352,135.075 95.793,135.516 95.793 C 136.622 95.793,136.711 95.484,136.711 91.640 C 136.711 87.597,136.514 86.729,135.547 86.516 C 134.788 86.350,133.592 86.728,132.997 87.322 L 132.483 87.837 132.542 91.544 C 132.606 95.574,132.669 95.793,133.773 95.793 C 134.360 95.793,134.552 96.178,134.123 96.492 C 133.598 96.875,128.626 96.858,128.305 96.471 C 128.021 96.128,128.202 95.793,128.671 95.793 C 129.771 95.793,129.843 95.477,129.786 90.918 L 129.732 86.711 129.015 86.652 C 128.286 86.592,127.912 85.754,128.537 85.582 C 128.669 85.546,129.422 85.300,130.210 85.036 C 132.137 84.390,132.394 84.423,132.469 85.326 M227.113 89.914 L 227.055 90.918 197.726 90.966 C 176.208 91.002,168.327 90.957,168.137 90.799 C 167.872 90.580,167.774 89.269,168.005 89.038 C 168.075 88.967,181.416 88.910,197.652 88.910 L 227.171 88.910 227.113 89.914 M221.224 103.537 L 221.319 109.082 222.562 109.178 L 223.805 109.273 223.864 110.211 C 223.937 111.348,223.793 111.465,222.323 111.469 L 221.224 111.472 221.224 113.480 L 221.224 115.488 219.981 115.488 L 218.738 115.488 218.738 113.480 L 218.738 111.472 215.440 111.469 C 211.563 111.466,211.584 111.473,211.699 110.107 C 211.779 109.160,211.952 108.850,213.979 106.023 C 215.186 104.340,216.765 102.103,217.488 101.052 C 218.211 100.000,218.855 99.097,218.918 99.044 C 218.982 98.991,219.187 98.707,219.375 98.412 C 219.664 97.958,219.826 97.884,220.423 97.934 L 221.128 97.992 221.224 103.537 M217.294 103.776 C 216.572 104.802,215.437 106.436,214.772 107.409 L 213.564 109.178 216.151 109.178 L 218.738 109.178 218.738 105.545 C 218.738 103.547,218.709 101.912,218.673 101.912 C 218.637 101.912,218.016 102.751,217.294 103.776 M144.874 103.388 C 146.346 104.352,146.509 106.217,145.244 107.621 L 144.837 108.072 145.289 108.376 C 147.381 109.781,147.034 113.815,144.717 115.021 C 142.143 116.360,139.081 116.058,139.233 114.479 C 139.316 113.618,140.501 113.499,141.666 114.234 C 143.522 115.406,145.651 113.162,144.629 111.112 C 144.229 110.312,143.620 109.933,142.308 109.670 C 140.889 109.386,140.851 109.104,142.151 108.489 C 143.455 107.871,144.029 107.130,144.029 106.066 C 144.029 104.199,141.852 104.029,140.375 105.780 C 139.954 106.278,139.197 106.511,139.197 106.142 C 139.197 105.297,140.755 103.331,141.560 103.161 C 141.785 103.113,142.141 103.035,142.352 102.986 C 142.972 102.844,144.388 103.069,144.874 103.388 M176.196 104.207 C 176.363 104.346,176.524 104.819,176.999 106.571 C 177.084 106.887,177.135 106.867,177.441 106.400 C 178.930 104.130,181.253 103.137,181.875 104.504 C 182.389 105.632,181.375 106.585,180.256 106.027 C 179.547 105.673,179.447 105.742,178.260 107.405 C 177.324 108.716,177.343 108.538,177.892 110.899 C 178.051 111.582,178.240 112.400,178.313 112.715 C 178.604 113.976,179.033 114.057,179.817 112.997 C 180.401 112.208,180.591 112.121,181.066 112.421 C 181.925 112.964,179.215 115.870,177.850 115.870 C 176.855 115.870,175.752 113.911,175.724 112.094 C 175.720 111.857,175.631 111.663,175.526 111.663 C 175.421 111.663,175.335 111.728,175.334 111.807 C 175.334 111.886,175.141 112.180,174.904 112.461 C 174.668 112.741,174.305 113.215,174.098 113.512 C 172.274 116.138,169.407 116.740,169.407 114.497 C 169.407 113.659,171.012 112.923,171.415 113.576 C 171.824 114.237,172.773 113.356,174.630 110.592 C 175.127 109.851,175.145 109.754,174.940 108.871 C 174.109 105.293,174.104 105.287,172.467 105.561 C 171.307 105.755,171.756 104.701,172.983 104.348 C 174.814 103.822,175.685 103.784,176.196 104.207 M134.778 108.420 C 135.263 108.897,136.111 109.573,136.663 109.922 C 137.828 110.658,137.905 110.957,137.046 111.400 C 136.141 111.866,135.231 112.589,134.209 113.651 C 132.686 115.235,132.045 114.311,133.479 112.598 L 134.261 111.663 128.818 111.663 C 122.878 111.663,122.854 111.659,122.979 110.576 L 123.040 110.038 128.394 109.990 C 134.759 109.932,134.494 109.989,133.483 108.893 C 132.698 108.041,132.451 107.195,132.935 107.020 C 133.197 106.925,133.462 107.126,134.778 108.420 M118.047 107.546 C 118.217 107.805,118.356 108.178,118.356 108.374 C 118.356 109.055,118.611 108.979,119.522 108.029 C 120.514 106.994,121.186 106.808,121.830 107.391 C 122.617 108.103,121.921 109.099,120.786 108.886 C 119.754 108.692,118.256 111.225,119.095 111.744 C 119.187 111.800,119.317 112.257,119.385 112.759 C 119.572 114.136,119.796 114.364,120.327 113.719 C 121.249 112.599,121.821 113.161,121.030 114.410 C 119.688 116.525,118.055 116.211,117.663 113.761 C 117.509 112.798,117.412 112.809,116.647 113.874 C 115.367 115.657,114.549 116.148,113.656 115.671 C 112.582 115.096,113.300 113.526,114.439 113.959 C 115.084 114.204,115.120 114.178,116.157 112.725 L 117.023 111.512 116.793 110.174 C 116.510 108.524,116.210 108.037,115.682 108.367 C 115.232 108.648,114.683 108.474,114.761 108.075 C 114.935 107.195,117.542 106.776,118.047 107.546 M204.745 108.788 C 204.842 110.148,205.026 110.114,197.486 110.129 C 189.873 110.145,190.057 110.178,190.057 108.786 L 190.057 107.835 197.371 107.885 L 204.685 107.935 204.745 108.788 " stroke="none" fill="#fbfbfb" fill-rule="evenodd"></path><path id="path2" d="M132.393 91.300 C 132.393 93.298,132.422 94.090,132.456 93.059 C 132.491 92.028,132.491 90.393,132.456 89.426 C 132.421 88.459,132.393 89.302,132.393 91.300 M239.433 88.337 C 239.433 88.705,239.472 88.855,239.520 88.671 C 239.568 88.487,239.568 88.186,239.520 88.002 C 239.472 87.818,239.433 87.968,239.433 88.337 M123.022 91.109 C 123.022 92.792,123.051 93.454,123.087 92.582 C 123.122 91.709,123.122 90.332,123.087 89.522 C 123.051 88.712,123.022 89.426,123.022 91.109 M145.966 91.396 C 145.966 93.026,145.995 93.693,146.031 92.878 C 146.067 92.063,146.067 90.729,146.031 89.914 C 145.995 89.099,145.966 89.766,145.966 91.396 M155.329 90.631 C 155.329 91.735,155.360 92.187,155.399 91.635 C 155.438 91.083,155.438 90.179,155.399 89.627 C 155.360 89.075,155.329 89.527,155.329 90.631 M143.671 91.587 C 143.671 93.112,143.700 93.736,143.737 92.973 C 143.773 92.211,143.773 90.963,143.737 90.201 C 143.700 89.438,143.671 90.062,143.671 91.587 M182.935 89.054 C 190.954 89.081,204.075 89.081,212.094 89.054 C 220.112 89.026,213.552 89.003,197.514 89.003 C 181.477 89.003,174.916 89.026,182.935 89.054 M152.251 89.866 C 152.251 90.339,152.288 90.533,152.334 90.296 C 152.379 90.060,152.379 89.673,152.334 89.436 C 152.288 89.199,152.251 89.393,152.251 89.866 M168.232 90.679 C 168.311 90.759,181.450 90.802,197.429 90.775 L 226.482 90.727 197.285 90.631 C 181.227 90.578,168.153 90.600,168.232 90.679 M221.117 103.728 C 221.117 106.778,221.143 107.999,221.176 106.441 C 221.208 104.884,221.208 102.389,221.175 100.897 C 221.143 99.404,221.117 100.679,221.117 103.728 M193.117 107.976 C 199.145 108.110,204.545 108.113,204.464 107.983 C 204.415 107.904,201.304 107.858,197.551 107.881 C 193.798 107.904,191.802 107.946,193.117 107.976 M213.614 111.232 C 214.529 111.267,216.077 111.267,217.055 111.232 C 218.033 111.198,217.285 111.169,215.392 111.169 C 213.499 111.169,212.699 111.197,213.614 111.232 M221.944 111.228 C 222.288 111.271,222.804 111.270,223.091 111.226 C 223.379 111.183,223.098 111.148,222.467 111.149 C 221.836 111.150,221.600 111.186,221.944 111.228 M221.102 113.289 C 221.103 114.340,221.135 114.746,221.174 114.191 C 221.212 113.635,221.212 112.774,221.173 112.278 C 221.134 111.782,221.102 112.237,221.102 113.289 " stroke="none" fill="#848484" fill-rule="evenodd"></path><path id="path3" d="M229.902 58.973 C 229.845 59.123,229.836 59.445,229.882 59.690 C 229.949 60.037,229.973 60.001,229.993 59.528 C 230.007 59.195,230.127 58.879,230.258 58.826 C 230.445 58.751,230.444 58.727,230.252 58.715 C 230.117 58.707,229.960 58.823,229.902 58.973 M193.871 75.478 L 193.212 76.195 193.929 75.536 C 194.597 74.923,194.734 74.761,194.588 74.761 C 194.556 74.761,194.234 75.084,193.871 75.478 M114.579 80.820 C 114.763 80.868,115.065 80.868,115.249 80.820 C 115.433 80.772,115.282 80.733,114.914 80.733 C 114.546 80.733,114.395 80.772,114.579 80.820 M116.147 88.050 C 116.147 91.520,116.173 92.967,116.204 91.265 C 116.236 89.562,116.236 86.723,116.204 84.955 C 116.173 83.187,116.147 84.579,116.147 88.050 M135.612 84.644 C 135.796 84.692,136.097 84.692,136.281 84.644 C 136.465 84.596,136.315 84.557,135.946 84.557 C 135.578 84.557,135.428 84.596,135.612 84.644 M142.686 84.644 C 142.870 84.692,143.172 84.692,143.356 84.644 C 143.540 84.596,143.389 84.557,143.021 84.557 C 142.653 84.557,142.502 84.596,142.686 84.644 M239.241 85.660 C 239.241 86.028,239.281 86.178,239.329 85.994 C 239.377 85.810,239.377 85.509,239.329 85.325 C 239.281 85.141,239.241 85.292,239.241 85.660 M155.494 85.851 C 155.494 86.219,155.533 86.370,155.581 86.185 C 155.629 86.001,155.629 85.700,155.581 85.516 C 155.533 85.332,155.494 85.483,155.494 85.851 M139.276 91.013 C 139.276 92.854,139.304 93.607,139.339 92.686 C 139.374 91.766,139.374 90.261,139.339 89.340 C 139.304 88.420,139.276 89.173,139.276 91.013 M152.243 88.528 C 152.243 88.896,152.283 89.046,152.331 88.862 C 152.379 88.678,152.379 88.377,152.331 88.193 C 152.283 88.009,152.243 88.160,152.243 88.528 M136.789 91.683 C 136.789 93.365,136.818 94.028,136.854 93.155 C 136.889 92.283,136.889 90.906,136.853 90.096 C 136.817 89.286,136.788 90.000,136.789 91.683 M239.440 89.675 C 239.440 90.148,239.478 90.342,239.523 90.105 C 239.569 89.869,239.569 89.481,239.523 89.245 C 239.478 89.008,239.440 89.202,239.440 89.675 M227.004 89.866 C 227.004 90.234,227.044 90.385,227.092 90.201 C 227.140 90.017,227.140 89.716,227.092 89.532 C 227.044 89.348,227.004 89.498,227.004 89.866 M239.252 93.786 C 239.253 94.312,239.290 94.504,239.334 94.213 C 239.378 93.923,239.377 93.493,239.332 93.257 C 239.286 93.022,239.250 93.260,239.252 93.786 M152.442 94.646 C 152.442 95.120,152.479 95.313,152.525 95.076 C 152.571 94.840,152.571 94.453,152.525 94.216 C 152.479 93.979,152.442 94.173,152.442 94.646 M134.321 108.222 C 134.839 108.748,135.306 109.178,135.358 109.178 C 135.411 109.178,135.030 108.748,134.512 108.222 C 133.995 107.696,133.528 107.266,133.475 107.266 C 133.423 107.266,133.803 107.696,134.321 108.222 M223.705 110.364 C 223.654 110.859,223.683 111.193,223.770 111.106 C 223.856 111.020,223.897 110.615,223.862 110.207 L 223.797 109.465 223.705 110.364 M193.942 109.895 C 195.920 109.926,199.104 109.926,201.016 109.895 C 202.929 109.863,201.310 109.838,197.419 109.838 C 193.528 109.838,191.963 109.864,193.942 109.895 M125.968 110.086 C 127.473 110.118,129.882 110.118,131.321 110.086 C 132.761 110.053,131.530 110.027,128.585 110.027 C 125.641 110.027,124.463 110.053,125.968 110.086 M229.828 120.639 C 229.828 120.948,229.896 121.243,229.979 121.295 C 230.062 121.346,230.096 121.093,230.054 120.732 C 229.960 119.929,229.828 119.874,229.828 120.639 " stroke="none" fill="#a3a3a3" fill-rule="evenodd"></path><path id="path4" d="M164.612 59.512 C 164.555 59.923,164.584 60.158,164.681 60.061 C 164.773 59.969,164.817 59.647,164.780 59.345 C 164.717 58.839,164.703 58.852,164.612 59.512 M230.067 59.560 C 230.069 59.981,230.109 60.130,230.154 59.893 C 230.200 59.655,230.198 59.311,230.150 59.128 C 230.103 58.945,230.065 59.140,230.067 59.560 M232.114 60.851 C 232.907 61.695,233.078 61.847,233.078 61.703 C 233.078 61.673,232.670 61.264,232.170 60.795 L 231.262 59.943 232.114 60.851 M193.200 62.763 L 192.639 63.384 193.260 62.823 C 193.602 62.514,193.881 62.234,193.881 62.201 C 193.881 62.054,193.724 62.184,193.200 62.763 M201.574 65.774 C 201.574 66.142,201.613 66.293,201.661 66.109 C 201.710 65.925,201.710 65.624,201.661 65.440 C 201.613 65.256,201.574 65.406,201.574 65.774 M196.166 73.184 L 195.507 73.901 196.224 73.242 C 196.618 72.879,196.941 72.557,196.941 72.525 C 196.941 72.379,196.779 72.516,196.166 73.184 M196.558 74.092 C 196.094 74.565,195.757 74.952,195.809 74.952 C 195.862 74.952,196.285 74.565,196.750 74.092 C 197.214 73.619,197.551 73.231,197.498 73.231 C 197.446 73.231,197.023 73.619,196.558 74.092 M193.684 75.860 L 192.639 76.960 193.738 75.915 C 194.343 75.340,194.837 74.845,194.837 74.815 C 194.837 74.673,194.655 74.839,193.684 75.860 M117.686 79.157 C 117.380 79.287,117.427 79.312,117.925 79.287 C 118.267 79.269,118.546 79.190,118.546 79.111 C 118.547 78.929,118.178 78.948,117.686 79.157 M114.244 80.307 C 114.094 80.550,114.589 80.750,115.046 80.631 C 115.268 80.574,115.199 80.534,114.855 80.519 C 114.550 80.507,114.369 80.415,114.436 80.306 C 114.501 80.201,114.511 80.115,114.459 80.115 C 114.406 80.115,114.309 80.201,114.244 80.307 M155.876 81.071 C 155.876 81.439,155.915 81.589,155.964 81.405 C 156.012 81.221,156.012 80.920,155.964 80.736 C 155.915 80.552,155.876 80.703,155.876 81.071 M241.727 81.836 C 241.727 82.204,241.766 82.354,241.814 82.170 C 241.862 81.986,241.862 81.685,241.814 81.501 C 241.766 81.317,241.727 81.467,241.727 81.836 M116.338 88.050 C 116.338 91.520,116.364 92.967,116.395 91.265 C 116.427 89.562,116.427 86.723,116.396 84.955 C 116.364 83.187,116.338 84.579,116.338 88.050 M239.138 83.078 C 239.197 83.709,239.277 84.261,239.316 84.305 C 239.444 84.448,239.347 83.095,239.187 82.505 C 239.085 82.128,239.068 82.324,239.138 83.078 M152.821 82.887 C 152.823 83.308,152.862 83.457,152.908 83.220 C 152.953 82.982,152.952 82.638,152.904 82.455 C 152.856 82.272,152.819 82.467,152.821 82.887 M242.117 84.895 C 242.117 85.368,242.154 85.562,242.200 85.325 C 242.246 85.088,242.246 84.701,242.200 84.465 C 242.154 84.228,242.117 84.422,242.117 84.895 M124.997 84.859 C 125.170 84.969,125.246 86.240,125.287 89.684 L 125.342 94.359 125.386 89.532 C 125.427 85.043,125.407 84.704,125.096 84.707 C 124.861 84.709,124.831 84.754,124.997 84.859 M131.777 84.833 C 131.971 84.885,132.130 85.161,132.176 85.528 C 132.249 86.114,132.254 86.110,132.283 85.421 C 132.310 84.790,132.262 84.706,131.883 84.726 C 131.578 84.742,131.547 84.773,131.777 84.833 M155.327 86.998 C 155.327 87.997,155.359 88.406,155.399 87.906 C 155.438 87.407,155.438 86.589,155.399 86.090 C 155.359 85.590,155.327 85.999,155.327 86.998 M128.528 85.889 C 128.244 86.173,128.231 86.424,128.501 86.424 C 128.612 86.424,128.653 86.344,128.592 86.245 C 128.531 86.146,128.634 85.977,128.820 85.868 C 129.006 85.760,129.068 85.669,128.958 85.665 C 128.848 85.662,128.654 85.763,128.528 85.889 M139.475 86.055 C 139.406 86.168,139.164 86.335,138.938 86.426 C 138.658 86.539,138.625 86.595,138.833 86.604 C 139.000 86.610,139.293 86.444,139.484 86.233 C 139.674 86.023,139.779 85.851,139.716 85.851 C 139.653 85.851,139.545 85.943,139.475 86.055 M141.348 86.174 C 141.532 86.222,141.833 86.222,142.017 86.174 C 142.201 86.126,142.051 86.086,141.683 86.086 C 141.315 86.086,141.164 86.126,141.348 86.174 M152.458 87.859 C 152.457 88.805,152.490 89.216,152.530 88.772 C 152.570 88.329,152.570 87.554,152.531 87.052 C 152.491 86.549,152.459 86.912,152.458 87.859 M239.440 86.998 C 239.440 87.471,239.478 87.665,239.523 87.428 C 239.569 87.192,239.569 86.804,239.523 86.568 C 239.478 86.331,239.440 86.525,239.440 86.998 M242.314 87.189 C 242.314 87.768,242.349 88.004,242.393 87.715 C 242.437 87.426,242.437 86.953,242.393 86.663 C 242.349 86.374,242.314 86.611,242.314 87.189 M121.224 86.500 C 121.224 86.542,121.561 86.608,121.972 86.647 C 122.384 86.686,122.680 86.652,122.630 86.571 C 122.540 86.424,121.224 86.358,121.224 86.500 M129.766 86.616 C 129.853 86.773,129.970 88.752,130.026 91.013 L 130.129 95.124 130.170 91.098 C 130.204 87.678,130.165 87.015,129.909 86.700 C 129.744 86.496,129.679 86.458,129.766 86.616 M143.585 88.198 C 143.678 88.986,143.682 88.990,143.747 88.360 C 143.784 88.005,143.741 87.641,143.652 87.552 C 143.563 87.463,143.533 87.754,143.585 88.198 M139.084 91.013 C 139.084 92.749,139.113 93.458,139.148 92.591 C 139.183 91.723,139.183 90.304,139.148 89.436 C 139.113 88.568,139.084 89.278,139.084 91.013 M168.113 89.866 C 168.113 90.234,168.153 90.385,168.201 90.201 C 168.249 90.017,168.249 89.716,168.201 89.532 C 168.153 89.348,168.113 89.498,168.113 89.866 M152.454 91.778 C 152.454 92.567,152.488 92.890,152.529 92.495 C 152.571 92.101,152.571 91.456,152.529 91.061 C 152.488 90.667,152.454 90.989,152.454 91.778 M239.445 92.161 C 239.445 92.739,239.481 92.976,239.525 92.686 C 239.569 92.397,239.569 91.924,239.525 91.635 C 239.481 91.346,239.445 91.582,239.445 92.161 M242.314 93.308 C 242.314 93.886,242.349 94.123,242.393 93.834 C 242.437 93.544,242.437 93.071,242.393 92.782 C 242.349 92.493,242.314 92.729,242.314 93.308 M155.321 93.786 C 155.322 94.522,155.356 94.800,155.398 94.403 C 155.439 94.006,155.438 93.404,155.396 93.065 C 155.354 92.725,155.320 93.050,155.321 93.786 M143.572 94.796 C 143.509 95.176,143.537 95.354,143.643 95.248 C 143.739 95.152,143.786 94.869,143.747 94.621 C 143.687 94.238,143.660 94.265,143.572 94.796 M145.909 94.652 C 145.887 95.186,146.362 95.985,146.701 95.985 C 146.821 95.985,146.765 95.873,146.579 95.736 C 146.392 95.600,146.169 95.191,146.084 94.828 C 145.956 94.284,145.925 94.253,145.909 94.652 M242.109 95.029 C 242.109 95.397,242.149 95.547,242.197 95.363 C 242.245 95.179,242.245 94.878,242.197 94.694 C 242.149 94.510,242.109 94.661,242.109 95.029 M132.326 95.047 C 132.313 95.368,132.888 95.989,133.189 95.979 C 133.286 95.976,133.209 95.882,133.018 95.771 C 132.828 95.660,132.596 95.383,132.505 95.156 C 132.392 94.876,132.334 94.840,132.326 95.047 M136.384 95.545 C 136.151 95.787,136.030 95.985,136.115 95.985 C 136.301 95.985,136.997 95.241,136.885 95.161 C 136.842 95.130,136.616 95.303,136.384 95.545 M152.817 96.941 C 152.817 97.309,152.856 97.459,152.904 97.275 C 152.952 97.091,152.952 96.790,152.904 96.606 C 152.856 96.422,152.817 96.573,152.817 96.941 M153.182 99.618 C 153.182 99.775,153.256 100.076,153.346 100.287 C 153.450 100.528,153.510 100.563,153.510 100.382 C 153.510 100.225,153.436 99.924,153.346 99.713 C 153.243 99.472,153.182 99.437,153.182 99.618 M217.400 101.434 C 217.074 101.907,216.851 102.294,216.903 102.294 C 216.956 102.294,217.265 101.907,217.591 101.434 C 217.916 100.961,218.140 100.574,218.087 100.574 C 218.035 100.574,217.725 100.961,217.400 101.434 M218.686 101.493 C 218.855 101.601,218.937 102.684,218.977 105.362 L 219.034 109.082 219.077 105.210 C 219.117 101.633,219.095 101.339,218.786 101.341 C 218.552 101.343,218.522 101.389,218.686 101.493 M238.159 102.595 C 238.089 102.875,238.068 103.141,238.113 103.186 C 238.158 103.231,238.253 103.039,238.323 102.759 C 238.393 102.479,238.414 102.212,238.369 102.167 C 238.324 102.122,238.229 102.315,238.159 102.595 M142.689 103.196 C 142.980 103.240,143.410 103.239,143.645 103.194 C 143.880 103.148,143.642 103.113,143.117 103.114 C 142.591 103.115,142.398 103.153,142.689 103.196 M145.141 103.942 C 145.395 104.270,145.641 104.504,145.688 104.462 C 145.735 104.420,145.527 104.152,145.226 103.866 L 144.679 103.346 145.141 103.942 M174.715 104.151 C 174.953 104.196,175.297 104.195,175.480 104.147 C 175.663 104.099,175.468 104.061,175.048 104.064 C 174.627 104.066,174.478 104.105,174.715 104.151 M172.945 105.157 C 172.652 105.279,172.726 105.309,173.260 105.287 C 173.644 105.271,173.918 105.194,173.870 105.115 C 173.761 104.936,173.441 104.951,172.945 105.157 M140.079 105.652 C 140.010 105.834,139.838 105.921,139.673 105.858 C 139.516 105.797,139.388 105.831,139.388 105.933 C 139.388 106.035,139.507 106.119,139.652 106.119 C 139.949 106.119,140.452 105.589,140.299 105.436 C 140.245 105.382,140.146 105.479,140.079 105.652 M178.860 106.166 L 178.298 106.788 178.909 106.237 C 179.319 105.867,179.648 105.720,179.913 105.789 C 180.129 105.845,180.258 105.814,180.199 105.718 C 179.983 105.368,179.407 105.561,178.860 106.166 M116.157 107.457 C 115.916 107.561,115.880 107.621,116.061 107.621 C 116.219 107.621,116.520 107.547,116.730 107.457 C 116.971 107.353,117.007 107.293,116.826 107.293 C 116.668 107.293,116.367 107.367,116.157 107.457 M134.130 108.222 C 134.648 108.748,135.115 109.178,135.167 109.178 C 135.220 109.178,134.839 108.748,134.321 108.222 C 133.803 107.696,133.337 107.266,133.284 107.266 C 133.231 107.266,133.612 107.696,134.130 108.222 M204.388 108.848 C 204.481 109.636,204.485 109.640,204.550 109.010 C 204.587 108.655,204.544 108.292,204.455 108.202 C 204.366 108.113,204.336 108.404,204.388 108.848 M121.693 108.426 C 121.617 108.549,121.285 108.583,120.861 108.512 C 120.273 108.413,120.091 108.467,119.781 108.833 L 119.407 109.273 119.818 108.927 C 120.122 108.670,120.399 108.612,120.882 108.702 C 121.357 108.791,121.603 108.742,121.785 108.523 C 121.923 108.357,121.987 108.222,121.928 108.222 C 121.868 108.222,121.763 108.314,121.693 108.426 M133.725 108.927 C 134.067 109.306,134.231 109.654,134.157 109.846 C 134.088 110.025,134.118 110.105,134.228 110.037 C 134.568 109.827,134.427 109.450,133.795 108.879 L 133.174 108.317 133.725 108.927 M213.278 109.003 C 212.995 109.461,213.610 109.569,216.172 109.512 L 218.834 109.453 216.089 109.411 C 213.738 109.375,213.359 109.328,213.453 109.082 C 213.581 108.750,213.467 108.698,213.278 109.003 M211.932 109.252 C 211.876 109.397,211.859 109.892,211.895 110.351 C 211.956 111.159,211.961 111.150,212.050 110.086 C 212.143 108.970,212.115 108.774,211.932 109.252 M221.157 109.417 C 221.206 109.496,221.753 109.560,222.371 109.560 L 223.496 109.560 223.576 110.373 L 223.656 111.185 223.635 110.325 L 223.614 109.465 222.341 109.369 C 221.641 109.316,221.108 109.338,221.157 109.417 M142.081 109.437 C 142.125 109.475,142.462 109.561,142.830 109.628 C 143.301 109.714,143.414 109.695,143.212 109.563 C 142.953 109.393,141.891 109.275,142.081 109.437 M143.611 109.799 C 143.654 109.826,143.948 110.062,144.264 110.325 L 144.837 110.803 144.374 110.277 C 144.119 109.988,143.825 109.751,143.721 109.751 C 143.616 109.751,143.567 109.773,143.611 109.799 M118.732 110.336 C 118.617 110.552,118.550 110.814,118.585 110.918 C 118.620 111.021,118.747 110.845,118.868 110.525 C 119.119 109.859,119.044 109.754,118.732 110.336 M123.184 110.755 L 123.231 111.377 128.715 111.427 C 133.399 111.471,134.212 111.520,134.288 111.766 C 134.349 111.962,134.368 111.946,134.347 111.715 C 134.318 111.401,133.918 111.373,128.833 111.326 L 123.351 111.275 123.243 110.705 C 123.138 110.147,123.137 110.148,123.184 110.755 M136.979 110.404 C 137.296 110.659,137.308 110.739,137.074 111.036 C 136.831 111.346,136.837 111.353,137.141 111.114 C 137.587 110.765,137.563 110.572,137.046 110.321 C 136.638 110.124,136.635 110.128,136.979 110.404 M144.985 112.046 C 144.985 112.519,145.022 112.713,145.068 112.476 C 145.114 112.239,145.114 111.852,145.068 111.616 C 145.022 111.379,144.985 111.573,144.985 112.046 M219.000 113.384 C 219.000 114.489,219.032 114.940,219.070 114.388 C 219.109 113.836,219.109 112.933,219.070 112.380 C 219.032 111.828,219.000 112.280,219.000 113.384 M173.357 112.667 C 172.754 113.507,172.734 113.562,173.234 113.002 C 173.797 112.372,174.276 111.663,174.139 111.663 C 174.105 111.663,173.754 112.115,173.357 112.667 M134.506 113.050 L 133.365 114.245 134.560 113.103 C 135.670 112.043,135.843 111.855,135.701 111.855 C 135.672 111.855,135.134 112.392,134.506 113.050 M174.271 112.748 C 173.977 113.134,173.833 113.389,173.953 113.316 C 174.197 113.164,175.025 112.046,174.892 112.046 C 174.845 112.046,174.565 112.362,174.271 112.748 M139.555 114.101 C 139.327 114.392,139.330 114.407,139.579 114.218 C 139.737 114.097,140.038 113.957,140.249 113.905 C 140.612 113.816,140.611 113.810,140.224 113.789 C 140.000 113.777,139.699 113.917,139.555 114.101 M113.257 114.642 C 113.191 114.813,113.292 115.082,113.491 115.263 C 113.820 115.564,113.826 115.563,113.591 115.251 C 113.454 115.068,113.391 114.789,113.453 114.630 C 113.514 114.471,113.521 114.340,113.468 114.340 C 113.415 114.340,113.320 114.476,113.257 114.642 M115.484 114.823 C 115.234 115.088,114.768 115.381,114.446 115.475 C 113.969 115.613,113.941 115.647,114.295 115.662 C 114.542 115.671,115.035 115.394,115.443 115.015 C 115.835 114.650,116.107 114.348,116.047 114.346 C 115.986 114.343,115.733 114.557,115.484 114.823 M172.511 114.920 C 172.168 115.232,171.958 115.488,172.045 115.488 C 172.132 115.488,172.451 115.229,172.753 114.914 C 173.456 114.180,173.320 114.184,172.511 114.920 M142.402 114.858 C 142.640 114.904,142.984 114.902,143.167 114.854 C 143.349 114.806,143.155 114.769,142.734 114.771 C 142.314 114.773,142.164 114.812,142.402 114.858 M140.153 115.485 C 140.311 115.588,140.648 115.674,140.902 115.676 C 141.516 115.680,141.360 115.571,140.535 115.420 C 140.065 115.333,139.951 115.353,140.153 115.485 M219.745 115.434 C 220.035 115.478,220.465 115.476,220.701 115.431 C 220.936 115.386,220.698 115.350,220.172 115.351 C 219.646 115.352,219.454 115.390,219.745 115.434 M233.353 118.021 L 232.792 118.642 233.413 118.081 C 233.992 117.557,234.122 117.400,233.975 117.400 C 233.942 117.400,233.662 117.679,233.353 118.021 M232.015 119.551 L 231.453 120.172 232.075 119.610 C 232.654 119.087,232.784 118.929,232.636 118.929 C 232.603 118.929,232.324 119.209,232.015 119.551 M163.568 120.220 C 164.090 120.772,164.585 121.224,164.668 121.224 C 164.862 121.224,164.865 119.746,164.671 119.626 C 164.591 119.576,164.556 119.893,164.595 120.332 L 164.665 121.128 163.642 120.172 L 162.620 119.216 163.568 120.220 M230.336 119.661 C 230.011 120.020,229.891 121.224,230.181 121.224 C 230.270 121.224,230.506 121.030,230.707 120.793 L 231.071 120.363 230.641 120.728 L 230.210 121.092 230.210 120.551 C 230.210 120.254,230.353 119.854,230.527 119.661 C 230.701 119.469,230.800 119.312,230.748 119.312 C 230.695 119.312,230.510 119.469,230.336 119.661 " stroke="none" fill="#7c7c7c" fill-rule="evenodd"></path><path id="path5" d="M164.235 58.837 C 164.014 59.128,164.016 59.143,164.244 58.939 C 164.669 58.560,164.790 58.651,164.877 59.417 L 164.960 60.134 164.937 59.384 C 164.911 58.546,164.625 58.322,164.235 58.837 M195.367 63.618 C 195.710 63.661,196.227 63.660,196.514 63.617 C 196.801 63.573,196.520 63.538,195.889 63.539 C 195.258 63.540,195.023 63.576,195.367 63.618 M193.583 64.484 L 193.021 65.105 193.642 64.544 C 193.984 64.235,194.264 63.955,194.264 63.922 C 194.264 63.774,194.106 63.905,193.583 64.484 M197.412 73.470 L 196.463 74.474 197.467 73.525 C 198.019 73.003,198.470 72.552,198.470 72.522 C 198.470 72.379,198.293 72.538,197.412 73.470 M192.438 76.912 L 191.683 77.725 192.495 76.969 C 193.251 76.266,193.396 76.099,193.251 76.099 C 193.220 76.099,192.854 76.465,192.438 76.912 M195.005 76.344 C 195.088 76.426,196.310 76.469,197.721 76.439 L 200.287 76.385 197.571 76.290 C 196.077 76.238,194.923 76.262,195.005 76.344 M156.692 77.247 C 156.620 77.577,156.600 77.887,156.649 77.936 C 156.697 77.985,156.792 77.750,156.859 77.414 C 157.019 76.617,156.864 76.462,156.692 77.247 M197.419 78.585 L 193.021 78.692 197.360 78.734 C 200.092 78.761,201.742 78.706,201.816 78.585 C 201.881 78.480,201.908 78.413,201.876 78.436 C 201.843 78.460,199.837 78.527,197.419 78.585 M238.244 78.697 C 238.245 78.898,238.334 79.192,238.441 79.350 C 238.583 79.559,238.600 79.482,238.507 79.063 C 238.349 78.360,238.240 78.207,238.244 78.697 M191.826 78.717 C 192.010 78.765,192.311 78.765,192.495 78.717 C 192.679 78.669,192.529 78.629,192.161 78.629 C 191.793 78.629,191.642 78.669,191.826 78.717 M123.534 78.844 C 123.578 78.882,123.915 78.968,124.283 79.035 C 124.754 79.122,124.867 79.102,124.665 78.970 C 124.406 78.800,123.344 78.682,123.534 78.844 M118.634 86.902 C 118.634 91.214,118.659 93.005,118.690 90.883 C 118.721 88.760,118.721 85.233,118.690 83.043 C 118.659 80.854,118.634 82.591,118.634 86.902 M156.238 79.637 C 156.222 79.847,156.165 80.234,156.111 80.497 L 156.012 80.975 156.217 80.506 C 156.330 80.248,156.387 79.861,156.344 79.646 C 156.268 79.264,156.265 79.264,156.238 79.637 M125.335 80.402 C 125.335 80.855,125.399 81.186,125.478 81.137 C 125.557 81.088,125.621 80.757,125.621 80.402 C 125.621 80.046,125.557 79.715,125.478 79.666 C 125.399 79.618,125.335 79.948,125.335 80.402 M238.863 82.122 C 238.865 82.543,238.904 82.693,238.950 82.455 C 238.995 82.217,238.994 81.873,238.946 81.690 C 238.898 81.507,238.861 81.702,238.863 82.122 M241.997 82.600 C 242.148 83.425,242.257 83.581,242.253 82.967 C 242.252 82.713,242.166 82.376,242.062 82.218 C 241.930 82.016,241.911 82.130,241.997 82.600 M152.513 83.405 C 152.448 83.646,152.404 84.101,152.415 84.417 C 152.429 84.813,152.484 84.696,152.594 84.040 C 152.761 83.042,152.712 82.660,152.513 83.405 M155.695 84.226 C 155.697 84.751,155.734 84.944,155.778 84.653 C 155.822 84.363,155.821 83.932,155.775 83.697 C 155.730 83.462,155.694 83.700,155.695 84.226 M124.474 84.702 C 124.267 84.841,124.358 84.862,124.806 84.776 L 125.424 84.657 125.480 89.699 L 125.536 94.742 125.531 89.675 C 125.525 84.208,125.486 84.024,124.474 84.702 M132.291 85.128 C 132.379 85.659,132.406 85.686,132.466 85.303 C 132.505 85.054,132.458 84.772,132.362 84.676 C 132.256 84.569,132.228 84.748,132.291 85.128 M141.491 84.712 C 141.282 84.854,141.359 84.872,141.778 84.778 C 142.481 84.621,142.634 84.511,142.145 84.515 C 141.943 84.517,141.649 84.606,141.491 84.712 M139.330 85.953 C 139.035 86.212,138.869 86.424,138.962 86.424 C 139.054 86.424,139.332 86.209,139.579 85.946 C 140.151 85.338,140.024 85.341,139.330 85.953 M134.815 86.302 C 134.859 86.340,135.153 86.428,135.468 86.499 C 135.887 86.593,135.965 86.575,135.755 86.433 C 135.497 86.258,134.623 86.137,134.815 86.302 M141.316 86.301 C 141.360 86.339,141.697 86.425,142.065 86.492 C 142.536 86.579,142.649 86.559,142.447 86.427 C 142.188 86.257,141.126 86.139,141.316 86.301 M152.254 87.094 C 152.255 87.620,152.292 87.812,152.336 87.521 C 152.380 87.231,152.379 86.800,152.333 86.565 C 152.288 86.330,152.252 86.568,152.254 87.094 M239.276 89.579 C 239.276 91.472,239.305 92.221,239.340 91.243 C 239.374 90.265,239.374 88.716,239.339 87.801 C 239.304 86.886,239.276 87.686,239.276 89.579 M242.516 87.954 C 242.516 88.953,242.549 89.362,242.588 88.862 C 242.627 88.363,242.627 87.545,242.588 87.046 C 242.549 86.546,242.516 86.955,242.516 87.954 M128.537 86.556 C 128.721 86.604,129.022 86.604,129.207 86.556 C 129.391 86.508,129.240 86.469,128.872 86.469 C 128.504 86.469,128.353 86.508,128.537 86.556 M155.501 87.189 C 155.501 87.663,155.539 87.856,155.584 87.620 C 155.630 87.383,155.630 86.996,155.584 86.759 C 155.539 86.522,155.501 86.716,155.501 87.189 M121.989 86.751 C 122.251 86.797,122.574 86.973,122.706 87.144 C 122.837 87.314,122.945 87.368,122.945 87.264 C 122.945 86.914,122.490 86.615,121.998 86.642 L 121.511 86.668 121.989 86.751 M129.908 91.013 C 129.908 93.064,129.936 93.903,129.970 92.878 C 130.005 91.852,130.005 90.174,129.970 89.149 C 129.936 88.124,129.908 88.963,129.908 91.013 M146.159 91.683 C 146.158 93.470,146.187 94.227,146.222 93.365 C 146.258 92.503,146.258 91.040,146.223 90.115 C 146.188 89.189,146.159 89.895,146.159 91.683 M168.005 89.038 C 167.774 89.269,167.872 90.580,168.137 90.799 C 168.584 91.171,227.000 91.004,227.102 90.631 C 227.160 90.418,227.136 90.406,227.011 90.584 C 226.876 90.774,220.840 90.813,197.503 90.775 L 168.164 90.727 168.164 89.818 C 168.164 89.318,168.157 88.910,168.149 88.910 C 168.140 88.910,168.075 88.967,168.005 89.038 M242.518 92.352 C 242.518 93.456,242.550 93.908,242.588 93.356 C 242.627 92.804,242.627 91.900,242.588 91.348 C 242.550 90.796,242.518 91.248,242.518 92.352 M152.251 92.352 C 152.251 92.825,152.288 93.019,152.334 92.782 C 152.379 92.545,152.379 92.158,152.334 91.922 C 152.288 91.685,152.251 91.879,152.251 92.352 M155.695 96.080 C 155.697 96.606,155.734 96.799,155.778 96.508 C 155.822 96.217,155.821 95.787,155.775 95.552 C 155.730 95.317,155.694 95.554,155.695 96.080 M115.918 96.700 C 116.733 96.736,118.066 96.736,118.881 96.700 C 119.696 96.665,119.030 96.635,117.400 96.635 C 115.770 96.635,115.103 96.665,115.918 96.700 M122.610 96.700 C 123.425 96.736,124.759 96.736,125.574 96.700 C 126.389 96.665,125.722 96.635,124.092 96.635 C 122.462 96.635,121.795 96.665,122.610 96.700 M129.780 96.700 C 130.543 96.737,131.790 96.737,132.553 96.700 C 133.315 96.664,132.691 96.634,131.166 96.634 C 129.641 96.634,129.018 96.664,129.780 96.700 M136.768 96.701 C 137.588 96.737,138.878 96.736,139.636 96.700 C 140.394 96.664,139.723 96.635,138.145 96.635 C 136.568 96.635,135.948 96.665,136.768 96.701 M143.547 96.700 C 144.309 96.737,145.557 96.737,146.319 96.700 C 147.082 96.664,146.458 96.634,144.933 96.634 C 143.408 96.634,142.784 96.664,143.547 96.700 M238.863 97.419 C 238.865 97.839,238.904 97.989,238.950 97.751 C 238.995 97.513,238.994 97.169,238.946 96.986 C 238.898 96.803,238.861 96.998,238.863 97.419 M242.094 97.164 C 242.078 97.445,242.015 97.832,241.955 98.025 C 241.851 98.356,241.857 98.356,242.063 98.035 C 242.183 97.849,242.245 97.461,242.201 97.175 L 242.122 96.654 242.094 97.164 M219.478 98.231 C 219.250 98.523,219.253 98.537,219.504 98.343 C 219.662 98.220,220.092 98.083,220.460 98.039 L 221.128 97.958 220.435 97.927 C 219.974 97.907,219.653 98.009,219.478 98.231 M153.008 99.426 C 153.008 99.794,153.047 99.945,153.095 99.761 C 153.144 99.577,153.144 99.276,153.095 99.092 C 153.047 98.908,153.008 99.058,153.008 99.426 M156.140 99.904 C 156.297 100.607,156.406 100.760,156.402 100.271 C 156.401 100.069,156.312 99.775,156.205 99.618 C 156.064 99.408,156.046 99.485,156.140 99.904 M218.433 101.942 C 218.349 102.077,218.380 102.110,218.513 102.029 C 218.671 101.931,218.745 102.874,218.786 105.488 L 218.843 109.082 218.886 105.402 C 218.926 101.979,218.836 101.290,218.433 101.942 M156.599 102.406 C 156.601 102.608,156.690 102.902,156.796 103.059 C 156.938 103.269,156.956 103.191,156.862 102.772 C 156.705 102.069,156.596 101.917,156.599 102.406 M237.787 103.466 C 237.627 104.263,237.782 104.417,237.954 103.633 C 238.027 103.302,238.046 102.992,237.998 102.943 C 237.949 102.895,237.854 103.130,237.787 103.466 M153.923 103.553 C 153.924 103.755,154.013 104.049,154.120 104.207 C 154.261 104.416,154.279 104.339,154.185 103.920 C 154.028 103.217,153.919 103.064,153.923 103.553 M141.874 104.473 C 141.874 104.515,142.211 104.581,142.623 104.620 C 143.034 104.659,143.330 104.625,143.280 104.545 C 143.190 104.398,141.874 104.331,141.874 104.473 M145.886 105.506 L 145.979 106.597 146.041 105.662 C 146.075 105.147,146.034 104.657,145.948 104.571 C 145.863 104.486,145.835 104.906,145.886 105.506 M116.444 107.150 C 116.444 107.192,116.781 107.258,117.192 107.297 C 117.604 107.336,117.900 107.302,117.850 107.221 C 117.759 107.074,116.444 107.008,116.444 107.150 M120.388 107.226 C 120.337 107.309,120.590 107.343,120.950 107.300 C 121.311 107.258,121.606 107.190,121.606 107.149 C 121.606 107.005,120.481 107.076,120.388 107.226 M145.125 107.552 C 144.878 107.814,144.713 108.061,144.757 108.100 C 144.801 108.139,145.038 107.925,145.282 107.623 C 145.830 106.948,145.733 106.904,145.125 107.552 M190.080 108.736 C 190.067 109.282,190.123 109.770,190.204 109.820 C 190.285 109.870,190.324 109.552,190.290 109.114 C 190.191 107.827,190.103 107.671,190.080 108.736 M204.493 108.891 C 204.493 109.449,204.558 109.866,204.637 109.817 C 204.716 109.769,204.780 109.352,204.780 108.891 C 204.780 108.430,204.716 108.013,204.637 107.965 C 204.558 107.916,204.493 108.333,204.493 108.891 M133.461 108.891 C 133.818 109.259,134.152 109.560,134.205 109.560 C 134.258 109.560,134.009 109.259,133.652 108.891 C 133.295 108.523,132.960 108.222,132.908 108.222 C 132.855 108.222,133.104 108.523,133.461 108.891 M174.788 108.413 C 174.788 108.571,174.862 108.872,174.952 109.082 C 175.056 109.323,175.117 109.359,175.117 109.178 C 175.117 109.020,175.043 108.719,174.952 108.509 C 174.849 108.268,174.788 108.232,174.788 108.413 M221.376 109.210 C 221.450 109.280,222.044 109.366,222.697 109.401 C 223.349 109.436,223.822 109.407,223.748 109.337 C 223.674 109.267,223.080 109.181,222.428 109.146 C 221.775 109.111,221.302 109.140,221.376 109.210 M214.762 109.319 C 215.467 109.356,216.672 109.356,217.439 109.320 C 218.206 109.284,217.629 109.254,216.157 109.253 C 214.685 109.253,214.057 109.283,214.762 109.319 M211.721 110.325 C 211.721 110.903,211.757 111.140,211.800 110.851 C 211.844 110.562,211.844 110.088,211.800 109.799 C 211.757 109.510,211.721 109.747,211.721 110.325 M123.072 110.070 C 122.861 110.281,122.929 111.189,123.174 111.434 C 123.344 111.604,124.779 111.652,128.671 111.620 L 133.939 111.577 128.585 111.477 L 123.231 111.377 123.231 110.660 C 123.231 110.265,123.224 109.942,123.215 109.943 C 123.207 109.943,123.142 110.000,123.072 110.070 M193.821 110.086 C 195.629 110.117,198.640 110.117,200.513 110.086 C 202.387 110.054,200.908 110.029,197.228 110.029 C 193.547 110.029,192.014 110.054,193.821 110.086 M215.385 111.422 L 218.725 111.481 218.789 113.437 L 218.853 115.392 218.843 113.384 L 218.834 111.377 215.440 111.370 L 212.046 111.363 215.385 111.422 M221.750 111.419 C 222.091 111.462,222.651 111.462,222.992 111.419 C 223.334 111.377,223.054 111.342,222.371 111.342 C 221.687 111.342,221.408 111.377,221.750 111.419 M145.519 114.200 C 144.975 114.872,144.953 114.928,145.393 114.532 C 145.851 114.120,146.394 113.377,146.230 113.388 C 146.200 113.390,145.880 113.755,145.519 114.200 M169.705 113.809 C 169.378 114.276,169.315 114.834,169.571 114.992 C 169.661 115.048,169.695 114.890,169.648 114.640 C 169.592 114.347,169.703 114.044,169.962 113.785 C 170.183 113.565,170.282 113.384,170.183 113.384 C 170.084 113.384,169.869 113.576,169.705 113.809 M169.956 115.535 C 170.224 115.877,171.775 116.025,171.959 115.727 C 172.008 115.648,171.667 115.614,171.201 115.651 C 170.684 115.692,170.226 115.617,170.024 115.459 C 169.726 115.226,169.719 115.233,169.956 115.535 M113.739 115.727 C 113.835 115.824,114.117 115.870,114.366 115.831 C 114.749 115.771,114.722 115.744,114.191 115.656 C 113.811 115.593,113.633 115.621,113.739 115.727 M140.866 115.817 C 141.205 115.859,141.807 115.860,142.204 115.818 C 142.601 115.777,142.323 115.742,141.587 115.742 C 140.851 115.741,140.526 115.775,140.866 115.817 M177.583 115.814 C 177.821 115.860,178.166 115.858,178.348 115.810 C 178.531 115.762,178.337 115.725,177.916 115.727 C 177.495 115.729,177.346 115.768,177.583 115.814 M162.715 119.598 C 163.286 120.177,163.797 120.650,163.849 120.650 C 163.902 120.650,163.478 120.177,162.906 119.598 C 162.335 119.020,161.825 118.547,161.772 118.547 C 161.720 118.547,162.144 119.020,162.715 119.598 M231.925 119.837 L 230.880 120.937 231.979 119.892 C 233.000 118.921,233.166 118.738,233.024 118.738 C 232.994 118.738,232.499 119.233,231.925 119.837 M164.867 120.554 C 164.869 120.975,164.908 121.125,164.954 120.887 C 164.999 120.649,164.998 120.305,164.950 120.122 C 164.902 119.939,164.864 120.134,164.867 120.554 " stroke="none" fill="#bcbcbc" fill-rule="evenodd"></path></g></svg>