<svg id="svg" version="1.1" xmlns="http://www.w3.org/2000/svg" xmlns:xlink="http://www.w3.org/1999/xlink" width="400" height="225.13863216266174" viewBox="0, 0, 400,225.13863216266174"><g id="svgg"><path id="path0" d="M0.000 112.613 L 0.000 225.225 200.000 225.225 L 400.000 225.225 400.000 112.613 L 400.000 0.000 200.000 0.000 L 0.000 0.000 0.000 112.613 M130.180 98.071 C 130.180 108.458,130.263 108.978,131.926 109.002 C 132.282 109.007,132.432 109.144,132.432 109.465 C 132.432 110.024,125.016 110.074,124.831 109.516 C 124.779 109.361,124.923 109.176,125.150 109.105 C 125.377 109.034,125.894 108.833,126.298 108.657 L 127.033 108.338 126.973 99.946 L 126.914 91.554 125.945 91.484 C 124.570 91.385,124.379 90.090,125.740 90.090 C 126.261 90.090,128.542 89.462,129.054 89.178 C 130.219 88.531,130.180 88.225,130.180 98.071 M138.145 89.558 C 139.353 90.766,138.648 92.568,136.966 92.568 C 135.208 92.568,134.442 90.626,135.755 89.497 C 136.568 88.797,137.406 88.819,138.145 89.558 M187.838 89.324 C 187.838 89.691,187.367 90.879,186.820 91.892 C 186.520 92.446,186.466 92.456,183.370 92.517 C 180.003 92.584,179.976 92.594,179.552 93.852 C 179.346 94.466,179.367 94.589,179.689 94.673 C 179.897 94.727,180.574 94.899,181.194 95.054 C 181.813 95.210,182.416 95.423,182.534 95.529 C 182.651 95.634,182.896 95.721,183.076 95.721 C 183.601 95.721,185.647 97.375,186.316 98.340 C 188.168 101.013,187.940 105.254,185.811 107.729 C 182.951 111.055,175.225 111.489,175.225 108.324 C 175.225 106.441,177.027 106.271,179.369 107.935 C 183.226 110.674,186.669 103.905,183.298 100.210 C 183.008 99.891,182.618 99.561,182.432 99.476 C 182.247 99.390,181.774 99.126,181.382 98.887 C 180.627 98.428,178.343 97.805,177.029 97.699 C 176.008 97.616,175.951 97.244,176.708 95.582 C 177.040 94.853,177.653 93.497,178.071 92.568 C 179.467 89.466,178.961 89.769,182.970 89.640 C 185.333 89.564,186.557 89.436,186.746 89.245 C 187.144 88.846,187.838 88.896,187.838 89.324 M233.380 89.894 C 236.731 91.581,236.654 96.253,233.244 98.089 C 232.208 98.647,232.214 98.675,233.563 99.666 C 237.042 102.220,237.451 106.994,234.391 109.329 C 233.972 109.648,233.467 109.910,233.269 109.910 C 233.071 109.910,232.847 110.011,232.770 110.135 C 232.466 110.627,228.540 110.398,227.351 109.818 C 223.560 107.971,223.169 103.896,226.497 100.930 L 227.786 99.781 226.643 98.650 C 223.569 95.608,223.841 91.637,227.247 89.860 C 228.570 89.170,231.979 89.189,233.380 89.894 M173.874 89.842 C 173.874 90.076,173.544 90.558,173.140 90.913 C 172.737 91.267,172.053 92.012,171.620 92.569 C 171.187 93.126,170.783 93.632,170.721 93.694 C 170.659 93.756,170.420 94.212,170.189 94.707 C 169.958 95.203,169.685 95.776,169.581 95.981 C 169.416 96.307,169.131 98.266,168.819 101.227 C 168.382 105.358,169.950 110.346,172.519 113.005 C 173.909 114.442,174.138 114.940,173.522 115.177 C 172.952 115.396,172.130 114.886,170.158 113.089 C 168.715 111.775,166.667 108.586,166.667 107.655 C 166.667 107.458,166.570 107.200,166.451 107.081 C 165.028 105.658,165.495 98.826,167.255 95.332 C 168.932 92.000,173.874 87.902,173.874 89.842 M254.765 90.399 C 260.369 94.986,262.128 102.637,259.045 109.009 C 258.716 109.690,258.395 110.298,258.333 110.360 C 258.271 110.422,257.867 110.928,257.434 111.485 C 256.106 113.193,253.346 115.375,252.786 115.160 C 252.187 114.930,252.491 114.212,253.660 113.096 C 256.048 110.816,256.976 108.598,257.189 104.667 C 257.555 97.884,256.736 94.663,253.885 91.680 C 251.686 89.378,252.345 88.418,254.765 90.399 M228.738 91.110 C 226.682 92.182,227.086 95.015,229.563 96.903 C 230.557 97.661,230.736 97.667,231.647 96.972 C 234.900 94.491,232.299 89.252,228.738 91.110 M138.739 101.813 L 138.739 107.904 139.335 108.457 C 139.662 108.760,140.169 109.009,140.461 109.009 C 140.841 109.009,140.991 109.137,140.991 109.459 C 140.991 109.892,140.841 109.910,137.162 109.910 C 133.483 109.910,133.333 109.892,133.333 109.459 C 133.333 109.136,133.483 109.009,133.866 109.009 C 134.159 109.009,134.668 108.797,134.997 108.539 L 135.594 108.068 135.534 103.302 L 135.473 98.536 134.503 98.466 C 132.958 98.355,132.978 97.281,134.531 96.947 C 134.925 96.863,135.349 96.731,135.473 96.654 C 135.956 96.353,137.751 95.759,138.232 95.740 L 138.739 95.721 138.739 101.813 M146.432 96.115 C 146.452 96.332,146.453 96.686,146.435 96.903 C 146.392 97.419,146.399 97.417,147.760 96.571 C 149.961 95.203,152.958 95.543,153.713 97.247 C 153.976 97.839,154.129 97.866,154.592 97.402 C 156.045 95.950,159.337 95.238,160.592 96.106 C 162.309 97.293,162.434 97.751,162.595 103.455 C 162.746 108.809,162.801 109.009,164.120 109.009 C 164.492 109.009,164.640 109.139,164.640 109.465 C 164.640 109.906,164.525 109.919,161.111 109.859 C 157.304 109.792,156.620 109.556,158.294 108.886 C 159.428 108.432,159.455 108.319,159.447 104.054 C 159.436 98.342,158.899 97.282,156.445 98.125 C 154.773 98.698,154.730 98.841,154.730 103.742 C 154.730 108.503,154.874 109.009,156.236 109.009 C 156.607 109.009,156.757 109.139,156.757 109.459 C 156.757 109.891,156.607 109.910,153.153 109.910 C 149.700 109.910,149.550 109.891,149.550 109.459 C 149.550 109.147,149.700 109.009,150.039 109.009 C 151.253 109.009,151.351 108.626,151.351 103.921 C 151.351 98.178,151.055 97.537,148.690 98.169 C 146.643 98.717,146.622 98.773,146.622 103.755 C 146.622 108.538,146.753 109.009,148.086 109.009 C 148.498 109.009,148.649 109.129,148.649 109.459 C 148.649 109.891,148.498 109.910,145.045 109.910 C 141.592 109.910,141.441 109.891,141.441 109.459 C 141.441 109.145,141.594 109.007,141.948 109.002 C 143.263 108.983,143.349 108.693,143.430 104.007 C 143.526 98.485,143.483 98.246,142.391 98.155 C 141.285 98.063,141.031 97.172,142.046 96.949 C 142.395 96.872,142.832 96.750,143.018 96.679 C 143.204 96.607,143.812 96.371,144.369 96.154 C 145.719 95.629,146.387 95.617,146.432 96.115 M245.657 96.828 C 245.808 97.024,245.935 97.356,245.939 97.566 C 245.943 97.775,246.047 98.009,246.171 98.086 C 246.295 98.162,246.396 98.506,246.396 98.850 C 246.396 99.730,246.640 99.870,247.060 99.230 C 247.423 98.677,248.782 97.206,249.424 96.671 C 250.236 95.995,252.134 96.345,252.352 97.212 C 252.685 98.541,251.809 99.251,250.336 98.845 C 249.346 98.571,249.056 98.777,247.834 100.618 C 247.249 101.500,247.056 102.001,247.136 102.438 C 247.477 104.308,247.810 105.797,247.975 106.194 C 248.079 106.441,248.224 106.923,248.298 107.264 C 248.489 108.147,249.089 108.038,249.874 106.977 C 251.099 105.321,252.048 106.102,250.878 107.803 C 248.166 111.745,245.772 111.192,245.132 106.475 C 244.943 105.078,244.879 105.103,243.447 107.125 C 241.756 109.513,240.724 110.360,239.503 110.360 C 237.989 110.360,237.169 109.067,237.963 107.933 C 238.334 107.404,239.705 107.217,239.977 107.658 C 240.412 108.360,241.242 107.724,242.781 105.510 C 243.208 104.895,243.622 104.341,243.701 104.279 C 244.180 103.904,244.260 103.270,244.007 101.855 C 243.859 101.021,243.719 100.338,243.697 100.338 C 243.675 100.338,243.539 99.882,243.394 99.324 L 243.131 98.311 241.892 98.289 C 240.395 98.263,240.016 97.388,241.329 96.991 C 241.700 96.879,242.207 96.702,242.455 96.599 C 243.608 96.120,245.200 96.234,245.657 96.828 M214.824 102.019 C 214.940 103.646,215.171 103.604,206.083 103.604 C 197.222 103.604,197.523 103.655,197.523 102.132 C 197.523 100.821,197.010 100.890,206.290 100.955 L 214.752 101.014 214.824 102.019 M228.984 101.161 C 228.031 101.694,226.917 104.389,227.273 105.300 C 227.368 105.544,227.453 105.987,227.462 106.285 C 227.470 106.583,227.737 107.167,228.054 107.583 C 230.563 110.873,235.224 107.584,233.014 104.083 C 232.116 102.661,229.584 100.825,228.984 101.161 M160.329 117.868 C 160.496 118.069,160.598 120.365,160.638 124.794 L 160.698 131.419 161.484 131.532 C 161.996 131.605,162.296 131.782,162.345 132.038 C 162.414 132.399,162.143 132.432,159.138 132.432 C 157.333 132.432,155.856 132.351,155.856 132.252 C 155.856 131.905,156.401 131.532,156.909 131.532 C 157.940 131.532,158.108 130.665,158.108 125.362 C 158.108 120.043,158.135 120.140,156.707 120.243 C 155.248 120.349,155.674 119.728,157.827 118.610 C 160.070 117.445,159.996 117.466,160.329 117.868 M148.299 123.255 C 150.151 125.051,150.896 125.664,151.769 126.109 C 152.996 126.735,152.947 127.079,151.514 127.899 C 150.860 128.273,149.695 129.200,148.924 129.959 C 146.872 131.980,145.644 131.399,147.504 129.287 C 148.734 127.892,148.883 127.928,141.883 127.928 L 135.594 127.928 135.457 127.383 C 135.101 125.961,134.837 126.019,141.951 125.954 C 145.511 125.921,148.421 125.820,148.417 125.729 C 148.414 125.638,148.008 125.111,147.516 124.558 C 146.608 123.537,146.394 122.877,146.903 122.672 C 147.415 122.465,147.539 122.516,148.299 123.255 M130.134 123.752 C 130.526 124.953,130.469 124.952,131.589 123.782 C 132.932 122.381,134.685 122.303,134.685 123.645 C 134.685 124.481,134.207 124.828,133.178 124.737 C 132.384 124.667,132.278 124.734,131.622 125.711 L 130.918 126.759 131.216 128.188 C 131.723 130.620,131.801 130.856,132.095 130.856 C 132.252 130.856,132.547 130.602,132.750 130.293 C 133.168 129.654,134.009 129.527,134.009 130.103 C 134.009 130.308,133.733 130.840,133.395 131.285 C 131.456 133.844,129.838 133.283,129.240 129.846 C 129.178 129.489,128.944 129.681,128.087 130.795 C 126.498 132.861,125.516 133.346,124.493 132.569 C 123.587 131.881,124.483 130.113,125.470 130.641 C 126.953 131.435,129.178 127.791,128.394 125.855 C 128.279 125.571,128.123 125.051,128.047 124.700 C 127.918 124.101,127.859 124.071,127.048 124.208 C 125.638 124.446,125.721 123.266,127.140 122.905 C 128.695 122.509,129.833 122.831,130.134 123.752 " stroke="none" fill="#fbfbfb" fill-rule="evenodd"></path><path id="path1" d="M186.966 89.492 C 186.702 89.810,186.141 89.865,183.186 89.865 L 179.715 89.865 179.018 91.385 C 178.635 92.221,177.879 93.853,177.338 95.012 C 176.214 97.417,176.227 97.523,177.644 97.523 C 182.994 97.523,186.722 102.699,184.252 106.698 C 182.764 109.107,181.259 109.489,178.937 108.049 C 177.057 106.882,175.450 107.001,175.450 108.306 C 175.450 110.532,181.380 110.767,184.288 108.657 C 187.570 106.275,188.185 100.772,185.500 97.804 C 184.375 96.560,181.131 95.045,179.593 95.045 C 178.806 95.045,178.762 94.711,179.388 93.477 L 179.963 92.342 183.115 92.342 L 186.267 92.342 186.847 91.118 C 187.473 89.795,187.547 88.791,186.966 89.492 M128.266 89.786 C 127.646 89.969,126.798 90.205,126.380 90.312 C 125.183 90.617,125.083 90.911,126.119 91.076 C 127.491 91.296,127.502 91.375,127.429 100.387 L 127.365 108.359 126.802 108.792 C 126.492 109.030,126.011 109.226,125.732 109.229 C 125.453 109.232,125.225 109.336,125.225 109.459 C 125.225 109.600,126.539 109.685,128.716 109.685 C 130.893 109.685,132.207 109.600,132.207 109.459 C 132.207 109.336,131.979 109.231,131.700 109.227 C 131.095 109.219,130.575 108.851,130.217 108.179 C 130.030 107.828,129.955 105.065,129.955 98.551 C 129.955 91.381,129.894 89.419,129.673 89.435 C 129.519 89.446,128.885 89.604,128.266 89.786 M135.820 89.907 C 135.238 90.532,135.239 91.002,135.827 91.749 C 136.885 93.093,138.881 91.986,138.274 90.391 C 137.853 89.284,136.625 89.042,135.820 89.907 M172.050 90.339 C 168.194 93.062,165.991 97.369,165.991 102.184 C 165.991 103.984,166.071 104.493,166.725 106.869 C 167.646 110.214,171.927 115.315,173.353 114.767 C 173.647 114.654,173.466 114.367,172.454 113.338 C 167.092 107.891,166.913 97.125,172.091 91.580 C 173.456 90.119,173.728 89.640,173.194 89.640 C 173.110 89.640,172.595 89.955,172.050 90.339 M227.870 90.030 C 224.152 91.411,223.712 95.075,226.868 98.362 L 228.246 99.798 226.842 101.049 C 222.624 104.806,224.753 110.135,230.472 110.135 C 236.155 110.135,238.256 103.757,233.736 100.225 C 231.968 98.844,231.826 98.659,232.296 98.358 C 234.727 96.805,235.436 95.809,235.434 93.946 C 235.432 91.223,233.929 89.868,230.743 89.717 C 229.407 89.654,228.665 89.735,227.870 90.030 M252.703 89.841 C 252.703 89.952,253.336 90.688,254.110 91.477 C 256.881 94.299,257.542 96.396,257.542 102.365 C 257.542 108.368,257.027 110.017,254.242 112.923 C 251.727 115.547,252.727 115.542,255.679 112.915 C 259.904 109.157,261.472 101.754,259.115 96.700 C 258.933 96.310,258.784 95.928,258.784 95.851 C 258.784 95.631,257.636 93.906,256.763 92.812 C 255.294 90.972,252.703 89.076,252.703 89.841 M232.102 90.942 C 234.006 92.553,233.861 95.341,231.773 97.241 C 230.778 98.146,230.666 98.146,229.487 97.241 C 226.762 95.149,226.224 92.237,228.323 90.936 C 229.171 90.410,231.477 90.414,232.102 90.942 M143.863 96.678 C 141.948 97.317,141.366 97.744,142.399 97.751 C 143.705 97.760,143.919 98.531,143.919 103.226 C 143.919 108.197,143.625 109.207,142.173 109.227 C 141.895 109.231,141.667 109.336,141.667 109.459 C 141.667 109.599,142.905 109.685,144.932 109.685 C 146.959 109.685,148.198 109.599,148.198 109.459 C 148.198 109.336,147.961 109.234,147.670 109.234 C 146.496 109.234,146.396 108.809,146.396 103.775 L 146.396 99.139 147.030 98.606 C 148.570 97.310,150.299 97.265,151.216 98.496 C 151.661 99.094,151.689 99.407,151.689 103.835 C 151.689 108.971,151.627 109.208,150.282 109.227 C 150.003 109.231,149.775 109.336,149.775 109.459 C 149.775 109.599,151.014 109.685,153.041 109.685 C 155.068 109.685,156.306 109.599,156.306 109.459 C 156.306 109.336,156.115 109.234,155.881 109.234 C 154.559 109.234,154.398 108.712,154.317 104.165 C 154.233 99.374,154.313 99.020,155.685 98.130 C 156.747 97.441,157.600 97.365,158.579 97.871 C 160.471 98.849,160.207 109.234,158.291 109.234 C 158.066 109.234,157.883 109.336,157.883 109.459 C 157.883 109.599,159.122 109.685,161.149 109.685 C 163.176 109.685,164.414 109.599,164.414 109.459 C 164.414 109.336,164.113 109.234,163.744 109.234 C 162.447 109.234,162.289 108.632,162.159 103.164 C 162.065 99.193,161.975 98.184,161.664 97.612 C 160.505 95.480,157.018 95.568,154.634 97.788 C 154.059 98.324,153.964 98.308,153.593 97.616 C 152.560 95.684,149.779 95.517,147.372 97.241 C 146.407 97.933,146.171 97.880,146.171 96.973 C 146.171 95.930,146.122 95.924,143.863 96.678 M137.050 96.399 C 136.802 96.508,135.966 96.819,135.191 97.090 C 133.632 97.636,133.385 97.973,134.544 97.973 C 135.802 97.973,135.914 98.307,136.004 102.303 C 136.131 107.986,135.805 109.234,134.192 109.234 C 133.844 109.234,133.559 109.336,133.559 109.459 C 133.559 109.600,134.872 109.685,137.050 109.685 C 139.227 109.685,140.541 109.600,140.541 109.459 C 140.541 109.336,140.352 109.234,140.120 109.234 C 139.889 109.234,139.433 109.024,139.107 108.767 L 138.514 108.301 138.514 102.236 L 138.514 96.171 138.007 96.186 C 137.728 96.195,137.297 96.291,137.050 96.399 M242.135 97.027 C 240.488 97.551,240.313 98.049,241.847 97.845 C 243.204 97.665,243.447 97.934,244.000 100.225 C 244.798 103.528,244.571 104.233,241.667 107.476 L 240.878 108.356 239.826 107.965 C 238.224 107.369,237.208 108.835,238.564 109.785 C 239.766 110.626,240.950 109.916,243.060 107.087 C 244.745 104.826,245.058 104.672,245.330 105.968 C 246.125 109.756,246.832 110.591,248.554 109.774 C 249.689 109.235,251.572 106.532,250.812 106.532 C 250.613 106.532,250.450 106.618,250.450 106.723 C 250.450 107.043,249.117 108.333,248.787 108.333 C 248.302 108.333,248.065 107.887,247.654 106.194 C 247.444 105.327,247.176 104.306,247.059 103.925 C 246.353 101.627,248.662 97.587,250.208 98.414 C 251.136 98.911,251.905 98.633,251.987 97.771 C 252.186 95.692,249.813 96.270,247.860 98.776 C 246.548 100.460,246.274 100.548,246.111 99.333 C 245.772 96.805,244.731 96.201,242.135 97.027 M232.387 102.796 C 235.045 105.272,233.935 109.236,230.586 109.233 C 226.901 109.230,225.570 103.601,228.643 101.015 L 229.322 100.444 230.483 101.274 C 231.122 101.730,231.978 102.415,232.387 102.796 M197.845 101.669 C 197.483 103.114,197.020 103.035,206.154 103.100 L 214.441 103.159 214.371 102.199 L 214.302 101.239 206.142 101.180 L 197.983 101.121 197.845 101.669 M158.221 118.779 C 155.918 120.016,155.845 120.075,156.816 119.912 C 158.327 119.657,158.333 119.680,158.333 125.541 C 158.333 131.093,158.213 131.757,157.208 131.757 C 156.974 131.757,156.721 131.858,156.644 131.982 C 156.554 132.128,157.482 132.201,159.277 132.190 C 161.704 132.175,161.957 132.139,161.306 131.904 C 160.157 131.487,160.142 131.396,160.139 124.493 C 160.136 119.456,160.073 118.022,159.854 118.035 C 159.699 118.045,158.964 118.380,158.221 118.779 M127.513 123.197 C 126.284 123.488,126.104 123.874,127.198 123.874 C 128.204 123.874,128.474 124.344,128.962 126.945 C 129.233 128.387,126.810 131.469,125.729 131.059 C 124.728 130.678,123.886 131.563,124.647 132.195 C 125.437 132.850,126.385 132.391,127.765 130.687 C 129.376 128.697,129.313 128.699,129.806 130.612 C 130.208 132.173,130.439 132.439,131.381 132.425 C 131.980 132.416,132.357 132.121,133.187 131.010 C 133.994 129.931,133.764 129.616,132.869 130.574 C 132.001 131.502,131.662 131.337,131.227 129.772 C 130.506 127.172,130.509 126.721,131.262 125.628 C 132.257 124.182,132.487 124.031,133.204 124.358 C 133.978 124.710,134.724 124.121,134.320 123.476 C 133.722 122.520,132.089 123.198,131.147 124.793 C 130.597 125.725,130.307 125.613,129.981 124.342 C 129.624 122.947,129.268 122.782,127.513 123.197 M147.000 123.121 C 146.918 123.202,147.291 123.785,147.828 124.416 C 149.325 126.175,149.487 126.126,142.211 126.126 L 135.811 126.126 135.811 126.802 L 135.811 127.477 141.873 127.477 C 149.459 127.477,149.518 127.498,147.748 129.505 C 146.112 131.359,147.074 131.442,148.882 129.603 C 149.559 128.914,150.594 128.077,151.182 127.745 C 152.170 127.186,152.597 126.577,152.001 126.577 C 151.637 126.577,149.607 125.046,148.492 123.931 C 147.540 122.978,147.282 122.838,147.000 123.121 " stroke="none" fill="#0c0c0c" fill-rule="evenodd"></path><path id="path2" d="M125.507 91.371 C 125.724 91.428,126.078 91.428,126.295 91.371 C 126.512 91.315,126.334 91.268,125.901 91.268 C 125.467 91.268,125.290 91.315,125.507 91.371 M127.353 100.000 C 127.353 103.902,127.383 105.498,127.421 103.547 C 127.458 101.596,127.458 98.404,127.421 96.453 C 127.383 94.502,127.353 96.098,127.353 100.000 M224.602 94.144 C 224.602 94.578,224.648 94.755,224.705 94.538 C 224.761 94.322,224.761 93.967,224.705 93.750 C 224.648 93.533,224.602 93.711,224.602 94.144 M138.611 101.689 C 138.611 104.786,138.643 106.084,138.682 104.574 C 138.721 103.064,138.721 100.530,138.682 98.943 C 138.643 97.357,138.611 98.592,138.611 101.689 M135.679 103.378 C 135.679 105.670,135.713 106.608,135.753 105.462 C 135.794 104.316,135.794 102.441,135.753 101.295 C 135.713 100.149,135.679 101.087,135.679 103.378 M143.558 103.378 C 143.558 105.175,143.593 105.909,143.636 105.011 C 143.678 104.113,143.678 102.644,143.636 101.745 C 143.593 100.847,143.558 101.582,143.558 103.378 M257.505 102.477 C 257.505 103.283,257.545 103.612,257.595 103.209 C 257.645 102.807,257.645 102.148,257.595 101.745 C 257.545 101.343,257.505 101.672,257.505 102.477 M139.020 127.871 C 140.724 127.909,143.511 127.909,145.214 127.871 C 146.917 127.833,145.524 127.802,142.117 127.802 C 138.711 127.802,137.317 127.833,139.020 127.871 " stroke="none" fill="#a0a0a0" fill-rule="evenodd"></path><path id="path3" d="M129.671 89.353 C 129.883 89.503,129.965 91.756,130.013 98.773 L 130.075 107.995 130.071 98.667 C 130.068 90.569,130.023 89.327,129.730 89.247 C 129.482 89.180,129.467 89.208,129.671 89.353 M229.677 89.578 C 230.082 89.628,230.690 89.627,231.029 89.575 C 231.367 89.524,231.036 89.483,230.293 89.484 C 229.550 89.485,229.273 89.528,229.677 89.578 M172.290 91.385 L 171.059 92.680 172.354 91.449 C 173.066 90.772,173.649 90.189,173.649 90.154 C 173.649 89.987,173.433 90.182,172.290 91.385 M125.282 90.464 C 124.678 90.708,124.994 91.216,125.732 91.190 L 126.464 91.163 125.788 91.013 C 125.150 90.872,125.138 90.849,125.563 90.596 C 126.009 90.332,125.825 90.245,125.282 90.464 M253.829 91.329 C 254.249 91.762,254.644 92.117,254.705 92.117 C 254.767 92.117,254.474 91.762,254.054 91.329 C 253.634 90.895,253.239 90.541,253.177 90.541 C 253.115 90.541,253.409 90.895,253.829 91.329 M256.314 92.286 C 256.984 93.060,257.569 93.694,257.614 93.694 C 257.769 93.694,256.349 92.003,255.723 91.441 C 255.378 91.132,255.644 91.512,256.314 92.286 M234.941 91.723 C 235.091 92.002,235.287 92.534,235.376 92.905 C 235.510 93.458,235.544 93.486,235.563 93.063 C 235.585 92.562,235.017 91.216,234.784 91.216 C 234.720 91.216,234.791 91.444,234.941 91.723 M178.965 94.277 C 178.802 94.702,178.975 95.046,179.349 95.042 C 179.540 95.039,179.534 94.985,179.328 94.855 C 179.169 94.754,179.104 94.502,179.183 94.295 C 179.263 94.088,179.277 93.919,179.215 93.919 C 179.153 93.919,179.040 94.080,178.965 94.277 M181.982 95.571 C 181.982 95.629,182.309 95.791,182.709 95.930 C 183.109 96.069,183.337 96.091,183.216 95.977 C 182.959 95.737,181.982 95.415,181.982 95.571 M228.491 96.396 C 228.975 96.892,229.421 97.297,229.483 97.297 C 229.545 97.297,229.200 96.892,228.716 96.396 C 228.232 95.901,227.786 95.495,227.724 95.495 C 227.662 95.495,228.007 95.901,228.491 96.396 M146.160 96.909 C 146.270 97.837,146.274 97.842,146.351 97.100 C 146.394 96.681,146.343 96.253,146.238 96.148 C 146.134 96.044,146.098 96.386,146.160 96.909 M234.479 96.708 L 233.935 97.410 234.579 96.797 C 234.934 96.460,235.179 96.144,235.123 96.095 C 235.068 96.046,234.778 96.321,234.479 96.708 M225.403 96.959 C 225.534 97.207,226.178 97.917,226.834 98.536 L 228.027 99.662 226.694 98.198 C 225.961 97.393,225.317 96.684,225.263 96.622 C 225.208 96.560,225.272 96.712,225.403 96.959 M141.817 97.222 C 141.420 97.619,141.707 97.971,142.399 97.939 C 143.080 97.908,143.088 97.899,142.511 97.812 C 141.863 97.713,141.693 97.415,142.173 97.221 C 142.331 97.158,142.347 97.100,142.211 97.090 C 142.077 97.080,141.899 97.140,141.817 97.222 M133.671 97.523 C 133.469 97.850,133.751 98.202,134.191 98.172 C 134.535 98.149,134.533 98.136,134.178 98.043 C 133.719 97.923,133.660 97.610,134.065 97.446 C 134.268 97.365,134.272 97.328,134.079 97.315 C 133.931 97.305,133.748 97.399,133.671 97.523 M148.649 97.745 C 148.419 97.891,148.598 97.916,149.212 97.822 C 150.325 97.651,150.515 97.521,149.643 97.526 C 149.282 97.528,148.834 97.626,148.649 97.745 M156.318 97.736 C 156.107 97.869,156.346 97.897,156.994 97.814 C 157.545 97.743,158.038 97.649,158.089 97.604 C 158.301 97.420,156.619 97.545,156.318 97.736 M177.984 97.678 C 178.201 97.734,178.556 97.734,178.773 97.678 C 178.989 97.621,178.812 97.575,178.378 97.575 C 177.945 97.575,177.767 97.621,177.984 97.678 M150.813 98.187 C 150.951 98.379,151.176 98.739,151.313 98.986 C 151.450 99.234,151.566 99.316,151.570 99.168 C 151.573 99.020,151.349 98.660,151.070 98.369 C 150.791 98.077,150.676 97.995,150.813 98.187 M147.121 98.592 C 146.582 99.119,146.573 99.145,147.061 98.765 C 148.022 98.016,148.068 97.973,147.909 97.973 C 147.824 97.973,147.470 98.252,147.121 98.592 M257.485 99.550 C 257.485 99.983,257.531 100.160,257.588 99.944 C 257.644 99.727,257.644 99.372,257.588 99.155 C 257.531 98.939,257.485 99.116,257.485 99.550 M143.788 103.266 C 143.788 105.619,143.821 106.552,143.862 105.337 C 143.902 104.123,143.902 102.198,143.861 101.058 C 143.821 99.919,143.787 100.912,143.788 103.266 M162.256 103.491 C 162.256 105.845,162.290 106.777,162.330 105.563 C 162.371 104.348,162.371 102.423,162.330 101.283 C 162.289 100.144,162.256 101.137,162.256 103.491 M168.556 102.140 C 168.556 103.750,168.592 104.379,168.636 103.538 C 168.679 102.697,168.679 101.379,168.635 100.610 C 168.591 99.841,168.556 100.529,168.556 102.140 M135.903 103.378 C 135.903 105.546,135.937 106.433,135.979 105.349 C 136.020 104.265,136.020 102.492,135.979 101.408 C 135.937 100.324,135.903 101.211,135.903 103.378 M154.373 103.604 C 154.373 105.895,154.406 106.833,154.447 105.687 C 154.488 104.541,154.488 102.666,154.447 101.520 C 154.406 100.374,154.373 101.312,154.373 103.604 M246.175 99.831 C 246.171 100.273,246.733 100.366,246.981 99.965 C 247.086 99.796,247.042 99.767,246.856 99.881 C 246.690 99.984,246.489 99.928,246.375 99.747 C 246.219 99.502,246.177 99.519,246.175 99.831 M151.669 104.054 C 151.669 106.222,151.703 107.109,151.744 106.025 C 151.786 104.941,151.786 103.167,151.744 102.083 C 151.703 100.999,151.669 101.886,151.669 104.054 M228.551 101.152 L 227.815 101.853 228.566 101.263 C 228.979 100.938,229.426 100.740,229.558 100.822 C 229.701 100.910,229.734 100.864,229.639 100.710 C 229.415 100.348,229.378 100.363,228.551 101.152 M260.216 102.477 C 260.216 103.654,260.254 104.136,260.301 103.547 C 260.347 102.959,260.347 101.996,260.301 101.408 C 260.254 100.819,260.216 101.301,260.216 102.477 M225.999 101.633 L 225.338 102.365 226.070 101.703 C 226.472 101.340,226.802 101.010,226.802 100.971 C 226.802 100.797,226.616 100.951,225.999 101.633 M214.403 102.089 C 214.513 103.017,214.518 103.022,214.594 102.280 C 214.637 101.862,214.587 101.433,214.482 101.329 C 214.377 101.224,214.342 101.566,214.403 102.089 M187.224 102.252 C 187.224 102.810,187.267 103.038,187.321 102.759 C 187.375 102.480,187.375 102.024,187.321 101.745 C 187.267 101.467,187.224 101.695,187.224 102.252 M232.320 102.928 C 232.804 103.423,233.250 103.829,233.312 103.829 C 233.374 103.829,233.029 103.423,232.545 102.928 C 232.061 102.432,231.615 102.027,231.553 102.027 C 231.491 102.027,231.836 102.432,232.320 102.928 M235.956 103.604 C 236.134 104.575,236.262 104.758,236.258 104.035 C 236.256 103.736,236.155 103.339,236.033 103.153 C 235.877 102.915,235.854 103.049,235.956 103.604 M186.989 104.279 C 186.989 104.713,187.036 104.890,187.092 104.673 C 187.149 104.457,187.149 104.102,187.092 103.885 C 187.036 103.668,186.989 103.846,186.989 104.279 M166.029 104.730 C 166.041 105.315,166.395 106.276,166.403 105.743 C 166.407 105.495,166.323 105.090,166.216 104.842 C 166.098 104.566,166.025 104.523,166.029 104.730 M257.485 105.180 C 257.485 105.614,257.531 105.791,257.588 105.574 C 257.644 105.358,257.644 105.003,257.588 104.786 C 257.531 104.569,257.485 104.747,257.485 105.180 M244.358 105.342 C 244.098 105.684,244.100 105.702,244.369 105.462 C 244.786 105.090,244.989 105.106,245.118 105.522 C 245.199 105.782,245.216 105.773,245.191 105.485 C 245.144 104.944,244.715 104.870,244.358 105.342 M241.891 107.038 C 241.560 107.491,241.505 107.649,241.749 107.451 C 242.118 107.151,242.676 106.306,242.505 106.306 C 242.462 106.306,242.186 106.636,241.891 107.038 M175.444 107.670 C 175.308 107.925,175.245 108.254,175.305 108.402 C 175.367 108.554,175.423 108.507,175.433 108.293 C 175.442 108.085,175.610 107.756,175.804 107.561 C 175.999 107.366,176.053 107.207,175.925 107.207 C 175.797 107.207,175.580 107.416,175.444 107.670 M234.720 108.494 C 233.755 109.498,233.846 109.616,234.874 108.694 C 235.318 108.296,235.970 107.385,235.762 107.454 C 235.727 107.465,235.258 107.933,234.720 108.494 M225.225 107.953 C 225.225 107.992,225.555 108.322,225.957 108.685 L 226.689 109.347 226.028 108.615 C 225.411 107.933,225.225 107.779,225.225 107.953 M146.713 108.727 C 146.949 109.006,147.354 109.222,147.614 109.208 C 148.068 109.183,148.068 109.178,147.635 109.072 C 147.387 109.012,146.982 108.796,146.734 108.592 C 146.287 108.224,146.287 108.225,146.713 108.727 M162.809 108.840 C 162.979 109.057,163.334 109.222,163.597 109.208 C 164.053 109.183,164.054 109.176,163.626 109.071 C 163.378 109.010,163.024 108.845,162.838 108.703 C 162.544 108.479,162.540 108.497,162.809 108.840 M241.269 109.241 C 240.864 109.609,240.617 109.910,240.720 109.910 C 240.823 109.910,241.198 109.606,241.554 109.234 C 242.382 108.370,242.222 108.374,241.269 109.241 M134.347 109.009 L 133.671 109.181 134.277 109.208 C 134.611 109.222,134.946 109.133,135.023 109.009 C 135.099 108.885,135.130 108.796,135.092 108.810 C 135.054 108.825,134.718 108.914,134.347 109.009 M155.800 109.157 C 157.124 109.441,156.006 109.679,153.040 109.744 L 149.774 109.816 153.097 109.807 C 155.895 109.799,156.419 109.744,156.419 109.459 C 156.419 109.259,156.190 109.107,155.856 109.085 C 155.360 109.052,155.353 109.061,155.800 109.157 M132.207 109.422 C 132.207 109.608,131.211 109.699,128.773 109.734 L 125.338 109.784 128.699 109.853 C 131.816 109.917,132.818 109.770,132.361 109.313 C 132.276 109.228,132.207 109.277,132.207 109.422 M140.541 109.422 C 140.541 109.609,139.517 109.699,136.993 109.735 L 133.446 109.785 136.920 109.853 C 140.142 109.917,141.154 109.772,140.694 109.313 C 140.610 109.228,140.541 109.277,140.541 109.422 M148.198 109.422 C 148.198 109.608,147.229 109.699,144.876 109.734 L 141.554 109.784 144.802 109.853 C 147.813 109.918,148.806 109.767,148.352 109.313 C 148.267 109.228,148.198 109.277,148.198 109.422 M157.855 109.747 C 157.952 109.844,159.492 109.894,161.279 109.859 L 164.527 109.796 161.103 109.684 C 159.220 109.622,157.758 109.651,157.855 109.747 M170.261 112.894 C 170.813 113.483,171.295 113.964,171.331 113.964 C 171.500 113.964,171.321 113.762,170.327 112.828 L 169.257 111.824 170.261 112.894 M254.054 112.950 C 253.507 113.508,253.110 113.964,253.172 113.964 C 253.234 113.964,253.732 113.508,254.279 112.950 C 254.826 112.393,255.223 111.937,255.161 111.937 C 255.099 111.937,254.601 112.393,254.054 112.950 M255.180 113.330 C 254.623 113.838,254.369 114.147,254.617 114.016 C 255.041 113.792,256.505 112.377,256.292 112.397 C 256.238 112.402,255.738 112.822,255.180 113.330 M158.108 125.518 L 158.220 130.968 158.281 125.691 C 158.314 122.789,158.264 120.336,158.169 120.240 C 158.073 120.145,158.046 122.520,158.108 125.518 M128.397 122.829 C 128.449 122.873,128.795 122.978,129.167 123.061 C 129.660 123.171,129.751 123.150,129.505 122.983 C 129.200 122.777,128.171 122.634,128.397 122.829 M133.446 122.911 C 133.694 122.972,134.048 123.137,134.234 123.279 C 134.528 123.503,134.532 123.485,134.263 123.142 C 134.093 122.925,133.738 122.760,133.475 122.774 C 133.020 122.799,133.018 122.806,133.446 122.911 M131.965 124.718 L 131.419 125.338 132.095 124.775 C 132.466 124.465,132.813 124.186,132.864 124.155 C 132.916 124.124,132.857 124.099,132.734 124.099 C 132.612 124.099,132.265 124.378,131.965 124.718 M135.642 126.858 L 135.698 127.590 141.892 127.595 L 148.086 127.601 141.962 127.536 L 135.839 127.470 135.712 126.798 C 135.589 126.142,135.587 126.143,135.642 126.858 M156.456 131.907 C 156.030 132.333,156.559 132.432,159.253 132.432 C 161.510 132.432,162.178 132.367,162.106 132.151 C 162.054 131.996,161.818 131.845,161.580 131.815 C 161.176 131.764,161.177 131.774,161.599 131.968 C 161.904 132.109,161.154 132.181,159.277 132.191 C 157.483 132.202,156.554 132.128,156.644 131.982 C 156.802 131.727,156.684 131.680,156.456 131.907 " stroke="none" fill="#7c7c7c" fill-rule="evenodd"></path><path id="path4" d="M181.597 92.510 C 182.439 92.553,183.756 92.553,184.525 92.509 C 185.294 92.465,184.606 92.429,182.995 92.430 C 181.385 92.430,180.756 92.466,181.597 92.510 M201.971 101.069 C 204.231 101.106,207.931 101.106,210.191 101.069 C 212.452 101.033,210.602 101.003,206.081 101.003 C 201.560 101.003,199.710 101.033,201.971 101.069 M202.211 103.322 C 204.479 103.359,208.128 103.359,210.319 103.322 C 212.509 103.285,210.653 103.255,206.194 103.255 C 201.734 103.255,199.942 103.285,202.211 103.322 M160.234 124.437 C 160.234 127.905,160.266 129.293,160.304 127.520 C 160.342 125.747,160.342 122.910,160.303 121.214 C 160.265 119.518,160.234 120.968,160.234 124.437 M148.311 123.649 C 148.795 124.144,149.241 124.550,149.303 124.550 C 149.365 124.550,149.020 124.144,148.536 123.649 C 148.052 123.153,147.606 122.748,147.544 122.748 C 147.482 122.748,147.827 123.153,148.311 123.649 " stroke="none" fill="#848484" fill-rule="evenodd"></path><path id="path5" d="M136.183 89.133 C 136.126 89.226,136.465 89.302,136.937 89.302 C 137.409 89.302,137.748 89.226,137.690 89.133 C 137.633 89.040,137.294 88.964,136.937 88.964 C 136.580 88.964,136.241 89.040,136.183 89.133 M183.000 89.583 C 181.145 89.621,179.554 89.725,179.464 89.815 C 179.374 89.904,180.841 89.947,182.725 89.909 C 184.608 89.872,186.245 89.745,186.363 89.628 C 186.480 89.511,186.531 89.437,186.475 89.464 C 186.419 89.492,184.856 89.545,183.000 89.583 M125.045 90.360 C 124.725 90.681,124.693 91.139,124.979 91.316 C 125.091 91.385,125.130 91.240,125.066 90.994 C 124.981 90.670,125.097 90.485,125.481 90.332 C 125.791 90.208,125.867 90.113,125.664 90.104 C 125.472 90.097,125.194 90.212,125.045 90.360 M173.071 90.822 L 172.410 91.554 173.142 90.893 C 173.544 90.529,173.874 90.199,173.874 90.161 C 173.874 89.987,173.688 90.140,173.071 90.822 M255.846 91.498 C 256.399 92.086,256.880 92.568,256.916 92.568 C 257.085 92.568,256.907 92.365,255.912 91.432 L 254.842 90.428 255.846 91.498 M169.582 92.061 L 168.806 92.905 169.651 92.129 C 170.437 91.407,170.599 91.216,170.427 91.216 C 170.389 91.216,170.009 91.596,169.582 92.061 M127.129 99.887 C 127.129 104.347,127.159 106.203,127.196 104.012 C 127.232 101.822,127.232 98.173,127.196 95.904 C 127.159 93.636,127.129 95.428,127.129 99.887 M227.309 93.356 C 227.312 93.851,227.358 94.028,227.412 93.747 C 227.465 93.467,227.463 93.062,227.407 92.846 C 227.351 92.631,227.307 92.860,227.309 93.356 M235.685 93.971 C 235.673 95.079,235.686 95.109,235.887 94.423 C 236.017 93.982,236.022 93.508,235.900 93.236 C 235.748 92.896,235.695 93.077,235.685 93.971 M234.333 97.128 L 233.671 97.860 234.403 97.199 C 235.085 96.582,235.239 96.396,235.065 96.396 C 235.026 96.396,234.697 96.726,234.333 97.128 M133.561 97.407 C 133.081 97.986,133.458 98.427,134.396 98.386 L 135.248 98.348 134.403 98.259 C 133.491 98.164,133.275 97.710,133.953 97.315 C 134.169 97.189,134.233 97.083,134.093 97.079 C 133.953 97.075,133.714 97.223,133.561 97.407 M141.517 97.523 C 141.549 98.003,141.670 98.090,142.342 98.115 C 143.103 98.143,143.105 98.141,142.413 98.045 C 141.900 97.975,141.664 97.805,141.587 97.453 C 141.498 97.041,141.486 97.052,141.517 97.523 M149.717 97.967 C 150.119 98.063,150.580 98.230,150.741 98.338 C 150.903 98.447,150.841 98.359,150.605 98.142 C 150.369 97.925,149.908 97.758,149.581 97.771 C 149.036 97.792,149.047 97.808,149.717 97.967 M168.971 98.423 C 168.971 98.857,169.018 99.034,169.074 98.818 C 169.131 98.601,169.131 98.246,169.074 98.029 C 169.018 97.813,168.971 97.990,168.971 98.423 M241.441 98.062 C 241.441 98.111,241.838 98.189,242.323 98.235 C 242.808 98.281,243.157 98.241,243.098 98.146 C 242.991 97.973,241.441 97.894,241.441 98.062 M227.339 99.254 C 227.573 99.536,227.675 99.873,227.579 100.042 C 227.444 100.281,227.470 100.283,227.717 100.054 C 227.972 99.817,227.932 99.686,227.477 99.266 C 226.943 98.772,226.940 98.772,227.339 99.254 M154.605 99.388 C 154.544 99.547,154.522 101.548,154.556 103.836 L 154.618 107.995 154.730 103.547 C 154.840 99.185,154.829 98.804,154.605 99.388 M146.490 103.716 C 146.490 106.070,146.524 107.002,146.564 105.788 C 146.605 104.574,146.605 102.648,146.564 101.509 C 146.523 100.369,146.490 101.363,146.490 103.716 M151.402 103.811 C 151.359 107.559,151.296 108.252,150.966 108.653 L 150.580 109.122 151.083 108.660 C 151.576 108.208,151.585 108.105,151.520 103.818 L 151.454 99.437 151.402 103.811 M257.277 100.788 C 257.278 101.532,257.320 101.808,257.370 101.404 C 257.421 100.999,257.420 100.391,257.368 100.052 C 257.317 99.714,257.276 100.045,257.277 100.788 M168.755 100.676 C 168.755 101.233,168.799 101.461,168.853 101.182 C 168.906 100.904,168.906 100.448,168.853 100.169 C 168.799 99.890,168.755 100.118,168.755 100.676 M162.480 103.716 C 162.479 105.822,162.513 106.714,162.555 105.698 C 162.596 104.682,162.597 102.959,162.555 101.869 C 162.514 100.779,162.480 101.610,162.480 103.716 M159.551 104.054 C 159.551 106.098,159.585 106.934,159.627 105.912 C 159.669 104.890,159.669 103.218,159.627 102.196 C 159.585 101.174,159.551 102.010,159.551 104.054 M225.901 101.464 C 225.354 102.021,224.957 102.477,225.019 102.477 C 225.081 102.477,225.579 102.021,226.126 101.464 C 226.673 100.907,227.070 100.450,227.008 100.450 C 226.946 100.450,226.448 100.907,225.901 101.464 M165.613 102.027 C 165.613 102.832,165.654 103.162,165.703 102.759 C 165.753 102.356,165.753 101.698,165.703 101.295 C 165.654 100.892,165.613 101.222,165.613 102.027 M214.527 102.140 C 214.527 102.797,214.603 103.288,214.696 103.231 C 214.789 103.174,214.865 102.682,214.865 102.140 C 214.865 101.597,214.789 101.106,214.696 101.048 C 214.603 100.991,214.527 101.482,214.527 102.140 M187.457 102.365 C 187.458 103.108,187.500 103.385,187.551 102.980 C 187.601 102.575,187.600 101.967,187.548 101.629 C 187.497 101.290,187.456 101.622,187.457 102.365 M197.558 102.038 C 197.501 103.673,197.138 103.610,206.182 103.552 L 214.302 103.499 206.081 103.383 L 197.860 103.266 197.727 102.140 L 197.593 101.014 197.558 102.038 M260.430 102.590 C 260.431 103.333,260.473 103.610,260.524 103.205 C 260.574 102.801,260.573 102.193,260.521 101.854 C 260.470 101.516,260.429 101.847,260.430 102.590 M257.279 103.829 C 257.279 104.634,257.320 104.963,257.370 104.561 C 257.420 104.158,257.420 103.499,257.370 103.097 C 257.320 102.694,257.279 103.024,257.279 103.829 M168.755 103.604 C 168.755 104.161,168.799 104.389,168.853 104.110 C 168.906 103.832,168.906 103.376,168.853 103.097 C 168.799 102.818,168.755 103.046,168.755 103.604 M184.746 103.829 C 184.746 104.386,184.790 104.614,184.844 104.336 C 184.897 104.057,184.897 103.601,184.844 103.322 C 184.790 103.043,184.746 103.271,184.746 103.829 M236.318 105.293 C 236.321 105.788,236.367 105.964,236.421 105.684 C 236.474 105.404,236.472 104.999,236.416 104.783 C 236.360 104.568,236.316 104.797,236.318 105.293 M168.976 105.743 C 168.978 106.239,169.024 106.415,169.078 106.135 C 169.132 105.855,169.130 105.449,169.074 105.234 C 169.017 105.019,168.973 105.248,168.976 105.743 M227.065 105.180 C 227.077 105.765,227.431 106.727,227.439 106.194 C 227.443 105.946,227.359 105.541,227.252 105.293 C 227.134 105.017,227.061 104.973,227.065 105.180 M176.049 106.926 C 175.992 107.019,176.386 107.097,176.924 107.100 C 177.463 107.103,177.782 107.029,177.634 106.935 C 177.286 106.713,176.183 106.707,176.049 106.926 M227.682 107.395 C 227.804 107.622,228.080 107.951,228.297 108.127 C 228.540 108.324,228.485 108.167,228.154 107.714 C 227.562 106.906,227.341 106.756,227.682 107.395 M237.963 107.933 C 237.559 108.510,237.524 108.980,237.848 109.459 C 238.019 109.712,238.042 109.647,237.938 109.199 C 237.702 108.180,238.185 107.600,239.190 107.696 C 239.664 107.742,240.004 107.701,239.945 107.605 C 239.699 107.207,238.311 107.436,237.963 107.933 M162.639 108.007 C 162.611 108.489,162.994 109.009,163.376 109.009 C 163.499 109.009,163.437 108.882,163.238 108.727 C 163.039 108.573,162.828 108.243,162.770 107.995 C 162.667 107.555,162.664 107.555,162.639 108.007 M180.687 108.714 C 180.904 108.770,181.258 108.770,181.475 108.714 C 181.692 108.657,181.515 108.611,181.081 108.611 C 180.648 108.611,180.470 108.657,180.687 108.714 M176.802 110.125 C 176.988 110.251,177.334 110.355,177.571 110.357 C 178.148 110.362,177.968 110.233,177.140 110.047 C 176.646 109.937,176.555 109.958,176.802 110.125 M181.306 110.135 C 180.842 110.284,180.823 110.319,181.194 110.334 C 181.441 110.345,181.796 110.255,181.982 110.135 C 182.377 109.880,182.103 109.880,181.306 110.135 M228.120 110.192 C 228.234 110.306,228.566 110.361,228.859 110.315 C 229.310 110.244,229.278 110.212,228.653 110.108 C 228.205 110.034,227.995 110.067,228.120 110.192 M159.966 117.811 C 160.325 118.020,160.365 118.624,160.413 124.617 L 160.466 131.194 160.529 124.689 C 160.592 118.206,160.528 117.555,159.826 117.574 C 159.686 117.578,159.749 117.685,159.966 117.811 M131.630 123.705 L 130.968 124.437 131.700 123.775 C 132.103 123.412,132.432 123.082,132.432 123.043 C 132.432 122.869,132.247 123.023,131.630 123.705 M126.577 124.099 C 126.124 124.244,126.102 124.281,126.464 124.286 C 126.712 124.290,127.117 124.206,127.365 124.099 C 127.939 123.852,127.347 123.852,126.577 124.099 M148.874 123.944 C 148.874 123.983,149.203 124.313,149.606 124.676 L 150.338 125.338 149.676 124.606 C 149.060 123.924,148.874 123.770,148.874 123.944 M132.073 124.831 C 131.646 125.336,131.646 125.336,132.103 124.952 C 132.378 124.721,132.784 124.610,133.116 124.675 C 133.606 124.771,133.618 124.759,133.221 124.570 C 132.577 124.264,132.548 124.271,132.073 124.831 M135.448 126.222 C 135.380 126.399,135.370 126.779,135.424 127.067 C 135.501 127.467,135.531 127.419,135.555 126.862 L 135.586 126.133 141.948 126.070 L 148.311 126.006 141.941 125.954 C 136.597 125.909,135.552 125.953,135.448 126.222 M124.504 130.885 L 123.986 131.342 124.519 131.004 C 124.812 130.817,125.192 130.718,125.364 130.784 C 125.535 130.850,125.676 130.853,125.676 130.791 C 125.676 130.436,124.947 130.494,124.504 130.885 M124.698 132.714 C 124.832 132.933,125.934 132.926,126.283 132.705 C 126.431 132.611,126.111 132.536,125.573 132.539 C 125.035 132.543,124.641 132.621,124.698 132.714 M130.553 132.714 C 130.610 132.807,130.949 132.883,131.306 132.883 C 131.663 132.883,132.002 132.807,132.060 132.714 C 132.117 132.621,131.778 132.545,131.306 132.545 C 130.834 132.545,130.495 132.621,130.553 132.714 " stroke="none" fill="#bcbcbc" fill-rule="evenodd"></path></g></svg>