<svg id="svg" version="1.1" xmlns="http://www.w3.org/2000/svg" xmlns:xlink="http://www.w3.org/1999/xlink" width="400" height="228.4162895927602" viewBox="0, 0, 400,228.4162895927602"><g id="svgg"><path id="path0" d="M235.865 86.097 C 234.285 86.498,233.029 87.810,232.613 89.492 C 232.325 90.656,232.779 90.886,233.227 89.804 C 234.400 86.973,238.398 87.139,239.137 90.050 C 239.674 92.167,238.578 94.250,234.804 98.281 C 233.503 99.670,232.404 100.897,232.361 101.008 C 232.317 101.121,234.251 101.182,236.782 101.147 L 241.282 101.085 241.818 99.657 C 242.430 98.029,242.390 97.970,241.313 98.915 C 240.539 99.595,240.510 99.600,237.799 99.600 C 234.487 99.600,234.510 99.745,237.345 96.689 C 240.589 93.192,241.548 91.166,241.036 88.890 C 240.570 86.812,238.165 85.514,235.865 86.097 M77.327 91.525 C 76.699 91.710,75.679 91.984,75.061 92.134 C 73.635 92.480,73.394 92.975,74.653 92.975 C 76.225 92.975,76.185 92.729,76.185 102.319 C 76.185 111.861,76.203 111.741,74.696 112.193 C 73.041 112.688,73.743 112.850,77.556 112.850 C 79.916 112.850,81.325 112.764,81.325 112.621 C 81.325 112.496,81.166 112.393,80.971 112.393 C 78.901 112.393,78.812 111.919,78.812 100.846 C 78.812 95.512,78.735 91.157,78.641 91.168 C 78.547 91.180,77.955 91.340,77.327 91.525 M85.259 91.504 C 84.672 91.915,84.543 93.432,85.059 93.860 C 85.764 94.445,86.751 94.424,87.363 93.811 C 88.799 92.375,86.934 90.330,85.259 91.504 M128.808 92.023 C 120.089 98.406,119.717 110.541,128.035 117.242 C 130.302 119.068,130.864 118.709,128.919 116.677 C 123.080 110.575,123.188 98.624,129.133 92.931 C 130.635 91.492,130.406 90.853,128.808 92.023 M136.606 91.576 C 134.577 92.241,133.244 93.646,132.535 95.866 C 131.817 98.114,132.237 98.516,133.276 96.573 C 135.779 91.891,141.603 93.041,141.626 98.222 C 141.641 101.602,140.762 103.049,134.911 109.273 C 133.394 110.886,132.120 112.351,132.079 112.528 C 132.017 112.799,132.990 112.850,138.194 112.850 L 144.382 112.850 144.753 111.993 C 145.967 109.185,146.184 108.525,145.942 108.375 C 145.814 108.296,145.543 108.468,145.341 108.756 C 144.673 109.710,144.181 110.082,143.254 110.331 C 142.068 110.650,135.877 110.545,135.763 110.204 C 135.690 109.981,136.505 109.051,140.457 104.854 C 145.324 99.685,145.799 94.201,141.568 92.024 C 140.525 91.488,137.664 91.230,136.606 91.576 M206.451 92.774 C 204.107 93.977,202.924 94.971,204.592 94.337 C 206.946 93.442,207.004 93.663,206.921 103.205 L 206.853 111.062 206.224 111.603 C 205.878 111.901,205.236 112.212,204.796 112.294 C 202.945 112.641,204.274 112.850,208.338 112.850 C 211.079 112.850,212.678 112.766,212.678 112.621 C 212.678 112.496,212.416 112.393,212.096 112.393 C 209.771 112.393,209.709 112.095,209.709 100.956 C 209.709 93.439,209.647 91.378,209.423 91.386 C 209.266 91.391,207.929 92.016,206.451 92.774 M284.812 91.590 C 283.163 92.122,281.796 93.476,280.976 95.389 C 280.436 96.649,280.438 96.630,280.868 96.630 C 281.057 96.630,281.211 96.542,281.211 96.434 C 281.211 95.206,283.972 93.432,285.886 93.432 C 290.248 93.432,290.306 98.887,285.965 100.996 C 285.549 101.198,284.926 101.498,284.580 101.663 C 283.647 102.107,283.815 102.342,285.066 102.342 C 288.327 102.342,290.377 104.237,290.377 107.253 C 290.377 111.255,287.194 113.232,283.935 111.254 C 281.978 110.065,280.525 110.150,280.525 111.452 C 280.525 113.575,285.409 113.958,289.078 112.122 C 293.534 109.893,294.205 103.329,290.233 100.820 C 289.001 100.041,289.011 100.114,290.015 99.166 C 293.985 95.421,290.168 89.863,284.812 91.590 M296.065 91.662 C 296.068 91.819,296.745 92.616,297.569 93.432 C 303.103 98.919,302.697 112.465,296.859 117.123 C 295.197 118.450,296.001 118.737,297.725 117.433 C 305.037 111.902,306.232 102.265,300.511 94.975 C 298.893 92.914,296.048 90.793,296.065 91.662 M259.966 99.600 L 259.966 103.712 255.854 103.712 L 251.742 103.712 251.742 104.735 L 251.742 105.758 255.797 105.820 L 259.852 105.882 259.966 109.991 C 260.090 114.477,260.087 114.469,261.469 114.122 L 262.022 113.983 262.022 109.990 C 262.022 107.794,262.047 105.977,262.079 105.953 C 262.110 105.929,263.986 105.852,266.248 105.782 L 270.360 105.654 270.323 104.854 C 270.302 104.415,270.277 103.980,270.266 103.889 C 270.255 103.797,268.421 103.695,266.191 103.660 L 262.136 103.598 262.074 99.543 L 262.011 95.488 260.988 95.488 L 259.966 95.488 259.966 99.600 M86.579 98.568 C 86.139 98.741,85.137 99.110,84.352 99.386 C 82.763 99.947,82.521 100.286,83.711 100.286 C 85.113 100.286,85.208 100.653,85.208 106.037 C 85.208 111.500,85.142 111.770,83.694 112.198 C 81.970 112.707,82.578 112.850,86.465 112.850 C 89.962 112.850,91.179 112.639,89.556 112.314 C 87.952 111.994,87.950 111.981,87.950 104.740 C 87.950 97.642,88.029 97.997,86.579 98.568 M95.260 98.379 C 95.071 98.441,94.712 98.579,94.460 98.687 C 94.209 98.794,93.464 99.052,92.804 99.260 C 91.559 99.651,91.217 100.057,92.132 100.057 C 93.409 100.057,93.507 100.357,93.617 104.577 C 93.779 110.816,93.533 112.019,92.034 112.318 C 90.460 112.633,91.635 112.850,94.917 112.850 C 97.125 112.850,98.458 112.764,98.458 112.621 C 98.458 112.496,98.309 112.393,98.126 112.393 C 96.438 112.393,96.174 111.576,96.174 106.362 C 96.174 101.319,96.217 101.197,98.357 100.280 C 101.427 98.964,102.113 100.128,102.113 106.659 C 102.113 111.692,102.047 111.943,100.634 112.298 C 99.236 112.649,100.316 112.850,103.598 112.850 C 106.888 112.850,108.055 112.633,106.471 112.316 C 104.944 112.011,104.854 111.685,104.854 106.442 L 104.854 101.718 105.454 101.119 C 106.701 99.872,108.362 99.476,109.374 100.185 C 110.442 100.934,110.640 101.745,110.733 105.768 C 110.846 110.680,110.706 111.451,109.590 112.050 C 108.258 112.766,108.516 112.850,112.050 112.850 C 115.305 112.850,116.087 112.667,114.623 112.247 C 113.428 111.904,113.314 111.403,113.310 106.489 C 113.306 101.743,113.051 100.147,112.137 99.167 C 110.746 97.673,107.634 98.015,105.392 99.907 C 104.485 100.673,104.362 100.663,103.931 99.788 C 102.945 97.786,99.724 97.693,97.320 99.597 C 96.200 100.484,96.174 100.476,96.174 99.258 C 96.174 98.231,96.055 98.117,95.260 98.379 M151.813 99.347 C 150.353 99.861,150.097 100.401,151.419 100.178 C 153.103 99.893,153.604 100.492,154.087 103.370 C 154.172 103.872,154.355 104.619,154.495 105.029 C 154.792 105.901,154.629 106.245,152.630 108.966 C 150.940 111.267,150.868 111.329,150.134 111.145 C 148.028 110.617,147.367 110.921,147.704 112.264 C 148.214 114.296,150.498 113.315,152.959 110.007 C 154.977 107.293,154.940 107.297,155.575 109.776 C 156.411 113.040,156.887 113.586,158.447 113.071 C 159.758 112.638,162.265 109.423,161.292 109.423 C 161.034 109.423,160.822 109.505,160.822 109.604 C 160.822 109.994,159.218 111.463,158.918 111.348 C 158.048 111.014,156.585 105.114,157.110 104.055 C 158.122 102.010,159.921 100.207,160.436 100.721 C 161.400 101.686,163.067 100.577,162.433 99.393 C 161.727 98.074,159.598 99.019,157.854 101.426 C 156.672 103.058,156.464 103.056,156.121 101.411 C 155.568 98.758,154.687 98.336,151.813 99.347 M219.524 99.335 C 218.175 99.830,218.220 100.171,219.635 100.171 C 220.922 100.171,221.119 100.483,221.906 103.750 C 222.432 105.931,222.415 106.003,220.877 108.215 C 218.814 111.183,217.908 111.907,217.362 111.022 C 217.076 110.561,215.646 110.759,215.451 111.287 C 214.779 113.102,217.047 113.901,218.710 112.434 C 218.949 112.223,219.858 111.094,220.729 109.925 C 222.535 107.503,222.708 107.460,223.151 109.326 C 224.296 114.146,226.367 114.491,228.881 110.280 C 229.592 109.088,229.064 109.181,227.875 110.458 C 226.337 112.109,225.690 111.062,224.659 105.256 C 224.415 103.883,227.034 100.234,227.959 100.659 C 229.467 101.351,230.941 100.343,230.029 99.244 C 229.149 98.184,227.226 99.166,225.435 101.591 C 224.316 103.106,224.198 103.098,223.851 101.485 C 223.269 98.779,222.321 98.308,219.524 99.335 M173.329 104.455 C 173.124 105.833,172.683 105.768,182.206 105.768 L 190.977 105.768 190.977 104.740 L 190.977 103.712 182.208 103.712 L 173.438 103.712 173.329 104.455 M109.471 124.465 C 105.019 130.659,104.626 131.283,104.626 132.146 L 104.626 132.953 107.701 132.953 L 110.775 132.953 110.842 134.837 L 110.908 136.722 111.708 136.722 L 112.507 136.722 112.621 134.894 L 112.736 133.067 113.821 132.997 C 114.849 132.931,114.906 132.893,114.906 132.267 C 114.906 131.642,114.849 131.603,113.821 131.537 L 112.736 131.468 112.674 126.525 C 112.594 120.085,112.611 120.096,109.471 124.465 M110.690 131.294 C 110.549 131.663,105.964 131.610,105.848 131.239 C 105.789 131.054,107.648 128.313,110.263 124.729 C 110.675 124.164,111.074 130.295,110.690 131.294 M75.687 127.088 C 74.612 127.485,74.523 127.698,75.434 127.698 C 76.536 127.698,76.983 128.464,77.339 130.956 C 77.601 132.791,75.403 135.639,73.911 135.397 C 72.736 135.206,72.005 135.983,72.766 136.614 C 73.768 137.446,74.835 136.866,76.440 134.617 C 77.713 132.833,77.757 132.835,78.253 134.723 C 78.975 137.465,80.251 137.721,81.863 135.446 C 82.606 134.398,82.462 133.878,81.696 134.837 C 80.571 136.245,79.680 135.046,79.330 131.651 C 79.142 129.825,80.471 128.113,82.005 128.206 C 83.015 128.268,83.038 128.254,83.038 127.584 C 83.038 126.126,81.235 126.690,79.840 128.584 C 79.009 129.713,78.893 129.733,78.689 128.784 C 78.266 126.822,77.531 126.407,75.687 127.088 M96.859 126.994 C 96.859 127.110,97.322 127.746,97.887 128.409 C 99.585 130.398,99.487 130.429,91.546 130.430 C 88.123 130.430,85.187 130.432,85.022 130.435 C 84.829 130.438,84.747 130.666,84.794 131.068 L 84.866 131.696 91.814 131.810 C 99.666 131.939,99.453 131.875,97.887 133.638 C 96.935 134.710,96.681 135.280,97.161 135.266 C 97.258 135.263,98.104 134.552,99.040 133.687 C 99.976 132.821,101.152 131.916,101.653 131.676 C 102.731 131.159,102.713 130.940,101.544 130.327 C 101.064 130.075,99.926 129.175,99.017 128.327 C 97.464 126.877,96.859 126.504,96.859 126.994 " stroke="none" fill="#101010" fill-rule="evenodd"></path><path id="path1" d="M0.000 114.220 L 0.000 228.441 200.000 228.441 L 400.000 228.441 400.000 114.220 L 400.000 0.000 200.000 0.000 L 0.000 0.000 0.000 114.220 M239.018 86.103 C 242.963 87.794,242.288 91.844,237.149 97.316 L 235.541 99.029 238.167 99.094 L 240.794 99.158 241.377 98.465 C 242.546 97.075,242.900 97.884,242.024 99.944 L 241.393 101.428 236.745 101.428 C 231.115 101.428,231.243 101.613,234.506 98.197 C 235.831 96.809,237.192 95.246,237.530 94.724 C 237.869 94.202,238.203 93.724,238.273 93.661 C 239.489 92.571,238.947 88.897,237.480 88.284 C 235.642 87.516,234.558 87.995,233.457 90.063 C 232.686 91.510,231.912 91.036,232.364 89.395 C 233.202 86.351,236.171 84.882,239.018 86.103 M79.269 101.212 L 79.269 111.220 79.932 111.692 C 80.297 111.952,80.811 112.164,81.075 112.164 C 81.403 112.164,81.553 112.310,81.553 112.627 C 81.553 113.268,73.730 113.236,73.607 112.595 C 73.559 112.342,73.754 112.182,74.225 112.088 C 75.887 111.756,75.842 112.023,75.842 102.350 C 75.842 92.685,75.932 93.204,74.272 93.204 C 72.933 93.204,73.259 92.229,74.700 91.919 C 75.573 91.732,77.728 91.128,78.241 90.926 C 79.257 90.527,79.269 90.645,79.269 101.212 M87.057 91.045 C 88.856 91.975,88.243 94.575,86.225 94.575 C 84.283 94.575,83.752 91.791,85.546 91.010 C 86.408 90.634,86.256 90.630,87.057 91.045 M130.356 91.486 C 130.438 91.700,129.881 92.480,128.847 93.600 C 123.562 99.323,123.586 110.488,128.894 116.172 C 130.541 117.935,130.632 118.117,130.097 118.561 C 129.814 118.795,129.530 118.691,128.469 117.960 C 122.143 113.609,119.980 104.224,123.683 97.202 C 125.247 94.237,129.886 90.263,130.356 91.486 M141.490 91.715 C 146.803 94.229,145.910 99.436,138.883 106.906 C 137.443 108.437,136.231 109.783,136.189 109.899 C 136.145 110.020,137.612 110.109,139.684 110.109 C 143.620 110.109,144.187 109.964,145.058 108.741 C 145.558 108.038,146.057 107.862,146.324 108.294 C 146.464 108.520,145.998 109.883,145.019 112.107 L 144.592 113.078 138.215 113.078 C 134.217 113.078,131.785 112.993,131.696 112.850 C 131.494 112.523,131.808 112.138,135.158 108.600 C 140.254 103.217,141.142 101.801,141.353 98.725 C 141.720 93.352,135.542 92.058,133.313 97.041 C 132.735 98.333,131.887 98.363,131.988 97.087 C 132.348 92.516,137.284 89.725,141.490 91.715 M209.944 101.028 C 209.950 108.444,210.021 110.994,210.230 111.254 C 210.599 111.712,211.651 112.164,212.347 112.164 C 212.755 112.164,212.907 112.289,212.907 112.621 C 212.907 113.063,212.755 113.078,208.338 113.078 C 203.922 113.078,203.769 113.063,203.769 112.621 C 203.769 112.370,203.921 112.164,204.107 112.164 C 206.588 112.164,206.773 111.455,206.691 102.238 C 206.616 93.817,206.693 94.147,204.904 94.576 C 203.709 94.863,202.987 94.580,203.529 94.038 C 203.953 93.614,208.938 91.187,209.423 91.168 L 209.937 91.148 209.944 101.028 M289.274 91.585 C 292.407 92.928,292.925 97.673,290.130 99.418 C 289.471 99.830,289.553 100.095,290.526 100.698 C 293.640 102.627,293.886 108.552,290.961 111.171 C 287.659 114.127,280.069 114.320,280.069 111.448 C 280.069 110.016,281.671 109.783,283.791 110.908 C 287.391 112.819,290.311 110.970,290.082 106.925 C 289.933 104.288,288.339 102.899,285.151 102.629 C 283.185 102.462,283.219 101.988,285.266 101.025 C 287.939 99.767,288.754 98.716,288.742 96.542 C 288.724 93.218,284.678 92.357,282.419 95.196 C 282.142 95.545,281.721 96.079,281.484 96.383 C 280.935 97.087,280.187 96.901,280.417 96.118 C 281.597 92.090,285.634 90.025,289.274 91.585 M297.740 91.879 C 304.133 96.815,306.162 105.236,302.644 112.231 C 302.278 112.959,301.752 113.828,301.475 114.161 C 299.006 117.135,296.482 119.081,295.878 118.477 C 295.558 118.157,295.689 117.950,297.228 116.339 C 299.276 114.195,300.250 112.348,300.736 109.684 C 301.396 106.072,301.035 99.794,300.043 97.624 C 299.862 97.228,299.714 96.840,299.714 96.762 C 299.714 96.354,298.307 94.516,297.025 93.248 C 295.049 91.296,295.605 90.231,297.740 91.879 M262.242 95.473 C 262.378 95.727,262.479 97.526,262.479 99.694 L 262.479 103.473 266.533 103.536 L 270.588 103.598 270.659 104.445 C 270.804 106.191,270.722 106.225,266.354 106.225 L 262.479 106.225 262.479 110.081 C 262.479 114.446,262.450 114.522,260.839 114.406 L 259.852 114.335 259.789 110.285 L 259.727 106.236 255.677 106.173 L 251.628 106.111 251.559 104.797 L 251.491 103.484 255.614 103.484 L 259.737 103.484 259.737 99.391 C 259.737 94.922,259.686 95.081,261.157 95.049 C 261.774 95.036,262.070 95.152,262.242 95.473 M88.178 104.702 C 88.304 111.981,88.257 111.770,89.834 112.093 C 90.251 112.178,90.463 112.366,90.463 112.650 C 90.463 113.052,90.221 113.078,86.465 113.078 C 82.619 113.078,82.467 113.061,82.467 112.621 C 82.467 112.320,82.619 112.164,82.913 112.164 C 84.732 112.164,84.980 111.435,84.980 106.085 C 84.980 101.110,84.895 100.742,83.744 100.742 C 82.241 100.742,82.114 99.814,83.555 99.371 C 84.025 99.227,84.563 99.048,84.752 98.975 C 88.418 97.544,88.043 96.918,88.178 104.702 M96.402 98.915 C 96.402 99.785,96.666 100.098,96.976 99.595 C 98.315 97.429,104.397 97.729,104.397 99.961 C 104.397 100.416,104.556 100.370,105.264 99.707 C 106.326 98.714,108.111 98.001,109.535 98.001 C 112.876 98.001,113.761 100.061,113.763 107.845 L 113.764 111.634 114.345 111.899 C 114.665 112.045,115.136 112.164,115.390 112.164 C 115.708 112.164,115.829 112.290,115.776 112.564 C 115.666 113.139,108.644 113.302,108.426 112.734 C 108.334 112.493,108.490 112.294,108.914 112.113 C 110.367 111.495,110.337 111.610,110.337 106.567 C 110.337 101.397,110.190 100.746,108.926 100.306 C 107.963 99.970,106.573 100.359,105.732 101.200 L 105.083 101.849 105.083 106.447 L 105.083 111.044 105.687 111.604 C 106.020 111.912,106.541 112.164,106.846 112.164 C 107.251 112.164,107.380 112.272,107.324 112.564 C 107.200 113.208,99.829 113.298,99.829 112.656 C 99.829 112.368,100.040 112.176,100.457 112.085 C 101.756 111.803,101.765 111.777,101.846 107.890 C 101.996 100.764,101.176 99.086,98.255 100.539 C 96.592 101.366,96.630 101.224,96.630 106.581 L 96.630 111.427 97.194 111.796 C 97.503 111.998,97.973 112.164,98.238 112.164 C 98.574 112.164,98.697 112.286,98.643 112.564 C 98.520 113.208,91.148 113.298,91.148 112.656 C 91.148 112.360,91.358 112.180,91.806 112.090 C 93.183 111.815,93.204 111.722,93.204 106.026 C 93.204 100.359,93.187 100.286,91.902 100.286 C 91.436 100.286,91.148 100.172,91.148 99.989 C 91.148 99.535,91.639 99.143,92.208 99.143 C 92.490 99.143,92.778 99.049,92.849 98.935 C 92.920 98.820,93.388 98.657,93.889 98.572 C 94.390 98.488,94.859 98.324,94.929 98.210 C 95.361 97.512,96.402 98.010,96.402 98.915 M155.260 98.794 C 155.747 99.135,156.482 100.997,156.482 101.889 C 156.482 102.574,156.748 102.406,157.818 101.047 C 160.062 98.196,162.878 97.627,162.878 100.026 C 162.878 101.190,161.903 101.702,160.717 101.162 C 159.871 100.776,159.293 101.171,158.115 102.937 C 157.030 104.563,157.039 104.462,157.710 107.367 C 158.698 111.644,158.795 111.739,160.326 109.937 C 161.186 108.925,161.274 108.878,161.633 109.229 C 162.505 110.085,159.519 113.307,157.853 113.307 C 156.338 113.307,156.066 112.923,155.204 109.568 C 154.866 108.251,154.757 108.060,154.529 108.373 C 154.379 108.578,154.063 109.014,153.827 109.342 C 151.446 112.655,150.677 113.307,149.155 113.307 C 147.494 113.307,146.722 111.873,147.801 110.794 C 148.355 110.240,148.453 110.236,149.663 110.720 L 150.621 111.103 151.283 110.320 C 151.647 109.890,152.501 108.715,153.180 107.710 L 154.415 105.882 154.055 104.283 C 153.857 103.404,153.523 102.170,153.312 101.542 L 152.929 100.400 151.586 100.400 C 149.464 100.400,149.627 99.735,151.913 99.068 C 154.265 98.383,154.631 98.353,155.260 98.794 M223.204 99.162 C 223.665 99.656,223.906 100.202,224.011 100.994 C 224.214 102.523,224.357 102.534,225.442 101.097 C 227.268 98.679,229.274 97.859,230.291 99.115 C 231.401 100.486,230.082 101.803,228.258 101.144 C 226.884 100.647,224.529 103.850,224.977 105.606 C 225.112 106.135,225.396 107.339,225.607 108.281 C 226.096 110.456,226.359 111.022,226.880 111.022 C 227.110 111.022,227.300 110.945,227.302 110.851 C 227.312 110.350,228.811 108.946,229.183 109.090 C 229.784 109.321,229.674 109.777,228.700 111.089 C 226.129 114.551,223.679 114.136,223.073 110.136 C 222.718 107.795,222.614 107.804,220.743 110.339 C 218.699 113.107,218.362 113.354,216.762 113.262 C 215.734 113.203,215.499 113.103,215.221 112.606 C 214.426 111.184,215.679 109.972,217.223 110.669 C 218.353 111.178,218.331 111.194,220.365 108.434 C 221.839 106.433,222.043 106.042,221.923 105.436 C 220.961 100.548,220.438 99.685,218.915 100.469 C 218.368 100.750,217.933 100.572,217.933 100.066 C 217.933 99.677,218.196 99.527,219.931 98.926 C 220.573 98.703,221.369 98.545,222.124 98.489 C 222.357 98.472,222.842 98.775,223.204 99.162 M191.159 104.797 L 191.091 106.111 182.323 106.171 C 172.626 106.237,172.930 106.283,172.930 104.750 C 172.930 103.404,172.343 103.484,182.231 103.484 L 191.228 103.484 191.159 104.797 M112.560 121.259 C 112.764 121.389,112.857 122.768,112.902 126.338 L 112.964 131.239 114.049 131.309 L 115.134 131.379 115.134 132.267 L 115.134 133.156 114.049 133.226 L 112.964 133.295 112.897 135.064 C 112.825 136.994,112.526 137.320,111.146 136.973 C 110.618 136.841,110.581 136.727,110.518 135.064 L 110.451 133.295 107.367 133.181 L 104.283 133.067 104.210 132.308 C 104.146 131.634,104.430 130.948,105.125 130.103 C 105.230 129.974,106.187 128.635,107.250 127.127 C 108.314 125.620,109.263 124.281,109.361 124.152 C 109.458 124.024,109.887 123.407,110.315 122.782 C 111.434 121.144,111.891 120.834,112.560 121.259 M109.081 126.810 C 108.327 127.856,107.331 129.280,106.868 129.975 L 106.027 131.239 108.211 131.305 C 110.870 131.385,110.591 131.780,110.515 128.048 L 110.451 124.908 109.081 126.810 M98.557 127.559 C 99.695 128.688,101.073 129.739,102.227 130.359 C 102.983 130.764,102.753 131.261,101.382 132.187 C 100.665 132.671,99.462 133.656,98.707 134.377 C 96.671 136.321,95.764 135.723,97.544 133.612 C 98.924 131.976,99.205 132.052,91.548 131.985 L 84.637 131.925 84.637 131.011 L 84.637 130.097 91.548 130.037 C 99.205 129.970,98.924 130.046,97.544 128.410 C 96.437 127.097,96.372 126.626,97.259 126.346 C 97.290 126.336,97.874 126.882,98.557 127.559 M78.339 127.070 C 78.451 127.353,78.672 127.931,78.831 128.355 C 79.102 129.078,79.139 129.100,79.431 128.698 C 81.245 126.207,83.587 125.703,83.340 127.856 C 83.272 128.456,83.197 128.498,82.213 128.501 C 80.670 128.505,78.906 130.477,79.483 131.555 C 79.617 131.804,79.726 132.180,79.726 132.388 C 79.726 133.136,80.449 135.237,80.706 135.237 C 80.850 135.237,81.243 134.915,81.578 134.523 C 82.204 133.790,82.696 133.797,82.696 134.539 C 82.696 135.239,80.599 137.293,79.886 137.293 C 79.142 137.293,78.418 136.622,78.227 135.757 C 78.150 135.408,77.962 134.785,77.809 134.372 L 77.531 133.621 76.825 134.600 C 75.093 137.004,74.019 137.678,72.885 137.071 C 71.591 136.379,72.242 134.896,73.751 135.097 L 74.848 135.242 76.030 133.585 C 77.328 131.766,77.334 131.726,76.609 129.099 L 76.271 127.873 75.395 128.013 C 74.492 128.158,73.935 127.698,74.539 127.306 C 75.854 126.454,78.043 126.318,78.339 127.070 " stroke="none" fill="#fbfbfb" fill-rule="evenodd"></path><path id="path2" d="M235.570 85.860 C 235.405 85.964,235.859 86.006,236.598 85.953 C 238.402 85.825,238.639 85.704,237.122 85.687 C 236.431 85.679,235.732 85.757,235.570 85.860 M239.292 86.269 C 240.455 87.301,240.883 87.602,240.435 87.072 C 240.186 86.778,239.776 86.431,239.523 86.302 C 239.270 86.172,239.166 86.158,239.292 86.269 M233.866 88.986 C 233.296 89.749,233.370 89.962,233.950 89.225 C 234.215 88.887,234.395 88.575,234.349 88.531 C 234.304 88.487,234.086 88.692,233.866 88.986 M78.753 90.940 C 78.965 91.213,79.051 93.737,79.098 101.106 L 79.160 110.908 79.214 101.056 C 79.265 91.907,79.240 91.181,78.869 90.890 C 78.516 90.613,78.502 90.619,78.753 90.940 M73.431 92.538 C 73.185 92.937,73.677 93.248,74.387 93.142 C 75.013 93.048,75.007 93.042,74.276 93.010 C 73.696 92.984,73.541 92.892,73.641 92.633 C 73.793 92.236,73.657 92.174,73.431 92.538 M127.113 93.033 L 126.442 93.775 127.184 93.104 C 127.593 92.735,127.927 92.401,127.927 92.362 C 127.927 92.185,127.738 92.341,127.113 93.033 M128.944 93.261 L 128.041 94.232 129.012 93.329 C 129.915 92.489,130.088 92.290,129.915 92.290 C 129.878 92.290,129.441 92.727,128.944 93.261 M75.842 102.502 C 75.779 107.301,75.807 111.150,75.902 111.054 C 75.998 110.958,76.049 107.031,76.016 102.327 L 75.956 93.775 75.842 102.502 M134.830 94.746 C 134.283 95.280,134.274 95.306,134.769 94.921 C 135.744 94.161,135.791 94.118,135.629 94.118 C 135.543 94.118,135.183 94.400,134.830 94.746 M205.140 94.349 C 204.896 94.509,205.010 94.533,205.537 94.432 C 206.169 94.311,206.308 94.369,206.493 94.832 C 206.619 95.146,206.716 95.225,206.725 95.020 C 206.756 94.260,205.857 93.879,205.140 94.349 M238.480 95.660 L 237.693 96.516 238.549 95.729 C 239.347 94.996,239.511 94.803,239.337 94.803 C 239.298 94.803,238.913 95.188,238.480 95.660 M260.308 95.147 C 260.831 95.329,262.210 95.379,262.106 95.212 C 262.045 95.113,261.564 95.040,261.037 95.049 C 260.511 95.059,260.183 95.103,260.308 95.147 M259.832 99.372 C 259.832 101.696,259.866 102.647,259.907 101.485 C 259.949 100.323,259.949 98.421,259.907 97.259 C 259.866 96.097,259.832 97.047,259.832 99.372 M288.818 96.630 C 288.818 97.322,288.861 97.604,288.913 97.259 C 288.965 96.913,288.965 96.348,288.913 96.002 C 288.861 95.657,288.818 95.939,288.818 96.630 M262.344 99.600 C 262.344 101.799,262.378 102.698,262.420 101.599 C 262.462 100.500,262.462 98.701,262.420 97.601 C 262.378 96.502,262.344 97.401,262.344 99.600 M291.750 96.326 C 291.733 96.599,291.660 97.010,291.588 97.240 C 291.463 97.636,291.470 97.637,291.717 97.252 C 291.860 97.029,291.933 96.617,291.879 96.338 C 291.781 95.831,291.781 95.831,291.750 96.326 M144.661 96.973 C 144.663 97.476,144.710 97.654,144.765 97.370 C 144.819 97.086,144.817 96.675,144.760 96.457 C 144.703 96.238,144.658 96.471,144.661 96.973 M280.300 96.352 C 280.295 96.841,280.992 96.948,281.400 96.522 C 281.761 96.144,281.753 96.140,281.261 96.434 C 280.814 96.700,280.709 96.696,280.522 96.402 C 280.370 96.163,280.303 96.148,280.300 96.352 M141.470 98.115 C 141.472 98.744,141.516 98.973,141.569 98.626 C 141.621 98.279,141.620 97.765,141.566 97.484 C 141.511 97.203,141.469 97.487,141.470 98.115 M233.688 99.086 L 232.210 100.628 233.752 99.150 C 234.600 98.337,235.294 97.643,235.294 97.608 C 235.294 97.440,235.062 97.654,233.688 99.086 M241.445 98.401 L 240.891 99.029 241.502 98.491 C 241.862 98.174,242.229 98.025,242.394 98.127 C 242.574 98.238,242.616 98.206,242.512 98.036 C 242.266 97.639,242.053 97.711,241.445 98.401 M235.791 98.530 C 235.026 99.344,235.112 99.375,237.978 99.323 L 240.662 99.274 238.060 99.201 L 235.458 99.128 235.987 98.564 C 236.278 98.255,236.465 98.001,236.402 98.001 C 236.339 98.001,236.064 98.239,235.791 98.530 M88.050 104.512 C 88.050 108.030,88.082 109.437,88.121 107.639 C 88.159 105.841,88.159 102.963,88.120 101.243 C 88.082 99.523,88.050 100.994,88.050 104.512 M219.989 98.925 C 219.738 99.095,219.831 99.116,220.331 99.004 C 221.171 98.816,221.354 98.685,220.769 98.690 C 220.528 98.692,220.177 98.798,219.989 98.925 M230.062 99.166 C 230.372 99.475,230.505 99.837,230.438 100.187 C 230.381 100.485,230.422 100.674,230.530 100.608 C 230.993 100.322,230.371 98.686,229.799 98.686 C 229.680 98.686,229.799 98.902,230.062 99.166 M91.383 99.478 C 91.230 99.663,91.158 99.945,91.223 100.107 C 91.298 100.295,91.347 100.262,91.358 100.011 C 91.368 99.798,91.556 99.518,91.776 99.390 C 91.996 99.262,92.060 99.154,91.918 99.150 C 91.777 99.146,91.536 99.294,91.383 99.478 M226.373 100.000 L 225.585 100.857 226.442 100.069 C 227.239 99.337,227.404 99.143,227.229 99.143 C 227.191 99.143,226.806 99.529,226.373 100.000 M150.306 99.724 C 150.068 100.011,150.069 100.128,150.312 100.352 C 150.548 100.571,150.572 100.562,150.427 100.308 C 150.310 100.102,150.395 99.878,150.666 99.680 C 150.897 99.510,150.977 99.372,150.843 99.372 C 150.708 99.372,150.467 99.530,150.306 99.724 M82.575 99.839 C 82.319 100.253,82.950 100.742,83.740 100.742 C 84.223 100.742,84.585 100.888,84.733 101.142 C 84.861 101.362,84.969 101.426,84.973 101.284 C 84.984 100.866,84.462 100.557,83.608 100.476 C 83.013 100.419,82.818 100.298,82.842 100.000 C 82.878 99.545,82.789 99.492,82.575 99.839 M125.239 100.742 C 125.239 101.182,125.286 101.362,125.343 101.142 C 125.401 100.922,125.401 100.563,125.343 100.343 C 125.286 100.123,125.239 100.303,125.239 100.742 M162.451 100.780 C 162.209 101.168,162.004 101.229,161.318 101.118 C 160.740 101.026,160.586 101.052,160.822 101.202 C 161.515 101.644,163.362 100.921,162.849 100.409 C 162.793 100.352,162.614 100.519,162.451 100.780 M93.204 106.157 C 93.141 109.072,93.169 111.378,93.265 111.281 C 93.362 111.184,93.413 108.799,93.379 105.981 L 93.317 100.857 93.204 106.157 M228.502 101.242 C 228.862 101.471,229.753 101.480,229.889 101.256 C 229.947 101.162,229.595 101.080,229.107 101.074 C 228.597 101.068,228.340 101.139,228.502 101.242 M96.499 106.568 C 96.499 109.206,96.532 110.254,96.573 108.897 C 96.613 107.539,96.613 105.381,96.572 104.100 C 96.532 102.819,96.499 103.929,96.499 106.568 M304.112 103.370 C 304.115 103.872,304.162 104.051,304.216 103.767 C 304.271 103.482,304.269 103.071,304.212 102.853 C 304.155 102.634,304.110 102.867,304.112 103.370 M110.430 106.796 C 110.430 108.932,110.464 109.837,110.507 108.806 C 110.549 107.776,110.549 106.028,110.507 104.923 C 110.465 103.817,110.431 104.660,110.430 106.796 M101.978 106.910 C 101.978 108.983,102.012 109.832,102.055 108.795 C 102.097 107.758,102.097 106.062,102.055 105.026 C 102.012 103.989,101.978 104.837,101.978 106.910 M113.629 107.367 C 113.629 109.566,113.663 110.465,113.705 109.366 C 113.747 108.267,113.747 106.468,113.705 105.368 C 113.663 104.269,113.629 105.168,113.629 107.367 M173.082 103.636 C 172.822 103.896,172.915 105.662,173.204 105.951 C 173.514 106.261,190.866 106.361,191.056 106.054 C 191.114 105.959,187.136 105.882,182.217 105.882 L 173.272 105.882 173.272 104.683 C 173.272 104.023,173.264 103.483,173.253 103.483 C 173.243 103.484,173.166 103.552,173.082 103.636 M270.468 104.579 L 270.579 105.654 270.656 104.767 C 270.699 104.279,270.649 103.796,270.546 103.693 C 270.443 103.589,270.408 103.988,270.468 104.579 M288.974 104.056 C 289.884 105.152,289.961 105.223,289.712 104.738 C 289.583 104.485,289.236 104.074,288.942 103.825 C 288.425 103.389,288.427 103.397,288.974 104.056 M140.707 104.797 L 139.920 105.654 140.777 104.867 C 141.574 104.134,141.738 103.941,141.564 103.941 C 141.526 103.941,141.140 104.326,140.707 104.797 M221.898 105.583 C 221.916 106.054,222.017 106.341,222.127 106.232 C 222.238 106.122,222.223 105.751,222.095 105.388 C 221.868 104.748,221.866 104.751,221.898 105.583 M292.923 105.768 C 292.923 106.334,292.968 106.565,293.022 106.282 C 293.077 105.999,293.077 105.537,293.022 105.254 C 292.968 104.971,292.923 105.203,292.923 105.768 M224.818 105.540 C 224.818 105.728,224.906 106.088,225.014 106.339 C 225.138 106.627,225.211 106.669,225.211 106.453 C 225.211 106.265,225.122 105.905,225.014 105.654 C 224.891 105.366,224.818 105.324,224.818 105.540 M136.828 106.853 L 135.580 108.167 136.893 106.918 C 137.616 106.231,138.207 105.640,138.207 105.605 C 138.207 105.435,137.988 105.633,136.828 106.853 M157.307 106.339 C 157.495 107.179,157.625 107.362,157.621 106.777 C 157.619 106.536,157.513 106.185,157.385 105.997 C 157.216 105.746,157.195 105.839,157.307 106.339 M251.662 106.054 C 251.721 106.148,253.559 106.225,255.748 106.225 L 259.727 106.225 259.789 110.280 L 259.852 114.335 260.839 114.406 C 262.450 114.522,262.479 114.446,262.479 110.086 L 262.479 106.236 266.362 106.165 L 270.246 106.094 266.305 106.102 L 262.364 106.111 262.250 110.109 L 262.136 114.106 261.056 114.176 L 259.976 114.245 259.914 110.178 L 259.852 106.111 255.704 105.997 C 253.423 105.934,251.604 105.959,251.662 106.054 M290.191 107.253 C 290.192 108.007,290.235 108.288,290.285 107.877 C 290.336 107.467,290.335 106.850,290.283 106.506 C 290.231 106.163,290.189 106.499,290.191 107.253 M304.112 106.796 C 304.115 107.299,304.162 107.477,304.216 107.193 C 304.271 106.909,304.269 106.498,304.212 106.279 C 304.155 106.061,304.110 106.294,304.112 106.796 M136.940 108.795 L 136.037 109.766 137.007 108.863 C 137.910 108.023,138.083 107.824,137.910 107.824 C 137.873 107.824,137.436 108.261,136.940 108.795 M125.239 108.738 C 125.239 109.178,125.286 109.358,125.343 109.138 C 125.401 108.918,125.401 108.558,125.343 108.338 C 125.286 108.118,125.239 108.298,125.239 108.738 M145.278 108.443 C 145.013 108.792,145.015 108.810,145.288 108.567 C 145.738 108.165,146.148 108.212,146.287 108.681 C 146.379 108.994,146.394 108.983,146.358 108.626 C 146.297 108.030,145.672 107.924,145.278 108.443 M155.022 108.852 C 155.210 109.692,155.341 109.874,155.336 109.290 C 155.334 109.049,155.228 108.698,155.101 108.509 C 154.932 108.259,154.910 108.352,155.022 108.852 M133.403 110.508 L 131.925 112.050 133.467 110.572 C 134.315 109.759,135.009 109.065,135.009 109.030 C 135.009 108.862,134.776 109.076,133.403 110.508 M160.686 109.480 L 160.251 109.994 160.751 109.572 C 161.310 109.100,161.844 109.267,161.624 109.846 C 161.512 110.141,161.541 110.163,161.759 109.947 C 161.977 109.730,161.974 109.595,161.744 109.319 C 161.355 108.849,161.201 108.873,160.686 109.480 M228.305 109.480 L 227.870 109.994 228.351 109.589 C 228.638 109.347,229.006 109.241,229.265 109.325 C 229.621 109.441,229.637 109.423,229.355 109.220 C 228.879 108.877,228.799 108.897,228.305 109.480 M151.328 110.262 C 150.976 110.723,150.805 111.028,150.947 110.940 C 151.240 110.759,152.229 109.423,152.070 109.423 C 152.014 109.423,151.680 109.801,151.328 110.262 M152.520 110.851 C 151.800 111.855,151.776 111.920,152.373 111.251 C 153.046 110.498,153.618 109.652,153.455 109.652 C 153.414 109.652,152.994 110.191,152.520 110.851 M135.922 110.166 C 135.922 110.260,137.593 110.318,139.634 110.294 C 143.369 110.250,142.926 110.166,138.378 110.054 C 137.027 110.021,135.922 110.071,135.922 110.166 M147.902 110.692 C 147.466 111.042,147.466 111.044,147.915 110.837 C 148.167 110.722,148.527 110.570,148.715 110.500 C 149.011 110.390,149.009 110.371,148.702 110.355 C 148.506 110.345,148.146 110.497,147.902 110.692 M215.799 110.508 C 215.741 110.603,216.046 110.687,216.477 110.697 C 216.959 110.708,217.148 110.643,216.968 110.529 C 216.599 110.295,215.936 110.283,215.799 110.508 M223.190 110.699 C 223.192 110.939,223.298 111.291,223.426 111.479 C 223.595 111.729,223.616 111.637,223.504 111.136 C 223.316 110.297,223.186 110.114,223.190 110.699 M226.152 110.737 C 226.289 111.019,226.577 111.243,226.793 111.233 C 227.110 111.218,227.120 111.189,226.842 111.081 C 226.653 111.008,226.365 110.785,226.201 110.585 C 225.948 110.278,225.941 110.301,226.152 110.737 M280.256 110.906 C 280.063 111.330,280.063 111.607,280.255 111.991 C 280.503 112.488,280.508 112.484,280.386 111.900 C 280.316 111.566,280.373 111.078,280.514 110.815 C 280.655 110.552,280.713 110.337,280.643 110.337 C 280.573 110.337,280.399 110.593,280.256 110.906 M215.105 111.145 C 215.027 111.349,214.973 111.739,214.986 112.012 C 215.001 112.325,215.079 112.214,215.197 111.709 C 215.397 110.860,215.342 110.527,215.105 111.145 M88.178 111.245 C 88.178 111.546,89.297 112.264,89.480 112.081 C 89.560 112.001,89.505 111.936,89.358 111.936 C 89.212 111.936,88.886 111.730,88.635 111.479 C 88.384 111.228,88.178 111.123,88.178 111.245 M227.515 112.336 L 226.728 113.192 227.584 112.405 C 228.382 111.672,228.546 111.479,228.371 111.479 C 228.333 111.479,227.948 111.865,227.515 112.336 M218.732 112.546 C 218.230 112.996,218.024 113.259,218.275 113.128 C 218.699 112.909,219.960 111.696,219.743 111.717 C 219.690 111.722,219.235 112.095,218.732 112.546 M285.840 111.872 C 286.187 111.924,286.701 111.923,286.982 111.868 C 287.263 111.814,286.979 111.771,286.351 111.773 C 285.722 111.775,285.493 111.819,285.840 111.872 M283.442 113.472 C 283.853 113.523,284.470 113.522,284.813 113.470 C 285.156 113.418,284.820 113.376,284.066 113.377 C 283.312 113.379,283.032 113.421,283.442 113.472 M127.634 115.020 C 127.900 115.397,128.589 116.164,129.165 116.724 C 129.740 117.284,130.211 117.869,130.211 118.024 C 130.211 118.519,129.751 118.611,129.173 118.233 C 128.865 118.030,128.612 117.916,128.612 117.979 C 128.612 118.368,129.780 118.824,130.098 118.560 C 130.644 118.107,130.514 117.859,128.785 116.048 C 127.885 115.106,127.367 114.643,127.634 115.020 M299.478 116.219 L 298.230 117.533 299.543 116.284 C 300.266 115.597,300.857 115.006,300.857 114.971 C 300.857 114.801,300.638 114.999,299.478 116.219 M126.547 116.334 C 127.493 117.342,127.698 117.523,127.698 117.352 C 127.698 117.315,127.210 116.827,126.613 116.267 L 125.528 115.248 126.547 116.334 M297.202 116.391 C 296.647 116.956,296.244 117.419,296.307 117.419 C 296.370 117.419,296.875 116.956,297.430 116.391 C 297.985 115.825,298.388 115.363,298.325 115.363 C 298.262 115.363,297.756 115.825,297.202 116.391 M295.603 118.032 C 295.603 118.523,296.281 118.890,296.583 118.563 C 296.802 118.327,296.793 118.303,296.539 118.448 C 296.333 118.565,296.108 118.480,295.911 118.209 C 295.741 117.978,295.603 117.898,295.603 118.032 M110.201 124.992 C 110.101 125.154,110.138 125.194,110.295 125.097 C 110.480 124.983,110.572 125.854,110.623 128.203 L 110.693 131.468 110.744 128.098 C 110.790 124.972,110.663 124.245,110.201 124.992 M80.732 128.669 C 80.299 129.181,80.299 129.182,80.762 128.792 C 81.041 128.558,81.453 128.445,81.790 128.511 C 82.287 128.609,82.299 128.596,81.896 128.405 C 81.243 128.094,81.213 128.101,80.732 128.669 M97.801 128.726 C 98.131 129.103,98.457 129.566,98.526 129.754 C 98.633 130.050,98.653 130.048,98.668 129.740 C 98.678 129.544,98.352 129.081,97.944 128.712 L 97.202 128.041 97.801 128.726 M84.613 130.306 C 84.545 130.484,84.522 130.921,84.563 131.277 L 84.637 131.925 91.479 131.985 C 96.590 132.030,98.372 132.117,98.521 132.328 C 98.667 132.534,98.696 132.517,98.628 132.267 C 98.548 131.974,97.540 131.916,91.643 131.864 L 84.752 131.804 84.752 131.011 L 84.752 130.218 91.548 130.154 L 98.344 130.090 91.541 130.036 C 85.849 129.992,84.717 130.036,84.613 130.306 M104.557 130.882 C 104.156 131.561,104.033 132.841,104.350 133.037 C 104.449 133.099,104.489 132.796,104.439 132.364 C 104.382 131.876,104.493 131.356,104.733 130.989 C 104.946 130.665,105.080 130.361,105.032 130.313 C 104.984 130.265,104.770 130.521,104.557 130.882 M77.063 131.283 C 77.083 131.809,77.182 132.157,77.285 132.056 C 77.387 131.955,77.371 131.525,77.249 131.099 L 77.027 130.326 77.063 131.283 M99.243 133.695 L 98.572 134.437 99.315 133.767 C 100.007 133.141,100.162 132.953,99.986 132.953 C 99.946 132.953,99.612 133.287,99.243 133.695 M110.516 134.494 C 110.628 136.787,110.724 137.011,110.760 135.066 C 110.778 134.029,110.717 133.181,110.623 133.181 C 110.528 133.181,110.480 133.772,110.516 134.494 M77.316 133.675 C 77.219 133.843,77.227 133.901,77.334 133.804 C 77.441 133.707,77.662 133.912,77.825 134.261 C 78.099 134.846,78.112 134.851,77.985 134.323 C 77.801 133.561,77.533 133.301,77.316 133.675 M73.786 135.227 C 73.975 135.354,74.326 135.460,74.567 135.462 C 75.151 135.467,74.969 135.336,74.129 135.148 C 73.629 135.036,73.536 135.057,73.786 135.227 M81.292 136.288 C 80.965 136.615,80.350 136.964,79.926 137.064 C 79.203 137.235,79.194 137.248,79.786 137.270 C 80.212 137.285,80.696 137.035,81.271 136.500 C 81.741 136.063,82.071 135.703,82.005 135.700 C 81.939 135.697,81.618 135.961,81.292 136.288 M73.786 137.065 L 72.987 137.233 73.716 137.263 C 74.117 137.279,74.508 137.190,74.586 137.065 C 74.664 136.939,74.695 136.850,74.657 136.866 C 74.618 136.883,74.226 136.972,73.786 137.065 M111.308 136.994 C 111.528 137.051,111.887 137.051,112.107 136.994 C 112.327 136.936,112.147 136.889,111.708 136.889 C 111.268 136.889,111.088 136.936,111.308 136.994 " stroke="none" fill="#9c9c9c" fill-rule="evenodd"></path><path id="path3" d="M78.812 100.925 L 78.926 110.908 78.986 101.099 C 79.019 95.704,78.967 91.212,78.872 91.116 C 78.776 91.020,78.749 95.434,78.812 100.925 M137.921 91.309 C 138.204 91.364,138.666 91.364,138.949 91.309 C 139.232 91.255,139.001 91.210,138.435 91.210 C 137.870 91.210,137.638 91.255,137.921 91.309 M286.179 91.309 C 286.462 91.364,286.925 91.364,287.207 91.309 C 287.490 91.255,287.259 91.210,286.693 91.210 C 286.128 91.210,285.897 91.255,286.179 91.309 M209.813 101.199 C 209.813 106.539,209.843 108.724,209.880 106.054 C 209.916 103.384,209.916 99.015,209.880 96.345 C 209.843 93.675,209.813 95.860,209.813 101.199 M136.896 93.825 C 137.244 93.877,137.758 93.876,138.039 93.822 C 138.320 93.767,138.035 93.724,137.407 93.726 C 136.779 93.728,136.549 93.772,136.896 93.825 M76.173 102.456 C 76.173 106.728,76.204 108.443,76.242 106.267 C 76.279 104.092,76.279 100.597,76.242 98.501 C 76.204 96.404,76.173 98.184,76.173 102.456 M206.842 102.684 C 206.842 106.956,206.872 108.671,206.910 106.496 C 206.948 104.321,206.948 100.825,206.910 98.729 C 206.872 96.632,206.841 98.412,206.842 102.684 M260.483 95.424 C 260.830 95.476,261.344 95.475,261.625 95.421 C 261.906 95.366,261.622 95.323,260.994 95.325 C 260.366 95.327,260.136 95.371,260.483 95.424 M262.128 99.714 L 262.136 103.598 266.124 103.661 C 268.949 103.705,270.169 103.805,270.310 104.003 C 270.454 104.206,270.483 104.188,270.415 103.941 C 270.338 103.656,269.644 103.587,266.292 103.536 L 262.261 103.473 262.190 99.652 L 262.120 95.831 262.128 99.714 M144.437 96.859 C 144.437 97.424,144.481 97.656,144.536 97.373 C 144.590 97.090,144.590 96.628,144.536 96.345 C 144.481 96.062,144.437 96.294,144.437 96.859 M236.208 97.887 C 235.653 98.452,235.250 98.915,235.313 98.915 C 235.376 98.915,235.881 98.452,236.436 97.887 C 236.991 97.322,237.394 96.859,237.331 96.859 C 237.268 96.859,236.763 97.322,236.208 97.887 M233.801 99.200 L 232.667 100.400 233.866 99.266 C 234.526 98.643,235.066 98.103,235.066 98.067 C 235.066 97.896,234.854 98.086,233.801 99.200 M241.272 98.706 L 240.512 99.398 237.788 99.328 C 236.290 99.289,235.065 99.335,235.065 99.429 C 235.067 100.037,240.549 99.586,241.313 98.915 C 242.208 98.129,242.414 98.065,242.233 98.629 C 242.128 98.955,242.148 98.968,242.339 98.697 C 242.573 98.368,242.493 97.995,242.191 98.008 C 242.104 98.012,241.691 98.326,241.272 98.706 M153.798 98.844 C 154.018 98.901,154.377 98.901,154.597 98.844 C 154.817 98.786,154.637 98.739,154.198 98.739 C 153.758 98.739,153.578 98.786,153.798 98.844 M221.645 98.844 C 221.865 98.901,222.224 98.901,222.444 98.844 C 222.664 98.786,222.484 98.739,222.045 98.739 C 221.605 98.739,221.425 98.786,221.645 98.844 M91.706 99.471 C 91.140 99.888,91.536 100.371,92.321 100.222 C 92.817 100.128,92.810 100.117,92.233 100.088 C 91.887 100.071,91.605 99.963,91.605 99.848 C 91.605 99.733,91.887 99.535,92.233 99.409 C 92.579 99.283,92.701 99.171,92.505 99.161 C 92.309 99.151,91.949 99.291,91.706 99.471 M226.601 100.000 L 225.814 100.857 226.670 100.069 C 227.468 99.337,227.632 99.143,227.458 99.143 C 227.420 99.143,227.034 99.529,226.601 100.000 M141.431 99.639 C 141.417 99.848,141.346 100.208,141.273 100.438 C 141.149 100.835,141.156 100.835,141.403 100.450 C 141.547 100.226,141.618 99.866,141.561 99.650 C 141.468 99.296,141.455 99.295,141.431 99.639 M82.810 99.829 C 82.562 100.229,82.928 100.514,83.691 100.514 C 84.099 100.514,84.576 100.642,84.752 100.800 C 85.024 101.042,85.027 101.025,84.770 100.685 C 84.586 100.443,84.163 100.286,83.696 100.286 C 82.935 100.286,82.653 99.976,83.210 99.752 C 83.415 99.668,83.419 99.631,83.223 99.618 C 83.073 99.608,82.887 99.703,82.810 99.829 M99.874 100.045 C 100.338 100.136,100.857 100.304,101.027 100.419 C 101.196 100.534,101.139 100.448,100.899 100.228 C 100.658 100.007,100.143 99.840,99.746 99.855 C 99.038 99.881,99.040 99.883,99.874 100.045 M107.054 100.009 C 106.993 100.109,107.321 100.153,107.783 100.107 C 109.047 99.982,109.198 99.867,108.123 99.847 C 107.597 99.837,107.115 99.910,107.054 100.009 M236.779 101.199 L 232.210 101.328 236.708 101.378 C 239.516 101.409,241.260 101.342,241.348 101.199 C 241.425 101.074,241.457 100.993,241.418 101.021 C 241.380 101.048,239.292 101.128,236.779 101.199 M301.158 102.342 C 301.158 103.158,301.200 103.492,301.250 103.084 C 301.301 102.676,301.301 102.007,301.250 101.599 C 301.200 101.191,301.158 101.525,301.158 102.342 M85.077 106.111 C 85.078 108.875,85.111 109.974,85.151 108.554 C 85.191 107.133,85.191 104.872,85.150 103.528 C 85.110 102.184,85.077 103.347,85.077 106.111 M96.270 106.453 C 96.270 109.029,96.303 110.083,96.344 108.795 C 96.385 107.507,96.385 105.400,96.344 104.112 C 96.303 102.824,96.270 103.878,96.270 106.453 M93.527 106.111 C 93.527 108.372,93.561 109.267,93.603 108.098 C 93.644 106.930,93.644 105.079,93.602 103.986 C 93.560 102.893,93.526 103.849,93.527 106.111 M284.926 102.505 C 285.273 102.558,285.787 102.557,286.068 102.502 C 286.349 102.448,286.065 102.405,285.437 102.407 C 284.809 102.409,284.579 102.453,284.926 102.505 M124.812 104.740 C 124.813 105.997,124.851 106.481,124.897 105.818 C 124.944 105.154,124.943 104.126,124.896 103.533 C 124.849 102.941,124.812 103.484,124.812 104.740 M110.657 106.682 C 110.657 108.629,110.692 109.426,110.735 108.452 C 110.778 107.479,110.778 105.885,110.735 104.911 C 110.692 103.938,110.657 104.734,110.657 106.682 M177.913 103.655 C 180.340 103.692,184.247 103.692,186.594 103.655 C 188.942 103.618,186.956 103.587,182.182 103.587 C 177.407 103.587,175.486 103.618,177.913 103.655 M251.605 103.802 C 251.538 103.978,251.516 104.517,251.555 105.002 L 251.628 105.882 255.775 105.997 C 258.057 106.059,259.875 106.034,259.817 105.939 C 259.758 105.845,257.917 105.768,255.726 105.768 L 251.742 105.768 251.742 104.745 L 251.742 103.722 255.911 103.655 L 260.080 103.587 255.904 103.535 C 252.507 103.493,251.705 103.543,251.605 103.802 M113.400 107.367 C 113.400 109.440,113.434 110.288,113.477 109.252 C 113.519 108.215,113.519 106.519,113.477 105.483 C 113.434 104.446,113.400 105.294,113.400 107.367 M140.707 104.569 L 139.920 105.425 140.777 104.638 C 141.574 103.905,141.738 103.712,141.564 103.712 C 141.526 103.712,141.140 104.098,140.707 104.569 M191.034 104.740 C 191.037 105.243,191.084 105.421,191.138 105.137 C 191.193 104.853,191.191 104.442,191.134 104.223 C 191.076 104.005,191.032 104.238,191.034 104.740 M173.217 105.540 C 173.298 105.837,174.494 105.883,182.201 105.887 L 191.091 105.891 182.308 105.827 C 175.648 105.778,173.476 105.694,173.324 105.480 C 173.177 105.273,173.148 105.289,173.217 105.540 M266.362 105.768 L 262.364 105.899 266.291 105.948 C 268.717 105.978,270.273 105.909,270.360 105.768 C 270.437 105.642,270.469 105.562,270.430 105.589 C 270.392 105.616,268.561 105.696,266.362 105.768 M136.713 107.196 L 135.580 108.395 136.779 107.262 C 137.439 106.638,137.978 106.098,137.978 106.062 C 137.978 105.892,137.767 106.081,136.713 107.196 M262.073 109.918 C 262.035 112.893,261.947 113.984,261.736 114.069 C 261.512 114.159,261.514 114.188,261.743 114.202 C 262.222 114.232,262.265 113.812,262.193 109.757 L 262.124 105.882 262.073 109.918 M301.156 107.710 C 301.157 108.464,301.200 108.745,301.251 108.334 C 301.301 107.923,301.300 107.307,301.248 106.963 C 301.196 106.620,301.155 106.956,301.156 107.710 M137.750 107.710 C 137.195 108.275,136.792 108.738,136.855 108.738 C 136.918 108.738,137.423 108.275,137.978 107.710 C 138.533 107.144,138.936 106.682,138.873 106.682 C 138.810 106.682,138.305 107.144,137.750 107.710 M222.990 109.195 C 222.990 109.383,223.079 109.743,223.187 109.994 C 223.311 110.282,223.383 110.324,223.383 110.109 C 223.383 109.920,223.295 109.560,223.187 109.309 C 223.063 109.021,222.990 108.979,222.990 109.195 M228.814 110.394 L 228.403 111.136 228.874 110.565 C 229.291 110.059,229.477 109.652,229.290 109.652 C 229.254 109.652,229.040 109.986,228.814 110.394 M133.058 111.079 L 131.925 112.279 133.124 111.145 C 134.238 110.092,134.428 109.880,134.258 109.880 C 134.221 109.880,133.682 110.420,133.058 111.079 M218.777 110.687 C 218.424 110.997,218.226 111.251,218.337 111.251 C 218.448 111.251,218.780 110.994,219.075 110.680 C 219.758 109.953,219.607 109.957,218.777 110.687 M290.905 110.851 L 290.234 111.593 290.977 110.922 C 291.385 110.553,291.719 110.219,291.719 110.180 C 291.719 110.004,291.531 110.159,290.905 110.851 M137.579 110.507 C 138.552 110.550,140.146 110.550,141.119 110.507 C 142.093 110.464,141.296 110.429,139.349 110.429 C 137.401 110.429,136.605 110.464,137.579 110.507 M227.515 112.107 L 226.728 112.964 227.584 112.177 C 228.382 111.444,228.546 111.251,228.371 111.251 C 228.333 111.251,227.948 111.636,227.515 112.107 M82.619 112.317 C 82.536 112.401,82.469 112.580,82.471 112.717 C 82.473 112.884,82.528 112.880,82.642 112.705 C 82.734 112.562,83.015 112.394,83.267 112.332 C 83.709 112.221,83.708 112.217,83.248 112.191 C 82.986 112.176,82.703 112.233,82.619 112.317 M203.922 112.317 C 203.838 112.401,203.771 112.580,203.773 112.717 C 203.775 112.884,203.831 112.880,203.944 112.705 C 204.036 112.562,204.318 112.394,204.569 112.332 C 205.011 112.221,205.010 112.217,204.550 112.191 C 204.288 112.176,204.005 112.233,203.922 112.317 M211.878 112.324 C 212.255 112.385,212.648 112.553,212.752 112.699 C 212.880 112.878,212.912 112.853,212.850 112.621 C 212.793 112.410,212.457 112.266,211.976 112.247 C 211.259 112.217,211.251 112.224,211.878 112.324 M126.442 116.048 C 126.933 116.551,127.386 116.962,127.449 116.962 C 127.511 116.962,127.161 116.551,126.670 116.048 C 126.180 115.545,125.727 115.134,125.664 115.134 C 125.601 115.134,125.951 115.545,126.442 116.048 M297.305 116.562 L 296.402 117.533 297.373 116.630 C 297.907 116.133,298.344 115.696,298.344 115.659 C 298.344 115.486,298.145 115.659,297.305 116.562 M129.060 116.790 C 129.620 117.387,130.108 117.875,130.145 117.875 C 130.316 117.875,130.135 117.670,129.126 116.724 L 128.041 115.705 129.060 116.790 M298.901 116.562 L 298.230 117.304 298.972 116.633 C 299.380 116.264,299.714 115.930,299.714 115.891 C 299.714 115.715,299.526 115.870,298.901 116.562 M97.112 126.613 C 97.168 126.645,97.879 127.287,98.692 128.041 L 100.171 129.412 98.808 127.984 C 98.058 127.199,97.347 126.556,97.228 126.556 C 97.109 126.556,97.057 126.582,97.112 126.613 M88.007 130.382 C 89.483 130.422,91.899 130.422,93.375 130.382 C 94.852 130.342,93.644 130.310,90.691 130.310 C 87.738 130.310,86.531 130.342,88.007 130.382 M96.573 130.373 C 96.856 130.427,97.319 130.427,97.601 130.373 C 97.884 130.318,97.653 130.274,97.087 130.274 C 96.522 130.274,96.291 130.318,96.573 130.373 M104.484 132.153 L 104.512 133.067 107.653 133.077 L 110.794 133.087 107.724 133.013 L 104.653 132.940 104.555 132.090 L 104.457 131.239 104.484 132.153 M107.082 131.522 C 107.741 131.568,108.821 131.568,109.480 131.522 C 110.140 131.476,109.600 131.438,108.281 131.438 C 106.962 131.438,106.422 131.476,107.082 131.522 M113.807 131.513 C 114.767 131.596,114.888 131.670,114.971 132.222 C 115.054 132.781,115.061 132.775,115.041 132.153 C 115.021 131.489,114.984 131.467,113.878 131.444 L 112.736 131.421 113.807 131.513 M97.873 133.467 L 97.202 134.209 97.944 133.538 C 98.636 132.913,98.791 132.724,98.615 132.724 C 98.576 132.724,98.242 133.058,97.873 133.467 M112.765 133.133 C 112.704 133.233,113.032 133.277,113.494 133.231 C 114.758 133.106,114.909 132.991,113.834 132.971 C 113.308 132.961,112.827 133.034,112.765 133.133 M98.335 134.380 L 97.202 135.580 98.401 134.446 C 99.061 133.823,99.600 133.283,99.600 133.247 C 99.600 133.076,99.389 133.266,98.335 134.380 " stroke="none" fill="#7c7c7c" fill-rule="evenodd"></path><path id="path4" d="M96.227 99.143 C 96.227 99.583,96.274 99.763,96.331 99.543 C 96.389 99.323,96.389 98.963,96.331 98.744 C 96.274 98.524,96.227 98.704,96.227 99.143 M104.947 106.910 C 104.947 108.983,104.982 109.832,105.024 108.795 C 105.067 107.758,105.067 106.062,105.024 105.026 C 104.982 103.989,104.947 104.837,104.947 106.910 M301.158 105.083 C 301.158 105.899,301.200 106.234,301.250 105.825 C 301.301 105.417,301.301 104.749,301.250 104.340 C 301.200 103.932,301.158 104.266,301.158 105.083 M75.796 113.020 C 76.839 113.062,78.483 113.062,79.451 113.019 C 80.419 112.977,79.566 112.942,77.556 112.942 C 75.545 112.943,74.754 112.978,75.796 113.020 M84.705 113.020 C 85.748 113.062,87.393 113.062,88.360 113.019 C 89.328 112.977,88.475 112.942,86.465 112.942 C 84.455 112.943,83.663 112.978,84.705 113.020 M93.271 113.020 C 94.251 113.063,95.793 113.062,96.698 113.019 C 97.603 112.976,96.802 112.941,94.917 112.941 C 93.033 112.941,92.292 112.977,93.271 113.020 M101.713 113.020 C 102.687 113.062,104.280 113.062,105.254 113.020 C 106.228 112.977,105.431 112.942,103.484 112.942 C 101.536 112.942,100.740 112.977,101.713 113.020 M110.405 113.020 C 111.384 113.063,112.926 113.062,113.831 113.019 C 114.736 112.976,113.935 112.941,112.050 112.941 C 110.166 112.941,109.425 112.977,110.405 113.020 M135.308 113.021 C 137.043 113.060,139.818 113.059,141.476 113.020 C 143.133 112.981,141.713 112.950,138.321 112.950 C 134.929 112.950,133.573 112.982,135.308 113.021 M206.123 113.020 C 207.354 113.061,209.307 113.061,210.463 113.020 C 211.619 112.978,210.611 112.945,208.224 112.945 C 205.837 112.945,204.891 112.979,206.123 113.020 M112.717 127.013 C 112.717 129.463,112.751 130.465,112.792 129.240 C 112.833 128.015,112.833 126.011,112.792 124.786 C 112.751 123.561,112.717 124.563,112.717 127.013 M112.698 135.009 C 112.698 135.951,112.738 136.336,112.788 135.865 C 112.837 135.394,112.837 134.623,112.788 134.152 C 112.738 133.681,112.698 134.066,112.698 135.009 " stroke="none" fill="#848484" fill-rule="evenodd"></path></g></svg>