<svg id="svg" version="1.1" xmlns="http://www.w3.org/2000/svg" xmlns:xlink="http://www.w3.org/1999/xlink" width="400" height="200.41928721174003" viewBox="0, 0, 400,200.41928721174003"><g id="svgg"><path id="path0" d="M131.429 76.399 C 131.098 76.490,130.466 76.668,130.025 76.792 C 129.584 76.917,128.907 77.088,128.521 77.171 C 127.570 77.377,126.879 77.771,127.032 78.019 C 127.102 78.131,127.298 78.169,127.469 78.103 C 128.075 77.871,129.078 78.381,129.307 79.038 C 129.613 79.915,129.606 96.908,129.300 97.507 C 128.963 98.166,128.286 98.637,127.669 98.642 C 127.315 98.645,127.118 98.754,127.118 98.947 C 127.118 99.204,127.688 99.248,131.044 99.248 C 134.096 99.248,134.952 99.192,134.888 98.997 C 134.843 98.860,134.539 98.720,134.211 98.687 C 133.884 98.654,133.350 98.415,133.024 98.155 L 132.431 97.682 132.376 86.936 C 132.345 81.026,132.255 76.200,132.175 76.211 C 132.095 76.222,131.759 76.307,131.429 76.399 M139.011 76.385 C 137.473 77.031,138.131 79.610,139.829 79.593 C 141.903 79.571,142.088 76.638,140.037 76.298 C 139.713 76.245,139.252 76.284,139.011 76.385 M180.050 77.336 C 178.390 78.496,176.916 79.975,175.898 81.504 C 174.509 83.589,174.155 84.401,173.447 87.141 C 173.169 88.215,173.171 93.049,173.449 94.112 C 173.568 94.566,173.760 95.298,173.875 95.739 C 174.164 96.851,175.322 99.306,176.084 100.423 C 177.884 103.061,181.654 106.042,181.654 104.827 C 181.654 104.711,180.938 103.859,180.062 102.934 C 177.149 99.856,176.296 97.398,176.103 91.529 C 175.885 84.905,176.803 82.090,180.393 78.375 C 182.275 76.428,182.101 75.901,180.050 77.336 M243.709 76.641 C 242.043 77.215,240.956 78.043,240.109 79.385 C 239.570 80.239,238.741 82.755,238.909 83.027 C 239.178 83.462,239.591 83.127,240.108 82.055 C 241.040 80.125,242.276 79.171,244.110 78.965 C 244.667 78.902,246.617 79.222,246.617 79.375 C 246.617 79.445,246.867 79.612,247.174 79.748 C 248.257 80.227,249.095 82.006,249.075 83.786 C 249.058 85.352,248.064 88.622,247.604 88.622 C 247.502 88.622,247.419 88.718,247.419 88.836 C 247.419 89.396,245.789 91.344,241.895 95.439 C 239.236 98.235,238.801 98.735,238.799 98.997 C 238.797 99.193,240.249 99.248,245.391 99.248 L 251.986 99.248 252.811 97.193 C 254.038 94.137,253.958 93.845,252.356 95.539 L 251.313 96.642 247.072 96.642 C 244.572 96.642,242.782 96.562,242.711 96.449 C 242.646 96.343,243.385 95.415,244.354 94.387 C 247.970 90.551,248.740 89.704,249.325 88.922 C 249.655 88.481,249.992 88.090,250.075 88.053 C 250.158 88.017,250.226 87.895,250.226 87.784 C 250.226 87.672,250.391 87.341,250.592 87.048 C 252.939 83.644,252.105 78.519,248.978 77.124 C 247.276 76.366,245.090 76.165,243.709 76.641 M256.083 76.629 C 255.900 76.812,256.160 77.172,257.218 78.198 C 260.480 81.365,261.388 83.840,261.588 90.118 C 261.811 97.125,260.551 100.688,256.685 103.974 C 255.322 105.133,255.881 105.522,257.413 104.481 C 260.041 102.696,262.709 99.432,263.410 97.143 C 263.545 96.702,263.844 95.735,264.073 94.995 C 264.634 93.187,264.457 86.485,263.838 86.102 C 263.740 86.041,263.659 85.815,263.659 85.599 C 263.659 85.384,263.581 85.051,263.484 84.859 C 263.388 84.668,263.015 83.925,262.656 83.208 C 261.460 80.827,260.075 79.177,257.732 77.342 C 256.379 76.283,256.413 76.298,256.083 76.629 M217.721 81.042 C 217.708 81.186,217.676 83.094,217.650 85.283 C 217.612 88.432,217.544 89.301,217.322 89.441 C 217.169 89.538,215.217 89.619,212.986 89.621 L 208.930 89.624 208.810 90.101 C 208.744 90.363,208.720 90.837,208.756 91.154 L 208.822 91.729 213.183 91.783 C 217.150 91.833,217.546 91.869,217.572 92.184 C 217.587 92.375,217.610 94.336,217.622 96.541 L 217.644 100.551 218.647 100.551 L 219.649 100.551 219.759 96.241 C 219.820 93.870,219.888 91.909,219.910 91.884 C 219.932 91.858,221.867 91.813,224.211 91.783 L 228.471 91.729 228.471 90.727 L 228.471 89.724 224.332 89.670 C 221.223 89.630,220.139 89.551,219.975 89.354 C 219.839 89.190,219.738 87.566,219.704 84.997 L 219.649 80.902 218.697 80.841 C 218.025 80.798,217.737 80.857,217.721 81.042 M154.787 83.836 C 153.636 84.082,152.327 84.731,151.755 85.339 C 151.065 86.073,150.777 85.951,150.777 84.924 C 150.777 83.631,150.135 83.650,146.308 85.062 C 145.588 85.328,145.717 85.714,146.526 85.714 C 147.834 85.714,147.863 85.839,147.929 91.772 C 148.001 98.148,147.917 98.479,146.181 98.688 C 145.914 98.721,145.658 98.860,145.613 98.997 C 145.549 99.192,146.365 99.248,149.256 99.248 C 152.435 99.248,152.982 99.204,152.982 98.947 C 152.982 98.763,152.795 98.647,152.498 98.647 C 150.898 98.647,150.777 98.207,150.777 92.410 L 150.777 87.557 151.542 86.829 C 152.640 85.785,154.426 85.257,155.435 85.679 C 156.794 86.247,156.884 86.647,156.954 92.439 C 157.025 98.289,156.940 98.647,155.474 98.647 C 154.997 98.647,154.787 98.739,154.787 98.947 C 154.787 99.204,155.333 99.248,158.496 99.248 C 161.660 99.248,162.206 99.204,162.206 98.947 C 162.206 98.754,162.008 98.644,161.654 98.640 C 160.133 98.623,159.927 97.933,159.846 92.573 C 159.762 86.986,160.053 86.261,162.639 85.610 C 165.445 84.904,166.212 86.457,166.203 92.832 C 166.196 97.567,165.878 98.628,164.461 98.642 C 164.196 98.645,164.010 98.770,164.010 98.947 C 164.010 99.204,164.545 99.248,167.619 99.248 C 170.693 99.248,171.228 99.204,171.228 98.947 C 171.228 98.739,171.018 98.647,170.541 98.647 C 169.170 98.647,169.095 98.354,168.963 92.490 C 168.844 87.199,168.732 86.394,167.936 85.078 C 166.748 83.115,163.094 83.377,160.501 85.610 C 159.789 86.224,159.404 86.256,159.200 85.721 C 158.934 85.019,157.880 84.077,157.212 83.944 C 156.896 83.881,156.425 83.787,156.164 83.737 C 155.903 83.686,155.283 83.731,154.787 83.836 M140.451 83.953 C 140.231 84.008,139.960 84.117,139.850 84.195 C 139.739 84.273,138.972 84.550,138.145 84.812 C 135.957 85.504,135.523 86.015,137.124 86.015 C 138.571 86.015,138.637 86.233,138.718 91.316 C 138.819 97.649,138.538 98.647,136.649 98.647 C 136.152 98.647,135.940 98.737,135.940 98.947 C 135.940 99.205,136.521 99.248,139.967 99.248 C 143.098 99.248,143.975 99.192,143.911 98.997 C 143.866 98.860,143.554 98.719,143.217 98.686 C 142.881 98.652,142.392 98.397,142.130 98.119 L 141.654 97.612 141.554 90.764 C 141.446 83.411,141.492 83.691,140.451 83.953 M187.669 84.612 C 187.504 84.718,187.164 84.807,186.915 84.809 C 186.665 84.811,186.304 84.896,186.113 84.998 C 185.921 85.100,185.607 85.233,185.414 85.292 C 185.221 85.352,185.063 85.549,185.063 85.729 C 185.063 85.947,185.170 86.017,185.381 85.936 C 187.627 85.074,187.983 85.486,189.062 90.186 L 189.490 92.051 188.561 93.381 C 185.596 97.622,185.343 97.851,184.169 97.360 C 182.705 96.748,182.055 97.025,182.055 98.261 C 182.055 99.160,182.392 99.469,183.509 99.591 C 184.730 99.725,185.419 99.177,187.602 96.335 C 189.726 93.571,189.838 93.519,190.212 95.138 C 191.177 99.312,191.695 100.008,193.445 99.484 C 194.531 99.159,197.171 96.186,196.749 95.764 C 196.463 95.478,196.113 95.685,195.616 96.436 C 194.178 98.609,193.537 98.154,192.578 94.279 C 191.661 90.568,191.669 90.358,192.798 88.710 C 194.449 86.297,194.569 86.234,196.548 86.727 C 197.650 87.002,198.384 85.517,197.528 84.743 C 196.396 83.718,194.487 84.763,192.635 87.419 C 191.633 88.856,191.211 88.867,191.014 87.461 C 190.635 84.763,189.255 83.587,187.669 84.612 M164.159 109.655 C 162.269 110.671,161.516 111.244,162.406 110.989 C 164.521 110.382,164.411 110.040,164.411 117.190 C 164.411 123.728,164.315 124.311,163.232 124.311 C 163.040 124.311,162.709 124.443,162.494 124.605 C 162.147 124.868,162.472 124.900,165.504 124.906 C 168.861 124.912,169.301 124.800,167.702 124.346 C 166.418 123.982,166.416 123.970,166.416 115.880 C 166.416 110.236,166.362 108.676,166.165 108.692 C 166.028 108.703,165.125 109.137,164.159 109.655 M129.202 114.570 C 127.807 115.007,127.717 115.178,128.822 115.288 C 129.915 115.398,130.037 115.577,130.531 117.794 C 130.629 118.236,130.768 118.839,130.839 119.135 C 131.117 120.289,128.171 123.871,127.237 123.516 C 125.904 123.009,124.912 123.940,125.917 124.754 C 126.941 125.583,128.139 124.928,129.661 122.707 C 130.603 121.332,131.085 120.941,131.240 121.426 C 131.307 121.634,131.444 122.012,131.545 122.265 C 131.646 122.518,131.729 122.903,131.729 123.120 C 131.729 123.337,131.813 123.671,131.915 123.862 C 132.017 124.054,132.147 124.360,132.202 124.542 C 132.525 125.598,134.260 125.088,135.380 123.609 C 136.486 122.147,136.277 121.679,135.111 123.008 C 134.028 124.241,133.709 123.879,132.937 120.540 L 132.506 118.675 133.009 117.816 C 134.083 115.985,134.882 115.431,135.769 115.906 C 136.523 116.309,137.314 115.139,136.702 114.526 C 136.030 113.854,134.551 114.568,133.419 116.110 C 132.457 117.420,132.261 117.338,131.847 115.453 C 131.596 114.311,130.838 114.058,129.202 114.570 M151.579 114.546 C 151.579 114.690,152.030 115.313,152.581 115.932 C 154.411 117.984,154.737 117.882,146.216 117.942 L 138.847 117.995 138.847 118.697 L 138.847 119.398 145.948 119.451 C 154.492 119.515,154.518 119.523,152.581 121.642 C 152.030 122.245,151.579 122.867,151.579 123.024 C 151.579 123.625,152.372 123.264,153.328 122.227 C 154.465 120.995,155.886 119.862,156.900 119.381 C 157.824 118.943,157.775 118.658,156.682 118.112 C 156.181 117.862,154.974 116.898,154.000 115.971 C 152.335 114.387,151.579 113.942,151.579 114.546 " stroke="none" fill="#0e0e0e" fill-rule="evenodd"></path><path id="path1" d="M0.000 100.251 L 0.000 200.501 200.000 200.501 L 400.000 200.501 400.000 100.251 L 400.000 0.000 200.000 0.000 L 0.000 0.000 0.000 100.251 M132.610 76.107 C 132.677 76.281,132.732 81.059,132.732 86.724 C 132.732 98.514,132.720 98.446,134.690 98.446 C 135.089 98.446,135.154 98.533,135.101 98.997 L 135.038 99.549 131.429 99.608 C 127.084 99.679,126.466 99.600,126.554 98.988 C 126.590 98.735,126.785 98.523,127.018 98.485 C 129.141 98.136,129.123 98.224,129.123 88.221 C 129.123 78.356,129.166 78.643,127.678 78.557 C 126.735 78.503,126.609 78.443,126.549 78.022 C 126.442 77.265,126.580 77.190,129.023 76.686 C 129.353 76.617,129.805 76.490,130.025 76.403 C 131.711 75.736,132.436 75.653,132.610 76.107 M141.084 76.301 C 141.985 76.988,142.075 78.646,141.252 79.362 C 139.917 80.523,137.744 79.607,137.744 77.883 C 137.744 76.072,139.619 75.184,141.084 76.301 M248.120 76.390 C 248.231 76.470,248.554 76.592,248.839 76.660 C 253.122 77.679,253.368 85.680,249.237 89.624 C 249.064 89.789,248.501 90.421,247.986 91.028 C 247.471 91.634,246.193 93.030,245.145 94.130 C 244.097 95.230,243.291 96.212,243.352 96.312 C 243.416 96.415,245.028 96.452,247.097 96.397 C 251.155 96.290,251.621 96.164,252.447 94.951 C 253.207 93.836,254.591 94.012,254.059 95.157 C 253.935 95.422,253.755 95.842,253.658 96.090 C 252.718 98.484,252.323 99.371,252.143 99.496 C 251.888 99.672,239.168 99.702,238.713 99.527 C 238.169 99.319,238.362 98.659,239.248 97.701 C 240.140 96.736,240.312 96.554,242.910 93.821 C 245.209 91.401,246.468 89.922,246.986 89.030 C 249.363 84.942,249.275 81.600,246.746 79.881 C 245.991 79.368,242.807 79.140,242.807 79.599 C 242.807 79.709,242.681 79.799,242.526 79.799 C 242.162 79.799,240.802 81.159,240.802 81.524 C 240.802 81.678,240.712 81.805,240.602 81.805 C 240.491 81.805,240.401 81.926,240.401 82.074 C 240.401 82.878,239.759 83.631,239.128 83.570 C 237.389 83.401,239.736 78.072,242.033 76.970 C 243.457 76.288,243.736 76.198,244.612 76.142 C 245.823 76.064,247.872 76.209,248.120 76.390 M182.017 76.725 C 182.061 77.037,181.718 77.519,180.802 78.430 C 179.581 79.643,178.182 81.537,177.716 82.607 C 176.929 84.412,176.881 84.615,176.619 87.218 C 176.315 90.230,176.439 93.803,176.945 96.642 C 177.071 97.350,177.123 97.498,177.750 98.947 C 178.318 100.262,179.625 102.080,180.878 103.302 C 182.096 104.488,182.328 105.103,181.688 105.445 C 181.076 105.773,178.351 103.922,177.173 102.377 C 176.884 101.999,176.519 101.560,176.362 101.404 C 175.607 100.648,173.835 97.389,173.835 96.756 C 173.835 96.596,173.754 96.415,173.656 96.355 C 172.848 95.855,172.533 88.578,173.226 86.416 C 173.315 86.140,173.506 85.509,173.652 85.013 C 174.187 83.190,175.437 81.221,177.305 79.260 C 179.817 76.621,181.847 75.530,182.017 76.725 M257.938 76.987 C 260.539 78.994,263.860 83.497,263.860 85.018 C 263.860 85.222,263.950 85.446,264.060 85.514 C 264.170 85.582,264.261 85.898,264.261 86.216 C 264.261 86.533,264.338 86.841,264.432 86.899 C 264.995 87.247,264.994 94.608,264.431 94.956 C 264.337 95.014,264.261 95.321,264.261 95.639 C 264.261 95.957,264.170 96.273,264.060 96.341 C 263.950 96.409,263.860 96.633,263.860 96.838 C 263.860 98.935,257.847 105.663,256.185 105.427 C 255.269 105.296,255.525 104.562,256.956 103.217 C 258.233 102.016,259.850 99.916,259.850 99.457 C 259.850 99.339,259.929 99.086,260.027 98.895 C 260.368 98.224,260.623 97.539,260.752 96.942 C 261.471 93.641,261.270 85.622,260.427 83.963 C 260.330 83.771,260.251 83.491,260.251 83.339 C 260.251 82.557,258.827 80.379,257.293 78.813 C 255.773 77.262,255.417 76.680,255.773 76.324 C 256.110 75.987,256.992 76.257,257.938 76.987 M220.104 84.858 L 220.158 89.215 224.515 89.269 L 228.872 89.323 228.931 90.677 C 229.003 92.317,229.645 92.090,224.561 92.220 L 220.251 92.331 220.150 96.642 L 220.050 100.952 218.880 101.013 C 217.092 101.106,217.143 101.241,217.143 96.417 L 217.143 92.231 212.972 92.231 C 208.249 92.231,208.321 92.254,208.321 90.727 C 208.321 89.200,208.249 89.223,212.972 89.223 L 217.143 89.223 217.143 84.929 C 217.143 80.090,217.023 80.404,218.847 80.463 L 220.050 80.501 220.104 84.858 M141.797 90.276 C 141.879 98.216,141.864 98.157,143.860 98.485 C 144.092 98.523,144.287 98.735,144.323 98.988 C 144.411 99.600,143.793 99.679,139.449 99.608 L 135.840 99.549 135.776 98.997 C 135.721 98.520,135.783 98.446,136.237 98.446 C 138.096 98.446,138.231 97.994,138.239 91.772 C 138.246 86.170,138.321 86.424,136.678 86.419 C 135.673 86.416,135.309 85.600,136.140 85.214 C 136.306 85.138,136.643 84.971,136.890 84.843 C 137.136 84.716,137.514 84.612,137.730 84.612 C 137.945 84.612,138.166 84.539,138.221 84.451 C 138.276 84.362,138.783 84.164,139.348 84.010 C 139.914 83.856,140.421 83.658,140.476 83.569 C 140.530 83.481,140.834 83.409,141.151 83.409 L 141.726 83.409 141.797 90.276 M150.977 84.311 C 150.977 85.236,151.143 85.403,151.623 84.962 C 151.894 84.713,152.422 84.390,153.183 84.010 C 153.404 83.900,153.763 83.719,153.982 83.609 C 155.596 82.797,159.398 84.054,159.398 85.400 C 159.398 85.826,159.760 85.760,160.395 85.218 C 160.764 84.903,161.300 84.525,161.586 84.378 C 161.872 84.231,162.150 84.065,162.206 84.009 C 162.717 83.491,166.241 83.163,166.516 83.609 C 166.584 83.719,166.779 83.810,166.949 83.810 C 168.600 83.810,169.398 86.875,169.413 93.285 C 169.425 98.151,169.446 98.224,170.878 98.446 C 171.574 98.554,171.883 99.164,171.398 99.472 C 171.006 99.720,164.265 99.692,163.794 99.440 C 163.363 99.209,163.580 98.446,164.077 98.446 C 165.537 98.446,165.812 97.570,165.813 92.919 C 165.815 88.921,165.584 87.137,164.982 86.488 C 164.086 85.524,162.204 85.769,160.960 87.013 L 160.201 87.772 160.205 91.956 C 160.212 97.538,160.439 98.320,162.105 98.486 C 162.884 98.564,163.077 99.330,162.366 99.520 C 161.312 99.802,154.847 99.662,154.589 99.351 C 154.206 98.890,154.497 98.446,155.182 98.446 C 155.516 98.446,155.789 98.356,155.789 98.246 C 155.789 98.135,155.915 98.045,156.069 98.045 C 156.544 98.045,156.591 97.557,156.591 92.640 C 156.591 85.939,156.045 84.996,152.954 86.364 C 151.137 87.167,151.178 87.023,151.178 92.579 L 151.178 97.463 151.708 97.954 C 152.017 98.240,152.481 98.446,152.818 98.446 C 153.541 98.446,153.806 98.991,153.272 99.382 C 152.976 99.597,152.084 99.646,149.179 99.603 L 145.464 99.549 145.400 98.997 C 145.344 98.512,145.405 98.446,145.901 98.442 C 146.212 98.439,146.692 98.264,146.967 98.052 L 147.469 97.667 147.469 92.034 C 147.469 85.972,147.452 85.874,146.432 86.113 C 145.778 86.266,145.363 86.028,145.363 85.499 C 145.363 84.971,145.881 84.612,146.642 84.612 C 146.918 84.612,147.200 84.521,147.268 84.411 C 147.336 84.301,147.607 84.211,147.870 84.211 C 148.132 84.211,148.403 84.120,148.471 84.010 C 148.539 83.900,148.810 83.810,149.073 83.810 C 149.335 83.810,149.606 83.719,149.674 83.609 C 150.091 82.934,150.977 83.411,150.977 84.311 M190.526 84.559 C 190.719 84.732,190.877 85.080,190.877 85.333 C 190.877 85.585,190.967 85.847,191.078 85.915 C 191.188 85.983,191.278 86.310,191.278 86.642 C 191.278 88.071,191.629 88.133,192.560 86.867 C 193.722 85.289,195.003 84.218,195.775 84.180 C 197.553 84.093,198.296 84.509,198.296 85.592 C 198.296 86.844,197.263 87.413,195.865 86.931 C 194.831 86.575,194.013 87.263,192.594 89.686 L 192.059 90.597 192.846 93.763 C 193.823 97.699,193.913 97.785,195.373 96.161 C 196.432 94.982,196.696 94.898,197.081 95.618 C 197.430 96.270,194.966 99.401,193.736 99.868 C 192.558 100.316,191.336 99.845,190.901 98.778 C 190.759 98.430,190.567 97.965,190.473 97.744 C 190.380 97.524,190.256 97.073,190.199 96.742 C 189.734 94.071,189.670 94.036,188.423 95.799 C 187.900 96.538,187.201 97.459,186.869 97.845 C 186.538 98.231,186.266 98.616,186.266 98.701 C 186.264 99.541,183.457 100.308,182.485 99.734 C 181.706 99.275,181.058 97.644,181.654 97.644 C 181.764 97.644,181.855 97.514,181.855 97.355 C 181.855 96.792,183.836 96.537,184.334 97.036 C 184.710 97.412,185.220 97.253,185.760 96.591 C 186.054 96.233,186.423 95.781,186.580 95.587 C 186.738 95.392,186.867 95.152,186.867 95.052 C 186.867 94.952,186.944 94.840,187.037 94.804 C 187.131 94.767,187.627 94.102,188.140 93.327 L 189.073 91.917 188.802 90.821 C 188.653 90.218,188.416 89.183,188.275 88.521 C 187.756 86.088,187.531 85.865,185.955 86.218 C 185.204 86.386,184.960 86.376,184.828 86.174 C 184.530 85.716,184.736 85.117,185.213 85.049 C 185.461 85.013,185.664 84.901,185.664 84.798 C 185.664 84.695,185.917 84.612,186.226 84.612 C 186.534 84.612,186.873 84.527,186.977 84.424 C 187.467 83.944,189.946 84.038,190.526 84.559 M166.777 108.511 C 166.955 108.690,167.018 110.679,167.018 116.219 C 167.018 124.333,166.951 123.898,168.214 124.101 C 168.751 124.188,168.938 124.324,168.986 124.664 L 169.050 125.113 165.414 125.113 L 161.777 125.113 161.841 124.664 C 161.879 124.398,162.069 124.189,162.306 124.151 C 164.135 123.862,164.211 123.583,164.211 117.115 C 164.211 111.009,164.220 111.048,162.805 111.216 C 161.850 111.329,161.805 111.312,161.809 110.855 C 161.816 110.065,166.243 107.977,166.777 108.511 M153.941 115.446 C 154.933 116.415,156.162 117.422,156.672 117.684 C 158.171 118.455,158.344 118.995,157.283 119.586 C 155.963 120.321,154.902 121.138,153.541 122.471 C 152.018 123.963,151.989 123.980,151.587 123.616 C 150.980 123.067,151.068 122.794,152.305 121.384 L 153.432 120.100 146.256 120.100 C 138.192 120.100,138.346 120.128,138.346 118.687 C 138.346 117.659,138.069 117.694,146.082 117.694 C 154.035 117.694,153.746 117.759,152.398 116.285 C 151.203 114.977,151.035 114.576,151.477 114.087 C 151.989 113.521,151.944 113.496,153.941 115.446 M131.722 114.324 C 131.946 114.565,132.130 114.920,132.130 115.112 C 132.130 115.305,132.225 115.710,132.340 116.013 L 132.549 116.564 133.463 115.520 C 135.193 113.542,137.210 113.302,137.210 115.073 C 137.210 116.034,136.807 116.348,135.709 116.243 C 134.586 116.135,134.579 116.138,133.805 117.293 C 132.916 118.620,132.910 118.682,133.481 120.988 C 134.059 123.325,134.396 123.647,135.069 122.506 C 135.539 121.712,136.341 121.661,136.341 122.425 C 136.341 123.160,134.891 125.113,134.345 125.113 C 134.230 125.113,134.135 125.203,134.135 125.313 C 134.135 125.424,133.779 125.514,133.344 125.514 C 132.431 125.514,131.529 124.588,131.529 123.652 C 131.529 123.366,131.439 123.076,131.328 123.008 C 131.218 122.939,131.128 122.567,131.128 122.179 C 131.128 121.361,130.992 121.448,129.985 122.907 C 128.338 125.293,126.737 126.139,125.680 125.182 C 124.627 124.229,125.546 122.678,126.937 123.058 C 127.886 123.318,128.003 123.245,129.068 121.737 C 129.587 121.002,130.097 120.341,130.202 120.268 C 130.430 120.109,130.391 118.448,130.139 117.599 C 130.040 117.265,129.884 116.731,129.792 116.412 C 129.557 115.597,129.078 115.337,128.441 115.679 C 127.899 115.968,127.318 115.719,127.318 115.197 C 127.318 114.268,130.991 113.539,131.722 114.324 " stroke="none" fill="#fbfbfb" fill-rule="evenodd"></path><path id="path2" d="M246.466 76.329 C 246.659 76.379,246.975 76.379,247.168 76.329 C 247.361 76.278,247.203 76.237,246.817 76.237 C 246.431 76.237,246.273 76.278,246.466 76.329 M218.198 80.545 C 218.503 80.591,218.954 80.590,219.201 80.542 C 219.447 80.495,219.198 80.457,218.647 80.458 C 218.095 80.460,217.893 80.499,218.198 80.545 M217.429 85.013 C 217.429 87.383,217.458 88.353,217.493 87.168 C 217.528 85.982,217.528 84.043,217.493 82.857 C 217.458 81.672,217.429 82.642,217.429 85.013 M219.990 84.951 C 219.968 87.287,220.018 89.241,220.100 89.293 C 220.183 89.344,220.227 88.109,220.199 86.548 C 220.101 81.236,220.031 80.693,219.990 84.951 M155.241 83.552 C 155.546 83.598,155.997 83.597,156.243 83.550 C 156.490 83.502,156.241 83.464,155.689 83.466 C 155.138 83.467,154.936 83.506,155.241 83.552 M154.236 85.752 C 154.429 85.803,154.744 85.803,154.937 85.752 C 155.130 85.702,154.972 85.661,154.586 85.661 C 154.201 85.661,154.043 85.702,154.236 85.752 M169.107 92.632 C 169.107 94.892,169.136 95.817,169.172 94.687 C 169.208 93.556,169.208 91.707,169.172 90.576 C 169.136 89.446,169.107 90.371,169.107 92.632 M228.834 90.727 C 228.835 91.388,228.873 91.635,228.917 91.275 C 228.962 90.914,228.961 90.373,228.915 90.072 C 228.869 89.770,228.833 90.065,228.834 90.727 M172.883 90.727 C 172.885 91.168,172.926 91.325,172.974 91.075 C 173.022 90.826,173.020 90.465,172.970 90.273 C 172.920 90.082,172.880 90.286,172.883 90.727 M217.383 96.479 C 217.361 98.761,217.411 100.670,217.494 100.721 C 217.576 100.773,217.621 99.537,217.592 97.976 C 217.498 92.810,217.424 92.277,217.383 96.479 M219.949 96.582 C 219.895 98.920,219.919 100.763,220.004 100.678 C 220.089 100.593,220.134 98.680,220.104 96.427 L 220.049 92.331 219.949 96.582 M241.593 95.388 L 240.902 96.140 241.654 95.449 C 242.068 95.069,242.406 94.731,242.406 94.698 C 242.406 94.544,242.236 94.689,241.593 95.388 M145.433 98.756 C 145.367 98.926,145.370 99.121,145.439 99.190 C 145.508 99.259,145.564 99.171,145.564 98.995 C 145.564 98.820,145.722 98.635,145.915 98.584 C 146.244 98.498,146.243 98.491,145.908 98.469 C 145.712 98.457,145.498 98.585,145.433 98.756 M166.616 115.749 L 166.717 123.008 166.769 115.902 C 166.798 111.995,166.753 108.728,166.669 108.644 C 166.585 108.560,166.561 111.757,166.616 115.749 M152.180 115.952 C 152.180 115.987,152.474 116.280,152.832 116.604 L 153.484 117.193 152.895 116.541 C 152.346 115.934,152.180 115.798,152.180 115.952 M142.519 117.844 C 144.539 117.877,147.787 117.877,149.737 117.844 C 151.688 117.811,150.035 117.785,146.065 117.785 C 142.095 117.785,140.500 117.812,142.519 117.844 M138.562 118.635 C 138.553 119.097,138.618 119.519,138.705 119.573 C 138.792 119.627,138.831 119.339,138.791 118.933 C 138.681 117.824,138.580 117.692,138.562 118.635 M142.493 119.849 C 144.388 119.882,147.546 119.882,149.511 119.849 C 151.475 119.817,149.925 119.790,146.065 119.790 C 142.206 119.789,140.598 119.816,142.493 119.849 " stroke="none" fill="#a0a0a0" fill-rule="evenodd"></path><path id="path3" d="M260.050 79.298 C 260.424 79.684,260.775 80.000,260.831 80.000 C 260.886 80.000,260.625 79.684,260.251 79.298 C 259.877 78.912,259.525 78.596,259.470 78.596 C 259.415 78.596,259.676 78.912,260.050 79.298 M129.414 87.318 C 129.414 91.288,129.441 92.941,129.473 90.990 C 129.506 89.040,129.506 85.792,129.473 83.772 C 129.441 81.753,129.414 83.348,129.414 87.318 M141.643 90.025 C 141.643 93.388,141.670 94.764,141.704 93.083 C 141.737 91.401,141.737 88.649,141.704 86.967 C 141.670 85.286,141.643 86.662,141.643 90.025 M150.828 84.712 C 150.830 85.153,150.871 85.310,150.919 85.060 C 150.967 84.811,150.965 84.450,150.915 84.258 C 150.865 84.067,150.825 84.271,150.828 84.712 M138.432 92.030 C 138.432 94.622,138.461 95.682,138.496 94.386 C 138.531 93.090,138.531 90.970,138.496 89.674 C 138.461 88.378,138.432 89.439,138.432 92.030 M147.855 92.130 C 147.855 94.556,147.884 95.521,147.919 94.275 C 147.954 93.028,147.954 91.043,147.919 89.864 C 147.884 88.684,147.855 89.704,147.855 92.130 M160.085 92.130 C 160.086 94.556,160.115 95.521,160.150 94.275 C 160.185 93.028,160.185 91.043,160.150 89.864 C 160.114 88.684,160.085 89.704,160.085 92.130 M176.087 90.627 C 176.087 91.013,176.128 91.170,176.178 90.977 C 176.229 90.784,176.229 90.469,176.178 90.276 C 176.128 90.083,176.087 90.241,176.087 90.627 M208.576 90.827 C 208.576 91.323,208.615 91.526,208.663 91.278 C 208.711 91.030,208.711 90.624,208.663 90.376 C 208.615 90.128,208.576 90.331,208.576 90.827 M261.508 91.028 C 261.508 91.524,261.547 91.727,261.595 91.479 C 261.643 91.231,261.643 90.825,261.595 90.576 C 261.547 90.328,261.508 90.531,261.508 91.028 M156.872 93.434 C 156.872 95.033,156.903 95.687,156.941 94.887 C 156.979 94.088,156.979 92.779,156.941 91.980 C 156.903 91.180,156.872 91.835,156.872 93.434 M210.877 91.979 C 212.008 92.015,213.857 92.015,214.987 91.979 C 216.118 91.943,215.193 91.914,212.932 91.914 C 210.672 91.914,209.747 91.943,210.877 91.979 M222.306 91.979 C 223.436 92.015,225.286 92.015,226.416 91.979 C 227.546 91.943,226.622 91.914,224.361 91.914 C 222.100 91.914,221.175 91.943,222.306 91.979 M244.862 96.590 C 245.827 96.627,247.406 96.627,248.371 96.590 C 249.336 96.554,248.546 96.524,246.617 96.524 C 244.687 96.524,243.897 96.554,244.862 96.590 M164.261 112.180 C 164.263 112.622,164.304 112.778,164.352 112.529 C 164.400 112.280,164.398 111.919,164.348 111.727 C 164.298 111.535,164.259 111.739,164.261 112.180 M164.297 117.895 C 164.297 120.596,164.326 121.702,164.360 120.351 C 164.395 119.000,164.395 116.789,164.360 115.439 C 164.326 114.088,164.297 115.193,164.297 117.895 M163.969 125.062 C 164.884 125.099,166.328 125.099,167.177 125.061 C 168.027 125.024,167.278 124.993,165.514 124.993 C 163.749 124.994,163.054 125.024,163.969 125.062 " stroke="none" fill="#848484" fill-rule="evenodd"></path><path id="path4" d="M131.629 76.208 C 131.297 76.365,131.323 76.379,131.778 76.290 L 132.327 76.184 132.382 86.663 L 132.436 97.143 132.434 86.633 C 132.432 79.797,132.361 76.105,132.231 76.072 C 132.120 76.043,131.850 76.105,131.629 76.208 M139.210 76.139 C 139.070 76.233,139.293 76.300,139.745 76.300 C 140.217 76.300,140.702 76.452,140.986 76.689 L 141.454 77.078 141.052 76.639 C 140.614 76.161,139.591 75.884,139.210 76.139 M138.257 76.837 C 137.931 77.303,137.830 78.502,138.103 78.671 C 138.191 78.725,138.226 78.459,138.182 78.080 C 138.132 77.658,138.228 77.196,138.429 76.891 C 138.834 76.272,138.686 76.225,138.257 76.837 M181.042 77.744 L 180.351 78.496 181.103 77.805 C 181.803 77.162,181.947 76.992,181.794 76.992 C 181.760 76.992,181.422 77.331,181.042 77.744 M127.168 77.438 C 126.743 77.643,126.540 78.170,126.867 78.217 C 126.950 78.230,127.294 78.263,127.632 78.292 C 127.970 78.321,128.466 78.401,128.735 78.469 C 129.119 78.566,129.095 78.530,128.622 78.298 C 128.291 78.136,127.823 78.047,127.581 78.101 C 126.913 78.247,126.834 77.852,127.463 77.511 C 128.097 77.167,127.854 77.107,127.168 77.438 M241.342 77.701 C 240.605 78.349,240.869 78.344,241.641 77.694 C 241.968 77.419,242.162 77.196,242.071 77.199 C 241.979 77.203,241.652 77.428,241.342 77.701 M249.424 77.266 C 249.424 77.321,249.694 77.559,250.025 77.794 C 250.356 78.030,250.627 78.178,250.627 78.123 C 250.627 78.067,250.356 77.830,250.025 77.594 C 249.694 77.358,249.424 77.211,249.424 77.266 M257.461 78.520 C 257.727 78.864,257.985 79.109,258.034 79.065 C 258.084 79.021,257.866 78.740,257.550 78.440 L 256.977 77.895 257.461 78.520 M179.536 79.248 L 178.947 79.900 179.599 79.311 C 179.957 78.987,180.251 78.694,180.251 78.659 C 180.251 78.504,180.085 78.641,179.536 79.248 M177.345 79.396 C 177.030 79.726,176.810 80.028,176.857 80.067 C 176.904 80.106,177.199 79.836,177.513 79.468 C 178.223 78.635,178.118 78.590,177.345 79.396 M243.810 78.991 C 243.446 79.095,243.600 79.137,244.371 79.143 C 244.956 79.148,245.407 79.130,245.374 79.103 C 245.168 78.936,244.233 78.869,243.810 78.991 M251.518 79.950 C 251.676 80.363,251.846 80.882,251.895 81.103 C 251.979 81.481,251.985 81.480,252.007 81.077 C 252.030 80.648,251.506 79.198,251.327 79.198 C 251.274 79.198,251.361 79.536,251.518 79.950 M241.648 79.950 C 241.168 80.419,241.160 80.442,241.594 80.103 C 242.450 79.437,242.491 79.398,242.349 79.398 C 242.274 79.398,241.958 79.647,241.648 79.950 M178.236 80.916 C 177.889 81.420,177.637 81.864,177.675 81.903 C 177.714 81.941,178.039 81.529,178.398 80.986 C 179.221 79.743,179.084 79.684,178.236 80.916 M176.040 81.003 C 175.805 81.333,175.657 81.604,175.712 81.604 C 175.767 81.604,176.005 81.333,176.241 81.003 C 176.476 80.672,176.624 80.401,176.569 80.401 C 176.514 80.401,176.276 80.672,176.040 81.003 M217.617 80.900 C 217.550 81.076,217.551 81.277,217.619 81.345 C 217.688 81.414,217.744 81.315,217.744 81.125 C 217.744 80.839,217.906 80.790,218.697 80.841 L 219.649 80.902 219.704 84.997 C 219.738 87.566,219.839 89.190,219.975 89.354 C 220.139 89.551,221.223 89.630,224.332 89.670 L 228.471 89.724 228.471 90.777 C 228.471 91.356,228.543 91.830,228.632 91.830 C 228.720 91.830,228.765 91.311,228.732 90.677 L 228.672 89.524 224.361 89.424 L 220.050 89.323 219.950 85.013 L 219.850 80.702 218.795 80.641 C 217.976 80.594,217.712 80.652,217.617 80.900 M238.724 82.506 C 238.477 83.152,239.327 83.810,239.677 83.243 C 239.734 83.152,239.581 83.085,239.338 83.093 C 238.997 83.104,238.908 83.006,238.945 82.657 C 239.000 82.139,238.893 82.066,238.724 82.506 M251.860 83.743 C 251.843 84.092,251.647 84.804,251.424 85.325 C 251.200 85.846,251.053 86.308,251.097 86.351 C 251.284 86.538,252.053 84.199,251.975 83.679 C 251.890 83.109,251.890 83.109,251.860 83.743 M149.674 83.804 C 149.368 83.931,149.445 83.963,150.005 83.940 C 150.407 83.923,150.695 83.842,150.645 83.759 C 150.530 83.572,150.195 83.587,149.674 83.804 M154.185 83.810 C 153.512 84.025,154.240 84.025,155.088 83.810 C 155.628 83.672,155.638 83.656,155.188 83.653 C 154.912 83.651,154.461 83.721,154.185 83.810 M161.404 84.698 C 161.018 84.953,160.522 85.376,160.302 85.638 L 159.903 86.115 160.402 85.693 C 160.677 85.460,161.262 85.032,161.701 84.740 C 162.140 84.449,162.410 84.216,162.302 84.222 C 162.194 84.229,161.789 84.443,161.404 84.698 M176.566 84.519 C 176.497 84.698,176.450 85.040,176.462 85.280 C 176.475 85.554,176.543 85.457,176.647 85.014 C 176.822 84.269,176.774 83.977,176.566 84.519 M188.624 84.352 C 188.873 84.400,189.234 84.398,189.426 84.348 C 189.618 84.298,189.414 84.259,188.972 84.261 C 188.531 84.263,188.374 84.304,188.624 84.352 M187.068 84.612 C 186.655 84.744,186.637 84.775,186.967 84.789 C 187.188 84.798,187.504 84.718,187.669 84.612 C 188.020 84.384,187.777 84.384,187.068 84.612 M260.974 84.912 C 261.139 85.650,261.254 85.810,261.250 85.297 C 261.248 85.085,261.155 84.777,261.043 84.612 C 260.895 84.392,260.876 84.473,260.974 84.912 M248.847 84.912 C 248.830 85.133,248.770 85.539,248.713 85.815 L 248.610 86.316 248.825 85.824 C 248.943 85.553,249.003 85.147,248.958 84.922 C 248.879 84.522,248.876 84.522,248.847 84.912 M145.915 85.029 C 145.543 85.245,145.430 85.815,145.758 85.815 C 145.865 85.815,145.906 85.695,145.850 85.548 C 145.793 85.400,145.952 85.183,146.207 85.060 C 146.460 84.939,146.576 84.836,146.466 84.832 C 146.356 84.828,146.108 84.916,145.915 85.029 M151.673 85.220 C 151.470 85.445,151.185 85.583,151.040 85.527 C 150.895 85.472,150.777 85.514,150.777 85.620 C 150.777 85.980,151.305 85.818,151.779 85.313 C 152.038 85.038,152.203 84.812,152.146 84.812 C 152.089 84.812,151.876 84.996,151.673 85.220 M136.148 85.505 C 135.855 85.857,136.037 86.218,136.503 86.209 C 136.808 86.204,136.805 86.182,136.480 85.993 C 136.194 85.826,136.168 85.722,136.354 85.498 C 136.484 85.341,136.545 85.213,136.490 85.213 C 136.435 85.213,136.281 85.344,136.148 85.505 M146.767 85.835 C 147.043 85.942,147.381 86.179,147.519 86.362 C 147.657 86.544,147.769 86.591,147.769 86.466 C 147.769 86.172,146.968 85.610,146.572 85.627 C 146.403 85.634,146.491 85.727,146.767 85.835 M155.539 85.859 C 155.787 85.978,155.990 86.153,155.990 86.246 C 155.990 86.340,156.103 86.413,156.241 86.409 C 156.378 86.406,156.278 86.225,156.018 86.008 C 155.758 85.791,155.442 85.620,155.316 85.628 C 155.191 85.635,155.291 85.739,155.539 85.859 M161.875 85.813 C 161.638 85.909,161.389 86.077,161.320 86.188 C 161.219 86.352,162.303 85.922,162.590 85.683 C 162.740 85.559,162.315 85.636,161.875 85.813 M164.511 85.849 C 164.732 85.971,165.052 86.171,165.223 86.294 C 165.394 86.416,165.321 86.313,165.061 86.065 C 164.802 85.817,164.481 85.617,164.350 85.620 C 164.218 85.623,164.291 85.726,164.511 85.849 M185.865 85.807 C 185.512 85.914,185.699 85.953,186.495 85.937 C 187.117 85.925,187.586 85.847,187.536 85.764 C 187.424 85.579,186.538 85.601,185.865 85.807 M190.680 85.931 C 190.681 86.143,190.774 86.451,190.886 86.617 C 191.035 86.836,191.054 86.755,190.955 86.316 C 190.790 85.579,190.676 85.419,190.680 85.931 M193.300 86.292 L 192.816 86.917 193.390 86.372 C 193.706 86.072,193.923 85.791,193.874 85.747 C 193.825 85.703,193.567 85.948,193.300 86.292 M176.170 86.961 C 176.101 87.378,176.056 88.261,176.071 88.922 C 176.093 89.927,176.123 89.812,176.253 88.221 C 176.416 86.219,176.381 85.685,176.170 86.961 M173.348 86.932 C 173.274 87.225,173.252 87.505,173.299 87.552 C 173.347 87.599,173.446 87.397,173.520 87.103 C 173.593 86.810,173.615 86.531,173.568 86.483 C 173.520 86.436,173.421 86.638,173.348 86.932 M261.410 88.221 C 261.464 89.268,261.541 90.163,261.581 90.209 C 261.715 90.362,261.609 87.528,261.459 86.917 C 261.377 86.586,261.355 87.173,261.410 88.221 M250.533 87.135 C 250.346 87.420,250.228 87.688,250.270 87.731 C 250.312 87.773,250.505 87.539,250.699 87.212 C 251.131 86.480,251.002 86.420,250.533 87.135 M264.074 87.034 C 264.082 87.301,264.170 87.699,264.270 87.920 C 264.397 88.199,264.415 88.078,264.330 87.519 C 264.188 86.588,264.054 86.334,264.074 87.034 M168.884 88.321 C 168.885 88.982,168.923 89.229,168.967 88.869 C 169.012 88.508,169.011 87.967,168.965 87.666 C 168.920 87.364,168.883 87.659,168.884 88.321 M191.108 87.645 C 191.052 88.630,191.647 88.770,192.277 87.920 C 192.566 87.530,192.563 87.529,192.161 87.870 C 191.580 88.363,191.318 88.307,191.221 87.669 L 191.138 87.118 191.108 87.645 M159.925 87.727 C 159.856 87.906,159.812 88.384,159.826 88.788 C 159.850 89.445,159.868 89.417,159.998 88.521 C 160.152 87.454,160.128 87.197,159.925 87.727 M150.864 92.531 C 150.864 95.288,150.892 96.444,150.927 95.099 C 150.961 93.755,150.961 91.499,150.927 90.087 C 150.892 88.674,150.864 89.774,150.864 92.531 M156.847 88.622 C 156.847 89.118,156.886 89.321,156.933 89.073 C 156.981 88.825,156.981 88.419,156.933 88.170 C 156.886 87.922,156.847 88.125,156.847 88.622 M138.632 92.231 C 138.632 94.602,138.661 95.571,138.696 94.386 C 138.731 93.201,138.731 91.261,138.696 90.075 C 138.661 88.890,138.632 89.860,138.632 92.231 M192.728 88.772 C 192.209 89.522,192.040 89.825,192.142 89.825 C 192.189 89.825,192.466 89.464,192.758 89.023 C 193.351 88.126,193.326 87.909,192.728 88.772 M173.108 90.727 C 173.108 91.940,173.141 92.410,173.181 91.772 C 173.221 91.134,173.221 90.142,173.180 89.567 C 173.140 88.992,173.107 89.514,173.108 90.727 M264.538 90.927 C 264.538 92.251,264.571 92.766,264.610 92.072 C 264.649 91.379,264.649 90.296,264.609 89.666 C 264.569 89.037,264.537 89.604,264.538 90.927 M217.498 89.060 C 217.431 89.262,216.416 89.347,213.133 89.424 C 209.890 89.500,208.842 89.586,208.803 89.779 C 208.775 89.920,208.798 89.943,208.854 89.830 C 208.918 89.699,210.441 89.624,213.011 89.624 C 216.930 89.624,218.221 89.432,217.715 88.926 C 217.644 88.855,217.546 88.915,217.498 89.060 M166.099 92.732 C 166.099 94.827,166.129 95.657,166.165 94.576 C 166.201 93.495,166.201 91.781,166.164 90.767 C 166.128 89.752,166.098 90.637,166.099 92.732 M159.881 92.732 C 159.881 94.496,159.912 95.191,159.949 94.276 C 159.986 93.361,159.986 91.918,159.948 91.068 C 159.911 90.219,159.880 90.967,159.881 92.732 M247.011 91.579 L 245.915 92.732 247.068 91.636 C 247.702 91.033,248.221 90.514,248.221 90.483 C 248.221 90.334,248.029 90.508,247.011 91.579 M176.076 92.632 C 176.078 93.459,176.148 94.361,176.231 94.637 C 176.314 94.912,176.342 94.326,176.295 93.333 C 176.184 91.042,176.071 90.677,176.076 92.632 M244.411 92.531 C 243.924 93.028,243.571 93.434,243.626 93.434 C 243.681 93.434,244.125 93.028,244.612 92.531 C 245.099 92.035,245.452 91.629,245.397 91.629 C 245.342 91.629,244.898 92.035,244.411 92.531 M219.910 91.880 C 219.888 91.907,219.820 93.870,219.759 96.241 L 219.649 100.551 218.615 100.551 C 218.046 100.551,217.623 100.619,217.675 100.702 C 217.787 100.882,219.185 100.902,219.633 100.730 C 219.908 100.625,219.950 100.058,219.950 96.460 C 219.950 93.500,220.019 92.242,220.190 92.070 C 220.378 91.883,220.378 91.830,220.190 91.830 C 220.058 91.830,219.932 91.852,219.910 91.880 M261.489 92.832 C 261.467 93.439,261.406 94.296,261.354 94.737 L 261.259 95.539 261.465 94.737 C 261.578 94.296,261.638 93.439,261.600 92.832 L 261.529 91.729 261.489 92.832 M192.203 92.732 C 192.367 93.469,192.482 93.629,192.478 93.116 C 192.476 92.905,192.383 92.596,192.272 92.431 C 192.123 92.211,192.104 92.293,192.203 92.732 M244.456 94.290 C 243.659 95.093,243.008 95.821,243.008 95.909 C 243.008 95.997,243.120 95.943,243.258 95.789 C 243.396 95.635,244.093 94.907,244.806 94.171 C 245.520 93.434,246.059 92.832,246.004 92.832 C 245.950 92.832,245.253 93.488,244.456 94.290 M217.590 93.634 C 217.590 94.020,217.632 94.178,217.682 93.985 C 217.733 93.792,217.733 93.476,217.682 93.283 C 217.632 93.090,217.590 93.248,217.590 93.634 M173.267 93.835 C 173.277 94.356,173.593 95.211,173.600 94.737 C 173.603 94.516,173.528 94.155,173.434 93.935 C 173.328 93.689,173.264 93.650,173.267 93.835 M243.027 94.005 C 242.872 94.187,242.241 94.877,241.626 95.539 C 240.656 96.580,240.706 96.548,241.998 95.296 C 242.819 94.500,243.449 93.810,243.399 93.762 C 243.349 93.714,243.182 93.823,243.027 94.005 M187.842 94.185 C 187.265 94.882,187.020 95.238,187.120 95.238 C 187.175 95.238,187.461 94.922,187.756 94.536 C 188.302 93.820,188.368 93.550,187.842 94.185 M189.263 94.179 C 189.032 94.484,189.033 94.500,189.273 94.286 C 189.656 93.944,189.831 93.971,189.931 94.386 C 189.999 94.672,190.011 94.665,189.995 94.352 C 189.968 93.830,189.594 93.742,189.263 94.179 M192.509 94.035 C 192.509 94.201,192.587 94.516,192.682 94.737 C 192.790 94.990,192.854 95.027,192.854 94.837 C 192.854 94.672,192.776 94.356,192.682 94.135 C 192.573 93.883,192.509 93.846,192.509 94.035 M187.253 96.792 C 186.777 97.426,186.523 97.836,186.687 97.703 C 187.025 97.431,188.344 95.639,188.207 95.639 C 188.158 95.639,187.729 96.158,187.253 96.792 M176.444 96.157 C 176.446 96.368,176.539 96.677,176.651 96.842 C 176.799 97.062,176.818 96.981,176.720 96.541 C 176.555 95.804,176.440 95.644,176.444 96.157 M129.353 96.475 C 129.337 96.769,129.271 97.175,129.208 97.377 C 129.099 97.724,129.105 97.725,129.321 97.388 C 129.447 97.193,129.512 96.787,129.466 96.486 L 129.383 95.940 129.353 96.475 M141.604 96.742 C 141.607 97.183,141.648 97.340,141.696 97.090 C 141.744 96.841,141.742 96.480,141.692 96.288 C 141.641 96.097,141.602 96.301,141.604 96.742 M195.175 96.776 C 194.867 97.181,194.716 97.449,194.842 97.372 C 195.098 97.213,195.966 96.040,195.827 96.040 C 195.777 96.040,195.484 96.371,195.175 96.776 M196.183 96.892 C 195.874 97.361,195.749 97.639,195.906 97.509 C 196.207 97.260,196.975 96.040,196.830 96.040 C 196.783 96.040,196.492 96.424,196.183 96.892 M251.564 96.172 C 251.492 96.244,251.094 96.369,250.679 96.449 C 249.965 96.588,249.958 96.597,250.538 96.619 C 250.875 96.631,251.327 96.509,251.541 96.347 C 251.755 96.185,251.877 96.050,251.813 96.046 C 251.749 96.043,251.637 96.099,251.564 96.172 M156.843 96.942 C 156.845 97.383,156.886 97.540,156.934 97.291 C 156.982 97.041,156.980 96.681,156.930 96.489 C 156.880 96.297,156.840 96.501,156.843 96.942 M147.797 96.776 C 147.782 97.015,147.717 97.376,147.654 97.578 C 147.545 97.925,147.551 97.926,147.767 97.588 C 147.893 97.392,147.958 97.031,147.910 96.786 C 147.824 96.341,147.824 96.341,147.797 96.776 M169.030 97.266 C 169.021 97.672,169.773 98.649,170.090 98.641 C 170.220 98.637,170.160 98.538,169.957 98.420 C 169.754 98.302,169.464 97.921,169.313 97.574 C 169.162 97.227,169.035 97.088,169.030 97.266 M182.095 97.283 C 181.963 97.416,181.869 97.844,181.887 98.236 L 181.919 98.947 182.003 98.246 C 182.050 97.861,182.182 97.432,182.297 97.294 C 182.563 96.974,182.413 96.966,182.095 97.283 M142.140 98.095 C 142.408 98.398,142.768 98.639,142.942 98.631 C 143.213 98.617,143.215 98.599,142.957 98.505 C 142.792 98.445,142.431 98.204,142.155 97.969 L 141.654 97.544 142.140 98.095 M239.109 98.234 C 237.963 99.431,238.056 99.449,245.400 99.449 C 251.901 99.449,252.020 99.441,252.240 99.030 C 252.363 98.800,252.419 98.568,252.365 98.514 C 252.311 98.460,252.208 98.603,252.135 98.832 C 252.005 99.242,251.907 99.248,245.400 99.248 C 238.272 99.248,238.328 99.258,239.336 98.206 C 239.632 97.897,239.829 97.644,239.774 97.644 C 239.719 97.644,239.420 97.909,239.109 98.234 M128.616 98.121 C 128.399 98.273,128.040 98.443,127.820 98.499 L 127.419 98.600 127.820 98.619 C 128.040 98.629,128.446 98.461,128.722 98.246 C 129.294 97.798,129.213 97.704,128.616 98.121 M156.483 98.059 C 156.410 98.177,156.156 98.352,155.919 98.447 C 155.626 98.566,155.590 98.625,155.809 98.634 C 155.984 98.641,156.292 98.466,156.491 98.246 C 156.691 98.025,156.800 97.845,156.735 97.845 C 156.669 97.845,156.555 97.941,156.483 98.059 M185.617 98.752 C 185.205 99.135,184.939 99.449,185.026 99.449 C 185.113 99.449,185.491 99.133,185.865 98.747 C 186.737 97.846,186.588 97.850,185.617 98.752 M126.982 98.947 C 127.021 99.333,127.173 99.349,130.930 99.355 L 134.837 99.361 130.991 99.300 C 127.551 99.246,127.135 99.203,127.043 98.893 C 126.965 98.630,126.950 98.644,126.982 98.947 M143.886 98.943 C 143.983 99.198,143.422 99.248,139.920 99.301 L 135.840 99.361 139.947 99.355 C 143.697 99.349,144.061 99.318,144.122 98.997 C 144.159 98.805,144.096 98.647,143.981 98.647 C 143.866 98.647,143.823 98.780,143.886 98.943 M152.982 98.910 C 152.982 99.202,152.554 99.246,149.223 99.299 L 145.464 99.358 149.229 99.403 C 152.966 99.448,153.716 99.313,153.107 98.705 C 153.039 98.636,152.982 98.728,152.982 98.910 M162.206 98.922 C 162.206 99.235,161.879 99.260,158.415 99.206 C 156.330 99.174,154.666 99.216,154.717 99.298 C 154.920 99.624,162.209 99.472,162.337 99.139 C 162.402 98.969,162.399 98.774,162.331 98.705 C 162.262 98.636,162.206 98.734,162.206 98.922 M163.874 98.947 C 163.930 99.487,171.305 99.586,171.345 99.048 C 171.358 98.875,171.331 98.853,171.283 98.997 C 171.133 99.444,164.069 99.348,163.936 98.897 C 163.856 98.625,163.842 98.636,163.874 98.947 M262.356 99.248 C 262.185 99.579,262.090 99.850,262.145 99.850 C 262.200 99.850,262.385 99.579,262.556 99.248 C 262.727 98.917,262.822 98.647,262.767 98.647 C 262.712 98.647,262.527 98.917,262.356 99.248 M182.857 99.652 C 183.023 99.757,183.421 99.845,183.743 99.847 C 184.518 99.851,184.350 99.735,183.358 99.583 C 182.812 99.499,182.652 99.521,182.857 99.652 M192.782 99.649 C 192.227 99.790,192.219 99.804,192.682 99.823 C 192.957 99.834,193.318 99.756,193.484 99.649 C 193.825 99.429,193.649 99.429,192.782 99.649 M175.778 100.266 C 175.977 100.605,176.268 100.989,176.425 101.118 C 176.582 101.248,176.457 100.970,176.148 100.501 C 175.499 99.517,175.243 99.354,175.778 100.266 M259.306 100.818 C 258.953 101.333,258.289 102.206,257.832 102.757 L 257.000 103.759 257.932 102.757 C 258.932 101.681,260.133 100.067,260.019 99.952 C 259.980 99.914,259.660 100.303,259.306 100.818 M178.184 100.667 C 178.383 101.006,178.674 101.390,178.831 101.519 C 178.988 101.649,178.863 101.371,178.554 100.902 C 177.905 99.918,177.649 99.755,178.184 100.667 M261.035 101.153 C 260.577 101.759,260.123 102.256,260.026 102.256 C 259.929 102.256,259.850 102.351,259.850 102.468 C 259.850 102.585,259.938 102.626,260.045 102.559 C 260.304 102.400,262.109 100.050,261.973 100.050 C 261.915 100.050,261.493 100.546,261.035 101.153 M176.842 101.578 C 176.842 101.683,177.316 102.217,177.895 102.764 L 178.947 103.759 177.945 102.661 C 177.393 102.057,176.920 101.523,176.892 101.475 C 176.865 101.426,176.842 101.473,176.842 101.578 M179.048 101.917 C 179.048 101.952,179.341 102.245,179.699 102.569 L 180.351 103.158 179.762 102.506 C 179.213 101.899,179.048 101.762,179.048 101.917 M181.029 103.897 C 181.463 104.370,181.662 104.752,181.583 104.960 C 181.510 105.148,181.541 105.233,181.656 105.161 C 182.024 104.935,181.859 104.544,181.103 103.849 L 180.351 103.158 181.029 103.897 M166.416 115.950 C 166.493 121.672,166.578 123.502,166.782 123.810 L 167.048 124.211 166.882 123.810 C 166.791 123.589,166.692 120.118,166.662 116.095 C 166.631 112.073,166.541 108.717,166.461 108.636 C 166.381 108.556,166.361 111.847,166.416 115.950 M164.361 109.388 C 163.611 109.795,163.657 109.964,164.411 109.574 C 164.742 109.403,165.013 109.220,165.013 109.168 C 165.013 109.039,164.991 109.046,164.361 109.388 M162.807 110.880 C 162.595 111.019,162.708 111.038,163.188 110.946 C 163.720 110.844,163.929 110.896,164.140 111.185 C 164.289 111.389,164.411 111.466,164.411 111.357 C 164.411 110.771,163.422 110.477,162.807 110.880 M129.624 114.287 C 129.359 114.402,129.533 114.424,130.139 114.351 C 130.836 114.267,131.135 114.322,131.392 114.579 C 131.578 114.764,131.729 114.822,131.729 114.708 C 131.729 114.188,130.445 113.931,129.624 114.287 M151.445 114.403 C 151.371 114.595,151.508 114.891,151.794 115.155 C 152.229 115.555,152.239 115.556,151.922 115.172 C 150.693 113.680,152.083 114.104,153.780 115.739 L 155.288 117.193 153.789 115.639 C 152.314 114.109,151.684 113.777,151.445 114.403 M128.042 114.816 C 127.451 115.136,127.605 115.498,128.321 115.472 C 128.517 115.464,128.481 115.403,128.221 115.295 C 127.859 115.146,127.888 115.099,128.521 114.816 C 128.907 114.643,129.088 114.502,128.922 114.502 C 128.757 114.502,128.361 114.643,128.042 114.816 M136.958 115.072 C 136.949 115.229,136.788 115.544,136.599 115.774 C 136.275 116.167,136.282 116.166,136.723 115.760 C 136.980 115.524,137.142 115.208,137.082 115.058 C 136.995 114.839,136.971 114.841,136.958 115.072 M129.686 115.589 C 129.788 115.810,129.921 116.125,129.982 116.291 C 130.078 116.551,130.096 116.549,130.109 116.279 C 130.118 116.107,129.985 115.791,129.814 115.577 C 129.507 115.194,129.505 115.194,129.686 115.589 M133.046 116.341 C 132.610 116.890,132.495 116.945,132.314 116.692 C 132.140 116.447,132.114 116.445,132.178 116.679 C 132.321 117.208,132.668 117.114,133.214 116.398 C 133.893 115.508,133.746 115.458,133.046 116.341 M134.553 115.761 C 134.599 115.800,134.952 115.890,135.338 115.961 C 135.832 116.051,135.951 116.031,135.739 115.893 C 135.468 115.714,134.354 115.591,134.553 115.761 M152.782 116.391 C 153.156 116.777,153.507 117.093,153.562 117.093 C 153.618 117.093,153.357 116.777,152.982 116.391 C 152.608 116.005,152.257 115.689,152.202 115.689 C 152.147 115.689,152.408 116.005,152.782 116.391 M130.617 119.282 C 130.622 119.710,130.694 120.019,130.777 119.968 C 130.973 119.848,130.965 119.066,130.764 118.750 C 130.674 118.608,130.611 118.833,130.617 119.282 M138.878 119.549 C 138.929 119.632,142.151 119.699,146.037 119.699 C 151.406 119.699,153.170 119.759,153.384 119.950 C 153.622 120.163,153.625 120.148,153.403 119.854 C 153.128 119.490,138.653 119.186,138.878 119.549 M155.083 120.548 C 154.192 121.273,154.055 121.406,153.484 122.112 C 153.263 122.384,153.669 122.071,154.386 121.417 C 155.103 120.763,155.775 120.154,155.880 120.064 C 155.984 119.973,156.028 119.900,155.976 119.900 C 155.923 119.900,155.522 120.191,155.083 120.548 M129.724 121.203 C 129.383 121.699,129.149 122.105,129.204 122.105 C 129.259 122.105,129.583 121.699,129.925 121.203 C 130.266 120.707,130.500 120.301,130.445 120.301 C 130.390 120.301,130.066 120.707,129.724 121.203 M152.795 121.188 L 152.105 122.005 152.885 121.260 C 153.313 120.850,153.624 120.482,153.574 120.442 C 153.524 120.403,153.174 120.738,152.795 121.188 M130.497 121.661 C 130.226 121.961,129.884 122.386,129.737 122.607 C 129.589 122.827,129.810 122.617,130.227 122.140 C 130.792 121.494,131.028 121.341,131.154 121.539 C 131.270 121.721,131.323 121.730,131.325 121.566 C 131.331 121.088,130.978 121.129,130.497 121.661 M151.589 122.588 C 151.295 123.137,151.445 123.520,151.942 123.486 C 152.247 123.465,152.246 123.453,151.930 123.371 C 151.525 123.265,151.473 122.893,151.816 122.550 C 151.947 122.419,152.007 122.266,151.950 122.209 C 151.893 122.152,151.731 122.323,151.589 122.588 M164.075 123.300 C 163.948 123.635,163.633 124.000,163.376 124.110 C 163.035 124.256,163.011 124.297,163.287 124.260 C 163.725 124.203,164.495 123.260,164.382 122.919 C 164.339 122.793,164.201 122.964,164.075 123.300 M127.302 123.530 C 127.569 123.635,127.857 123.651,127.943 123.565 C 128.029 123.479,127.810 123.393,127.458 123.373 C 126.856 123.340,126.847 123.350,127.302 123.530 M128.334 124.372 L 127.845 125.013 128.484 124.424 C 129.149 123.811,129.224 123.702,128.972 123.720 C 128.890 123.726,128.602 124.020,128.334 124.372 M125.887 124.900 C 126.396 125.345,127.036 125.427,127.519 125.110 C 127.733 124.970,127.632 124.949,127.170 125.037 C 126.731 125.122,126.342 125.053,125.967 124.825 L 125.414 124.487 125.887 124.900 M132.917 125.189 C 133.172 125.303,133.494 125.303,133.749 125.189 C 134.087 125.038,134.009 125.003,133.333 125.003 C 132.658 125.003,132.580 125.038,132.917 125.189 " stroke="none" fill="#7c7c7c" fill-rule="evenodd"></path><path id="path5" d="M131.328 75.993 C 131.117 76.131,131.236 76.152,131.729 76.061 C 132.594 75.902,132.757 75.788,132.114 75.793 C 131.847 75.794,131.494 75.884,131.328 75.993 M138.878 75.940 C 138.827 76.023,139.219 76.090,139.749 76.090 C 140.280 76.090,140.672 76.023,140.621 75.940 C 140.570 75.857,140.177 75.789,139.749 75.789 C 139.321 75.789,138.929 75.857,138.878 75.940 M132.625 86.617 C 132.625 92.406,132.650 94.774,132.682 91.880 C 132.713 88.985,132.713 84.248,132.682 81.353 C 132.650 78.459,132.625 80.827,132.625 86.617 M138.068 76.685 C 137.667 77.297,137.658 78.566,138.051 79.086 C 138.213 79.300,138.346 79.373,138.346 79.248 C 138.346 79.123,138.256 78.965,138.145 78.897 C 137.829 78.702,137.911 77.230,138.269 76.685 C 138.447 76.413,138.547 76.190,138.492 76.190 C 138.437 76.190,138.246 76.413,138.068 76.685 M179.850 76.981 C 179.243 77.404,178.522 78.009,178.248 78.324 C 177.766 78.877,177.773 78.875,178.448 78.275 C 178.833 77.932,179.576 77.364,180.100 77.012 C 180.624 76.660,181.053 76.331,181.053 76.281 C 181.053 76.143,181.031 76.156,179.850 76.981 M257.579 76.916 C 258.111 77.315,258.997 78.059,259.548 78.570 L 260.550 79.499 259.749 78.634 C 258.927 77.748,257.021 76.190,256.758 76.190 C 256.677 76.190,257.046 76.517,257.579 76.916 M128.521 76.801 C 128.302 76.950,128.383 76.968,128.822 76.870 C 129.559 76.705,129.719 76.590,129.206 76.595 C 128.995 76.596,128.687 76.689,128.521 76.801 M126.867 77.209 C 126.674 77.321,126.518 77.522,126.519 77.654 C 126.521 77.819,126.577 77.809,126.694 77.624 C 126.788 77.475,127.170 77.281,127.543 77.193 C 128.093 77.064,128.126 77.031,127.719 77.019 C 127.444 77.011,127.060 77.097,126.867 77.209 M240.791 77.945 L 240.100 78.697 240.852 78.006 C 241.266 77.626,241.604 77.287,241.604 77.254 C 241.604 77.101,241.434 77.245,240.791 77.945 M250.426 77.895 C 250.800 78.281,251.151 78.596,251.206 78.596 C 251.262 78.596,251.001 78.281,250.627 77.895 C 250.252 77.509,249.901 77.193,249.846 77.193 C 249.791 77.193,250.052 77.509,250.426 77.895 M256.061 77.644 C 256.109 77.672,256.643 78.145,257.247 78.697 L 258.346 79.699 257.351 78.647 C 256.804 78.068,256.270 77.594,256.165 77.594 C 256.059 77.594,256.013 77.617,256.061 77.644 M126.567 78.195 C 126.624 78.407,126.940 78.503,127.635 78.518 L 128.622 78.539 127.723 78.454 C 127.228 78.407,126.748 78.262,126.655 78.132 C 126.538 77.968,126.511 77.988,126.567 78.195 M180.353 78.594 C 180.037 78.924,179.817 79.219,179.864 79.250 C 179.911 79.280,180.235 79.011,180.584 78.650 C 180.933 78.290,181.153 77.995,181.073 77.995 C 180.993 77.995,180.669 78.265,180.353 78.594 M243.962 79.340 C 244.212 79.388,244.573 79.386,244.764 79.336 C 244.956 79.286,244.752 79.246,244.311 79.249 C 243.870 79.251,243.713 79.292,243.962 79.340 M129.214 88.221 C 129.214 92.797,129.241 94.669,129.273 92.381 C 129.305 90.093,129.305 86.348,129.273 84.060 C 129.241 81.772,129.214 83.644,129.214 88.221 M239.036 80.671 C 238.905 81.034,238.801 81.461,238.807 81.618 C 238.812 81.776,238.953 81.513,239.121 81.033 C 239.289 80.554,239.393 80.128,239.351 80.086 C 239.309 80.044,239.167 80.307,239.036 80.671 M261.577 80.952 C 262.460 82.115,262.657 82.302,262.162 81.504 C 261.542 80.506,261.161 80.013,261.004 80.006 C 260.922 80.003,261.180 80.429,261.577 80.952 M247.734 80.752 C 247.933 81.055,248.213 81.529,248.357 81.805 C 248.501 82.080,248.620 82.191,248.620 82.051 C 248.622 81.784,247.637 80.201,247.469 80.201 C 247.416 80.201,247.535 80.449,247.734 80.752 M217.393 80.534 C 217.202 80.611,217.154 81.656,217.189 84.979 L 217.235 89.323 217.293 85.128 C 217.330 82.453,217.432 80.837,217.573 80.667 C 217.807 80.385,217.791 80.373,217.393 80.534 M252.176 81.704 C 252.236 82.476,252.318 83.145,252.358 83.191 C 252.492 83.345,252.386 81.512,252.225 80.902 C 252.129 80.537,252.110 80.853,252.176 81.704 M174.811 82.456 C 174.679 82.704,174.401 83.211,174.194 83.581 C 173.986 83.952,173.843 84.322,173.876 84.403 C 173.908 84.484,174.227 83.977,174.584 83.277 C 175.176 82.118,175.375 81.399,174.811 82.456 M238.478 82.506 C 238.276 83.312,238.510 83.643,239.231 83.572 C 239.582 83.537,239.892 83.394,239.919 83.253 C 239.947 83.113,239.924 83.090,239.868 83.203 C 239.558 83.829,238.543 83.413,238.658 82.707 C 238.789 81.900,238.665 81.761,238.478 82.506 M156.892 83.609 C 157.444 83.846,157.640 83.846,157.494 83.609 C 157.426 83.499,157.172 83.415,156.931 83.423 C 156.507 83.436,156.506 83.443,156.892 83.609 M163.208 83.618 C 162.988 83.767,163.069 83.785,163.509 83.687 C 164.246 83.522,164.406 83.407,163.893 83.412 C 163.682 83.413,163.373 83.506,163.208 83.618 M252.077 84.010 C 252.077 84.396,252.118 84.554,252.168 84.361 C 252.219 84.168,252.219 83.852,252.168 83.659 C 252.118 83.466,252.077 83.624,252.077 84.010 M190.379 84.668 C 190.573 84.975,190.781 85.175,190.843 85.113 C 190.905 85.052,190.746 84.801,190.491 84.556 L 190.027 84.110 190.379 84.668 M145.683 84.873 C 145.450 85.044,145.357 85.306,145.417 85.625 L 145.509 86.115 145.537 85.595 C 145.554 85.270,145.734 84.992,146.015 84.856 C 146.263 84.737,146.371 84.633,146.254 84.625 C 146.137 84.618,145.880 84.729,145.683 84.873 M193.684 85.514 C 193.197 86.010,192.844 86.416,192.899 86.416 C 192.954 86.416,193.398 86.010,193.885 85.514 C 194.372 85.018,194.725 84.612,194.670 84.612 C 194.615 84.612,194.171 85.018,193.684 85.514 M260.680 84.812 C 260.680 84.977,260.757 85.293,260.852 85.514 C 260.961 85.767,261.024 85.804,261.024 85.614 C 261.024 85.449,260.947 85.133,260.852 84.912 C 260.744 84.660,260.680 84.622,260.680 84.812 M135.980 85.253 C 135.699 85.534,135.655 86.416,135.921 86.416 C 136.021 86.416,136.052 86.222,135.990 85.985 C 135.916 85.701,136.004 85.462,136.248 85.283 C 136.451 85.134,136.529 85.013,136.419 85.013 C 136.310 85.013,136.112 85.121,135.980 85.253 M184.755 85.224 C 184.376 85.838,184.858 86.435,185.620 86.297 C 186.649 86.111,186.736 85.961,185.764 86.045 C 185.005 86.112,184.963 86.086,184.970 85.564 C 184.979 84.957,184.949 84.910,184.755 85.224 M198.142 85.614 C 198.142 86.000,198.183 86.158,198.233 85.965 C 198.284 85.772,198.284 85.456,198.233 85.263 C 198.183 85.070,198.142 85.228,198.142 85.614 M248.377 85.815 C 248.309 86.090,248.196 86.541,248.125 86.817 C 248.046 87.129,248.119 87.057,248.317 86.627 C 248.492 86.247,248.605 85.796,248.569 85.624 C 248.526 85.429,248.455 85.500,248.377 85.815 M152.431 86.414 C 152.073 86.632,151.779 86.869,151.779 86.939 C 151.779 87.009,151.898 86.968,152.044 86.847 C 152.189 86.726,152.618 86.493,152.996 86.329 C 153.375 86.165,153.549 86.028,153.383 86.024 C 153.218 86.020,152.789 86.195,152.431 86.414 M155.813 86.316 C 155.992 86.536,156.188 86.852,156.249 87.018 C 156.343 87.273,156.362 87.270,156.375 86.998 C 156.384 86.823,156.188 86.507,155.940 86.297 C 155.493 85.918,155.491 85.918,155.813 86.316 M136.842 86.347 C 137.063 86.393,137.446 86.475,137.694 86.528 C 138.069 86.608,138.151 86.769,138.179 87.472 L 138.213 88.321 138.294 87.527 C 138.389 86.593,138.013 86.202,137.054 86.239 C 136.665 86.254,136.587 86.293,136.842 86.347 M173.158 86.524 C 173.089 86.703,173.040 87.000,173.050 87.184 C 173.059 87.368,173.147 87.253,173.244 86.927 C 173.433 86.295,173.366 85.981,173.158 86.524 M160.704 87.015 C 160.388 87.345,160.168 87.647,160.215 87.686 C 160.262 87.725,160.558 87.455,160.872 87.087 C 161.581 86.254,161.476 86.209,160.704 87.015 M194.148 87.325 C 193.672 87.821,193.283 88.330,193.283 88.455 C 193.283 88.580,193.549 88.314,193.875 87.865 C 194.607 86.854,195.052 86.583,195.545 86.847 C 195.747 86.955,196.001 87.014,196.110 86.978 C 196.219 86.941,196.017 86.801,195.660 86.667 C 195.033 86.430,194.986 86.451,194.148 87.325 M261.211 89.724 C 261.265 91.599,261.341 93.170,261.381 93.216 C 261.508 93.362,261.413 88.975,261.260 87.619 C 261.178 86.888,261.156 87.812,261.211 89.724 M176.339 88.074 C 176.262 88.893,176.236 89.734,176.281 89.944 C 176.326 90.154,176.431 89.527,176.514 88.550 C 176.598 87.574,176.624 86.732,176.572 86.681 C 176.520 86.629,176.415 87.256,176.339 88.074 M192.281 87.218 C 192.045 87.549,191.898 87.820,191.953 87.820 C 192.008 87.820,192.246 87.549,192.481 87.218 C 192.717 86.887,192.864 86.617,192.809 86.617 C 192.754 86.617,192.516 86.887,192.281 87.218 M264.275 86.956 C 264.320 87.476,264.634 87.918,264.648 87.481 C 264.655 87.239,264.571 86.985,264.461 86.917 C 264.351 86.849,264.267 86.866,264.275 86.956 M151.206 87.469 C 151.035 87.791,150.984 89.263,151.026 92.632 L 151.085 97.343 151.132 92.521 C 151.164 89.131,151.248 87.629,151.415 87.462 C 151.546 87.331,151.606 87.178,151.549 87.121 C 151.492 87.065,151.338 87.221,151.206 87.469 M147.655 91.930 C 147.656 94.576,147.684 95.631,147.719 94.274 C 147.754 92.917,147.753 90.752,147.719 89.462 C 147.684 88.173,147.655 89.283,147.655 91.930 M169.178 91.838 C 169.256 97.760,169.359 98.411,169.382 93.133 C 169.392 90.817,169.337 88.565,169.260 88.129 C 169.182 87.693,169.146 89.362,169.178 91.838 M156.591 92.772 C 156.536 95.551,156.561 97.756,156.645 97.671 C 156.730 97.586,156.775 95.312,156.745 92.618 L 156.691 87.719 156.591 92.772 M172.724 89.720 C 172.648 90.324,172.667 91.249,172.766 91.775 C 172.923 92.618,172.946 92.487,172.958 90.677 C 172.974 88.352,172.921 88.138,172.724 89.720 M165.898 92.732 C 165.898 94.827,165.928 95.657,165.964 94.576 C 166.000 93.495,166.000 91.781,165.964 90.767 C 165.927 89.752,165.898 90.637,165.898 92.732 M208.561 89.464 C 208.429 89.596,208.321 90.164,208.321 90.727 C 208.321 92.254,208.249 92.231,212.972 92.231 L 217.143 92.231 217.143 96.401 C 217.143 99.377,217.212 100.640,217.383 100.812 C 217.644 101.073,219.867 101.149,220.020 100.902 C 220.071 100.820,219.512 100.752,218.778 100.752 L 217.444 100.752 217.343 96.441 L 217.243 92.130 212.932 92.030 L 208.622 91.930 208.557 91.147 C 208.471 90.091,208.650 89.472,209.073 89.361 C 209.342 89.291,209.352 89.264,209.113 89.246 C 208.942 89.234,208.694 89.331,208.561 89.464 M212.187 89.371 C 212.714 89.412,213.526 89.412,213.991 89.370 C 214.456 89.328,214.025 89.294,213.033 89.294 C 212.040 89.295,211.659 89.329,212.187 89.371 M221.754 89.362 C 225.469 89.505,228.927 89.511,228.842 89.373 C 228.790 89.291,226.836 89.241,224.499 89.263 C 222.163 89.286,220.927 89.330,221.754 89.362 M264.726 91.128 C 264.721 92.770,264.736 92.845,264.899 91.960 C 265.002 91.405,265.004 90.632,264.905 90.156 C 264.758 89.449,264.731 89.596,264.726 91.128 M188.801 90.827 C 188.960 91.692,189.074 91.855,189.070 91.211 C 189.068 90.945,188.978 90.591,188.869 90.426 C 188.731 90.214,188.710 90.333,188.801 90.827 M245.039 91.446 C 244.668 91.877,244.443 92.223,244.538 92.214 C 244.634 92.204,245.015 91.843,245.387 91.412 C 245.758 90.980,245.983 90.634,245.888 90.644 C 245.792 90.653,245.411 91.014,245.039 91.446 M176.288 91.930 C 176.281 92.481,176.346 93.383,176.432 93.935 C 176.651 95.342,176.665 93.872,176.449 92.130 L 176.300 90.927 176.288 91.930 M246.617 92.331 C 245.906 93.048,245.396 93.634,245.484 93.634 C 245.571 93.634,245.749 93.515,245.879 93.370 C 246.009 93.224,246.563 92.638,247.110 92.066 C 247.657 91.495,248.061 91.028,248.007 91.028 C 247.953 91.028,247.327 91.614,246.617 92.331 M224.411 91.980 C 222.068 92.012,220.150 92.104,220.150 92.184 C 220.150 92.376,228.694 92.176,228.889 91.980 C 228.972 91.897,228.957 91.850,228.855 91.875 C 228.754 91.901,226.754 91.948,224.411 91.980 M188.517 92.746 C 188.269 93.124,188.106 93.434,188.155 93.434 C 188.294 93.434,189.125 92.216,189.042 92.133 C 189.001 92.092,188.765 92.368,188.517 92.746 M192.515 92.932 C 192.512 93.153,192.587 93.514,192.682 93.734 C 192.901 94.245,192.901 93.718,192.682 93.033 C 192.553 92.630,192.520 92.610,192.515 92.932 M242.399 94.386 L 241.303 95.539 242.456 94.443 C 243.527 93.425,243.701 93.233,243.552 93.233 C 243.521 93.233,243.002 93.752,242.399 94.386 M261.115 94.536 C 261.116 95.198,261.153 95.444,261.198 95.084 C 261.243 94.724,261.242 94.182,261.196 93.881 C 261.150 93.580,261.114 93.875,261.115 94.536 M173.036 94.152 C 173.037 94.363,173.130 94.672,173.242 94.837 C 173.391 95.057,173.409 94.976,173.311 94.536 C 173.146 93.799,173.032 93.639,173.036 94.152 M253.791 94.405 C 253.945 94.503,253.994 94.724,253.912 94.953 C 253.804 95.259,253.828 95.290,254.032 95.101 C 254.331 94.825,254.166 94.234,253.791 94.239 C 253.582 94.241,253.582 94.273,253.791 94.405 M243.750 95.397 C 242.972 96.193,242.852 96.441,243.241 96.441 C 243.370 96.441,243.413 96.379,243.338 96.303 C 243.262 96.228,243.536 95.822,243.946 95.401 C 244.357 94.981,244.648 94.637,244.593 94.637 C 244.538 94.637,244.158 94.979,243.750 95.397 M252.307 95.146 C 251.911 95.751,251.380 96.064,250.426 96.255 C 249.791 96.382,249.777 96.397,250.286 96.418 C 251.042 96.449,251.907 95.975,252.429 95.241 C 252.666 94.909,252.810 94.637,252.750 94.637 C 252.690 94.637,252.491 94.866,252.307 95.146 M195.971 95.489 L 195.589 95.940 196.036 95.561 C 196.424 95.233,196.531 95.220,196.838 95.461 C 197.161 95.714,197.168 95.707,196.918 95.388 C 196.560 94.932,196.431 94.946,195.971 95.489 M138.143 96.382 C 138.089 97.066,138.118 97.552,138.207 97.463 C 138.296 97.374,138.340 96.814,138.304 96.219 L 138.240 95.138 138.143 96.382 M240.419 96.399 C 240.264 96.587,239.813 97.103,239.418 97.544 C 238.973 98.040,239.138 97.928,239.851 97.250 C 240.484 96.647,241.003 96.128,241.003 96.097 C 241.003 95.926,240.664 96.101,240.419 96.399 M260.777 96.549 C 260.708 96.728,260.659 97.025,260.669 97.209 C 260.678 97.393,260.766 97.278,260.863 96.952 C 261.052 96.320,260.985 96.006,260.777 96.549 M160.221 96.805 C 160.193 97.430,160.516 97.990,161.057 98.254 C 161.489 98.466,161.488 98.460,161.035 98.094 C 160.777 97.886,160.493 97.406,160.403 97.028 C 160.286 96.529,160.236 96.468,160.221 96.805 M194.729 96.889 C 194.327 97.291,194.235 97.308,193.832 97.057 C 193.422 96.801,193.407 96.806,193.659 97.111 C 194.038 97.569,194.336 97.529,194.887 96.942 C 195.471 96.321,195.341 96.277,194.729 96.889 M252.882 97.594 C 252.638 98.214,252.470 98.753,252.509 98.791 C 252.548 98.830,252.783 98.359,253.033 97.744 C 253.282 97.130,253.450 96.591,253.406 96.547 C 253.362 96.503,253.126 96.974,252.882 97.594 M173.835 96.784 C 173.835 97.068,174.417 98.446,174.537 98.446 C 174.590 98.446,174.484 98.063,174.302 97.594 C 173.932 96.645,173.835 96.476,173.835 96.784 M181.454 98.134 C 181.454 98.403,181.521 98.665,181.604 98.716 C 181.687 98.767,181.754 98.547,181.754 98.226 C 181.754 97.906,181.687 97.644,181.604 97.644 C 181.521 97.644,181.454 97.864,181.454 98.134 M262.957 98.647 C 262.786 98.977,262.691 99.248,262.747 99.248 C 262.802 99.248,262.987 98.977,263.158 98.647 C 263.329 98.316,263.424 98.045,263.369 98.045 C 263.314 98.045,263.128 98.316,262.957 98.647 M153.162 98.629 C 153.336 98.740,153.388 98.947,153.301 99.178 C 153.191 99.464,153.214 99.495,153.398 99.312 C 153.682 99.031,153.506 98.445,153.139 98.449 C 152.947 98.451,152.953 98.497,153.162 98.629 M162.385 98.611 C 162.539 98.719,162.610 98.951,162.542 99.128 C 162.474 99.304,162.512 99.449,162.627 99.449 C 162.947 99.449,162.747 98.589,162.406 98.497 C 162.156 98.429,162.152 98.448,162.385 98.611 M163.616 98.835 C 163.498 99.055,163.485 99.272,163.586 99.334 C 163.684 99.394,163.807 99.219,163.859 98.945 C 163.974 98.346,163.896 98.311,163.616 98.835 M131.028 99.449 L 127.018 99.562 130.966 99.605 C 133.430 99.633,134.960 99.574,135.038 99.449 C 135.106 99.338,135.134 99.268,135.100 99.292 C 135.065 99.316,133.233 99.386,131.028 99.449 M135.914 99.503 C 135.999 99.588,137.822 99.633,139.964 99.603 L 143.860 99.548 139.809 99.448 C 137.581 99.393,135.828 99.418,135.914 99.503 M145.538 99.503 C 145.624 99.589,147.356 99.634,149.388 99.603 L 153.083 99.548 149.233 99.448 C 147.115 99.393,145.453 99.418,145.538 99.503 M156.652 99.598 C 157.733 99.634,159.447 99.634,160.462 99.598 C 161.476 99.562,160.591 99.532,158.496 99.532 C 156.401 99.532,155.571 99.562,156.652 99.598 M165.764 99.598 C 166.784 99.634,168.454 99.634,169.474 99.598 C 170.494 99.562,169.659 99.532,167.619 99.532 C 165.579 99.532,164.744 99.562,165.764 99.598 M177.852 99.549 C 177.853 99.659,178.038 99.975,178.264 100.251 C 178.536 100.584,178.604 100.617,178.466 100.351 C 178.128 99.697,177.851 99.334,177.852 99.549 M242.055 99.599 C 243.902 99.632,246.925 99.632,248.772 99.599 C 250.619 99.566,249.108 99.538,245.414 99.538 C 241.719 99.538,240.208 99.566,242.055 99.599 M261.871 100.430 C 261.494 100.938,261.341 101.226,261.530 101.070 C 261.940 100.732,262.730 99.651,262.628 99.567 C 262.589 99.534,262.248 99.923,261.871 100.430 M183.208 99.991 C 183.456 100.039,183.862 100.039,184.110 99.991 C 184.358 99.943,184.155 99.904,183.659 99.904 C 183.163 99.904,182.960 99.943,183.208 99.991 M192.433 99.991 C 192.683 100.039,193.044 100.038,193.235 99.987 C 193.427 99.937,193.223 99.898,192.782 99.900 C 192.341 99.902,192.184 99.943,192.433 99.991 M179.048 101.454 C 179.283 101.784,179.521 102.055,179.576 102.055 C 179.631 102.055,179.484 101.784,179.248 101.454 C 179.013 101.123,178.775 100.852,178.720 100.852 C 178.664 100.852,178.812 101.123,179.048 101.454 M257.108 103.062 C 256.537 103.611,256.134 104.060,256.213 104.060 C 256.292 104.060,256.800 103.609,257.343 103.058 C 258.618 101.763,258.455 101.766,257.108 103.062 M179.850 102.443 C 179.850 102.629,181.432 104.153,181.514 104.047 C 181.552 103.999,181.193 103.589,180.716 103.136 C 180.240 102.682,179.850 102.371,179.850 102.443 M177.730 103.006 C 178.053 103.363,178.361 103.611,178.415 103.557 C 178.469 103.503,178.475 103.436,178.429 103.409 C 178.383 103.381,178.075 103.133,177.744 102.858 L 177.143 102.357 177.730 103.006 M257.494 104.682 C 257.025 105.014,256.642 105.330,256.642 105.384 C 256.642 105.438,257.048 105.204,257.544 104.862 C 258.040 104.521,258.446 104.201,258.446 104.151 C 258.446 104.013,258.408 104.034,257.494 104.682 M180.150 104.945 C 180.481 105.229,180.835 105.462,180.936 105.463 C 181.153 105.464,181.151 105.462,180.251 104.881 L 179.549 104.428 180.150 104.945 M166.366 108.477 L 166.817 108.659 166.865 116.134 L 166.912 123.609 166.967 116.214 C 167.024 108.615,166.991 108.254,166.241 108.283 C 166.020 108.292,166.061 108.355,166.366 108.477 M163.008 111.087 C 162.782 111.239,162.841 111.259,163.239 111.167 C 163.631 111.076,163.827 111.141,163.985 111.412 C 164.102 111.614,164.201 111.685,164.204 111.569 C 164.221 111.011,163.530 110.733,163.008 111.087 M130.426 114.026 C 130.997 114.079,131.358 114.257,131.678 114.644 C 131.926 114.943,132.129 115.092,132.129 114.975 C 132.132 114.412,131.303 113.885,130.468 113.918 L 129.624 113.952 130.426 114.026 M135.589 114.023 C 135.782 114.073,136.098 114.073,136.291 114.023 C 136.484 113.972,136.326 113.931,135.940 113.931 C 135.554 113.931,135.396 113.972,135.589 114.023 M133.973 115.017 L 133.033 115.949 134.035 115.083 C 134.586 114.607,135.075 114.188,135.121 114.151 C 135.167 114.115,135.139 114.085,135.059 114.085 C 134.979 114.085,134.491 114.505,133.973 115.017 M127.380 115.166 C 127.436 115.715,128.039 116.053,128.365 115.718 C 128.574 115.504,128.566 115.463,128.321 115.496 C 127.753 115.572,127.548 115.488,127.445 115.138 C 127.357 114.841,127.347 114.845,127.380 115.166 M153.383 115.042 C 153.383 115.134,153.699 115.516,154.085 115.890 C 154.471 116.264,154.787 116.504,154.787 116.424 C 154.787 116.343,154.471 115.962,154.085 115.576 C 153.699 115.190,153.383 114.949,153.383 115.042 M132.143 115.915 C 132.125 116.377,132.648 116.790,132.845 116.470 C 132.940 116.316,132.910 116.281,132.761 116.373 C 132.621 116.460,132.454 116.332,132.342 116.053 C 132.219 115.748,132.151 115.700,132.143 115.915 M134.668 116.040 C 134.617 116.123,134.860 116.211,135.208 116.235 C 135.676 116.268,135.762 116.230,135.539 116.088 C 135.176 115.856,134.794 115.835,134.668 116.040 M133.331 117.697 C 133.095 118.030,132.946 118.413,133.001 118.549 C 133.075 118.732,133.105 118.726,133.117 118.527 C 133.126 118.379,133.319 117.995,133.547 117.675 C 133.776 117.355,133.917 117.093,133.862 117.093 C 133.807 117.093,133.568 117.365,133.331 117.697 M138.380 118.616 C 138.317 120.144,138.110 120.106,146.281 120.055 L 153.484 120.010 146.225 119.905 C 138.379 119.791,138.616 119.831,138.493 118.596 L 138.413 117.794 138.380 118.616 M157.810 118.735 C 157.802 118.922,157.594 119.215,157.349 119.387 C 157.104 119.559,157.000 119.699,157.117 119.699 C 157.458 119.699,158.047 118.946,157.931 118.658 C 157.861 118.483,157.821 118.509,157.810 118.735 M130.379 119.248 C 130.397 119.607,130.482 119.900,130.569 119.900 C 130.769 119.900,130.749 119.514,130.523 118.997 C 130.379 118.671,130.353 118.717,130.379 119.248 M152.783 120.801 C 152.524 121.076,152.350 121.335,152.397 121.376 C 152.443 121.417,152.691 121.192,152.948 120.876 C 153.522 120.168,153.421 120.122,152.783 120.801 M133.362 121.103 C 133.363 121.378,133.485 121.920,133.634 122.306 C 133.987 123.223,133.990 122.868,133.639 121.604 C 133.478 121.024,133.361 120.813,133.362 121.103 M153.280 122.510 C 152.507 123.290,151.979 123.675,151.782 123.600 C 151.537 123.507,151.527 123.534,151.733 123.742 C 151.940 123.950,152.243 123.743,153.336 122.651 C 154.077 121.910,154.636 121.303,154.578 121.303 C 154.521 121.303,153.936 121.846,153.280 122.510 M151.596 122.188 C 151.335 122.466,151.182 122.828,151.237 123.040 C 151.325 123.382,151.334 123.381,151.355 123.020 C 151.368 122.807,151.575 122.424,151.814 122.168 C 152.054 121.913,152.205 121.704,152.150 121.704 C 152.095 121.704,151.846 121.922,151.596 122.188 M135.158 122.356 L 134.881 122.807 135.360 122.408 C 135.624 122.189,135.877 121.986,135.923 121.957 C 135.969 121.928,135.878 121.905,135.721 121.905 C 135.563 121.905,135.310 122.108,135.158 122.356 M131.142 122.444 C 131.134 122.686,131.218 122.939,131.328 123.008 C 131.565 123.154,131.565 122.958,131.328 122.406 C 131.162 122.019,131.155 122.021,131.142 122.444 M129.411 123.443 C 129.102 123.848,128.952 124.116,129.077 124.038 C 129.334 123.880,130.202 122.707,130.063 122.707 C 130.013 122.707,129.720 123.038,129.411 123.443 M161.938 124.244 C 161.733 124.449,161.779 125.113,161.999 125.113 C 162.106 125.113,162.137 124.968,162.070 124.792 C 162.002 124.615,162.073 124.391,162.226 124.294 C 162.380 124.196,162.409 124.115,162.289 124.113 C 162.170 124.112,162.012 124.170,161.938 124.244 M125.651 125.139 C 125.879 125.367,126.199 125.521,126.363 125.483 C 126.543 125.441,126.379 125.278,125.949 125.069 L 125.238 124.725 125.651 125.139 M132.212 125.063 C 132.587 125.506,134.135 125.740,134.135 125.354 C 134.135 125.265,133.816 125.231,133.425 125.276 C 132.931 125.334,132.579 125.245,132.272 124.985 L 131.830 124.612 132.212 125.063 " stroke="none" fill="#bcbcbc" fill-rule="evenodd"></path></g></svg>