<svg id="svg" version="1.1" xmlns="http://www.w3.org/2000/svg" xmlns:xlink="http://www.w3.org/1999/xlink" width="400" height="199.50617283950618" viewBox="0, 0, 400,199.50617283950618"><g id="svgg"><path id="path0" d="M219.709 52.692 C 219.522 52.910,219.132 53.465,218.842 53.924 C 218.552 54.383,218.235 54.856,218.136 54.974 C 215.344 58.339,210.379 66.028,210.379 66.990 L 210.379 68.064 214.431 68.064 C 219.327 68.064,218.962 67.828,218.962 70.998 L 218.962 73.453 220.259 73.453 L 221.557 73.453 221.557 70.983 C 221.557 68.098,221.550 68.110,223.359 68.025 C 225.644 67.917,225.416 66.320,223.102 66.226 L 221.657 66.168 221.604 59.391 C 221.564 54.275,221.491 52.577,221.305 52.458 C 220.855 52.172,220.054 52.290,219.709 52.692 M218.862 61.294 L 218.862 66.168 215.419 66.222 C 211.623 66.282,211.657 66.296,212.402 65.070 C 212.802 64.413,216.766 58.769,217.591 57.685 C 217.799 57.410,218.074 56.981,218.201 56.731 C 218.750 55.651,218.862 56.423,218.862 61.294 M130.439 74.500 C 130.110 74.613,129.502 74.828,129.088 74.978 C 128.674 75.127,128.162 75.250,127.949 75.250 C 127.459 75.250,126.547 75.660,126.547 75.880 C 126.547 75.973,126.891 76.048,127.311 76.048 C 128.986 76.048,128.942 75.792,128.942 85.463 L 128.942 93.954 128.453 94.482 C 128.183 94.773,127.746 95.010,127.479 95.010 C 126.854 95.010,126.395 95.508,126.858 95.685 C 127.289 95.851,133.631 95.843,133.797 95.677 C 134.017 95.457,133.512 95.010,133.044 95.010 C 131.722 95.010,131.737 95.132,131.737 84.169 C 131.737 73.148,131.853 74.014,130.439 74.500 M137.759 74.713 C 136.811 75.723,137.497 77.445,138.847 77.445 C 139.724 77.445,140.319 76.799,140.319 75.848 C 140.319 74.395,138.723 73.688,137.759 74.713 M175.915 75.212 C 170.655 78.601,167.814 87.455,170.234 92.914 C 170.332 93.134,170.574 93.718,170.774 94.212 C 171.836 96.846,175.723 101.198,177.014 101.198 C 177.473 101.198,177.232 100.438,176.595 99.876 C 176.048 99.393,175.342 98.601,174.463 97.483 C 171.973 94.320,171.323 84.525,173.320 80.240 C 173.942 78.904,174.814 77.689,176.098 76.370 C 177.714 74.708,177.620 74.113,175.915 75.212 M257.884 74.900 C 257.884 75.037,258.542 75.831,259.345 76.663 C 260.796 78.167,262.090 80.284,262.330 81.546 C 262.392 81.871,262.549 82.540,262.679 83.034 C 263.674 86.810,262.609 95.442,260.934 97.170 C 260.794 97.315,260.679 97.518,260.679 97.621 C 260.679 97.723,260.050 98.422,259.281 99.174 C 258.106 100.324,257.549 101.198,257.991 101.198 C 258.107 101.198,259.119 100.574,259.281 100.403 C 259.336 100.345,259.725 100.041,260.146 99.727 C 261.399 98.792,263.673 96.205,263.673 95.713 C 263.673 95.651,263.897 95.245,264.172 94.810 C 264.446 94.376,264.671 93.853,264.671 93.650 C 264.671 93.447,264.735 93.216,264.813 93.137 C 266.603 91.348,265.639 83.295,263.174 79.441 C 261.537 76.881,257.884 73.745,257.884 74.900 M139.022 81.666 C 138.473 81.871,137.463 82.230,136.776 82.464 C 135.287 82.971,135.104 83.433,136.393 83.433 C 137.767 83.433,137.824 83.660,137.824 89.139 C 137.824 94.318,137.719 94.752,136.392 95.024 C 135.624 95.181,135.293 95.388,135.438 95.623 C 135.567 95.831,142.374 95.883,142.580 95.677 C 142.800 95.456,142.294 95.010,141.823 95.010 C 141.362 95.010,140.870 94.567,140.653 93.957 C 140.584 93.762,140.521 90.966,140.513 87.744 C 140.496 80.957,140.532 81.102,139.022 81.666 M146.357 81.990 C 144.341 82.685,143.826 83.034,144.817 83.034 C 145.096 83.034,145.545 83.179,145.815 83.356 L 146.307 83.679 146.301 88.895 C 146.294 94.665,146.290 94.682,145.030 95.030 C 143.178 95.541,144.177 95.820,147.655 95.763 C 150.971 95.709,151.694 95.536,150.384 95.110 C 149.093 94.690,149.102 94.728,149.102 89.450 L 149.102 84.660 149.820 84.068 C 150.954 83.133,152.496 82.721,153.348 83.126 C 154.582 83.711,154.691 84.233,154.691 89.603 C 154.691 94.839,154.726 94.685,153.413 95.109 C 152.103 95.533,152.916 95.709,156.188 95.709 C 159.489 95.709,160.210 95.543,158.876 95.092 C 157.544 94.640,157.494 94.434,157.489 89.311 L 157.485 84.709 158.134 84.111 C 159.851 82.529,161.838 82.523,162.791 84.097 C 163.140 84.674,163.174 85.150,163.174 89.450 C 163.174 94.643,163.113 94.909,161.905 95.049 C 161.596 95.084,161.377 95.234,161.377 95.409 C 161.377 95.663,161.860 95.709,164.521 95.709 C 167.671 95.709,168.441 95.528,167.117 95.100 C 165.915 94.712,165.882 94.565,165.875 89.692 C 165.866 83.451,165.389 82.076,163.013 81.437 C 161.474 81.024,158.204 82.162,157.718 83.280 C 157.545 83.678,156.931 83.342,156.409 82.564 C 155.182 80.735,152.002 80.834,149.911 82.766 C 149.303 83.328,148.950 83.099,148.863 82.086 C 148.785 81.160,148.769 81.160,146.357 81.990 M181.675 87.475 L 181.737 88.323 217.465 88.378 C 257.114 88.439,254.092 88.517,254.092 87.421 L 254.092 86.627 217.853 86.627 L 181.614 86.627 181.675 87.475 M240.519 97.935 C 238.660 98.547,237.345 99.930,236.477 102.186 C 235.785 103.985,236.453 104.898,237.176 103.141 C 238.517 99.878,242.836 99.037,244.711 101.674 C 246.702 104.476,245.368 108.529,240.918 113.189 C 237.961 116.286,236.128 118.373,236.128 118.643 C 236.128 118.928,236.768 118.962,242.191 118.962 L 248.255 118.962 248.509 118.313 C 248.768 117.652,249.206 116.585,249.513 115.868 C 250.056 114.604,249.616 114.221,248.819 115.265 C 247.919 116.445,247.315 116.583,243.328 116.521 C 239.127 116.456,239.176 116.521,241.498 114.093 C 242.928 112.598,243.811 111.637,245.482 109.757 C 249.015 105.783,249.242 101.305,246.044 98.670 C 245.216 97.987,241.756 97.527,240.519 97.935 M160.832 104.934 C 159.873 105.431,159.137 105.917,159.197 106.013 C 159.258 106.112,159.470 106.101,159.680 105.989 C 161.127 105.214,161.277 105.778,161.277 111.976 C 161.277 117.780,161.242 117.975,160.095 118.434 C 158.871 118.923,159.031 118.962,162.275 118.962 C 164.138 118.962,165.269 118.887,165.269 118.762 C 165.269 118.653,165.042 118.563,164.763 118.563 C 164.485 118.563,164.036 118.418,163.765 118.241 L 163.273 117.918 163.273 110.955 C 163.273 102.882,163.537 103.532,160.832 104.934 M188.423 105.378 C 188.149 105.455,187.634 105.590,187.280 105.677 C 186.603 105.845,186.078 106.304,186.304 106.530 C 186.377 106.603,186.733 106.556,187.095 106.426 C 188.558 105.897,188.986 106.350,189.697 109.182 C 190.460 112.225,190.467 112.185,188.868 114.371 C 186.775 117.235,186.790 117.222,185.787 117.121 C 185.316 117.073,184.777 116.966,184.590 116.882 C 184.097 116.663,183.222 117.577,183.373 118.155 C 183.852 119.986,186.284 119.412,187.986 117.066 C 188.384 116.517,188.762 116.023,188.826 115.968 C 188.890 115.913,189.245 115.442,189.615 114.920 C 190.535 113.622,190.809 113.741,191.212 115.616 C 191.913 118.872,192.039 119.062,193.501 119.062 C 194.286 119.062,194.688 118.956,195.018 118.663 C 195.780 117.985,197.215 115.898,197.039 115.722 C 196.783 115.466,196.285 115.739,196.044 116.268 C 195.381 117.723,194.187 117.585,193.728 116.000 C 193.548 115.379,193.313 114.594,193.207 114.257 C 193.101 113.920,193.014 113.443,193.014 113.196 C 193.014 112.950,192.919 112.571,192.804 112.355 C 192.297 111.408,192.491 110.505,193.510 109.065 C 194.963 107.014,195.049 106.958,196.519 107.109 C 197.897 107.250,198.385 106.883,198.088 105.931 C 197.612 104.405,195.607 105.080,193.673 107.419 C 192.320 109.053,192.131 109.144,191.955 108.236 C 191.381 105.262,190.723 104.729,188.423 105.378 M128.443 109.487 C 128.004 109.645,127.622 109.776,127.595 109.777 C 127.567 109.779,127.545 109.872,127.545 109.984 C 127.545 110.100,127.754 110.135,128.030 110.066 C 129.056 109.808,129.940 110.959,129.940 112.553 C 129.940 112.774,130.039 113.173,130.160 113.438 C 130.428 114.025,130.299 114.298,128.797 116.334 L 127.717 117.798 126.752 117.665 C 125.712 117.522,125.297 117.821,125.494 118.573 C 125.743 119.527,127.331 119.196,128.302 117.987 C 128.709 117.481,129.091 117.021,129.151 116.966 C 129.212 116.911,129.462 116.578,129.707 116.227 C 130.221 115.491,130.686 115.537,130.850 116.339 C 131.491 119.467,132.714 120.011,134.334 117.889 C 135.178 116.784,135.051 116.385,134.134 117.263 C 133.449 117.919,132.825 117.810,132.679 117.009 C 132.625 116.711,132.386 115.732,132.148 114.834 L 131.715 113.200 132.249 112.339 C 133.224 110.768,133.485 110.579,134.678 110.579 L 135.754 110.579 135.691 109.932 C 135.556 108.528,133.653 109.191,132.421 111.071 C 131.973 111.756,131.337 111.748,131.337 111.058 C 131.337 109.374,130.308 108.815,128.443 109.487 M149.701 109.312 C 149.701 109.460,150.666 110.771,151.000 111.078 C 152.541 112.492,152.203 112.575,144.902 112.575 C 137.892 112.575,137.924 112.571,137.924 113.395 L 137.924 113.972 144.586 113.972 C 152.749 113.972,152.442 113.852,150.418 116.257 C 148.961 117.987,149.845 117.849,151.749 116.049 C 152.666 115.181,153.840 114.254,154.358 113.988 C 155.337 113.486,155.429 113.250,154.786 112.889 C 153.802 112.336,152.185 111.055,151.344 110.165 C 150.548 109.321,149.701 108.881,149.701 109.312 M208.505 110.294 C 208.438 110.468,208.383 110.919,208.383 111.294 L 208.383 111.976 217.177 111.976 L 225.970 111.976 225.909 111.028 L 225.848 110.080 217.238 110.028 C 209.516 109.981,208.615 110.009,208.505 110.294 " stroke="none" fill="#111111" fill-rule="evenodd"></path><path id="path1" d="M0.000 99.800 L 0.000 199.601 200.000 199.601 L 400.000 199.601 400.000 99.800 L 400.000 0.000 200.000 0.000 L 0.000 0.000 0.000 99.800 M221.831 52.520 C 221.900 52.863,221.956 56.007,221.956 59.506 L 221.956 65.868 223.239 65.868 C 224.798 65.868,225.150 66.139,225.150 67.340 C 225.150 68.486,224.906 68.663,223.330 68.663 L 221.990 68.663 221.923 71.042 C 221.886 72.350,221.791 73.486,221.711 73.566 C 221.456 73.820,219.680 73.895,219.112 73.675 L 218.563 73.463 218.563 71.063 L 218.563 68.663 214.485 68.663 C 209.821 68.663,209.780 68.650,209.780 67.132 C 209.780 66.283,210.275 65.070,210.622 65.070 C 210.708 65.070,210.778 64.974,210.778 64.857 C 210.778 64.625,211.784 63.215,212.026 63.107 C 212.108 63.071,212.176 62.935,212.176 62.806 C 212.176 62.676,212.386 62.343,212.644 62.066 C 212.902 61.788,213.149 61.467,213.193 61.353 C 213.237 61.238,214.751 59.064,216.558 56.521 L 219.842 51.896 220.774 51.896 C 221.659 51.896,221.713 51.928,221.831 52.520 M218.014 57.638 C 217.782 58.051,217.361 58.658,217.078 58.985 C 216.796 59.313,216.514 59.738,216.452 59.930 C 216.391 60.122,216.276 60.279,216.197 60.279 C 216.119 60.279,215.885 60.571,215.678 60.928 C 215.471 61.285,214.688 62.441,213.938 63.497 C 212.143 66.025,212.035 65.868,215.569 65.868 L 218.563 65.868 218.563 61.377 C 218.563 58.907,218.535 56.886,218.500 56.886 C 218.465 56.886,218.247 57.224,218.014 57.638 M131.943 83.882 C 131.950 94.974,131.888 94.536,133.492 94.797 C 134.114 94.898,134.232 94.996,134.232 95.413 L 134.232 95.908 130.339 95.908 L 126.447 95.908 126.388 95.400 C 126.335 94.948,126.424 94.870,127.186 94.701 C 128.735 94.358,128.742 94.320,128.742 85.419 C 128.743 76.841,128.728 76.730,127.545 76.533 C 126.398 76.341,126.317 76.283,126.384 75.704 C 126.438 75.234,126.563 75.139,127.286 75.016 C 127.748 74.938,128.303 74.779,128.521 74.663 C 128.738 74.546,129.141 74.451,129.416 74.451 C 129.691 74.451,129.972 74.361,130.040 74.251 C 130.108 74.142,130.562 74.052,131.050 74.052 L 131.936 74.052 131.943 83.882 M140.292 74.522 C 141.966 76.304,139.269 78.913,137.478 77.245 C 136.895 76.702,136.870 75.037,137.437 74.466 C 138.031 73.867,139.708 73.900,140.292 74.522 M177.479 74.382 C 178.029 74.880,177.945 75.081,176.697 76.262 C 175.007 77.860,173.453 80.143,173.453 81.028 C 173.453 81.209,173.374 81.443,173.277 81.547 C 172.237 82.665,172.248 90.717,173.295 94.212 C 173.501 94.901,173.611 95.138,174.500 96.816 C 174.747 97.283,175.601 98.325,176.397 99.130 C 177.948 100.699,178.070 100.961,177.438 101.355 C 176.713 101.808,171.856 98.053,171.856 97.040 C 171.856 96.927,171.741 96.716,171.601 96.571 C 171.367 96.330,170.428 94.475,170.052 93.513 C 168.834 90.394,168.847 84.533,170.078 82.188 C 170.178 81.998,170.259 81.679,170.259 81.480 C 170.259 81.281,170.340 81.032,170.439 80.928 C 170.537 80.824,170.793 80.407,171.006 80.002 C 171.943 78.222,173.922 76.166,176.248 74.555 C 177.095 73.969,177.032 73.977,177.479 74.382 M258.624 74.352 C 260.884 75.479,265.269 81.143,265.269 82.935 C 265.269 83.114,265.367 83.443,265.487 83.666 C 265.841 84.327,266.249 87.993,266.047 88.697 C 265.949 89.039,265.869 89.768,265.869 90.318 C 265.870 91.230,265.485 92.792,265.046 93.660 C 264.949 93.851,264.870 94.132,264.870 94.284 C 264.870 94.437,264.736 94.674,264.571 94.810 C 264.406 94.947,264.271 95.228,264.271 95.434 C 264.271 95.640,264.182 95.808,264.072 95.808 C 263.962 95.808,263.872 95.904,263.872 96.021 C 263.872 96.889,259.678 100.944,258.258 101.450 C 257.269 101.802,257.279 100.632,258.273 99.734 C 260.233 97.963,261.849 95.365,262.144 93.513 C 262.196 93.184,262.347 92.287,262.480 91.519 C 262.765 89.867,262.641 84.726,262.272 82.934 C 261.750 80.400,260.722 78.494,258.882 76.650 C 257.192 74.956,257.167 74.913,257.588 74.447 C 258.015 73.976,257.893 73.987,258.624 74.352 M140.605 81.152 C 140.876 81.424,140.918 82.303,140.918 87.753 C 140.918 94.706,140.886 94.534,142.208 94.748 C 142.895 94.859,143.285 95.371,143.015 95.807 C 142.938 95.931,141.409 96.008,139.022 96.008 C 136.635 96.008,135.106 95.931,135.029 95.807 C 134.783 95.410,135.147 94.810,135.633 94.810 C 137.261 94.810,137.320 94.609,137.320 89.022 C 137.320 83.530,137.341 83.633,136.216 83.633 C 135.023 83.633,134.679 82.631,135.785 82.378 C 136.340 82.250,137.514 81.838,137.971 81.610 C 138.162 81.515,138.476 81.434,138.670 81.431 C 138.864 81.427,139.196 81.293,139.409 81.131 C 139.906 80.756,140.214 80.761,140.605 81.152 M149.062 81.078 C 149.194 81.210,149.301 81.662,149.301 82.084 L 149.301 82.850 149.849 82.342 C 151.894 80.447,154.932 80.369,156.600 82.169 L 157.411 83.045 157.897 82.617 C 160.190 80.600,163.065 80.295,164.726 81.894 C 165.896 83.021,166.056 83.807,166.076 88.523 C 166.097 93.949,166.232 94.532,167.528 94.797 C 168.278 94.950,168.699 95.532,168.263 95.814 C 168.091 95.925,166.478 95.986,164.471 95.958 L 160.978 95.908 160.978 95.422 C 160.978 95.042,161.118 94.899,161.618 94.770 C 162.809 94.461,162.874 94.187,162.874 89.469 C 162.874 85.624,162.836 85.139,162.480 84.440 C 161.698 82.908,159.707 82.938,158.368 84.503 L 157.685 85.301 157.685 88.870 C 157.685 93.691,157.967 94.686,159.381 94.844 C 159.869 94.898,159.980 95.003,159.980 95.409 L 159.980 95.908 156.238 95.962 L 152.495 96.017 152.495 95.414 C 152.495 94.912,152.575 94.810,152.967 94.810 C 153.227 94.810,153.676 94.624,153.965 94.397 L 154.491 93.983 154.491 89.644 C 154.491 84.854,154.308 83.977,153.203 83.474 C 152.661 83.227,151.104 83.494,150.540 83.931 C 149.261 84.922,149.301 84.742,149.301 89.447 C 149.301 94.290,149.359 94.510,150.703 94.785 C 151.269 94.900,151.397 95.017,151.397 95.417 L 151.397 95.908 147.705 95.908 L 144.012 95.908 144.012 95.417 C 144.012 95.021,144.141 94.900,144.683 94.789 C 145.999 94.520,146.002 94.509,146.068 89.220 C 146.135 83.868,146.100 83.689,144.959 83.595 C 143.140 83.444,143.955 82.261,146.307 81.636 C 146.801 81.505,147.430 81.274,147.705 81.123 C 148.325 80.782,148.752 80.768,149.062 81.078 M254.167 86.484 C 254.431 86.678,254.502 86.961,254.455 87.632 L 254.391 88.523 217.864 88.523 L 181.337 88.523 181.278 87.492 C 181.228 86.636,181.279 86.444,181.577 86.367 C 182.537 86.118,253.823 86.233,254.167 86.484 M244.154 97.516 C 246.092 98.018,247.447 99.077,248.209 100.682 C 248.596 101.496,248.693 105.027,248.349 105.716 C 248.246 105.920,247.996 106.447,247.793 106.886 C 247.045 108.503,245.654 110.232,241.936 114.168 C 239.959 116.261,239.935 116.240,244.185 116.131 C 247.649 116.042,247.993 115.948,248.590 114.938 C 249.631 113.176,250.688 114.162,249.780 116.049 C 249.627 116.367,249.501 116.735,249.501 116.866 C 249.501 117.083,249.122 118.001,248.718 118.762 C 248.481 119.209,235.776 119.318,235.606 118.874 C 235.451 118.472,235.734 118.110,238.272 115.469 C 240.243 113.418,240.897 112.697,242.788 110.491 C 243.065 110.169,243.451 109.607,243.647 109.244 C 243.843 108.880,244.072 108.583,244.157 108.583 C 244.242 108.583,244.311 108.421,244.311 108.224 C 244.311 108.026,244.396 107.779,244.500 107.675 C 244.679 107.494,245.017 106.346,245.252 105.116 C 245.387 104.413,244.943 102.471,244.578 102.169 C 244.431 102.047,244.311 101.834,244.311 101.695 C 244.311 101.557,244.154 101.386,243.962 101.315 C 243.770 101.245,243.298 101.014,242.914 100.803 C 240.959 99.727,238.952 100.626,237.575 103.194 C 236.428 105.333,235.266 104.268,236.161 101.896 C 237.502 98.341,240.660 96.610,244.154 97.516 M163.551 103.909 C 163.618 104.082,163.673 107.308,163.673 111.077 L 163.673 117.929 164.474 118.064 C 165.318 118.207,165.941 118.870,165.419 119.070 C 164.729 119.335,158.982 119.063,158.982 118.765 C 158.982 118.602,159.251 118.350,159.581 118.206 C 159.910 118.061,160.314 117.871,160.479 117.782 C 160.868 117.573,161.039 106.610,160.656 106.373 C 160.531 106.296,160.072 106.280,159.638 106.338 C 158.103 106.544,158.672 105.658,160.778 104.560 C 162.698 103.559,163.358 103.404,163.551 103.909 M191.066 104.985 C 191.593 105.399,192.211 106.968,192.223 107.922 C 192.229 108.470,192.248 108.461,193.071 107.489 C 194.805 105.439,196.003 104.591,197.164 104.591 C 197.655 104.591,198.603 105.636,198.603 106.178 C 198.603 107.183,196.946 108.295,196.507 107.585 C 196.257 107.180,195.282 107.378,194.787 107.934 C 193.989 108.830,192.764 110.934,192.906 111.165 C 192.979 111.282,193.115 111.805,193.209 112.326 C 194.061 117.045,194.449 117.576,195.856 115.943 C 196.650 115.021,196.780 114.942,197.171 115.151 C 197.603 115.383,197.784 116.168,197.405 116.168 C 197.295 116.168,197.206 116.263,197.206 116.381 C 197.206 116.913,195.441 118.891,194.562 119.345 C 192.894 120.205,191.023 118.672,191.019 116.442 C 191.018 116.208,190.879 115.685,190.709 115.278 L 190.401 114.540 189.968 115.104 C 189.730 115.415,189.484 115.714,189.421 115.768 C 189.359 115.823,188.954 116.362,188.521 116.966 C 186.273 120.101,183.034 120.708,183.034 117.995 C 183.034 116.836,184.980 115.878,185.529 116.766 C 185.765 117.148,186.365 116.962,186.924 116.334 C 188.313 114.776,190.043 112.087,189.917 111.684 C 189.668 110.884,189.187 108.870,189.083 108.184 C 188.913 107.068,188.533 106.786,187.195 106.786 C 186.022 106.786,185.385 105.977,186.327 105.682 C 186.492 105.631,186.784 105.527,186.976 105.452 C 189.174 104.591,190.389 104.452,191.066 104.985 M151.534 109.830 C 152.940 111.209,153.661 111.831,154.100 112.041 C 156.027 112.963,156.020 113.354,154.053 114.685 C 153.209 115.256,152.086 116.181,151.558 116.739 C 149.755 118.645,148.610 117.787,150.286 115.785 C 151.532 114.296,151.838 114.371,144.551 114.371 C 137.606 114.371,137.525 114.360,137.525 113.420 C 137.525 112.132,137.285 112.176,144.368 112.173 C 151.764 112.169,151.564 112.212,150.385 110.877 C 149.832 110.250,149.504 109.689,149.503 109.365 C 149.499 108.205,149.993 108.318,151.534 109.830 M131.123 109.308 C 131.351 109.598,131.537 110.041,131.537 110.295 C 131.537 111.116,131.929 111.029,132.852 110.002 C 134.114 108.599,135.530 108.364,136.116 109.460 C 136.546 110.263,135.463 111.503,134.808 110.959 C 133.379 109.773,131.937 113.052,132.737 115.669 C 132.838 115.998,132.970 116.514,133.031 116.816 C 133.174 117.526,133.516 117.509,134.104 116.765 C 134.937 115.710,135.899 116.305,135.156 117.415 C 133.303 120.184,130.763 120.192,130.732 117.428 C 130.717 116.083,130.246 116.040,129.327 117.301 C 127.633 119.624,126.598 120.101,125.430 119.096 C 124.500 118.296,125.460 116.584,126.520 117.151 C 128.027 117.958,130.207 114.469,129.558 112.290 C 129.458 111.952,129.298 111.407,129.204 111.078 C 129.049 110.538,128.948 110.477,128.177 110.458 C 125.777 110.397,127.507 108.890,130.075 108.804 C 130.538 108.788,130.821 108.924,131.123 109.308 M226.226 109.897 C 226.435 110.440,226.358 111.885,226.108 112.136 C 225.637 112.606,208.446 112.466,208.191 111.989 C 207.931 111.504,207.926 110.756,208.179 110.093 L 208.373 109.581 217.239 109.581 C 225.140 109.581,226.118 109.615,226.226 109.897 " stroke="none" fill="#fbfbfb" fill-rule="evenodd"></path><path id="path2" d="M219.455 52.445 L 219.104 52.994 219.595 52.545 C 220.137 52.049,221.453 51.920,221.624 52.345 C 221.684 52.494,221.731 52.454,221.741 52.246 C 221.770 51.597,219.893 51.761,219.455 52.445 M221.852 59.281 L 221.856 65.968 223.146 66.029 C 224.688 66.101,224.950 66.280,224.950 67.265 C 224.950 68.250,224.688 68.430,223.146 68.502 L 221.856 68.563 221.846 70.809 L 221.836 73.055 221.902 70.859 L 221.969 68.663 223.320 68.663 C 224.907 68.663,225.150 68.487,225.150 67.340 C 225.150 66.140,224.797 65.868,223.242 65.868 L 221.961 65.868 221.905 59.232 L 221.848 52.595 221.852 59.281 M216.073 57.209 C 214.467 59.472,213.196 61.366,213.249 61.419 C 213.301 61.472,213.586 61.132,213.882 60.663 C 214.178 60.195,214.499 59.715,214.595 59.596 C 214.692 59.478,215.591 58.214,216.592 56.786 C 217.593 55.359,218.587 53.945,218.801 53.643 C 219.014 53.341,219.145 53.094,219.091 53.094 C 219.037 53.094,217.679 54.945,216.073 57.209 M218.520 61.277 L 218.577 65.868 215.576 65.868 C 212.035 65.868,212.145 66.026,213.931 63.497 C 215.573 61.171,216.072 60.391,215.817 60.549 C 215.649 60.653,214.079 62.877,212.860 64.737 C 211.938 66.144,211.817 66.084,215.424 66.023 L 218.663 65.968 218.716 61.327 C 218.746 58.775,218.701 56.687,218.616 56.686 C 218.532 56.686,218.489 58.752,218.520 61.277 M218.021 57.335 C 217.047 58.602,215.973 60.279,216.137 60.279 C 216.249 60.279,216.392 60.116,216.456 59.915 C 216.519 59.715,216.739 59.371,216.944 59.151 C 217.356 58.710,218.414 57.086,218.290 57.086 C 218.248 57.086,218.126 57.198,218.021 57.335 M212.505 62.196 C 212.302 62.474,212.174 62.740,212.220 62.786 C 212.266 62.832,212.502 62.601,212.745 62.273 C 212.987 61.945,213.116 61.679,213.030 61.683 C 212.944 61.686,212.708 61.917,212.505 62.196 M211.315 63.900 C 211.006 64.347,210.789 64.747,210.832 64.791 C 210.875 64.834,211.201 64.466,211.556 63.972 C 211.910 63.478,212.128 63.077,212.038 63.081 C 211.949 63.086,211.624 63.454,211.315 63.900 M210.123 65.650 C 209.688 66.386,209.672 67.927,210.094 68.349 C 210.359 68.614,211.045 68.663,214.485 68.663 L 218.563 68.663 218.563 71.046 C 218.563 72.357,218.630 73.471,218.713 73.523 C 218.795 73.574,218.817 72.479,218.762 71.089 L 218.663 68.563 214.571 68.463 C 212.320 68.408,210.357 68.284,210.207 68.188 C 209.813 67.934,210.006 65.992,210.476 65.472 C 210.676 65.251,210.756 65.070,210.653 65.070 C 210.550 65.070,210.311 65.331,210.123 65.650 M219.813 73.796 C 220.117 73.842,220.566 73.841,220.811 73.793 C 221.057 73.746,220.808 73.708,220.259 73.710 C 219.711 73.711,219.510 73.750,219.813 73.796 M130.040 74.251 C 129.894 74.488,130.089 74.488,130.639 74.251 C 131.024 74.086,131.022 74.079,130.601 74.066 C 130.360 74.058,130.108 74.142,130.040 74.251 M137.454 74.450 C 137.250 74.656,137.131 74.942,137.189 75.087 C 137.274 75.301,137.297 75.300,137.310 75.082 C 137.318 74.935,137.527 74.646,137.774 74.440 C 138.021 74.234,138.134 74.068,138.024 74.070 C 137.914 74.073,137.658 74.244,137.454 74.450 M139.847 74.406 C 140.855 75.222,140.958 76.148,140.139 77.025 C 139.821 77.366,139.633 77.645,139.723 77.645 C 140.211 77.645,140.954 76.347,140.846 75.681 C 140.734 74.987,140.034 74.048,139.636 74.056 C 139.518 74.059,139.613 74.216,139.847 74.406 M176.248 74.555 C 174.776 75.573,172.928 77.200,172.523 77.835 C 172.344 78.114,172.773 77.782,173.474 77.096 C 175.750 74.873,177.329 73.992,177.595 74.799 C 177.640 74.935,177.355 75.350,176.962 75.720 C 176.569 76.091,176.248 76.455,176.248 76.529 C 176.248 76.602,176.607 76.330,177.046 75.924 C 177.940 75.097,178.007 74.859,177.479 74.382 C 177.032 73.977,177.095 73.969,176.248 74.555 M257.596 74.439 C 257.384 74.673,257.309 74.927,257.407 75.085 C 257.522 75.271,257.603 75.203,257.689 74.848 C 257.772 74.512,257.926 74.372,258.167 74.415 C 258.379 74.452,258.470 74.392,258.391 74.265 C 258.200 73.956,257.992 74.001,257.596 74.439 M128.244 74.758 C 127.461 75.116,127.810 75.118,128.942 74.761 C 129.554 74.568,129.681 74.479,129.341 74.481 C 129.067 74.482,128.573 74.607,128.244 74.758 M259.635 75.299 C 260.154 75.766,260.645 76.238,260.725 76.347 C 260.808 76.460,260.873 76.466,260.875 76.360 C 260.879 76.151,259.065 74.453,258.837 74.452 C 258.757 74.451,259.116 74.833,259.635 75.299 M126.439 75.263 C 126.237 75.590,126.398 75.607,126.946 75.319 C 127.425 75.067,127.427 75.056,127.008 75.053 C 126.767 75.051,126.511 75.146,126.439 75.263 M258.084 75.728 C 258.084 75.949,259.473 77.320,259.584 77.209 C 259.633 77.160,259.316 76.771,258.879 76.344 C 258.441 75.917,258.084 75.640,258.084 75.728 M126.467 76.280 C 126.524 76.372,126.767 76.448,127.008 76.450 C 127.749 76.454,128.343 76.680,128.343 76.958 C 128.343 77.103,128.433 77.277,128.543 77.345 C 128.828 77.521,128.790 77.187,128.476 76.758 C 128.217 76.404,126.255 75.937,126.467 76.280 M137.142 76.652 C 137.126 76.952,137.788 77.651,138.076 77.638 C 138.157 77.634,138.035 77.474,137.805 77.282 C 137.575 77.090,137.336 76.801,137.272 76.640 C 137.174 76.390,137.155 76.392,137.142 76.652 M261.677 77.142 C 262.061 77.578,262.428 77.983,262.493 78.040 C 262.558 78.097,262.983 78.728,263.437 79.441 C 263.891 80.155,264.265 80.664,264.267 80.574 C 264.276 80.220,262.485 77.707,261.753 77.046 L 260.978 76.347 261.677 77.142 M174.790 78.110 C 174.097 79.018,173.411 80.264,173.536 80.389 C 173.592 80.445,173.749 80.232,173.884 79.916 C 174.020 79.600,174.435 78.915,174.807 78.393 C 175.575 77.317,175.561 77.098,174.790 78.110 M260.378 78.338 C 260.581 78.665,260.927 79.270,261.148 79.683 C 261.368 80.096,261.582 80.401,261.622 80.361 C 261.729 80.253,260.685 78.395,260.320 78.044 C 260.101 77.833,260.118 77.920,260.378 78.338 M171.587 78.962 C 171.384 79.241,171.256 79.506,171.302 79.552 C 171.348 79.598,171.584 79.367,171.827 79.039 C 172.069 78.711,172.197 78.446,172.112 78.449 C 172.026 78.453,171.790 78.684,171.587 78.962 M170.670 80.564 C 170.435 80.962,170.271 81.372,170.305 81.475 C 170.340 81.577,170.567 81.252,170.810 80.751 C 171.340 79.659,171.264 79.558,170.670 80.564 M173.077 81.367 C 172.928 81.819,172.854 82.312,172.914 82.462 C 172.974 82.612,173.029 82.505,173.038 82.226 C 173.047 81.946,173.152 81.618,173.272 81.498 C 173.392 81.378,173.459 81.114,173.420 80.912 C 173.373 80.668,173.257 80.821,173.077 81.367 M139.409 81.131 C 138.944 81.483,139.170 81.535,139.707 81.200 C 140.649 80.611,140.709 80.979,140.769 87.797 L 140.824 94.112 140.871 87.789 C 140.924 80.624,140.804 80.076,139.409 81.131 M147.793 81.131 C 147.332 81.480,147.551 81.537,148.080 81.206 C 148.704 80.816,149.102 81.132,149.102 82.018 C 149.102 82.980,149.324 83.162,149.823 82.610 C 150.030 82.381,150.454 82.063,150.767 81.901 C 151.079 81.739,151.284 81.556,151.222 81.494 C 151.106 81.379,149.719 82.344,149.454 82.724 C 149.373 82.840,149.306 82.570,149.304 82.126 C 149.300 80.912,148.649 80.484,147.793 81.131 M151.996 81.149 C 151.500 81.391,151.483 81.420,151.896 81.314 C 152.171 81.245,152.934 81.123,153.593 81.043 L 154.790 80.899 153.693 80.878 C 153.089 80.866,152.325 80.988,151.996 81.149 M160.579 81.137 C 160.250 81.306,160.160 81.387,160.379 81.318 C 161.369 81.009,162.494 81.007,163.393 81.313 C 164.570 81.714,164.741 81.713,163.993 81.308 C 163.155 80.854,161.313 80.762,160.579 81.137 M264.271 81.005 C 264.271 81.096,264.339 81.238,264.421 81.321 C 264.503 81.403,264.723 81.845,264.909 82.302 C 265.095 82.759,265.252 83.029,265.258 82.901 C 265.273 82.602,264.520 80.838,264.378 80.838 C 264.320 80.838,264.271 80.913,264.271 81.005 M155.504 81.433 C 155.897 81.641,156.436 82.130,156.702 82.521 C 157.238 83.308,157.259 83.318,157.685 83.012 C 157.938 82.830,157.931 82.814,157.639 82.907 C 157.403 82.983,157.124 82.796,156.758 82.316 C 156.268 81.674,155.344 81.025,154.950 81.047 C 154.862 81.052,155.112 81.225,155.504 81.433 M146.208 81.636 C 145.988 81.731,145.584 81.855,145.309 81.913 C 145.035 81.971,144.631 82.162,144.411 82.336 C 144.045 82.628,144.064 82.629,144.651 82.345 C 145.002 82.175,145.418 82.036,145.576 82.036 C 145.733 82.036,146.165 81.905,146.534 81.744 C 146.903 81.584,147.071 81.455,146.906 81.458 C 146.742 81.462,146.427 81.541,146.208 81.636 M158.782 81.941 L 158.184 82.443 158.982 82.004 C 159.990 81.449,160.005 81.437,159.664 81.438 C 159.508 81.439,159.112 81.665,158.782 81.941 M262.199 82.535 C 262.266 83.084,262.390 83.892,262.473 84.331 L 262.625 85.130 262.641 84.431 C 262.650 84.047,262.527 83.239,262.367 82.635 L 262.076 81.537 262.199 82.535 M136.527 82.136 C 136.210 82.317,136.141 82.424,136.337 82.428 C 136.507 82.432,136.732 82.354,136.836 82.255 C 136.941 82.156,137.206 82.031,137.425 81.979 L 137.824 81.883 137.425 81.867 C 137.206 81.858,136.801 81.979,136.527 82.136 M164.906 82.334 C 165.144 82.608,165.375 82.796,165.418 82.752 C 165.524 82.646,164.824 81.836,164.628 81.836 C 164.543 81.836,164.668 82.060,164.906 82.334 M135.223 82.854 C 135.149 83.087,135.193 83.376,135.321 83.503 C 135.496 83.677,135.517 83.640,135.409 83.354 C 135.310 83.096,135.382 82.890,135.634 82.706 C 135.950 82.475,135.957 82.435,135.680 82.435 C 135.502 82.435,135.296 82.624,135.223 82.854 M172.566 83.544 C 172.491 83.945,172.474 84.317,172.529 84.372 C 172.584 84.427,172.690 84.144,172.766 83.744 C 172.841 83.343,172.857 82.970,172.802 82.916 C 172.748 82.861,172.641 83.143,172.566 83.544 M144.152 83.234 C 144.204 83.406,144.532 83.559,144.926 83.594 C 145.301 83.628,145.721 83.802,145.858 83.981 C 145.996 84.161,146.108 84.219,146.108 84.110 C 146.108 83.752,145.638 83.433,145.110 83.433 C 144.824 83.433,144.472 83.321,144.326 83.184 C 144.113 82.982,144.079 82.992,144.152 83.234 M151.497 83.346 C 150.665 83.661,151.166 83.727,152.049 83.419 C 152.874 83.132,153.769 83.592,154.071 84.457 C 154.193 84.808,154.344 85.044,154.407 84.981 C 154.631 84.757,153.874 83.634,153.300 83.337 C 152.622 82.986,152.445 82.987,151.497 83.346 M159.556 83.340 C 158.862 83.644,157.685 84.740,157.685 85.081 C 157.685 85.202,157.992 84.942,158.368 84.503 C 159.688 82.961,161.684 82.910,162.470 84.398 C 162.683 84.800,162.861 85.014,162.865 84.873 C 162.908 83.627,160.960 82.724,159.556 83.340 M165.580 83.433 C 165.654 83.708,165.781 84.381,165.863 84.930 L 166.012 85.928 166.040 85.103 C 166.055 84.649,165.928 83.975,165.758 83.606 C 165.565 83.188,165.498 83.123,165.580 83.433 M169.501 83.697 C 169.369 84.061,169.274 84.757,169.290 85.244 L 169.318 86.128 169.456 85.130 C 169.532 84.581,169.664 83.885,169.749 83.583 C 169.965 82.816,169.791 82.896,169.501 83.697 M265.387 83.733 C 265.455 83.952,265.580 84.581,265.665 85.130 C 265.815 86.107,265.819 86.111,265.834 85.329 C 265.843 84.890,265.718 84.261,265.557 83.932 C 265.395 83.603,265.319 83.513,265.387 83.733 M149.944 84.157 C 149.591 84.433,149.301 84.765,149.301 84.893 C 149.301 85.021,149.521 84.889,149.790 84.599 C 150.058 84.309,150.395 84.031,150.538 83.980 C 150.681 83.929,150.751 83.835,150.693 83.770 C 150.634 83.706,150.297 83.880,149.944 84.157 M137.226 89.022 C 137.226 92.553,137.289 94.077,137.425 93.848 C 137.542 93.651,137.625 91.659,137.625 89.022 C 137.625 86.384,137.542 84.393,137.425 84.196 C 137.289 83.967,137.226 85.491,137.226 89.022 M162.957 89.721 C 162.957 91.697,162.987 92.478,163.023 91.457 C 163.059 90.436,163.059 88.819,163.023 87.864 C 162.986 86.909,162.957 87.745,162.957 89.721 M172.323 87.625 C 172.323 88.448,172.358 88.785,172.401 88.373 C 172.444 87.962,172.444 87.288,172.401 86.876 C 172.358 86.465,172.323 86.801,172.323 87.625 M199.735 86.377 C 209.634 86.406,225.891 86.406,235.862 86.377 C 245.834 86.349,237.735 86.325,217.864 86.325 C 197.994 86.325,189.836 86.349,199.735 86.377 M265.909 87.625 C 265.904 88.720,265.947 88.974,266.068 88.571 C 266.159 88.268,266.162 87.595,266.075 87.074 C 265.924 86.181,265.915 86.212,265.909 87.625 M181.277 87.459 C 181.319 88.171,181.430 88.517,181.637 88.572 C 181.880 88.638,181.885 88.617,181.665 88.463 C 181.482 88.335,181.417 87.972,181.466 87.350 C 181.507 86.842,181.467 86.427,181.378 86.427 C 181.289 86.427,181.244 86.892,181.277 87.459 M254.260 87.417 C 254.313 88.175,254.257 88.408,254.006 88.485 C 253.750 88.562,253.756 88.576,254.038 88.551 C 254.419 88.517,254.677 86.933,254.354 86.609 C 254.265 86.520,254.222 86.883,254.260 87.417 M149.176 89.122 C 149.177 90.329,149.210 90.798,149.250 90.162 C 149.289 89.527,149.289 88.539,149.249 87.967 C 149.209 87.394,149.176 87.914,149.176 89.122 M262.734 88.024 C 262.734 88.628,262.772 88.875,262.818 88.573 C 262.863 88.271,262.863 87.777,262.818 87.475 C 262.772 87.173,262.734 87.420,262.734 88.024 M169.112 87.924 C 169.114 88.363,169.155 88.519,169.203 88.271 C 169.251 88.023,169.249 87.664,169.199 87.473 C 169.149 87.282,169.110 87.485,169.112 87.924 M265.644 90.519 C 265.579 91.178,265.467 91.941,265.395 92.216 C 265.312 92.536,265.376 92.475,265.576 92.044 C 265.768 91.630,265.864 90.979,265.825 90.347 L 265.763 89.321 265.644 90.519 M169.287 90.519 C 169.276 90.848,169.405 91.477,169.573 91.916 C 169.878 92.713,169.878 92.713,169.747 92.016 C 169.396 90.146,169.309 89.864,169.287 90.519 M172.495 91.218 C 172.495 91.492,172.567 91.941,172.655 92.216 L 172.814 92.715 172.814 92.216 C 172.814 91.941,172.743 91.492,172.655 91.218 L 172.495 90.719 172.495 91.218 M262.421 91.816 C 262.068 93.936,262.056 94.376,262.383 93.214 C 262.553 92.610,262.665 91.846,262.632 91.517 C 262.579 91.000,262.550 91.041,262.421 91.816 M149.148 92.415 C 149.148 92.799,149.189 92.957,149.239 92.764 C 149.290 92.572,149.290 92.258,149.239 92.066 C 149.189 91.874,149.148 92.031,149.148 92.415 M157.703 93.174 C 157.680 93.741,158.214 94.810,158.519 94.810 C 158.653 94.810,158.617 94.669,158.431 94.461 C 158.259 94.269,158.028 93.797,157.919 93.413 C 157.771 92.891,157.716 92.830,157.703 93.174 M172.875 93.141 C 172.863 93.375,172.994 93.869,173.165 94.239 C 173.472 94.903,173.455 94.759,173.059 93.313 C 172.935 92.861,172.890 92.819,172.875 93.141 M265.093 92.948 C 265.080 93.076,265.012 93.345,264.941 93.547 C 264.840 93.830,264.867 93.861,265.059 93.684 C 265.195 93.558,265.264 93.289,265.212 93.085 C 265.159 92.881,265.106 92.820,265.093 92.948 M166.086 93.354 C 166.060 93.992,166.482 94.810,166.837 94.810 C 167.101 94.810,167.098 94.776,166.817 94.561 C 166.638 94.424,166.405 93.997,166.298 93.613 C 166.163 93.128,166.098 93.049,166.086 93.354 M128.408 93.804 C 128.282 94.138,127.968 94.501,127.712 94.611 C 127.373 94.755,127.349 94.796,127.624 94.760 C 128.060 94.703,128.826 93.764,128.713 93.425 C 128.671 93.299,128.534 93.470,128.408 93.804 M145.924 93.851 C 145.915 94.037,145.709 94.329,145.465 94.500 C 145.221 94.671,145.117 94.810,145.234 94.810 C 145.573 94.810,146.159 94.061,146.044 93.774 C 145.974 93.600,145.934 93.625,145.924 93.851 M131.936 93.935 C 131.936 94.175,132.696 94.921,132.810 94.793 C 132.850 94.747,132.669 94.488,132.409 94.216 C 132.149 93.944,131.936 93.817,131.936 93.935 M149.308 93.969 C 149.320 94.235,149.874 94.852,150.037 94.781 C 150.127 94.742,149.998 94.512,149.750 94.269 C 149.503 94.026,149.304 93.891,149.308 93.969 M162.332 94.351 C 162.089 94.604,161.963 94.810,162.052 94.810 C 162.247 94.810,162.973 94.034,162.856 93.951 C 162.811 93.918,162.576 94.099,162.332 94.351 M170.260 93.925 C 170.259 94.230,171.069 95.863,171.171 95.761 C 171.219 95.714,171.033 95.234,170.759 94.694 C 170.485 94.154,170.261 93.808,170.260 93.925 M153.920 94.428 C 153.599 94.689,153.543 94.810,153.746 94.810 C 154.045 94.810,154.616 94.269,154.470 94.124 C 154.426 94.081,154.179 94.218,153.920 94.428 M141.118 94.511 C 141.254 94.676,141.512 94.800,141.691 94.787 C 141.965 94.768,141.961 94.750,141.667 94.673 C 141.475 94.623,141.317 94.498,141.317 94.397 C 141.317 94.295,141.217 94.212,141.093 94.212 C 140.939 94.212,140.946 94.304,141.118 94.511 M133.782 95.013 C 134.877 95.692,134.247 95.826,130.249 95.767 C 128.114 95.735,126.436 95.778,126.521 95.863 C 126.606 95.948,128.376 95.993,130.454 95.963 L 134.232 95.908 134.232 95.412 C 134.232 95.069,134.108 94.897,133.832 94.856 C 133.467 94.801,133.463 94.814,133.782 95.013 M135.031 95.208 C 134.961 95.426,134.960 95.696,135.029 95.807 C 135.197 96.079,142.847 96.079,143.015 95.807 C 143.211 95.490,142.919 94.810,142.587 94.810 C 142.326 94.810,142.328 94.852,142.602 95.126 C 142.776 95.299,142.867 95.524,142.804 95.625 C 142.666 95.849,135.393 95.873,135.254 95.649 C 135.124 95.438,135.357 95.097,135.729 94.956 C 135.933 94.878,135.890 94.837,135.592 94.826 C 135.324 94.816,135.108 94.963,135.031 95.208 M143.984 95.110 C 143.658 95.962,143.915 96.020,147.750 95.963 L 151.397 95.908 151.397 95.409 C 151.397 95.023,151.285 94.899,150.898 94.862 L 150.399 94.814 150.865 95.012 C 152.041 95.510,151.190 95.708,147.638 95.763 C 144.033 95.819,143.366 95.664,144.461 95.026 C 144.792 94.833,144.792 94.822,144.455 94.816 C 144.259 94.813,144.048 94.945,143.984 95.110 M159.431 95.006 C 160.784 95.581,159.961 95.798,156.187 95.861 L 152.495 95.922 156.237 95.915 L 159.980 95.908 159.980 95.409 C 159.980 95.023,159.867 94.899,159.481 94.862 C 158.989 94.815,158.989 94.817,159.431 95.006 M160.950 95.110 C 160.632 95.940,160.904 96.008,164.515 96.005 C 166.412 96.003,168.099 95.916,168.263 95.811 C 168.684 95.543,168.274 94.922,167.644 94.873 C 167.262 94.844,167.246 94.859,167.565 94.946 C 168.012 95.069,168.288 95.408,168.139 95.649 C 167.894 96.046,161.078 95.830,161.078 95.426 C 161.078 95.215,161.190 94.998,161.327 94.943 C 161.523 94.864,161.521 94.838,161.321 94.826 C 161.180 94.817,161.014 94.945,160.950 95.110 M173.862 96.027 C 174.092 96.477,174.322 96.803,174.373 96.751 C 174.470 96.654,173.679 95.210,173.529 95.210 C 173.483 95.210,173.633 95.578,173.862 96.027 M261.119 96.218 C 260.883 96.661,260.772 96.972,260.871 96.911 C 261.084 96.779,261.709 95.574,261.613 95.479 C 261.578 95.443,261.355 95.776,261.119 96.218 M171.257 96.208 C 171.257 96.317,171.333 96.407,171.425 96.407 C 171.517 96.407,171.692 96.624,171.813 96.890 C 172.274 97.903,175.943 101.397,176.546 101.397 C 176.625 101.397,176.164 101.008,175.521 100.532 C 174.204 99.557,173.051 98.356,172.089 96.956 C 171.432 96.000,171.257 95.842,171.257 96.208 M263.074 96.969 C 262.234 98.071,262.022 98.403,262.159 98.403 C 262.301 98.403,263.925 96.192,263.840 96.114 C 263.803 96.080,263.458 96.464,263.074 96.969 M240.818 97.521 L 240.020 97.794 241.018 97.656 C 242.265 97.485,242.757 97.484,244.012 97.654 L 245.010 97.788 244.012 97.501 C 242.802 97.152,241.879 97.158,240.818 97.521 M259.784 98.154 C 259.356 98.675,259.212 98.922,259.464 98.703 C 259.910 98.315,260.778 97.206,260.635 97.206 C 260.596 97.206,260.213 97.632,259.784 98.154 M175.386 98.303 C 175.731 98.743,176.335 99.411,176.729 99.790 C 177.514 100.543,177.635 101.067,177.096 101.381 C 176.904 101.493,176.836 101.585,176.946 101.584 C 177.252 101.584,177.844 101.082,177.844 100.824 C 177.844 100.697,177.150 99.899,176.302 99.050 C 175.453 98.200,175.041 97.864,175.386 98.303 M238.222 98.756 C 237.196 99.689,235.906 101.958,235.943 102.769 C 235.951 102.948,236.124 102.626,236.327 102.053 C 236.767 100.816,237.674 99.448,238.532 98.726 C 238.873 98.438,239.078 98.205,238.987 98.207 C 238.897 98.209,238.552 98.456,238.222 98.756 M245.908 98.263 C 245.908 98.303,246.290 98.637,246.756 99.004 C 247.501 99.589,247.544 99.603,247.106 99.118 C 246.651 98.615,245.908 98.084,245.908 98.263 M258.123 99.860 C 257.403 100.602,257.324 101.027,257.834 101.413 C 258.131 101.638,258.146 101.636,257.934 101.398 C 257.539 100.955,257.637 100.567,258.323 99.860 C 258.673 99.498,258.916 99.202,258.861 99.202 C 258.806 99.202,258.474 99.498,258.123 99.860 M260.279 99.935 L 259.780 100.445 260.329 100.100 C 260.631 99.910,260.878 99.675,260.878 99.578 C 260.878 99.336,260.848 99.354,260.279 99.935 M247.896 100.549 C 248.090 100.961,248.300 101.432,248.361 101.597 C 248.450 101.837,248.475 101.840,248.487 101.614 C 248.508 101.244,247.869 99.800,247.684 99.800 C 247.606 99.800,247.701 100.137,247.896 100.549 M239.222 100.849 C 238.371 101.470,236.959 103.492,237.204 103.738 C 237.258 103.792,237.497 103.423,237.734 102.918 C 238.132 102.072,238.900 101.248,239.839 100.660 C 240.049 100.530,240.130 100.420,240.020 100.417 C 239.910 100.414,239.551 100.609,239.222 100.849 M258.888 100.908 C 258.507 101.177,258.282 101.397,258.389 101.396 C 258.496 101.396,258.852 101.174,259.182 100.904 C 259.951 100.274,259.783 100.276,258.888 100.908 M243.513 101.098 C 243.650 101.262,243.851 101.397,243.961 101.397 C 244.072 101.397,244.051 101.265,243.912 101.098 C 243.776 100.933,243.574 100.798,243.464 100.798 C 243.353 100.798,243.374 100.931,243.513 101.098 M244.927 102.794 C 244.933 102.959,245.015 103.273,245.110 103.493 L 245.281 103.892 245.292 103.493 C 245.298 103.273,245.216 102.959,245.110 102.794 C 244.938 102.528,244.918 102.528,244.927 102.794 M235.796 103.792 C 235.830 104.318,236.586 104.611,236.955 104.242 C 237.066 104.131,236.906 104.093,236.550 104.146 C 236.059 104.218,235.945 104.154,235.862 103.763 C 235.767 103.313,235.764 103.314,235.796 103.792 M162.164 103.895 C 161.803 104.177,161.813 104.182,162.313 103.969 C 163.495 103.464,163.469 103.312,163.520 111.022 L 163.567 118.064 163.626 111.277 C 163.696 103.097,163.628 102.752,162.164 103.895 M160.168 104.884 C 159.955 105.045,159.870 105.177,159.980 105.177 C 160.090 105.177,160.354 105.045,160.567 104.884 C 160.780 104.723,160.865 104.591,160.755 104.591 C 160.645 104.591,160.381 104.723,160.168 104.884 M188.723 104.896 C 187.759 105.213,188.209 105.275,189.293 104.974 C 190.708 104.581,191.299 105.060,191.894 107.086 C 192.056 107.635,192.194 107.921,192.202 107.722 C 192.287 105.496,190.733 104.233,188.723 104.896 M196.066 104.856 C 195.119 105.202,191.742 108.583,192.344 108.583 C 192.441 108.583,192.699 108.339,192.917 108.040 C 194.849 105.399,196.353 104.442,197.577 105.075 C 198.940 105.780,198.313 107.856,196.848 107.488 C 196.545 107.412,196.420 107.444,196.502 107.577 C 196.736 107.955,197.543 107.792,198.077 107.258 C 199.416 105.919,197.950 104.166,196.066 104.856 M248.331 105.007 C 248.316 105.290,248.242 105.584,248.167 105.659 C 248.091 105.734,247.916 106.131,247.778 106.541 C 247.554 107.201,247.559 107.242,247.815 106.898 C 247.974 106.685,248.104 106.366,248.104 106.189 C 248.104 106.013,248.201 105.771,248.320 105.652 C 248.439 105.533,248.497 105.223,248.447 104.963 C 248.360 104.504,248.357 104.505,248.331 105.007 M245.047 105.865 C 244.972 106.060,244.916 106.370,244.923 106.553 C 244.931 106.774,245.001 106.723,245.128 106.404 C 245.234 106.139,245.290 105.829,245.252 105.716 C 245.214 105.602,245.122 105.669,245.047 105.865 M159.581 106.190 C 159.013 106.333,159.020 106.338,159.705 106.286 C 160.899 106.197,160.867 106.048,160.928 111.986 L 160.985 117.465 161.031 111.933 C 161.079 106.286,161.001 105.698,160.243 106.014 C 160.208 106.029,159.910 106.108,159.581 106.190 M187.425 106.600 C 186.972 106.733,186.988 106.748,187.609 106.767 C 187.985 106.777,188.456 106.935,188.657 107.117 C 188.858 107.298,189.022 107.354,189.022 107.241 C 189.022 106.750,188.133 106.393,187.425 106.600 M244.561 107.531 C 244.206 108.289,244.253 108.599,244.618 107.901 C 244.785 107.580,244.896 107.247,244.866 107.159 C 244.835 107.071,244.698 107.239,244.561 107.531 M194.471 108.063 C 193.009 109.724,192.604 110.717,192.917 111.876 C 193.065 112.425,193.193 112.678,193.200 112.438 C 193.208 112.198,193.120 111.757,193.006 111.457 C 192.661 110.549,194.717 107.490,195.782 107.326 L 196.307 107.245 195.775 107.216 C 195.377 107.193,195.049 107.406,194.471 108.063 M246.952 108.098 C 246.705 108.474,246.543 108.782,246.591 108.782 C 246.730 108.782,247.557 107.570,247.475 107.488 C 247.434 107.447,247.199 107.722,246.952 108.098 M189.106 108.283 C 189.248 109.246,189.578 110.320,189.597 109.880 C 189.607 109.661,189.480 109.077,189.316 108.583 C 189.122 107.997,189.049 107.893,189.106 108.283 M149.634 108.716 C 149.369 108.980,149.508 109.225,149.790 108.991 C 150.028 108.793,150.384 109.037,151.786 110.358 C 153.362 111.842,155.248 113.188,154.516 112.306 C 154.366 112.125,154.164 111.976,154.069 111.976 C 153.830 111.976,153.037 111.305,151.534 109.830 C 150.324 108.644,149.935 108.415,149.634 108.716 M243.647 109.244 C 243.294 109.899,243.157 110.073,241.352 112.154 C 240.158 113.530,239.994 113.923,241.144 112.652 C 241.624 112.121,242.182 111.506,242.385 111.283 C 243.005 110.603,244.337 108.583,244.165 108.583 C 244.076 108.583,243.843 108.880,243.647 109.244 M128.842 108.983 C 128.402 109.095,128.584 109.129,129.528 109.109 C 130.945 109.079,131.083 109.197,131.491 110.778 L 131.671 111.477 132.759 110.316 C 134.312 108.659,136.545 108.546,135.984 110.153 C 135.892 110.416,135.921 110.431,136.134 110.234 C 136.354 110.030,136.354 109.904,136.132 109.488 C 135.530 108.364,134.128 108.584,132.852 110.002 C 131.929 111.029,131.537 111.116,131.537 110.295 C 131.537 109.084,130.472 108.566,128.842 108.983 M245.501 110.030 C 245.017 110.606,244.012 111.713,243.268 112.490 C 242.525 113.267,241.916 113.962,241.916 114.035 C 241.916 114.250,245.326 110.581,246.287 109.331 C 246.888 108.550,246.322 109.053,245.501 110.030 M127.345 109.574 C 126.682 110.085,127.048 110.475,128.129 110.411 C 128.706 110.377,128.969 110.459,129.122 110.721 C 129.236 110.917,129.332 110.977,129.335 110.853 C 129.346 110.443,128.755 110.132,128.137 110.223 C 127.342 110.340,127.164 110.021,127.766 109.558 C 128.028 109.356,128.154 109.191,128.044 109.191 C 127.934 109.191,127.620 109.363,127.345 109.574 M208.179 110.093 C 208.072 110.374,207.994 110.891,208.007 111.241 C 208.031 111.901,208.073 111.790,208.280 110.527 L 208.402 109.776 217.225 109.828 L 226.048 109.880 226.048 110.978 L 226.048 112.076 217.135 112.076 C 212.233 112.076,208.263 112.143,208.314 112.226 C 208.481 112.494,225.837 112.407,226.108 112.136 C 226.240 112.004,226.347 111.517,226.347 111.054 C 226.347 109.452,227.142 109.581,217.239 109.581 L 208.373 109.581 208.179 110.093 M189.638 110.679 C 189.632 110.898,189.714 111.213,189.820 111.377 C 190.077 111.774,190.077 111.275,189.820 110.679 L 189.649 110.279 189.638 110.679 M133.403 111.128 C 131.911 112.735,131.840 113.205,132.668 115.968 C 132.943 116.886,132.921 116.664,132.511 114.343 C 132.252 112.883,132.455 112.310,133.659 111.106 C 133.949 110.816,134.125 110.579,134.050 110.579 C 133.975 110.579,133.684 110.826,133.403 111.128 M135.230 110.756 C 134.839 110.841,134.716 110.941,134.876 111.041 C 135.100 111.182,135.928 110.891,135.928 110.672 C 135.928 110.621,135.906 110.589,135.878 110.602 C 135.851 110.615,135.559 110.685,135.230 110.756 M150.865 111.402 C 151.528 112.166,151.447 112.176,144.307 112.176 C 140.809 112.176,137.906 112.243,137.855 112.325 C 137.732 112.524,151.220 112.320,151.420 112.120 C 151.506 112.034,151.313 111.720,150.993 111.421 C 150.413 110.880,150.412 110.880,150.865 111.402 M129.358 111.677 C 129.352 111.896,129.434 112.211,129.541 112.375 C 129.797 112.772,129.797 112.273,129.541 111.677 L 129.369 111.277 129.358 111.677 M189.467 112.889 C 189.220 113.265,189.058 113.573,189.106 113.573 C 189.245 113.573,190.072 112.361,189.989 112.278 C 189.949 112.238,189.714 112.512,189.467 112.889 M155.184 112.845 C 155.652 113.187,155.499 113.597,154.765 113.971 C 153.562 114.584,149.922 117.764,150.423 117.764 C 150.507 117.764,151.062 117.262,151.657 116.649 C 152.251 116.035,153.363 115.129,154.127 114.635 C 155.749 113.585,156.191 112.575,155.027 112.575 C 154.910 112.575,154.980 112.697,155.184 112.845 M137.551 113.283 C 137.504 114.377,137.466 114.371,144.551 114.371 C 151.830 114.371,151.530 114.298,150.299 115.768 C 149.280 116.986,149.261 117.220,150.271 116.113 C 152.145 114.060,152.512 114.184,144.411 114.122 L 137.824 114.072 137.701 113.373 C 137.578 112.680,137.577 112.679,137.551 113.283 M129.774 113.615 C 129.750 114.151,129.451 114.770,128.693 115.857 C 127.629 117.381,127.307 117.572,126.520 117.151 C 125.460 116.584,124.500 118.296,125.430 119.096 C 126.598 120.101,127.633 119.624,129.327 117.301 C 130.112 116.223,130.194 116.165,130.450 116.502 C 130.602 116.702,130.729 116.765,130.732 116.641 C 130.739 116.407,130.175 115.853,130.069 115.990 C 130.036 116.033,129.752 116.427,129.438 116.866 C 127.704 119.289,126.043 120.060,125.349 118.762 C 124.879 117.884,125.437 117.305,126.612 117.452 L 127.668 117.584 128.815 115.955 C 129.798 114.558,129.951 114.223,129.885 113.600 L 129.808 112.874 129.774 113.615 M193.231 113.373 C 193.237 113.538,193.319 113.852,193.413 114.072 L 193.585 114.471 193.596 114.072 C 193.602 113.852,193.520 113.538,193.413 113.373 C 193.241 113.107,193.221 113.107,193.231 113.373 M188.423 114.371 C 188.189 114.701,188.042 114.970,188.097 114.970 C 188.151 114.970,188.388 114.701,188.623 114.371 C 188.857 114.042,189.004 113.772,188.949 113.772 C 188.894 113.772,188.658 114.042,188.423 114.371 M239.040 114.625 C 238.720 114.979,237.794 115.970,236.981 116.827 C 235.592 118.292,235.269 118.956,235.883 119.080 C 236.023 119.109,236.051 119.088,235.944 119.034 C 235.508 118.813,236.144 117.938,238.572 115.419 C 239.339 114.623,239.889 113.974,239.794 113.976 C 239.699 113.978,239.359 114.270,239.040 114.625 M249.041 114.448 C 248.800 114.708,248.403 115.144,248.160 115.416 C 247.614 116.027,246.723 116.168,243.402 116.168 C 240.355 116.168,240.134 116.103,240.758 115.394 L 241.218 114.870 240.669 115.354 C 239.621 116.278,239.843 116.367,243.164 116.365 C 247.334 116.362,247.565 116.310,248.677 115.133 C 249.645 114.107,250.181 114.147,249.973 115.229 L 249.889 115.669 250.088 115.219 C 250.510 114.266,249.737 113.698,249.041 114.448 M189.772 114.978 C 189.472 115.413,189.292 115.767,189.373 115.765 C 189.454 115.763,189.717 115.480,189.957 115.137 L 190.394 114.512 190.690 115.190 C 190.852 115.563,190.993 115.752,191.002 115.609 C 191.016 115.376,190.474 114.161,190.364 114.179 C 190.340 114.183,190.073 114.543,189.772 114.978 M193.626 114.897 C 193.619 115.132,193.744 115.626,193.904 115.995 C 194.278 116.855,194.287 116.527,193.922 115.369 C 193.763 114.864,193.634 114.658,193.626 114.897 M196.288 115.419 L 195.908 115.868 196.354 115.491 C 196.845 115.075,197.527 115.363,197.321 115.900 C 197.264 116.047,197.305 116.168,197.411 116.168 C 197.764 116.168,197.612 115.387,197.219 115.177 C 196.711 114.905,196.727 114.901,196.288 115.419 M187.137 116.068 C 186.724 116.562,186.238 116.973,186.057 116.982 C 185.829 116.993,185.809 117.030,185.992 117.103 C 186.279 117.218,187.033 116.590,187.658 115.719 C 188.264 114.872,187.972 115.068,187.137 116.068 M188.623 116.567 C 188.388 116.896,188.241 117.166,188.296 117.166 C 188.351 117.166,188.588 116.896,188.822 116.567 C 189.057 116.238,189.204 115.968,189.149 115.968 C 189.094 115.968,188.857 116.238,188.623 116.567 M195.490 116.391 C 195.281 116.623,194.930 116.887,194.711 116.977 C 194.453 117.082,194.418 117.144,194.611 117.150 C 194.968 117.161,195.183 117.015,195.690 116.417 C 196.172 115.848,195.999 115.825,195.490 116.391 M134.104 116.765 C 133.603 117.399,133.231 117.525,133.066 117.116 C 132.987 116.920,132.962 116.922,132.950 117.122 C 132.915 117.691,133.584 117.615,134.175 116.983 C 134.509 116.626,134.898 116.389,135.052 116.448 C 135.205 116.506,135.329 116.467,135.329 116.361 C 135.329 115.943,134.551 116.200,134.104 116.765 M191.038 116.529 C 190.956 117.579,192.182 119.578,192.891 119.553 C 193.014 119.548,192.877 119.416,192.589 119.260 C 192.024 118.953,191.930 118.795,191.403 117.265 C 191.214 116.717,191.050 116.385,191.038 116.529 M196.643 117.054 C 196.393 117.418,195.864 118.042,195.466 118.439 C 195.069 118.837,194.811 119.162,194.892 119.162 C 195.212 119.162,197.345 116.639,197.171 116.466 C 197.130 116.425,196.893 116.690,196.643 117.054 M183.364 116.932 C 182.604 117.771,183.272 119.561,184.344 119.561 C 184.607 119.560,184.508 119.449,184.032 119.211 C 183.055 118.723,182.912 117.454,183.774 116.921 C 184.129 116.702,184.216 116.576,184.013 116.572 C 183.838 116.569,183.546 116.731,183.364 116.932 M248.870 117.888 C 248.548 118.673,248.450 119.089,248.621 118.947 C 248.776 118.819,248.902 118.626,248.902 118.519 C 248.902 118.412,249.046 118.022,249.221 117.652 C 249.396 117.283,249.508 116.894,249.470 116.788 C 249.432 116.682,249.162 117.177,248.870 117.888 M134.999 117.315 C 134.812 117.617,134.388 118.156,134.057 118.513 C 133.726 118.870,133.523 119.162,133.606 119.162 C 133.787 119.162,134.680 118.138,135.199 117.336 C 135.402 117.023,135.516 116.766,135.453 116.766 C 135.390 116.766,135.186 117.013,134.999 117.315 M130.754 117.525 C 130.739 117.961,131.243 119.162,131.441 119.162 C 131.492 119.162,131.407 118.825,131.252 118.413 C 131.097 118.001,130.925 117.530,130.870 117.365 C 130.809 117.183,130.764 117.245,130.754 117.525 M187.247 118.263 C 186.769 118.757,186.440 119.162,186.517 119.162 C 186.663 119.162,187.521 118.324,187.998 117.714 C 188.490 117.087,188.136 117.347,187.247 118.263 M160.588 117.749 C 160.526 117.850,160.212 117.991,159.892 118.061 C 159.165 118.221,158.731 118.691,159.032 118.992 C 159.182 119.142,159.235 119.102,159.213 118.855 C 159.191 118.611,159.437 118.420,160.030 118.218 C 160.497 118.060,160.878 117.848,160.878 117.748 C 160.878 117.513,160.734 117.513,160.588 117.749 M163.906 118.058 C 163.980 118.135,164.373 118.274,164.779 118.365 C 165.185 118.457,165.440 118.458,165.344 118.369 C 165.129 118.167,163.721 117.863,163.906 118.058 M131.864 119.407 C 131.917 119.491,132.219 119.561,132.535 119.561 C 132.851 119.561,133.153 119.491,133.205 119.407 C 133.258 119.322,132.956 119.252,132.535 119.252 C 132.114 119.252,131.812 119.322,131.864 119.407 " stroke="none" fill="#9e9e9e" fill-rule="evenodd"></path><path id="path3" d="M210.003 67.104 C 209.990 67.619,210.051 68.084,210.138 68.138 C 210.225 68.192,210.264 67.905,210.226 67.501 C 210.109 66.267,210.027 66.121,210.003 67.104 M224.805 67.265 C 224.805 67.759,224.844 67.962,224.891 67.715 C 224.939 67.468,224.939 67.063,224.891 66.816 C 224.844 66.569,224.805 66.771,224.805 67.265 M211.876 68.401 C 215.304 68.544,218.717 68.550,218.632 68.413 C 218.581 68.331,216.726 68.281,214.509 68.303 C 212.293 68.325,211.108 68.369,211.876 68.401 M221.887 68.413 C 221.836 68.496,222.257 68.537,222.823 68.505 C 224.525 68.410,224.732 68.319,223.315 68.291 C 222.581 68.276,221.938 68.331,221.887 68.413 M131.736 83.693 L 131.836 93.313 131.888 83.844 C 131.917 78.636,131.872 74.307,131.788 74.223 C 131.705 74.140,131.682 78.401,131.736 83.693 M128.833 85.329 C 128.833 89.611,128.860 91.334,128.892 89.158 C 128.924 86.983,128.924 83.480,128.892 81.374 C 128.860 79.268,128.833 81.048,128.833 85.329 M135.881 83.574 C 136.129 83.622,136.488 83.620,136.679 83.570 C 136.870 83.520,136.667 83.481,136.228 83.483 C 135.788 83.486,135.632 83.527,135.881 83.574 M146.192 88.922 C 146.192 91.228,146.221 92.143,146.257 90.957 C 146.292 89.771,146.292 87.885,146.257 86.766 C 146.221 85.646,146.192 86.617,146.192 88.922 M172.302 85.629 C 172.302 86.013,172.343 86.170,172.393 85.978 C 172.443 85.786,172.443 85.472,172.393 85.279 C 172.343 85.087,172.302 85.245,172.302 85.629 M157.569 89.022 C 157.569 91.163,157.598 92.038,157.634 90.968 C 157.670 89.898,157.670 88.146,157.634 87.076 C 157.598 86.005,157.569 86.881,157.569 89.022 M262.725 86.327 C 262.727 86.766,262.768 86.923,262.816 86.674 C 262.864 86.426,262.862 86.067,262.812 85.876 C 262.762 85.685,262.723 85.888,262.725 86.327 M154.575 89.820 C 154.575 91.961,154.604 92.837,154.640 91.766 C 154.676 90.696,154.676 88.945,154.640 87.874 C 154.604 86.804,154.575 87.680,154.575 89.820 M199.750 88.573 C 209.658 88.601,225.871 88.601,235.778 88.573 C 245.686 88.544,237.580 88.521,217.764 88.521 C 197.949 88.521,189.843 88.544,199.750 88.573 M172.302 89.621 C 172.302 90.005,172.343 90.162,172.393 89.970 C 172.443 89.778,172.443 89.464,172.393 89.271 C 172.343 89.079,172.302 89.237,172.302 89.621 M262.725 89.721 C 262.727 90.160,262.768 90.316,262.816 90.068 C 262.864 89.819,262.862 89.460,262.812 89.269 C 262.762 89.078,262.723 89.281,262.725 89.721 M245.356 104.591 C 245.356 104.975,245.397 105.132,245.447 104.940 C 245.497 104.748,245.497 104.434,245.447 104.242 C 245.397 104.049,245.356 104.207,245.356 104.591 M208.199 111.116 C 208.191 111.576,208.255 111.996,208.342 112.050 C 208.428 112.104,208.467 111.817,208.427 111.413 C 208.318 110.309,208.217 110.177,208.199 111.116 M196.288 115.619 L 195.908 116.068 196.354 115.691 C 196.740 115.364,196.846 115.351,197.152 115.591 C 197.473 115.843,197.480 115.836,197.231 115.519 C 196.875 115.064,196.746 115.078,196.288 115.619 " stroke="none" fill="#848484" fill-rule="evenodd"></path><path id="path4" d="M219.661 52.495 C 219.462 52.715,219.394 52.894,219.509 52.894 C 219.624 52.894,219.769 52.759,219.833 52.595 C 219.954 52.278,220.885 52.192,221.305 52.458 C 221.491 52.577,221.564 54.275,221.604 59.391 L 221.657 66.168 223.048 66.228 C 223.836 66.262,224.514 66.392,224.610 66.527 C 224.731 66.696,224.757 66.678,224.700 66.467 C 224.639 66.244,224.255 66.153,223.188 66.109 L 221.756 66.050 221.756 59.389 C 221.756 55.725,221.702 52.585,221.635 52.412 C 221.453 51.938,220.114 51.994,219.661 52.495 M218.651 53.911 C 218.367 54.361,218.167 54.761,218.206 54.800 C 218.246 54.839,218.519 54.471,218.815 53.983 C 219.489 52.867,219.349 52.806,218.651 53.911 M217.432 55.639 C 217.244 55.941,216.995 56.322,216.878 56.487 C 216.704 56.734,216.719 56.746,216.966 56.552 C 217.297 56.294,218.049 55.090,217.880 55.090 C 217.822 55.090,217.620 55.337,217.432 55.639 M218.298 56.568 C 218.221 56.770,218.277 56.830,218.473 56.755 C 218.721 56.660,218.762 57.323,218.762 61.356 L 218.762 66.068 215.469 66.068 C 213.658 66.068,212.176 65.992,212.176 65.899 C 212.176 65.806,212.533 65.178,212.970 64.502 C 213.406 63.826,213.719 63.273,213.664 63.273 C 213.488 63.273,211.976 65.720,211.976 66.004 C 211.976 66.226,212.612 66.267,215.419 66.222 L 218.862 66.168 218.862 61.294 C 218.862 56.695,218.717 55.477,218.298 56.568 M216.424 57.136 C 215.795 57.953,214.355 60.130,214.608 59.880 C 215.002 59.492,216.830 56.886,216.709 56.886 C 216.658 56.886,216.529 56.999,216.424 57.136 M217.726 57.435 C 217.345 57.879,217.113 58.283,217.240 58.283 C 217.294 58.283,217.530 58.014,217.764 57.685 C 218.230 57.031,218.206 56.877,217.726 57.435 M216.168 59.681 C 215.933 60.010,215.786 60.279,215.841 60.279 C 215.896 60.279,216.133 60.010,216.367 59.681 C 216.602 59.351,216.749 59.082,216.694 59.082 C 216.639 59.082,216.402 59.351,216.168 59.681 M213.772 60.878 C 213.538 61.208,213.391 61.477,213.446 61.477 C 213.501 61.477,213.738 61.208,213.972 60.878 C 214.207 60.549,214.354 60.279,214.299 60.279 C 214.244 60.279,214.007 60.549,213.772 60.878 M215.170 61.078 C 214.935 61.407,214.788 61.677,214.843 61.677 C 214.898 61.677,215.135 61.407,215.369 61.078 C 215.604 60.749,215.751 60.479,215.696 60.479 C 215.641 60.479,215.404 60.749,215.170 61.078 M212.774 62.275 C 212.540 62.605,212.393 62.874,212.448 62.874 C 212.503 62.874,212.740 62.605,212.974 62.275 C 213.209 61.946,213.356 61.677,213.301 61.677 C 213.246 61.677,213.009 61.946,212.774 62.275 M214.172 62.475 C 213.937 62.804,213.790 63.074,213.845 63.074 C 213.900 63.074,214.137 62.804,214.371 62.475 C 214.606 62.146,214.753 61.876,214.698 61.876 C 214.643 61.876,214.406 62.146,214.172 62.475 M211.776 63.673 C 211.542 64.002,211.395 64.271,211.450 64.271 C 211.505 64.271,211.742 64.002,211.976 63.673 C 212.211 63.343,212.358 63.074,212.303 63.074 C 212.248 63.074,212.011 63.343,211.776 63.673 M210.670 65.246 C 210.249 65.883,210.168 66.213,210.218 67.093 L 210.279 68.164 214.471 68.263 L 218.663 68.363 218.772 70.958 L 218.881 73.553 218.921 71.048 C 218.974 67.818,219.343 68.064,214.431 68.064 L 210.379 68.064 210.379 67.012 C 210.379 66.216,210.502 65.780,210.885 65.216 C 211.164 64.806,211.345 64.471,211.287 64.471 C 211.230 64.471,210.952 64.820,210.670 65.246 M223.361 68.013 C 221.549 68.114,221.550 68.112,221.597 70.833 L 221.637 73.154 221.747 70.758 L 221.856 68.363 223.303 68.305 C 224.099 68.272,224.750 68.160,224.750 68.055 C 224.750 67.950,224.728 67.882,224.701 67.903 C 224.673 67.924,224.070 67.974,223.361 68.013 M219.714 73.598 C 220.073 73.642,220.612 73.641,220.912 73.596 C 221.212 73.550,220.918 73.514,220.259 73.515 C 219.601 73.516,219.355 73.553,219.714 73.598 M139.870 74.646 C 140.188 74.943,140.319 75.294,140.319 75.848 C 140.319 76.403,140.188 76.753,139.870 77.050 C 139.528 77.370,139.506 77.437,139.776 77.334 C 140.248 77.154,140.519 76.612,140.519 75.848 C 140.519 75.085,140.248 74.543,139.776 74.362 C 139.506 74.259,139.528 74.327,139.870 74.646 M176.438 74.792 C 176.207 75.097,176.208 75.113,176.447 74.900 C 176.840 74.549,177.198 74.590,177.319 75.000 C 177.400 75.274,177.413 75.264,177.381 74.952 C 177.328 74.432,176.782 74.339,176.438 74.792 M257.754 74.759 C 257.689 74.929,257.691 75.123,257.760 75.192 C 257.828 75.260,257.884 75.173,257.884 74.998 C 257.884 74.823,258.041 74.639,258.234 74.589 C 258.561 74.503,258.561 74.496,258.227 74.474 C 258.032 74.462,257.819 74.590,257.754 74.759 M128.343 74.960 C 127.734 75.135,127.606 75.220,127.944 75.224 C 128.219 75.228,128.713 75.108,129.042 74.957 C 129.779 74.620,129.528 74.621,128.343 74.960 M258.782 74.787 C 259.560 75.571,260.905 76.654,260.379 76.074 C 260.050 75.710,259.511 75.227,259.182 74.999 C 258.852 74.772,258.673 74.677,258.782 74.787 M176.237 76.198 L 175.549 76.946 176.297 76.258 C 176.994 75.618,177.138 75.449,176.985 75.449 C 176.952 75.449,176.615 75.786,176.237 76.198 M259.082 76.547 C 259.678 77.151,260.211 77.645,260.266 77.645 C 260.321 77.645,259.878 77.151,259.281 76.547 C 258.685 75.943,258.152 75.449,258.097 75.449 C 258.043 75.449,258.486 75.943,259.082 76.547 M127.246 76.196 C 128.156 76.288,128.732 76.717,128.766 77.326 C 128.786 77.689,128.802 77.695,128.884 77.377 C 129.051 76.730,128.191 76.043,127.261 76.081 L 126.447 76.115 127.246 76.196 M173.453 77.146 C 172.857 77.750,172.420 78.244,172.481 78.244 C 172.543 78.244,173.088 77.750,173.692 77.146 C 174.296 76.542,174.733 76.048,174.663 76.048 C 174.594 76.048,174.049 76.542,173.453 77.146 M261.078 76.734 C 261.078 76.827,261.353 77.166,261.690 77.488 C 262.383 78.150,263.870 80.407,264.264 81.394 C 264.407 81.754,264.566 82.008,264.616 81.958 C 264.723 81.850,263.946 80.266,263.229 79.130 C 262.667 78.240,261.078 76.470,261.078 76.734 M260.978 78.956 C 261.362 79.594,261.677 80.204,261.677 80.311 C 261.677 80.418,261.730 80.452,261.796 80.386 C 261.938 80.245,260.930 78.335,260.545 78.016 C 260.399 77.894,260.593 78.317,260.978 78.956 M171.856 79.042 C 171.622 79.371,171.475 79.641,171.530 79.641 C 171.585 79.641,171.821 79.371,172.056 79.042 C 172.290 78.713,172.437 78.443,172.382 78.443 C 172.328 78.443,172.091 78.713,171.856 79.042 M139.421 81.359 C 139.092 81.502,138.941 81.623,139.085 81.628 C 139.229 81.633,139.518 81.546,139.725 81.435 C 140.414 81.066,140.497 81.739,140.513 87.829 C 140.522 91.052,140.571 93.732,140.624 93.784 C 140.761 93.922,140.735 82.218,140.596 81.700 C 140.443 81.128,140.149 81.042,139.421 81.359 M147.804 81.363 C 147.301 81.609,147.285 81.636,147.705 81.534 C 148.739 81.281,148.800 81.309,148.863 82.071 C 148.955 83.166,149.286 83.316,150.082 82.622 C 150.451 82.300,150.666 82.036,150.561 82.036 C 150.455 82.036,150.161 82.258,149.906 82.529 C 149.322 83.150,149.102 83.017,149.102 82.046 C 149.102 81.413,148.757 80.899,148.437 81.054 C 148.418 81.063,148.134 81.202,147.804 81.363 M152.096 81.354 C 151.487 81.604,151.474 81.622,151.996 81.494 C 152.325 81.414,153.044 81.348,153.593 81.348 C 154.142 81.348,154.860 81.414,155.190 81.494 C 155.712 81.622,155.699 81.604,155.090 81.354 C 154.706 81.197,154.032 81.068,153.593 81.068 C 153.154 81.068,152.480 81.197,152.096 81.354 M161.776 81.167 C 164.005 81.632,164.697 82.030,165.187 83.134 C 165.352 83.504,165.456 83.599,165.461 83.384 C 165.484 82.375,163.306 80.984,161.823 81.061 C 161.425 81.082,161.420 81.093,161.776 81.167 M160.279 81.437 C 159.878 81.566,159.859 81.598,160.180 81.603 C 160.399 81.606,160.758 81.531,160.978 81.437 C 161.487 81.219,160.962 81.219,160.279 81.437 M172.488 82.760 C 172.342 83.419,172.261 84.222,172.309 84.544 C 172.379 85.017,172.401 84.972,172.425 84.311 C 172.442 83.861,172.552 83.214,172.671 82.873 C 172.790 82.532,172.857 82.098,172.820 81.908 C 172.784 81.717,172.634 82.101,172.488 82.760 M156.446 82.622 C 156.743 83.044,157.017 83.360,157.055 83.325 C 157.177 83.213,156.418 82.052,156.157 81.952 C 156.019 81.899,156.149 82.201,156.446 82.622 M170.216 82.236 C 170.148 82.510,170.035 82.959,169.965 83.234 C 169.886 83.544,169.958 83.472,170.156 83.044 C 170.330 82.666,170.443 82.217,170.406 82.046 C 170.364 81.852,170.293 81.922,170.216 82.236 M136.627 82.343 C 135.821 82.712,136.303 82.712,137.153 82.343 C 137.522 82.183,137.690 82.055,137.525 82.060 C 137.360 82.065,136.956 82.192,136.627 82.343 M144.760 82.352 C 144.404 82.508,144.112 82.680,144.112 82.733 C 144.112 82.822,145.696 82.261,145.892 82.103 C 146.105 81.930,145.340 82.099,144.760 82.352 M158.383 82.552 L 157.784 83.067 158.433 82.638 C 158.790 82.402,159.082 82.170,159.082 82.122 C 159.082 81.973,158.997 82.025,158.383 82.552 M262.397 82.535 C 262.561 83.269,262.676 83.428,262.672 82.917 C 262.670 82.707,262.577 82.400,262.466 82.236 C 262.318 82.017,262.299 82.098,262.397 82.535 M144.711 83.169 C 145.678 83.326,146.106 83.670,146.138 84.315 L 146.168 84.930 146.254 84.345 C 146.362 83.620,145.698 83.032,144.810 83.066 C 144.283 83.086,144.271 83.098,144.711 83.169 M153.447 83.344 C 154.020 83.745,154.337 84.339,154.505 85.329 C 154.636 86.102,154.641 86.106,154.666 85.469 C 154.704 84.464,153.857 83.062,153.199 83.040 C 153.092 83.037,153.204 83.173,153.447 83.344 M265.092 83.433 C 265.090 83.598,265.212 84.182,265.365 84.731 C 265.517 85.279,265.646 85.549,265.652 85.329 C 265.658 85.110,265.535 84.526,265.380 84.032 C 265.224 83.538,265.095 83.268,265.092 83.433 M158.123 84.091 C 157.772 84.453,157.485 84.880,157.486 85.039 C 157.486 85.199,157.658 85.048,157.868 84.704 C 158.078 84.360,158.457 83.933,158.710 83.756 C 158.963 83.578,159.078 83.433,158.966 83.433 C 158.853 83.433,158.474 83.729,158.123 84.091 M262.737 84.531 C 262.738 85.190,262.775 85.435,262.819 85.076 C 262.864 84.718,262.863 84.179,262.817 83.879 C 262.772 83.579,262.735 83.872,262.737 84.531 M149.502 84.331 C 149.244 84.605,149.071 84.862,149.118 84.903 C 149.164 84.944,149.411 84.720,149.666 84.405 C 150.237 83.700,150.137 83.655,149.502 84.331 M162.581 83.998 C 162.656 84.143,162.790 84.503,162.879 84.796 C 163.008 85.224,163.043 85.248,163.057 84.918 C 163.066 84.692,162.932 84.333,162.760 84.120 C 162.587 83.907,162.507 83.852,162.581 83.998 M165.591 84.331 C 165.755 85.065,165.869 85.225,165.865 84.714 C 165.864 84.503,165.771 84.197,165.660 84.032 C 165.512 83.813,165.493 83.894,165.591 84.331 M169.599 84.237 C 169.526 84.508,169.474 84.955,169.484 85.230 C 169.496 85.588,169.553 85.507,169.685 84.944 C 169.888 84.079,169.810 83.445,169.599 84.237 M137.809 88.822 C 137.809 91.073,137.838 91.994,137.873 90.868 C 137.909 89.743,137.909 87.902,137.873 86.776 C 137.838 85.651,137.809 86.572,137.809 88.822 M163.155 89.521 C 163.155 91.277,163.185 91.969,163.223 91.058 C 163.260 90.147,163.259 88.710,163.222 87.865 C 163.185 87.019,163.154 87.764,163.155 89.521 M181.570 86.560 C 181.388 86.743,181.402 88.178,181.587 88.293 C 181.669 88.343,181.705 87.990,181.667 87.506 L 181.597 86.628 217.794 86.577 L 253.992 86.526 217.848 86.477 C 197.968 86.449,181.643 86.487,181.570 86.560 M165.918 90.319 C 165.875 94.300,166.079 95.273,166.887 94.952 C 167.104 94.866,167.096 94.838,166.850 94.826 C 166.217 94.795,166.068 93.973,166.013 90.220 L 165.958 86.527 165.918 90.319 M254.124 87.359 C 254.106 87.816,253.980 88.236,253.842 88.291 C 253.647 88.370,253.648 88.395,253.849 88.407 C 254.197 88.429,254.336 87.995,254.238 87.195 C 254.162 86.580,254.153 86.593,254.124 87.359 M265.731 87.725 C 265.732 88.383,265.769 88.629,265.813 88.270 C 265.858 87.911,265.857 87.372,265.811 87.072 C 265.766 86.772,265.729 87.066,265.731 87.725 M169.325 88.024 C 169.325 88.738,169.362 89.029,169.406 88.673 C 169.450 88.316,169.450 87.732,169.406 87.375 C 169.362 87.018,169.325 87.310,169.325 88.024 M262.938 88.024 C 262.938 88.738,262.974 89.029,263.019 88.673 C 263.063 88.316,263.063 87.732,263.019 87.375 C 262.974 87.018,262.938 87.310,262.938 88.024 M265.501 90.553 C 265.483 90.900,265.417 91.349,265.354 91.551 C 265.246 91.896,265.252 91.896,265.466 91.563 C 265.591 91.368,265.657 90.919,265.613 90.565 L 265.533 89.920 265.501 90.553 M169.489 90.519 C 169.489 90.739,169.566 91.098,169.661 91.317 L 169.832 91.717 169.832 91.317 C 169.832 91.098,169.755 90.739,169.661 90.519 L 169.489 90.120 169.489 90.519 M172.292 91.018 C 172.282 91.512,172.405 92.365,172.567 92.914 L 172.861 93.912 172.728 93.014 C 172.655 92.520,172.531 91.667,172.453 91.118 L 172.312 90.120 172.292 91.018 M262.737 91.517 C 262.738 92.176,262.775 92.421,262.819 92.062 C 262.864 91.704,262.863 91.165,262.817 90.865 C 262.772 90.565,262.735 90.858,262.737 91.517 M157.512 93.283 C 157.480 93.963,158.176 95.015,158.646 94.997 C 158.913 94.987,158.899 94.951,158.579 94.821 C 158.137 94.642,157.746 93.986,157.620 93.214 C 157.544 92.746,157.538 92.750,157.512 93.283 M262.390 93.328 C 262.316 93.620,262.295 93.898,262.342 93.945 C 262.389 93.992,262.487 93.791,262.561 93.499 C 262.634 93.206,262.656 92.928,262.609 92.881 C 262.561 92.834,262.463 93.035,262.390 93.328 M128.743 93.478 C 128.743 93.992,128.065 94.717,127.445 94.867 C 127.091 94.953,127.097 94.966,127.505 94.987 C 128.080 95.016,128.942 94.114,128.942 93.484 C 128.942 93.225,128.897 93.014,128.842 93.014 C 128.787 93.014,128.743 93.223,128.743 93.478 M146.138 93.551 C 146.121 93.901,146.018 94.244,145.908 94.311 C 145.798 94.379,145.709 94.539,145.709 94.667 C 145.709 94.795,145.849 94.698,146.021 94.453 C 146.193 94.208,146.296 93.761,146.251 93.461 C 146.172 92.946,146.166 92.951,146.138 93.551 M131.764 93.628 C 131.733 94.213,132.555 95.113,132.970 94.947 C 133.158 94.872,133.142 94.837,132.915 94.826 C 132.487 94.805,131.993 94.225,131.882 93.613 L 131.791 93.114 131.764 93.628 M137.548 93.518 C 137.515 94.105,136.992 94.768,136.475 94.879 C 136.059 94.969,136.061 94.973,136.507 94.943 C 137.086 94.903,137.801 94.008,137.668 93.489 C 137.579 93.145,137.569 93.147,137.548 93.518 M154.475 94.007 C 154.429 94.279,154.167 94.614,153.892 94.753 C 153.581 94.909,153.513 95.005,153.712 95.007 C 154.163 95.011,154.741 94.309,154.642 93.877 C 154.577 93.592,154.540 93.620,154.475 94.007 M162.773 94.252 C 162.664 94.497,162.350 94.759,162.076 94.834 C 161.646 94.951,161.635 94.973,161.995 94.990 C 162.454 95.012,163.157 94.361,163.043 94.020 C 163.004 93.902,162.882 94.006,162.773 94.252 M140.999 94.561 C 141.208 94.808,141.567 95.000,141.797 94.987 C 142.200 94.965,142.200 94.960,141.816 94.866 C 141.597 94.813,141.238 94.621,141.018 94.440 C 140.622 94.114,140.622 94.115,140.999 94.561 M264.083 94.935 C 263.849 95.333,263.699 95.701,263.750 95.753 C 263.802 95.805,264.032 95.479,264.262 95.029 C 264.778 94.017,264.661 93.956,264.083 94.935 M170.858 94.787 C 170.858 95.090,172.886 98.238,173.005 98.119 C 173.047 98.077,172.771 97.608,172.392 97.075 C 172.012 96.543,171.512 95.750,171.280 95.312 C 171.048 94.875,170.858 94.638,170.858 94.787 M150.753 95.228 C 150.947 95.341,151.046 95.532,150.971 95.652 C 150.892 95.780,150.928 95.813,151.058 95.733 C 151.369 95.541,151.123 95.009,150.727 95.016 C 150.439 95.021,150.442 95.047,150.753 95.228 M152.625 95.303 C 152.563 95.464,152.612 95.658,152.734 95.733 C 152.864 95.813,152.900 95.780,152.821 95.652 C 152.747 95.532,152.845 95.341,153.040 95.228 C 153.351 95.047,153.354 95.021,153.065 95.016 C 152.885 95.013,152.687 95.142,152.625 95.303 M159.336 95.214 C 159.530 95.335,159.637 95.518,159.573 95.621 C 159.510 95.724,159.559 95.808,159.683 95.808 C 160.075 95.808,159.795 95.117,159.379 95.055 C 159.012 95.000,159.009 95.012,159.336 95.214 M161.078 95.409 C 161.078 95.629,161.148 95.808,161.235 95.808 C 161.321 95.808,161.392 95.629,161.392 95.409 C 161.392 95.190,161.321 95.010,161.235 95.010 C 161.148 95.010,161.078 95.190,161.078 95.409 M167.519 95.214 C 167.714 95.335,167.821 95.518,167.757 95.621 C 167.693 95.724,167.743 95.808,167.867 95.808 C 168.258 95.808,167.979 95.117,167.563 95.055 C 167.196 95.000,167.193 95.012,167.519 95.214 M173.261 95.210 C 173.264 95.374,173.398 95.683,173.559 95.896 C 173.936 96.395,173.934 96.210,173.554 95.482 C 173.390 95.167,173.258 95.045,173.261 95.210 M263.074 96.607 C 262.839 96.936,262.692 97.206,262.747 97.206 C 262.802 97.206,263.039 96.936,263.273 96.607 C 263.508 96.277,263.655 96.008,263.600 96.008 C 263.545 96.008,263.308 96.277,263.074 96.607 M174.088 96.906 C 174.213 97.181,174.393 97.405,174.488 97.405 C 174.582 97.405,174.513 97.181,174.333 96.906 C 174.153 96.632,173.973 96.407,173.933 96.407 C 173.894 96.407,173.963 96.632,174.088 96.906 M260.423 97.655 C 260.257 97.902,259.929 98.306,259.694 98.553 C 259.458 98.800,259.339 99.002,259.429 99.002 C 259.519 99.002,259.741 98.828,259.922 98.616 C 260.391 98.069,260.943 97.206,260.824 97.206 C 260.769 97.206,260.589 97.408,260.423 97.655 M174.799 97.904 C 174.915 98.124,175.503 98.797,176.105 99.401 C 176.708 100.005,177.245 100.679,177.300 100.898 L 177.399 101.297 177.414 100.898 C 177.422 100.664,176.843 99.882,176.008 99.002 C 175.226 98.179,174.682 97.685,174.799 97.904 M241.662 97.749 C 242.017 97.793,242.645 97.794,243.059 97.750 C 243.474 97.707,243.184 97.671,242.415 97.670 C 241.647 97.669,241.308 97.705,241.662 97.749 M244.810 98.110 C 245.811 98.470,245.947 98.468,245.309 98.104 C 245.035 97.947,244.631 97.819,244.411 97.820 C 244.192 97.821,244.371 97.951,244.810 98.110 M173.253 98.387 C 173.253 98.589,174.431 99.657,175.349 100.288 L 176.148 100.836 175.456 100.268 C 175.076 99.956,174.425 99.374,174.009 98.975 C 173.594 98.577,173.253 98.312,173.253 98.387 M238.465 98.832 C 237.792 99.333,236.469 101.345,236.601 101.666 C 236.663 101.818,236.700 101.807,236.711 101.633 C 236.735 101.221,237.908 99.559,238.598 98.957 C 239.335 98.315,239.256 98.241,238.465 98.832 M245.908 98.578 C 245.908 98.702,245.995 98.802,246.100 98.802 C 246.349 98.802,247.054 99.541,247.528 100.299 C 247.734 100.629,247.903 100.806,247.903 100.693 C 247.905 100.306,247.048 99.229,246.257 98.622 C 246.025 98.444,245.908 98.429,245.908 98.578 M260.297 99.615 C 260.033 99.836,259.674 100.095,259.501 100.193 C 259.327 100.290,259.237 100.421,259.300 100.484 C 259.363 100.547,259.766 100.288,260.196 99.909 C 261.027 99.175,261.108 98.940,260.297 99.615 M258.015 100.165 C 257.654 100.565,257.581 101.110,257.866 101.286 C 257.965 101.347,257.999 101.215,257.940 100.992 C 257.878 100.755,257.982 100.422,258.190 100.193 C 258.385 99.977,258.500 99.800,258.445 99.800 C 258.390 99.800,258.197 99.965,258.015 100.165 M242.766 100.485 C 243.179 100.632,243.651 100.864,243.814 101.000 C 243.978 101.135,244.112 101.189,244.112 101.119 C 244.112 100.891,242.825 100.201,242.415 100.209 C 242.178 100.214,242.320 100.326,242.766 100.485 M248.358 103.194 C 248.358 103.688,248.397 103.890,248.444 103.643 C 248.492 103.396,248.492 102.992,248.444 102.745 C 248.397 102.498,248.358 102.700,248.358 103.194 M237.158 103.102 C 236.824 103.836,236.888 103.993,237.249 103.326 C 237.418 103.014,237.519 102.722,237.473 102.676 C 237.428 102.630,237.286 102.822,237.158 103.102 M245.241 103.234 C 245.409 104.116,245.509 104.192,245.509 103.438 C 245.509 103.097,245.421 102.763,245.312 102.696 C 245.190 102.621,245.163 102.822,245.241 103.234 M235.995 103.593 C 236.019 103.960,236.148 104.099,236.480 104.118 C 236.832 104.139,236.845 104.125,236.542 104.056 C 236.328 104.007,236.110 103.771,236.057 103.531 C 235.978 103.167,235.968 103.177,235.995 103.593 M161.828 104.244 C 161.417 104.473,161.114 104.694,161.155 104.735 C 161.197 104.776,161.570 104.619,161.985 104.386 C 162.400 104.153,162.905 104.006,163.107 104.058 C 163.308 104.111,163.423 104.073,163.362 103.973 C 163.188 103.693,162.645 103.788,161.828 104.244 M163.361 110.180 C 163.361 113.308,163.389 114.588,163.423 113.024 C 163.456 111.460,163.456 108.900,163.423 107.335 C 163.389 105.771,163.361 107.051,163.361 110.180 M159.832 105.242 C 159.421 105.471,159.118 105.692,159.159 105.733 C 159.225 105.798,160.635 105.082,160.862 104.869 C 161.085 104.658,160.497 104.871,159.832 105.242 M189.820 105.139 C 190.763 105.221,191.406 105.632,191.433 106.169 C 191.444 106.396,191.479 106.411,191.554 106.223 C 191.779 105.662,190.812 104.988,189.835 105.025 L 188.922 105.060 189.820 105.139 M195.808 105.214 C 195.154 105.474,194.377 106.220,193.266 107.654 C 192.599 108.516,192.318 108.750,192.192 108.552 C 192.077 108.371,192.021 108.361,192.019 108.521 C 192.011 109.166,192.494 108.844,193.673 107.419 C 194.996 105.819,195.923 105.187,196.936 105.193 C 198.526 105.201,198.637 107.171,197.049 107.198 C 196.387 107.210,196.357 107.231,196.771 107.397 C 197.312 107.614,197.892 107.369,198.199 106.795 C 198.885 105.514,197.446 104.563,195.808 105.214 M245.274 105.788 C 245.207 106.173,245.092 106.712,245.020 106.986 C 244.942 107.280,245.020 107.200,245.208 106.792 C 245.383 106.411,245.498 105.872,245.462 105.594 C 245.406 105.160,245.380 105.188,245.274 105.788 M159.681 105.992 C 159.455 106.149,159.517 106.168,159.933 106.072 C 160.277 105.992,160.608 106.046,160.813 106.215 C 161.095 106.447,161.129 106.443,161.045 106.188 C 160.927 105.825,160.094 105.706,159.681 105.992 M187.226 106.402 C 187.004 106.557,187.098 106.577,187.588 106.480 C 188.308 106.338,189.008 106.766,189.038 107.366 C 189.049 107.593,189.084 107.609,189.159 107.421 C 189.442 106.713,187.925 105.915,187.226 106.402 M161.165 111.976 C 161.165 114.995,161.193 116.230,161.227 114.721 C 161.261 113.211,161.261 110.741,161.227 109.232 C 161.193 107.722,161.165 108.957,161.165 111.976 M191.623 106.986 C 191.623 107.151,191.710 107.420,191.816 107.585 C 191.988 107.851,192.010 107.851,192.010 107.585 C 192.010 107.420,191.923 107.151,191.816 106.986 C 191.644 106.720,191.623 106.720,191.623 106.986 M195.060 107.118 C 194.923 107.174,194.810 107.312,194.810 107.426 C 194.810 107.568,194.889 107.569,195.060 107.429 C 195.197 107.316,195.534 107.183,195.808 107.132 L 196.307 107.040 195.808 107.029 C 195.534 107.023,195.197 107.063,195.060 107.118 M244.305 108.541 C 244.034 109.055,243.521 109.858,243.165 110.326 C 242.809 110.795,242.574 111.178,242.644 111.178 C 242.913 111.178,245.045 107.852,244.881 107.689 C 244.836 107.643,244.577 108.027,244.305 108.541 M189.250 107.984 C 189.250 108.149,189.327 108.463,189.421 108.683 C 189.529 108.934,189.593 108.971,189.593 108.782 C 189.593 108.618,189.516 108.303,189.421 108.084 C 189.313 107.832,189.250 107.795,189.250 107.984 M193.204 109.495 C 192.859 109.997,192.616 110.447,192.664 110.495 C 192.713 110.544,193.032 110.133,193.374 109.583 C 194.151 108.332,194.043 108.276,193.204 109.495 M150.018 109.119 C 150.247 109.164,150.842 109.632,151.340 110.160 C 151.837 110.687,152.593 111.379,153.018 111.697 C 153.444 112.015,153.029 111.538,152.096 110.637 C 151.055 109.631,150.245 109.005,150.000 109.017 C 149.623 109.035,149.624 109.041,150.018 109.119 M127.894 109.495 C 127.592 109.659,127.347 109.903,127.348 110.036 C 127.351 110.212,127.397 110.207,127.518 110.017 C 127.610 109.872,128.035 109.629,128.463 109.477 C 128.891 109.324,129.062 109.199,128.842 109.198 C 128.623 109.198,128.196 109.332,127.894 109.495 M130.739 109.220 C 130.739 109.284,130.873 109.593,131.037 109.907 C 131.201 110.222,131.333 110.344,131.330 110.180 C 131.327 110.015,131.193 109.706,131.032 109.493 C 130.870 109.280,130.739 109.157,130.739 109.220 M135.705 109.824 C 135.797 110.378,135.825 110.406,135.888 110.007 C 135.929 109.747,135.880 109.453,135.779 109.352 C 135.668 109.241,135.639 109.427,135.705 109.824 M149.675 109.733 C 149.779 109.926,150.068 110.263,150.318 110.481 C 150.690 110.806,150.671 110.743,150.213 110.130 C 149.621 109.338,149.361 109.146,149.675 109.733 M189.643 109.581 C 189.640 109.746,189.763 110.329,189.915 110.878 C 190.068 111.427,190.197 111.697,190.203 111.477 C 190.209 111.257,190.086 110.674,189.930 110.180 C 189.775 109.686,189.645 109.416,189.643 109.581 M208.516 109.914 C 208.443 109.987,208.385 110.144,208.386 110.263 C 208.388 110.390,208.455 110.375,208.549 110.227 C 208.674 110.030,210.555 109.987,217.279 110.028 L 225.848 110.080 225.909 111.026 L 225.970 111.972 217.326 112.027 L 208.683 112.082 217.365 112.079 L 226.048 112.076 226.113 111.400 C 226.148 111.028,226.124 110.511,226.059 110.252 L 225.940 109.780 217.295 109.780 C 212.540 109.780,208.589 109.840,208.516 109.914 M244.881 110.356 C 244.842 110.467,243.918 111.528,242.828 112.714 C 241.738 113.900,241.274 114.466,241.797 113.972 C 243.164 112.680,245.181 110.384,245.057 110.260 C 244.999 110.202,244.920 110.245,244.881 110.356 M133.193 111.028 C 132.017 112.318,131.693 113.148,131.959 114.186 C 132.097 114.723,132.250 115.122,132.300 115.072 C 132.350 115.022,132.280 114.589,132.146 114.109 C 131.880 113.157,132.584 111.585,133.595 110.877 C 133.829 110.713,133.927 110.579,133.812 110.579 C 133.697 110.579,133.418 110.781,133.193 111.028 M131.340 111.228 C 131.337 111.626,132.028 111.713,132.256 111.343 C 132.356 111.182,132.288 111.153,132.035 111.250 C 131.816 111.334,131.603 111.288,131.506 111.135 C 131.386 110.946,131.343 110.971,131.340 111.228 M151.093 111.418 C 151.859 112.240,151.654 112.271,144.754 112.375 C 137.691 112.482,137.644 112.489,137.759 113.499 L 137.824 114.072 144.504 114.125 C 151.799 114.182,151.845 114.190,150.979 115.285 C 149.914 116.633,149.645 117.074,150.381 116.267 C 152.541 113.902,152.718 113.972,144.586 113.972 L 137.924 113.972 137.924 113.395 C 137.924 112.571,137.892 112.575,144.902 112.575 C 151.884 112.575,152.077 112.543,151.388 111.490 C 151.203 111.209,150.969 110.978,150.867 110.978 C 150.766 110.978,150.868 111.176,151.093 111.418 M129.663 111.876 C 129.827 112.610,129.941 112.769,129.937 112.259 C 129.935 112.048,129.843 111.742,129.731 111.577 C 129.583 111.358,129.565 111.439,129.663 111.876 M192.632 111.677 C 192.626 111.896,192.708 112.211,192.814 112.375 C 193.071 112.772,193.071 112.273,192.814 111.677 L 192.643 111.277 192.632 111.677 M241.489 112.325 C 240.998 112.847,240.524 113.408,240.435 113.573 C 240.286 113.847,240.770 113.365,242.087 111.926 C 242.364 111.624,242.543 111.377,242.486 111.377 C 242.428 111.377,241.980 111.804,241.489 112.325 M190.036 112.145 C 190.027 112.293,189.520 113.124,188.908 113.992 C 188.297 114.859,187.870 115.566,187.960 115.563 C 188.050 115.559,188.368 115.177,188.667 114.714 C 188.966 114.251,189.443 113.529,189.727 113.110 C 190.011 112.690,190.200 112.241,190.147 112.112 C 190.082 111.952,190.046 111.963,190.036 112.145 M154.066 112.443 C 154.217 112.625,154.459 112.774,154.604 112.774 C 154.749 112.774,155.007 112.974,155.178 113.218 C 155.349 113.462,155.489 113.566,155.489 113.449 C 155.489 113.211,155.042 112.816,154.291 112.393 C 153.833 112.134,153.815 112.138,154.066 112.443 M129.983 113.712 C 129.993 114.063,129.836 114.601,129.636 114.909 C 129.361 115.332,129.348 115.406,129.584 115.213 C 130.096 114.794,130.406 113.856,130.171 113.438 C 129.999 113.132,129.969 113.176,129.983 113.712 M193.031 113.473 C 193.025 113.693,193.107 114.007,193.214 114.172 C 193.470 114.568,193.470 114.070,193.214 113.473 L 193.042 113.074 193.031 113.473 M153.094 114.846 C 152.490 115.327,151.592 116.158,151.099 116.693 C 150.383 117.469,150.463 117.418,151.498 116.441 C 152.211 115.767,153.190 114.937,153.673 114.594 C 154.156 114.252,154.470 113.972,154.371 113.972 C 154.272 113.972,153.698 114.366,153.094 114.846 M189.636 114.920 L 188.985 115.868 189.597 115.170 C 189.933 114.785,190.211 114.404,190.214 114.321 C 190.232 113.827,190.651 114.316,190.898 115.120 C 191.059 115.641,191.196 115.908,191.204 115.712 C 191.222 115.236,190.684 113.972,190.463 113.972 C 190.366 113.972,189.994 114.399,189.636 114.920 M237.991 116.085 C 236.911 117.247,236.011 118.392,235.991 118.630 C 235.958 119.016,235.965 119.020,236.059 118.663 C 236.116 118.443,236.628 117.769,237.195 117.166 C 237.762 116.562,238.671 115.596,239.215 115.020 C 239.759 114.444,240.148 113.972,240.079 113.972 C 240.010 113.972,239.070 114.923,237.991 116.085 M249.076 114.721 C 248.830 115.035,248.836 115.043,249.143 114.803 C 249.330 114.656,249.577 114.594,249.692 114.665 C 249.806 114.736,249.900 114.699,249.900 114.583 C 249.900 114.249,249.378 114.336,249.076 114.721 M248.242 115.675 C 247.934 115.946,247.762 116.168,247.858 116.168 C 247.955 116.168,248.245 115.943,248.503 115.669 C 249.100 115.034,248.968 115.037,248.242 115.675 M196.521 115.546 C 196.461 115.644,196.568 115.711,196.759 115.696 C 196.951 115.681,197.081 115.787,197.051 115.933 C 197.021 116.078,197.093 116.138,197.210 116.065 C 197.361 115.972,197.355 115.848,197.191 115.651 C 196.923 115.328,196.679 115.290,196.521 115.546 M128.743 116.168 C 128.508 116.497,128.361 116.766,128.416 116.766 C 128.471 116.766,128.708 116.497,128.942 116.168 C 129.177 115.838,129.324 115.569,129.269 115.569 C 129.214 115.569,128.977 115.838,128.743 116.168 M129.969 115.834 C 129.797 116.040,129.844 116.095,130.181 116.083 C 130.479 116.073,130.658 116.224,130.756 116.567 C 130.886 117.023,130.900 117.028,130.918 116.631 C 130.951 115.923,130.328 115.401,129.969 115.834 M239.888 115.907 C 239.820 116.147,239.814 116.394,239.875 116.456 C 240.042 116.623,246.970 116.584,247.237 116.414 C 247.365 116.333,245.822 116.295,243.810 116.330 L 240.151 116.392 240.081 115.930 L 240.012 115.469 239.888 115.907 M163.297 116.904 C 163.284 117.474,163.342 117.983,163.427 118.035 C 163.511 118.087,163.551 117.756,163.516 117.299 C 163.412 115.955,163.321 115.792,163.297 116.904 M188.176 116.774 C 187.875 117.209,187.695 117.563,187.776 117.561 C 187.858 117.558,188.177 117.199,188.486 116.762 C 188.795 116.325,188.975 115.971,188.885 115.976 C 188.796 115.980,188.476 116.339,188.176 116.774 M195.695 116.459 C 195.518 116.729,195.195 117.007,194.977 117.076 C 194.759 117.146,194.630 117.251,194.689 117.311 C 194.853 117.474,195.765 116.822,196.008 116.367 C 196.310 115.803,196.081 115.870,195.695 116.459 M134.282 116.948 C 133.477 117.656,133.235 117.704,132.950 117.216 C 132.765 116.897,132.746 116.896,132.741 117.202 C 132.729 117.819,133.518 117.854,134.134 117.263 C 135.076 116.361,135.168 116.796,134.283 117.964 C 133.826 118.568,133.586 118.954,133.751 118.821 C 134.378 118.319,135.298 116.840,135.142 116.587 C 135.025 116.397,134.806 116.489,134.282 116.948 M191.224 116.567 C 191.224 116.732,191.311 117.001,191.417 117.166 C 191.589 117.432,191.611 117.432,191.611 117.166 C 191.611 117.001,191.524 116.732,191.417 116.567 C 191.245 116.301,191.224 116.301,191.224 116.567 M196.389 117.016 C 196.145 117.373,195.667 117.978,195.328 118.361 C 194.729 119.038,194.727 119.044,195.281 118.561 C 195.836 118.077,197.121 116.367,196.929 116.367 C 196.877 116.367,196.634 116.659,196.389 117.016 M184.719 116.855 C 184.932 117.026,185.246 117.159,185.417 117.150 C 185.686 117.136,185.688 117.119,185.429 117.023 C 185.264 116.962,184.950 116.829,184.731 116.728 C 184.338 116.548,184.338 116.550,184.719 116.855 M183.532 117.167 C 183.022 117.731,183.239 117.783,183.775 117.226 C 184.018 116.973,184.145 116.766,184.056 116.766 C 183.967 116.766,183.731 116.947,183.532 117.167 M127.877 117.251 C 127.817 117.408,127.516 117.574,127.207 117.620 C 126.654 117.704,126.653 117.705,127.165 117.735 C 127.460 117.752,127.838 117.593,128.044 117.365 C 128.243 117.146,128.311 116.966,128.196 116.966 C 128.081 116.966,127.938 117.094,127.877 117.251 M125.482 117.777 C 124.859 118.668,125.833 119.605,126.926 119.166 C 127.439 118.960,127.439 118.959,126.952 119.052 C 125.463 119.339,124.784 117.848,126.248 117.505 C 126.615 117.419,126.612 117.410,126.209 117.388 C 125.968 117.376,125.641 117.551,125.482 117.777 M128.135 118.214 C 127.764 118.680,127.619 118.935,127.812 118.780 C 128.175 118.488,129.030 117.365,128.889 117.365 C 128.845 117.365,128.506 117.747,128.135 118.214 M130.951 117.565 C 130.952 117.730,131.088 118.089,131.253 118.363 L 131.554 118.862 131.421 118.363 C 131.229 117.639,130.950 117.164,130.951 117.565 M160.878 117.748 C 160.878 117.849,160.474 118.085,159.980 118.274 C 159.486 118.463,159.082 118.687,159.082 118.772 C 159.082 118.857,159.531 118.709,160.080 118.445 C 160.903 118.048,161.396 117.565,160.978 117.565 C 160.923 117.565,160.878 117.647,160.878 117.748 M248.660 117.869 C 248.599 118.086,248.487 118.443,248.413 118.663 C 248.339 118.882,248.424 118.809,248.603 118.501 C 248.781 118.193,248.893 117.836,248.850 117.708 C 248.807 117.580,248.722 117.653,248.660 117.869 M186.897 118.385 C 185.829 119.453,183.433 119.342,183.433 118.226 C 183.433 118.045,183.380 117.951,183.315 118.016 C 182.733 118.598,184.194 119.472,185.465 119.302 C 186.138 119.212,188.165 117.764,187.618 117.764 C 187.562 117.764,187.238 118.044,186.897 118.385 M191.626 117.964 C 191.625 118.923,193.428 119.732,194.338 119.182 C 194.657 118.989,194.632 118.974,194.160 119.081 C 193.145 119.311,192.291 119.013,191.943 118.309 C 191.769 117.954,191.626 117.799,191.626 117.964 M132.086 119.182 C 132.333 119.274,132.737 119.274,132.984 119.182 C 133.335 119.052,133.238 119.017,132.535 119.017 C 131.831 119.017,131.735 119.052,132.086 119.182 M160.919 119.110 C 161.656 119.148,162.913 119.148,163.714 119.110 C 164.515 119.072,163.912 119.041,162.375 119.041 C 160.838 119.041,160.183 119.072,160.919 119.110 M239.284 119.111 C 240.965 119.145,243.659 119.145,245.272 119.111 C 246.884 119.078,245.509 119.050,242.216 119.051 C 238.922 119.051,237.603 119.078,239.284 119.111 " stroke="none" fill="#7c7c7c" fill-rule="evenodd"></path></g></svg>