<svg id="svg" version="1.1" xmlns="http://www.w3.org/2000/svg" xmlns:xlink="http://www.w3.org/1999/xlink" width="400" height="233.9152119700748" viewBox="0, 0, 400,233.9152119700748"><g id="svgg"><path id="path0" d="M116.608 86.076 C 116.351 86.184,115.509 86.449,114.737 86.666 C 111.357 87.613,111.297 87.667,113.175 88.072 C 114.870 88.437,114.887 88.549,114.806 98.981 C 114.728 108.949,114.740 108.883,112.890 109.321 C 110.950 109.780,112.164 110.058,116.101 110.058 C 119.979 110.058,120.836 109.875,119.327 109.366 C 117.588 108.781,117.661 109.324,117.661 96.933 C 117.661 85.215,117.700 85.618,116.608 86.076 M124.749 86.199 C 124.113 86.645,123.858 87.759,124.230 88.466 C 125.077 90.074,127.485 89.525,127.485 87.723 C 127.485 86.219,125.945 85.361,124.749 86.199 M242.836 86.259 C 242.396 86.566,241.478 86.672,238.392 86.773 L 234.503 86.901 233.756 88.421 C 230.356 95.338,230.305 95.662,232.616 95.669 C 235.423 95.678,239.177 97.837,240.210 100.037 C 240.382 100.403,240.615 100.885,240.729 101.108 C 241.229 102.090,240.965 104.693,240.220 106.117 C 238.572 109.271,236.689 109.933,234.130 108.261 C 231.257 106.383,227.826 107.376,230.031 109.448 C 233.313 112.531,241.375 109.722,243.023 104.922 C 244.991 99.188,241.499 93.862,235.053 92.765 C 233.803 92.552,233.582 92.170,234.076 91.077 C 234.872 89.319,234.769 89.357,238.691 89.353 C 242.727 89.349,242.546 89.413,243.227 87.747 C 244.005 85.847,243.916 85.508,242.836 86.259 M167.141 87.413 C 164.159 89.753,162.206 92.361,161.392 95.088 C 161.238 95.602,161.020 96.206,160.907 96.430 C 160.794 96.653,160.702 97.167,160.702 97.572 C 160.702 97.977,160.579 98.975,160.429 99.790 C 159.946 102.410,160.778 106.428,162.483 109.708 C 163.798 112.237,166.133 114.692,168.549 116.085 C 169.551 116.663,169.266 115.707,168.068 114.474 C 165.600 111.935,164.753 110.372,163.758 106.523 C 163.425 105.236,163.437 96.916,163.774 95.500 C 164.433 92.731,165.600 90.595,167.637 88.430 C 168.583 87.424,169.357 86.537,169.357 86.459 C 169.357 86.024,168.367 86.450,167.141 87.413 M247.018 86.542 C 247.018 86.666,247.731 87.482,248.603 88.355 C 251.852 91.606,252.865 94.730,252.865 101.489 C 252.865 105.036,252.760 106.019,252.124 108.421 C 251.590 110.440,250.250 112.532,248.333 114.341 C 246.515 116.057,246.500 116.843,248.308 115.635 C 250.357 114.266,252.789 111.730,253.723 109.989 C 253.978 109.512,254.302 108.912,254.442 108.655 C 256.169 105.487,256.269 97.972,254.628 94.683 C 254.431 94.287,254.269 93.887,254.269 93.794 C 254.269 93.481,252.688 90.994,251.801 89.912 C 250.062 87.790,247.018 85.645,247.018 86.542 M207.129 91.053 C 207.070 91.213,206.994 93.240,206.961 95.556 L 206.901 99.766 202.281 99.830 L 197.661 99.893 197.661 101.053 L 197.661 102.212 202.281 102.276 L 206.901 102.339 206.964 106.972 L 207.028 111.604 208.134 111.533 L 209.240 111.462 209.357 106.901 L 209.474 102.339 213.918 102.222 L 218.363 102.105 218.363 101.053 L 218.363 100.000 213.860 99.936 L 209.357 99.873 209.357 95.317 L 209.357 90.760 208.297 90.760 C 207.662 90.760,207.194 90.878,207.129 91.053 M125.731 94.302 C 125.088 94.552,124.088 94.921,123.509 95.120 C 121.874 95.682,121.529 96.140,122.740 96.140 C 124.584 96.140,124.746 96.749,124.636 103.275 C 124.548 108.534,124.410 109.005,122.863 109.331 C 120.469 109.836,121.716 110.175,125.965 110.175 C 129.391 110.175,130.058 110.120,130.058 109.835 C 130.058 109.630,129.725 109.432,129.218 109.337 C 127.555 109.025,127.487 108.689,127.486 100.760 C 127.486 95.337,127.421 93.806,127.193 93.823 C 127.032 93.836,126.374 94.051,125.731 94.302 M134.152 94.618 C 131.941 95.412,131.668 95.693,132.867 95.938 C 134.207 96.212,134.253 96.425,134.262 102.379 C 134.270 108.554,134.154 109.054,132.633 109.414 C 130.899 109.824,131.889 110.060,135.614 110.123 C 138.764 110.176,139.415 110.130,139.415 109.856 C 139.415 109.664,139.074 109.462,138.597 109.372 C 137.198 109.110,137.076 108.588,137.076 102.843 L 137.076 97.826 137.903 97.100 C 140.102 95.169,142.443 95.237,143.286 97.256 C 143.745 98.355,143.769 108.213,143.314 108.811 C 143.151 109.025,142.628 109.274,142.152 109.363 C 141.647 109.458,141.287 109.661,141.287 109.851 C 141.287 110.115,142.009 110.175,145.146 110.175 C 148.265 110.175,149.006 110.114,149.006 109.854 C 149.006 109.677,148.690 109.469,148.304 109.392 C 146.857 109.102,146.668 108.344,146.668 102.807 C 146.667 98.038,146.683 97.877,147.198 97.278 C 148.392 95.890,150.833 95.209,151.847 95.980 C 153.063 96.905,153.216 97.706,153.216 103.124 C 153.216 108.789,153.244 108.690,151.485 109.440 C 150.195 109.991,151.165 110.190,154.814 110.123 C 158.390 110.058,159.192 109.833,157.520 109.364 C 156.195 108.992,156.062 108.366,156.041 102.404 C 156.024 97.550,155.998 97.266,155.454 96.036 C 154.195 93.188,150.975 92.950,147.698 95.462 C 146.254 96.568,146.355 96.565,145.716 95.531 C 144.272 93.196,141.057 93.165,138.264 95.461 C 137.278 96.271,137.076 96.166,137.076 94.840 C 137.076 93.579,137.050 93.577,134.152 94.618 M176.023 94.618 C 175.895 94.661,175.191 94.876,174.459 95.095 C 173.079 95.508,172.225 96.352,173.505 96.037 C 175.138 95.635,175.334 95.638,175.688 96.063 C 176.064 96.516,176.397 97.450,176.799 99.181 C 176.933 99.760,177.167 100.723,177.317 101.321 L 177.591 102.407 176.429 104.128 C 173.854 107.939,172.641 109.031,172.047 108.070 C 171.723 107.547,170.063 107.804,169.782 108.421 C 168.928 110.296,171.805 111.158,173.481 109.529 C 174.293 108.740,175.439 107.414,175.439 107.263 C 175.439 107.020,177.373 104.587,177.652 104.480 C 177.857 104.401,178.078 104.859,178.350 105.925 C 179.461 110.288,179.463 110.292,181.038 110.292 C 182.359 110.292,182.738 110.019,184.255 107.974 C 185.604 106.155,185.263 105.525,183.834 107.197 C 182.154 109.162,181.814 108.850,180.662 104.287 L 179.810 100.911 180.690 99.520 C 182.396 96.823,183.267 96.242,184.658 96.875 C 185.919 97.450,187.028 95.816,186.005 94.890 C 184.833 93.829,182.907 94.877,180.772 97.737 C 180.260 98.423,179.779 98.921,179.702 98.844 C 179.473 98.615,178.955 96.994,178.950 96.491 C 178.937 95.056,177.487 94.128,176.023 94.618 M150.958 120.224 C 149.147 120.508,147.770 121.896,147.181 124.033 C 146.825 125.322,147.218 125.304,148.059 123.995 C 150.644 119.966,155.839 122.476,154.363 127.041 C 153.660 129.217,153.214 129.846,149.787 133.493 C 147.015 136.444,146.877 136.615,147.047 136.889 C 147.313 137.319,156.730 137.106,156.871 136.667 C 156.943 136.442,157.087 136.047,157.191 135.789 C 158.086 133.573,158.075 133.175,157.141 134.108 C 156.165 135.084,155.696 135.205,152.881 135.205 C 149.661 135.205,149.525 135.037,151.252 133.195 C 153.817 130.460,154.322 129.897,154.899 129.123 C 158.536 124.241,156.381 119.373,150.958 120.224 M115.673 126.082 C 115.415 126.192,114.928 126.290,114.590 126.299 C 113.434 126.330,113.275 126.979,114.404 127.062 C 115.467 127.140,115.606 127.291,115.981 128.772 C 116.111 129.287,116.326 130.116,116.459 130.616 C 116.686 131.470,116.644 131.609,115.744 132.955 C 114.004 135.560,113.364 136.019,112.282 135.439 C 111.530 135.037,110.828 136.034,111.318 136.807 C 112.036 137.939,114.030 136.801,115.663 134.327 C 116.584 132.933,117.015 133.021,117.393 134.678 C 117.840 136.637,118.186 137.076,119.283 137.076 C 120.211 137.076,120.184 137.096,121.771 135.144 C 121.955 134.917,122.105 134.627,122.105 134.500 C 122.105 134.054,121.664 134.276,121.170 134.971 C 120.256 136.254,119.426 135.734,119.021 133.626 C 118.379 130.281,118.382 130.468,118.970 129.459 C 119.916 127.839,120.518 127.413,121.602 127.596 C 122.823 127.803,123.405 127.044,122.624 126.262 C 121.909 125.547,120.665 126.097,119.442 127.669 L 118.480 128.905 118.070 128.403 C 117.845 128.127,117.661 127.673,117.661 127.395 C 117.661 126.216,116.754 125.617,115.673 126.082 M137.778 126.115 C 137.778 126.262,138.259 126.946,138.848 127.635 C 140.679 129.778,140.930 129.698,132.088 129.769 L 124.415 129.831 124.488 130.588 L 124.561 131.345 132.161 131.462 C 140.918 131.597,140.672 131.516,138.848 133.652 C 136.829 136.015,137.654 136.097,140.117 133.778 C 141.082 132.869,142.371 131.845,142.982 131.501 C 144.362 130.726,144.364 130.552,143.006 129.832 C 142.408 129.514,141.104 128.488,140.108 127.551 C 138.362 125.909,137.778 125.549,137.778 126.115 " stroke="none" fill="#0d0d0d" fill-rule="evenodd"></path><path id="path1" d="M0.000 116.959 L 0.000 233.918 200.000 233.918 L 400.000 233.918 400.000 116.959 L 400.000 0.000 200.000 0.000 L 0.000 0.000 0.000 116.959 M244.159 85.673 C 244.387 85.952,244.272 86.309,243.193 88.655 C 242.694 89.741,242.427 89.809,238.681 89.817 L 235.139 89.825 234.632 90.903 C 234.354 91.496,234.158 92.003,234.197 92.029 C 234.237 92.055,234.743 92.209,235.322 92.370 C 235.901 92.531,236.743 92.768,237.193 92.897 C 240.459 93.828,243.143 96.499,243.625 99.298 C 243.714 99.813,243.844 100.538,243.913 100.910 C 244.288 102.917,242.980 106.656,241.356 108.218 C 237.531 111.897,229.240 111.930,229.240 108.266 C 229.240 106.673,232.269 106.032,233.450 107.375 C 236.491 110.832,241.565 106.784,240.456 101.786 C 240.281 100.997,240.054 100.351,239.952 100.351 C 239.850 100.351,239.766 100.201,239.766 100.018 C 239.766 99.446,237.954 97.877,236.430 97.128 C 234.775 96.316,234.190 96.157,232.047 95.942 C 230.150 95.752,230.028 95.382,231.120 93.129 C 231.533 92.276,232.057 91.158,232.285 90.643 C 234.500 85.634,233.868 86.082,238.721 86.082 C 242.017 86.082,242.803 86.018,243.041 85.731 C 243.396 85.304,243.838 85.280,244.159 85.673 M117.985 86.555 C 118.068 87.072,118.130 92.084,118.124 97.694 C 118.110 108.913,118.121 109.002,119.479 109.009 C 120.336 109.014,120.766 109.320,120.663 109.853 C 120.519 110.601,111.729 110.524,111.622 109.774 C 111.565 109.369,111.692 109.226,112.207 109.117 C 112.569 109.040,113.129 108.832,113.450 108.655 L 114.035 108.334 114.100 98.904 C 114.177 87.799,114.259 88.469,112.806 88.375 C 111.192 88.272,111.156 87.295,112.749 86.821 C 113.327 86.648,114.380 86.319,115.088 86.090 C 117.315 85.367,117.808 85.447,117.985 86.555 M127.216 86.051 C 127.928 86.669,127.925 88.522,127.211 89.283 C 126.275 90.279,124.471 89.866,123.770 88.495 C 122.781 86.560,125.544 84.601,127.216 86.051 M169.551 86.511 C 169.608 86.912,169.291 87.383,168.324 88.335 C 166.346 90.282,164.678 92.779,164.678 93.796 C 164.678 94.041,164.588 94.297,164.478 94.365 C 163.673 94.863,163.673 107.243,164.478 107.740 C 164.588 107.808,164.678 108.115,164.678 108.421 C 164.678 108.728,164.784 109.043,164.912 109.123 C 165.041 109.202,165.146 109.424,165.146 109.616 C 165.146 110.209,166.782 112.563,168.217 114.035 C 170.732 116.615,169.571 117.590,166.681 115.326 C 164.058 113.271,161.533 109.535,160.750 106.550 C 160.615 106.035,160.391 105.181,160.252 104.651 C 159.926 103.407,159.926 98.932,160.252 97.688 C 160.391 97.158,160.612 96.304,160.743 95.789 C 160.874 95.275,161.076 94.671,161.192 94.448 C 161.309 94.224,161.404 93.927,161.404 93.787 C 161.404 91.444,169.255 84.432,169.551 86.511 M249.368 87.058 C 252.176 89.309,255.439 94.007,255.439 95.799 C 255.439 95.990,255.533 96.329,255.647 96.553 C 256.710 98.620,256.484 104.359,255.208 107.719 C 254.102 110.632,251.868 113.587,249.591 115.152 C 249.012 115.550,248.485 115.946,248.421 116.031 C 248.009 116.580,247.162 116.772,246.877 116.381 C 246.467 115.821,246.576 115.638,248.491 113.668 C 251.135 110.950,251.976 108.927,252.402 104.269 C 252.680 101.224,252.394 95.852,251.905 94.928 C 251.790 94.711,251.696 94.368,251.696 94.165 C 251.696 93.022,249.948 90.234,248.097 88.423 C 245.602 85.982,246.639 84.869,249.368 87.058 M209.537 95.024 L 209.601 99.639 214.215 99.703 L 218.830 99.766 218.902 101.030 C 218.998 102.711,219.084 102.682,213.982 102.686 L 209.601 102.690 209.537 107.193 L 209.474 111.696 208.070 111.696 L 206.667 111.696 206.550 107.251 L 206.433 102.807 201.988 102.690 L 197.544 102.573 197.474 101.111 L 197.405 99.649 201.977 99.649 L 206.550 99.649 206.550 95.251 C 206.550 90.223,206.545 90.237,208.303 90.341 L 209.474 90.409 209.537 95.024 M145.010 94.248 C 145.678 94.771,145.985 95.141,146.356 95.869 C 146.379 95.913,146.958 95.535,147.643 95.029 C 150.831 92.675,154.399 92.929,155.684 95.601 C 156.335 96.954,156.512 98.388,156.684 103.718 C 156.855 108.991,156.807 108.823,158.197 109.116 C 158.944 109.273,159.291 109.889,158.806 110.195 C 158.374 110.469,150.709 110.470,150.539 110.197 C 150.282 109.780,150.704 109.237,151.428 109.054 C 152.735 108.724,152.982 107.833,152.982 103.437 C 152.983 98.216,152.608 96.671,151.219 96.169 C 150.169 95.789,148.764 96.200,147.824 97.161 L 147.135 97.867 147.135 102.916 C 147.135 108.377,147.264 109.006,148.390 109.006 C 149.144 109.006,149.815 109.558,149.634 110.030 C 149.501 110.377,149.029 110.413,145.327 110.356 L 141.170 110.292 141.170 109.708 C 141.170 109.222,141.295 109.111,141.912 109.051 C 143.229 108.923,143.275 108.725,143.275 103.180 C 143.275 98.764,143.221 98.021,142.849 97.273 C 142.344 96.258,141.338 95.737,140.621 96.121 C 140.361 96.260,139.930 96.374,139.665 96.374 C 139.399 96.374,139.181 96.455,139.181 96.553 C 139.181 96.651,138.946 96.835,138.659 96.962 C 137.673 97.398,137.549 98.073,137.571 102.924 C 137.596 108.709,137.612 108.770,139.255 109.117 C 139.770 109.226,139.897 109.369,139.840 109.774 C 139.724 110.591,131.621 110.591,131.505 109.774 C 131.448 109.370,131.576 109.224,132.090 109.112 C 133.240 108.859,133.335 108.797,133.599 108.135 C 133.987 107.158,134.132 99.974,133.803 98.020 L 133.525 96.374 132.626 96.374 C 131.919 96.374,131.694 96.270,131.571 95.883 C 131.359 95.212,131.500 95.118,133.990 94.291 C 137.061 93.270,137.310 93.296,137.310 94.637 C 137.310 95.609,137.343 95.672,137.677 95.339 C 139.599 93.417,143.255 92.873,145.010 94.248 M127.757 93.626 C 127.777 93.658,127.856 96.969,127.932 100.984 C 128.083 108.944,128.089 108.977,129.485 108.998 C 130.130 109.008,130.498 109.415,130.355 109.961 C 130.195 110.575,121.721 110.665,121.487 110.056 C 121.288 109.537,121.834 109.006,122.565 109.006 C 123.996 109.006,124.094 108.594,124.094 102.585 C 124.094 96.472,124.056 96.316,122.598 96.427 C 121.463 96.513,121.216 95.592,122.264 95.181 C 125.693 93.836,127.554 93.309,127.757 93.626 M178.503 94.762 C 178.876 95.161,179.181 95.734,179.181 96.034 C 179.181 96.335,179.287 96.646,179.415 96.725 C 179.544 96.805,179.649 97.246,179.649 97.705 L 179.649 98.541 180.826 97.017 C 182.791 94.471,184.539 93.581,185.945 94.411 C 187.914 95.575,186.112 98.006,183.995 97.042 C 183.254 96.704,183.013 96.890,181.563 98.923 C 180.269 100.736,180.250 101.016,181.177 104.704 C 182.106 108.400,182.212 108.498,183.597 106.927 C 184.601 105.787,184.756 105.694,185.219 105.941 C 185.868 106.288,185.862 106.352,185.087 107.503 C 182.934 110.697,180.992 111.688,179.604 110.301 C 179.006 109.702,178.358 107.941,177.893 105.652 C 177.729 104.841,177.413 105.040,176.307 106.648 C 174.107 109.845,172.895 110.877,171.341 110.877 C 169.558 110.877,168.557 108.605,169.940 107.698 C 170.541 107.305,171.977 107.393,172.540 107.858 C 172.852 108.116,173.771 107.253,174.808 105.731 C 175.202 105.152,175.585 104.626,175.658 104.561 C 175.731 104.497,176.093 103.999,176.462 103.455 L 177.133 102.466 176.738 100.648 C 175.814 96.404,175.822 96.416,173.957 96.326 C 171.720 96.219,171.896 95.548,174.386 94.689 C 176.886 93.827,177.642 93.840,178.503 94.762 M153.779 119.857 C 156.400 120.770,157.766 123.469,156.921 126.065 C 156.445 127.528,156.148 128.187,155.966 128.187 C 155.869 128.187,155.789 128.319,155.788 128.480 C 155.787 128.773,154.487 130.313,152.003 132.965 C 150.352 134.727,150.446 134.824,153.672 134.691 C 156.246 134.585,156.269 134.579,156.880 133.842 C 157.994 132.497,158.720 133.118,158.010 134.808 C 157.783 135.348,157.449 136.132,157.267 136.550 L 156.937 137.310 151.816 137.310 C 145.333 137.310,145.519 137.546,149.039 133.766 C 150.279 132.435,151.593 130.977,151.959 130.526 C 152.325 130.076,152.684 129.655,152.758 129.591 C 154.312 128.231,154.377 122.807,152.839 122.807 C 152.660 122.807,152.515 122.702,152.515 122.573 C 152.515 122.444,151.978 122.339,151.323 122.339 C 149.846 122.339,149.063 122.852,148.312 124.311 C 147.381 126.122,146.127 125.758,146.771 123.863 C 147.889 120.567,150.891 118.852,153.779 119.857 M139.836 126.725 C 141.697 128.535,142.151 128.903,143.450 129.663 C 144.897 130.508,144.856 130.738,143.056 131.902 C 142.229 132.438,140.856 133.564,140.006 134.406 C 137.731 136.658,136.388 135.882,138.468 133.518 C 139.910 131.881,140.207 131.956,131.921 131.881 C 123.712 131.806,123.908 131.843,124.033 130.409 L 124.094 129.708 131.684 129.646 C 140.295 129.576,140.136 129.616,138.579 127.884 C 137.490 126.673,137.238 125.728,137.953 125.541 C 138.178 125.483,138.383 125.422,138.408 125.407 C 138.433 125.392,139.076 125.985,139.836 126.725 M117.466 126.023 C 117.656 126.249,117.951 126.875,118.121 127.416 L 118.430 128.398 119.077 127.505 C 120.734 125.217,123.275 124.895,123.275 126.972 C 123.275 127.799,122.216 128.403,121.485 127.994 C 120.899 127.666,120.389 127.994,119.517 129.261 C 118.697 130.454,118.701 130.612,119.664 134.561 C 119.859 135.361,120.294 135.382,120.894 134.620 C 121.768 133.508,122.772 133.926,122.177 135.154 C 120.731 138.141,118.134 138.445,117.320 135.724 C 117.100 134.988,116.880 134.254,116.830 134.094 C 116.675 133.590,116.396 133.769,115.735 134.796 C 113.986 137.515,112.556 138.313,111.260 137.293 C 109.940 136.255,110.815 134.803,112.599 135.071 C 113.582 135.218,113.666 135.185,114.176 134.455 C 114.472 134.031,114.777 133.632,114.854 133.567 C 115.963 132.637,116.198 131.335,115.677 129.006 C 115.338 127.489,115.063 127.196,114.120 127.346 C 113.534 127.440,113.221 127.391,113.150 127.193 C 112.974 126.701,113.438 126.082,113.985 126.078 C 114.270 126.076,114.661 125.973,114.854 125.848 C 115.452 125.461,117.084 125.571,117.466 126.023 " stroke="none" fill="#fbfbfb" fill-rule="evenodd"></path><path id="path2" d="M243.041 85.731 C 242.803 86.018,242.015 86.082,238.702 86.082 L 234.654 86.082 234.169 86.698 C 233.902 87.037,233.685 87.432,233.685 87.575 C 233.686 87.719,233.895 87.494,234.149 87.076 L 234.613 86.316 238.681 86.316 C 242.012 86.316,242.803 86.252,243.041 85.965 C 243.472 85.445,243.976 85.539,243.980 86.140 C 243.983 86.555,244.030 86.594,244.201 86.324 C 244.656 85.603,243.597 85.062,243.041 85.731 M115.556 85.999 C 114.814 86.297,114.803 86.314,115.439 86.178 C 115.825 86.095,116.535 86.013,117.018 85.996 C 117.500 85.979,117.895 85.886,117.895 85.789 C 117.895 85.510,116.450 85.639,115.556 85.999 M124.114 86.334 C 123.766 86.747,123.519 87.320,123.533 87.679 C 123.555 88.254,123.571 88.243,123.739 87.534 C 123.973 86.545,124.565 85.899,125.346 85.779 L 125.965 85.684 125.342 85.649 C 124.908 85.625,124.537 85.832,124.114 86.334 M126.316 85.779 C 126.509 85.850,126.904 86.123,127.193 86.386 C 127.482 86.650,127.719 86.780,127.719 86.676 C 127.719 86.358,126.734 85.613,126.338 85.633 C 126.022 85.648,126.018 85.671,126.316 85.779 M167.683 86.541 C 167.084 86.917,166.520 87.345,166.429 87.492 C 166.338 87.638,166.851 87.369,167.569 86.892 C 168.345 86.377,169.024 86.084,169.244 86.168 C 169.458 86.250,169.555 86.213,169.472 86.079 C 169.243 85.709,168.844 85.812,167.683 86.541 M246.937 86.023 C 246.877 86.120,247.124 86.199,247.485 86.199 C 247.847 86.199,248.094 86.120,248.034 86.023 C 247.974 85.927,247.728 85.848,247.485 85.848 C 247.243 85.848,246.996 85.927,246.937 86.023 M113.684 86.550 C 113.202 86.704,113.182 86.740,113.567 86.757 C 113.825 86.768,114.193 86.674,114.386 86.550 C 114.796 86.285,114.511 86.285,113.684 86.550 M248.655 86.583 C 250.046 87.958,252.404 90.044,251.930 89.479 C 251.608 89.096,251.082 88.537,250.760 88.237 C 250.060 87.585,248.152 86.086,248.655 86.583 M111.949 87.091 C 111.247 87.605,111.567 88.301,112.517 88.325 L 113.333 88.346 112.573 88.252 C 111.595 88.132,111.523 87.396,112.456 87.056 C 112.810 86.926,112.935 86.812,112.735 86.802 C 112.534 86.792,112.181 86.922,111.949 87.091 M118.002 96.374 C 118.002 101.713,118.032 103.898,118.070 101.228 C 118.107 98.558,118.107 94.190,118.070 91.520 C 118.032 88.851,118.002 91.035,118.002 96.374 M167.862 88.502 C 166.455 89.990,164.885 92.164,165.217 92.164 C 165.282 92.164,165.598 91.716,165.918 91.170 C 166.239 90.623,167.211 89.462,168.079 88.590 C 168.946 87.718,169.612 86.961,169.559 86.908 C 169.506 86.855,168.742 87.572,167.862 88.502 M248.148 88.448 C 248.963 89.287,249.842 90.309,250.101 90.718 C 250.641 91.571,250.913 91.720,250.498 90.936 C 250.111 90.203,248.716 88.650,247.602 87.712 C 247.078 87.270,247.317 87.593,248.148 88.448 M233.117 88.691 C 232.770 89.387,232.618 90.033,232.858 89.793 C 233.041 89.610,233.698 87.953,233.588 87.953 C 233.531 87.953,233.319 88.285,233.117 88.691 M164.666 89.064 L 163.860 89.942 164.737 89.135 C 165.553 88.385,165.722 88.187,165.543 88.187 C 165.504 88.187,165.109 88.582,164.666 89.064 M114.017 88.733 C 114.091 88.968,114.163 93.442,114.176 98.674 C 114.192 105.202,114.268 107.894,114.420 107.251 C 114.776 105.748,114.574 89.347,114.193 88.772 C 113.928 88.372,113.902 88.367,114.017 88.733 M126.808 89.260 C 126.370 89.570,126.168 89.825,126.357 89.825 C 126.547 89.825,126.949 89.561,127.251 89.240 C 127.923 88.525,127.836 88.529,126.808 89.260 M238.777 89.532 C 235.239 89.600,235.088 89.622,234.846 90.123 C 234.618 90.594,234.626 90.604,234.925 90.234 C 235.214 89.877,235.706 89.825,238.784 89.825 C 240.883 89.825,242.370 89.730,242.456 89.591 C 242.536 89.462,242.568 89.380,242.528 89.409 C 242.489 89.437,240.801 89.493,238.777 89.532 M206.841 90.563 C 206.625 90.778,206.563 92.011,206.601 95.310 L 206.651 99.766 206.776 95.205 L 206.901 90.643 208.048 90.571 C 208.800 90.523,209.269 90.603,209.410 90.804 C 209.579 91.044,209.606 91.034,209.532 90.760 C 209.409 90.304,207.257 90.147,206.841 90.563 M252.854 90.978 C 253.122 91.355,253.602 92.118,253.920 92.674 C 254.237 93.229,254.499 93.569,254.500 93.428 C 254.503 93.122,252.702 90.292,252.504 90.292 C 252.428 90.292,252.585 90.601,252.854 90.978 M234.179 91.380 C 233.852 92.097,233.997 92.306,234.971 92.517 C 235.503 92.633,235.588 92.609,235.322 92.420 C 235.129 92.283,234.787 92.169,234.561 92.167 C 234.084 92.163,234.063 92.065,234.405 91.427 C 234.544 91.167,234.614 90.910,234.560 90.856 C 234.506 90.802,234.335 91.038,234.179 91.380 M161.885 92.778 C 161.610 93.245,161.415 93.707,161.452 93.806 C 161.490 93.905,161.758 93.523,162.048 92.958 C 162.686 91.715,162.580 91.599,161.885 92.778 M236.043 92.716 C 236.096 92.762,236.456 92.870,236.842 92.957 C 237.355 93.071,237.449 93.050,237.193 92.876 C 236.877 92.662,235.808 92.513,236.043 92.716 M125.090 94.103 C 124.351 94.368,123.787 94.626,123.837 94.675 C 123.886 94.724,124.701 94.500,125.648 94.176 C 126.594 93.853,127.158 93.595,126.901 93.604 C 126.643 93.613,125.828 93.837,125.090 94.103 M135.088 93.927 C 134.160 94.352,134.608 94.350,135.789 93.925 C 136.304 93.739,136.515 93.592,136.257 93.597 C 136.000 93.601,135.474 93.750,135.088 93.927 M139.001 94.429 C 138.199 94.903,137.544 95.382,137.544 95.494 C 137.544 95.605,137.886 95.441,138.304 95.129 C 139.295 94.389,140.070 93.993,140.936 93.784 C 141.585 93.628,141.594 93.613,141.047 93.591 C 140.723 93.578,139.802 93.955,139.001 94.429 M143.691 93.735 C 144.049 93.789,144.760 94.231,145.270 94.717 C 145.781 95.203,146.199 95.519,146.199 95.421 C 146.199 94.983,144.211 93.569,143.642 93.602 C 143.050 93.637,143.050 93.639,143.691 93.735 M149.123 94.052 C 148.609 94.309,148.030 94.689,147.837 94.898 C 147.598 95.155,147.711 95.128,148.187 94.814 C 148.987 94.286,150.023 93.867,150.877 93.727 C 151.390 93.643,151.376 93.628,150.760 93.608 C 150.374 93.596,149.638 93.796,149.123 94.052 M153.333 93.735 C 153.591 93.798,154.170 94.109,154.620 94.427 L 155.439 95.005 154.629 94.286 C 154.183 93.891,153.604 93.579,153.342 93.594 C 152.873 93.621,152.873 93.623,153.333 93.735 M239.653 94.184 C 240.166 94.523,241.006 95.181,241.520 95.646 L 242.456 96.491 241.637 95.589 C 240.863 94.735,239.281 93.567,238.898 93.567 C 238.801 93.567,239.141 93.845,239.653 94.184 M251.699 94.172 C 251.701 94.418,251.810 94.778,251.941 94.971 C 252.114 95.227,252.136 95.132,252.021 94.620 C 251.829 93.760,251.695 93.573,251.699 94.172 M176.552 94.201 C 176.843 94.256,177.264 94.254,177.488 94.196 C 177.712 94.137,177.474 94.091,176.959 94.094 C 176.444 94.097,176.261 94.145,176.552 94.201 M161.092 94.425 C 161.006 94.511,160.942 94.800,160.950 95.068 C 160.964 95.516,160.983 95.510,161.189 94.995 C 161.419 94.423,161.371 94.146,161.092 94.425 M174.854 94.503 C 174.559 94.630,174.516 94.704,174.737 94.704 C 174.930 94.704,175.298 94.613,175.556 94.503 C 175.850 94.376,175.894 94.302,175.673 94.302 C 175.480 94.302,175.111 94.392,174.854 94.503 M183.125 94.751 L 182.573 95.232 183.275 94.822 C 184.198 94.281,184.212 94.269,183.925 94.269 C 183.789 94.269,183.429 94.486,183.125 94.751 M127.770 101.170 C 127.746 104.772,127.804 107.841,127.898 107.990 C 127.993 108.139,128.043 105.981,128.009 103.195 C 127.911 94.964,127.816 94.167,127.770 101.170 M131.829 95.047 C 131.087 95.590,131.550 96.381,132.589 96.343 L 133.450 96.313 132.634 96.168 C 131.666 95.996,131.444 95.397,132.213 95.027 C 132.507 94.885,132.637 94.761,132.501 94.753 C 132.365 94.744,132.062 94.876,131.829 95.047 M155.738 96.269 C 155.955 96.854,156.163 97.241,156.201 97.129 C 156.276 96.904,155.610 95.205,155.447 95.205 C 155.390 95.205,155.521 95.683,155.738 96.269 M163.883 96.164 C 163.797 96.700,163.773 97.184,163.829 97.240 C 163.884 97.296,164.004 96.906,164.094 96.374 C 164.183 95.842,164.208 95.358,164.148 95.298 C 164.088 95.238,163.969 95.628,163.883 96.164 M172.487 95.544 C 172.328 95.956,172.557 96.376,172.938 96.371 C 173.118 96.368,173.101 96.294,172.890 96.160 C 172.710 96.047,172.628 95.785,172.707 95.579 C 172.786 95.373,172.798 95.205,172.734 95.205 C 172.670 95.205,172.558 95.358,172.487 95.544 M230.468 95.439 C 230.530 95.668,230.881 95.800,231.480 95.819 C 232.359 95.848,232.363 95.845,231.581 95.742 C 231.132 95.683,230.676 95.511,230.569 95.361 C 230.436 95.175,230.404 95.199,230.468 95.439 M252.223 96.257 C 252.225 96.772,252.273 96.955,252.329 96.664 C 252.385 96.373,252.383 95.952,252.324 95.728 C 252.266 95.505,252.220 95.743,252.223 96.257 M139.883 96.140 C 139.571 96.342,139.571 96.367,139.883 96.367 C 140.076 96.367,140.392 96.265,140.585 96.140 C 140.897 95.939,140.897 95.914,140.585 95.914 C 140.392 95.914,140.076 96.016,139.883 96.140 M141.915 96.185 C 142.196 96.321,142.588 96.761,142.787 97.163 C 142.985 97.566,143.150 97.726,143.153 97.520 C 143.159 97.052,142.117 95.901,141.707 95.922 C 141.540 95.931,141.634 96.049,141.915 96.185 M174.152 96.158 C 173.492 96.309,173.507 96.321,174.398 96.347 C 174.919 96.362,175.471 96.501,175.626 96.655 C 175.796 96.825,175.906 96.840,175.906 96.693 C 175.906 96.291,174.902 95.985,174.152 96.158 M186.032 96.772 C 185.747 97.068,185.599 97.310,185.703 97.310 C 185.931 97.310,186.782 96.400,186.646 96.303 C 186.593 96.265,186.317 96.476,186.032 96.772 M123.659 96.608 C 123.806 96.801,123.978 97.170,124.041 97.427 C 124.150 97.871,124.158 97.870,124.183 97.397 C 124.198 97.123,124.026 96.755,123.801 96.578 C 123.445 96.299,123.427 96.303,123.659 96.608 M133.713 97.544 C 133.904 98.854,134.036 99.041,134.032 97.992 C 134.030 97.553,133.923 97.035,133.794 96.842 C 133.631 96.597,133.607 96.808,133.713 97.544 M179.322 97.232 C 179.537 98.128,179.649 98.213,179.649 97.480 C 179.649 97.144,179.540 96.802,179.406 96.719 C 179.246 96.621,179.217 96.797,179.322 97.232 M137.782 97.474 C 137.305 98.081,137.288 98.305,137.356 103.181 C 137.434 108.775,137.567 109.283,138.925 109.205 L 139.532 109.170 138.906 109.074 C 137.711 108.891,137.661 108.649,137.661 103.030 C 137.661 98.242,137.696 97.788,138.106 97.335 C 138.352 97.064,138.491 96.842,138.416 96.842 C 138.341 96.842,138.056 97.126,137.782 97.474 M147.305 97.442 C 146.934 97.937,146.898 98.504,146.959 102.857 L 147.028 107.719 147.081 102.825 C 147.127 98.643,147.191 97.869,147.523 97.502 C 147.737 97.266,147.868 97.031,147.815 96.981 C 147.763 96.930,147.533 97.137,147.305 97.442 M182.157 97.836 C 181.384 98.799,180.737 99.793,181.205 99.298 C 181.742 98.731,183.178 96.842,183.072 96.842 C 183.008 96.842,182.596 97.289,182.157 97.836 M152.554 97.661 C 152.558 97.918,152.646 98.392,152.749 98.713 L 152.936 99.298 152.943 98.713 C 152.946 98.392,152.859 97.918,152.749 97.661 L 152.548 97.193 152.554 97.661 M160.161 98.018 C 160.076 98.336,160.018 99.070,160.032 99.649 C 160.056 100.673,160.063 100.663,160.262 99.298 C 160.479 97.808,160.420 97.051,160.161 98.018 M180.182 97.836 C 179.725 98.427,179.569 98.791,179.846 98.620 C 180.123 98.448,180.677 97.544,180.505 97.544 C 180.452 97.544,180.306 97.675,180.182 97.836 M252.465 98.596 C 252.466 99.240,252.512 99.475,252.566 99.120 C 252.619 98.764,252.618 98.238,252.562 97.950 C 252.507 97.662,252.463 97.953,252.465 98.596 M143.275 103.099 C 143.275 105.950,143.346 108.104,143.434 107.884 C 143.633 107.385,143.623 99.545,143.423 98.606 C 143.341 98.226,143.275 100.248,143.275 103.099 M256.016 101.333 C 256.011 103.301,256.071 104.100,256.178 103.509 C 256.385 102.365,256.383 99.496,256.176 98.760 C 256.092 98.464,256.020 99.622,256.016 101.333 M156.453 103.392 C 156.546 108.870,156.645 109.272,157.873 109.208 L 158.480 109.176 157.895 109.069 C 156.753 108.859,156.727 108.749,156.697 104.123 C 156.682 101.727,156.602 99.450,156.518 99.064 C 156.435 98.678,156.406 100.626,156.453 103.392 M163.597 101.053 C 163.597 102.532,163.635 103.137,163.682 102.398 C 163.728 101.658,163.728 100.447,163.682 99.708 C 163.635 98.968,163.597 99.573,163.597 101.053 M176.411 98.947 C 176.402 99.269,176.550 100.058,176.740 100.702 C 176.978 101.508,177.047 101.617,176.962 101.053 C 176.723 99.459,176.429 98.335,176.411 98.947 M124.303 102.573 C 124.303 104.374,124.340 105.080,124.384 104.142 C 124.429 103.203,124.429 101.730,124.384 100.867 C 124.339 100.004,124.302 100.772,124.303 102.573 M218.435 99.945 C 218.615 100.162,218.712 100.735,218.669 101.328 L 218.596 102.339 214.035 102.464 L 209.474 102.588 213.918 102.636 C 216.363 102.662,218.500 102.596,218.668 102.489 C 219.109 102.209,218.949 99.842,218.480 99.688 C 218.185 99.591,218.178 99.632,218.435 99.945 M243.613 101.705 C 243.606 102.867,243.672 103.491,243.765 103.158 C 243.978 102.403,243.989 100.583,243.785 100.067 C 243.697 99.847,243.620 100.584,243.613 101.705 M252.706 101.287 C 252.706 102.123,252.749 102.465,252.801 102.047 C 252.853 101.629,252.853 100.944,252.801 100.526 C 252.749 100.108,252.706 100.450,252.706 101.287 M180.197 100.715 C 180.120 100.915,180.161 101.415,180.289 101.826 C 180.512 102.543,180.520 102.529,180.494 101.462 C 180.466 100.270,180.416 100.144,180.197 100.715 M240.267 101.053 C 240.267 101.246,240.357 101.614,240.468 101.871 C 240.595 102.166,240.669 102.209,240.669 101.988 C 240.669 101.795,240.578 101.427,240.468 101.170 C 240.341 100.875,240.267 100.831,240.267 101.053 M160.016 102.943 C 160.025 103.512,160.121 104.187,160.228 104.444 C 160.346 104.727,160.373 104.356,160.296 103.509 C 160.143 101.819,159.994 101.516,160.016 102.943 M197.620 102.509 C 197.713 102.603,199.735 102.708,202.111 102.743 L 206.433 102.807 206.497 107.128 C 206.532 109.505,206.637 111.526,206.731 111.620 C 206.824 111.714,206.848 109.717,206.784 107.182 L 206.667 102.573 202.058 102.456 C 199.523 102.392,197.526 102.416,197.620 102.509 M176.606 103.214 C 175.922 104.243,175.869 104.434,176.460 103.743 C 176.981 103.133,177.214 102.690,177.015 102.690 C 176.982 102.690,176.798 102.926,176.606 103.214 M180.618 103.158 C 180.618 103.351,180.708 103.719,180.819 103.977 C 180.945 104.271,181.020 104.315,181.020 104.094 C 181.020 103.901,180.929 103.532,180.819 103.275 C 180.692 102.980,180.618 102.937,180.618 103.158 M252.468 104.094 C 252.468 104.801,252.512 105.091,252.565 104.737 C 252.619 104.383,252.619 103.804,252.565 103.450 C 252.512 103.096,252.468 103.386,252.468 104.094 M240.368 104.695 C 240.282 105.038,240.256 105.363,240.311 105.419 C 240.367 105.474,240.482 105.238,240.568 104.896 C 240.654 104.553,240.679 104.227,240.624 104.172 C 240.569 104.117,240.454 104.352,240.368 104.695 M175.027 105.383 C 174.346 106.434,174.503 106.433,175.306 105.380 C 175.649 104.930,175.846 104.563,175.743 104.564 C 175.640 104.566,175.318 104.934,175.027 105.383 M181.068 104.876 C 181.046 105.497,181.745 107.803,182.004 107.963 C 182.288 108.139,182.281 107.931,181.985 107.424 C 181.855 107.200,181.599 106.439,181.416 105.731 C 181.233 105.023,181.076 104.639,181.068 104.876 M163.794 105.146 C 163.796 105.404,163.878 105.930,163.977 106.316 C 164.137 106.946,164.156 106.958,164.160 106.433 C 164.162 106.111,164.080 105.585,163.977 105.263 C 163.830 104.805,163.790 104.780,163.794 105.146 M177.058 105.439 L 176.491 106.082 177.109 105.538 C 177.570 105.134,177.759 105.074,177.851 105.305 C 177.933 105.510,177.981 105.476,177.993 105.205 C 178.020 104.621,177.712 104.698,177.058 105.439 M160.471 105.634 C 160.473 105.880,160.582 106.240,160.712 106.433 C 160.886 106.689,160.908 106.594,160.793 106.082 C 160.601 105.222,160.467 105.035,160.471 105.634 M252.227 106.433 C 252.227 107.012,252.273 107.249,252.329 106.959 C 252.385 106.670,252.385 106.196,252.329 105.906 C 252.273 105.617,252.227 105.854,252.227 106.433 M183.624 106.959 L 182.643 108.187 183.666 107.063 C 184.855 105.758,185.928 105.658,185.255 106.916 C 185.122 107.165,185.065 107.368,185.130 107.368 C 185.573 107.368,185.757 106.329,185.365 106.042 C 184.746 105.589,184.698 105.614,183.624 106.959 M178.032 106.316 C 178.025 106.573,178.121 106.942,178.246 107.135 C 178.546 107.600,178.546 107.015,178.246 106.316 L 178.045 105.848 178.032 106.316 M117.926 107.050 C 117.906 107.681,118.037 108.174,118.304 108.465 C 118.529 108.710,118.612 108.762,118.487 108.581 C 118.363 108.399,118.193 107.763,118.109 107.166 L 117.957 106.082 117.926 107.050 M133.833 107.135 C 133.768 108.125,133.247 108.877,132.508 109.046 L 131.813 109.206 132.491 109.164 C 133.377 109.110,134.110 108.153,133.972 107.229 C 133.881 106.614,133.868 106.605,133.833 107.135 M230.256 106.846 C 230.108 106.940,230.598 107.018,231.345 107.018 C 232.092 107.018,232.582 106.940,232.434 106.846 C 232.285 106.751,231.795 106.674,231.345 106.674 C 230.895 106.674,230.405 106.751,230.256 106.846 M238.596 107.681 C 238.146 108.217,237.988 108.497,238.245 108.304 C 239.097 107.663,239.955 106.654,239.619 106.686 C 239.507 106.697,239.047 107.145,238.596 107.681 M241.770 107.544 C 241.393 107.987,240.552 108.708,239.902 109.145 C 238.566 110.045,238.603 110.243,239.946 109.381 C 240.870 108.788,242.730 106.968,242.558 106.824 C 242.502 106.778,242.147 107.102,241.770 107.544 M160.952 107.296 C 160.943 107.578,161.041 107.874,161.170 107.953 C 161.446 108.124,161.446 107.895,161.170 107.251 C 160.976 106.800,160.968 106.802,160.952 107.296 M124.008 107.625 C 123.968 108.386,123.303 109.006,122.525 109.006 C 121.829 109.006,121.292 109.548,121.487 110.056 C 121.603 110.357,122.277 110.401,126.016 110.356 L 130.409 110.303 126.007 110.234 C 121.984 110.171,121.612 110.130,121.682 109.761 C 121.731 109.501,122.019 109.331,122.488 109.286 C 123.425 109.194,124.284 108.302,124.145 107.567 C 124.045 107.040,124.039 107.042,124.008 107.625 M229.396 107.290 C 228.625 108.061,229.562 109.913,231.033 110.527 C 231.906 110.892,236.207 111.003,237.020 110.682 C 237.246 110.592,236.258 110.559,234.824 110.608 C 230.842 110.744,229.327 110.025,229.512 108.086 C 229.562 107.563,229.591 107.135,229.577 107.135 C 229.563 107.135,229.481 107.205,229.396 107.290 M152.515 108.145 C 152.319 108.555,151.905 108.954,151.579 109.048 C 150.996 109.217,150.996 109.217,151.555 109.170 C 152.136 109.121,153.103 108.066,152.952 107.648 C 152.904 107.518,152.708 107.742,152.515 108.145 M169.637 107.883 C 169.104 108.416,169.297 109.861,169.973 110.392 C 170.582 110.871,172.248 111.074,172.481 110.697 C 172.542 110.599,172.179 110.557,171.673 110.605 C 169.983 110.766,168.790 108.964,169.871 107.883 C 170.026 107.729,170.099 107.602,170.035 107.602 C 169.971 107.602,169.792 107.729,169.637 107.883 M251.842 107.962 C 251.762 108.171,251.705 108.518,251.716 108.733 C 251.727 108.947,251.829 108.812,251.942 108.433 C 252.163 107.695,252.085 107.329,251.842 107.962 M147.135 108.216 C 147.135 108.688,148.024 109.279,148.577 109.173 C 149.079 109.078,149.072 109.067,148.493 109.038 C 148.134 109.020,147.706 108.782,147.499 108.486 C 147.298 108.200,147.135 108.078,147.135 108.216 M174.026 109.249 C 173.441 109.887,173.026 110.409,173.102 110.409 C 173.247 110.409,174.418 109.189,174.953 108.480 C 175.521 107.727,175.099 108.078,174.026 109.249 M113.450 108.647 C 113.129 108.829,112.569 109.040,112.207 109.117 C 111.692 109.226,111.565 109.369,111.622 109.774 C 111.729 110.524,120.519 110.601,120.663 109.853 C 120.765 109.322,120.325 109.004,119.532 109.037 C 119.004 109.059,119.015 109.076,119.646 109.211 C 120.046 109.296,120.379 109.535,120.424 109.768 C 120.496 110.144,120.161 110.175,116.140 110.175 C 112.113 110.175,111.785 110.144,111.856 109.766 C 111.901 109.532,112.184 109.327,112.517 109.287 C 112.837 109.249,113.363 109.014,113.684 108.766 C 114.373 108.234,114.272 108.183,113.450 108.647 M161.404 108.391 C 161.404 108.644,162.333 110.409,162.466 110.409 C 162.530 110.409,162.357 109.962,162.081 109.415 C 161.539 108.340,161.404 108.135,161.404 108.391 M183.275 109.423 C 182.678 110.109,182.551 110.341,182.924 110.064 C 183.611 109.554,184.683 108.294,184.404 108.326 C 184.297 108.338,183.789 108.832,183.275 109.423 M128.552 108.881 C 128.802 109.070,129.222 109.228,129.485 109.232 C 129.749 109.236,130.112 109.371,130.293 109.532 C 130.572 109.781,130.574 109.763,130.311 109.415 C 130.141 109.190,129.757 109.006,129.459 109.006 C 129.161 109.006,128.851 108.901,128.772 108.772 C 128.692 108.643,128.508 108.538,128.363 108.538 C 128.217 108.538,128.302 108.693,128.552 108.881 M142.795 108.754 C 142.673 108.873,142.265 109.004,141.889 109.046 C 141.513 109.088,141.179 109.257,141.147 109.421 C 141.114 109.585,141.141 109.611,141.207 109.480 C 141.272 109.348,141.620 109.240,141.979 109.240 C 142.339 109.240,142.764 109.082,142.924 108.889 C 143.243 108.505,143.151 108.408,142.795 108.754 M235.709 108.849 C 236.146 108.975,236.702 108.975,237.078 108.849 C 237.598 108.676,237.467 108.638,236.342 108.638 C 235.141 108.638,235.064 108.664,235.709 108.849 M131.541 109.708 L 131.579 110.292 135.673 110.292 C 139.761 110.292,139.766 110.292,139.797 109.762 C 139.823 109.322,139.811 109.312,139.722 109.704 C 139.547 110.484,131.783 110.431,131.615 109.649 C 131.516 109.185,131.507 109.192,131.541 109.708 M149.349 109.659 L 149.512 110.196 145.304 110.127 C 142.990 110.089,141.145 110.137,141.205 110.234 C 141.444 110.619,149.478 110.436,149.629 110.043 C 149.706 109.841,149.639 109.552,149.478 109.399 C 149.249 109.181,149.221 109.236,149.349 109.659 M253.946 109.992 C 253.734 110.414,253.286 111.129,252.949 111.579 L 252.337 112.398 253.069 111.579 C 253.817 110.742,254.575 109.467,254.418 109.310 C 254.370 109.262,254.157 109.569,253.946 109.992 M150.469 109.942 C 150.549 110.236,151.221 110.294,154.639 110.301 L 158.713 110.310 154.747 110.237 C 151.957 110.185,150.720 110.079,150.577 109.877 C 150.430 109.670,150.400 109.688,150.469 109.942 M165.658 111.164 C 165.955 111.708,166.936 112.897,167.836 113.807 C 168.737 114.718,168.947 114.886,168.304 114.181 C 167.661 113.476,167.003 112.752,166.842 112.573 C 166.682 112.394,166.277 111.781,165.943 111.212 C 165.169 109.891,164.940 109.853,165.658 111.164 M179.780 110.519 C 180.256 110.879,181.881 111.006,182.072 110.697 C 182.133 110.599,181.762 110.558,181.247 110.607 C 180.732 110.656,180.193 110.579,180.050 110.436 C 179.907 110.293,179.685 110.175,179.558 110.175 C 179.430 110.175,179.530 110.330,179.780 110.519 M164.293 112.982 C 165.101 114.015,165.518 114.417,166.440 115.055 C 166.693 115.231,166.498 115.002,166.005 114.547 C 165.513 114.092,164.741 113.317,164.290 112.825 L 163.470 111.930 164.293 112.982 M248.237 113.953 C 247.429 114.739,246.803 115.419,246.847 115.463 C 246.891 115.507,247.602 114.861,248.427 114.029 C 250.329 112.110,250.189 112.055,248.237 113.953 M250.760 113.971 C 249.924 114.761,249.556 115.186,249.942 114.916 C 250.620 114.441,252.601 112.504,252.387 112.525 C 252.328 112.531,251.596 113.181,250.760 113.971 M167.019 115.494 C 167.025 116.056,168.944 116.770,169.326 116.351 C 169.682 115.960,169.680 115.953,169.297 116.242 C 168.944 116.507,168.754 116.464,167.952 115.933 C 167.438 115.593,167.018 115.395,167.019 115.494 M247.843 116.153 C 247.589 116.345,247.221 116.440,247.024 116.366 C 246.764 116.267,246.736 116.300,246.923 116.489 C 247.202 116.770,248.421 116.361,248.421 115.986 C 248.421 115.731,248.390 115.740,247.843 116.153 M151.111 119.745 C 150.740 119.851,151.096 119.906,152.083 119.897 C 152.939 119.889,153.518 119.806,153.369 119.711 C 153.041 119.502,151.906 119.519,151.111 119.745 M148.947 120.602 C 148.465 120.918,148.070 121.240,148.070 121.317 C 148.070 121.394,148.360 121.268,148.713 121.036 C 149.067 120.804,149.620 120.476,149.942 120.308 C 150.263 120.140,150.368 120.008,150.175 120.015 C 149.982 120.022,149.430 120.286,148.947 120.602 M154.503 120.368 C 154.889 120.569,155.421 120.910,155.686 121.127 C 155.951 121.343,155.802 121.178,155.355 120.760 C 154.908 120.342,154.375 120.001,154.172 120.001 C 153.968 120.002,154.117 120.167,154.503 120.368 M150.585 122.270 C 150.874 122.326,151.348 122.326,151.637 122.270 C 151.927 122.215,151.690 122.169,151.111 122.169 C 150.532 122.169,150.295 122.215,150.585 122.270 M149.149 122.865 C 148.827 123.155,148.365 123.760,148.123 124.211 C 147.586 125.207,146.488 125.556,146.770 124.640 C 147.121 123.501,147.139 122.963,146.796 123.860 C 146.136 125.584,147.409 126.168,148.199 124.503 C 148.428 124.020,148.924 123.336,149.303 122.982 C 150.125 122.214,149.988 122.110,149.149 122.865 M153.513 123.285 C 153.707 123.612,153.917 124.085,153.981 124.337 C 154.095 124.784,154.098 124.784,154.120 124.327 C 154.132 124.070,153.921 123.596,153.651 123.275 L 153.161 122.690 153.513 123.285 M156.842 124.444 C 156.842 125.320,156.919 125.916,157.014 125.767 C 157.108 125.619,157.186 125.023,157.186 124.444 C 157.186 123.865,157.108 123.270,157.014 123.122 C 156.919 122.973,156.842 123.568,156.842 124.444 M154.052 126.120 C 153.964 126.785,153.688 127.751,153.439 128.266 C 153.190 128.782,153.024 129.242,153.071 129.289 C 153.118 129.336,153.375 128.909,153.643 128.341 C 154.096 127.375,154.590 124.912,154.329 124.912 C 154.265 124.912,154.140 125.456,154.052 126.120 M114.854 125.859 C 114.598 126.032,114.692 126.054,115.205 125.939 C 116.065 125.747,116.251 125.613,115.653 125.618 C 115.406 125.620,115.047 125.728,114.854 125.859 M117.141 125.978 C 117.427 126.178,117.669 126.521,117.679 126.738 C 117.692 127.003,117.738 127.033,117.820 126.829 C 117.955 126.492,117.268 125.614,116.871 125.614 C 116.733 125.614,116.855 125.778,117.141 125.978 M119.740 126.725 C 118.995 127.549,118.513 128.187,118.635 128.187 C 118.688 128.187,119.127 127.713,119.611 127.135 C 120.577 125.979,120.664 125.703,119.740 126.725 M137.951 127.135 C 138.217 127.520,138.731 128.099,139.093 128.421 C 139.531 128.809,139.450 128.652,138.849 127.953 C 137.623 126.525,137.377 126.301,137.951 127.135 M139.649 126.755 C 139.649 127.027,142.061 129.129,142.206 128.983 C 142.264 128.925,142.072 128.711,141.781 128.507 C 141.489 128.302,140.890 127.775,140.450 127.335 C 140.009 126.894,139.649 126.633,139.649 126.755 M122.745 127.508 C 122.450 127.831,122.149 127.922,121.692 127.825 C 121.141 127.708,121.112 127.727,121.479 127.960 C 121.999 128.288,123.275 127.848,123.275 127.340 C 123.275 126.943,123.256 126.949,122.745 127.508 M118.022 127.778 C 118.110 128.067,118.278 128.407,118.395 128.533 C 118.513 128.658,118.491 128.422,118.346 128.006 C 118.050 127.157,117.776 126.963,118.022 127.778 M115.582 128.655 C 115.572 128.977,115.665 129.398,115.789 129.591 C 116.078 130.037,116.078 129.557,115.789 128.655 L 115.602 128.070 115.582 128.655 M155.128 129.154 C 154.829 129.523,154.671 129.821,154.778 129.817 C 154.995 129.809,155.881 128.662,155.754 128.553 C 155.709 128.514,155.428 128.785,155.128 129.154 M142.456 129.228 C 142.456 129.292,142.772 129.508,143.158 129.708 C 143.544 129.907,143.860 130.018,143.860 129.954 C 143.860 129.889,143.544 129.673,143.158 129.474 C 142.772 129.274,142.456 129.163,142.456 129.228 M124.133 129.747 C 123.762 130.117,124.058 131.696,124.498 131.696 C 124.636 131.696,124.614 131.549,124.446 131.347 C 124.287 131.155,124.203 130.682,124.260 130.295 C 124.372 129.534,124.367 129.512,124.133 129.747 M152.514 129.727 C 152.513 129.845,151.914 130.626,151.182 131.462 C 150.450 132.298,150.197 132.667,150.620 132.281 C 151.688 131.305,152.834 129.832,152.660 129.658 C 152.580 129.578,152.514 129.609,152.514 129.727 M116.064 131.006 C 116.042 131.591,115.893 132.223,115.733 132.409 C 115.564 132.606,115.620 132.591,115.865 132.374 C 116.185 132.091,116.265 131.749,116.196 130.971 L 116.105 129.942 116.064 131.006 M153.333 131.228 C 152.700 131.871,152.264 132.398,152.365 132.398 C 152.466 132.398,152.672 132.260,152.824 132.091 C 152.975 131.923,153.462 131.397,153.906 130.922 C 155.100 129.643,154.666 129.875,153.333 131.228 M118.850 131.930 C 118.858 132.123,118.954 132.491,119.064 132.749 L 119.265 133.216 119.278 132.749 C 119.285 132.491,119.189 132.123,119.064 131.930 C 118.863 131.618,118.839 131.618,118.850 131.930 M132.105 131.871 C 139.866 131.941,140.063 131.973,138.922 133.005 C 138.651 133.250,138.215 133.766,137.953 134.152 C 137.691 134.538,137.961 134.327,138.552 133.684 C 140.464 131.606,140.732 131.688,132.222 131.751 L 124.795 131.806 132.105 131.871 M141.754 132.544 C 141.175 132.998,140.667 133.492,140.625 133.643 C 140.574 133.829,140.612 133.838,140.742 133.671 C 140.849 133.535,141.451 133.035,142.080 132.560 C 142.710 132.085,143.131 131.701,143.016 131.708 C 142.901 131.715,142.333 132.091,141.754 132.544 M151.276 133.519 C 149.871 134.957,149.995 135.041,153.336 134.930 C 155.691 134.851,156.340 134.755,156.661 134.434 C 156.880 134.214,156.940 134.035,156.795 134.035 C 156.649 134.035,156.490 134.157,156.440 134.305 C 156.339 134.609,151.636 134.899,150.968 134.642 C 150.623 134.510,150.697 134.351,151.470 133.559 C 151.968 133.049,152.323 132.632,152.259 132.632 C 152.194 132.632,151.752 133.031,151.276 133.519 M157.183 133.499 C 156.911 133.857,156.913 133.875,157.193 133.626 C 157.689 133.183,158.083 133.274,158.209 133.860 C 158.309 134.326,158.318 134.320,158.284 133.804 C 158.237 133.094,157.619 132.923,157.183 133.499 M114.200 134.402 C 113.682 135.201,113.626 135.225,112.612 135.073 C 111.406 134.892,110.643 135.358,110.643 136.277 C 110.643 137.255,112.646 138.278,113.105 137.534 C 113.203 137.377,113.043 137.345,112.649 137.443 C 111.843 137.646,110.877 137.012,110.877 136.281 C 110.877 135.440,111.421 135.128,112.582 135.302 C 113.445 135.431,113.656 135.377,114.057 134.919 C 114.877 133.984,115.151 133.567,114.941 133.570 C 114.829 133.572,114.495 133.946,114.200 134.402 M116.678 133.848 C 116.833 134.002,116.959 134.336,116.959 134.589 C 116.959 134.842,117.024 134.983,117.104 134.904 C 117.335 134.673,116.979 133.567,116.674 133.567 C 116.464 133.567,116.465 133.635,116.678 133.848 M148.793 134.000 C 148.612 134.212,148.035 134.860,147.511 135.439 C 146.810 136.212,146.925 136.137,147.946 135.155 C 148.710 134.420,149.287 133.772,149.229 133.716 C 149.170 133.660,148.975 133.788,148.793 134.000 M120.983 134.514 C 120.819 134.777,120.451 135.086,120.167 135.201 C 119.690 135.393,119.686 135.409,120.117 135.411 C 120.374 135.412,120.830 135.103,121.129 134.724 C 121.428 134.345,121.585 134.035,121.478 134.035 C 121.370 134.035,121.148 134.250,120.983 134.514 M122.105 134.899 C 122.105 135.031,121.663 135.654,121.122 136.283 C 120.581 136.912,120.434 137.164,120.794 136.842 C 121.646 136.082,122.429 134.983,122.248 134.801 C 122.169 134.723,122.105 134.767,122.105 134.899 M114.269 136.374 C 113.766 136.889,113.437 137.310,113.536 137.310 C 113.636 137.310,113.842 137.174,113.993 137.007 C 115.644 135.193,115.822 134.783,114.269 136.374 M118.508 137.591 C 118.655 137.828,119.327 137.826,119.704 137.587 C 119.876 137.478,119.670 137.404,119.193 137.404 C 118.753 137.404,118.445 137.488,118.508 137.591 " stroke="none" fill="#a0a0a0" fill-rule="evenodd"></path><path id="path3" d="M243.609 86.280 C 243.600 86.621,243.514 87.111,243.417 87.368 C 243.309 87.657,243.380 87.613,243.601 87.251 C 243.990 86.618,244.081 85.940,243.801 85.767 C 243.705 85.708,243.618 85.938,243.609 86.280 M167.758 88.286 C 166.199 90.002,164.933 91.696,165.209 91.696 C 165.269 91.696,165.613 91.249,165.973 90.702 C 166.333 90.155,167.311 88.997,168.148 88.128 C 168.984 87.260,169.624 86.515,169.571 86.472 C 169.517 86.430,168.702 87.246,167.758 88.286 M235.097 86.487 C 234.530 86.594,233.940 87.152,233.926 87.596 C 233.921 87.721,234.082 87.589,234.282 87.304 C 234.626 86.812,234.816 86.783,237.733 86.770 C 239.430 86.763,241.240 86.679,241.754 86.585 C 242.350 86.475,241.416 86.407,239.181 86.396 C 237.251 86.387,235.413 86.428,235.097 86.487 M112.749 87.028 C 112.492 87.202,112.587 87.223,113.099 87.109 C 113.960 86.916,114.146 86.782,113.548 86.787 C 113.301 86.789,112.942 86.898,112.749 87.028 M117.768 96.374 C 117.768 101.713,117.798 103.898,117.836 101.228 C 117.874 98.558,117.874 94.190,117.836 91.520 C 117.798 88.851,117.768 91.035,117.768 96.374 M123.899 86.940 C 123.470 87.369,124.166 89.360,124.743 89.353 C 124.943 89.351,124.951 89.298,124.772 89.178 C 124.294 88.859,123.936 87.913,124.078 87.347 C 124.223 86.771,124.175 86.663,123.899 86.940 M166.647 87.619 L 165.731 88.455 166.725 87.697 C 167.634 87.005,167.855 86.784,167.641 86.784 C 167.598 86.784,167.151 87.160,166.647 87.619 M127.523 87.749 C 127.479 88.744,127.083 89.137,125.894 89.369 L 125.029 89.537 125.776 89.564 C 126.915 89.605,127.784 88.751,127.659 87.715 L 127.560 86.901 127.523 87.749 M248.481 88.472 C 249.330 89.321,250.193 90.341,250.398 90.739 C 250.604 91.137,250.826 91.462,250.891 91.462 C 251.381 91.462,248.811 88.263,247.668 87.449 C 247.266 87.162,247.632 87.623,248.481 88.472 M112.012 88.012 C 112.130 88.130,112.476 88.188,112.780 88.140 C 113.248 88.066,113.215 88.033,112.566 87.925 C 112.101 87.848,111.883 87.883,112.012 88.012 M250.750 88.713 C 251.720 89.746,251.930 89.932,251.930 89.756 C 251.930 89.719,251.430 89.219,250.819 88.645 L 249.708 87.602 250.750 88.713 M114.018 88.555 C 114.221 88.757,114.394 89.099,114.404 89.315 C 114.415 89.537,114.472 89.586,114.537 89.428 C 114.679 89.077,114.218 88.187,113.893 88.187 C 113.760 88.187,113.816 88.353,114.018 88.555 M164.794 89.124 C 164.186 89.796,164.456 89.871,165.096 89.208 C 165.390 88.904,165.538 88.655,165.425 88.655 C 165.311 88.655,165.028 88.866,164.794 89.124 M234.736 89.826 C 234.502 90.084,234.372 90.356,234.446 90.431 C 234.521 90.505,234.698 90.350,234.840 90.085 C 235.080 89.636,235.341 89.598,238.660 89.532 L 242.222 89.461 238.691 89.409 C 235.417 89.361,235.129 89.391,234.736 89.826 M114.726 98.480 C 114.726 103.304,114.757 105.278,114.795 102.865 C 114.833 100.453,114.833 96.506,114.795 94.094 C 114.757 91.681,114.726 93.655,114.726 98.480 M163.710 90.468 C 162.968 91.364,162.701 91.779,162.972 91.617 C 163.270 91.437,164.310 90.058,164.146 90.058 C 164.093 90.058,163.897 90.243,163.710 90.468 M207.064 90.807 C 206.867 91.005,206.784 92.347,206.784 95.349 C 206.784 98.026,206.694 99.654,206.544 99.729 C 206.412 99.794,206.438 99.821,206.602 99.788 C 206.826 99.743,206.930 98.627,207.018 95.302 L 207.135 90.877 208.304 90.739 L 209.474 90.600 208.409 90.563 C 207.824 90.543,207.219 90.653,207.064 90.807 M253.216 91.930 C 253.416 92.316,253.632 92.632,253.696 92.632 C 253.761 92.632,253.650 92.316,253.450 91.930 C 253.251 91.544,253.035 91.228,252.970 91.228 C 252.906 91.228,253.017 91.544,253.216 91.930 M233.684 91.856 C 233.684 92.262,234.258 92.621,235.110 92.746 L 235.906 92.864 235.088 92.616 C 234.637 92.480,234.137 92.197,233.977 91.987 C 233.816 91.778,233.684 91.719,233.684 91.856 M164.716 92.525 C 164.324 93.385,164.399 93.568,164.823 92.786 C 165.021 92.421,165.139 92.079,165.086 92.025 C 165.032 91.972,164.866 92.196,164.716 92.525 M231.617 92.525 C 231.225 93.385,231.300 93.568,231.724 92.786 C 231.921 92.421,232.040 92.079,231.986 92.025 C 231.933 91.972,231.766 92.196,231.617 92.525 M161.988 93.099 C 161.789 93.485,161.678 93.801,161.742 93.801 C 161.807 93.801,162.023 93.485,162.222 93.099 C 162.422 92.713,162.532 92.398,162.468 92.398 C 162.404 92.398,162.188 92.713,161.988 93.099 M230.862 94.192 C 230.565 94.973,230.656 95.488,231.111 95.612 C 231.412 95.694,231.414 95.675,231.125 95.474 C 230.853 95.284,230.837 95.079,231.045 94.403 C 231.343 93.430,231.210 93.276,230.862 94.192 M127.589 100.819 C 127.589 104.743,127.621 106.348,127.660 104.386 C 127.699 102.424,127.699 99.213,127.660 97.251 C 127.621 95.289,127.589 96.895,127.589 100.819 M139.825 94.169 C 138.918 94.661,139.020 94.831,139.942 94.362 C 140.823 93.914,140.979 93.798,140.682 93.811 C 140.564 93.816,140.178 93.977,139.825 94.169 M145.406 95.088 C 145.763 95.602,146.134 96.116,146.229 96.230 C 146.324 96.344,147.051 95.949,147.844 95.353 C 148.637 94.757,149.206 94.269,149.109 94.269 C 149.011 94.269,148.355 94.704,147.650 95.236 C 146.537 96.077,146.342 96.153,146.155 95.820 C 146.037 95.609,145.674 95.147,145.348 94.794 C 144.795 94.195,144.799 94.215,145.406 95.088 M175.789 94.497 C 175.504 94.616,175.840 94.643,176.651 94.567 C 177.962 94.442,177.987 94.452,178.463 95.232 C 178.729 95.667,178.946 95.906,178.946 95.763 C 178.950 94.638,177.166 93.923,175.789 94.497 M183.743 94.603 C 183.357 94.776,182.567 95.430,181.988 96.055 L 180.936 97.193 182.105 96.095 C 183.808 94.497,185.108 94.108,186.063 94.912 C 186.549 95.321,186.549 95.321,186.104 94.795 C 185.599 94.199,184.789 94.133,183.743 94.603 M240.717 95.220 C 241.304 95.791,242.022 96.573,242.313 96.959 C 242.604 97.345,242.764 97.503,242.668 97.310 C 242.298 96.561,241.103 95.190,240.393 94.699 C 239.843 94.318,239.928 94.454,240.717 95.220 M138.129 95.301 C 137.639 95.693,137.375 95.780,137.255 95.592 C 137.127 95.390,137.082 95.392,137.080 95.600 C 137.072 96.161,137.487 96.105,138.266 95.438 C 139.227 94.617,139.119 94.508,138.129 95.301 M173.584 95.157 C 173.143 95.376,172.742 95.713,172.692 95.906 C 172.620 96.189,172.663 96.183,172.916 95.874 C 173.088 95.664,173.700 95.327,174.276 95.125 C 174.851 94.924,175.111 94.759,174.854 94.759 C 174.596 94.759,174.025 94.938,173.584 95.157 M122.003 95.574 C 121.480 96.097,121.754 96.374,122.792 96.374 C 124.302 96.374,124.327 96.479,124.327 102.600 C 124.327 105.599,124.399 107.872,124.486 107.652 C 124.737 107.022,124.704 98.216,124.449 97.325 C 124.168 96.346,123.881 96.149,122.735 96.144 C 121.787 96.140,121.749 95.803,122.656 95.437 C 123.031 95.286,123.059 95.231,122.765 95.220 C 122.549 95.211,122.206 95.371,122.003 95.574 M131.739 95.614 C 131.793 95.901,132.061 96.036,132.633 96.064 C 133.441 96.104,133.442 96.102,132.749 95.934 C 132.363 95.840,132.073 95.638,132.105 95.484 C 132.137 95.330,132.051 95.205,131.913 95.205 C 131.775 95.205,131.696 95.389,131.739 95.614 M163.659 95.956 C 163.580 96.250,163.526 96.807,163.539 97.193 C 163.556 97.677,163.624 97.535,163.758 96.733 C 163.962 95.510,163.903 95.044,163.659 95.956 M139.964 95.852 C 139.815 95.946,140.252 96.023,140.935 96.023 C 141.617 96.023,142.127 95.944,142.068 95.848 C 141.930 95.623,140.319 95.626,139.964 95.852 M149.159 95.848 C 149.099 95.944,149.576 95.986,150.220 95.941 C 150.875 95.895,151.504 95.972,151.648 96.116 C 151.790 96.258,152.011 96.374,152.138 96.374 C 152.266 96.374,152.166 96.220,151.916 96.031 C 151.447 95.676,149.351 95.537,149.159 95.848 M174.035 95.919 C 173.781 96.092,173.917 96.117,174.534 96.011 C 175.249 95.888,175.443 95.950,175.762 96.406 C 175.970 96.703,176.140 96.834,176.140 96.696 C 176.140 95.939,174.756 95.428,174.035 95.919 M233.002 95.756 C 233.056 95.802,233.468 95.907,233.918 95.989 C 234.494 96.095,234.633 96.072,234.386 95.910 C 234.069 95.702,232.770 95.557,233.002 95.756 M255.244 96.257 C 255.241 96.515,255.328 96.936,255.439 97.193 C 255.695 97.789,255.695 97.174,255.439 96.374 C 255.288 95.904,255.250 95.881,255.244 96.257 M252.566 97.427 C 252.638 98.199,252.735 98.874,252.781 98.928 C 252.945 99.117,252.817 97.186,252.627 96.608 C 252.508 96.245,252.485 96.555,252.566 97.427 M178.951 96.745 C 178.953 96.991,179.061 97.351,179.192 97.544 C 179.365 97.800,179.387 97.705,179.272 97.193 C 179.080 96.333,178.946 96.146,178.951 96.745 M133.918 102.456 C 133.918 105.648,133.997 108.211,134.094 108.151 C 134.190 108.091,134.269 105.529,134.269 102.456 C 134.269 99.384,134.190 96.821,134.094 96.761 C 133.997 96.702,133.918 99.264,133.918 102.456 M137.705 97.264 L 137.076 97.920 137.076 102.890 C 137.076 107.966,137.278 109.246,138.076 109.236 C 138.276 109.234,138.285 109.181,138.105 109.061 C 137.419 108.603,137.310 107.755,137.310 102.894 L 137.310 97.920 137.939 97.264 C 138.284 96.903,138.514 96.608,138.450 96.608 C 138.386 96.608,138.050 96.903,137.705 97.264 M182.210 97.485 L 181.404 98.363 182.267 97.570 C 183.029 96.870,183.236 96.793,184.022 96.920 C 184.631 97.018,184.801 96.992,184.561 96.839 C 183.831 96.373,183.029 96.594,182.210 97.485 M160.390 98.461 C 160.304 99.285,160.277 100.004,160.331 100.058 C 160.476 100.203,160.769 97.629,160.649 97.269 C 160.593 97.100,160.476 97.636,160.390 98.461 M143.301 97.895 C 143.493 98.755,143.627 98.942,143.622 98.343 C 143.620 98.096,143.512 97.737,143.381 97.544 C 143.208 97.288,143.186 97.382,143.301 97.895 M146.823 97.700 C 146.609 97.913,146.631 107.652,146.846 107.990 C 146.940 108.138,147.018 105.849,147.018 102.902 C 147.018 99.955,147.009 97.544,146.998 97.544 C 146.987 97.544,146.908 97.614,146.823 97.700 M152.933 102.863 C 152.999 108.072,152.993 108.146,152.465 108.748 L 151.930 109.357 152.573 108.790 L 153.216 108.223 153.216 103.014 C 153.216 100.149,153.137 97.756,153.041 97.697 C 152.944 97.637,152.896 99.962,152.933 102.863 M255.727 98.480 C 255.727 98.930,255.775 99.114,255.834 98.889 C 255.893 98.664,255.893 98.295,255.834 98.070 C 255.775 97.845,255.727 98.029,255.727 98.480 M156.082 102.690 C 156.068 105.327,156.128 107.667,156.215 107.888 C 156.303 108.110,156.346 106.425,156.311 104.145 C 156.216 97.948,156.111 97.280,156.082 102.690 M180.108 98.374 C 179.868 98.663,179.769 98.675,179.615 98.432 C 179.479 98.219,179.421 98.211,179.419 98.407 C 179.412 98.912,179.813 98.944,180.239 98.474 C 180.469 98.220,180.601 98.012,180.533 98.012 C 180.464 98.012,180.273 98.175,180.108 98.374 M176.641 99.181 C 176.641 99.374,176.732 99.743,176.842 100.000 C 176.969 100.295,177.043 100.338,177.043 100.117 C 177.043 99.924,176.953 99.556,176.842 99.298 C 176.715 99.003,176.641 98.960,176.641 99.181 M243.339 99.883 C 243.339 100.462,243.384 100.699,243.440 100.409 C 243.496 100.120,243.496 99.646,243.440 99.357 C 243.384 99.067,243.339 99.304,243.339 99.883 M255.977 101.053 C 255.977 101.760,256.020 102.050,256.074 101.696 C 256.128 101.342,256.128 100.763,256.074 100.409 C 256.020 100.056,255.977 100.345,255.977 101.053 M179.963 100.715 C 179.886 100.915,179.925 101.415,180.049 101.826 C 180.266 102.541,180.275 102.526,180.255 101.463 C 180.232 100.273,180.182 100.144,179.963 100.715 M197.486 101.170 C 197.488 101.684,197.536 101.867,197.592 101.576 C 197.648 101.285,197.646 100.864,197.588 100.641 C 197.529 100.417,197.483 100.655,197.486 101.170 M218.469 101.170 L 218.363 102.105 213.937 102.222 C 210.613 102.310,209.497 102.413,209.452 102.637 C 209.419 102.801,209.445 102.828,209.511 102.696 C 209.585 102.546,211.214 102.455,213.879 102.453 C 218.680 102.449,218.780 102.421,218.661 101.146 L 218.576 100.234 218.469 101.170 M177.169 101.916 C 177.183 102.500,177.279 102.811,177.405 102.686 C 177.532 102.561,177.522 102.167,177.381 101.706 L 177.144 100.936 177.169 101.916 M243.434 101.874 C 243.349 102.387,243.292 103.175,243.307 103.626 C 243.324 104.139,243.409 103.877,243.534 102.924 C 243.756 101.237,243.677 100.403,243.434 101.874 M202.105 102.446 L 206.667 102.573 206.794 107.135 L 206.921 111.696 206.911 107.018 L 206.901 102.339 202.222 102.329 L 197.544 102.319 202.105 102.446 M160.289 103.158 C 160.289 103.480,160.370 104.058,160.468 104.444 C 160.627 105.070,160.646 105.083,160.646 104.561 C 160.646 104.240,160.566 103.661,160.468 103.275 C 160.309 102.649,160.289 102.636,160.289 103.158 M255.715 103.899 C 255.691 104.500,255.612 105.184,255.538 105.419 C 255.412 105.821,255.420 105.822,255.668 105.437 C 255.813 105.210,255.893 104.526,255.844 103.916 L 255.757 102.807 255.715 103.899 M175.673 104.912 C 175.274 105.491,175.001 105.965,175.065 105.965 C 175.130 105.965,175.508 105.491,175.906 104.912 C 176.305 104.333,176.578 103.860,176.514 103.860 C 176.449 103.860,176.071 104.333,175.673 104.912 M180.618 104.094 C 180.618 104.287,180.708 104.655,180.819 104.912 C 180.945 105.207,181.020 105.250,181.020 105.029 C 181.020 104.836,180.929 104.468,180.819 104.211 C 180.692 103.916,180.618 103.872,180.618 104.094 M252.669 104.474 C 252.648 104.876,252.579 105.560,252.515 105.994 L 252.399 106.784 252.645 105.999 C 252.781 105.567,252.850 104.883,252.799 104.479 L 252.706 103.743 252.669 104.474 M240.729 104.250 C 240.714 104.400,240.634 104.716,240.550 104.952 C 240.433 105.284,240.464 105.320,240.689 105.113 C 240.849 104.965,240.929 104.650,240.868 104.411 C 240.806 104.172,240.744 104.100,240.729 104.250 M163.525 105.049 C 163.534 105.488,163.633 106.058,163.744 106.316 C 163.875 106.617,163.899 106.366,163.812 105.614 C 163.651 104.223,163.502 103.929,163.525 105.049 M177.490 104.620 C 177.021 104.983,175.377 107.151,175.487 107.261 C 175.532 107.305,175.983 106.769,176.490 106.069 C 176.998 105.368,177.548 104.795,177.712 104.795 C 177.877 104.795,178.012 104.690,178.012 104.561 C 178.012 104.259,177.946 104.266,177.490 104.620 M184.298 106.374 C 184.008 106.743,184.016 106.753,184.376 106.471 C 184.814 106.128,185.365 106.313,185.114 106.719 C 185.018 106.874,185.066 106.905,185.238 106.799 C 185.454 106.666,185.456 106.548,185.246 106.295 C 184.886 105.862,184.686 105.879,184.298 106.374 M117.692 107.063 C 117.669 107.790,117.797 108.187,118.187 108.595 C 118.477 108.898,118.560 108.950,118.372 108.710 C 118.184 108.471,117.961 107.782,117.877 107.179 L 117.723 106.082 117.692 107.063 M173.893 107.259 C 173.367 107.842,173.043 108.284,173.174 108.240 C 173.412 108.161,175.110 106.199,174.941 106.199 C 174.891 106.199,174.419 106.676,173.893 107.259 M239.766 106.628 C 239.766 106.778,239.319 107.342,238.772 107.882 C 237.988 108.655,237.932 108.755,238.507 108.355 C 239.300 107.804,240.119 106.708,239.902 106.490 C 239.827 106.416,239.766 106.478,239.766 106.628 M183.213 107.609 C 182.793 107.991,182.536 108.304,182.643 108.304 C 182.749 108.304,183.139 107.988,183.509 107.602 C 184.369 106.705,184.203 106.709,183.213 107.609 M230.663 106.985 C 230.716 107.031,231.234 107.132,231.813 107.209 C 232.516 107.302,232.710 107.279,232.398 107.141 C 231.951 106.943,230.460 106.809,230.663 106.985 M184.453 107.739 C 184.236 108.071,183.685 108.781,183.230 109.318 C 182.611 110.046,182.677 110.004,183.491 109.148 C 184.491 108.098,185.188 107.135,184.947 107.135 C 184.893 107.135,184.671 107.406,184.453 107.739 M114.404 107.671 C 114.394 107.902,114.117 108.361,113.788 108.690 C 113.459 109.018,113.321 109.244,113.481 109.190 C 113.949 109.035,114.687 107.914,114.549 107.568 C 114.464 107.354,114.417 107.388,114.404 107.671 M240.702 108.344 C 240.089 108.901,239.942 109.102,240.351 108.827 C 240.997 108.392,242.069 107.355,241.849 107.378 C 241.797 107.384,241.281 107.818,240.702 108.344 M143.088 108.678 C 142.857 108.987,142.753 109.240,142.857 109.240 C 143.061 109.240,143.706 108.305,143.583 108.187 C 143.542 108.148,143.320 108.369,143.088 108.678 M235.400 109.060 C 235.757 109.286,237.135 109.290,237.273 109.064 C 237.332 108.968,236.874 108.888,236.254 108.888 C 235.635 108.887,235.251 108.964,235.400 109.060 M229.993 109.598 C 230.343 109.966,230.671 110.221,230.722 110.163 C 230.774 110.106,230.487 109.804,230.086 109.494 L 229.357 108.929 229.993 109.598 M111.969 109.396 C 111.733 109.632,111.782 110.175,112.039 110.175 C 112.164 110.175,112.209 110.027,112.139 109.845 C 112.065 109.651,112.188 109.469,112.439 109.404 C 112.762 109.321,112.776 109.287,112.495 109.267 C 112.291 109.252,112.055 109.310,111.969 109.396 M119.723 109.487 C 120.062 109.622,120.202 109.814,120.098 109.998 C 119.970 110.224,120.000 110.229,120.226 110.020 C 120.620 109.656,120.329 109.236,119.694 109.255 C 119.185 109.269,119.185 109.271,119.723 109.487 M121.718 109.601 C 121.642 109.799,121.645 110.027,121.725 110.108 C 121.806 110.188,121.871 110.085,121.871 109.880 C 121.871 109.674,122.108 109.461,122.398 109.405 L 122.924 109.303 122.390 109.272 C 122.097 109.254,121.794 109.402,121.718 109.601 M138.875 109.391 C 139.156 109.452,139.440 109.680,139.504 109.897 C 139.589 110.182,139.609 110.161,139.575 109.825 C 139.543 109.507,139.340 109.344,138.945 109.318 C 138.457 109.286,138.445 109.298,138.875 109.391 M148.465 109.391 C 148.747 109.452,149.030 109.680,149.095 109.897 C 149.180 110.182,149.200 110.161,149.165 109.825 C 149.133 109.507,148.931 109.344,148.536 109.318 C 148.047 109.286,148.036 109.298,148.465 109.391 M170.605 110.463 C 170.961 110.690,172.339 110.693,172.477 110.468 C 172.537 110.371,172.078 110.292,171.459 110.291 C 170.840 110.291,170.456 110.368,170.605 110.463 M180.198 110.464 C 180.346 110.559,180.731 110.636,181.053 110.636 C 181.374 110.636,181.759 110.559,181.907 110.464 C 182.056 110.370,181.671 110.292,181.053 110.292 C 180.434 110.292,180.049 110.370,180.198 110.464 M231.462 110.409 C 231.719 110.520,232.193 110.607,232.515 110.604 L 233.099 110.597 232.515 110.409 C 232.193 110.306,231.719 110.219,231.462 110.215 L 230.994 110.208 231.462 110.409 M236.140 110.409 C 235.544 110.665,236.159 110.665,236.959 110.409 C 237.429 110.259,237.452 110.221,237.076 110.215 C 236.819 110.211,236.398 110.299,236.140 110.409 M165.542 111.360 C 166.109 112.323,167.719 114.260,167.719 113.980 C 167.719 113.857,167.510 113.567,167.254 113.336 C 166.998 113.104,166.461 112.404,166.060 111.779 C 165.260 110.532,164.867 110.215,165.542 111.360 M207.544 111.740 C 207.769 111.799,208.137 111.799,208.363 111.740 C 208.588 111.681,208.404 111.633,207.953 111.633 C 207.503 111.633,207.319 111.681,207.544 111.740 M250.994 113.401 C 250.029 114.392,249.503 114.985,249.825 114.718 C 250.633 114.048,251.720 112.989,252.387 112.222 C 253.439 111.014,252.751 111.596,250.994 113.401 M248.787 113.637 C 247.428 115.145,247.364 115.248,248.396 114.269 C 249.455 113.263,250.714 111.789,250.484 111.824 C 250.443 111.830,249.679 112.646,248.787 113.637 M163.743 112.120 C 163.743 112.160,164.078 112.502,164.488 112.880 L 165.233 113.567 164.663 112.820 C 164.179 112.185,163.743 111.853,163.743 112.120 M165.848 114.249 C 166.918 115.455,168.672 116.498,169.177 116.228 C 169.711 115.943,169.380 115.265,168.404 114.644 C 168.035 114.409,168.118 114.553,168.640 115.054 C 170.489 116.827,168.518 116.363,166.348 114.514 C 165.641 113.912,165.467 113.819,165.848 114.249 M248.194 115.684 C 247.747 115.999,247.484 116.257,247.609 116.256 C 247.734 116.256,248.152 115.996,248.538 115.680 C 249.439 114.941,249.243 114.944,248.194 115.684 M151.345 119.980 C 150.956 120.092,151.270 120.150,152.281 120.155 C 153.309 120.160,153.612 120.106,153.216 119.988 C 152.486 119.769,152.087 119.768,151.345 119.980 M154.172 120.302 C 154.225 120.339,154.690 120.663,155.205 121.020 L 156.140 121.671 155.330 120.953 C 154.885 120.557,154.420 120.234,154.297 120.234 C 154.175 120.234,154.118 120.264,154.172 120.302 M153.571 123.107 C 153.797 123.465,154.040 123.698,154.112 123.627 C 154.184 123.555,153.999 123.262,153.701 122.976 L 153.160 122.456 153.571 123.107 M156.585 124.444 C 156.585 126.167,156.612 126.300,156.786 125.439 C 156.898 124.886,156.898 124.003,156.786 123.450 C 156.612 122.589,156.585 122.722,156.585 124.444 M146.901 124.191 C 146.901 124.310,146.837 124.573,146.759 124.776 C 146.681 124.980,146.710 125.146,146.825 125.146 C 146.939 125.146,147.054 124.883,147.081 124.561 C 147.107 124.240,147.078 123.977,147.015 123.977 C 146.952 123.977,146.901 124.073,146.901 124.191 M154.269 125.614 C 154.269 126.505,154.341 127.054,154.428 126.833 C 154.515 126.613,154.587 126.064,154.587 125.614 C 154.587 125.164,154.515 124.615,154.428 124.395 C 154.341 124.174,154.269 124.723,154.269 125.614 M138.037 125.673 C 138.094 125.705,138.875 126.415,139.772 127.251 L 141.404 128.772 139.890 127.193 C 139.057 126.325,138.277 125.614,138.155 125.614 C 138.033 125.614,137.980 125.640,138.037 125.673 M114.854 126.082 C 114.384 126.232,114.361 126.271,114.737 126.276 C 114.994 126.280,115.415 126.192,115.673 126.082 C 116.269 125.826,115.654 125.826,114.854 126.082 M113.497 126.596 C 113.048 127.046,113.169 127.254,113.860 127.220 C 114.431 127.191,114.443 127.176,113.963 127.085 C 113.526 127.001,113.476 126.918,113.699 126.649 C 114.035 126.244,113.887 126.206,113.497 126.596 M119.854 126.842 C 119.131 127.668,118.762 128.187,118.899 128.187 C 118.968 128.187,119.358 127.766,119.766 127.251 C 120.559 126.251,120.619 125.969,119.854 126.842 M138.469 127.424 C 138.879 127.969,139.313 128.475,139.432 128.549 C 139.552 128.622,139.649 128.885,139.649 129.133 C 139.649 129.568,139.377 129.587,132.222 129.651 L 124.795 129.717 132.281 129.712 C 140.940 129.707,140.783 129.758,138.799 127.602 C 137.804 126.522,137.779 126.508,138.469 127.424 M117.670 127.518 C 117.655 128.131,118.480 129.032,118.712 128.657 C 118.840 128.451,118.812 128.405,118.628 128.518 C 118.455 128.625,118.229 128.401,118.016 127.911 C 117.831 127.484,117.675 127.307,117.670 127.518 M119.721 128.363 C 119.309 128.842,119.000 129.357,119.123 129.357 C 119.171 129.357,119.444 129.041,119.729 128.655 C 120.293 127.892,120.288 127.703,119.721 128.363 M141.698 128.938 C 141.974 129.271,143.860 130.393,143.860 130.225 C 143.860 130.172,143.314 129.789,142.647 129.375 C 141.981 128.960,141.554 128.764,141.698 128.938 M153.450 128.803 C 153.450 128.928,152.907 129.708,152.244 130.538 C 151.580 131.368,151.273 131.838,151.562 131.583 C 152.334 130.901,153.763 128.890,153.595 128.722 C 153.516 128.642,153.450 128.679,153.450 128.803 M124.241 130.421 C 124.186 131.700,124.159 131.696,132.211 131.696 C 140.399 131.696,140.350 131.686,139.123 133.084 L 138.596 133.684 139.249 133.108 C 140.893 131.658,140.609 131.592,132.164 131.462 L 124.561 131.345 124.417 130.526 C 124.273 129.714,124.272 129.713,124.241 130.421 M152.994 131.333 L 151.953 132.515 153.100 131.412 C 153.730 130.805,154.199 130.273,154.141 130.230 C 154.083 130.186,153.567 130.683,152.994 131.333 M144.094 130.643 C 144.094 130.836,144.008 130.994,143.904 130.994 C 143.800 130.994,143.511 131.157,143.261 131.356 C 142.860 131.676,142.896 131.676,143.567 131.350 C 144.190 131.049,144.650 130.292,144.211 130.292 C 144.146 130.292,144.094 130.450,144.094 130.643 M116.315 131.180 C 116.323 131.622,116.417 131.864,116.534 131.746 C 116.652 131.629,116.646 131.300,116.521 130.975 C 116.316 130.446,116.303 130.459,116.315 131.180 M118.600 131.832 C 118.602 132.079,118.711 132.439,118.841 132.632 C 119.015 132.888,119.036 132.793,118.922 132.281 C 118.729 131.421,118.595 131.234,118.600 131.832 M115.919 133.977 L 115.528 134.620 116.009 134.068 C 116.288 133.748,116.638 133.573,116.842 133.652 C 117.035 133.726,117.193 133.685,117.193 133.560 C 117.193 133.073,116.290 133.368,115.919 133.977 M119.088 133.754 C 119.065 134.274,119.655 135.673,119.897 135.673 C 119.963 135.673,119.889 135.436,119.734 135.146 C 119.578 134.857,119.375 134.304,119.282 133.918 C 119.143 133.345,119.108 133.315,119.088 133.754 M157.427 133.593 C 157.137 133.801,157.152 133.821,157.514 133.703 C 157.869 133.587,157.924 133.649,157.806 134.032 C 157.447 135.198,157.430 135.492,157.765 134.768 C 158.351 133.501,158.214 133.026,157.427 133.593 M114.394 134.528 C 113.684 135.411,113.552 135.478,112.776 135.354 C 112.191 135.260,112.038 135.287,112.281 135.442 C 113.121 135.978,113.844 135.598,115.070 133.977 C 115.699 133.143,115.139 133.600,114.394 134.528 M139.164 134.645 C 138.852 134.981,138.386 135.343,138.129 135.449 C 137.800 135.585,137.769 135.647,138.024 135.658 C 138.224 135.666,138.745 135.304,139.181 134.854 C 139.618 134.404,139.920 134.035,139.853 134.035 C 139.786 134.035,139.475 134.310,139.164 134.645 M147.870 135.308 C 146.697 136.548,146.412 137.076,146.914 137.076 C 147.051 137.076,147.097 136.971,147.018 136.842 C 146.938 136.714,147.421 136.030,148.091 135.322 C 148.760 134.614,149.255 134.035,149.191 134.035 C 149.126 134.035,148.532 134.608,147.870 135.308 M150.331 134.191 C 149.478 135.044,154.691 135.819,155.944 135.026 C 156.093 134.931,154.894 134.889,153.280 134.932 C 150.402 135.009,150.347 135.001,150.472 134.523 C 150.608 134.004,150.581 133.941,150.331 134.191 M120.981 136.060 C 120.555 136.643,120.311 137.056,120.437 136.978 C 120.814 136.745,122.161 134.970,121.949 134.985 C 121.842 134.993,121.406 135.477,120.981 136.060 M111.095 135.702 C 110.543 136.734,111.669 137.740,112.882 137.298 C 113.194 137.185,113.052 137.132,112.426 137.128 C 111.187 137.121,110.711 136.339,111.479 135.572 C 111.681 135.370,111.737 135.205,111.604 135.205 C 111.471 135.205,111.242 135.429,111.095 135.702 M114.048 136.333 L 113.358 137.193 114.223 136.387 C 115.117 135.554,115.211 135.427,114.912 135.455 C 114.816 135.465,114.427 135.860,114.048 136.333 M117.661 136.305 C 117.661 136.846,118.785 137.489,119.466 137.337 C 120.077 137.202,120.063 137.188,119.243 137.121 C 118.669 137.073,118.248 136.875,118.015 136.542 C 117.820 136.264,117.661 136.157,117.661 136.305 " stroke="none" fill="#7c7c7c" fill-rule="evenodd"></path><path id="path4" d="M209.454 95.205 C 209.454 97.585,209.489 98.558,209.531 97.368 C 209.573 96.178,209.573 94.231,209.531 93.041 C 209.489 91.851,209.454 92.825,209.454 95.205 M137.130 94.737 C 137.130 95.187,137.178 95.371,137.237 95.146 C 137.296 94.921,137.296 94.553,137.237 94.327 C 137.178 94.102,137.130 94.287,137.130 94.737 M197.583 99.805 C 197.497 99.891,197.429 100.075,197.430 100.214 C 197.433 100.369,197.505 100.356,197.616 100.181 C 197.747 99.976,199.026 99.874,202.116 99.824 L 206.433 99.755 202.086 99.702 C 199.695 99.673,197.669 99.719,197.583 99.805 M211.871 99.823 C 213.061 99.866,215.009 99.866,216.199 99.823 C 217.389 99.781,216.415 99.746,214.035 99.746 C 211.655 99.746,210.681 99.781,211.871 99.823 M156.353 103.743 C 156.353 105.930,156.388 106.856,156.431 105.801 C 156.474 104.746,156.475 102.956,156.432 101.824 C 156.389 100.692,156.353 101.556,156.353 103.743 M160.054 101.287 C 160.054 101.737,160.102 101.921,160.161 101.696 C 160.220 101.471,160.220 101.102,160.161 100.877 C 160.102 100.652,160.054 100.836,160.054 101.287 M209.453 107.018 C 209.454 109.333,209.489 110.249,209.531 109.052 C 209.574 107.856,209.574 105.961,209.531 104.842 C 209.488 103.723,209.453 104.702,209.453 107.018 M124.270 106.550 C 124.272 107.064,124.320 107.247,124.376 106.956 C 124.432 106.665,124.430 106.244,124.371 106.021 C 124.313 105.797,124.267 106.035,124.270 106.550 M149.286 137.250 C 150.406 137.293,152.300 137.293,153.497 137.250 C 154.694 137.208,153.778 137.173,151.462 137.173 C 149.146 137.172,148.167 137.207,149.286 137.250 " stroke="none" fill="#848484" fill-rule="evenodd"></path></g></svg>