<svg id="svg" version="1.1" xmlns="http://www.w3.org/2000/svg" xmlns:xlink="http://www.w3.org/1999/xlink" width="400" height="208.27250608272507" viewBox="0, 0, 400,208.27250608272507"><g id="svgg"><path id="path0" d="M198.291 61.144 C 196.973 61.605,196.682 61.825,195.282 63.419 C 194.884 63.873,194.617 65.833,194.953 65.833 C 195.071 65.833,195.269 65.543,195.393 65.188 C 196.206 62.854,200.087 62.099,201.877 63.927 C 202.945 65.016,203.507 66.783,203.163 67.969 C 203.022 68.456,202.786 69.285,202.638 69.811 C 202.491 70.337,202.258 70.899,202.122 71.061 C 201.985 71.222,201.532 71.870,201.114 72.500 C 200.218 73.853,200.381 73.666,197.583 76.563 C 196.366 77.823,195.100 79.195,194.770 79.611 L 194.170 80.369 194.637 80.494 C 195.426 80.706,204.998 80.641,205.408 80.421 C 205.846 80.187,206.250 79.170,206.250 78.302 C 206.250 77.913,206.358 77.708,206.563 77.708 C 206.744 77.708,206.875 77.520,206.875 77.260 L 206.875 76.811 206.508 77.235 C 205.250 78.684,198.119 79.129,198.130 77.756 C 198.134 77.189,198.270 77.017,201.215 73.825 C 203.077 71.808,204.020 70.660,204.319 70.047 C 204.471 69.735,204.728 69.250,204.890 68.969 C 205.320 68.223,205.481 66.137,205.228 64.583 C 204.762 61.727,201.396 60.058,198.291 61.144 M268.591 68.302 C 268.331 68.377,267.956 68.683,267.757 68.982 C 267.558 69.282,267.115 69.930,266.771 70.422 C 266.081 71.409,265.724 71.929,265.113 72.834 C 264.889 73.166,264.491 73.719,264.230 74.063 C 263.968 74.406,263.611 74.875,263.436 75.104 C 263.261 75.333,262.815 75.994,262.445 76.572 C 262.074 77.150,261.653 77.759,261.508 77.926 C 260.867 78.665,260.000 79.863,260.000 80.010 C 260.000 80.098,259.600 80.671,259.112 81.283 C 258.623 81.895,258.091 82.654,257.931 82.969 C 257.770 83.284,257.571 83.542,257.490 83.542 C 257.409 83.542,257.226 83.823,257.083 84.167 C 256.941 84.510,256.751 84.792,256.662 84.792 C 255.891 84.792,255.167 87.759,255.729 88.616 L 256.090 89.167 261.123 89.167 C 267.592 89.167,267.083 88.854,267.083 92.829 L 267.083 95.844 267.618 96.047 C 268.216 96.274,269.584 96.317,270.087 96.124 C 270.367 96.016,270.417 95.534,270.420 92.946 C 270.424 89.215,270.341 89.360,272.558 89.221 L 274.336 89.110 274.474 88.188 C 274.676 86.846,274.441 86.667,272.482 86.667 C 270.267 86.667,270.417 87.342,270.417 77.322 C 270.417 67.261,270.515 67.749,268.591 68.302 M276.667 68.498 C 276.667 68.588,277.324 69.315,278.127 70.112 C 280.414 72.383,280.224 72.133,281.453 74.479 C 281.693 74.938,282.025 75.547,282.192 75.833 C 282.358 76.120,282.495 76.562,282.497 76.815 C 282.499 77.069,282.706 77.772,282.958 78.378 C 283.605 79.931,283.679 91.563,283.052 93.125 C 282.846 93.641,282.590 94.477,282.484 94.984 C 282.378 95.491,282.142 96.070,281.959 96.272 C 281.624 96.643,281.109 97.507,280.547 98.646 C 280.377 98.990,280.067 99.419,279.859 99.600 C 279.650 99.782,279.182 100.250,278.819 100.642 C 278.456 101.034,277.821 101.664,277.407 102.042 C 276.663 102.723,276.595 103.125,277.225 103.125 C 277.615 103.125,279.178 102.183,279.991 101.458 C 281.580 100.042,282.603 98.994,283.043 98.333 C 283.310 97.932,283.858 97.135,284.261 96.563 C 284.664 95.990,284.995 95.416,284.997 95.289 C 284.999 95.161,285.175 94.833,285.389 94.559 C 285.603 94.286,285.884 93.568,286.013 92.963 C 286.142 92.358,286.413 91.612,286.614 91.305 C 287.225 90.372,287.150 81.696,286.519 80.487 C 286.271 80.010,286.003 79.260,285.924 78.820 C 285.845 78.381,285.664 77.880,285.521 77.708 C 285.378 77.536,285.149 77.046,285.011 76.617 C 284.874 76.189,284.665 75.780,284.547 75.707 C 284.429 75.634,284.200 75.257,284.038 74.870 C 283.877 74.483,283.658 74.167,283.553 74.167 C 283.448 74.167,283.303 73.981,283.231 73.755 C 283.018 73.085,281.796 71.743,280.061 70.275 C 279.168 69.519,278.363 68.773,278.271 68.617 C 278.096 68.319,276.667 68.213,276.667 68.498 M150.791 73.414 C 150.481 73.802,150.165 74.388,150.087 74.716 C 150.010 75.044,149.779 75.594,149.574 75.938 C 149.369 76.281,149.134 76.938,149.052 77.396 C 148.970 77.854,148.765 78.501,148.597 78.833 C 148.428 79.165,148.199 80.103,148.086 80.916 C 147.974 81.730,147.749 82.908,147.587 83.533 C 147.189 85.066,147.191 89.807,147.590 91.132 C 147.754 91.677,147.950 92.747,148.026 93.509 C 148.102 94.272,148.328 95.224,148.529 95.625 C 148.730 96.026,148.964 96.729,149.048 97.188 C 149.133 97.646,149.381 98.313,149.601 98.670 C 149.820 99.028,150.000 99.457,150.000 99.624 C 150.000 100.983,152.431 102.632,152.845 101.554 C 153.023 101.088,152.533 98.810,152.067 97.940 C 151.847 97.529,151.667 96.957,151.667 96.667 C 151.667 96.377,151.480 95.792,151.253 95.367 C 151.014 94.923,150.748 93.818,150.625 92.766 C 150.507 91.760,150.320 90.563,150.210 90.104 C 149.944 88.998,149.947 86.533,150.214 85.624 C 150.332 85.223,150.517 83.688,150.626 82.211 C 150.749 80.523,150.934 79.356,151.124 79.067 C 151.290 78.814,151.526 78.061,151.649 77.393 C 151.773 76.726,152.003 76.032,152.160 75.850 C 152.640 75.299,153.008 73.382,152.705 73.016 C 152.251 72.470,151.404 72.646,150.791 73.414 M266.979 80.150 C 266.979 84.784,266.921 86.049,266.693 86.322 C 266.291 86.806,258.532 86.844,258.133 86.364 C 257.769 85.925,258.849 83.542,259.412 83.542 C 259.506 83.542,259.583 83.406,259.583 83.240 C 259.583 83.074,259.818 82.685,260.104 82.376 C 260.391 82.067,260.625 81.747,260.625 81.665 C 260.625 81.504,261.661 80.108,262.183 79.566 C 262.357 79.384,262.500 79.171,262.500 79.092 C 262.500 78.942,263.698 77.151,264.136 76.647 C 264.276 76.486,264.769 75.761,265.232 75.037 C 266.036 73.778,266.093 73.733,266.526 74.021 C 266.973 74.318,266.979 74.397,266.979 80.150 M111.335 74.663 C 110.981 74.822,110.324 75.017,109.877 75.095 C 108.951 75.258,107.566 76.356,107.497 76.983 C 107.341 78.410,107.922 78.895,108.883 78.139 C 109.185 77.902,109.537 77.708,109.667 77.708 C 109.796 77.708,110.252 77.521,110.679 77.292 C 112.852 76.127,115.573 77.223,116.035 79.449 C 116.326 80.847,116.024 82.973,115.421 83.789 C 115.189 84.102,114.998 84.432,114.996 84.523 C 114.991 84.741,113.826 86.454,113.376 86.905 C 113.181 87.101,112.599 87.739,112.083 88.323 C 111.568 88.907,110.326 90.250,109.324 91.307 C 107.381 93.358,106.989 94.137,107.259 95.417 L 107.413 96.146 113.029 96.208 C 120.270 96.287,120.417 96.267,120.417 95.210 C 120.417 93.806,120.248 93.750,116.013 93.750 C 110.765 93.750,110.612 93.615,112.998 91.101 C 113.844 90.209,114.852 89.102,115.237 88.642 C 115.622 88.181,116.153 87.572,116.416 87.287 C 116.679 87.003,117.031 86.622,117.197 86.441 C 117.364 86.259,117.500 86.020,117.500 85.908 C 117.500 85.797,117.734 85.388,118.021 85.000 C 118.307 84.612,118.542 84.145,118.542 83.962 C 118.542 83.779,118.733 83.258,118.966 82.804 C 119.978 80.840,119.312 77.331,117.643 75.833 C 116.434 74.747,112.694 74.054,111.335 74.663 M161.042 74.610 C 160.755 74.724,160.088 74.911,159.560 75.024 C 158.195 75.317,157.083 76.372,157.083 77.372 C 157.083 78.360,157.724 78.385,159.479 77.465 C 163.146 75.544,166.299 77.353,165.633 80.996 C 165.480 81.836,164.508 83.125,164.028 83.125 C 163.875 83.125,163.750 83.210,163.750 83.313 C 163.750 83.669,162.433 83.958,160.810 83.958 C 158.959 83.958,158.600 84.242,158.840 85.516 L 158.967 86.197 161.294 86.348 C 164.090 86.529,164.227 86.576,165.534 87.793 L 166.563 88.751 166.563 90.277 C 166.563 92.473,165.811 93.350,163.405 93.962 C 162.146 94.282,159.438 93.822,158.109 93.062 C 156.909 92.376,156.233 93.210,156.797 94.680 C 157.296 95.980,165.171 96.941,166.085 95.813 C 166.233 95.631,166.649 95.365,167.009 95.224 C 168.076 94.806,169.005 93.449,169.513 91.566 L 169.963 89.896 169.485 88.524 C 168.962 87.022,168.281 86.199,167.176 85.738 C 166.141 85.305,166.287 84.484,167.624 83.231 C 169.274 81.683,169.163 77.585,167.427 75.959 C 166.200 74.810,162.498 74.028,161.042 74.610 M73.137 75.090 C 72.848 75.438,73.124 76.707,73.610 77.264 C 73.772 77.451,74.016 77.948,74.151 78.369 C 74.286 78.789,74.532 79.246,74.698 79.384 C 74.864 79.522,75.000 79.756,75.000 79.905 C 75.000 80.140,76.123 82.443,76.672 83.333 C 76.778 83.505,77.006 83.974,77.178 84.375 C 77.351 84.776,77.571 85.245,77.669 85.417 C 78.899 87.589,78.848 87.333,78.958 91.875 L 79.063 96.146 79.876 96.212 C 80.323 96.249,80.909 96.224,81.178 96.156 L 81.667 96.034 81.667 91.994 C 81.667 87.744,81.730 87.418,82.939 85.417 C 83.043 85.245,83.231 84.870,83.357 84.583 C 83.483 84.297,83.687 83.875,83.809 83.646 C 83.932 83.417,84.172 82.948,84.343 82.604 C 84.514 82.260,84.733 81.839,84.831 81.667 C 84.929 81.495,85.149 81.026,85.322 80.625 C 85.494 80.224,85.722 79.755,85.828 79.583 C 87.828 76.339,88.075 74.788,86.589 74.795 C 85.452 74.799,85.060 75.010,84.719 75.799 C 84.538 76.219,84.299 76.703,84.188 76.875 C 83.890 77.338,82.708 79.903,82.708 80.088 C 82.708 80.175,82.521 80.485,82.292 80.776 C 82.063 81.068,81.875 81.514,81.875 81.769 C 81.875 82.023,81.539 82.672,81.128 83.210 C 80.231 84.384,80.094 84.323,79.157 82.325 C 78.799 81.562,78.280 80.467,78.003 79.893 C 77.726 79.318,77.500 78.773,77.500 78.680 C 77.500 78.588,77.360 78.371,77.188 78.200 C 77.016 78.028,76.818 77.636,76.747 77.329 C 76.292 75.352,74.066 73.971,73.137 75.090 M178.229 78.054 C 177.885 78.096,177.229 78.310,176.771 78.530 C 176.313 78.751,175.773 78.981,175.573 79.043 C 174.724 79.301,175.285 79.583,176.648 79.583 C 178.462 79.583,179.023 80.101,179.244 81.976 C 179.320 82.628,179.530 83.445,179.709 83.792 C 179.889 84.139,180.088 85.110,180.151 85.949 C 180.276 87.601,180.307 87.531,178.176 90.493 C 177.918 90.852,177.477 91.474,177.197 91.875 C 175.894 93.739,175.359 94.028,173.815 93.699 C 171.800 93.270,170.989 93.889,171.426 95.522 C 172.003 97.680,175.780 96.180,177.865 92.964 C 178.065 92.655,178.370 92.244,178.542 92.051 C 178.714 91.857,179.223 91.220,179.674 90.635 C 180.319 89.799,180.545 89.629,180.732 89.838 C 181.030 90.172,182.002 93.155,182.181 94.286 C 182.435 95.888,183.675 96.665,185.371 96.283 C 186.659 95.994,187.439 95.269,188.556 93.323 C 188.736 93.010,189.047 92.590,189.247 92.390 C 189.447 92.190,189.532 91.949,189.437 91.854 C 189.132 91.549,188.417 91.885,188.051 92.505 C 186.794 94.633,185.055 94.147,184.690 91.565 C 184.609 90.994,184.423 90.291,184.275 90.003 C 184.128 89.715,183.945 89.057,183.869 88.542 C 183.793 88.026,183.633 87.163,183.513 86.623 C 183.247 85.423,183.459 84.690,184.493 83.229 C 184.898 82.656,185.420 81.887,185.651 81.520 C 186.196 80.654,186.611 80.521,188.750 80.521 L 190.521 80.521 190.584 79.426 C 190.643 78.394,190.613 78.318,190.063 78.108 C 189.353 77.836,187.360 78.048,187.138 78.419 C 187.050 78.564,186.826 78.768,186.639 78.873 C 186.266 79.081,184.473 81.214,183.881 82.153 C 183.276 83.113,182.157 81.560,181.777 79.234 C 181.581 78.032,180.740 77.752,178.229 78.054 M124.344 80.348 C 123.754 80.505,123.723 81.262,124.281 81.925 C 124.562 82.259,124.792 82.666,124.792 82.831 C 124.792 82.995,124.979 83.290,125.208 83.486 C 125.438 83.682,125.625 83.955,125.625 84.093 C 125.625 84.230,125.859 84.622,126.146 84.962 C 126.432 85.302,126.667 85.666,126.667 85.771 C 126.667 85.875,126.901 86.278,127.188 86.667 C 127.831 87.539,127.876 88.689,127.296 89.427 C 127.069 89.715,126.785 90.173,126.666 90.444 C 126.546 90.716,126.214 91.266,125.929 91.667 C 125.644 92.068,125.319 92.536,125.207 92.708 C 123.091 95.954,123.105 96.397,125.317 96.212 C 125.945 96.160,126.195 96.013,126.489 95.521 C 127.340 94.100,127.830 93.266,128.136 92.720 C 129.308 90.629,130.036 90.193,130.671 91.201 C 131.363 92.301,131.556 92.610,131.997 93.333 C 133.852 96.370,133.738 96.250,134.775 96.247 C 136.348 96.242,136.785 95.112,135.621 94.059 C 135.394 93.853,135.208 93.588,135.208 93.468 C 135.208 93.349,134.988 92.918,134.719 92.511 C 134.450 92.104,133.935 91.302,133.575 90.729 C 133.216 90.156,132.780 89.504,132.607 89.281 C 132.092 88.616,132.131 87.418,132.687 86.771 C 132.884 86.542,133.155 86.096,133.289 85.781 C 133.423 85.466,133.618 85.208,133.723 85.208 C 133.828 85.208,133.973 84.972,134.045 84.682 C 134.118 84.393,134.339 83.987,134.537 83.779 C 134.879 83.420,135.325 82.727,135.853 81.734 C 136.768 80.016,134.701 79.657,133.289 81.289 C 132.862 81.783,132.510 82.298,132.506 82.433 C 132.503 82.568,132.372 82.807,132.215 82.964 C 132.057 83.121,131.768 83.561,131.571 83.943 C 130.737 85.555,129.788 85.956,129.289 84.905 C 129.101 84.509,128.855 84.127,128.741 84.057 C 128.628 83.987,128.391 83.632,128.215 83.267 C 126.941 80.634,125.985 79.912,124.344 80.348 M90.683 82.645 C 90.303 83.225,90.299 83.869,90.671 84.323 C 90.898 84.599,101.782 84.717,103.082 84.457 C 104.199 84.233,104.193 82.695,103.073 82.305 C 102.684 82.169,100.227 82.083,96.745 82.083 L 91.051 82.083 90.683 82.645 M220.116 84.630 C 219.681 85.251,219.706 86.108,220.173 86.530 C 220.656 86.968,241.440 87.064,242.386 86.633 C 243.094 86.311,243.119 85.263,242.434 84.620 L 241.952 84.167 231.196 84.167 L 220.440 84.167 220.116 84.630 M90.677 88.888 C 90.534 88.946,90.417 89.249,90.417 89.561 C 90.417 90.828,90.375 90.820,96.771 90.845 C 103.976 90.874,104.259 90.811,103.869 89.256 L 103.742 88.750 97.340 88.766 C 93.819 88.775,90.820 88.830,90.677 88.888 " stroke="none" fill="#1a1a1a" fill-rule="evenodd"></path><path id="path1" d="M0.000 104.167 L 0.000 208.333 200.000 208.333 L 400.000 208.333 400.000 104.167 L 400.000 0.000 200.000 0.000 L 0.000 0.000 0.000 104.167 M202.111 60.312 C 203.259 60.489,205.625 62.531,205.625 63.345 C 205.625 63.580,205.823 64.207,206.065 64.738 C 206.547 65.796,206.506 67.106,205.965 67.970 C 205.804 68.227,205.609 68.794,205.533 69.230 C 205.456 69.665,205.262 70.073,205.101 70.134 C 204.939 70.196,204.745 70.449,204.670 70.696 C 204.501 71.245,201.835 74.406,200.034 76.191 C 198.437 77.774,198.422 77.764,202.139 77.673 L 204.934 77.604 205.784 76.719 C 206.757 75.705,207.226 75.604,207.418 76.367 C 207.606 77.118,207.375 78.590,207.028 78.847 C 206.868 78.965,206.674 79.382,206.596 79.772 C 206.337 81.083,206.547 81.042,200.096 81.042 C 192.489 81.042,192.461 81.028,194.911 78.431 C 198.764 74.345,201.250 71.427,201.250 70.989 C 201.250 70.861,201.437 70.557,201.666 70.313 C 202.146 69.803,202.441 67.346,202.209 65.798 C 201.742 62.685,196.926 62.817,195.826 65.973 C 195.541 66.790,194.318 67.468,193.842 67.073 C 193.411 66.716,193.474 65.418,193.958 64.688 C 194.186 64.344,194.373 63.902,194.374 63.706 C 194.374 63.510,194.544 63.182,194.750 62.977 C 194.956 62.772,195.290 62.342,195.490 62.022 C 195.691 61.701,196.108 61.332,196.417 61.200 C 196.726 61.069,197.151 60.817,197.361 60.641 C 197.981 60.121,199.972 59.984,202.111 60.312 M270.509 67.546 C 270.790 67.947,270.833 69.151,270.833 76.488 C 270.833 86.442,270.684 85.625,272.506 85.625 C 273.746 85.625,274.015 85.698,274.619 86.195 C 275.575 86.980,275.573 86.976,275.467 88.190 C 275.342 89.611,275.075 89.792,273.102 89.792 C 270.678 89.792,270.833 89.565,270.833 93.106 C 270.833 96.745,270.879 96.667,268.748 96.667 C 266.432 96.667,266.476 96.735,266.410 93.021 L 266.354 89.896 260.950 89.840 C 254.474 89.773,254.792 89.896,254.792 87.469 C 254.792 86.062,254.849 85.801,255.208 85.577 C 255.438 85.434,255.625 85.198,255.625 85.054 C 255.625 84.910,255.808 84.609,256.031 84.386 C 256.254 84.163,256.584 83.694,256.765 83.344 C 256.946 82.995,257.184 82.708,257.293 82.708 C 257.403 82.708,257.552 82.471,257.624 82.182 C 257.697 81.893,257.933 81.561,258.149 81.446 C 258.365 81.330,258.542 81.111,258.542 80.959 C 258.542 80.708,259.312 79.576,260.058 78.731 C 260.218 78.549,260.706 77.823,261.142 77.117 C 261.578 76.411,262.017 75.833,262.118 75.833 C 262.219 75.833,262.396 75.622,262.510 75.365 C 262.773 74.774,263.523 73.684,264.840 71.979 C 265.106 71.635,265.454 71.096,265.613 70.781 C 265.773 70.466,265.970 70.208,266.052 70.208 C 266.133 70.208,266.316 69.927,266.458 69.583 C 266.601 69.240,266.797 68.958,266.894 68.958 C 266.991 68.958,267.193 68.723,267.344 68.436 C 267.957 67.265,269.925 66.712,270.509 67.546 M278.363 67.892 C 279.183 68.201,282.980 71.852,283.481 72.813 C 283.660 73.156,283.934 73.512,284.091 73.604 C 284.247 73.696,284.375 73.908,284.375 74.075 C 284.375 74.242,284.562 74.539,284.790 74.735 C 285.019 74.930,285.314 75.419,285.447 75.821 C 285.579 76.222,285.806 76.669,285.950 76.813 C 286.094 76.957,286.279 77.475,286.362 77.965 C 286.444 78.454,286.678 79.067,286.882 79.327 C 287.146 79.663,287.296 80.369,287.402 81.778 C 287.483 82.866,287.626 83.803,287.719 83.861 C 288.098 84.095,288.170 86.268,287.847 87.761 C 287.668 88.592,287.431 90.004,287.321 90.900 C 287.211 91.796,286.982 92.687,286.812 92.879 C 286.643 93.072,286.440 93.619,286.362 94.096 C 286.284 94.573,286.039 95.126,285.818 95.326 C 285.597 95.526,285.415 95.839,285.413 96.022 C 285.405 96.733,284.314 98.118,281.788 100.625 C 278.201 104.184,276.592 104.890,276.172 103.089 C 276.057 102.599,276.266 102.303,277.909 100.622 C 279.702 98.787,280.084 98.256,281.020 96.302 C 281.253 95.815,281.531 95.417,281.639 95.417 C 281.746 95.417,281.898 94.831,281.976 94.115 C 282.054 93.398,282.298 92.458,282.517 92.025 C 283.117 90.842,283.124 81.020,282.527 79.835 C 282.312 79.410,282.071 78.437,281.991 77.673 C 281.899 76.797,281.740 76.243,281.559 76.173 C 281.402 76.113,281.159 75.684,281.020 75.219 C 280.881 74.755,280.693 74.375,280.602 74.375 C 280.511 74.375,280.259 73.977,280.042 73.490 C 279.821 72.995,278.851 71.802,277.844 70.786 C 275.934 68.860,275.851 68.699,276.374 67.951 C 276.707 67.476,277.221 67.461,278.363 67.892 M153.338 72.086 C 153.957 72.417,154.099 73.666,153.594 74.348 C 153.365 74.659,153.109 75.237,153.025 75.633 C 152.940 76.030,152.706 76.635,152.504 76.979 C 152.302 77.323,152.083 78.091,152.017 78.687 C 151.951 79.282,151.729 80.079,151.524 80.458 C 150.965 81.489,150.951 93.151,151.508 93.971 C 151.708 94.264,151.966 95.007,152.083 95.623 C 152.200 96.238,152.425 96.889,152.583 97.069 C 152.742 97.249,152.941 97.817,153.025 98.332 C 153.110 98.847,153.354 99.596,153.569 99.996 C 154.415 101.575,153.844 102.500,152.025 102.500 C 150.847 102.500,149.933 101.712,149.576 100.389 C 149.464 99.973,149.239 99.522,149.077 99.387 C 148.915 99.253,148.718 98.761,148.639 98.295 C 148.560 97.828,148.329 97.154,148.124 96.796 C 147.919 96.438,147.689 95.608,147.611 94.951 C 147.534 94.293,147.313 93.449,147.121 93.076 C 146.604 92.073,146.597 82.505,147.112 81.563 C 147.300 81.219,147.553 80.294,147.675 79.507 C 147.797 78.720,148.032 77.923,148.197 77.736 C 148.361 77.549,148.563 76.974,148.645 76.458 C 148.727 75.943,148.959 75.333,149.161 75.104 C 149.362 74.875,149.589 74.362,149.664 73.964 C 149.969 72.343,151.938 71.337,153.338 72.086 M75.154 73.881 C 75.701 74.027,76.948 75.682,77.166 76.551 C 77.249 76.883,77.499 77.386,77.721 77.668 C 77.943 77.950,78.125 78.343,78.125 78.542 C 78.125 78.740,78.307 79.133,78.529 79.415 C 78.751 79.698,78.997 80.203,79.077 80.537 C 79.156 80.872,79.386 81.333,79.588 81.563 C 79.790 81.792,80.022 82.295,80.104 82.681 L 80.253 83.384 80.625 82.551 C 80.830 82.093,81.102 81.654,81.228 81.576 C 81.355 81.498,81.458 81.223,81.458 80.966 C 81.458 80.708,81.693 80.180,81.979 79.792 C 82.266 79.403,82.500 78.929,82.500 78.738 C 82.500 78.546,82.673 78.166,82.885 77.893 C 83.097 77.619,83.338 77.115,83.422 76.771 C 83.506 76.427,83.716 75.988,83.890 75.796 C 84.063 75.603,84.361 75.137,84.551 74.760 C 85.028 73.812,86.752 73.430,87.910 74.016 C 88.614 74.373,88.931 75.496,88.471 76.005 C 88.283 76.212,88.020 76.703,87.886 77.097 C 87.752 77.490,87.469 78.036,87.258 78.309 C 87.047 78.583,86.875 78.981,86.875 79.195 C 86.875 79.408,86.697 79.761,86.480 79.979 C 86.262 80.196,86.019 80.669,85.940 81.030 C 85.861 81.390,85.630 81.845,85.427 82.040 C 85.225 82.236,84.993 82.670,84.912 83.004 C 84.832 83.339,84.584 83.844,84.362 84.126 C 84.140 84.409,83.958 84.814,83.958 85.028 C 83.958 85.242,83.794 85.585,83.594 85.790 C 82.664 86.742,82.292 88.641,82.292 92.433 C 82.292 96.692,82.304 96.667,80.312 96.667 C 78.310 96.667,78.333 96.719,78.333 92.217 C 78.333 88.833,78.288 88.333,77.917 87.604 C 77.688 87.155,77.500 86.616,77.500 86.408 C 77.500 86.199,77.364 85.976,77.198 85.913 C 77.031 85.849,76.785 85.453,76.650 85.034 C 76.516 84.614,76.289 84.130,76.146 83.958 C 76.003 83.786,75.776 83.302,75.641 82.881 C 75.506 82.461,75.262 82.006,75.099 81.871 C 74.936 81.735,74.744 81.313,74.673 80.931 C 74.601 80.549,74.420 80.190,74.271 80.133 C 74.122 80.076,73.883 79.671,73.741 79.233 C 73.598 78.796,73.307 78.214,73.095 77.941 C 72.882 77.667,72.708 77.282,72.708 77.083 C 72.708 76.885,72.521 76.484,72.292 76.193 C 71.794 75.561,71.764 75.043,72.189 74.436 C 72.600 73.849,74.035 73.581,75.154 73.881 M116.538 74.362 C 117.608 74.895,118.277 75.468,119.326 76.750 C 120.220 77.843,120.314 82.056,119.479 83.626 C 119.193 84.165,118.958 84.704,118.958 84.825 C 118.958 84.945,118.724 85.323,118.438 85.663 C 118.151 86.003,117.917 86.395,117.917 86.532 C 117.917 86.670,117.753 86.931,117.552 87.114 C 117.352 87.296,116.906 87.790,116.563 88.212 C 115.420 89.614,114.074 91.108,113.040 92.123 L 112.018 93.125 116.073 93.125 C 120.799 93.125,120.799 93.125,120.973 94.808 C 121.172 96.744,121.473 96.667,113.761 96.667 C 108.708 96.667,107.086 96.605,106.929 96.406 C 106.678 96.088,106.368 94.973,106.450 94.688 C 106.483 94.573,106.595 94.118,106.698 93.677 C 106.886 92.878,107.193 92.505,110.225 89.393 C 110.979 88.619,111.656 87.829,111.729 87.639 C 111.802 87.448,112.005 87.292,112.181 87.292 C 112.356 87.292,112.500 87.166,112.500 87.011 C 112.500 86.857,112.697 86.553,112.938 86.335 C 113.179 86.117,113.520 85.657,113.696 85.313 C 113.872 84.969,114.078 84.641,114.153 84.583 C 115.364 83.663,115.971 79.817,115.063 78.813 C 113.887 77.511,110.833 77.484,109.210 78.761 C 108.926 78.984,108.466 79.167,108.187 79.167 C 105.873 79.167,106.571 75.201,108.975 74.689 C 109.367 74.605,109.828 74.416,110.000 74.269 C 110.912 73.487,114.895 73.544,116.538 74.362 M165.594 73.979 C 165.955 74.105,166.250 74.282,166.250 74.373 C 166.250 74.464,166.496 74.600,166.798 74.676 C 167.359 74.816,168.542 75.854,168.542 76.206 C 168.542 76.314,168.749 76.666,169.002 76.988 C 169.601 77.749,169.796 81.028,169.293 81.875 C 169.123 82.161,168.845 82.693,168.676 83.056 C 168.507 83.419,168.173 83.821,167.934 83.949 C 167.395 84.238,167.348 85.166,167.865 85.354 C 168.318 85.518,169.578 86.702,169.581 86.966 C 169.582 87.073,169.794 87.385,170.052 87.660 C 171.589 89.296,169.776 95.033,167.501 95.734 C 167.215 95.822,166.874 96.040,166.744 96.218 C 166.292 96.836,162.105 97.132,159.474 96.732 C 157.201 96.386,155.625 95.066,155.625 93.508 C 155.625 92.130,157.727 91.677,159.170 92.744 C 159.715 93.147,160.062 93.205,161.989 93.216 L 164.186 93.229 165.114 92.233 C 166.121 91.153,166.478 89.321,165.737 89.037 C 165.570 88.972,165.375 88.739,165.305 88.519 C 165.235 88.298,164.837 87.975,164.419 87.801 C 164.002 87.627,163.590 87.370,163.505 87.232 C 163.403 87.067,162.567 86.954,161.102 86.908 C 158.588 86.828,158.417 86.753,158.243 85.665 C 157.961 83.906,158.209 83.667,160.518 83.477 C 162.050 83.351,162.700 83.206,163.084 82.904 C 163.367 82.682,163.729 82.500,163.889 82.500 C 164.049 82.500,164.240 82.343,164.314 82.151 C 164.387 81.960,164.619 81.631,164.828 81.422 C 165.308 80.942,165.337 79.443,164.878 78.788 C 164.030 77.577,161.681 76.834,161.061 77.581 C 160.929 77.740,160.415 77.973,159.919 78.098 C 159.422 78.222,158.898 78.467,158.754 78.642 C 158.605 78.820,158.156 78.958,157.724 78.958 C 155.465 78.958,156.240 75.097,158.587 74.655 C 158.963 74.584,159.411 74.411,159.583 74.269 C 159.755 74.128,160.036 73.961,160.208 73.898 C 160.786 73.685,164.931 73.748,165.594 73.979 M265.874 75.515 C 265.742 75.805,265.533 76.042,265.410 76.042 C 265.287 76.042,265.089 76.323,264.969 76.667 C 264.849 77.010,264.668 77.292,264.567 77.292 C 264.466 77.292,264.192 77.667,263.958 78.125 C 263.725 78.583,263.443 78.958,263.333 78.958 C 263.223 78.958,263.073 79.195,263.001 79.485 C 262.928 79.774,262.692 80.106,262.476 80.221 C 262.260 80.337,262.083 80.556,262.083 80.708 C 262.083 80.971,261.202 82.230,260.526 82.934 C 260.351 83.116,260.208 83.336,260.208 83.425 C 260.208 83.513,259.974 83.864,259.688 84.205 C 258.548 85.559,258.732 85.642,262.760 85.578 L 266.354 85.521 266.410 80.431 C 266.465 75.446,266.357 74.455,265.874 75.515 M181.233 77.418 C 181.602 77.603,181.999 78.001,182.115 78.304 C 182.231 78.607,182.506 79.201,182.726 79.625 C 182.945 80.048,183.125 80.629,183.125 80.914 C 183.125 81.648,183.504 81.794,183.747 81.153 C 183.860 80.857,184.094 80.560,184.268 80.493 C 184.441 80.427,184.583 80.272,184.583 80.150 C 184.583 78.687,188.633 76.726,190.215 77.424 C 192.517 78.439,191.186 82.145,188.847 81.231 C 187.456 80.687,186.597 81.285,184.704 84.113 C 184.009 85.151,183.985 87.544,184.658 88.572 C 184.852 88.868,185.070 89.755,185.142 90.544 C 185.240 91.610,185.406 92.154,185.789 92.659 L 186.304 93.339 187.004 92.659 C 187.389 92.285,187.705 91.866,187.706 91.727 C 187.710 91.313,189.296 90.925,189.681 91.245 C 190.384 91.828,190.010 92.951,188.594 94.505 C 188.336 94.788,188.125 95.075,188.125 95.144 C 188.125 95.403,186.758 96.662,186.475 96.664 C 186.312 96.666,186.010 96.819,185.804 97.006 C 184.730 97.977,182.017 96.802,181.766 95.256 C 181.697 94.829,181.459 94.094,181.237 93.623 C 181.015 93.152,180.832 92.402,180.830 91.956 C 180.825 90.644,180.577 90.515,179.884 91.465 C 179.547 91.927,179.083 92.529,178.854 92.803 C 178.625 93.077,178.203 93.642,177.917 94.058 C 175.499 97.572,172.043 98.403,170.736 95.785 C 169.977 94.263,171.816 92.051,173.149 92.884 C 173.927 93.369,175.368 93.187,175.768 92.552 C 175.966 92.237,176.347 91.698,176.614 91.354 C 176.882 91.010,177.241 90.542,177.412 90.313 C 177.583 90.083,178.001 89.531,178.341 89.086 C 178.680 88.640,178.958 88.199,178.958 88.104 C 178.958 88.010,179.155 87.750,179.395 87.526 C 179.867 87.086,179.813 86.185,179.263 85.316 C 179.117 85.085,178.937 84.286,178.863 83.542 C 178.784 82.753,178.504 81.730,178.192 81.091 L 177.656 79.994 176.361 80.126 C 174.037 80.365,173.445 79.496,175.170 78.378 C 175.927 77.888,176.519 77.692,177.572 77.584 C 178.341 77.506,179.020 77.361,179.081 77.262 C 179.262 76.968,180.513 77.059,181.233 77.418 M126.988 80.131 C 127.536 80.638,127.894 81.174,128.572 82.500 C 128.718 82.786,129.044 83.275,129.295 83.586 C 129.546 83.897,129.794 84.272,129.845 84.419 C 129.981 84.807,130.818 84.026,131.177 83.177 C 131.335 82.805,131.549 82.500,131.653 82.500 C 131.757 82.500,131.944 82.195,132.068 81.823 C 132.717 79.878,135.120 78.874,136.484 79.979 C 137.055 80.441,136.806 81.998,136.029 82.826 C 135.807 83.062,135.625 83.360,135.625 83.487 C 135.625 83.614,135.403 83.983,135.133 84.307 C 134.862 84.631,134.574 85.107,134.494 85.365 C 134.413 85.622,134.256 85.833,134.145 85.833 C 134.034 85.833,133.763 86.255,133.542 86.771 C 133.321 87.286,133.043 87.708,132.924 87.708 C 132.570 87.708,132.679 88.242,133.113 88.635 C 133.336 88.837,133.578 89.273,133.651 89.605 C 133.723 89.937,133.854 90.208,133.940 90.208 C 134.139 90.208,135.331 92.040,135.611 92.776 C 135.728 93.083,135.909 93.333,136.014 93.333 C 136.119 93.333,136.352 93.700,136.531 94.149 C 136.711 94.598,136.955 95.025,137.075 95.099 C 138.165 95.773,136.951 96.667,134.946 96.667 C 133.075 96.667,132.666 96.304,131.245 93.385 C 131.008 92.898,130.740 92.500,130.649 92.500 C 130.558 92.500,130.370 92.251,130.232 91.947 L 129.980 91.394 129.637 91.895 C 129.449 92.171,129.215 92.451,129.117 92.518 C 128.931 92.646,128.371 93.603,127.835 94.705 C 126.920 96.590,124.487 97.410,122.967 96.345 L 122.509 96.024 122.921 95.255 C 123.148 94.832,123.333 94.383,123.333 94.258 C 123.333 94.133,123.568 93.811,123.854 93.542 C 124.141 93.273,124.375 92.878,124.375 92.665 C 124.375 92.453,124.504 92.229,124.661 92.169 C 124.819 92.108,125.114 91.689,125.318 91.238 C 125.522 90.786,125.767 90.417,125.862 90.417 C 125.958 90.417,126.180 90.112,126.357 89.740 C 126.533 89.367,126.812 88.829,126.977 88.544 C 127.238 88.091,127.236 87.972,126.965 87.606 C 126.795 87.376,126.516 86.883,126.346 86.510 C 126.175 86.138,125.954 85.833,125.853 85.833 C 125.753 85.833,125.527 85.476,125.353 85.040 C 125.178 84.604,124.887 84.124,124.705 83.973 C 124.524 83.822,124.375 83.607,124.375 83.494 C 124.375 83.381,124.141 83.011,123.854 82.670 C 123.279 81.986,123.117 80.299,123.583 79.833 C 124.090 79.327,126.332 79.523,126.988 80.131 M103.750 81.727 C 104.345 82.027,104.629 84.130,104.152 84.705 C 103.830 85.094,90.873 85.145,90.143 84.760 C 88.958 84.137,89.176 82.196,90.491 81.665 C 91.239 81.363,103.139 81.419,103.750 81.727 M243.217 84.005 C 243.592 84.539,243.662 86.678,243.326 87.305 C 243.117 87.696,242.765 87.708,231.451 87.708 C 217.890 87.708,218.958 87.894,218.958 85.533 C 218.958 83.390,218.013 83.542,231.389 83.542 L 242.893 83.542 243.217 84.005 M103.972 88.341 C 104.297 88.515,104.375 88.783,104.375 89.731 C 104.375 91.759,104.724 91.667,97.070 91.667 L 90.454 91.667 89.914 91.026 C 88.994 89.932,89.293 88.574,90.521 88.275 C 91.381 88.065,103.569 88.125,103.972 88.341 " stroke="none" fill="#fbfbfb" fill-rule="evenodd"></path><path id="path2" d="M198.819 60.193 C 198.227 60.263,197.571 60.465,197.361 60.641 C 197.151 60.817,196.726 61.069,196.417 61.200 C 196.108 61.332,195.691 61.701,195.490 62.022 C 195.290 62.342,194.956 62.772,194.750 62.977 C 194.544 63.182,194.374 63.510,194.374 63.706 C 194.373 63.902,194.186 64.344,193.958 64.688 C 193.474 65.418,193.411 66.716,193.842 67.073 C 194.318 67.468,195.541 66.790,195.826 65.973 C 196.926 62.817,201.742 62.685,202.209 65.798 C 202.441 67.346,202.146 69.803,201.666 70.313 C 201.437 70.557,201.250 70.861,201.250 70.989 C 201.250 71.427,198.764 74.345,194.911 78.431 C 192.461 81.028,192.489 81.042,200.096 81.042 C 206.547 81.042,206.337 81.083,206.596 79.772 C 206.674 79.382,206.868 78.965,207.028 78.847 C 207.375 78.590,207.606 77.118,207.418 76.367 C 207.226 75.604,206.757 75.705,205.784 76.719 L 204.934 77.604 202.139 77.673 C 198.422 77.764,198.437 77.774,200.034 76.191 C 201.835 74.406,204.501 71.245,204.670 70.696 C 204.745 70.449,204.939 70.196,205.101 70.134 C 205.262 70.073,205.456 69.665,205.533 69.230 C 205.609 68.794,205.804 68.227,205.965 67.970 C 206.506 67.106,206.547 65.796,206.065 64.738 C 205.823 64.207,205.625 63.580,205.625 63.345 C 205.625 62.531,203.259 60.489,202.111 60.312 C 200.786 60.109,199.823 60.074,198.819 60.193 M202.301 60.837 C 204.210 61.590,205.121 62.545,205.556 64.251 C 206.461 67.805,205.238 70.311,199.935 75.763 C 197.835 77.923,198.159 78.182,202.684 77.967 L 205.009 77.857 205.961 77.019 C 207.129 75.991,207.904 76.742,207.003 78.028 C 206.844 78.255,206.594 78.862,206.448 79.377 C 206.023 80.872,206.198 80.833,199.882 80.833 C 192.809 80.833,192.951 80.918,195.521 78.240 C 198.896 74.724,201.458 71.748,201.458 71.343 C 201.458 71.283,201.645 70.979,201.872 70.669 C 202.491 69.824,202.845 67.192,202.530 65.780 C 201.790 62.475,197.277 62.321,195.658 65.547 C 194.738 67.379,193.642 66.804,194.287 64.828 C 194.935 62.841,196.440 61.309,198.438 60.605 C 199.302 60.300,201.234 60.416,202.301 60.837 M268.340 67.510 C 267.943 67.732,267.495 68.148,267.344 68.436 C 267.193 68.723,266.991 68.958,266.894 68.958 C 266.797 68.958,266.601 69.240,266.458 69.583 C 266.316 69.927,266.133 70.208,266.052 70.208 C 265.970 70.208,265.773 70.466,265.613 70.781 C 265.454 71.096,265.106 71.635,264.840 71.979 C 263.523 73.684,262.773 74.774,262.510 75.365 C 262.396 75.622,262.219 75.833,262.118 75.833 C 262.017 75.833,261.578 76.411,261.142 77.117 C 260.706 77.823,260.218 78.549,260.058 78.731 C 259.312 79.576,258.542 80.708,258.542 80.959 C 258.542 81.111,258.365 81.330,258.149 81.446 C 257.933 81.561,257.697 81.893,257.624 82.182 C 257.552 82.471,257.403 82.708,257.293 82.708 C 257.184 82.708,256.946 82.995,256.765 83.344 C 256.584 83.694,256.254 84.163,256.031 84.386 C 255.808 84.609,255.625 84.910,255.625 85.054 C 255.625 85.198,255.438 85.434,255.208 85.577 C 254.849 85.801,254.792 86.062,254.792 87.469 C 254.792 89.896,254.474 89.773,260.950 89.840 L 266.354 89.896 266.410 93.021 C 266.476 96.735,266.432 96.667,268.748 96.667 C 270.879 96.667,270.833 96.745,270.833 93.106 C 270.833 89.565,270.678 89.792,273.102 89.792 C 275.075 89.792,275.342 89.611,275.467 88.190 C 275.573 86.976,275.575 86.980,274.619 86.195 C 274.015 85.698,273.746 85.625,272.506 85.625 C 270.684 85.625,270.833 86.442,270.833 76.488 C 270.833 66.389,270.769 66.156,268.340 67.510 M276.374 67.951 C 275.851 68.699,275.934 68.860,277.844 70.786 C 278.851 71.802,279.821 72.995,280.042 73.490 C 280.259 73.977,280.511 74.375,280.602 74.375 C 280.693 74.375,280.881 74.755,281.020 75.219 C 281.159 75.684,281.402 76.113,281.559 76.173 C 281.740 76.243,281.899 76.797,281.991 77.673 C 282.071 78.437,282.312 79.410,282.527 79.835 C 283.124 81.020,283.117 90.842,282.517 92.025 C 282.298 92.458,282.054 93.398,281.976 94.115 C 281.898 94.831,281.746 95.417,281.639 95.417 C 281.531 95.417,281.253 95.815,281.020 96.302 C 280.084 98.256,279.702 98.787,277.909 100.622 C 276.266 102.303,276.057 102.599,276.172 103.089 C 276.592 104.890,278.201 104.184,281.788 100.625 C 284.314 98.118,285.405 96.733,285.413 96.022 C 285.415 95.839,285.597 95.526,285.818 95.326 C 286.039 95.126,286.284 94.573,286.362 94.096 C 286.440 93.619,286.643 93.072,286.812 92.879 C 286.982 92.687,287.211 91.796,287.321 90.900 C 287.431 90.004,287.668 88.592,287.847 87.761 C 288.170 86.268,288.098 84.095,287.719 83.861 C 287.626 83.803,287.483 82.866,287.402 81.778 C 287.296 80.369,287.146 79.663,286.882 79.327 C 286.678 79.067,286.444 78.454,286.362 77.965 C 286.279 77.475,286.094 76.957,285.950 76.813 C 285.806 76.669,285.579 76.222,285.447 75.821 C 285.314 75.419,285.019 74.930,284.790 74.735 C 284.562 74.539,284.375 74.242,284.375 74.075 C 284.375 73.908,284.247 73.696,284.091 73.604 C 283.934 73.512,283.660 73.156,283.481 72.813 C 282.980 71.852,279.183 68.201,278.363 67.892 C 277.221 67.461,276.707 67.476,276.374 67.951 M270.375 67.958 C 270.561 68.145,270.625 70.372,270.625 76.695 C 270.625 86.770,270.523 86.250,272.502 86.250 C 274.549 86.250,275.000 86.568,275.000 88.011 C 275.000 89.350,274.634 89.583,272.532 89.583 C 270.611 89.583,270.625 89.559,270.625 93.021 C 270.625 96.449,270.620 96.458,268.852 96.458 C 266.817 96.458,266.789 96.411,266.667 92.778 L 266.563 89.688 261.205 89.583 C 254.951 89.462,255.104 89.513,255.105 87.545 C 255.106 86.318,255.153 86.217,256.771 83.958 C 257.646 82.737,258.284 81.833,259.271 80.417 C 260.330 78.896,261.027 77.911,261.718 76.954 C 261.976 76.597,262.656 75.624,263.229 74.792 C 263.802 73.959,264.458 73.023,264.688 72.710 C 264.917 72.398,265.289 71.871,265.516 71.540 C 267.039 69.312,268.035 68.066,268.415 67.912 C 269.066 67.649,270.090 67.673,270.375 67.958 M279.766 69.480 C 281.420 70.868,282.818 72.347,283.438 73.365 C 283.552 73.553,283.930 74.115,284.277 74.614 C 285.035 75.705,285.958 77.577,286.162 78.438 C 286.243 78.781,286.470 79.391,286.667 79.792 C 287.589 81.667,287.646 90.179,286.749 91.979 C 286.578 92.323,286.345 93.015,286.232 93.518 C 286.119 94.021,285.843 94.666,285.618 94.952 C 285.393 95.239,285.207 95.577,285.205 95.705 C 285.203 95.833,284.873 96.406,284.470 96.979 C 284.068 97.552,283.577 98.253,283.380 98.537 C 281.801 100.807,277.323 104.115,276.689 103.480 C 276.208 102.999,276.514 102.469,278.333 100.636 C 279.365 99.597,280.208 98.665,280.208 98.565 C 280.208 98.378,281.465 96.225,281.836 95.775 C 281.952 95.635,282.109 95.146,282.187 94.688 C 282.264 94.229,282.522 93.292,282.760 92.604 C 283.399 90.759,283.383 81.251,282.738 79.167 C 282.508 78.422,282.254 77.438,282.175 76.979 C 282.095 76.521,281.912 76.005,281.766 75.833 C 281.512 75.533,280.989 74.577,280.333 73.212 C 280.163 72.859,279.182 71.692,278.152 70.619 C 275.146 67.484,276.364 66.625,279.766 69.480 M150.462 72.558 C 150.098 72.933,149.739 73.566,149.664 73.964 C 149.589 74.362,149.362 74.875,149.161 75.104 C 148.959 75.333,148.727 75.943,148.645 76.458 C 148.563 76.974,148.361 77.549,148.197 77.736 C 148.032 77.923,147.797 78.720,147.675 79.507 C 147.553 80.294,147.300 81.219,147.112 81.563 C 146.597 82.505,146.604 92.073,147.121 93.076 C 147.313 93.449,147.534 94.293,147.611 94.951 C 147.689 95.608,147.919 96.438,148.124 96.796 C 148.329 97.154,148.560 97.828,148.639 98.295 C 148.718 98.761,148.915 99.253,149.077 99.387 C 149.239 99.522,149.464 99.973,149.576 100.389 C 149.933 101.712,150.847 102.500,152.025 102.500 C 153.844 102.500,154.415 101.575,153.569 99.996 C 153.354 99.596,153.110 98.847,153.025 98.332 C 152.941 97.817,152.742 97.249,152.583 97.069 C 152.425 96.889,152.200 96.238,152.083 95.623 C 151.966 95.007,151.708 94.264,151.508 93.971 C 150.951 93.151,150.965 81.489,151.524 80.458 C 151.729 80.079,151.951 79.282,152.017 78.687 C 152.083 78.091,152.302 77.323,152.504 76.979 C 152.706 76.635,152.940 76.030,153.025 75.633 C 153.109 75.237,153.365 74.659,153.594 74.348 C 154.987 72.464,152.134 70.833,150.462 72.558 M153.275 72.853 C 153.579 73.317,153.578 73.419,153.262 74.082 C 153.072 74.480,152.917 74.921,152.917 75.062 C 152.917 75.203,152.724 75.677,152.489 76.116 C 152.254 76.554,151.964 77.442,151.845 78.088 C 151.726 78.734,151.501 79.507,151.347 79.806 C 150.510 81.424,150.513 92.957,151.351 94.577 C 151.512 94.889,151.757 95.605,151.894 96.166 C 152.031 96.728,152.220 97.287,152.314 97.408 C 152.408 97.529,152.622 98.155,152.789 98.799 C 152.957 99.443,153.201 100.169,153.331 100.412 C 153.836 101.356,153.532 101.961,152.444 102.171 C 151.241 102.403,150.460 101.819,149.854 100.231 C 149.655 99.710,149.325 98.956,149.121 98.556 C 148.917 98.156,148.750 97.663,148.750 97.462 C 148.750 97.260,148.570 96.694,148.349 96.203 C 147.115 93.459,146.465 84.760,147.326 82.519 C 147.440 82.222,147.661 81.258,147.817 80.377 C 147.973 79.496,148.236 78.512,148.400 78.190 C 148.565 77.868,148.767 77.276,148.850 76.875 C 148.932 76.474,149.116 75.958,149.260 75.729 C 149.403 75.500,149.630 74.976,149.765 74.565 C 150.482 72.379,152.363 71.461,153.275 72.853 M72.971 73.897 C 71.953 74.093,71.594 75.307,72.292 76.193 C 72.521 76.484,72.708 76.885,72.708 77.083 C 72.708 77.282,72.882 77.667,73.095 77.941 C 73.307 78.214,73.598 78.796,73.741 79.233 C 73.883 79.671,74.122 80.076,74.271 80.133 C 74.420 80.190,74.601 80.549,74.673 80.931 C 74.744 81.313,74.936 81.735,75.099 81.871 C 75.262 82.006,75.506 82.461,75.641 82.881 C 75.776 83.302,76.003 83.786,76.146 83.958 C 76.289 84.130,76.516 84.614,76.650 85.034 C 76.785 85.453,77.031 85.849,77.198 85.913 C 77.364 85.976,77.500 86.199,77.500 86.408 C 77.500 86.616,77.688 87.155,77.917 87.604 C 78.288 88.333,78.333 88.833,78.333 92.217 C 78.333 96.719,78.310 96.667,80.312 96.667 C 82.304 96.667,82.292 96.692,82.292 92.433 C 82.292 88.641,82.664 86.742,83.594 85.790 C 83.794 85.585,83.958 85.242,83.958 85.028 C 83.958 84.814,84.140 84.409,84.362 84.126 C 84.584 83.844,84.832 83.339,84.912 83.004 C 84.993 82.670,85.225 82.236,85.427 82.040 C 85.630 81.845,85.861 81.390,85.940 81.030 C 86.019 80.669,86.262 80.196,86.480 79.979 C 86.697 79.761,86.875 79.408,86.875 79.195 C 86.875 78.981,87.047 78.583,87.258 78.309 C 87.469 78.036,87.752 77.490,87.886 77.097 C 88.020 76.703,88.283 76.212,88.471 76.005 C 88.931 75.496,88.614 74.373,87.910 74.016 C 86.752 73.430,85.028 73.812,84.551 74.760 C 84.361 75.137,84.063 75.603,83.890 75.796 C 83.716 75.988,83.506 76.427,83.422 76.771 C 83.338 77.115,83.097 77.619,82.885 77.893 C 82.673 78.166,82.500 78.546,82.500 78.738 C 82.500 78.929,82.266 79.403,81.979 79.792 C 81.693 80.180,81.458 80.708,81.458 80.966 C 81.458 81.223,81.355 81.498,81.228 81.576 C 81.102 81.654,80.830 82.093,80.625 82.551 L 80.253 83.384 80.104 82.681 C 80.022 82.295,79.790 81.792,79.588 81.563 C 79.386 81.333,79.156 80.872,79.077 80.537 C 78.997 80.203,78.751 79.698,78.529 79.415 C 78.307 79.133,78.125 78.740,78.125 78.542 C 78.125 78.343,77.943 77.950,77.721 77.668 C 77.499 77.386,77.249 76.883,77.166 76.551 C 76.642 74.465,75.096 73.487,72.971 73.897 M110.729 73.900 C 110.500 73.956,110.172 74.122,110.000 74.269 C 109.828 74.416,109.367 74.605,108.975 74.689 C 106.571 75.201,105.873 79.167,108.187 79.167 C 108.466 79.167,108.926 78.984,109.210 78.761 C 110.833 77.484,113.887 77.511,115.063 78.813 C 115.971 79.817,115.364 83.663,114.153 84.583 C 114.078 84.641,113.872 84.969,113.696 85.313 C 113.520 85.657,113.179 86.117,112.938 86.335 C 112.697 86.553,112.500 86.857,112.500 87.011 C 112.500 87.166,112.356 87.292,112.181 87.292 C 112.005 87.292,111.802 87.448,111.729 87.639 C 111.656 87.829,110.979 88.619,110.225 89.393 C 107.193 92.505,106.886 92.878,106.698 93.677 C 106.595 94.118,106.483 94.573,106.450 94.688 C 106.368 94.973,106.678 96.088,106.929 96.406 C 107.086 96.605,108.708 96.667,113.761 96.667 C 121.473 96.667,121.172 96.744,120.973 94.808 C 120.799 93.125,120.799 93.125,116.073 93.125 L 112.018 93.125 113.040 92.123 C 114.074 91.108,115.420 89.614,116.563 88.212 C 116.906 87.790,117.352 87.296,117.552 87.114 C 117.753 86.931,117.917 86.670,117.917 86.532 C 117.917 86.395,118.151 86.003,118.438 85.663 C 118.724 85.323,118.958 84.945,118.958 84.825 C 118.958 84.704,119.193 84.165,119.479 83.626 C 120.314 82.056,120.220 77.843,119.326 76.750 C 117.158 74.100,114.087 73.082,110.729 73.900 M160.208 73.898 C 160.036 73.961,159.755 74.128,159.583 74.269 C 159.411 74.411,158.963 74.584,158.587 74.655 C 156.240 75.097,155.465 78.958,157.724 78.958 C 158.156 78.958,158.605 78.820,158.754 78.642 C 158.898 78.467,159.422 78.222,159.919 78.098 C 160.415 77.973,160.929 77.740,161.061 77.581 C 161.681 76.834,164.030 77.577,164.878 78.788 C 165.337 79.443,165.308 80.942,164.828 81.422 C 164.619 81.631,164.387 81.960,164.314 82.151 C 164.240 82.343,164.049 82.500,163.889 82.500 C 163.729 82.500,163.367 82.682,163.084 82.904 C 162.700 83.206,162.050 83.351,160.518 83.477 C 158.209 83.667,157.961 83.906,158.243 85.665 C 158.417 86.753,158.588 86.828,161.102 86.908 C 162.567 86.954,163.403 87.067,163.505 87.232 C 163.590 87.370,164.002 87.627,164.419 87.801 C 164.837 87.975,165.235 88.298,165.305 88.519 C 165.375 88.739,165.570 88.972,165.737 89.037 C 166.478 89.321,166.121 91.153,165.114 92.233 L 164.186 93.229 161.989 93.216 C 160.062 93.205,159.715 93.147,159.170 92.744 C 157.727 91.677,155.625 92.130,155.625 93.508 C 155.625 95.066,157.201 96.386,159.474 96.732 C 162.105 97.132,166.292 96.836,166.744 96.218 C 166.874 96.040,167.215 95.822,167.501 95.734 C 169.776 95.033,171.589 89.296,170.052 87.660 C 169.794 87.385,169.582 87.073,169.581 86.966 C 169.578 86.702,168.318 85.518,167.865 85.354 C 167.348 85.166,167.395 84.238,167.934 83.949 C 168.173 83.821,168.507 83.419,168.676 83.056 C 168.845 82.693,169.123 82.161,169.293 81.875 C 169.796 81.028,169.601 77.749,169.002 76.988 C 168.749 76.666,168.542 76.314,168.542 76.206 C 168.542 75.854,167.359 74.816,166.798 74.676 C 166.496 74.600,166.250 74.464,166.250 74.373 C 166.250 73.870,161.336 73.483,160.208 73.898 M116.479 74.760 C 118.909 75.860,119.698 77.235,119.666 80.313 C 119.629 83.735,118.110 86.368,113.273 91.392 C 111.403 93.334,111.395 93.328,115.689 93.358 C 120.567 93.392,120.505 93.374,120.584 94.758 C 120.687 96.543,121.024 96.458,113.766 96.458 C 106.534 96.458,106.875 96.542,106.875 94.770 C 106.875 93.411,107.051 93.149,110.076 90.000 C 112.698 87.270,113.742 85.942,115.215 83.458 C 115.865 82.364,116.058 79.644,115.542 78.857 C 114.334 77.014,111.533 76.838,109.071 78.451 C 108.001 79.153,107.196 78.788,107.125 77.570 C 107.029 75.908,108.249 74.994,111.771 74.087 C 112.790 73.825,115.164 74.164,116.479 74.760 M165.867 74.594 C 168.539 75.640,170.242 79.589,168.917 81.667 C 168.734 81.953,168.518 82.422,168.435 82.708 C 168.353 82.995,168.015 83.482,167.684 83.790 C 166.941 84.484,166.877 85.326,167.552 85.530 C 171.079 86.596,170.853 93.867,167.241 95.543 C 166.868 95.717,166.338 95.985,166.064 96.140 C 163.868 97.382,157.038 96.365,156.461 94.710 C 155.746 92.660,156.790 91.807,158.646 92.924 C 159.704 93.560,162.326 93.795,164.141 93.416 C 166.021 93.023,166.964 89.987,165.687 88.443 C 164.632 87.168,163.314 86.667,161.020 86.667 C 158.704 86.667,158.542 86.560,158.542 85.039 C 158.542 83.946,158.748 83.828,160.898 83.683 C 163.769 83.491,165.429 82.187,165.402 80.149 C 165.362 77.158,162.951 76.241,159.533 77.917 C 157.537 78.895,157.145 78.939,156.870 78.216 C 156.161 76.350,157.503 75.045,161.042 74.162 C 162.151 73.885,164.622 74.106,165.867 74.594 M75.705 74.858 C 76.062 75.239,76.462 75.778,76.594 76.056 C 76.814 76.520,77.172 77.280,79.465 82.141 C 80.444 84.217,80.027 84.667,83.232 78.085 C 85.014 74.425,85.063 74.364,86.316 74.222 C 87.706 74.066,88.585 74.879,88.096 75.870 C 87.909 76.251,87.412 77.266,86.993 78.125 C 86.574 78.984,86.143 79.828,86.037 80.000 C 85.931 80.172,85.702 80.641,85.530 81.042 C 85.358 81.443,85.131 81.911,85.026 82.083 C 84.922 82.255,84.733 82.630,84.607 82.917 C 84.481 83.203,84.286 83.578,84.173 83.750 C 84.061 83.922,83.827 84.391,83.655 84.792 C 83.483 85.193,83.254 85.661,83.146 85.833 C 82.103 87.496,82.023 87.901,81.933 91.976 C 81.833 96.451,81.830 96.460,80.339 96.455 C 78.747 96.450,78.806 96.607,78.685 92.083 C 78.575 87.926,78.478 87.427,77.479 85.833 C 77.371 85.661,77.142 85.193,76.970 84.792 C 76.798 84.391,76.570 83.922,76.464 83.750 C 76.358 83.578,75.463 81.797,74.476 79.792 C 73.488 77.786,72.591 75.980,72.481 75.776 C 71.709 74.343,74.480 73.554,75.705 74.858 M265.653 75.052 C 265.269 75.657,264.345 76.996,262.813 79.167 C 262.529 79.568,261.898 80.473,261.409 81.178 C 260.921 81.882,260.122 83.030,259.635 83.727 C 259.148 84.425,258.750 85.165,258.750 85.373 C 258.750 85.580,258.638 85.863,258.500 86.000 C 258.306 86.194,259.137 86.250,262.243 86.250 C 267.155 86.250,266.667 86.913,266.667 80.239 C 266.667 74.041,266.579 73.593,265.653 75.052 M266.410 80.431 L 266.354 85.521 262.760 85.578 C 258.732 85.642,258.548 85.559,259.688 84.205 C 259.974 83.864,260.208 83.513,260.208 83.425 C 260.208 83.336,260.351 83.116,260.526 82.934 C 261.202 82.230,262.083 80.971,262.083 80.708 C 262.083 80.556,262.260 80.337,262.476 80.221 C 262.692 80.106,262.928 79.774,263.001 79.485 C 263.073 79.195,263.223 78.958,263.333 78.958 C 263.443 78.958,263.725 78.583,263.958 78.125 C 264.192 77.667,264.466 77.292,264.567 77.292 C 264.668 77.292,264.849 77.010,264.969 76.667 C 265.089 76.323,265.287 76.042,265.410 76.042 C 265.533 76.042,265.742 75.805,265.874 75.515 C 266.357 74.455,266.465 75.446,266.410 80.431 M179.081 77.262 C 179.020 77.361,178.341 77.506,177.572 77.584 C 176.519 77.692,175.927 77.888,175.170 78.378 C 173.445 79.496,174.037 80.365,176.361 80.126 L 177.656 79.994 178.192 81.091 C 178.504 81.730,178.784 82.753,178.863 83.542 C 178.937 84.286,179.117 85.085,179.263 85.316 C 179.813 86.185,179.867 87.086,179.395 87.526 C 179.155 87.750,178.958 88.010,178.958 88.104 C 178.958 88.199,178.680 88.640,178.341 89.086 C 178.001 89.531,177.583 90.083,177.412 90.313 C 177.241 90.542,176.882 91.010,176.614 91.354 C 176.347 91.698,175.966 92.237,175.768 92.552 C 175.368 93.187,173.927 93.369,173.149 92.884 C 171.816 92.051,169.977 94.263,170.736 95.785 C 172.043 98.403,175.499 97.572,177.917 94.058 C 178.203 93.642,178.625 93.077,178.854 92.803 C 179.083 92.529,179.547 91.927,179.884 91.465 C 180.577 90.515,180.825 90.644,180.830 91.956 C 180.832 92.402,181.015 93.152,181.237 93.623 C 181.459 94.094,181.697 94.829,181.766 95.256 C 182.017 96.802,184.730 97.977,185.804 97.006 C 186.010 96.819,186.312 96.666,186.475 96.664 C 186.758 96.662,188.125 95.403,188.125 95.144 C 188.125 95.075,188.336 94.788,188.594 94.505 C 190.010 92.951,190.384 91.828,189.681 91.245 C 189.296 90.925,187.710 91.313,187.706 91.727 C 187.705 91.866,187.389 92.285,187.004 92.659 L 186.304 93.339 185.789 92.659 C 185.406 92.154,185.240 91.610,185.142 90.544 C 185.070 89.755,184.852 88.868,184.658 88.572 C 183.985 87.544,184.009 85.151,184.704 84.113 C 186.597 81.285,187.456 80.687,188.847 81.231 C 191.186 82.145,192.517 78.439,190.215 77.424 C 188.633 76.726,184.583 78.687,184.583 80.150 C 184.583 80.272,184.441 80.427,184.268 80.493 C 184.094 80.560,183.860 80.857,183.747 81.153 C 183.504 81.794,183.125 81.648,183.125 80.914 C 183.125 80.629,182.945 80.048,182.726 79.625 C 182.506 79.201,182.231 78.607,182.115 78.304 C 181.774 77.413,179.475 76.624,179.081 77.262 M181.113 77.785 C 181.722 78.040,181.860 78.266,182.395 79.876 C 183.121 82.059,183.370 82.334,183.892 81.524 C 186.632 77.278,191.469 75.973,190.981 79.613 C 190.816 80.845,190.634 80.944,188.655 80.888 C 187.253 80.848,186.833 80.909,186.495 81.201 C 185.919 81.698,183.750 84.974,183.750 85.347 C 183.750 86.024,184.225 88.671,184.409 89.018 C 184.518 89.223,184.744 90.110,184.912 90.989 C 185.424 93.661,186.144 94.097,187.500 92.552 C 189.118 90.708,190.543 91.118,189.277 93.064 C 187.251 96.178,185.510 97.295,183.687 96.650 C 182.380 96.188,181.989 95.442,181.145 91.795 C 180.695 89.852,180.290 90.090,177.604 93.878 C 175.391 97.000,172.059 97.946,171.127 95.717 C 170.419 94.022,171.577 92.908,173.607 93.333 C 175.146 93.655,175.495 93.471,176.891 91.591 C 180.335 86.955,180.264 87.129,179.586 84.966 C 179.359 84.240,179.113 83.177,179.039 82.604 C 178.915 81.625,178.315 80.310,177.823 79.938 C 177.703 79.847,177.122 79.823,176.533 79.885 C 175.682 79.975,175.362 79.918,174.981 79.610 L 174.502 79.222 175.627 78.579 C 176.328 78.179,177.189 77.887,177.908 77.806 C 178.543 77.735,179.156 77.644,179.271 77.605 C 179.737 77.444,180.468 77.516,181.113 77.785 M123.583 79.833 C 123.117 80.299,123.279 81.986,123.854 82.670 C 124.141 83.011,124.375 83.381,124.375 83.494 C 124.375 83.607,124.524 83.822,124.705 83.973 C 124.887 84.124,125.178 84.604,125.353 85.040 C 125.527 85.476,125.753 85.833,125.853 85.833 C 125.954 85.833,126.175 86.138,126.346 86.510 C 126.516 86.883,126.795 87.376,126.965 87.606 C 127.236 87.972,127.238 88.091,126.977 88.544 C 126.812 88.829,126.533 89.367,126.357 89.740 C 126.180 90.112,125.958 90.417,125.862 90.417 C 125.767 90.417,125.522 90.786,125.318 91.238 C 125.114 91.689,124.819 92.108,124.661 92.169 C 124.504 92.229,124.375 92.453,124.375 92.665 C 124.375 92.878,124.141 93.273,123.854 93.542 C 123.568 93.811,123.333 94.133,123.333 94.258 C 123.333 94.383,123.148 94.832,122.921 95.255 L 122.509 96.024 122.967 96.345 C 124.487 97.410,126.920 96.590,127.835 94.705 C 128.371 93.603,128.931 92.646,129.117 92.518 C 129.215 92.451,129.449 92.171,129.637 91.895 L 129.980 91.394 130.232 91.947 C 130.370 92.251,130.558 92.500,130.649 92.500 C 130.740 92.500,131.008 92.898,131.245 93.385 C 132.666 96.304,133.075 96.667,134.946 96.667 C 136.951 96.667,138.165 95.773,137.075 95.099 C 136.955 95.025,136.711 94.598,136.531 94.149 C 136.352 93.700,136.119 93.333,136.014 93.333 C 135.909 93.333,135.728 93.083,135.611 92.776 C 135.331 92.040,134.139 90.208,133.940 90.208 C 133.854 90.208,133.723 89.937,133.651 89.605 C 133.578 89.273,133.336 88.837,133.113 88.635 C 132.679 88.242,132.570 87.708,132.924 87.708 C 133.043 87.708,133.321 87.286,133.542 86.771 C 133.763 86.255,134.034 85.833,134.145 85.833 C 134.256 85.833,134.413 85.622,134.494 85.365 C 134.574 85.107,134.862 84.631,135.133 84.307 C 135.403 83.983,135.625 83.614,135.625 83.487 C 135.625 83.360,135.807 83.062,136.029 82.826 C 136.806 81.998,137.055 80.441,136.484 79.979 C 135.120 78.874,132.717 79.878,132.068 81.823 C 131.944 82.195,131.757 82.500,131.653 82.500 C 131.549 82.500,131.335 82.805,131.177 83.177 C 130.818 84.026,129.981 84.807,129.845 84.419 C 129.794 84.272,129.546 83.897,129.295 83.586 C 129.044 83.275,128.718 82.786,128.572 82.500 C 127.301 80.014,126.791 79.583,125.115 79.583 C 124.396 79.583,123.724 79.693,123.583 79.833 M126.907 80.573 C 127.197 80.888,127.660 81.520,127.936 81.976 C 128.212 82.433,128.531 82.959,128.646 83.146 C 128.760 83.332,129.069 83.877,129.331 84.355 L 129.809 85.225 130.365 84.787 C 130.881 84.382,131.307 83.779,132.205 82.188 C 133.200 80.423,133.715 80.000,134.872 80.000 C 136.825 80.000,136.958 80.839,135.385 83.250 C 132.153 88.208,132.233 88.011,132.990 89.155 C 133.260 89.563,133.892 90.555,134.396 91.361 C 134.900 92.167,135.430 93.011,135.574 93.236 C 137.278 95.907,137.160 96.458,134.881 96.458 C 133.492 96.458,133.186 96.231,132.216 94.479 C 131.600 93.367,129.978 90.833,129.882 90.833 C 129.810 90.833,128.311 93.216,127.588 94.479 C 126.588 96.225,126.285 96.458,125.015 96.458 C 122.875 96.458,122.737 95.805,124.360 93.357 C 124.769 92.740,125.198 92.084,125.312 91.899 C 125.426 91.714,125.731 91.264,125.989 90.899 C 126.247 90.535,126.458 90.166,126.458 90.079 C 126.458 89.993,126.636 89.729,126.853 89.493 C 127.538 88.745,127.584 87.890,126.987 87.010 C 126.696 86.582,126.458 86.183,126.458 86.123 C 126.458 86.063,126.224 85.707,125.938 85.331 C 125.651 84.955,125.417 84.554,125.417 84.440 C 125.417 84.325,125.229 84.062,125.000 83.854 C 124.771 83.647,124.583 83.369,124.583 83.237 C 124.583 83.105,124.349 82.680,124.063 82.292 C 123.572 81.627,123.364 80.455,123.681 80.139 C 124.116 79.704,126.389 80.009,126.907 80.573 M90.491 81.665 C 89.176 82.196,88.958 84.137,90.143 84.760 C 90.873 85.145,103.830 85.094,104.152 84.705 C 104.629 84.130,104.345 82.027,103.750 81.727 C 103.139 81.419,91.239 81.363,90.491 81.665 M103.963 82.409 C 104.243 83.144,104.219 84.240,103.917 84.542 C 103.598 84.860,91.009 84.901,90.420 84.585 C 89.790 84.248,89.686 83.233,90.207 82.503 L 90.653 81.875 97.207 81.875 L 103.760 81.875 103.963 82.409 M219.421 83.866 C 218.771 84.322,218.739 86.656,219.375 87.292 C 220.017 87.934,242.983 87.947,243.326 87.305 C 243.662 86.678,243.592 84.539,243.217 84.005 L 242.893 83.542 231.389 83.542 C 221.314 83.542,219.827 83.582,219.421 83.866 M242.500 84.019 C 243.346 84.445,243.574 86.084,242.926 87.083 C 242.750 87.355,241.242 87.396,231.447 87.396 L 220.171 87.396 219.773 86.904 C 219.223 86.225,219.233 84.725,219.792 84.167 C 220.312 83.646,241.487 83.508,242.500 84.019 M90.521 88.275 C 89.293 88.574,88.994 89.932,89.914 91.026 L 90.454 91.667 97.070 91.667 C 104.724 91.667,104.375 91.759,104.375 89.731 C 104.375 88.783,104.297 88.515,103.972 88.341 C 103.569 88.125,91.381 88.065,90.521 88.275 M103.963 88.750 C 104.230 89.173,104.217 90.078,103.935 90.698 C 103.608 91.415,103.201 91.458,96.729 91.458 L 91.010 91.458 90.401 90.849 C 89.486 89.935,89.670 88.928,90.833 88.474 C 91.602 88.174,103.761 88.430,103.963 88.750 " stroke="none" fill="#a1a1a1" fill-rule="evenodd"></path><path id="path3" d="M198.385 63.274 C 198.701 63.322,199.216 63.322,199.531 63.274 C 199.846 63.226,199.589 63.187,198.958 63.187 C 198.328 63.187,198.070 63.226,198.385 63.274 M194.004 66.146 C 194.074 66.568,194.878 66.639,195.276 66.258 C 195.371 66.167,195.197 66.141,194.889 66.200 C 194.543 66.266,194.256 66.197,194.133 66.018 C 193.983 65.798,193.952 65.828,194.004 66.146 M269.374 67.863 C 269.775 67.911,270.243 68.060,270.416 68.194 C 270.689 68.406,270.692 68.390,270.443 68.073 C 270.253 67.831,269.904 67.720,269.402 67.742 L 268.646 67.775 269.374 67.863 M112.552 74.108 C 112.867 74.155,113.383 74.155,113.698 74.108 C 114.013 74.060,113.755 74.021,113.125 74.021 C 112.495 74.021,112.237 74.060,112.552 74.108 M162.135 74.108 C 162.451 74.155,162.966 74.155,163.281 74.108 C 163.596 74.060,163.339 74.021,162.708 74.021 C 162.078 74.021,161.820 74.060,162.135 74.108 M73.698 74.314 C 73.956 74.363,74.378 74.363,74.635 74.314 C 74.893 74.264,74.682 74.223,74.167 74.223 C 73.651 74.223,73.440 74.264,73.698 74.314 M86.200 74.314 C 86.459 74.364,86.834 74.362,87.034 74.310 C 87.233 74.258,87.021 74.217,86.563 74.219 C 86.104 74.222,85.941 74.264,86.200 74.314 M200.716 74.844 L 200.104 75.521 200.781 74.909 C 201.154 74.572,201.458 74.268,201.458 74.232 C 201.458 74.071,201.286 74.213,200.716 74.844 M87.733 74.688 C 87.919 74.917,88.122 75.245,88.186 75.417 C 88.283 75.682,88.303 75.679,88.317 75.397 C 88.326 75.214,88.122 74.886,87.865 74.668 C 87.400 74.274,87.399 74.274,87.733 74.688 M266.757 80.313 C 266.757 83.177,266.786 84.378,266.822 82.981 C 266.858 81.584,266.858 79.240,266.822 77.773 C 266.787 76.305,266.757 77.448,266.757 80.313 M156.719 77.188 C 156.722 77.646,156.764 77.809,156.814 77.550 C 156.864 77.291,156.862 76.916,156.810 76.716 C 156.758 76.517,156.717 76.729,156.719 77.188 M161.927 77.019 C 162.128 77.071,162.456 77.071,162.656 77.019 C 162.857 76.966,162.693 76.923,162.292 76.923 C 161.891 76.923,161.727 76.966,161.927 77.019 M198.340 77.422 C 198.328 77.837,198.916 78.158,199.519 78.067 C 200.088 77.982,200.085 77.978,199.437 77.948 C 199.048 77.930,198.682 77.765,198.558 77.552 C 198.442 77.352,198.343 77.293,198.340 77.422 M179.635 77.644 C 179.836 77.696,180.164 77.696,180.365 77.644 C 180.565 77.591,180.401 77.548,180.000 77.548 C 179.599 77.548,179.435 77.591,179.635 77.644 M202.027 78.067 C 202.396 78.113,203.053 78.114,203.485 78.069 C 203.917 78.024,203.615 77.986,202.813 77.985 C 202.010 77.984,201.657 78.021,202.027 78.067 M157.053 78.594 C 157.158 78.699,157.465 78.750,157.736 78.708 C 158.153 78.642,158.124 78.613,157.546 78.517 C 157.132 78.448,156.937 78.479,157.053 78.594 M119.632 79.375 C 119.632 79.776,119.675 79.940,119.727 79.740 C 119.779 79.539,119.779 79.211,119.727 79.010 C 119.675 78.810,119.632 78.974,119.632 79.375 M169.215 79.792 C 169.215 80.193,169.258 80.357,169.310 80.156 C 169.363 79.956,169.363 79.628,169.310 79.427 C 169.258 79.227,169.215 79.391,169.215 79.792 M119.632 81.042 C 119.632 81.443,119.675 81.607,119.727 81.406 C 119.779 81.206,119.779 80.878,119.727 80.677 C 119.675 80.477,119.632 80.641,119.632 81.042 M136.298 81.042 C 136.298 81.443,136.341 81.607,136.394 81.406 C 136.446 81.206,136.446 80.878,136.394 80.677 C 136.341 80.477,136.298 80.641,136.298 81.042 M150.882 81.667 C 150.882 82.068,150.925 82.232,150.977 82.031 C 151.029 81.831,151.029 81.503,150.977 81.302 C 150.925 81.102,150.882 81.266,150.882 81.667 M164.466 82.344 L 163.854 83.021 164.531 82.409 C 164.904 82.072,165.208 81.768,165.208 81.732 C 165.208 81.571,165.036 81.713,164.466 82.344 M283.196 83.229 C 283.197 84.146,283.234 84.495,283.278 84.005 C 283.322 83.515,283.321 82.765,283.276 82.338 C 283.232 81.912,283.196 82.313,283.196 83.229 M259.335 83.906 C 258.968 84.334,258.693 84.792,258.803 84.792 C 258.845 84.792,259.088 84.510,259.342 84.167 C 259.844 83.487,259.840 83.319,259.335 83.906 M225.692 83.906 C 228.765 83.939,233.734 83.939,236.733 83.906 C 239.733 83.874,237.219 83.847,231.146 83.847 C 225.073 83.847,222.619 83.874,225.692 83.906 M103.893 84.246 C 103.828 84.414,103.559 84.592,103.294 84.643 C 102.847 84.728,102.844 84.737,103.256 84.763 C 103.691 84.791,104.330 84.261,104.118 84.048 C 104.058 83.989,103.957 84.078,103.893 84.246 M287.340 84.792 C 287.340 85.193,287.383 85.357,287.435 85.156 C 287.488 84.956,287.488 84.628,287.435 84.427 C 287.383 84.227,287.340 84.391,287.340 84.792 M243.178 85.729 C 243.180 86.188,243.223 86.350,243.272 86.091 C 243.322 85.832,243.320 85.457,243.268 85.258 C 243.216 85.059,243.175 85.271,243.178 85.729 M258.566 85.139 C 258.553 85.273,258.481 85.554,258.407 85.764 C 258.302 86.060,258.330 86.092,258.531 85.908 C 258.673 85.776,258.744 85.495,258.690 85.283 C 258.635 85.070,258.579 85.005,258.566 85.139 M146.950 87.292 C 146.950 88.380,146.985 88.826,147.028 88.281 C 147.071 87.737,147.071 86.846,147.028 86.302 C 146.985 85.758,146.950 86.203,146.950 87.292 M168.542 86.354 C 168.930 86.755,169.295 87.083,169.353 87.083 C 169.410 87.083,169.139 86.755,168.750 86.354 C 168.361 85.953,167.996 85.625,167.939 85.625 C 167.882 85.625,168.153 85.953,168.542 86.354 M150.491 87.813 C 150.490 88.844,150.525 89.292,150.569 88.808 C 150.613 88.325,150.613 87.481,150.570 86.933 C 150.527 86.386,150.491 86.781,150.491 87.813 M158.938 86.522 C 159.031 86.615,159.613 86.660,160.231 86.624 L 161.354 86.557 160.062 86.455 C 159.351 86.400,158.845 86.430,158.938 86.522 M260.568 86.400 C 260.938 86.446,261.594 86.447,262.027 86.402 C 262.459 86.357,262.156 86.319,261.354 86.318 C 260.552 86.317,260.198 86.354,260.568 86.400 M272.865 86.397 C 273.122 86.447,273.544 86.447,273.802 86.397 C 274.060 86.347,273.849 86.307,273.333 86.307 C 272.818 86.307,272.607 86.347,272.865 86.397 M255.057 87.500 C 255.057 88.016,255.097 88.227,255.147 87.969 C 255.197 87.711,255.197 87.289,255.147 87.031 C 255.097 86.773,255.057 86.984,255.057 87.500 M274.789 87.978 L 274.890 89.271 274.957 88.147 C 274.994 87.529,274.948 86.948,274.856 86.855 C 274.763 86.762,274.733 87.267,274.789 87.978 M221.618 87.443 C 221.993 87.489,222.555 87.488,222.868 87.441 C 223.181 87.393,222.875 87.355,222.188 87.356 C 221.500 87.357,221.244 87.396,221.618 87.443 M228.073 87.448 C 230.622 87.481,234.794 87.481,237.344 87.448 C 239.893 87.415,237.807 87.387,232.708 87.387 C 227.609 87.387,225.523 87.415,228.073 87.448 M94.023 88.489 C 95.720 88.524,98.439 88.524,100.065 88.489 C 101.691 88.454,100.302 88.425,96.979 88.425 C 93.656 88.425,92.326 88.454,94.023 88.489 M283.185 89.479 C 283.186 90.052,283.227 90.262,283.274 89.945 C 283.322 89.628,283.321 89.160,283.272 88.903 C 283.222 88.647,283.183 88.906,283.185 89.479 M262.969 89.519 C 263.169 89.571,263.497 89.571,263.698 89.519 C 263.898 89.466,263.734 89.423,263.333 89.423 C 262.932 89.423,262.768 89.466,262.969 89.519 M113.542 90.938 C 113.036 91.453,112.668 91.875,112.726 91.875 C 112.783 91.875,113.244 91.453,113.750 90.938 C 114.256 90.422,114.623 90.000,114.566 90.000 C 114.509 90.000,114.048 90.422,113.542 90.938 M266.749 92.813 C 266.749 94.417,266.782 95.045,266.822 94.210 C 266.861 93.374,266.861 92.061,266.821 91.293 C 266.781 90.525,266.749 91.208,266.749 92.813 M94.023 91.406 C 95.720 91.441,98.439 91.441,100.065 91.406 C 101.691 91.371,100.302 91.342,96.979 91.342 C 93.656 91.342,92.326 91.371,94.023 91.406 M114.010 93.488 C 115.013 93.527,116.654 93.527,117.656 93.488 C 118.659 93.450,117.839 93.419,115.833 93.419 C 113.828 93.419,113.008 93.450,114.010 93.488 M176.136 95.469 L 175.313 96.354 176.198 95.531 C 177.021 94.765,177.179 94.583,177.021 94.583 C 176.987 94.583,176.589 94.982,176.136 95.469 M161.302 96.610 C 161.732 96.655,162.435 96.655,162.865 96.610 C 163.294 96.565,162.943 96.528,162.083 96.528 C 161.224 96.528,160.872 96.565,161.302 96.610 M172.867 96.814 C 173.126 96.864,173.501 96.862,173.700 96.810 C 173.900 96.758,173.688 96.717,173.229 96.719 C 172.771 96.722,172.608 96.764,172.867 96.814 M153.269 100.906 C 153.358 101.472,153.309 101.768,153.104 101.912 C 152.861 102.081,152.865 102.101,153.125 102.031 C 153.506 101.929,153.647 100.981,153.356 100.474 C 153.196 100.196,153.174 100.303,153.269 100.906 M151.510 102.227 C 151.711 102.279,152.039 102.279,152.240 102.227 C 152.440 102.175,152.276 102.132,151.875 102.132 C 151.474 102.132,151.310 102.175,151.510 102.227 " stroke="none" fill="#848484" fill-rule="evenodd"></path><path id="path4" d="M199.063 60.555 C 197.098 60.978,194.606 63.105,194.586 64.375 C 194.583 64.547,194.457 64.924,194.306 65.214 C 193.946 65.904,194.082 66.250,194.715 66.250 C 195.081 66.250,195.300 66.081,195.479 65.658 C 197.014 62.031,201.915 62.324,202.697 66.091 C 202.977 67.439,202.539 69.933,201.873 70.779 C 201.645 71.069,201.458 71.399,201.458 71.513 C 201.458 71.714,199.026 74.690,197.937 75.821 C 195.474 78.380,193.958 80.090,193.958 80.312 C 193.958 80.761,194.727 80.828,199.934 80.830 C 205.704 80.834,205.915 80.791,206.281 79.541 C 206.425 79.049,206.704 78.376,206.900 78.046 C 207.097 77.716,207.218 77.317,207.171 77.160 C 207.123 77.003,207.043 76.743,206.993 76.582 C 206.929 76.373,206.657 76.515,206.049 77.076 C 205.038 78.010,204.532 78.120,201.223 78.123 C 197.576 78.126,197.578 78.146,200.786 74.783 C 201.504 74.030,202.236 73.208,202.412 72.956 C 202.588 72.705,203.012 72.195,203.354 71.823 C 204.971 70.062,206.128 66.697,205.652 65.136 C 205.542 64.775,205.394 64.133,205.323 63.709 C 205.011 61.851,201.427 60.045,199.063 60.555 M201.742 61.130 C 205.001 62.164,206.566 66.063,204.890 68.969 C 204.728 69.250,204.471 69.735,204.319 70.047 C 204.020 70.660,203.077 71.808,201.215 73.825 C 198.270 77.017,198.134 77.189,198.130 77.756 C 198.119 79.129,205.250 78.684,206.508 77.235 L 206.875 76.811 206.875 77.260 C 206.875 77.520,206.744 77.708,206.563 77.708 C 206.358 77.708,206.250 77.913,206.250 78.302 C 206.250 79.170,205.846 80.187,205.408 80.421 C 204.998 80.641,195.426 80.706,194.637 80.494 L 194.170 80.369 194.770 79.611 C 195.100 79.195,196.366 77.823,197.583 76.563 C 200.381 73.666,200.218 73.853,201.114 72.500 C 201.532 71.870,201.985 71.222,202.122 71.061 C 202.258 70.899,202.491 70.337,202.638 69.811 C 202.786 69.285,203.022 68.456,203.163 67.969 C 203.507 66.783,202.945 65.016,201.877 63.927 C 200.087 62.099,196.206 62.854,195.393 65.188 C 195.269 65.543,195.071 65.833,194.953 65.833 C 194.617 65.833,194.884 63.873,195.282 63.419 C 196.682 61.825,196.973 61.605,198.291 61.144 C 200.045 60.531,199.857 60.532,201.742 61.130 M268.296 68.088 C 268.103 68.165,267.723 68.557,267.450 68.958 C 266.962 69.675,266.434 70.431,263.956 73.958 C 263.271 74.932,262.576 75.887,262.411 76.080 C 262.246 76.273,261.988 76.656,261.837 76.931 C 261.686 77.207,261.208 77.893,260.775 78.456 C 259.991 79.473,259.455 80.234,257.558 83.021 C 257.012 83.823,256.518 84.526,256.459 84.583 C 255.593 85.427,255.209 86.304,255.212 87.434 C 255.217 89.527,255.282 89.549,261.428 89.542 C 267.385 89.536,266.875 89.209,266.875 93.034 C 266.875 96.382,266.809 96.246,268.521 96.401 C 270.590 96.589,270.605 96.564,270.672 92.860 L 270.729 89.688 272.396 89.572 C 274.698 89.411,274.792 89.351,274.792 88.024 C 274.792 86.640,274.655 86.538,272.571 86.357 C 270.437 86.172,270.631 87.121,270.628 76.865 C 270.626 70.575,270.561 68.353,270.375 68.167 C 270.108 67.900,268.876 67.853,268.296 68.088 M276.677 68.198 C 276.290 68.585,276.428 68.797,278.235 70.580 C 279.212 71.544,280.154 72.628,280.327 72.989 C 280.501 73.350,280.915 74.115,281.247 74.688 C 282.066 76.103,282.292 76.622,282.292 77.096 C 282.292 77.317,282.503 78.085,282.760 78.801 C 283.471 80.777,283.466 91.099,282.753 93.001 C 282.499 93.678,282.290 94.428,282.289 94.668 C 282.287 94.908,282.170 95.307,282.028 95.555 C 281.887 95.802,281.373 96.704,280.886 97.559 C 280.317 98.558,279.361 99.748,278.209 100.892 C 275.606 103.478,276.058 104.504,278.935 102.538 C 281.352 100.886,285.208 96.549,285.208 95.482 C 285.208 95.363,285.384 95.041,285.598 94.768 C 285.812 94.494,286.053 93.943,286.134 93.542 C 286.215 93.141,286.459 92.344,286.678 91.771 C 287.636 89.252,287.520 82.168,286.477 79.479 C 285.421 76.760,285.080 76.073,283.838 74.167 C 282.317 71.831,282.104 71.595,279.792 69.663 C 278.050 68.208,277.110 67.765,276.677 68.198 M270.290 68.455 C 270.360 68.636,270.417 72.626,270.417 77.322 C 270.417 87.342,270.267 86.667,272.482 86.667 C 274.441 86.667,274.676 86.846,274.474 88.188 L 274.336 89.110 272.558 89.221 C 270.341 89.360,270.424 89.215,270.420 92.946 C 270.417 95.534,270.367 96.016,270.087 96.124 C 269.584 96.317,268.216 96.274,267.618 96.047 L 267.083 95.844 267.083 92.829 C 267.083 88.854,267.592 89.167,261.123 89.167 L 256.090 89.167 255.729 88.616 C 255.167 87.759,255.891 84.792,256.662 84.792 C 256.751 84.792,256.941 84.510,257.083 84.167 C 257.226 83.823,257.409 83.542,257.490 83.542 C 257.571 83.542,257.770 83.284,257.931 82.969 C 258.091 82.654,258.623 81.895,259.112 81.283 C 259.600 80.671,260.000 80.098,260.000 80.010 C 260.000 79.863,260.867 78.665,261.508 77.926 C 261.653 77.759,262.074 77.150,262.445 76.572 C 262.815 75.994,263.261 75.333,263.436 75.104 C 263.611 74.875,263.968 74.406,264.230 74.063 C 264.491 73.719,264.889 73.166,265.113 72.834 C 265.724 71.929,266.081 71.409,266.771 70.422 C 267.115 69.930,267.558 69.282,267.757 68.982 C 268.299 68.166,270.040 67.803,270.290 68.455 M278.271 68.617 C 278.363 68.773,279.168 69.519,280.061 70.275 C 281.796 71.743,283.018 73.085,283.231 73.755 C 283.303 73.981,283.448 74.167,283.553 74.167 C 283.658 74.167,283.877 74.483,284.038 74.870 C 284.200 75.257,284.429 75.634,284.547 75.707 C 284.665 75.780,284.874 76.189,285.011 76.617 C 285.149 77.046,285.378 77.536,285.521 77.708 C 285.664 77.880,285.845 78.381,285.924 78.820 C 286.003 79.260,286.271 80.010,286.519 80.487 C 287.150 81.696,287.225 90.372,286.614 91.305 C 286.413 91.612,286.142 92.358,286.013 92.963 C 285.884 93.568,285.603 94.286,285.389 94.559 C 285.175 94.833,284.999 95.161,284.997 95.289 C 284.995 95.416,284.664 95.990,284.261 96.563 C 283.858 97.135,283.310 97.932,283.043 98.333 C 282.603 98.994,281.580 100.042,279.991 101.458 C 279.178 102.183,277.615 103.125,277.225 103.125 C 276.595 103.125,276.663 102.723,277.407 102.042 C 277.821 101.664,278.456 101.034,278.819 100.642 C 279.182 100.250,279.650 99.782,279.859 99.600 C 280.067 99.419,280.377 98.990,280.547 98.646 C 281.109 97.507,281.624 96.643,281.959 96.272 C 282.142 96.070,282.378 95.491,282.484 94.984 C 282.590 94.477,282.846 93.641,283.052 93.125 C 283.679 91.563,283.605 79.931,282.958 78.378 C 282.706 77.772,282.499 77.069,282.497 76.815 C 282.495 76.562,282.358 76.120,282.192 75.833 C 282.025 75.547,281.693 74.938,281.453 74.479 C 280.224 72.133,280.414 72.383,278.127 70.112 C 277.324 69.315,276.667 68.588,276.667 68.498 C 276.667 68.213,278.096 68.319,278.271 68.617 M150.759 73.001 C 150.461 73.391,150.113 73.977,149.984 74.303 C 149.856 74.629,149.585 75.271,149.383 75.729 C 148.864 76.903,148.334 78.484,148.090 79.583 C 147.976 80.099,147.703 81.335,147.483 82.330 C 146.686 85.937,147.037 91.980,148.255 95.625 C 148.427 96.141,148.696 97.014,148.852 97.565 C 149.008 98.117,149.283 98.793,149.464 99.068 C 149.644 99.343,149.792 99.697,149.792 99.853 C 149.792 100.709,151.076 102.083,151.878 102.083 C 152.945 102.083,153.333 101.910,153.333 101.433 C 153.333 100.808,151.951 96.259,151.316 94.794 C 150.731 93.444,150.309 88.132,150.588 85.624 C 150.723 84.411,150.833 82.951,150.833 82.380 C 150.833 81.808,150.979 80.828,151.156 80.202 C 151.333 79.575,151.605 78.547,151.760 77.917 C 151.915 77.286,152.370 75.999,152.772 75.055 L 153.502 73.340 153.090 72.816 C 152.459 72.013,151.451 72.093,150.759 73.001 M152.705 73.016 C 153.008 73.382,152.640 75.299,152.160 75.850 C 152.003 76.032,151.773 76.726,151.649 77.393 C 151.526 78.061,151.290 78.814,151.124 79.067 C 150.934 79.356,150.749 80.523,150.626 82.211 C 150.517 83.688,150.332 85.223,150.214 85.624 C 149.947 86.533,149.944 88.998,150.210 90.104 C 150.320 90.563,150.507 91.760,150.625 92.766 C 150.748 93.818,151.014 94.923,151.253 95.367 C 151.480 95.792,151.667 96.377,151.667 96.667 C 151.667 96.957,151.847 97.529,152.067 97.940 C 152.533 98.810,153.023 101.088,152.845 101.554 C 152.431 102.632,150.000 100.983,150.000 99.624 C 150.000 99.457,149.820 99.028,149.601 98.670 C 149.381 98.313,149.133 97.646,149.048 97.188 C 148.964 96.729,148.730 96.026,148.529 95.625 C 148.328 95.224,148.102 94.272,148.026 93.509 C 147.950 92.747,147.754 91.677,147.590 91.132 C 147.191 89.807,147.189 85.066,147.587 83.533 C 147.749 82.908,147.974 81.730,148.086 80.916 C 148.199 80.103,148.428 79.165,148.597 78.833 C 148.765 78.501,148.970 77.854,149.052 77.396 C 149.134 76.938,149.369 76.281,149.574 75.938 C 149.779 75.594,150.010 75.044,150.087 74.716 C 150.444 73.207,152.016 72.186,152.705 73.016 M265.232 75.037 C 264.769 75.761,264.276 76.486,264.136 76.647 C 263.698 77.151,262.500 78.942,262.500 79.092 C 262.500 79.171,262.357 79.384,262.183 79.566 C 261.661 80.108,260.625 81.504,260.625 81.665 C 260.625 81.747,260.391 82.067,260.104 82.376 C 259.818 82.685,259.583 83.074,259.583 83.240 C 259.583 83.406,259.506 83.542,259.412 83.542 C 258.849 83.542,257.769 85.925,258.133 86.364 C 258.532 86.844,266.291 86.806,266.693 86.322 C 267.250 85.652,267.097 74.401,266.526 74.021 C 266.093 73.733,266.036 73.778,265.232 75.037 M110.167 74.686 C 107.710 75.545,106.724 76.735,107.273 78.179 C 107.518 78.824,108.367 78.967,108.942 78.460 C 110.372 77.199,113.053 76.825,114.424 77.694 C 115.686 78.495,115.875 78.902,115.855 80.786 C 115.827 83.527,114.512 85.551,109.202 91.024 C 106.909 93.388,106.348 94.780,107.199 95.995 C 107.522 96.456,107.549 96.458,113.501 96.438 C 120.586 96.413,120.499 96.427,120.585 95.260 C 120.711 93.538,120.720 93.542,116.282 93.542 C 111.138 93.542,111.111 93.524,113.077 91.443 C 116.047 88.296,118.750 84.840,118.750 84.189 C 118.750 84.053,118.943 83.563,119.179 83.101 C 120.241 81.018,119.534 76.989,117.870 75.643 C 116.070 74.188,112.765 73.777,110.167 74.686 M159.671 74.673 C 157.610 75.400,156.835 76.172,156.914 77.419 C 156.999 78.750,157.405 78.817,159.462 77.841 C 163.049 76.138,165.417 76.998,165.417 80.003 C 165.417 82.470,163.795 83.750,160.671 83.750 C 158.818 83.750,158.542 83.925,158.542 85.104 C 158.542 86.274,158.763 86.396,161.192 86.555 C 164.997 86.805,166.896 88.465,166.371 91.082 C 165.849 93.681,161.674 94.577,158.257 92.823 C 156.248 91.792,155.362 94.303,157.303 95.528 C 159.044 96.627,164.984 96.878,166.357 95.910 C 166.699 95.669,167.176 95.410,167.416 95.336 C 168.479 95.006,169.840 92.559,170.115 90.480 C 170.343 88.762,169.043 86.312,167.500 85.551 C 166.835 85.222,166.889 84.496,167.637 83.716 C 169.542 81.727,169.567 77.735,167.685 75.810 C 166.157 74.246,162.391 73.712,159.671 74.673 M266.692 74.807 C 266.983 75.848,266.880 85.276,266.572 85.833 C 266.166 86.567,258.324 86.695,258.338 85.968 C 258.345 85.592,259.112 84.136,259.740 83.306 C 260.055 82.890,260.725 81.952,261.230 81.223 C 261.735 80.493,262.204 79.849,262.272 79.792 C 262.340 79.734,262.956 78.852,263.642 77.832 C 264.327 76.811,264.994 75.869,265.125 75.738 C 265.256 75.607,265.521 75.194,265.714 74.820 C 266.109 74.057,266.481 74.052,266.692 74.807 M72.817 74.786 C 72.492 75.146,72.478 75.283,72.711 75.880 C 72.938 76.462,76.987 84.713,77.493 85.625 C 78.736 87.864,78.750 87.936,78.750 92.061 C 78.750 96.432,78.758 96.458,80.160 96.458 C 81.912 96.458,81.875 96.554,81.875 92.065 C 81.875 88.567,81.922 88.013,82.274 87.333 C 82.494 86.909,82.780 86.328,82.910 86.042 C 83.273 85.238,83.751 84.304,83.973 83.958 C 84.084 83.786,84.316 83.318,84.488 82.917 C 84.661 82.516,84.889 82.047,84.995 81.875 C 85.101 81.703,85.762 80.391,86.463 78.958 C 87.165 77.526,87.826 76.191,87.932 75.992 C 88.596 74.748,86.598 73.758,85.283 74.680 C 84.904 74.945,82.277 79.930,81.687 81.500 C 81.407 82.249,80.451 83.751,80.258 83.747 C 80.173 83.746,79.834 83.160,79.504 82.445 C 79.174 81.731,78.401 80.108,77.785 78.839 C 77.170 77.571,76.667 76.473,76.667 76.401 C 76.667 76.189,75.624 74.712,75.352 74.539 C 74.824 74.203,73.202 74.362,72.817 74.786 M115.729 74.882 C 118.771 75.745,120.465 79.892,118.966 82.804 C 118.733 83.258,118.542 83.779,118.542 83.962 C 118.542 84.145,118.307 84.612,118.021 85.000 C 117.734 85.388,117.500 85.797,117.500 85.908 C 117.500 86.020,117.364 86.259,117.197 86.441 C 117.031 86.622,116.679 87.003,116.416 87.287 C 116.153 87.572,115.622 88.181,115.237 88.642 C 114.852 89.102,113.844 90.209,112.998 91.101 C 110.612 93.615,110.765 93.750,116.013 93.750 C 120.248 93.750,120.417 93.806,120.417 95.210 C 120.417 96.267,120.270 96.287,113.029 96.208 L 107.413 96.146 107.259 95.417 C 106.989 94.137,107.381 93.358,109.324 91.307 C 110.326 90.250,111.568 88.907,112.083 88.323 C 112.599 87.739,113.181 87.101,113.376 86.905 C 113.826 86.454,114.991 84.741,114.996 84.523 C 114.998 84.432,115.189 84.102,115.421 83.789 C 116.024 82.973,116.326 80.847,116.035 79.449 C 115.573 77.223,112.852 76.127,110.679 77.292 C 110.252 77.521,109.796 77.708,109.667 77.708 C 109.537 77.708,109.185 77.902,108.883 78.139 C 107.922 78.895,107.341 78.410,107.497 76.983 C 107.566 76.356,108.951 75.258,109.877 75.095 C 110.324 75.017,110.981 74.822,111.335 74.663 C 112.136 74.304,114.025 74.398,115.729 74.882 M165.214 74.869 C 168.816 75.988,170.206 80.810,167.624 83.231 C 166.287 84.484,166.141 85.305,167.176 85.738 C 168.281 86.199,168.962 87.022,169.485 88.524 L 169.963 89.896 169.513 91.566 C 169.005 93.449,168.076 94.806,167.009 95.224 C 166.649 95.365,166.233 95.631,166.085 95.813 C 165.171 96.941,157.296 95.980,156.797 94.680 C 156.233 93.210,156.909 92.376,158.109 93.062 C 159.438 93.822,162.146 94.282,163.405 93.962 C 165.811 93.350,166.563 92.473,166.563 90.277 L 166.563 88.751 165.534 87.793 C 164.227 86.576,164.090 86.529,161.294 86.348 L 158.967 86.197 158.840 85.516 C 158.600 84.242,158.959 83.958,160.810 83.958 C 162.433 83.958,163.750 83.669,163.750 83.313 C 163.750 83.210,163.875 83.125,164.028 83.125 C 164.508 83.125,165.480 81.836,165.633 80.996 C 166.299 77.353,163.146 75.544,159.479 77.465 C 157.724 78.385,157.083 78.360,157.083 77.372 C 157.083 76.372,158.195 75.317,159.560 75.024 C 160.088 74.911,160.755 74.724,161.042 74.610 C 161.925 74.256,163.574 74.359,165.214 74.869 M75.313 74.951 C 75.693 75.229,76.616 76.761,76.747 77.329 C 76.818 77.636,77.016 78.028,77.188 78.200 C 77.360 78.371,77.500 78.588,77.500 78.680 C 77.500 78.773,77.726 79.318,78.003 79.893 C 78.280 80.467,78.799 81.562,79.157 82.325 C 80.094 84.323,80.231 84.384,81.128 83.210 C 81.539 82.672,81.875 82.023,81.875 81.769 C 81.875 81.514,82.063 81.068,82.292 80.776 C 82.521 80.485,82.708 80.175,82.708 80.088 C 82.708 79.903,83.890 77.338,84.188 76.875 C 84.299 76.703,84.538 76.219,84.719 75.799 C 85.383 74.264,87.966 74.418,87.578 75.970 C 87.449 76.486,86.390 78.671,85.828 79.583 C 85.722 79.755,85.494 80.224,85.322 80.625 C 85.149 81.026,84.929 81.495,84.831 81.667 C 84.733 81.839,84.514 82.260,84.343 82.604 C 84.172 82.948,83.932 83.417,83.809 83.646 C 83.687 83.875,83.483 84.297,83.357 84.583 C 83.231 84.870,83.043 85.245,82.939 85.417 C 81.730 87.418,81.667 87.744,81.667 91.994 L 81.667 96.034 81.178 96.156 C 80.909 96.224,80.323 96.249,79.876 96.212 L 79.063 96.146 78.958 91.875 C 78.848 87.333,78.899 87.589,77.669 85.417 C 77.571 85.245,77.351 84.776,77.178 84.375 C 77.006 83.974,76.778 83.505,76.672 83.333 C 76.123 82.443,75.000 80.140,75.000 79.905 C 75.000 79.756,74.864 79.522,74.698 79.384 C 74.532 79.246,74.286 78.789,74.151 78.369 C 74.016 77.948,73.772 77.451,73.610 77.264 C 73.124 76.707,72.848 75.438,73.137 75.090 C 73.396 74.778,74.942 74.680,75.313 74.951 M177.708 77.925 C 176.705 78.104,175.116 78.811,174.888 79.179 C 174.652 79.561,174.981 79.684,176.520 79.792 C 178.280 79.915,178.809 80.445,179.069 82.346 C 179.151 82.946,179.395 83.989,179.609 84.663 C 180.187 86.473,180.119 87.217,179.266 88.438 C 178.865 89.010,178.120 90.089,177.609 90.833 C 177.097 91.578,176.394 92.499,176.046 92.880 L 175.412 93.573 173.561 93.428 C 171.383 93.257,170.865 93.621,171.112 95.146 C 171.288 96.230,171.679 96.523,173.067 96.612 C 175.037 96.739,175.809 96.106,179.357 91.462 C 180.608 89.825,180.721 89.826,181.144 91.481 C 182.402 96.406,183.066 97.175,185.522 96.553 C 187.666 96.009,190.790 91.458,189.019 91.458 C 188.851 91.458,188.212 91.980,187.599 92.619 C 186.128 94.150,185.244 93.770,184.901 91.458 C 184.824 90.943,184.584 89.990,184.366 89.340 C 184.149 88.691,183.913 87.426,183.842 86.528 L 183.714 84.896 184.572 83.646 C 185.043 82.958,185.617 82.101,185.847 81.741 C 186.329 80.986,187.270 80.524,187.912 80.728 C 188.721 80.985,190.249 80.882,190.583 80.548 C 191.057 80.074,191.012 78.354,190.516 77.991 C 189.015 76.894,186.451 78.167,184.348 81.055 C 183.258 82.552,183.137 82.489,182.299 79.975 C 181.530 77.671,180.844 77.365,177.708 77.925 M180.995 78.140 C 181.531 78.327,181.658 78.504,181.777 79.234 C 182.157 81.560,183.276 83.113,183.881 82.153 C 184.473 81.214,186.266 79.081,186.639 78.873 C 186.826 78.768,187.050 78.564,187.138 78.419 C 187.360 78.048,189.353 77.836,190.063 78.108 C 190.613 78.318,190.643 78.394,190.584 79.426 L 190.521 80.521 188.750 80.521 C 186.611 80.521,186.196 80.654,185.651 81.520 C 185.420 81.887,184.898 82.656,184.493 83.229 C 183.459 84.690,183.247 85.423,183.513 86.623 C 183.633 87.163,183.793 88.026,183.869 88.542 C 183.945 89.057,184.128 89.715,184.275 90.003 C 184.423 90.291,184.609 90.994,184.690 91.565 C 185.055 94.147,186.794 94.633,188.051 92.505 C 188.417 91.885,189.132 91.549,189.437 91.854 C 189.532 91.949,189.447 92.190,189.247 92.390 C 189.047 92.590,188.736 93.010,188.556 93.323 C 187.439 95.269,186.659 95.994,185.371 96.283 C 183.675 96.665,182.435 95.888,182.181 94.286 C 182.002 93.155,181.030 90.172,180.732 89.838 C 180.545 89.629,180.319 89.799,179.674 90.635 C 179.223 91.220,178.714 91.857,178.542 92.051 C 178.370 92.244,178.065 92.655,177.865 92.964 C 175.780 96.180,172.003 97.680,171.426 95.522 C 170.989 93.889,171.800 93.270,173.815 93.699 C 175.359 94.028,175.894 93.739,177.197 91.875 C 177.477 91.474,177.918 90.852,178.176 90.493 C 180.307 87.531,180.276 87.601,180.151 85.949 C 180.088 85.110,179.889 84.139,179.709 83.792 C 179.530 83.445,179.320 82.628,179.244 81.976 C 179.023 80.101,178.462 79.583,176.648 79.583 C 175.285 79.583,174.724 79.301,175.573 79.043 C 175.773 78.981,176.313 78.751,176.771 78.530 C 177.998 77.940,179.913 77.763,180.995 78.140 M123.732 80.567 C 123.584 80.958,123.584 81.265,123.733 81.557 C 124.026 82.130,125.160 83.922,126.072 85.252 C 126.284 85.562,126.458 85.896,126.458 85.993 C 126.458 86.090,126.693 86.487,126.979 86.875 C 127.577 87.685,127.643 88.453,127.174 89.123 C 126.994 89.380,126.735 89.799,126.598 90.055 C 126.461 90.311,125.718 91.470,124.945 92.631 C 122.858 95.768,122.881 96.458,125.073 96.458 C 126.068 96.458,126.631 95.961,127.628 94.202 C 127.844 93.820,128.162 93.258,128.334 92.952 C 129.519 90.849,129.945 90.601,130.625 91.617 C 131.136 92.380,131.373 92.777,132.164 94.192 C 133.388 96.383,134.837 97.069,136.383 96.191 L 136.828 95.938 136.339 94.896 C 136.070 94.323,135.614 93.479,135.326 93.021 C 135.037 92.563,134.619 91.853,134.395 91.444 C 134.172 91.036,133.841 90.579,133.661 90.429 C 133.481 90.280,133.331 90.052,133.329 89.922 C 133.326 89.793,133.141 89.453,132.917 89.167 C 132.123 88.152,132.275 87.768,135.278 83.214 C 136.778 80.940,136.642 80.000,134.814 80.000 C 133.814 80.000,132.622 81.298,131.335 83.787 C 131.153 84.139,130.757 84.640,130.456 84.899 L 129.907 85.371 129.277 84.404 C 128.930 83.872,128.525 83.203,128.378 82.917 C 127.191 80.605,126.493 80.000,125.014 80.000 C 124.045 80.000,123.928 80.052,123.732 80.567 M126.514 80.744 C 127.129 81.262,127.540 81.870,128.215 83.267 C 128.391 83.632,128.628 83.987,128.741 84.057 C 128.855 84.127,129.101 84.509,129.289 84.905 C 129.788 85.956,130.737 85.555,131.571 83.943 C 131.768 83.561,132.057 83.121,132.215 82.964 C 132.372 82.807,132.503 82.568,132.506 82.433 C 132.510 82.298,132.862 81.783,133.289 81.289 C 134.701 79.657,136.768 80.016,135.853 81.734 C 135.325 82.727,134.879 83.420,134.537 83.779 C 134.339 83.987,134.118 84.393,134.045 84.682 C 133.973 84.972,133.828 85.208,133.723 85.208 C 133.618 85.208,133.423 85.466,133.289 85.781 C 133.155 86.096,132.884 86.542,132.687 86.771 C 132.131 87.418,132.092 88.616,132.607 89.281 C 132.780 89.504,133.216 90.156,133.575 90.729 C 133.935 91.302,134.450 92.104,134.719 92.511 C 134.988 92.918,135.208 93.349,135.208 93.468 C 135.208 93.588,135.394 93.853,135.621 94.059 C 136.785 95.112,136.348 96.242,134.775 96.247 C 133.738 96.250,133.852 96.370,131.997 93.333 C 131.556 92.610,131.363 92.301,130.671 91.201 C 130.036 90.193,129.308 90.629,128.136 92.720 C 127.830 93.266,127.340 94.100,126.489 95.521 C 126.195 96.013,125.945 96.160,125.317 96.212 C 123.105 96.397,123.091 95.954,125.207 92.708 C 125.319 92.536,125.644 92.068,125.929 91.667 C 126.214 91.266,126.546 90.716,126.666 90.444 C 126.785 90.173,127.069 89.715,127.296 89.427 C 127.876 88.689,127.831 87.539,127.188 86.667 C 126.901 86.278,126.667 85.875,126.667 85.771 C 126.667 85.666,126.432 85.302,126.146 84.962 C 125.859 84.622,125.625 84.230,125.625 84.093 C 125.625 83.955,125.438 83.682,125.208 83.486 C 124.979 83.290,124.792 82.995,124.792 82.831 C 124.792 82.666,124.562 82.259,124.281 81.925 C 123.097 80.518,125.030 79.496,126.514 80.744 M90.356 82.523 C 89.915 83.087,89.867 83.280,90.044 83.786 C 90.393 84.789,90.618 84.819,97.316 84.751 C 104.363 84.680,104.327 84.688,104.085 83.143 C 103.900 81.965,104.006 81.984,97.199 81.919 L 90.877 81.858 90.356 82.523 M103.073 82.305 C 104.193 82.695,104.199 84.233,103.082 84.457 C 101.782 84.717,90.898 84.599,90.671 84.323 C 90.299 83.869,90.303 83.225,90.683 82.645 L 91.051 82.083 96.745 82.083 C 100.227 82.083,102.684 82.169,103.073 82.305 M219.693 84.573 C 219.262 85.406,219.293 85.967,219.810 86.692 L 220.244 87.302 231.484 87.245 C 244.074 87.181,243.116 87.317,243.122 85.585 C 243.127 83.873,243.757 83.958,231.105 83.958 L 220.011 83.958 219.693 84.573 M242.434 84.620 C 243.119 85.263,243.094 86.311,242.386 86.633 C 241.440 87.064,220.656 86.968,220.173 86.530 C 219.706 86.108,219.681 85.251,220.116 84.630 L 220.440 84.167 231.196 84.167 L 241.952 84.167 242.434 84.620 M90.365 88.767 C 89.822 89.083,89.889 90.240,90.482 90.797 C 90.976 91.261,102.802 91.529,103.458 91.091 C 104.102 90.661,104.382 89.257,103.917 88.792 C 103.593 88.468,90.917 88.445,90.365 88.767 M103.869 89.256 C 104.259 90.811,103.976 90.874,96.771 90.845 C 90.375 90.820,90.417 90.828,90.417 89.561 C 90.417 88.765,90.249 88.785,97.340 88.766 L 103.742 88.750 103.869 89.256 " stroke="none" fill="#7c7c7c" fill-rule="evenodd"></path></g></svg>