<svg id="svg" version="1.1" xmlns="http://www.w3.org/2000/svg" xmlns:xlink="http://www.w3.org/1999/xlink" width="400" height="306.6997518610422" viewBox="0, 0, 400,306.6997518610422"><g id="svgg"><path id="path0" d="M183.680 110.331 C 183.393 110.407,183.074 110.771,182.972 111.139 C 182.772 111.863,182.082 113.705,181.456 115.184 C 181.242 115.690,180.765 116.933,180.396 117.945 C 180.027 118.957,179.525 120.176,179.280 120.654 C 179.035 121.131,178.834 121.761,178.834 122.052 C 178.834 122.344,178.632 122.850,178.384 123.178 C 178.136 123.505,177.925 123.980,177.913 124.233 C 177.902 124.486,177.627 125.245,177.301 125.920 C 176.975 126.595,176.703 127.381,176.698 127.666 C 176.692 127.951,176.564 128.261,176.414 128.353 C 176.264 128.446,176.053 128.903,175.944 129.368 C 175.835 129.834,175.556 130.629,175.324 131.135 C 175.093 131.641,174.672 132.676,174.390 133.436 C 174.108 134.195,173.681 135.207,173.442 135.684 C 173.202 136.162,173.001 136.714,172.996 136.911 C 172.990 137.109,172.719 137.822,172.393 138.497 C 172.067 139.172,171.795 139.881,171.790 140.072 C 171.784 140.264,171.573 140.816,171.321 141.299 C 171.069 141.783,170.862 142.393,170.861 142.656 C 170.860 142.919,170.656 143.402,170.409 143.730 C 170.161 144.057,169.953 144.532,169.947 144.785 C 169.940 145.038,169.729 145.641,169.477 146.124 C 169.225 146.607,169.018 147.132,169.018 147.291 C 169.018 147.450,168.767 148.159,168.459 148.867 C 167.944 150.053,167.179 151.939,166.546 153.585 C 166.020 154.953,165.118 155.037,164.726 153.756 C 164.533 153.124,164.255 152.331,164.109 151.994 C 162.974 149.372,162.577 148.334,162.577 147.992 C 162.577 147.774,162.376 147.205,162.131 146.727 C 161.886 146.250,161.382 145.031,161.012 144.018 C 160.641 143.006,160.151 141.743,159.924 141.211 C 159.696 140.680,159.505 140.059,159.499 139.831 C 159.494 139.603,159.287 139.149,159.039 138.822 C 158.792 138.494,158.585 137.942,158.579 137.595 C 158.574 137.247,158.367 136.695,158.119 136.368 C 157.871 136.040,157.669 135.515,157.669 135.201 C 157.669 134.887,157.352 134.164,156.965 133.594 L 156.261 132.559 153.758 134.454 C 150.898 136.620,150.788 136.810,152.397 136.810 C 153.999 136.810,156.135 139.323,156.135 141.209 C 156.135 141.469,156.268 141.764,156.430 141.864 C 156.593 141.965,156.858 142.490,157.020 143.033 C 157.181 143.575,157.611 144.778,157.975 145.706 C 158.340 146.633,158.769 147.834,158.930 148.374 C 159.091 148.914,159.424 149.742,159.671 150.215 C 159.917 150.687,160.120 151.307,160.121 151.592 C 160.122 151.878,160.245 152.187,160.395 152.280 C 160.545 152.372,160.757 152.829,160.866 153.295 C 160.975 153.760,161.254 154.555,161.485 155.061 C 161.717 155.567,162.113 156.534,162.365 157.209 C 164.554 163.074,164.626 163.060,167.211 156.288 C 167.598 155.276,168.024 154.317,168.159 154.156 C 168.294 153.996,168.410 153.651,168.415 153.390 C 168.421 153.128,168.692 152.362,169.018 151.687 C 169.344 151.012,169.616 150.245,169.621 149.982 C 169.627 149.719,169.835 149.236,170.082 148.908 C 170.330 148.581,170.537 148.029,170.542 147.681 C 170.548 147.334,170.755 146.782,171.003 146.454 C 171.250 146.127,171.462 145.652,171.473 145.399 C 171.484 145.146,171.760 144.387,172.086 143.712 C 172.412 143.037,172.688 142.278,172.699 142.025 C 172.710 141.771,172.922 141.296,173.169 140.969 C 173.417 140.641,173.620 140.135,173.620 139.844 C 173.620 139.552,173.816 138.923,174.055 138.445 C 174.295 137.967,174.720 136.956,175.000 136.196 C 175.280 135.437,175.705 134.425,175.945 133.948 C 176.184 133.470,176.385 132.918,176.391 132.721 C 176.397 132.523,176.668 131.810,176.994 131.135 C 177.320 130.460,177.591 129.751,177.597 129.560 C 177.603 129.368,177.814 128.816,178.066 128.333 C 178.318 127.849,178.525 127.239,178.526 126.976 C 178.527 126.713,178.730 126.230,178.978 125.902 C 179.226 125.575,179.434 125.100,179.440 124.847 C 179.446 124.594,179.658 123.991,179.910 123.508 C 180.162 123.025,180.373 122.472,180.379 122.281 C 180.384 122.089,180.656 121.380,180.982 120.706 C 181.308 120.031,181.579 119.245,181.585 118.960 C 181.590 118.675,181.728 118.359,181.890 118.259 C 182.053 118.158,182.321 117.632,182.485 117.090 C 184.073 111.861,183.093 112.270,194.041 112.270 C 204.062 112.270,204.294 112.246,204.294 111.196 C 204.294 110.811,204.076 110.411,203.809 110.309 C 203.260 110.098,184.486 110.119,183.680 110.331 M256.825 123.000 C 256.446 123.833,256.131 124.693,256.125 124.911 C 256.120 125.128,255.913 125.575,255.665 125.902 C 254.156 127.897,255.327 128.272,257.153 126.379 L 258.631 124.847 263.835 124.847 C 268.188 124.847,269.067 124.922,269.215 125.309 C 269.404 125.801,268.315 129.665,267.603 131.029 C 267.369 131.477,267.178 132.077,267.178 132.363 C 267.178 132.649,266.992 133.318,266.764 133.849 C 266.536 134.381,265.824 136.472,265.181 138.497 C 264.538 140.521,263.827 142.613,263.601 143.145 C 263.375 143.676,263.190 144.341,263.190 144.622 C 263.190 144.903,263.021 145.434,262.815 145.802 C 262.491 146.382,261.709 148.857,261.670 149.430 C 261.663 149.538,262.016 149.717,262.456 149.827 C 263.656 150.129,264.625 149.343,264.875 147.866 C 264.990 147.186,265.198 146.559,265.337 146.472 C 265.477 146.386,265.689 145.730,265.809 145.014 C 265.929 144.298,266.218 143.439,266.449 143.107 C 266.681 142.774,266.871 142.192,266.871 141.813 C 266.871 141.435,267.060 140.672,267.291 140.118 C 267.913 138.627,268.423 137.109,268.743 135.803 C 268.899 135.164,269.153 134.405,269.307 134.115 C 269.462 133.826,269.889 132.554,270.257 131.288 C 270.624 130.023,271.117 128.534,271.352 127.980 C 271.587 127.426,271.780 126.736,271.781 126.447 C 271.782 126.157,271.966 125.569,272.190 125.140 C 272.414 124.711,272.686 123.919,272.793 123.379 C 273.185 121.419,273.398 121.472,265.075 121.479 L 257.515 121.485 256.825 123.000 M228.528 131.417 C 228.528 138.086,229.140 137.423,222.979 137.423 L 217.803 137.423 217.617 138.166 C 217.153 140.012,217.182 140.023,222.696 140.115 C 225.602 140.164,227.879 140.333,228.060 140.513 C 228.237 140.690,228.441 143.128,228.528 146.103 L 228.681 151.380 229.791 151.473 C 231.232 151.594,231.279 151.404,231.284 145.494 C 231.289 139.889,230.769 140.378,236.931 140.184 C 242.333 140.014,242.826 139.826,242.091 138.214 L 241.731 137.423 237.103 137.423 C 230.880 137.423,231.289 137.786,231.284 132.274 C 231.279 126.515,231.243 126.380,229.719 126.380 L 228.528 126.380 228.528 131.417 M190.798 131.262 C 187.789 131.861,186.823 132.822,189.229 132.822 C 190.893 132.822,191.718 133.584,191.718 135.122 C 191.718 135.555,191.925 136.405,192.178 137.011 C 192.674 138.198,192.807 141.271,192.373 141.538 C 192.228 141.628,191.473 142.641,190.695 143.790 C 188.355 147.247,188.298 147.287,185.939 147.179 L 183.896 147.086 183.800 148.237 C 183.652 150.034,186.504 150.640,187.977 149.124 C 188.781 148.297,190.669 146.004,191.785 144.498 C 192.981 142.884,193.302 142.847,193.712 144.277 C 193.880 144.866,194.120 145.450,194.244 145.574 C 194.368 145.698,194.559 146.473,194.668 147.296 C 195.165 151.040,200.139 150.488,201.403 146.549 C 201.498 146.254,201.704 146.012,201.861 146.012 C 202.019 146.012,202.147 145.805,202.147 145.552 C 202.147 144.816,201.719 145.007,200.347 146.351 C 198.850 147.819,197.915 147.598,197.453 145.669 C 197.316 145.098,197.015 144.011,196.784 143.252 C 195.624 139.442,195.805 138.168,197.907 135.344 L 199.113 133.725 200.894 133.778 C 203.042 133.843,203.374 133.670,203.374 132.490 C 203.374 129.695,198.548 131.548,196.745 135.035 C 196.052 136.375,194.540 134.981,194.493 132.957 C 194.459 131.473,193.030 130.817,190.798 131.262 M72.699 155.194 C 72.699 155.351,73.010 155.574,73.390 155.689 C 74.564 156.046,75.408 157.066,75.627 158.392 C 75.742 159.091,75.943 159.801,76.073 159.969 C 76.203 160.138,76.456 160.897,76.636 161.656 C 77.267 164.328,77.689 165.809,78.135 166.909 C 78.711 168.330,78.520 170.912,77.628 173.773 C 77.259 174.954,76.824 176.472,76.659 177.147 C 76.079 179.530,75.133 180.772,73.386 181.442 C 70.891 182.398,71.365 182.515,77.743 182.515 C 83.367 182.515,85.482 182.204,82.900 181.757 C 80.302 181.306,79.978 180.340,81.095 176.380 C 81.357 175.452,81.733 174.072,81.932 173.313 C 82.360 171.672,83.427 168.928,83.721 168.712 C 83.835 168.627,84.742 167.523,85.736 166.258 C 86.730 164.992,87.628 163.888,87.730 163.804 C 87.832 163.719,88.734 162.615,89.734 161.350 C 92.090 158.367,92.881 157.445,94.095 156.265 C 95.494 154.905,95.501 154.908,91.411 154.908 C 87.899 154.908,86.665 155.232,88.658 155.630 C 90.110 155.921,90.303 158.064,88.980 159.202 C 88.882 159.287,88.427 159.908,87.969 160.583 C 87.511 161.258,86.752 162.231,86.283 162.745 C 85.813 163.260,84.892 164.387,84.236 165.250 C 83.495 166.224,82.880 166.756,82.614 166.654 C 82.094 166.455,81.288 164.962,81.290 164.202 C 81.291 163.899,81.088 163.029,80.840 162.270 C 79.087 156.908,79.124 156.032,81.118 155.658 C 81.715 155.546,82.127 155.331,82.034 155.181 C 81.807 154.813,72.699 154.826,72.699 155.194 M105.337 166.382 C 105.245 166.622,105.214 167.211,105.269 167.689 L 105.368 168.558 117.638 168.558 L 129.908 168.558 129.908 167.331 L 129.908 166.104 117.706 166.024 C 107.369 165.956,105.479 166.011,105.337 166.382 M145.782 171.062 C 145.194 171.299,145.327 172.333,145.992 172.689 C 146.396 172.905,167.809 173.006,213.011 173.006 L 279.436 173.006 279.624 172.257 C 279.728 171.845,279.722 171.361,279.612 171.183 C 279.408 170.853,146.598 170.733,145.782 171.062 M105.516 175.006 C 105.304 175.263,105.243 175.812,105.366 176.371 L 105.572 177.308 117.740 177.227 L 129.908 177.147 130.007 176.106 C 130.067 175.481,129.944 174.960,129.701 174.802 C 128.952 174.319,105.925 174.513,105.516 175.006 M219.856 183.499 C 218.220 183.933,216.481 186.083,216.634 187.480 C 216.746 188.497,216.746 188.497,217.083 187.730 C 218.996 183.373,225.957 185.420,225.064 190.077 C 224.684 192.066,224.246 193.401,223.943 193.502 C 223.765 193.561,223.620 193.755,223.620 193.933 C 223.620 194.385,220.721 197.873,218.097 200.579 C 215.363 203.398,215.317 203.364,221.856 203.370 C 227.592 203.375,228.221 203.163,228.221 201.227 C 228.221 200.721,228.359 200.307,228.528 200.307 C 228.696 200.307,228.834 200.173,228.834 200.010 C 228.834 199.847,228.332 200.010,227.718 200.373 C 226.816 200.905,225.962 201.058,223.270 201.169 L 219.939 201.306 219.939 200.576 C 219.939 200.084,220.891 198.798,222.863 196.626 C 226.625 192.482,227.433 190.882,227.225 187.981 C 226.954 184.187,224.010 182.396,219.856 183.499 M200.000 196.831 C 197.523 197.674,196.923 198.531,199.003 198.255 C 200.500 198.057,201.312 198.915,201.817 201.227 C 202.961 206.471,202.949 205.988,201.966 207.358 C 201.475 208.043,200.903 208.925,200.695 209.318 C 199.392 211.777,198.032 212.730,195.823 212.730 C 193.549 212.730,193.281 212.965,193.690 214.595 C 193.936 215.573,196.885 215.706,197.776 214.778 C 199.181 213.316,200.423 211.821,201.238 210.615 C 202.426 208.853,202.936 208.437,203.263 208.957 C 203.693 209.641,204.581 212.392,204.591 213.072 C 204.645 216.525,208.568 216.092,211.160 212.347 C 212.490 210.424,211.804 209.975,210.340 211.810 C 208.898 213.616,207.835 213.121,207.114 210.308 C 206.113 206.404,205.819 204.454,206.107 203.629 C 206.489 202.533,208.810 199.401,209.289 199.335 C 209.494 199.306,210.422 199.272,211.350 199.258 L 213.037 199.233 213.037 198.006 C 213.037 195.118,208.441 197.044,206.535 200.730 L 206.056 201.656 205.485 200.951 C 205.171 200.563,204.705 199.543,204.450 198.683 C 203.861 196.700,202.297 196.049,200.000 196.831 " stroke="none" fill="#1a1a1a" fill-rule="evenodd"></path><path id="path1" d="M0.000 153.374 L 0.000 306.748 200.000 306.748 L 400.000 306.748 400.000 153.374 L 400.000 0.000 200.000 0.000 L 0.000 0.000 0.000 153.374 M204.576 110.181 C 204.824 110.893,204.825 111.437,204.582 112.175 L 204.247 113.190 194.643 113.190 L 185.040 113.190 184.612 113.880 C 184.377 114.260,183.872 115.399,183.489 116.411 C 183.106 117.423,182.592 118.642,182.347 119.120 C 182.102 119.598,181.902 120.227,181.902 120.518 C 181.902 120.810,181.699 121.316,181.451 121.644 C 181.204 121.971,180.992 122.446,180.981 122.699 C 180.970 122.952,180.694 123.712,180.368 124.387 C 180.042 125.061,179.766 125.821,179.755 126.074 C 179.744 126.327,179.532 126.802,179.285 127.129 C 179.037 127.457,178.834 127.963,178.834 128.255 C 178.834 128.759,178.660 129.188,177.498 131.543 C 177.221 132.105,176.994 132.804,176.994 133.095 C 176.994 133.387,176.791 133.893,176.543 134.221 C 176.296 134.548,176.084 135.023,176.073 135.276 C 176.062 135.529,175.786 136.288,175.460 136.963 C 175.134 137.638,174.863 138.405,174.857 138.668 C 174.851 138.931,174.644 139.414,174.396 139.742 C 174.149 140.069,173.942 140.622,173.936 140.969 C 173.931 141.316,173.724 141.868,173.476 142.196 C 173.228 142.523,173.021 143.076,173.016 143.423 C 173.011 143.770,172.803 144.322,172.556 144.650 C 172.308 144.977,172.096 145.452,172.085 145.706 C 172.074 145.959,171.798 146.718,171.472 147.393 C 171.146 148.067,170.875 148.781,170.869 148.978 C 170.864 149.175,170.652 149.762,170.399 150.282 C 170.146 150.802,169.732 151.652,169.479 152.172 C 169.225 152.692,169.018 153.356,169.018 153.647 C 169.018 153.939,168.816 154.445,168.568 154.773 C 168.320 155.100,168.109 155.575,168.098 155.828 C 168.086 156.081,167.811 156.840,167.485 157.515 C 167.159 158.190,166.887 158.976,166.882 159.261 C 166.876 159.546,166.744 159.858,166.588 159.955 C 166.432 160.051,166.212 160.551,166.099 161.065 C 165.632 163.194,162.615 162.238,162.585 159.951 C 162.580 159.604,162.374 159.052,162.126 158.724 C 161.879 158.397,161.671 157.922,161.664 157.669 C 161.658 157.416,161.459 156.838,161.223 156.386 C 160.987 155.933,160.694 155.105,160.573 154.545 C 160.451 153.986,160.162 153.255,159.930 152.923 C 159.699 152.590,159.509 152.011,159.509 151.637 C 159.509 151.263,159.376 150.874,159.214 150.774 C 159.051 150.673,158.784 150.148,158.619 149.605 C 158.145 148.043,157.373 145.943,156.888 144.892 C 156.643 144.361,156.437 143.739,156.432 143.512 C 156.427 143.284,156.220 142.830,155.972 142.503 C 155.724 142.175,155.517 141.623,155.512 141.276 C 155.506 140.928,155.299 140.376,155.052 140.049 C 154.804 139.721,154.601 139.235,154.601 138.968 C 154.601 138.055,152.627 137.267,151.797 137.849 C 149.909 139.171,148.650 137.896,150.347 136.379 C 152.330 134.606,154.365 132.976,154.944 132.699 C 155.262 132.546,155.521 132.305,155.521 132.162 C 155.521 132.019,155.810 131.902,156.162 131.902 C 156.930 131.902,157.951 133.036,157.965 133.904 C 157.971 134.246,158.165 134.798,158.396 135.131 C 158.628 135.464,158.922 136.219,159.049 136.810 C 159.177 137.400,159.470 138.156,159.702 138.488 C 159.933 138.821,160.127 139.373,160.132 139.715 C 160.138 140.058,160.345 140.605,160.593 140.933 C 160.840 141.260,161.043 141.830,161.043 142.199 C 161.043 142.568,161.250 143.042,161.503 143.252 C 161.756 143.462,161.963 143.855,161.963 144.127 C 161.963 144.664,163.012 147.517,163.688 148.820 C 163.920 149.268,164.115 149.889,164.120 150.201 C 164.126 150.512,164.333 151.035,164.580 151.362 C 164.828 151.690,165.031 152.276,165.031 152.666 C 165.031 153.056,165.123 153.374,165.237 153.374 C 165.719 153.374,166.564 152.307,166.564 151.698 C 166.564 151.335,166.767 150.770,167.015 150.442 C 167.262 150.115,167.470 149.562,167.475 149.215 C 167.480 148.868,167.687 148.316,167.935 147.988 C 168.183 147.661,168.394 147.186,168.406 146.933 C 168.417 146.679,168.692 145.920,169.018 145.245 C 169.344 144.571,169.616 143.862,169.621 143.670 C 169.627 143.478,169.838 142.926,170.090 142.443 C 170.342 141.960,170.554 141.357,170.560 141.104 C 170.566 140.851,170.774 140.376,171.022 140.049 C 171.270 139.721,171.472 139.151,171.472 138.783 C 171.472 138.414,171.679 137.940,171.933 137.730 C 172.186 137.520,172.393 137.046,172.393 136.678 C 172.393 136.309,172.595 135.739,172.843 135.411 C 173.091 135.084,173.302 134.609,173.314 134.356 C 173.325 134.103,173.600 133.344,173.926 132.669 C 174.252 131.994,174.524 131.227,174.529 130.964 C 174.535 130.701,174.743 130.217,174.990 129.890 C 175.238 129.562,175.445 129.010,175.450 128.663 C 175.456 128.316,175.663 127.763,175.910 127.436 C 176.158 127.108,176.365 126.540,176.371 126.172 C 176.376 125.805,176.587 125.297,176.840 125.044 C 177.094 124.791,177.301 124.330,177.301 124.020 C 177.301 123.711,177.577 122.942,177.914 122.313 C 178.252 121.683,178.532 120.926,178.537 120.630 C 178.543 120.334,178.750 119.824,178.997 119.497 C 179.245 119.169,179.448 118.599,179.448 118.230 C 179.448 117.862,179.655 117.388,179.908 117.178 C 180.161 116.968,180.368 116.494,180.368 116.125 C 180.368 115.756,180.571 115.187,180.818 114.859 C 181.066 114.532,181.278 114.057,181.289 113.804 C 181.300 113.551,181.576 112.791,181.902 112.117 C 182.228 111.442,182.499 110.725,182.505 110.524 C 182.539 109.313,183.506 109.202,194.057 109.202 L 204.234 109.202 204.576 110.181 M273.558 121.227 C 273.992 121.660,274.034 122.494,273.659 123.240 C 273.512 123.533,273.076 124.808,272.690 126.074 C 272.304 127.339,271.803 128.809,271.577 129.341 C 271.351 129.872,271.166 130.571,271.166 130.893 C 271.166 131.214,270.963 131.746,270.715 132.073 C 270.468 132.401,270.261 133.087,270.255 133.597 C 270.250 134.108,270.058 134.798,269.829 135.131 C 269.600 135.464,269.318 136.248,269.204 136.874 C 269.089 137.499,268.794 138.396,268.549 138.867 C 268.303 139.338,268.101 139.950,268.100 140.226 C 268.099 140.502,267.892 141.123,267.640 141.606 C 267.388 142.089,267.176 142.830,267.170 143.252 C 267.164 143.673,266.956 144.286,266.708 144.614 C 266.460 144.941,266.258 145.541,266.258 145.947 C 266.258 146.353,266.060 147.051,265.818 147.499 C 265.576 147.946,265.296 148.696,265.196 149.165 C 264.934 150.398,263.273 151.156,261.995 150.627 C 260.834 150.146,260.559 149.345,261.150 148.160 C 261.401 147.657,261.703 146.795,261.820 146.245 C 261.938 145.695,262.149 145.102,262.289 144.927 C 262.430 144.751,262.678 144.061,262.840 143.393 C 263.223 141.820,263.764 140.251,264.298 139.162 C 264.532 138.685,264.725 137.994,264.726 137.629 C 264.727 137.263,264.934 136.568,265.186 136.085 C 265.438 135.601,265.644 135.001,265.644 134.751 C 265.644 134.500,265.836 133.860,266.071 133.329 C 266.576 132.187,267.411 129.717,267.785 128.260 C 267.931 127.691,268.199 127.077,268.381 126.895 C 269.596 125.680,268.905 125.460,263.872 125.460 L 259.032 125.460 258.044 126.363 C 257.500 126.860,257.055 127.396,257.055 127.555 C 257.055 128.359,255.467 128.916,254.872 128.321 C 254.168 127.617,254.543 126.244,256.554 122.163 L 257.196 120.859 265.193 120.859 C 271.004 120.859,273.291 120.960,273.558 121.227 M231.634 126.274 C 231.943 126.646,232.070 127.999,232.112 131.368 C 232.186 137.405,231.610 136.810,237.378 136.810 C 242.784 136.810,243.252 136.996,243.252 139.152 C 243.252 140.930,242.728 141.104,237.394 141.104 C 231.617 141.104,232.127 140.589,232.087 146.468 C 232.050 151.832,231.931 152.147,229.932 152.147 C 227.954 152.147,227.914 152.031,227.914 146.258 L 227.914 141.104 222.710 141.104 C 216.855 141.104,216.871 141.111,216.871 138.732 C 216.871 136.861,217.028 136.810,222.761 136.810 L 227.914 136.810 227.914 131.656 C 227.914 128.057,228.025 126.392,228.282 126.135 C 228.839 125.578,231.135 125.673,231.634 126.274 M193.724 130.558 C 194.452 131.035,195.706 133.366,195.706 134.241 C 195.706 134.473,195.844 134.663,196.012 134.663 C 196.181 134.663,196.319 134.549,196.319 134.410 C 196.319 133.720,199.350 130.991,200.592 130.563 C 202.987 129.738,204.893 131.389,203.856 133.393 C 203.343 134.385,203.088 134.466,200.824 134.361 C 198.134 134.235,195.565 139.747,197.298 141.927 C 197.456 142.126,197.665 143.053,197.761 143.988 C 198.028 146.574,198.731 147.038,200.156 145.570 C 202.067 143.602,203.669 144.768,202.090 146.977 C 197.872 152.878,194.291 151.936,193.173 144.632 C 193.099 144.147,192.759 144.434,191.555 145.993 C 187.644 151.060,185.865 151.983,183.775 150.030 C 182.045 148.415,183.603 145.259,185.602 146.329 C 187.198 147.183,187.856 146.653,191.217 141.799 C 192.305 140.228,192.320 140.167,191.897 139.038 C 191.659 138.403,191.389 137.262,191.297 136.503 C 190.987 133.952,190.564 133.441,188.765 133.438 C 185.629 133.433,186.295 131.271,189.571 130.825 C 190.330 130.721,191.227 130.516,191.564 130.370 C 192.476 129.973,192.886 130.009,193.724 130.558 M82.274 153.958 C 83.593 154.137,82.968 156.135,81.593 156.135 C 80.345 156.135,80.071 159.272,81.179 160.881 C 81.408 161.214,81.595 161.865,81.595 162.328 C 81.595 163.006,82.277 164.958,82.749 165.631 C 82.998 165.987,88.854 158.461,88.970 157.637 C 89.126 156.525,88.933 156.135,88.228 156.135 C 87.227 156.135,86.675 155.426,87.083 154.664 C 87.663 153.581,94.842 153.424,95.613 154.479 C 96.177 155.251,96.144 155.343,94.884 156.449 C 94.263 156.994,92.991 158.423,92.057 159.625 C 91.123 160.827,90.205 161.948,90.018 162.117 C 89.831 162.285,88.931 163.390,88.018 164.571 C 87.105 165.752,86.208 166.856,86.024 167.025 C 85.146 167.829,83.761 169.916,83.567 170.724 C 83.448 171.220,83.238 171.771,83.100 171.948 C 82.962 172.125,82.752 172.884,82.634 173.635 C 82.516 174.386,82.248 175.276,82.039 175.613 C 81.830 175.951,81.565 177.154,81.450 178.287 L 81.242 180.348 82.636 180.699 C 84.178 181.087,84.825 181.649,84.551 182.364 C 84.261 183.120,71.372 182.902,71.225 182.139 C 71.151 181.755,71.610 181.375,72.894 180.758 C 74.888 179.801,75.835 178.427,76.206 175.952 C 76.321 175.183,76.538 174.479,76.687 174.387 C 76.836 174.294,77.053 173.566,77.168 172.769 C 77.284 171.971,77.479 171.181,77.602 171.012 C 78.088 170.346,78.168 169.192,77.781 168.435 C 77.556 167.996,77.276 167.052,77.157 166.336 C 77.038 165.620,76.822 164.961,76.678 164.872 C 76.534 164.783,76.320 164.071,76.203 163.291 C 76.086 162.511,75.803 161.514,75.574 161.075 C 75.345 160.635,75.156 159.895,75.155 159.428 C 75.153 158.375,73.981 156.510,73.160 156.252 C 71.657 155.781,71.595 154.570,73.045 154.033 C 73.513 153.860,81.098 153.798,82.274 153.958 M130.200 165.693 C 130.860 165.994,130.982 166.253,130.982 167.363 C 130.982 169.686,131.303 169.632,117.587 169.632 L 105.556 169.632 105.079 168.950 C 104.463 168.072,104.466 166.437,105.083 165.819 C 105.703 165.200,128.862 165.084,130.200 165.693 M279.733 170.372 C 279.938 170.619,280.056 171.459,280.002 172.292 L 279.908 173.773 212.941 173.850 C 166.004 173.905,145.792 173.830,145.364 173.601 C 144.285 173.023,144.659 170.461,145.859 170.209 C 148.033 169.754,279.352 169.914,279.733 170.372 M130.421 174.127 C 131.162 174.798,131.218 177.451,130.496 177.728 C 130.230 177.830,124.429 177.914,117.605 177.914 L 105.200 177.914 104.878 177.071 C 104.528 176.153,104.710 174.688,105.254 174.032 C 105.825 173.344,129.654 173.434,130.421 174.127 M224.939 183.017 C 226.242 183.683,227.607 185.228,227.607 186.037 C 227.607 186.394,227.768 186.848,227.965 187.045 C 228.390 187.469,228.352 189.869,227.914 190.307 C 227.745 190.476,227.607 190.921,227.607 191.297 C 227.607 191.673,227.400 192.188,227.147 192.441 C 226.894 192.694,226.687 193.000,226.687 193.121 C 226.687 193.440,224.857 195.625,222.559 198.049 L 220.565 200.153 223.678 200.241 L 226.791 200.329 227.669 199.369 C 229.112 197.789,230.297 199.571,229.018 201.397 C 228.782 201.735,228.540 202.352,228.481 202.769 L 228.374 203.528 221.891 203.610 C 214.516 203.704,214.366 203.652,216.209 201.611 C 222.649 194.476,223.006 194.058,223.006 193.657 C 223.006 193.458,223.248 193.054,223.543 192.759 C 224.558 191.744,224.303 187.723,223.160 186.718 C 221.321 185.101,218.705 185.838,217.546 188.299 C 216.898 189.676,215.561 189.914,215.387 188.684 C 215.279 187.921,216.118 185.723,216.782 185.031 C 216.992 184.812,217.271 184.459,217.401 184.248 C 218.377 182.665,222.827 181.938,224.939 183.017 M203.808 196.176 C 204.413 196.573,205.013 197.771,205.709 199.971 C 205.803 200.266,206.078 200.087,206.582 199.404 C 209.244 195.796,212.697 194.763,213.930 197.206 C 214.691 198.713,213.678 199.847,211.570 199.847 C 209.842 199.847,207.669 201.226,207.669 202.323 C 207.669 202.523,207.462 202.857,207.209 203.067 C 206.600 203.573,206.599 206.391,207.207 207.557 C 207.459 208.040,207.666 208.897,207.667 209.462 C 207.669 210.417,208.487 212.270,208.907 212.270 C 209.009 212.270,209.477 211.787,209.948 211.196 C 211.095 209.758,212.577 209.650,212.577 211.005 C 212.577 211.491,212.370 212.060,212.117 212.270 C 211.863 212.480,211.656 212.789,211.656 212.957 C 211.656 213.791,207.958 216.564,206.847 216.564 C 205.382 216.564,203.777 213.949,203.207 210.631 L 203.004 209.452 202.220 210.554 C 201.789 211.161,201.320 211.656,201.178 211.656 C 201.036 211.656,200.920 211.810,200.920 211.997 C 200.920 214.146,196.067 217.095,194.248 216.052 C 191.650 214.561,193.057 210.898,195.824 211.950 C 196.665 212.270,198.160 212.095,198.160 211.677 C 198.160 211.485,200.981 207.531,201.832 206.531 C 202.271 206.016,202.207 204.898,201.687 203.988 C 201.446 203.566,201.244 202.709,201.238 202.083 C 201.217 199.850,200.373 198.777,198.680 198.827 C 196.417 198.895,195.886 198.169,197.431 197.119 C 198.079 196.679,199.025 196.305,199.534 196.288 C 200.044 196.272,200.805 196.147,201.227 196.012 C 202.424 195.629,203.031 195.667,203.808 196.176 " stroke="none" fill="#fbfbfb" fill-rule="evenodd"></path><path id="path2" d="M183.197 109.680 C 182.822 109.943,182.511 110.322,182.505 110.524 C 182.499 110.725,182.228 111.442,181.902 112.117 C 181.576 112.791,181.300 113.551,181.289 113.804 C 181.278 114.057,181.066 114.532,180.818 114.859 C 180.571 115.187,180.368 115.756,180.368 116.125 C 180.368 116.494,180.161 116.968,179.908 117.178 C 179.655 117.388,179.448 117.862,179.448 118.230 C 179.448 118.599,179.245 119.169,178.997 119.497 C 178.750 119.824,178.544 120.368,178.539 120.706 C 178.527 121.653,179.121 120.352,181.130 115.031 C 182.118 112.414,182.916 110.554,183.202 110.199 C 183.633 109.664,204.294 109.639,204.294 110.174 C 204.294 110.371,204.367 110.459,204.455 110.371 C 205.708 109.118,184.962 108.443,183.197 109.680 M204.154 112.250 C 204.018 112.470,200.858 112.577,194.483 112.577 L 185.014 112.577 184.378 113.385 C 184.028 113.829,183.742 114.344,183.742 114.528 C 183.742 114.713,183.248 116.109,182.644 117.631 C 182.040 119.153,181.337 120.951,181.082 121.626 C 180.827 122.301,180.429 123.267,180.197 123.773 C 179.965 124.279,179.687 125.074,179.578 125.540 C 179.469 126.005,179.257 126.462,179.107 126.555 C 178.957 126.647,178.834 126.949,178.834 127.224 C 178.834 127.882,179.725 126.770,179.755 126.074 C 179.766 125.821,180.042 125.061,180.368 124.387 C 180.694 123.712,180.970 122.952,180.981 122.699 C 180.992 122.446,181.204 121.971,181.451 121.644 C 181.699 121.316,181.902 120.810,181.902 120.518 C 181.902 120.227,182.102 119.598,182.347 119.120 C 182.592 118.642,183.106 117.423,183.489 116.411 C 183.872 115.399,184.377 114.260,184.612 113.880 L 185.040 113.190 194.634 113.190 C 203.251 113.190,204.249 113.139,204.422 112.686 C 204.648 112.097,204.449 111.772,204.154 112.250 M256.474 122.316 C 255.023 125.247,254.908 125.519,254.915 126.022 C 254.922 126.541,255.125 126.157,256.552 122.924 L 257.333 121.155 265.246 121.237 L 273.160 121.319 273.262 122.042 C 273.353 122.688,272.159 127.098,271.464 128.681 C 271.316 129.018,271.065 129.778,270.907 130.368 C 270.748 130.959,270.523 131.718,270.407 132.055 C 270.198 132.660,270.202 132.660,270.680 132.073 C 270.947 131.746,271.166 131.214,271.166 130.893 C 271.166 130.571,271.351 129.872,271.577 129.341 C 271.803 128.809,272.304 127.339,272.690 126.074 C 273.076 124.808,273.512 123.533,273.659 123.240 C 274.774 121.018,274.209 120.859,265.193 120.859 L 257.196 120.859 256.474 122.316 M177.801 122.505 C 177.526 123.085,177.301 123.790,177.301 124.071 C 177.301 124.353,177.094 124.791,176.840 125.044 C 176.587 125.297,176.376 125.805,176.371 126.172 C 176.365 126.540,176.158 127.108,175.910 127.436 C 175.663 127.763,175.465 128.316,175.471 128.663 C 175.482 129.376,176.651 127.181,176.686 126.380 C 176.698 126.127,176.909 125.652,177.157 125.325 C 177.405 124.997,177.607 124.535,177.607 124.298 C 177.607 124.060,177.832 123.391,178.108 122.811 C 178.383 122.232,178.539 121.688,178.455 121.604 C 178.370 121.519,178.076 121.925,177.801 122.505 M257.332 126.720 C 255.795 128.383,254.916 128.568,254.899 127.234 C 254.890 126.584,254.866 126.575,254.558 127.104 C 253.965 128.125,255.208 129.054,256.251 128.370 C 256.694 128.081,257.055 127.714,257.055 127.555 C 257.055 127.396,257.500 126.860,258.044 126.363 L 259.032 125.460 263.850 125.460 C 267.430 125.460,268.700 125.559,268.795 125.844 C 268.869 126.064,268.910 126.032,268.891 125.767 C 268.863 125.382,268.038 125.293,263.826 125.222 L 258.794 125.138 257.332 126.720 M228.282 126.135 C 228.025 126.392,227.914 128.057,227.914 131.656 L 227.914 136.810 222.761 136.810 C 217.028 136.810,216.871 136.861,216.871 138.732 C 216.871 141.111,216.855 141.104,222.710 141.104 L 227.914 141.104 227.914 146.258 C 227.914 152.031,227.954 152.147,229.932 152.147 C 231.931 152.147,232.050 151.832,232.087 146.468 C 232.127 140.589,231.617 141.104,237.394 141.104 C 242.728 141.104,243.252 140.930,243.252 139.152 C 243.252 136.996,242.784 136.810,237.378 136.810 C 231.610 136.810,232.186 137.405,232.112 131.368 C 232.070 127.999,231.943 126.646,231.634 126.274 C 231.135 125.673,228.839 125.578,228.282 126.135 M231.110 126.260 C 231.526 126.419,231.595 127.183,231.595 131.592 C 231.595 137.705,230.956 137.106,237.489 137.112 C 242.423 137.117,242.638 137.199,242.638 139.068 C 242.638 140.621,242.076 140.798,237.120 140.798 C 231.024 140.798,231.595 140.261,231.595 145.986 C 231.595 151.571,231.468 151.939,229.589 151.786 L 228.374 151.687 228.221 146.319 L 228.067 140.951 223.006 140.870 C 217.424 140.780,217.173 140.692,217.183 138.822 C 217.191 137.161,217.263 137.138,222.866 137.048 L 228.067 136.963 228.147 131.902 C 228.244 125.718,228.488 125.254,231.110 126.260 M268.123 127.254 C 267.941 127.595,267.797 128.124,267.803 128.431 C 267.811 128.764,267.997 128.569,268.268 127.944 C 268.765 126.799,268.653 126.264,268.123 127.254 M178.322 128.755 C 177.902 129.749,176.800 132.521,176.219 134.049 C 175.995 134.640,175.387 136.209,174.869 137.538 C 174.350 138.866,173.931 140.039,173.936 140.145 C 173.957 140.550,174.847 139.122,174.857 138.668 C 174.863 138.405,175.134 137.638,175.460 136.963 C 175.786 136.288,176.062 135.529,176.073 135.276 C 176.084 135.023,176.296 134.548,176.543 134.221 C 176.791 133.893,176.994 133.387,176.994 133.095 C 176.994 132.804,177.184 132.174,177.416 131.697 C 178.647 129.167,178.893 128.550,178.791 128.245 C 178.730 128.060,178.518 128.290,178.322 128.755 M267.230 129.975 C 267.044 130.444,266.797 131.233,266.681 131.728 C 266.565 132.223,266.285 132.982,266.059 133.415 C 265.833 133.848,265.647 134.428,265.646 134.704 C 265.645 134.980,265.438 135.601,265.186 136.085 C 264.934 136.568,264.734 137.308,264.741 137.730 C 264.748 138.152,265.441 136.442,266.281 133.929 C 267.618 129.929,268.190 127.547,267.230 129.975 M174.871 130.015 C 174.689 130.356,174.535 130.816,174.529 131.038 C 174.524 131.260,174.252 131.994,173.926 132.669 C 173.600 133.344,173.325 134.103,173.314 134.356 C 173.302 134.609,173.091 135.084,172.843 135.411 C 172.595 135.739,172.393 136.309,172.393 136.678 C 172.393 137.046,172.186 137.520,171.933 137.730 C 171.679 137.940,171.472 138.414,171.472 138.783 C 171.472 139.151,171.270 139.721,171.022 140.049 C 170.774 140.376,170.566 140.851,170.560 141.104 C 170.554 141.357,170.342 141.960,170.090 142.443 C 169.838 142.926,169.627 143.478,169.621 143.670 C 169.616 143.862,169.344 144.571,169.018 145.245 C 168.692 145.920,168.417 146.679,168.406 146.933 C 168.394 147.186,168.183 147.661,167.935 147.988 C 167.687 148.316,167.480 148.868,167.475 149.215 C 167.470 149.562,167.262 150.115,167.015 150.442 C 166.767 150.770,166.569 151.322,166.574 151.669 C 166.584 152.264,167.229 150.903,168.310 148.006 C 168.562 147.331,168.958 146.365,169.189 145.859 C 169.421 145.353,169.700 144.558,169.809 144.092 C 169.918 143.627,170.129 143.170,170.279 143.077 C 170.429 142.984,170.552 142.702,170.552 142.450 C 170.552 142.197,170.804 141.412,171.111 140.704 C 171.713 139.319,172.442 137.499,173.130 135.660 C 174.009 133.310,174.890 131.115,175.221 130.445 C 175.651 129.578,175.322 129.173,174.871 130.015 M191.564 130.370 C 191.227 130.516,190.330 130.721,189.571 130.825 C 186.265 131.275,185.632 133.436,188.805 133.436 C 190.205 133.436,190.450 133.527,190.654 134.126 C 191.295 136.013,191.348 136.097,191.374 135.276 C 191.415 133.945,190.521 133.170,188.828 133.067 C 185.937 132.892,187.606 131.281,191.122 130.853 C 193.686 130.541,194.258 130.880,194.934 133.114 C 195.606 135.334,195.887 135.594,196.563 134.619 C 199.412 130.510,203.664 129.204,203.690 132.431 C 203.698 133.410,203.751 133.501,204.031 133.019 C 204.958 131.423,202.725 129.828,200.592 130.563 C 199.350 130.991,196.319 133.720,196.319 134.410 C 196.319 134.549,196.181 134.663,196.012 134.663 C 195.844 134.663,195.706 134.473,195.706 134.241 C 195.706 133.366,194.452 131.035,193.724 130.558 C 192.886 130.009,192.476 129.973,191.564 130.370 M155.521 132.162 C 155.521 132.305,155.262 132.546,154.944 132.699 C 154.365 132.976,152.330 134.606,150.347 136.379 C 148.643 137.903,149.911 139.169,151.810 137.840 C 152.477 137.372,152.591 137.372,153.383 137.840 C 154.557 138.533,154.848 138.472,153.904 137.730 C 152.948 136.978,152.464 136.963,151.265 137.651 C 149.554 138.633,149.305 137.661,150.914 136.284 C 155.968 131.958,156.375 131.772,157.295 133.359 C 157.780 134.196,157.961 134.342,157.958 133.896 C 157.954 133.039,156.930 131.902,156.162 131.902 C 155.810 131.902,155.521 132.019,155.521 132.162 M269.525 134.717 C 269.213 135.784,268.764 137.110,268.528 137.664 C 268.292 138.218,268.099 138.908,268.100 139.198 C 268.103 140.006,268.959 138.209,269.207 136.874 C 269.323 136.248,269.614 135.435,269.854 135.066 C 270.094 134.697,270.245 134.032,270.191 133.587 C 270.115 132.966,269.961 133.227,269.525 134.717 M198.887 134.739 C 196.338 137.637,195.926 139.416,197.066 142.600 C 197.330 143.338,197.546 144.308,197.546 144.756 C 197.546 146.876,198.856 147.408,200.265 145.859 C 201.953 144.004,203.079 144.741,201.742 146.827 C 199.141 150.888,195.359 151.542,194.476 148.084 C 194.293 147.366,194.023 146.434,193.876 146.012 C 193.729 145.590,193.517 144.831,193.405 144.325 L 193.201 143.405 192.383 144.345 C 191.933 144.861,190.805 146.272,189.877 147.479 C 187.806 150.172,185.552 151.096,183.936 149.914 C 183.297 149.447,183.177 147.767,183.734 147.097 C 183.948 146.838,183.991 146.626,183.829 146.626 C 183.486 146.626,182.822 147.970,182.822 148.664 C 182.822 149.364,184.617 150.920,185.424 150.920 C 187.327 150.920,188.445 150.022,191.555 145.993 C 192.759 144.434,193.099 144.147,193.173 144.632 C 194.291 151.936,197.872 152.878,202.090 146.977 C 203.669 144.768,202.067 143.602,200.156 145.570 C 198.731 147.038,198.028 146.574,197.761 143.988 C 197.665 143.053,197.456 142.126,197.298 141.927 C 195.531 139.704,198.178 134.147,200.882 134.405 C 201.550 134.468,202.030 134.414,201.950 134.285 C 201.612 133.739,199.490 134.054,198.887 134.739 M157.975 134.891 C 157.975 135.091,158.169 135.709,158.405 136.263 C 158.641 136.817,159.041 137.822,159.294 138.497 C 160.397 141.434,161.024 142.754,161.033 142.160 C 161.038 141.813,160.840 141.260,160.593 140.933 C 160.345 140.605,160.138 140.058,160.132 139.715 C 160.127 139.373,159.933 138.821,159.702 138.488 C 159.470 138.156,159.177 137.400,159.049 136.810 C 158.814 135.721,157.975 134.222,157.975 134.891 M191.432 137.005 C 191.420 137.534,191.613 138.431,191.859 138.999 C 192.456 140.374,192.475 139.290,191.887 137.423 C 191.481 136.135,191.451 136.107,191.432 137.005 M154.614 138.975 C 154.607 139.238,154.804 139.721,155.052 140.049 C 155.299 140.376,155.506 140.928,155.512 141.276 C 155.517 141.623,155.724 142.175,155.972 142.503 C 156.220 142.830,156.431 143.305,156.442 143.558 C 156.453 143.811,156.742 144.571,157.085 145.245 C 157.830 146.716,157.667 145.891,156.751 143.558 C 156.387 142.630,155.977 141.514,155.841 141.077 C 155.460 139.859,154.627 138.433,154.614 138.975 M264.135 139.217 C 263.953 139.558,263.804 140.060,263.804 140.332 C 263.804 140.605,263.588 141.245,263.325 141.754 C 263.062 142.263,262.890 142.907,262.944 143.185 C 262.997 143.463,263.413 142.596,263.869 141.259 C 264.679 138.878,264.796 137.984,264.135 139.217 M267.596 140.719 C 267.404 141.184,266.937 142.600,266.556 143.865 C 266.176 145.130,265.677 146.601,265.448 147.132 C 265.218 147.664,265.031 148.381,265.031 148.725 C 265.031 150.007,262.735 150.785,261.537 149.909 C 261.042 149.547,261.033 149.417,261.438 148.452 C 262.098 146.880,262.620 145.343,262.787 144.479 L 262.935 143.712 262.478 144.535 C 262.227 144.987,261.928 145.782,261.814 146.301 C 261.700 146.821,261.401 147.657,261.150 148.160 C 260.559 149.345,260.834 150.146,261.995 150.627 C 263.273 151.156,264.934 150.398,265.196 149.165 C 265.296 148.696,265.576 147.946,265.818 147.499 C 266.060 147.051,266.258 146.353,266.258 145.947 C 266.258 145.541,266.460 144.941,266.708 144.614 C 266.956 144.286,267.163 143.694,267.168 143.298 C 267.174 142.902,267.398 142.113,267.667 141.546 C 267.937 140.978,268.109 140.370,268.050 140.193 C 267.991 140.017,267.787 140.253,267.596 140.719 M173.211 141.944 C 172.901 142.748,172.246 144.354,171.754 145.515 C 171.262 146.676,170.859 147.759,170.859 147.923 C 170.859 148.086,170.660 148.655,170.418 149.187 C 169.509 151.178,169.015 152.553,169.156 152.694 C 169.237 152.774,169.457 152.443,169.646 151.957 C 169.836 151.471,170.186 150.683,170.425 150.205 C 170.663 149.728,170.864 149.175,170.869 148.978 C 170.875 148.781,171.146 148.067,171.472 147.393 C 171.798 146.718,172.074 145.959,172.085 145.706 C 172.096 145.452,172.308 144.977,172.556 144.650 C 172.803 144.322,173.006 143.800,173.006 143.489 C 173.006 143.178,173.225 142.590,173.492 142.182 C 173.759 141.775,173.931 141.226,173.875 140.962 C 173.819 140.699,173.520 141.141,173.211 141.944 M191.525 141.308 C 188.558 146.012,187.168 147.168,185.530 146.291 C 185.118 146.070,184.800 146.059,184.601 146.258 C 184.209 146.650,187.205 147.085,187.841 146.729 C 188.673 146.262,192.518 140.882,192.227 140.591 C 192.143 140.507,191.827 140.829,191.525 141.308 M161.043 143.023 C 161.043 143.107,161.467 144.263,161.985 145.591 C 162.503 146.919,163.111 148.489,163.335 149.080 C 164.423 151.944,165.011 153.170,165.021 152.589 C 165.026 152.242,164.828 151.690,164.580 151.362 C 164.333 151.035,164.126 150.512,164.120 150.201 C 164.115 149.889,163.920 149.268,163.688 148.820 C 163.012 147.517,161.963 144.664,161.963 144.127 C 161.963 143.855,161.756 143.462,161.503 143.252 C 161.250 143.042,161.043 142.939,161.043 143.023 M157.766 147.163 C 158.268 148.759,158.974 150.496,159.224 150.752 C 159.381 150.912,159.509 151.330,159.509 151.680 C 159.509 152.031,159.699 152.590,159.930 152.923 C 160.162 153.255,160.451 153.986,160.573 154.545 C 160.694 155.105,160.987 155.933,161.223 156.386 C 161.459 156.838,161.658 157.416,161.664 157.669 C 161.671 157.922,161.879 158.397,162.126 158.724 C 162.374 159.052,162.580 159.604,162.585 159.951 C 162.615 162.238,165.632 163.194,166.099 161.065 C 166.212 160.551,166.432 160.051,166.588 159.955 C 166.744 159.858,166.876 159.546,166.882 159.261 C 166.887 158.976,167.159 158.190,167.485 157.515 C 167.811 156.840,168.086 156.081,168.098 155.828 C 168.109 155.575,168.320 155.100,168.568 154.773 C 168.816 154.445,169.014 153.893,169.008 153.546 C 168.997 152.854,168.541 153.857,166.646 158.742 C 164.874 163.310,164.170 163.211,162.288 158.129 C 159.758 151.295,157.915 146.626,157.747 146.626 C 157.665 146.626,157.673 146.867,157.766 147.163 M165.677 153.102 C 165.274 153.429,165.036 153.789,165.149 153.902 C 165.262 154.015,165.654 153.808,166.019 153.442 C 166.881 152.581,166.629 152.330,165.677 153.102 M73.045 154.033 C 71.590 154.572,71.658 155.789,73.170 156.250 C 73.513 156.355,74.044 156.865,74.350 157.383 C 74.656 157.901,74.975 158.256,75.060 158.171 C 75.251 157.980,74.182 156.135,73.880 156.135 C 72.725 156.135,72.025 155.484,72.553 154.900 C 73.294 154.082,81.556 153.968,82.219 154.768 C 82.658 155.296,82.392 155.688,81.442 155.916 C 80.959 156.032,80.999 156.071,81.634 156.099 C 82.968 156.158,83.573 154.134,82.274 153.958 C 81.098 153.798,73.513 153.860,73.045 154.033 M88.421 153.920 C 86.581 154.117,86.405 156.135,88.228 156.135 C 88.933 156.135,89.126 156.525,88.970 157.637 C 88.854 158.462,82.999 165.986,82.748 165.631 C 82.694 165.554,82.421 165.008,82.142 164.417 C 81.813 163.722,81.627 163.543,81.615 163.910 C 81.594 164.516,82.512 166.258,82.853 166.258 C 82.966 166.258,83.290 165.903,83.574 165.470 C 83.858 165.037,84.323 164.450,84.607 164.166 C 88.788 159.985,90.581 155.828,88.204 155.828 C 87.293 155.828,87.077 155.555,87.445 154.868 C 87.716 154.362,88.144 154.294,91.090 154.294 C 95.972 154.294,96.357 154.623,94.068 156.840 C 93.335 157.549,91.921 159.164,90.925 160.429 C 89.928 161.695,89.036 162.799,88.942 162.883 C 88.848 162.968,87.954 164.072,86.956 165.337 C 85.959 166.603,84.835 167.974,84.459 168.384 C 83.654 169.262,82.382 172.489,82.613 173.066 C 82.702 173.286,82.785 173.164,82.798 172.794 C 82.811 172.425,82.942 172.048,83.089 171.957 C 83.236 171.866,83.442 171.361,83.548 170.835 C 83.717 169.990,85.083 167.887,86.024 167.025 C 86.208 166.856,87.105 165.752,88.018 164.571 C 88.931 163.390,89.831 162.285,90.018 162.117 C 90.205 161.948,91.123 160.827,92.057 159.625 C 92.991 158.423,94.263 156.994,94.884 156.449 C 97.236 154.383,94.416 153.280,88.421 153.920 M80.101 156.675 C 79.911 157.029,79.952 157.739,80.220 158.745 L 80.628 160.276 80.585 158.206 C 80.537 155.938,80.522 155.888,80.101 156.675 M75.187 159.356 C 75.170 159.862,75.345 160.635,75.574 161.075 C 75.803 161.514,76.086 162.511,76.203 163.291 C 76.320 164.071,76.534 164.783,76.678 164.872 C 76.822 164.961,77.038 165.620,77.156 166.336 C 77.275 167.052,77.571 167.983,77.814 168.405 L 78.256 169.172 78.060 168.405 C 77.667 166.868,77.007 164.522,76.376 162.423 C 76.020 161.242,75.614 159.862,75.473 159.356 L 75.216 158.436 75.187 159.356 M80.689 160.583 C 80.686 160.752,80.883 161.442,81.126 162.117 C 81.560 163.320,81.568 163.325,81.582 162.405 C 81.589 161.889,81.392 161.199,81.145 160.872 C 80.897 160.544,80.692 160.414,80.689 160.583 M105.083 165.819 C 104.466 166.437,104.463 168.072,105.079 168.950 L 105.556 169.632 117.587 169.632 C 131.303 169.632,130.982 169.686,130.982 167.363 C 130.982 165.322,131.085 165.337,117.492 165.337 C 107.059 165.337,105.505 165.398,105.083 165.819 M129.875 165.827 C 130.137 165.928,130.440 166.481,130.548 167.058 C 130.927 169.079,131.318 169.018,117.815 169.018 C 104.647 169.018,104.908 169.052,104.908 167.331 C 104.908 166.808,105.074 166.215,105.276 166.012 C 105.664 165.625,128.891 165.450,129.875 165.827 M77.956 170.151 C 77.933 170.520,77.776 170.908,77.607 171.012 C 77.439 171.117,77.306 171.573,77.313 172.027 C 77.324 172.823,77.341 172.815,77.785 171.790 C 78.039 171.206,78.190 170.447,78.122 170.103 C 78.006 169.519,77.995 169.522,77.956 170.151 M145.859 170.209 C 144.659 170.461,144.285 173.023,145.364 173.601 C 145.792 173.830,166.004 173.905,212.941 173.850 L 279.908 173.773 279.977 173.006 C 280.016 172.569,279.963 172.437,279.854 172.699 C 279.749 172.952,279.511 173.262,279.325 173.387 C 278.803 173.739,146.768 173.659,145.839 173.305 C 145.162 173.048,145.068 172.850,145.150 171.856 L 145.245 170.706 212.500 170.628 C 263.655 170.569,279.755 170.637,279.755 170.909 C 279.755 171.107,279.843 171.179,279.952 171.071 C 280.060 170.962,279.973 170.662,279.759 170.404 C 279.355 169.917,148.163 169.727,145.859 170.209 M77.029 173.525 C 77.010 173.894,76.864 174.277,76.705 174.376 C 76.546 174.474,76.321 175.183,76.206 175.952 C 75.837 178.417,74.887 179.802,72.916 180.749 C 71.306 181.521,70.757 182.227,71.438 182.647 C 71.587 182.740,71.691 182.595,71.668 182.324 C 71.645 182.054,71.833 181.733,72.086 181.611 C 72.339 181.488,73.097 181.124,73.770 180.801 C 75.031 180.196,76.323 178.203,76.362 176.801 C 76.372 176.442,76.595 175.635,76.857 175.007 C 77.119 174.380,77.273 173.638,77.200 173.359 C 77.105 173.004,77.054 173.054,77.029 173.525 M81.979 174.585 C 81.462 176.029,81.496 176.352,82.076 175.524 C 82.340 175.146,82.513 174.539,82.459 174.175 C 82.379 173.629,82.295 173.700,81.979 174.585 M105.254 174.032 C 104.710 174.688,104.528 176.153,104.878 177.071 L 105.200 177.914 117.605 177.914 C 124.429 177.914,130.230 177.830,130.496 177.728 C 131.218 177.451,131.162 174.798,130.421 174.127 C 129.654 173.434,105.825 173.344,105.254 174.032 M130.307 174.601 C 130.509 174.804,130.675 175.397,130.675 175.920 C 130.675 177.643,130.949 177.607,117.591 177.607 L 105.243 177.607 105.047 176.566 C 104.589 174.126,104.009 174.233,117.741 174.233 C 126.819 174.233,130.033 174.327,130.307 174.601 M81.170 177.301 C 81.066 177.807,80.897 178.635,80.793 179.141 C 80.581 180.179,81.538 181.260,82.687 181.278 C 83.705 181.295,84.623 182.121,84.049 182.505 C 83.726 182.721,83.706 182.814,83.982 182.817 C 85.549 182.836,84.488 181.165,82.636 180.699 L 81.242 180.348 81.454 178.364 C 81.673 176.317,81.502 175.676,81.170 177.301 M218.712 183.215 C 218.121 183.572,217.531 184.037,217.401 184.248 C 217.271 184.459,216.944 184.853,216.675 185.122 C 216.405 185.392,216.255 185.682,216.341 185.768 C 216.427 185.855,216.800 185.500,217.170 184.980 C 219.807 181.277,226.360 182.403,227.508 186.756 C 228.369 190.017,226.906 193.066,222.108 198.007 C 219.726 200.461,219.821 200.613,223.723 200.613 C 226.772 200.613,226.884 200.589,227.858 199.700 C 229.214 198.461,229.503 199.045,228.691 201.380 C 228.481 201.985,228.484 201.985,228.963 201.398 C 230.351 199.694,229.127 197.773,227.669 199.369 L 226.791 200.329 223.678 200.241 L 220.565 200.153 222.559 198.049 C 224.857 195.625,226.687 193.440,226.687 193.121 C 226.687 193.000,226.894 192.694,227.147 192.441 C 227.400 192.188,227.607 191.673,227.607 191.297 C 227.607 190.921,227.745 190.476,227.914 190.307 C 228.352 189.869,228.390 187.469,227.965 187.045 C 227.768 186.848,227.607 186.394,227.607 186.037 C 227.607 183.292,221.690 181.415,218.712 183.215 M219.346 185.804 C 218.823 186.011,217.485 187.412,217.485 187.753 C 217.485 188.168,216.542 188.957,216.047 188.957 C 215.570 188.957,215.572 188.865,216.097 186.810 C 216.284 186.079,216.270 186.083,215.796 186.904 C 215.064 188.174,215.291 189.417,216.255 189.417 C 216.828 189.417,217.147 189.148,217.526 188.344 C 218.261 186.784,219.174 186.093,220.801 185.866 L 222.239 185.665 221.012 185.648 C 220.337 185.639,219.588 185.709,219.346 185.804 M223.160 186.718 C 224.303 187.723,224.558 191.744,223.543 192.759 C 223.248 193.054,223.006 193.458,223.006 193.657 C 223.006 194.058,222.649 194.476,216.209 201.611 C 215.023 202.924,214.967 203.705,216.060 203.645 C 216.579 203.617,216.604 203.580,216.181 203.470 C 215.302 203.240,215.562 202.718,217.682 200.460 C 220.861 197.072,222.837 194.733,223.643 193.405 C 225.125 190.959,224.394 185.846,222.569 185.899 C 222.388 185.905,222.653 186.273,223.160 186.718 M201.227 196.012 C 200.611 196.209,200.763 196.265,201.994 196.293 C 203.986 196.339,204.118 196.445,204.876 198.602 C 205.733 201.040,205.900 201.139,206.852 199.765 C 208.765 197.005,210.655 195.924,212.679 196.432 C 214.430 196.872,213.926 199.574,212.055 199.787 L 210.890 199.920 212.094 199.883 C 214.502 199.810,214.885 196.968,212.614 196.028 C 211.012 195.364,208.543 196.746,206.582 199.404 C 206.078 200.087,205.803 200.266,205.709 199.971 C 204.467 196.045,203.577 195.260,201.227 196.012 M197.446 197.109 C 196.198 197.957,196.259 198.529,197.633 198.881 C 198.292 199.050,198.290 199.038,197.570 198.489 L 196.826 197.923 197.876 197.351 C 198.454 197.037,199.271 196.692,199.693 196.585 C 200.421 196.401,200.413 196.390,199.534 196.355 C 198.996 196.334,198.123 196.649,197.446 197.109 M199.241 198.683 C 199.933 198.771,200.279 199.049,200.600 199.773 C 200.836 200.308,201.083 200.586,201.148 200.391 C 201.409 199.608,200.267 198.465,199.275 198.515 L 198.313 198.564 199.241 198.683 M209.320 199.830 C 207.710 200.957,206.400 203.491,206.521 205.243 L 206.635 206.902 206.692 205.176 C 206.728 204.073,206.915 203.311,207.209 203.067 C 207.462 202.857,207.669 202.513,207.669 202.302 C 207.669 202.091,208.287 201.349,209.042 200.653 C 210.400 199.401,210.545 198.971,209.320 199.830 M201.273 201.994 C 201.260 202.669,201.446 203.566,201.687 203.988 C 202.207 204.898,202.271 206.016,201.832 206.531 C 200.981 207.531,198.160 211.485,198.160 211.677 C 198.160 211.798,197.798 211.987,197.356 212.098 C 196.915 212.209,196.619 212.365,196.698 212.445 C 197.274 213.021,198.553 211.719,201.377 207.681 C 202.673 205.829,202.655 206.386,201.557 201.840 L 201.298 200.767 201.273 201.994 M228.245 202.541 C 228.232 202.841,227.910 203.212,227.531 203.365 L 226.840 203.642 227.540 203.662 C 228.270 203.682,228.699 203.064,228.427 202.387 C 228.330 202.144,228.260 202.202,228.245 202.541 M206.887 207.669 C 207.009 208.090,207.230 208.919,207.378 209.509 C 207.625 210.498,207.638 210.466,207.539 209.099 C 207.480 208.283,207.259 207.455,207.048 207.259 C 206.746 206.977,206.712 207.064,206.887 207.669 M201.330 211.074 C 197.766 215.735,196.347 216.622,194.179 215.540 C 192.964 214.934,192.981 215.334,194.199 216.028 C 195.395 216.709,195.769 216.701,197.211 215.965 C 198.377 215.371,200.920 212.650,200.920 211.997 C 200.920 211.810,201.036 211.656,201.178 211.656 C 201.320 211.656,201.789 211.161,202.220 210.554 L 203.004 209.452 203.207 210.631 C 203.869 214.487,205.561 216.836,207.362 216.400 C 208.716 216.072,208.659 215.737,207.255 215.768 C 205.390 215.809,204.857 215.224,204.002 212.199 C 203.052 208.838,203.043 208.834,201.330 211.074 M209.948 211.196 C 208.918 212.488,208.870 212.495,208.208 211.426 C 207.871 210.883,207.682 210.757,207.677 211.072 C 207.653 212.527,208.917 212.784,209.992 211.542 C 210.808 210.599,211.181 210.384,211.798 210.502 C 212.226 210.584,212.577 210.532,212.577 210.387 C 212.577 209.623,210.756 210.184,209.948 211.196 M211.841 212.028 C 211.525 212.583,210.704 213.623,210.017 214.340 C 209.330 215.058,208.882 215.644,209.021 215.644 C 209.345 215.644,211.656 213.342,211.656 213.020 C 211.656 212.887,211.878 212.534,212.148 212.235 C 212.418 211.936,212.589 211.541,212.528 211.356 C 212.466 211.171,212.157 211.474,211.841 212.028 M193.964 212.021 C 193.085 212.446,192.413 214.009,192.901 214.496 C 193.164 214.759,193.252 214.617,193.252 213.926 C 193.252 212.692,193.745 212.274,195.230 212.248 C 196.205 212.231,196.340 212.170,195.859 211.963 C 195.063 211.621,194.773 211.630,193.964 212.021 " stroke="none" fill="#9e9e9e" fill-rule="evenodd"></path><path id="path3" d="M183.359 110.147 C 183.064 110.319,182.824 110.626,182.827 110.828 C 182.830 111.052,182.945 111.016,183.122 110.736 C 183.372 110.342,184.904 110.276,193.825 110.276 C 199.551 110.276,204.172 110.173,204.094 110.046 C 203.871 109.686,183.984 109.783,183.359 110.147 M182.442 111.818 C 182.342 112.151,181.977 113.183,181.631 114.110 C 181.216 115.221,181.155 115.594,181.451 115.202 C 181.699 114.875,181.902 114.419,181.902 114.190 C 181.902 113.961,182.117 113.357,182.381 112.847 C 182.644 112.338,182.806 111.762,182.741 111.567 C 182.676 111.372,182.541 111.485,182.442 111.818 M194.292 112.193 C 183.563 112.289,184.231 112.136,183.286 114.724 C 182.496 116.887,182.421 117.444,183.100 116.104 C 183.442 115.429,183.726 114.660,183.732 114.394 C 183.769 112.687,184.426 112.577,194.557 112.577 C 200.489 112.577,204.021 112.464,204.141 112.270 C 204.245 112.101,204.219 111.996,204.083 112.035 C 203.946 112.075,199.540 112.146,194.292 112.193 M180.675 116.237 C 180.675 116.450,180.450 117.099,180.175 117.679 C 179.899 118.259,179.747 118.806,179.835 118.895 C 179.924 118.983,180.238 118.423,180.533 117.650 C 180.829 116.877,180.981 116.155,180.873 116.046 C 180.764 115.938,180.675 116.023,180.675 116.237 M181.967 118.108 C 181.762 118.435,181.601 118.878,181.607 119.091 C 181.614 119.304,181.832 119.087,182.092 118.608 C 182.631 117.613,182.529 117.207,181.967 118.108 M179.221 120.156 C 179.012 120.603,178.897 121.024,178.966 121.093 C 179.151 121.277,179.811 119.953,179.698 119.625 C 179.645 119.471,179.430 119.710,179.221 120.156 M180.894 120.876 C 180.605 121.544,180.368 122.211,180.368 122.360 C 180.368 122.508,180.162 123.025,179.910 123.508 C 179.658 123.991,179.455 124.594,179.460 124.847 C 179.464 125.100,179.753 124.617,180.102 123.773 C 180.450 122.929,180.951 121.720,181.213 121.086 C 181.476 120.451,181.630 119.871,181.556 119.797 C 181.481 119.722,181.183 120.208,180.894 120.876 M256.741 122.562 C 256.369 123.330,256.121 124.015,256.190 124.084 C 256.259 124.152,256.585 123.594,256.915 122.843 L 257.515 121.478 265.075 121.475 C 273.395 121.472,273.124 121.405,272.855 123.393 C 272.768 124.039,272.842 123.921,273.066 123.055 C 273.555 121.172,273.572 121.176,264.981 121.170 L 257.417 121.166 256.741 122.562 M178.303 122.417 C 178.095 122.972,177.980 123.481,178.048 123.549 C 178.267 123.768,178.876 122.376,178.777 121.885 C 178.720 121.604,178.526 121.823,178.303 122.417 M177.224 125.239 C 176.488 127.023,176.566 127.453,177.330 125.823 C 177.672 125.094,177.908 124.372,177.856 124.217 C 177.804 124.063,177.519 124.523,177.224 125.239 M255.587 125.286 C 255.073 126.414,255.121 126.650,255.698 125.827 C 255.963 125.448,256.131 124.987,256.070 124.804 C 256.008 124.620,255.791 124.838,255.587 125.286 M272.094 125.284 C 271.921 125.740,271.785 126.346,271.793 126.630 C 271.800 126.915,272.001 126.600,272.239 125.932 C 272.722 124.575,272.590 123.981,272.094 125.284 M257.153 126.379 C 255.498 128.094,255.316 128.176,255.119 127.296 C 254.996 126.752,254.985 126.759,255.021 127.349 C 255.081 128.341,255.703 128.373,256.503 127.425 C 257.930 125.733,258.616 125.308,260.220 125.127 L 261.810 124.947 260.221 124.897 C 258.691 124.849,258.576 124.904,257.153 126.379 M263.880 125.066 C 264.344 125.137,265.104 125.137,265.567 125.066 C 266.031 124.996,265.652 124.939,264.724 124.939 C 263.796 124.939,263.416 124.996,263.880 125.066 M267.849 125.057 C 268.659 125.151,269.019 125.359,269.117 125.789 C 269.224 126.259,269.244 126.238,269.213 125.695 C 269.178 125.102,268.991 124.995,267.945 124.963 L 266.718 124.927 267.849 125.057 M178.859 126.027 C 178.677 126.368,178.528 126.808,178.528 127.004 C 178.528 127.201,178.302 127.836,178.027 128.416 C 177.752 128.995,177.598 129.541,177.685 129.628 C 177.772 129.714,178.202 128.856,178.641 127.720 C 179.413 125.722,179.537 124.761,178.859 126.027 M228.367 126.457 C 228.290 126.668,228.190 129.118,228.147 131.902 L 228.067 136.963 223.006 137.044 C 217.498 137.133,217.150 137.246,217.202 138.939 C 217.228 139.772,217.317 139.628,217.617 138.267 L 217.803 137.423 222.979 137.423 C 229.140 137.423,228.528 138.086,228.528 131.417 L 228.528 126.380 229.719 126.380 C 231.243 126.380,231.279 126.515,231.284 132.274 C 231.289 137.786,230.880 137.423,237.103 137.423 L 241.731 137.423 242.091 138.214 C 242.826 139.826,242.333 140.014,236.931 140.184 C 230.769 140.378,231.289 139.889,231.284 145.494 C 231.279 151.404,231.232 151.594,229.791 151.473 L 228.681 151.380 228.528 146.103 C 228.443 143.201,228.236 140.688,228.067 140.520 C 227.713 140.167,217.468 139.911,217.685 140.261 C 217.763 140.387,219.812 140.491,222.237 140.491 C 224.663 140.491,227.001 140.625,227.434 140.790 L 228.221 141.089 228.221 146.097 C 228.221 151.593,228.297 151.840,229.977 151.840 C 231.409 151.840,231.595 151.135,231.595 145.696 C 231.595 140.139,231.289 140.448,236.741 140.492 C 238.888 140.509,240.958 140.516,241.341 140.507 C 242.346 140.484,242.840 139.265,242.337 138.051 L 241.950 137.117 237.258 137.117 C 231.019 137.117,231.595 137.617,231.595 132.196 C 231.595 126.590,231.440 126.074,229.753 126.074 C 229.037 126.074,228.448 126.237,228.367 126.457 M268.474 127.684 C 267.952 129.128,268.024 129.520,268.578 128.244 C 268.829 127.666,268.993 127.070,268.942 126.919 C 268.892 126.767,268.681 127.112,268.474 127.684 M175.823 128.890 C 175.484 129.787,175.107 130.798,174.985 131.135 L 174.764 131.748 175.256 131.135 C 175.526 130.798,175.752 130.335,175.757 130.108 C 175.762 129.880,175.992 129.220,176.267 128.640 C 176.542 128.060,176.694 127.512,176.604 127.422 C 176.514 127.332,176.163 127.992,175.823 128.890 M271.231 128.047 C 271.026 128.496,270.864 129.098,270.871 129.386 C 270.878 129.673,271.088 129.435,271.339 128.857 C 271.876 127.618,271.775 126.854,271.231 128.047 M267.737 129.908 C 267.637 130.245,267.453 130.798,267.328 131.135 C 267.135 131.661,267.177 131.649,267.622 131.053 C 267.907 130.670,268.091 130.118,268.030 129.826 C 267.935 129.365,267.896 129.376,267.737 129.908 M176.892 131.338 C 176.595 132.023,176.417 132.741,176.495 132.933 C 176.586 133.154,176.648 133.130,176.663 132.868 C 176.676 132.641,176.912 131.980,177.187 131.400 C 177.463 130.821,177.630 130.289,177.560 130.219 C 177.490 130.148,177.189 130.652,176.892 131.338 M270.315 131.058 C 269.793 132.503,269.865 132.894,270.418 131.618 C 270.669 131.040,270.833 130.444,270.783 130.293 C 270.732 130.142,270.522 130.486,270.315 131.058 M192.883 131.062 C 193.440 131.278,194.025 131.659,194.182 131.909 C 194.340 132.158,194.471 132.206,194.474 132.016 C 194.481 131.506,193.829 131.055,192.790 130.850 C 191.888 130.673,191.890 130.676,192.883 131.062 M200.926 130.904 C 199.892 131.092,198.143 132.523,197.090 134.042 C 196.048 135.547,195.714 135.494,195.032 133.717 C 194.746 132.972,194.511 132.638,194.510 132.975 C 194.504 134.944,196.054 136.372,196.745 135.035 C 198.560 131.525,203.374 129.697,203.374 132.518 C 203.374 133.203,203.189 133.530,202.684 133.733 C 202.261 133.903,202.178 134.018,202.469 134.030 C 203.177 134.059,203.681 133.418,203.681 132.492 C 203.681 131.256,202.556 130.608,200.926 130.904 M190.261 131.193 C 190.556 131.270,191.039 131.270,191.334 131.193 C 191.630 131.116,191.388 131.053,190.798 131.053 C 190.207 131.053,189.965 131.116,190.261 131.193 M188.054 131.934 C 186.946 132.610,187.310 133.366,188.583 133.032 C 188.968 132.931,188.924 132.884,188.420 132.858 C 187.443 132.807,187.565 132.326,188.650 131.948 C 189.156 131.771,189.571 131.551,189.571 131.458 C 189.571 131.144,189.116 131.287,188.054 131.934 M174.130 133.380 C 173.825 134.170,173.438 135.071,173.270 135.383 C 173.101 135.694,173.037 136.023,173.127 136.112 C 173.216 136.202,173.418 135.947,173.575 135.546 C 173.731 135.144,174.103 134.228,174.401 133.509 C 174.699 132.790,174.884 132.144,174.813 132.073 C 174.742 132.002,174.434 132.590,174.130 133.380 M266.664 133.030 C 266.465 133.672,266.358 134.252,266.425 134.319 C 266.619 134.512,267.212 132.763,267.114 132.290 C 267.065 132.055,266.862 132.388,266.664 133.030 M154.654 133.433 C 151.525 135.723,149.636 137.489,149.964 137.817 C 150.175 138.027,150.525 137.964,151.047 137.622 C 152.673 136.557,154.110 137.151,155.204 139.340 C 155.435 139.804,155.680 140.128,155.748 140.060 C 155.926 139.882,155.181 138.632,154.314 137.653 C 153.745 137.011,153.287 136.810,152.397 136.810 C 150.788 136.810,150.898 136.620,153.766 134.448 L 156.277 132.547 156.858 133.464 C 157.177 133.969,157.505 134.315,157.587 134.233 C 157.710 134.110,156.518 132.180,156.344 132.222 C 156.313 132.230,155.553 132.774,154.654 133.433 M190.614 133.403 C 190.903 133.722,191.258 134.378,191.402 134.860 C 191.632 135.627,191.668 135.648,191.691 135.035 C 191.721 134.246,190.895 132.822,190.408 132.822 C 190.233 132.822,190.325 133.083,190.614 133.403 M269.667 133.170 C 269.648 133.446,269.426 134.068,269.174 134.551 C 268.922 135.034,268.710 135.706,268.703 136.043 C 268.696 136.380,268.493 137.002,268.252 137.423 C 268.010 137.845,267.814 138.466,267.816 138.804 C 267.818 139.444,268.572 137.669,268.991 136.036 C 269.122 135.526,269.398 134.794,269.603 134.409 C 269.809 134.025,269.916 133.476,269.840 133.189 C 269.719 132.729,269.699 132.727,269.667 133.170 M175.746 134.240 C 175.553 134.725,175.203 135.576,174.968 136.130 C 174.732 136.684,174.545 137.305,174.550 137.510 C 174.565 138.034,175.744 135.535,175.756 134.954 C 175.762 134.692,175.930 134.315,176.130 134.116 C 176.329 133.916,176.404 133.663,176.295 133.554 C 176.186 133.445,175.939 133.754,175.746 134.240 M197.695 135.622 C 196.250 137.585,195.860 138.528,196.103 139.470 C 196.194 139.821,196.265 139.686,196.293 139.110 C 196.358 137.781,198.260 134.856,199.540 134.116 C 200.077 133.805,200.086 133.760,199.616 133.752 C 199.307 133.746,198.491 134.540,197.695 135.622 M157.704 135.141 C 157.685 135.488,157.871 136.040,158.119 136.368 C 158.367 136.695,158.574 136.818,158.579 136.641 C 158.585 136.464,158.464 136.188,158.312 136.028 C 158.160 135.867,157.969 135.460,157.887 135.123 C 157.743 134.524,157.739 134.525,157.704 135.141 M265.542 136.388 C 265.233 137.323,265.034 138.143,265.101 138.209 C 265.281 138.389,266.331 135.340,266.209 134.989 C 266.151 134.823,265.851 135.452,265.542 136.388 M191.743 136.350 C 191.747 137.172,192.598 139.669,192.617 138.916 C 192.629 138.471,192.436 137.643,192.190 137.075 C 191.943 136.507,191.742 136.181,191.743 136.350 M172.568 137.343 C 172.446 137.889,172.218 138.415,172.062 138.512 C 171.907 138.608,171.784 138.920,171.790 139.205 C 171.797 139.491,172.081 139.128,172.422 138.399 C 172.764 137.671,172.987 136.911,172.917 136.712 C 172.848 136.513,172.691 136.797,172.568 137.343 M158.625 137.595 C 158.605 137.942,158.792 138.494,159.039 138.822 C 159.287 139.149,159.510 139.693,159.535 140.031 C 159.575 140.571,159.598 140.578,159.724 140.092 C 159.802 139.789,159.664 139.231,159.416 138.852 C 159.168 138.474,158.897 137.894,158.813 137.564 C 158.667 136.991,158.658 136.993,158.625 137.595 M173.991 138.660 C 173.787 138.988,173.625 139.499,173.632 139.796 C 173.638 140.102,173.841 139.884,174.096 139.294 C 174.609 138.114,174.551 137.765,173.991 138.660 M264.487 139.647 C 263.964 141.092,264.037 141.483,264.590 140.207 C 264.841 139.629,265.005 139.033,264.954 138.882 C 264.904 138.731,264.694 139.075,264.487 139.647 M267.243 140.317 C 267.038 140.766,266.877 141.368,266.883 141.656 C 266.890 141.943,267.100 141.705,267.351 141.127 C 267.889 139.888,267.787 139.124,267.243 140.317 M171.256 140.737 C 170.434 142.668,169.939 143.953,169.948 144.133 C 169.968 144.520,170.859 143.121,170.859 142.702 C 170.859 142.465,171.084 141.796,171.359 141.216 C 171.634 140.637,171.803 140.105,171.734 140.036 C 171.664 139.967,171.449 140.282,171.256 140.737 M196.368 141.104 C 196.356 141.695,196.548 142.592,196.795 143.098 L 197.243 144.018 197.044 143.098 C 196.935 142.592,196.743 141.695,196.618 141.104 L 196.390 140.031 196.368 141.104 M173.071 141.114 C 172.867 141.442,172.705 141.884,172.712 142.097 C 172.718 142.310,172.936 142.093,173.196 141.614 C 173.735 140.619,173.634 140.213,173.071 141.114 M159.816 140.896 C 159.816 141.015,159.942 141.352,160.096 141.645 C 160.249 141.938,160.609 142.842,160.895 143.654 C 161.181 144.465,161.487 145.057,161.576 144.968 C 161.664 144.880,161.512 144.333,161.236 143.753 C 160.961 143.173,160.732 142.512,160.726 142.285 C 160.717 141.868,159.816 140.494,159.816 140.896 M190.561 143.505 C 188.345 146.708,188.200 146.844,186.809 147.012 L 185.736 147.141 186.875 147.190 C 188.120 147.244,188.622 146.849,190.091 144.658 C 190.552 143.969,191.331 142.881,191.821 142.240 C 192.311 141.600,192.649 141.013,192.573 140.937 C 192.497 140.861,191.591 142.016,190.561 143.505 M263.574 142.385 C 263.049 143.839,263.095 144.209,263.664 143.118 C 263.922 142.622,264.094 142.015,264.045 141.769 C 263.997 141.523,263.785 141.800,263.574 142.385 M156.798 143.326 C 157.135 144.213,157.542 145.380,157.703 145.920 C 158.041 147.053,159.037 148.954,158.797 148.006 C 158.711 147.669,158.342 146.633,157.977 145.706 C 157.612 144.778,157.181 143.575,157.020 143.033 C 156.858 142.490,156.604 141.972,156.456 141.880 C 156.308 141.788,156.462 142.439,156.798 143.326 M172.007 143.861 C 171.713 144.541,171.475 145.268,171.479 145.478 C 171.483 145.687,171.763 145.249,172.101 144.503 C 172.439 143.758,172.677 143.030,172.629 142.887 C 172.581 142.744,172.302 143.182,172.007 143.861 M266.323 143.261 C 266.118 143.589,265.956 144.100,265.963 144.398 C 265.970 144.703,266.172 144.485,266.428 143.895 C 266.940 142.715,266.882 142.366,266.323 143.261 M192.426 143.644 C 192.092 144.019,191.502 144.808,191.117 145.399 C 190.568 146.239,190.696 146.155,191.706 145.013 C 192.416 144.211,193.123 143.632,193.277 143.728 C 193.432 143.823,193.558 143.763,193.558 143.594 C 193.558 142.962,193.014 142.987,192.426 143.644 M197.272 144.689 C 197.150 147.190,198.667 147.998,200.364 146.334 C 201.719 145.006,202.147 144.818,202.147 145.552 C 202.147 145.805,202.019 146.012,201.861 146.012 C 201.704 146.012,201.498 146.254,201.403 146.549 C 200.593 149.072,197.397 150.649,195.609 149.407 L 194.632 148.728 195.531 149.550 C 197.213 151.089,198.802 150.499,201.132 147.470 C 203.156 144.840,202.529 143.745,200.301 146.019 C 198.846 147.502,198.039 147.274,197.583 145.251 C 197.430 144.573,197.290 144.320,197.272 144.689 M262.919 144.647 C 262.899 144.993,262.720 145.439,262.520 145.639 C 262.321 145.839,262.241 146.085,262.342 146.187 C 262.630 146.475,263.245 145.122,263.092 144.539 C 262.984 144.130,262.947 144.153,262.919 144.647 M169.227 145.941 C 168.919 146.739,168.471 147.846,168.230 148.400 C 167.989 148.954,167.796 149.575,167.802 149.780 C 167.814 150.219,168.993 147.857,169.008 147.363 C 169.014 147.178,169.236 146.590,169.503 146.056 C 169.769 145.522,169.942 144.951,169.886 144.787 C 169.831 144.623,169.534 145.143,169.227 145.941 M265.680 145.611 C 265.660 145.980,265.506 146.368,265.337 146.472 C 265.169 146.577,265.036 146.895,265.043 147.181 C 265.051 147.527,265.210 147.414,265.522 146.838 C 265.779 146.364,265.927 145.743,265.852 145.458 C 265.752 145.078,265.706 145.120,265.680 145.611 M161.658 145.724 C 161.657 145.987,161.859 146.470,162.107 146.797 C 162.693 147.572,162.699 147.236,162.118 146.124 C 161.866 145.641,161.659 145.461,161.658 145.724 M194.000 146.012 C 194.718 148.535,194.778 148.654,194.610 147.239 C 194.521 146.480,194.297 145.721,194.114 145.552 C 193.878 145.335,193.845 145.468,194.000 146.012 M170.864 146.616 C 170.671 146.976,170.575 147.506,170.651 147.792 C 170.758 148.201,170.795 148.178,170.823 147.684 C 170.843 147.338,171.022 146.892,171.222 146.692 C 171.422 146.493,171.502 146.246,171.400 146.144 C 171.298 146.043,171.057 146.255,170.864 146.616 M189.343 147.600 C 187.758 149.426,187.458 149.659,186.440 149.850 C 184.622 150.191,183.659 149.584,183.793 148.181 C 183.856 147.523,183.801 147.050,183.671 147.130 C 183.078 147.496,183.446 149.379,184.208 149.879 C 185.710 150.863,187.811 150.075,189.554 147.873 C 190.721 146.400,190.562 146.195,189.343 147.600 M261.714 148.034 C 261.252 149.762,261.486 150.123,263.073 150.123 C 264.292 150.123,265.060 149.405,264.989 148.331 C 264.951 147.764,264.934 147.770,264.813 148.397 C 264.628 149.362,263.450 150.077,262.456 149.827 C 261.550 149.600,261.530 149.533,261.991 148.212 C 262.175 147.684,262.275 147.102,262.214 146.917 C 262.152 146.733,261.927 147.235,261.714 148.034 M162.590 147.896 C 162.583 148.173,162.863 149.001,163.213 149.736 C 163.899 151.178,163.825 150.604,163.070 148.620 C 162.814 147.945,162.598 147.619,162.590 147.896 M169.964 149.033 C 169.781 149.374,169.633 149.835,169.634 150.057 C 169.635 150.279,169.844 150.060,170.099 149.571 C 170.354 149.082,170.503 148.621,170.429 148.548 C 170.355 148.474,170.146 148.693,169.964 149.033 M158.906 149.105 C 158.900 149.372,158.999 149.693,159.126 149.818 C 159.252 149.942,159.518 150.483,159.716 151.019 C 159.914 151.555,160.082 151.787,160.089 151.534 C 160.096 151.281,159.835 150.521,159.509 149.847 C 159.183 149.172,158.912 148.838,158.906 149.105 M167.243 150.930 C 167.038 151.257,166.877 151.700,166.883 151.913 C 166.890 152.126,167.108 151.909,167.368 151.430 C 167.907 150.435,167.805 150.029,167.243 150.930 M168.917 151.890 C 168.620 152.576,168.441 153.294,168.520 153.485 C 168.610 153.706,168.672 153.682,168.687 153.421 C 168.701 153.193,168.937 152.532,169.212 151.953 C 169.487 151.373,169.655 150.841,169.585 150.771 C 169.514 150.701,169.214 151.204,168.917 151.890 M164.455 152.761 C 164.450 153.014,164.620 153.632,164.835 154.135 L 165.224 155.049 166.048 154.226 C 166.501 153.773,166.862 153.154,166.852 152.851 C 166.835 152.374,166.798 152.384,166.579 152.925 C 166.317 153.572,165.401 154.472,165.219 154.262 C 165.161 154.195,164.969 153.727,164.790 153.221 C 164.612 152.715,164.461 152.508,164.455 152.761 M72.551 154.900 C 72.302 155.303,72.627 155.835,73.101 155.804 C 73.364 155.787,73.359 155.737,73.083 155.625 C 71.869 155.135,73.200 154.908,77.283 154.908 C 81.421 154.908,83.351 155.235,81.523 155.626 C 80.903 155.759,80.910 155.770,81.595 155.725 C 82.050 155.695,82.362 155.488,82.362 155.215 C 82.362 154.652,72.892 154.349,72.551 154.900 M87.577 154.908 C 87.279 155.389,87.637 155.733,88.644 155.934 C 89.388 156.083,89.571 156.276,89.571 156.912 C 89.571 157.348,89.703 157.623,89.864 157.524 C 90.428 157.175,89.672 155.983,88.698 155.688 C 86.899 155.143,87.715 154.908,91.411 154.908 C 95.501 154.908,95.494 154.905,94.095 156.265 C 92.881 157.445,92.090 158.367,89.734 161.350 C 88.734 162.615,87.832 163.719,87.730 163.804 C 87.628 163.888,86.730 164.992,85.736 166.258 C 84.742 167.523,83.837 168.627,83.726 168.712 C 83.340 169.003,82.209 171.859,82.221 172.508 C 82.228 172.866,82.523 172.331,82.875 171.319 C 83.390 169.843,84.866 167.507,85.880 166.564 C 85.971 166.480,86.866 165.376,87.869 164.110 C 88.872 162.845,89.769 161.741,89.863 161.656 C 89.956 161.572,90.853 160.476,91.856 159.221 C 92.858 157.966,94.088 156.574,94.588 156.127 C 95.114 155.657,95.404 155.164,95.276 154.958 C 94.997 154.506,87.854 154.460,87.577 154.908 M161.043 154.829 C 161.043 155.021,161.181 155.264,161.350 155.368 C 161.518 155.472,161.661 155.791,161.667 156.076 C 161.673 156.362,161.957 157.147,162.299 157.822 C 162.977 159.159,162.904 158.610,162.115 156.442 C 161.600 155.024,161.043 154.186,161.043 154.829 M167.101 156.527 C 166.363 158.316,166.435 158.750,167.193 157.080 C 167.531 156.334,167.770 155.612,167.723 155.475 C 167.676 155.338,167.396 155.811,167.101 156.527 M73.976 156.212 C 74.237 156.423,74.677 156.936,74.955 157.354 C 75.289 157.855,75.460 157.951,75.460 157.637 C 75.460 157.140,74.235 155.828,73.771 155.828 C 73.623 155.828,73.716 156.001,73.976 156.212 M79.701 156.589 C 79.430 157.185,79.461 157.668,79.842 158.813 C 80.111 159.618,80.339 160.055,80.349 159.785 C 80.360 159.515,80.216 158.857,80.030 158.323 C 79.755 157.534,79.785 157.208,80.190 156.590 C 80.464 156.171,80.545 155.828,80.369 155.828 C 80.192 155.828,79.892 156.171,79.701 156.589 M88.197 159.743 C 86.568 162.094,83.089 166.258,82.753 166.258 C 82.606 166.258,82.219 165.671,81.894 164.954 C 81.568 164.237,81.299 163.899,81.295 164.202 C 81.286 164.957,82.091 166.454,82.614 166.654 C 82.880 166.756,83.495 166.224,84.236 165.250 C 84.892 164.387,85.813 163.260,86.283 162.745 C 86.752 162.231,87.511 161.258,87.970 160.583 C 88.428 159.908,88.976 159.173,89.187 158.950 C 89.519 158.599,89.719 157.968,89.494 157.979 C 89.452 157.981,88.868 158.775,88.197 159.743 M75.630 159.202 C 75.679 159.624,76.014 160.936,76.375 162.117 C 76.736 163.298,77.146 164.678,77.288 165.184 C 77.502 165.953,77.550 165.989,77.576 165.404 C 77.593 165.019,77.422 164.260,77.195 163.717 C 76.969 163.174,76.680 162.178,76.554 161.503 C 76.429 160.828,76.213 160.138,76.076 159.969 C 75.938 159.801,75.762 159.387,75.683 159.049 C 75.604 158.707,75.580 158.774,75.630 159.202 M165.705 160.115 C 164.920 162.006,164.282 162.097,163.609 160.417 C 163.337 159.735,163.044 159.247,162.958 159.332 C 162.763 159.528,163.717 161.567,164.121 161.817 C 164.777 162.222,165.518 161.594,166.014 160.214 C 166.716 158.262,166.503 158.195,165.705 160.115 M80.391 160.778 C 80.379 161.054,80.570 161.744,80.816 162.311 C 81.378 163.605,81.388 162.803,80.828 161.350 C 80.601 160.759,80.404 160.502,80.391 160.778 M105.415 165.874 C 105.337 166.001,110.816 166.104,117.591 166.104 L 129.908 166.104 129.908 167.331 L 129.908 168.558 117.591 168.558 C 110.816 168.558,105.337 168.662,105.415 168.788 C 105.584 169.061,129.177 169.103,129.883 168.832 C 130.468 168.607,130.553 166.566,130.000 166.012 C 129.584 165.596,105.671 165.462,105.415 165.874 M77.623 166.411 C 77.619 166.580,77.816 167.270,78.059 167.945 C 78.409 168.917,78.501 169.013,78.503 168.405 C 78.505 167.983,78.309 167.293,78.067 166.871 C 77.826 166.449,77.626 166.242,77.623 166.411 M78.161 170.706 C 78.057 171.212,77.882 171.971,77.773 172.393 C 77.653 172.855,77.768 172.738,78.063 172.097 C 78.333 171.513,78.508 170.753,78.452 170.410 C 78.375 169.931,78.307 170.000,78.161 170.706 M145.629 170.883 C 144.992 171.255,144.920 172.482,145.508 172.969 C 146.153 173.505,279.521 173.305,279.629 172.768 C 279.673 172.553,279.638 172.519,279.553 172.692 C 279.334 173.133,146.817 173.130,145.992 172.689 C 145.170 172.249,145.229 171.218,146.089 171.011 C 146.469 170.919,176.685 170.882,213.238 170.928 C 249.790 170.974,279.632 170.909,279.554 170.782 C 279.327 170.415,146.261 170.515,145.629 170.883 M77.056 174.575 C 76.839 175.272,76.722 175.904,76.797 175.979 C 76.985 176.167,77.681 173.994,77.554 173.614 C 77.498 173.445,77.274 173.877,77.056 174.575 M81.654 174.339 C 81.453 174.895,81.295 175.548,81.303 175.789 C 81.311 176.030,81.528 175.627,81.785 174.894 C 82.041 174.160,82.199 173.508,82.136 173.444 C 82.072 173.381,81.855 173.783,81.654 174.339 M105.419 174.438 C 105.038 174.818,105.206 175.236,105.606 174.904 C 106.085 174.506,129.092 174.409,129.701 174.802 C 129.944 174.959,130.067 175.481,130.007 176.106 L 129.908 177.147 117.738 177.227 C 107.032 177.298,105.550 177.251,105.422 176.838 C 105.319 176.504,105.291 176.525,105.327 176.911 C 105.373 177.421,106.138 177.454,117.790 177.454 L 130.204 177.454 130.391 176.307 C 130.736 174.184,131.041 174.233,117.588 174.233 C 111.008 174.233,105.532 174.325,105.419 174.438 M80.752 177.582 C 79.952 180.173,80.559 181.351,82.900 181.757 C 83.602 181.878,83.973 182.084,83.850 182.283 C 83.729 182.478,83.793 182.520,84.007 182.388 C 84.573 182.038,84.155 181.683,82.902 181.451 C 80.885 181.076,80.089 179.581,81.001 177.878 C 81.180 177.543,81.284 177.059,81.231 176.804 C 81.178 176.549,80.962 176.899,80.752 177.582 M75.622 179.123 C 75.119 180.237,73.189 181.595,72.107 181.595 C 71.947 181.595,71.733 181.729,71.631 181.893 C 71.442 182.200,73.413 181.585,74.523 180.990 C 75.130 180.666,76.554 178.292,76.296 178.035 C 76.227 177.965,75.923 178.455,75.622 179.123 M219.785 183.301 C 219.279 183.549,219.119 183.680,219.429 183.593 C 222.819 182.639,226.633 183.995,227.090 186.318 C 227.212 186.938,227.219 186.937,227.259 186.280 C 227.394 184.066,222.338 182.050,219.785 183.301 M217.566 184.739 C 216.643 185.698,215.548 188.145,215.888 188.486 C 216.335 188.932,217.183 188.584,217.359 187.883 C 217.465 187.460,217.961 186.770,218.462 186.349 C 218.963 185.928,219.249 185.583,219.099 185.583 C 218.730 185.583,217.330 187.123,217.008 187.883 C 216.785 188.410,216.732 188.352,216.635 187.480 C 216.546 186.671,216.750 186.186,217.638 185.103 C 218.950 183.501,218.917 183.335,217.566 184.739 M220.169 185.493 C 220.548 185.566,221.169 185.566,221.549 185.493 C 221.929 185.419,221.618 185.360,220.859 185.360 C 220.100 185.360,219.789 185.419,220.169 185.493 M223.202 186.210 C 224.304 186.916,224.957 188.850,224.665 190.541 C 224.531 191.317,224.567 191.453,224.816 191.104 C 225.827 189.685,224.266 185.571,222.723 185.588 C 222.437 185.591,222.634 185.846,223.202 186.210 M227.301 188.650 C 227.301 189.550,227.370 190.217,227.454 190.133 C 227.692 189.895,227.734 187.447,227.504 187.218 C 227.392 187.106,227.301 187.751,227.301 188.650 M226.469 191.978 C 226.096 192.763,224.474 194.854,222.865 196.626 C 219.039 200.836,219.005 201.230,222.469 201.220 C 224.841 201.213,226.423 200.983,227.684 200.463 C 228.122 200.282,228.221 200.403,228.223 201.117 L 228.225 201.994 228.683 201.115 C 229.490 199.567,229.143 198.429,228.207 199.557 C 227.499 200.410,226.764 200.616,223.865 200.774 C 219.293 201.023,219.293 201.022,223.374 196.495 C 225.740 193.871,227.644 191.031,227.277 190.676 C 227.206 190.607,226.842 191.192,226.469 191.978 M224.233 192.219 C 224.233 192.551,224.067 192.988,223.865 193.190 C 223.585 193.470,223.584 193.558,223.859 193.558 C 224.259 193.558,224.726 192.108,224.423 191.806 C 224.319 191.701,224.233 191.887,224.233 192.219 M222.778 194.881 C 222.065 195.914,221.798 196.215,218.025 200.238 C 215.567 202.859,215.262 203.378,216.181 203.370 C 216.592 203.366,216.622 203.304,216.308 203.105 C 216.004 202.912,216.461 202.267,218.097 200.579 C 220.602 197.996,223.765 194.215,223.578 194.028 C 223.509 193.959,223.149 194.343,222.778 194.881 M201.687 196.526 C 203.825 196.793,203.925 196.868,204.424 198.584 C 204.688 199.491,205.152 200.540,205.455 200.915 L 206.007 201.596 206.899 200.184 C 207.390 199.408,207.897 198.773,208.026 198.773 C 208.155 198.773,208.424 198.462,208.623 198.083 C 209.170 197.042,207.692 198.554,206.639 200.113 L 205.837 201.299 205.219 199.857 C 204.879 199.064,204.601 198.220,204.601 197.981 C 204.601 197.069,203.425 196.317,202.071 196.365 C 201.088 196.400,200.994 196.439,201.687 196.526 M211.120 196.530 C 211.415 196.608,211.898 196.608,212.193 196.530 C 212.488 196.453,212.247 196.390,211.656 196.390 C 211.066 196.390,210.824 196.453,211.120 196.530 M198.072 197.332 C 197.433 197.719,197.007 198.132,197.126 198.251 C 197.446 198.571,197.917 198.512,197.710 198.177 C 197.554 197.924,198.605 197.306,200.000 196.831 C 200.320 196.722,200.273 196.667,199.847 196.652 C 199.509 196.639,198.710 196.945,198.072 197.332 M213.037 197.958 C 213.037 199.175,212.988 199.242,211.963 199.423 C 210.898 199.611,210.897 199.613,211.825 199.653 C 213.192 199.712,214.328 197.485,213.267 196.826 C 213.140 196.747,213.037 197.257,213.037 197.958 M199.327 198.383 C 200.065 198.474,200.503 198.773,200.936 199.484 C 201.271 200.033,201.532 200.248,201.533 199.977 C 201.535 199.171,200.202 198.155,199.213 198.209 C 198.339 198.256,198.342 198.261,199.327 198.383 M209.156 199.394 C 207.377 200.433,205.723 203.914,206.099 205.828 L 206.370 207.209 206.335 205.368 C 206.293 203.100,208.223 199.909,209.937 199.411 C 210.547 199.234,210.669 199.128,210.276 199.117 C 209.939 199.107,209.434 199.232,209.156 199.394 M201.588 201.534 C 201.584 201.956,201.778 202.784,202.020 203.374 C 202.488 204.520,202.429 203.822,201.889 201.840 C 201.655 200.981,201.595 200.920,201.588 201.534 M227.531 202.812 C 227.122 203.240,227.096 203.374,227.421 203.374 C 227.656 203.374,227.936 203.147,228.042 202.870 C 228.310 202.171,228.159 202.153,227.531 202.812 M202.454 205.379 C 202.454 205.807,202.232 206.531,201.961 206.989 L 201.467 207.822 202.114 207.098 C 202.674 206.471,203.043 204.601,202.607 204.601 C 202.523 204.601,202.454 204.951,202.454 205.379 M206.470 207.669 C 206.459 207.922,206.650 208.681,206.893 209.356 C 207.136 210.031,207.331 210.307,207.325 209.969 C 207.313 209.220,206.496 207.023,206.470 207.669 M202.029 209.524 C 201.588 210.048,201.225 210.569,201.222 210.683 C 201.219 210.797,200.789 211.373,200.266 211.963 C 199.743 212.554,198.916 213.518,198.428 214.107 C 197.657 215.036,197.308 215.202,195.779 215.366 L 194.018 215.554 195.496 215.599 C 197.521 215.661,197.844 215.429,200.625 211.911 C 202.921 209.007,203.079 208.870,203.352 209.552 C 203.539 210.020,203.649 210.099,203.662 209.777 C 203.705 208.658,202.867 208.528,202.029 209.524 M199.280 210.712 C 198.534 211.750,197.850 212.342,197.171 212.538 C 196.523 212.725,196.387 212.838,196.788 212.856 C 197.798 212.901,201.048 209.842,200.535 209.329 C 200.451 209.245,199.886 209.868,199.280 210.712 M203.698 210.583 C 203.694 210.752,203.886 211.511,204.125 212.270 C 204.370 213.046,204.569 213.364,204.581 212.995 C 204.592 212.635,204.400 211.876,204.153 211.308 C 203.907 210.741,203.702 210.414,203.698 210.583 M210.546 211.209 C 209.567 212.703,207.710 212.836,207.644 211.416 C 207.628 211.068,207.566 211.026,207.460 211.291 C 206.871 212.762,209.154 213.242,210.288 211.887 C 210.747 211.338,211.415 210.800,211.773 210.690 C 212.417 210.493,212.416 210.490,211.740 210.460 C 211.325 210.441,210.857 210.735,210.546 211.209 M211.191 212.278 C 209.202 215.430,206.692 216.379,205.237 214.529 C 204.887 214.085,204.601 213.852,204.601 214.011 C 204.601 214.499,205.819 215.642,206.377 215.678 C 207.348 215.741,208.432 215.584,208.956 215.304 C 209.617 214.952,212.390 211.367,212.171 211.149 C 212.081 211.059,211.640 211.567,211.191 212.278 M193.756 212.506 C 193.675 212.635,194.150 212.690,194.811 212.627 C 195.472 212.564,196.012 212.458,196.012 212.391 C 196.012 212.163,193.901 212.270,193.756 212.506 " stroke="none" fill="#7c7c7c" fill-rule="evenodd"></path><path id="path4" d="M217.753 140.576 C 217.885 140.707,220.052 140.776,222.570 140.728 L 227.147 140.642 222.330 140.490 C 219.681 140.406,217.621 140.445,217.753 140.576 M234.433 140.718 C 235.571 140.777,237.435 140.777,238.574 140.718 C 239.712 140.659,238.781 140.611,236.503 140.611 C 234.225 140.611,233.294 140.659,234.433 140.718 M75.244 154.523 C 76.559 154.580,78.630 154.580,79.845 154.522 C 81.061 154.464,79.985 154.417,77.454 154.417 C 74.923 154.418,73.929 154.465,75.244 154.523 M87.623 154.525 C 87.544 154.651,88.606 154.717,89.982 154.672 C 94.492 154.523,95.001 154.403,91.352 154.348 C 89.380 154.319,87.702 154.398,87.623 154.525 M104.985 167.331 C 104.989 168.006,105.052 168.246,105.125 167.865 C 105.198 167.483,105.196 166.931,105.119 166.638 C 105.042 166.344,104.982 166.656,104.985 167.331 M147.009 173.533 C 147.473 173.603,148.232 173.603,148.696 173.533 C 149.160 173.462,148.781 173.405,147.853 173.405 C 146.925 173.405,146.545 173.462,147.009 173.533 M182.899 173.543 C 200.571 173.587,229.490 173.587,247.163 173.543 C 264.835 173.499,250.376 173.463,215.031 173.463 C 179.686 173.463,165.226 173.499,182.899 173.543 M71.739 182.599 C 71.870 182.729,74.659 182.798,77.936 182.752 L 83.896 182.667 77.699 182.515 C 74.290 182.431,71.609 182.469,71.739 182.599 M221.396 200.830 C 221.775 200.903,222.396 200.903,222.776 200.830 C 223.156 200.757,222.845 200.697,222.086 200.697 C 221.327 200.697,221.016 200.757,221.396 200.830 M219.095 203.603 C 220.571 203.659,222.987 203.659,224.463 203.603 C 225.939 203.546,224.732 203.500,221.779 203.500 C 218.827 203.500,217.619 203.546,219.095 203.603 " stroke="none" fill="#848484" fill-rule="evenodd"></path></g></svg>