<svg id="svg" version="1.1" xmlns="http://www.w3.org/2000/svg" xmlns:xlink="http://www.w3.org/1999/xlink" width="400" height="267.7551020408163" viewBox="0, 0, 400,267.7551020408163"><g id="svgg"><path id="path0" d="M0.000 133.958 L 0.000 267.917 200.000 267.917 L 400.000 267.917 400.000 133.958 L 400.000 0.000 200.000 0.000 L 0.000 0.000 0.000 133.958 M100.581 82.681 C 100.946 82.821,101.005 83.526,101.005 87.780 C 101.005 92.983,100.905 93.388,99.779 92.758 C 99.489 92.596,99.003 92.603,98.434 92.777 C 95.403 93.707,93.451 89.739,95.473 86.758 C 96.049 85.909,96.156 85.868,97.737 85.870 L 99.397 85.873 99.397 84.352 C 99.397 83.386,99.519 82.782,99.732 82.696 C 99.916 82.622,100.087 82.551,100.112 82.540 C 100.137 82.528,100.348 82.592,100.581 82.681 M112.369 82.681 C 112.687 82.803,112.793 83.226,112.793 84.378 L 112.793 85.911 114.228 85.792 C 116.525 85.602,116.849 86.126,116.753 89.878 C 116.683 92.630,116.641 92.833,116.142 92.833 C 115.660 92.833,115.592 92.606,115.461 90.556 C 115.254 87.319,114.798 86.625,113.453 87.506 C 112.834 87.911,112.793 88.086,112.793 90.301 C 112.793 92.368,112.731 92.683,112.295 92.821 C 110.986 93.237,110.918 92.984,110.918 87.736 C 110.918 82.469,111.007 82.158,112.369 82.681 M160.058 82.681 C 160.681 82.920,160.699 92.633,160.077 92.872 C 159.854 92.957,159.515 92.897,159.324 92.739 C 159.076 92.533,158.703 92.534,158.016 92.745 C 155.519 93.511,153.947 91.566,154.435 88.313 C 154.710 86.477,155.668 85.667,157.434 85.777 L 158.875 85.867 158.875 84.514 C 158.875 83.770,159.019 83.017,159.196 82.840 C 159.572 82.464,159.519 82.474,160.058 82.681 M211.781 82.882 C 212.502 83.409,212.126 84.126,211.127 84.126 C 209.959 84.126,209.890 85.649,211.052 85.783 C 211.581 85.844,211.788 86.018,211.788 86.403 C 211.788 86.789,211.581 86.963,211.052 87.024 L 210.315 87.109 210.315 89.737 C 210.315 92.563,210.053 93.175,208.988 92.837 C 208.481 92.676,208.439 92.450,208.439 89.868 C 208.439 87.252,208.405 87.073,207.904 87.073 C 207.511 87.073,207.368 86.894,207.368 86.403 C 207.368 85.912,207.511 85.733,207.904 85.733 C 208.328 85.733,208.441 85.553,208.445 84.863 C 208.458 83.062,210.427 81.892,211.781 82.882 M85.958 83.290 C 86.659 83.734,86.218 84.796,85.332 84.796 C 84.688 84.796,84.510 84.668,84.437 84.156 C 84.351 83.548,84.749 83.062,85.332 83.062 C 85.479 83.062,85.761 83.165,85.958 83.290 M163.922 83.290 C 164.623 83.734,164.181 84.796,163.295 84.796 C 162.652 84.796,162.474 84.668,162.401 84.156 C 162.315 83.548,162.713 83.062,163.295 83.062 C 163.443 83.062,163.725 83.165,163.922 83.290 M232.396 83.217 C 233.091 83.484,232.926 84.625,232.165 84.816 C 231.315 85.029,230.944 84.781,230.944 83.998 C 230.944 83.211,231.542 82.889,232.396 83.217 M83.322 83.963 C 83.322 84.737,82.890 84.930,81.157 84.930 L 79.839 84.930 79.839 86.135 L 79.839 87.341 81.280 87.341 C 82.234 87.341,82.833 87.477,83.054 87.743 C 83.643 88.452,82.913 88.948,81.280 88.948 L 79.839 88.948 79.839 90.806 C 79.839 92.855,79.135 93.662,78.319 92.547 C 77.948 92.040,77.800 85.167,78.133 83.925 C 78.393 82.954,83.322 82.991,83.322 83.963 M108.145 84.930 C 108.279 85.599,108.434 85.733,109.076 85.733 C 109.719 85.733,109.846 85.844,109.846 86.403 C 109.846 86.969,109.721 87.073,109.042 87.073 L 108.238 87.073 108.238 89.216 L 108.238 91.360 109.042 91.360 C 109.945 91.360,110.242 92.490,109.422 92.805 C 107.395 93.583,106.363 92.456,106.363 89.465 C 106.363 87.252,106.323 87.073,105.827 87.073 C 105.434 87.073,105.291 86.894,105.291 86.403 C 105.291 85.912,105.434 85.733,105.827 85.733 C 106.244 85.733,106.363 85.555,106.363 84.930 C 106.363 84.214,106.452 84.126,107.173 84.126 C 107.860 84.126,108.009 84.249,108.145 84.930 M181.965 84.863 C 182.035 85.477,182.195 85.613,182.920 85.683 C 184.269 85.813,184.209 87.073,182.853 87.073 L 181.916 87.073 181.919 88.614 C 181.925 90.909,182.105 91.360,183.019 91.360 C 183.893 91.360,184.168 92.497,183.367 92.805 C 181.273 93.608,180.308 92.545,180.308 89.434 C 180.308 87.252,180.268 87.073,179.772 87.073 C 179.379 87.073,179.236 86.894,179.236 86.403 C 179.236 85.912,179.379 85.733,179.772 85.733 C 180.189 85.733,180.308 85.555,180.308 84.930 C 180.308 83.769,181.832 83.707,181.965 84.863 M243.586 84.863 C 243.656 85.477,243.816 85.613,244.541 85.683 C 245.890 85.813,245.829 87.073,244.474 87.073 L 243.537 87.073 243.537 88.379 C 243.537 90.737,243.767 91.360,244.642 91.360 C 245.514 91.360,245.787 92.498,244.988 92.805 C 242.933 93.593,241.929 92.488,241.929 89.438 C 241.929 87.252,241.889 87.073,241.393 87.073 C 241.000 87.073,240.857 86.894,240.857 86.403 C 240.857 85.912,241.000 85.733,241.393 85.733 C 241.810 85.733,241.929 85.555,241.929 84.930 C 241.929 83.769,243.453 83.707,243.586 84.863 M86.210 89.263 C 86.279 92.392,86.245 92.671,85.779 92.819 C 84.537 93.213,84.394 92.856,84.394 89.366 C 84.394 85.820,84.439 85.670,85.455 85.788 L 86.135 85.867 86.210 89.263 M92.823 86.095 C 93.728 86.756,94.167 92.037,93.372 92.696 C 92.518 93.406,92.163 92.825,92.163 90.716 C 92.163 87.567,91.524 86.537,90.177 87.519 C 89.546 87.978,89.501 88.164,89.493 90.337 C 89.484 92.791,89.212 93.257,88.048 92.811 C 87.622 92.647,87.343 86.356,87.744 85.955 C 88.053 85.647,92.373 85.765,92.823 86.095 M123.133 86.116 C 123.745 86.545,124.422 88.320,124.272 89.105 C 124.186 89.553,123.895 89.628,121.966 89.696 C 119.627 89.779,119.275 90.034,120.212 90.971 C 120.574 91.333,120.986 91.396,122.239 91.282 C 124.793 91.051,124.654 92.606,122.096 92.894 C 119.142 93.227,117.508 91.430,118.018 88.411 C 118.403 86.133,121.301 84.833,123.133 86.116 M133.271 86.250 C 134.131 87.200,133.460 88.233,132.469 87.483 C 131.184 86.511,129.940 87.416,129.940 89.322 C 129.940 91.139,131.006 91.792,132.615 90.960 C 133.453 90.527,133.909 91.014,133.548 91.955 C 132.620 94.374,128.064 92.482,128.064 89.678 C 128.064 86.467,131.450 84.238,133.271 86.250 M140.147 86.566 C 141.974 88.522,140.901 92.378,138.399 92.847 C 135.615 93.370,133.773 91.314,134.336 88.313 C 134.817 85.751,138.384 84.678,140.147 86.566 M147.917 86.566 C 149.744 88.522,148.671 92.378,146.169 92.847 C 143.384 93.370,141.543 91.314,142.106 88.313 C 142.586 85.751,146.154 84.678,147.917 86.566 M153.918 86.537 C 153.918 87.081,153.781 87.212,153.190 87.234 C 151.877 87.282,151.641 87.728,151.641 90.154 C 151.641 92.543,151.335 93.161,150.314 92.837 C 149.799 92.674,149.766 92.455,149.766 89.228 L 149.766 85.793 151.842 85.830 C 153.868 85.866,153.918 85.884,153.918 86.537 M164.174 89.263 C 164.243 92.392,164.209 92.671,163.743 92.819 C 162.501 93.213,162.358 92.856,162.358 89.366 C 162.358 85.820,162.402 85.670,163.419 85.788 L 164.099 85.867 164.174 89.263 M170.787 86.095 C 171.692 86.756,172.131 92.037,171.336 92.696 C 170.482 93.406,170.127 92.825,170.127 90.716 C 170.127 87.567,169.488 86.537,168.140 87.519 C 167.509 87.978,167.464 88.164,167.457 90.337 C 167.448 92.791,167.176 93.257,166.012 92.811 C 165.586 92.647,165.307 86.356,165.708 85.955 C 166.017 85.647,170.336 85.765,170.787 86.095 M177.215 85.900 C 178.203 86.279,179.145 92.605,178.232 92.726 C 174.914 93.164,173.307 92.836,172.803 91.620 C 172.136 90.009,173.648 88.413,175.840 88.413 C 176.575 88.413,176.680 88.239,176.395 87.497 C 176.212 87.021,174.553 86.899,174.280 87.341 C 173.930 87.906,173.074 87.631,173.074 86.952 C 173.074 85.907,175.576 85.271,177.215 85.900 M189.433 86.282 C 189.943 86.725,190.068 87.102,190.076 88.225 L 190.087 89.618 188.011 89.696 C 185.885 89.777,185.705 89.895,186.226 90.867 C 186.482 91.347,186.729 91.401,188.302 91.319 C 190.279 91.216,190.858 91.891,189.417 92.620 C 186.112 94.293,182.865 90.875,184.496 87.439 C 185.333 85.675,188.009 85.048,189.433 86.282 M195.844 86.132 C 196.504 86.926,195.981 87.332,194.520 87.159 C 192.589 86.930,192.574 87.785,194.495 88.623 C 196.552 89.522,196.957 90.827,195.600 92.184 C 194.322 93.462,191.293 93.137,191.293 91.723 C 191.293 91.122,191.348 91.106,192.900 91.268 C 194.627 91.449,195.391 90.592,193.905 90.141 C 191.805 89.503,190.868 87.498,192.096 86.269 C 192.769 85.597,195.323 85.503,195.844 86.132 M205.636 86.344 C 206.997 87.515,207.006 90.911,205.650 92.077 C 202.663 94.646,198.705 91.442,200.262 87.715 C 201.111 85.683,204.009 84.944,205.636 86.344 M221.415 86.564 C 223.523 89.070,221.624 93.345,218.617 92.864 L 217.549 92.693 217.549 94.053 C 217.549 95.380,217.530 95.412,216.812 95.329 L 216.075 95.244 216.002 90.533 L 215.929 85.821 218.328 85.784 C 220.693 85.747,220.737 85.758,221.415 86.564 M228.399 86.223 C 231.770 89.194,228.109 94.748,224.307 92.430 C 222.565 91.368,222.349 87.915,223.936 86.497 C 224.988 85.557,227.470 85.405,228.399 86.223 M232.761 89.263 C 232.830 92.392,232.796 92.671,232.330 92.819 C 231.088 93.213,230.944 92.856,230.944 89.366 C 230.944 85.820,230.989 85.670,232.006 85.788 L 232.686 85.867 232.761 89.263 M239.536 86.288 C 240.346 87.097,240.212 92.833,239.384 92.833 C 238.900 92.833,238.835 92.610,238.714 90.556 C 238.525 87.343,238.046 86.620,236.695 87.506 C 236.076 87.911,236.035 88.086,236.035 90.301 C 236.035 92.795,235.769 93.260,234.599 92.811 C 234.173 92.647,233.894 86.356,234.295 85.955 C 234.744 85.506,239.026 85.778,239.536 86.288 M96.867 87.668 C 95.948 88.980,96.561 91.360,97.817 91.360 C 99.347 91.360,100.007 88.811,98.777 87.656 C 97.987 86.913,97.394 86.917,96.867 87.668 M120.202 87.563 C 119.530 88.306,119.643 88.413,121.098 88.413 C 122.019 88.413,122.438 88.304,122.438 88.064 C 122.438 87.076,120.946 86.741,120.202 87.563 M136.519 87.668 C 135.124 89.660,137.302 92.741,138.815 90.916 C 139.277 90.360,139.264 88.057,138.796 87.493 C 138.276 86.867,137.012 86.964,136.519 87.668 M144.288 87.668 C 143.266 89.128,143.977 91.360,145.465 91.360 C 146.504 91.360,146.922 90.739,146.922 89.194 C 146.922 87.243,145.261 86.280,144.288 87.668 M156.482 87.851 C 155.122 89.761,156.918 92.542,158.431 90.870 C 159.113 90.117,159.020 88.218,158.272 87.594 C 157.443 86.902,157.125 86.948,156.482 87.851 M186.212 87.591 C 185.790 88.378,185.835 88.413,187.274 88.413 C 188.713 88.413,188.758 88.378,188.336 87.591 C 188.159 87.260,187.776 87.073,187.274 87.073 C 186.772 87.073,186.389 87.260,186.212 87.591 M202.210 87.735 C 201.150 89.193,201.894 91.360,203.455 91.360 C 204.457 91.360,204.956 90.618,204.956 89.129 C 204.956 87.246,203.210 86.359,202.210 87.735 M218.131 87.693 C 216.888 89.016,217.593 91.360,219.234 91.360 C 219.829 91.360,219.984 91.194,220.225 90.298 C 220.882 87.859,219.542 86.192,218.131 87.693 M225.070 87.779 C 223.952 89.199,224.654 91.360,226.233 91.360 C 227.416 91.360,227.729 90.936,227.729 89.338 C 227.729 87.168,226.238 86.293,225.070 87.779 M174.593 90.199 C 173.999 90.792,174.443 91.390,175.419 91.309 C 176.855 91.190,177.095 90.020,175.683 90.020 C 175.181 90.020,174.691 90.100,174.593 90.199 M112.775 110.506 C 113.663 110.966,113.991 111.954,113.566 112.888 C 113.325 113.417,113.351 113.672,113.699 114.168 C 114.941 115.942,113.594 118.171,111.236 118.243 C 109.683 118.290,109.013 117.799,109.696 117.114 C 110.007 116.804,110.188 116.809,110.875 117.152 C 111.585 117.506,111.755 117.508,112.240 117.169 C 113.301 116.426,112.753 114.870,111.301 114.506 C 110.522 114.310,110.455 113.978,111.158 113.794 C 111.965 113.583,112.665 112.346,112.256 111.854 C 111.803 111.308,111.195 111.351,110.529 111.977 C 110.151 112.332,109.848 112.424,109.585 112.262 C 109.276 112.071,109.401 111.833,110.211 111.068 C 111.336 110.008,111.670 109.935,112.775 110.506 M151.378 110.519 C 153.314 111.520,153.141 113.230,150.850 115.740 L 149.994 116.678 150.864 116.765 C 151.342 116.813,152.014 116.703,152.357 116.519 C 153.190 116.073,153.383 116.340,152.944 117.332 L 152.582 118.151 150.236 118.151 C 147.475 118.151,147.432 118.071,149.195 116.193 C 150.988 114.282,151.529 113.184,151.086 112.355 C 150.652 111.544,149.380 111.487,148.900 112.257 C 148.622 112.702,147.890 113.023,147.890 112.699 C 147.890 110.906,149.809 109.707,151.378 110.519 M138.136 113.717 C 138.729 114.311,138.728 116.131,138.133 116.788 C 137.705 117.261,137.717 117.328,138.358 118.020 C 139.352 119.093,139.512 120.380,138.827 121.791 C 137.893 123.714,135.162 124.811,133.479 123.941 C 131.725 123.033,132.778 121.782,134.641 122.560 C 135.925 123.097,136.152 123.083,136.855 122.428 C 138.186 121.188,137.416 119.083,135.568 118.909 C 134.337 118.793,134.233 118.139,135.362 117.616 C 136.559 117.061,137.115 116.012,136.698 115.095 C 136.238 114.086,135.051 114.153,133.955 115.249 C 132.921 116.283,132.365 115.854,133.105 114.593 C 134.138 112.832,136.790 112.371,138.136 113.717 M98.536 114.421 C 101.071 115.304,100.690 118.322,97.649 121.453 L 96.692 122.438 98.581 122.438 C 99.901 122.438,100.475 122.539,100.490 122.773 C 100.507 123.041,100.538 123.041,100.646 122.773 C 100.721 122.589,101.163 122.433,101.630 122.428 C 102.864 122.413,104.047 120.687,103.792 119.274 C 103.575 118.071,103.243 117.616,102.579 117.616 C 101.848 117.616,101.963 117.109,102.764 116.805 C 103.977 116.344,104.745 116.483,105.023 117.214 C 105.164 117.582,105.324 117.883,105.380 117.883 C 105.435 117.883,105.806 117.582,106.204 117.214 C 107.048 116.431,107.852 116.350,108.193 117.013 C 108.557 117.721,108.278 118.151,107.454 118.151 C 106.263 118.151,105.735 118.968,105.889 120.571 C 106.049 122.237,106.462 122.770,107.014 122.022 C 107.309 121.622,107.473 121.574,107.718 121.815 C 107.964 122.057,107.905 122.313,107.461 122.937 C 106.396 124.432,104.891 124.373,104.601 122.825 C 104.384 121.666,104.335 121.671,103.220 122.974 C 102.223 124.138,101.227 124.382,100.758 123.577 C 100.607 123.316,100.482 123.257,100.477 123.443 C 100.471 123.690,99.696 123.778,97.522 123.778 C 94.515 123.778,94.428 123.746,94.564 122.706 C 94.593 122.485,95.138 121.762,95.776 121.098 C 97.298 119.516,98.326 117.952,98.326 117.218 C 98.326 115.933,96.847 115.435,95.717 116.339 C 95.192 116.758,94.526 116.354,94.623 115.674 C 94.787 114.522,96.891 113.847,98.536 114.421 M162.710 114.432 C 164.285 115.237,164.621 116.655,163.564 118.040 L 162.896 118.916 163.732 119.752 C 165.320 121.340,164.384 123.534,161.963 123.896 C 158.294 124.447,156.368 121.410,159.079 119.349 C 159.376 119.123,159.340 118.956,158.878 118.423 C 156.984 116.239,160.034 113.063,162.710 114.432 M185.230 114.808 C 185.388 115.221,184.968 116.443,183.666 119.357 C 183.271 120.241,182.770 121.386,182.553 121.902 C 182.336 122.418,182.061 123.021,181.943 123.242 C 181.690 123.713,180.040 123.953,180.040 123.519 C 180.040 123.139,182.341 117.663,183.000 116.477 C 183.237 116.049,183.086 116.008,181.281 116.008 C 179.216 116.008,178.473 115.648,178.796 114.806 C 179.026 114.206,184.999 114.208,185.230 114.808 M160.225 116.129 C 159.764 116.684,160.136 117.586,160.905 117.779 C 161.712 117.981,162.358 117.490,162.358 116.674 C 162.358 115.748,160.859 115.365,160.225 116.129 M175.164 116.330 C 175.341 116.506,175.486 117.109,175.486 117.669 C 175.486 118.647,175.521 118.687,176.391 118.687 C 178.282 118.687,178.348 120.351,176.463 120.512 C 175.586 120.586,175.486 120.673,175.486 121.361 C 175.486 122.533,175.222 122.974,174.519 122.974 C 173.938 122.974,173.878 122.861,173.878 121.768 C 173.878 120.582,173.864 120.563,172.992 120.563 C 170.824 120.563,170.618 118.898,172.767 118.739 L 173.878 118.656 173.878 117.511 C 173.878 116.012,174.383 115.548,175.164 116.330 M143.500 116.749 C 143.665 116.857,143.880 117.204,143.978 117.519 C 144.153 118.079,144.175 118.074,144.950 117.299 C 145.893 116.357,146.906 116.348,147.038 117.282 C 147.124 117.888,147.001 117.980,145.726 118.257 C 144.730 118.473,144.395 119.392,144.730 120.992 C 145.071 122.618,145.087 122.634,145.747 122.036 C 146.402 121.443,146.673 121.645,146.445 122.556 C 146.014 124.273,143.957 124.457,143.369 122.831 L 143.020 121.865 142.013 122.955 C 140.964 124.092,140.150 124.324,139.588 123.647 C 139.082 123.038,139.464 122.438,140.358 122.438 C 140.961 122.438,141.351 122.181,142.008 121.352 L 142.868 120.265 142.469 119.007 C 142.140 117.974,141.943 117.734,141.363 117.665 C 140.448 117.555,140.462 117.195,141.393 116.855 C 142.292 116.527,143.101 116.486,143.500 116.749 M82.294 117.549 C 82.459 117.954,82.758 118.665,82.958 119.130 C 83.158 119.594,83.322 120.159,83.322 120.386 C 83.322 120.613,83.429 120.865,83.559 120.945 C 83.800 121.094,83.975 120.717,84.825 118.218 C 85.246 116.980,85.391 116.812,86.038 116.812 C 86.914 116.812,87.185 117.150,86.836 117.806 C 86.696 118.069,86.137 119.551,85.595 121.098 C 83.726 126.429,83.712 126.457,82.918 126.457 C 82.010 126.457,81.840 125.900,82.394 124.734 C 82.814 123.849,82.815 123.710,82.415 122.866 C 82.177 122.365,81.983 121.836,81.983 121.691 C 81.983 121.546,81.802 121.082,81.582 120.660 C 81.362 120.238,81.181 119.706,81.180 119.478 C 81.180 119.249,81.071 118.948,80.939 118.808 C 80.807 118.668,80.617 118.161,80.516 117.683 C 80.259 116.462,81.804 116.345,82.294 117.549 M167.333 117.749 C 167.611 118.265,167.919 118.687,168.018 118.687 C 168.118 118.687,168.448 118.265,168.752 117.749 C 169.191 117.005,169.473 116.812,170.118 116.812 C 171.133 116.812,171.134 117.092,170.127 118.729 C 169.142 120.330,169.133 120.110,170.262 121.983 C 171.404 123.877,171.405 123.778,170.252 123.778 C 169.454 123.778,169.219 123.630,168.752 122.840 C 168.448 122.324,168.100 121.902,167.979 121.902 C 167.859 121.902,167.499 122.324,167.180 122.840 C 166.732 123.565,166.423 123.778,165.819 123.778 C 164.788 123.778,164.819 123.351,165.972 121.674 L 166.908 120.314 165.973 118.764 C 164.825 116.860,164.824 116.812,165.932 116.812 C 166.681 116.812,166.911 116.966,167.333 117.749 M93.503 118.294 L 93.503 118.973 90.489 118.897 C 87.594 118.824,87.472 118.797,87.389 118.218 C 87.305 117.623,87.342 117.616,90.403 117.616 L 93.503 117.616 93.503 118.294 M127.796 119.765 L 127.796 120.576 123.309 120.502 L 118.821 120.429 118.736 119.692 L 118.652 118.955 123.224 118.955 L 127.796 118.955 127.796 119.765 M156.817 119.461 C 157.163 119.482,157.280 119.666,157.219 120.094 C 157.103 120.913,153.455 121.037,153.299 120.226 C 153.156 119.481,154.032 119.291,156.817 119.461 M160.379 120.318 C 159.468 121.035,159.434 122.099,160.316 122.320 C 162.404 122.844,163.474 121.471,161.868 120.328 L 161.080 119.767 160.379 120.318 M93.454 121.031 L 93.369 121.768 90.663 121.844 C 87.833 121.924,87.071 121.653,87.437 120.700 C 87.562 120.372,88.158 120.295,90.565 120.295 L 93.539 120.295 93.454 121.031 M104.600 141.891 C 105.222 142.130,105.240 151.843,104.618 152.081 C 104.395 152.167,104.056 152.107,103.865 151.948 C 103.617 151.742,103.239 151.745,102.540 151.960 C 100.358 152.630,98.863 151.281,98.862 148.644 C 98.861 145.974,99.851 144.830,102.009 145.006 L 103.416 145.121 103.416 143.746 C 103.416 142.990,103.561 142.226,103.737 142.050 C 104.113 141.674,104.060 141.684,104.600 141.891 M108.466 142.501 C 109.267 143.009,108.252 144.408,107.337 144.056 C 106.824 143.859,106.746 142.638,107.234 142.441 C 107.746 142.235,108.070 142.250,108.466 142.501 M144.943 145.460 C 144.943 148.293,144.963 148.392,145.546 148.474 C 146.392 148.594,146.404 149.863,145.561 149.983 C 145.096 150.049,144.956 150.273,144.891 151.055 C 144.768 152.538,143.510 152.534,143.387 151.050 L 143.305 150.056 141.378 149.978 C 138.910 149.878,138.790 149.477,140.411 146.750 C 141.035 145.699,141.681 144.591,141.846 144.288 C 142.699 142.720,142.923 142.532,143.936 142.532 L 144.943 142.532 144.943 145.460 M126.943 144.206 C 127.014 144.823,127.156 144.943,127.814 144.943 C 128.474 144.943,128.600 145.051,128.600 145.613 C 128.600 146.178,128.475 146.283,127.796 146.283 L 126.993 146.283 126.993 148.426 L 126.993 150.569 127.814 150.569 C 129.265 150.569,128.841 152.016,127.358 152.124 C 125.638 152.249,125.117 151.413,125.117 148.524 C 125.117 146.461,125.075 146.283,124.581 146.283 C 124.216 146.283,124.046 146.104,124.046 145.722 C 124.046 145.386,124.261 145.105,124.581 145.021 C 124.964 144.921,125.117 144.655,125.117 144.091 C 125.117 142.940,126.810 143.047,126.943 144.206 M86.537 145.613 C 86.537 146.030,86.385 146.283,86.135 146.283 C 85.840 146.283,85.733 146.591,85.733 147.447 C 85.733 149.031,84.402 150.060,82.690 149.798 C 82.389 149.752,82.263 149.836,82.371 150.012 C 82.469 150.171,83.151 150.301,83.886 150.301 C 86.350 150.301,87.365 152.260,85.705 153.811 C 83.806 155.584,79.763 154.512,80.234 152.360 C 80.336 151.891,80.460 150.304,80.509 148.833 C 80.627 145.279,80.953 144.943,84.275 144.943 C 86.509 144.943,86.537 144.951,86.537 145.613 M91.896 145.788 C 91.896 146.509,91.820 146.593,91.300 146.457 C 90.069 146.135,89.484 147.168,89.484 149.660 C 89.484 151.994,89.199 152.462,88.048 152.020 C 87.616 151.854,87.346 145.563,87.754 145.155 C 87.834 145.076,88.798 145.000,89.897 144.987 L 91.896 144.964 91.896 145.788 M97.123 145.387 C 97.867 146.130,98.612 151.750,97.991 151.928 C 96.518 152.350,93.410 152.108,92.827 151.525 C 91.237 149.935,92.886 147.622,95.610 147.622 C 96.205 147.622,96.294 147.423,96.020 146.706 C 95.837 146.230,94.178 146.108,93.905 146.551 C 93.640 146.979,92.698 146.860,92.512 146.375 C 92.042 145.149,96.031 144.294,97.123 145.387 M108.612 145.367 C 108.970 146.300,108.787 151.564,108.385 151.898 C 107.231 152.856,106.899 152.077,106.899 148.408 L 106.899 144.943 107.674 144.943 C 108.134 144.943,108.515 145.116,108.612 145.367 M115.328 145.784 C 115.888 146.449,116.018 146.854,115.955 147.726 L 115.874 148.828 113.731 148.962 C 112.011 149.069,111.605 149.175,111.676 149.497 C 111.886 150.443,112.341 150.636,114.042 150.499 C 115.846 150.355,116.451 150.777,115.624 151.604 C 114.101 153.127,110.432 151.903,110.010 149.731 C 109.251 145.832,113.017 143.037,115.328 145.784 M119.104 145.234 C 119.233 145.444,119.365 145.444,119.575 145.234 C 120.282 144.527,122.413 144.890,122.982 145.814 C 123.868 147.254,123.656 152.043,122.706 152.043 C 122.050 152.043,122.033 151.991,121.902 149.604 C 121.644 144.900,119.321 144.953,119.167 149.666 C 119.090 152.002,119.078 152.043,118.419 152.043 L 117.749 152.043 117.675 148.493 L 117.600 144.943 118.262 144.943 C 118.626 144.943,119.005 145.074,119.104 145.234 M142.868 145.546 C 142.723 145.730,142.288 146.453,141.903 147.153 L 141.203 148.426 142.269 148.426 L 143.336 148.426 143.336 146.818 C 143.336 145.124,143.293 145.009,142.868 145.546 M138.513 146.417 L 138.513 147.086 135.454 147.086 C 133.248 147.086,132.363 146.993,132.279 146.752 C 131.975 145.879,132.394 145.747,135.461 145.747 L 138.513 145.747 138.513 146.417 M82.429 146.461 C 82.060 146.831,82.270 147.882,82.767 148.148 C 83.757 148.678,84.637 147.721,84.078 146.723 C 83.833 146.286,82.772 146.118,82.429 146.461 M100.928 147.061 C 100.048 148.551,100.616 150.569,101.916 150.569 C 103.405 150.569,104.013 148.009,102.796 146.865 C 101.961 146.081,101.477 146.132,100.928 147.061 M112.007 146.785 C 111.579 147.585,111.621 147.622,112.946 147.622 C 114.062 147.622,114.162 147.569,114.084 147.019 C 113.965 146.180,112.424 146.006,112.007 146.785 M138.379 149.230 C 138.379 150.077,133.024 150.442,132.358 149.640 C 131.593 148.718,132.462 148.402,135.539 148.484 C 138.370 148.560,138.379 148.562,138.379 149.230 M94.217 149.408 C 93.770 149.856,94.059 150.569,94.687 150.569 C 95.686 150.569,96.182 150.293,96.182 149.737 C 96.182 149.227,94.654 148.971,94.217 149.408 M81.959 152.072 C 81.655 152.438,81.678 152.559,82.111 152.876 C 82.983 153.513,84.662 153.154,84.662 152.330 C 84.662 151.567,82.545 151.365,81.959 152.072 " stroke="none" fill="#fbfbfb" fill-rule="evenodd"></path><path id="path1" d="M210.181 82.980 C 209.315 83.193,209.028 83.557,208.838 84.681 C 208.731 85.317,208.454 85.850,208.147 86.014 C 207.490 86.366,207.496 86.706,208.162 86.880 C 208.635 87.004,208.696 87.295,208.765 89.788 C 208.831 92.178,208.906 92.571,209.310 92.649 C 209.733 92.730,209.779 92.459,209.779 89.899 L 209.779 87.060 210.583 86.899 C 211.590 86.697,211.634 86.065,210.650 85.952 C 210.129 85.892,209.888 85.695,209.829 85.281 C 209.728 84.566,210.681 83.542,211.246 83.759 C 211.500 83.856,211.654 83.763,211.654 83.513 C 211.654 83.198,210.976 82.669,210.762 82.817 C 210.737 82.835,210.476 82.908,210.181 82.980 M99.665 84.796 C 99.665 85.754,99.619 86.537,99.562 86.537 C 99.505 86.537,99.073 86.375,98.602 86.177 C 96.583 85.328,95.111 86.666,95.111 89.350 C 95.111 92.159,96.940 93.587,98.836 92.258 C 99.421 91.849,99.484 91.849,99.713 92.258 C 100.518 93.697,100.737 92.760,100.737 87.877 C 100.737 83.233,100.717 83.054,100.201 83.054 C 99.720 83.054,99.665 83.233,99.665 84.796 M111.453 87.877 C 111.453 91.985,111.513 92.699,111.855 92.699 C 112.306 92.699,112.342 92.466,112.264 90.091 C 112.213 88.555,112.274 88.355,113.016 87.612 C 114.653 85.975,115.301 86.589,115.472 89.940 C 115.586 92.159,115.678 92.574,116.075 92.649 C 116.614 92.752,116.791 87.767,116.282 86.816 C 115.858 86.023,114.645 85.733,113.598 86.173 C 112.503 86.633,112.391 86.484,112.391 84.553 C 112.391 83.305,112.313 83.055,111.922 83.054 C 111.493 83.054,111.453 83.462,111.453 87.877 M159.143 84.782 L 159.143 86.510 158.205 86.118 C 155.852 85.135,154.012 87.690,154.845 90.784 C 155.324 92.564,156.990 93.244,158.480 92.268 C 159.084 91.872,159.151 91.872,159.303 92.268 C 159.937 93.921,160.214 92.584,160.214 87.877 C 160.214 83.233,160.194 83.054,159.678 83.054 C 159.198 83.054,159.143 83.233,159.143 84.782 M84.759 83.722 C 84.667 83.964,84.707 84.278,84.849 84.421 C 85.224 84.796,86.042 84.402,85.944 83.894 C 85.831 83.305,84.968 83.179,84.759 83.722 M162.723 83.722 C 162.630 83.964,162.683 84.290,162.840 84.447 C 163.248 84.856,164.022 84.483,163.915 83.929 C 163.796 83.312,162.938 83.163,162.723 83.722 M231.310 83.722 C 231.217 83.964,231.258 84.278,231.400 84.421 C 231.775 84.796,232.593 84.402,232.495 83.894 C 232.381 83.305,231.518 83.179,231.310 83.722 M78.500 88.134 C 78.500 92.521,78.521 92.699,79.035 92.699 C 79.524 92.699,79.571 92.521,79.571 90.690 L 79.571 88.681 81.179 88.681 C 82.627 88.681,82.786 88.626,82.786 88.124 C 82.786 87.665,82.634 87.576,81.916 87.615 C 79.495 87.748,79.536 87.776,79.625 86.068 L 79.705 84.528 81.398 84.448 C 83.952 84.326,83.437 83.744,80.688 83.646 L 78.500 83.568 78.500 88.134 M106.810 84.305 C 106.711 84.403,106.631 84.760,106.631 85.099 C 106.631 85.440,106.392 85.842,106.095 86.001 C 105.800 86.159,105.559 86.390,105.559 86.515 C 105.559 86.640,105.800 86.806,106.095 86.883 C 106.573 87.008,106.631 87.250,106.635 89.124 C 106.640 91.891,106.982 92.565,108.377 92.565 C 109.173 92.565,109.459 92.449,109.527 92.096 C 109.594 91.749,109.441 91.628,108.937 91.628 C 107.981 91.628,107.665 90.855,107.757 88.742 L 107.837 86.939 108.707 86.855 C 109.226 86.805,109.578 86.622,109.578 86.403 C 109.578 86.184,109.226 86.001,108.707 85.951 C 107.942 85.878,107.826 85.762,107.753 84.997 C 107.675 84.193,107.240 83.874,106.810 84.305 M180.760 84.299 C 180.659 84.400,180.576 84.760,180.576 85.099 C 180.576 85.440,180.337 85.842,180.040 86.001 C 179.745 86.159,179.504 86.390,179.504 86.515 C 179.504 86.640,179.745 86.806,180.040 86.883 C 180.522 87.009,180.576 87.248,180.576 89.266 C 180.576 92.068,180.955 92.768,182.408 92.647 C 183.116 92.588,183.411 92.426,183.481 92.058 C 183.557 91.657,183.459 91.582,183.010 91.699 C 181.967 91.972,181.618 91.246,181.704 88.986 L 181.782 86.939 182.669 86.854 C 183.746 86.750,183.679 86.194,182.566 85.999 C 181.959 85.893,181.756 85.690,181.650 85.083 C 181.514 84.306,181.110 83.950,180.760 84.299 M242.381 84.299 C 242.280 84.400,242.197 84.760,242.197 85.099 C 242.197 85.440,241.958 85.842,241.661 86.001 C 241.366 86.159,241.125 86.390,241.125 86.515 C 241.125 86.640,241.366 86.806,241.661 86.883 C 242.143 87.009,242.197 87.248,242.197 89.266 C 242.197 92.068,242.576 92.768,244.029 92.647 C 244.737 92.588,245.032 92.426,245.102 92.058 C 245.178 91.657,245.080 91.582,244.630 91.699 C 243.588 91.972,243.239 91.246,243.325 88.986 L 243.403 86.939 244.273 86.855 C 245.429 86.744,245.430 86.063,244.274 85.951 C 243.550 85.881,243.382 85.737,243.270 85.086 C 243.135 84.307,242.731 83.949,242.381 84.299 M90.170 86.198 C 89.398 86.518,89.087 86.550,89.009 86.318 C 88.527 84.870,88.145 86.218,88.145 89.370 C 88.145 92.434,88.187 92.730,88.614 92.649 C 89.006 92.575,89.104 92.170,89.216 90.179 C 89.496 85.211,92.431 85.585,92.431 90.588 C 92.431 92.492,92.485 92.728,92.900 92.649 C 93.489 92.536,93.720 88.513,93.209 87.278 C 92.958 86.672,91.720 85.676,91.306 85.747 C 91.262 85.755,90.751 85.958,90.170 86.198 M120.128 86.118 C 118.169 86.971,117.648 90.424,119.251 91.922 C 120.237 92.843,122.590 93.045,123.359 92.276 C 123.947 91.688,123.636 91.325,122.813 91.638 C 121.262 92.227,119.491 91.432,119.491 90.145 C 119.491 89.529,119.572 89.503,121.701 89.428 C 124.202 89.340,124.507 89.011,123.642 87.338 C 122.957 86.013,121.518 85.514,120.128 86.118 M130.295 86.124 C 128.351 86.970,127.819 90.352,129.383 91.916 C 130.588 93.121,133.423 92.814,133.423 91.478 C 133.423 91.040,132.736 90.953,132.485 91.360 C 131.673 92.673,129.672 91.181,129.672 89.262 C 129.672 87.152,130.746 86.329,132.473 87.117 C 133.249 87.470,133.509 87.343,133.274 86.728 C 132.953 85.893,131.502 85.599,130.295 86.124 M136.750 86.021 C 133.396 86.995,134.142 92.694,137.623 92.698 C 140.981 92.702,141.998 87.406,138.889 86.107 C 137.888 85.689,137.894 85.689,136.750 86.021 M144.519 86.022 C 141.166 86.994,141.911 92.694,145.393 92.698 C 148.135 92.701,149.630 88.772,147.643 86.784 C 147.212 86.354,146.679 86.001,146.459 86.001 C 146.239 86.001,145.898 85.952,145.702 85.892 C 145.506 85.832,144.973 85.890,144.519 86.022 M151.957 86.159 C 151.467 86.501,151.272 86.519,150.948 86.250 C 150.204 85.632,150.013 86.357,150.091 89.504 C 150.158 92.165,150.228 92.570,150.636 92.649 C 151.051 92.728,151.105 92.492,151.105 90.596 C 151.105 88.213,151.935 86.609,153.021 86.893 C 153.654 87.059,153.926 86.628,153.507 86.124 C 153.091 85.622,152.710 85.631,151.957 86.159 M168.124 86.218 C 167.353 86.526,167.051 86.552,166.973 86.318 C 166.491 84.870,166.109 86.218,166.109 89.370 C 166.109 92.434,166.151 92.730,166.577 92.649 C 166.969 92.575,167.068 92.170,167.180 90.179 C 167.464 85.126,170.395 85.647,170.395 90.750 C 170.395 93.861,171.299 93.522,171.410 90.369 C 171.542 86.659,170.456 85.288,168.124 86.218 M174.146 86.189 C 173.241 86.654,173.055 87.300,173.878 87.118 C 176.054 86.638,176.825 86.871,176.825 88.009 C 176.825 88.526,176.643 88.636,175.543 88.782 C 173.705 89.025,173.074 89.547,173.074 90.824 C 173.074 92.385,175.193 93.420,176.242 92.371 C 176.501 92.112,176.681 92.112,177.096 92.371 C 177.385 92.552,177.684 92.699,177.759 92.699 C 178.210 92.699,177.871 86.864,177.394 86.433 C 176.626 85.738,175.229 85.633,174.146 86.189 M186.289 86.131 C 184.198 87.025,183.771 90.640,185.586 92.095 C 186.841 93.101,189.685 92.858,189.685 91.745 C 189.685 91.514,189.374 91.505,188.472 91.712 C 187.025 92.043,185.860 91.402,185.716 90.195 L 185.631 89.484 187.776 89.484 C 190.210 89.484,190.357 89.376,189.955 87.882 C 189.513 86.241,187.870 85.456,186.289 86.131 M192.901 86.203 C 191.248 87.029,191.459 88.548,193.364 89.528 C 195.897 90.832,194.955 92.369,192.163 91.487 C 191.712 91.345,191.561 91.404,191.561 91.721 C 191.561 92.304,192.400 92.700,193.619 92.693 C 196.255 92.678,196.761 90.156,194.374 88.931 C 192.435 87.935,192.424 86.939,194.351 86.939 C 195.774 86.939,196.033 86.600,195.013 86.072 C 194.175 85.638,194.009 85.649,192.901 86.203 M202.322 86.092 C 199.200 87.242,199.865 92.699,203.127 92.699 C 207.148 92.699,207.816 86.706,203.885 85.900 C 203.516 85.825,202.813 85.911,202.322 86.092 M218.135 86.203 C 217.407 86.570,217.208 86.586,217.026 86.291 C 216.421 85.312,216.209 86.456,216.209 90.706 C 216.209 94.932,216.231 95.111,216.745 95.111 C 217.208 95.111,217.281 94.932,217.281 93.787 C 217.281 92.429,217.634 91.873,218.161 92.401 C 219.340 93.579,221.570 92.148,221.768 90.086 C 222.092 86.717,220.497 85.012,218.135 86.203 M224.869 86.288 C 221.931 87.742,222.890 92.699,226.110 92.699 C 229.701 92.699,230.700 86.971,227.274 86.019 C 225.987 85.662,226.177 85.640,224.869 86.288 M236.721 86.212 C 235.944 86.523,235.638 86.551,235.560 86.318 C 235.077 84.870,234.695 86.218,234.695 89.370 C 234.695 92.434,234.738 92.730,235.164 92.649 C 235.556 92.575,235.655 92.170,235.767 90.179 C 236.056 85.032,238.976 85.697,238.980 90.910 C 238.983 93.765,239.886 93.434,239.997 90.539 C 240.141 86.766,239.024 85.290,236.721 86.212 M84.930 89.350 C 84.930 92.084,85.000 92.699,85.315 92.699 C 85.622 92.699,85.717 92.089,85.784 89.685 C 85.877 86.319,85.836 86.001,85.303 86.001 C 85.004 86.001,84.930 86.666,84.930 89.350 M162.894 89.350 C 162.894 92.149,162.960 92.699,163.295 92.699 C 163.631 92.699,163.697 92.149,163.697 89.350 C 163.697 86.552,163.631 86.001,163.295 86.001 C 162.960 86.001,162.894 86.552,162.894 89.350 M231.480 89.350 C 231.480 92.149,231.546 92.699,231.882 92.699 C 232.218 92.699,232.284 92.149,232.284 89.350 C 232.284 86.552,232.218 86.001,231.882 86.001 C 231.546 86.001,231.480 86.552,231.480 89.350 M98.959 87.360 C 100.459 88.540,99.590 91.628,97.758 91.628 C 96.224 91.628,95.539 88.730,96.765 87.425 C 97.484 86.659,98.046 86.642,98.959 87.360 M122.552 87.482 C 123.183 88.445,122.894 88.681,121.083 88.681 C 119.774 88.681,119.491 88.601,119.491 88.233 C 119.491 86.821,121.755 86.266,122.552 87.482 M139.056 87.542 C 140.251 89.056,139.403 91.717,137.726 91.717 C 136.440 91.717,135.834 90.973,135.834 89.393 C 135.834 87.020,137.767 85.909,139.056 87.542 M146.825 87.542 C 148.011 89.043,147.134 91.717,145.457 91.717 C 144.186 91.717,143.603 90.963,143.603 89.319 C 143.603 86.959,145.528 85.898,146.825 87.542 M158.437 87.360 C 159.361 88.087,159.470 90.444,158.616 91.218 C 157.491 92.236,155.980 91.581,155.886 90.036 C 155.718 87.267,156.832 86.098,158.437 87.360 M188.460 87.226 C 189.416 88.182,189.009 88.681,187.274 88.681 C 185.950 88.681,185.666 88.601,185.666 88.233 C 185.666 87.020,187.569 86.335,188.460 87.226 M204.532 87.211 C 205.309 87.798,205.450 90.218,204.758 91.072 C 203.521 92.600,201.474 91.531,201.474 89.357 C 201.474 87.285,203.111 86.136,204.532 87.211 M220.065 87.206 C 220.710 87.694,220.932 89.877,220.434 90.824 C 219.950 91.742,218.765 91.857,217.923 91.066 C 216.138 89.389,218.153 85.759,220.065 87.206 M227.048 86.972 C 227.627 87.194,228.265 88.473,228.265 89.411 C 228.265 91.796,225.231 92.594,224.507 90.400 C 223.791 88.231,225.239 86.278,227.048 86.972 M176.825 90.282 C 176.825 91.369,175.756 92.105,174.805 91.671 C 173.490 91.072,174.417 89.484,176.081 89.484 C 176.728 89.484,176.825 89.588,176.825 90.282 M110.636 111.068 C 110.332 111.435,110.375 111.465,110.980 111.314 C 112.723 110.876,113.301 112.233,111.938 113.565 C 111.160 114.326,111.135 114.401,111.651 114.401 C 112.839 114.401,113.603 116.431,112.739 117.294 C 112.527 117.506,112.517 117.616,112.709 117.616 C 113.773 117.616,114.176 115.137,113.294 114.016 C 112.871 113.477,112.802 113.213,113.026 112.988 C 113.425 112.590,113.413 111.377,113.007 110.971 C 112.548 110.512,111.046 110.574,110.636 111.068 M148.712 111.428 C 148.037 112.375,147.978 112.795,148.627 112.034 C 149.452 111.065,150.950 111.152,151.303 112.190 C 151.695 113.344,151.242 114.426,149.615 116.224 L 148.113 117.883 150.236 117.883 C 152.219 117.883,152.378 117.841,152.653 117.238 C 152.941 116.605,152.934 116.600,152.227 116.969 C 151.410 117.395,149.874 117.472,149.644 117.099 C 149.559 116.963,150.095 116.161,150.834 115.316 C 152.973 112.871,152.700 110.679,150.253 110.658 C 149.464 110.651,149.155 110.806,148.712 111.428 M135.012 113.375 C 134.391 113.539,133.889 113.910,133.579 114.434 C 132.966 115.473,133.156 115.657,133.959 114.801 C 135.147 113.537,137.173 114.108,137.173 115.707 C 137.173 116.441,135.883 117.947,135.030 118.209 C 134.809 118.277,135.061 118.414,135.590 118.514 C 137.706 118.913,138.562 121.330,137.049 122.631 C 136.200 123.362,135.634 123.394,134.354 122.783 C 133.529 122.390,133.357 122.379,133.154 122.707 C 132.528 123.720,135.280 124.216,136.895 123.381 C 138.851 122.370,139.455 119.797,138.111 118.200 C 137.328 117.269,137.311 117.172,137.843 116.640 C 139.429 115.054,137.421 112.739,135.012 113.375 M95.713 114.868 C 94.873 115.286,94.597 115.824,95.071 116.118 C 95.197 116.195,95.528 116.086,95.808 115.874 C 96.581 115.289,97.695 115.380,98.176 116.068 C 98.999 117.242,98.527 118.453,96.276 120.943 C 94.039 123.419,94.193 123.778,97.493 123.778 C 99.520 123.778,100.178 123.689,100.288 123.402 C 100.513 122.814,100.230 122.706,98.459 122.706 C 96.294 122.706,96.249 122.607,97.685 121.009 C 100.324 118.074,100.649 115.865,98.599 114.805 C 97.617 114.298,96.825 114.315,95.713 114.868 M159.781 114.785 C 158.225 115.462,158.087 117.077,159.455 118.582 C 159.964 119.142,159.962 119.151,159.276 119.601 C 156.236 121.593,159.966 125.152,163.094 123.245 C 164.322 122.497,164.425 120.526,163.281 119.670 C 162.661 119.205,162.381 118.419,162.836 118.419 C 162.951 118.419,163.256 118.063,163.514 117.627 C 164.726 115.575,162.268 113.702,159.781 114.785 M179.236 115.070 C 179.236 115.392,179.637 115.472,181.230 115.472 C 183.914 115.472,183.886 115.306,181.916 119.625 C 180.201 123.383,180.114 123.778,181.003 123.778 C 181.221 123.778,181.644 123.205,181.944 122.506 C 182.244 121.806,182.653 120.872,182.853 120.429 C 183.053 119.987,183.471 119.022,183.781 118.285 C 184.092 117.549,184.462 116.736,184.604 116.481 C 184.746 116.225,184.863 115.712,184.863 115.342 L 184.863 114.668 182.050 114.668 C 179.728 114.668,179.236 114.739,179.236 115.070 M162.304 115.794 C 162.790 116.279,162.691 117.177,162.079 117.833 C 161.384 118.579,161.144 118.569,160.336 117.762 C 159.200 116.625,159.610 115.472,161.152 115.472 C 161.609 115.472,162.127 115.617,162.304 115.794 M174.094 117.816 L 174.012 119.089 172.739 119.171 C 171.871 119.226,171.467 119.371,171.467 119.625 C 171.467 119.879,171.871 120.023,172.739 120.079 L 174.012 120.161 174.146 121.480 C 174.313 123.128,174.950 123.497,174.950 121.946 C 174.950 120.246,175.124 120.027,176.474 120.027 C 177.991 120.027,177.934 119.397,176.406 119.270 C 175.180 119.168,174.959 118.907,174.954 117.549 C 174.947 115.971,174.197 116.204,174.094 117.816 M103.148 116.895 C 103.148 116.941,103.389 117.478,103.684 118.088 C 104.577 119.938,103.317 123.330,101.934 122.800 C 101.330 122.568,100.725 122.900,100.904 123.366 C 101.227 124.208,102.317 123.832,103.205 122.572 C 104.328 120.979,104.382 121.000,105.124 123.309 C 105.353 124.021,106.192 123.871,106.991 122.974 C 107.384 122.532,107.600 122.170,107.470 122.170 C 107.339 122.170,107.083 122.350,106.901 122.569 C 106.418 123.151,106.154 122.857,105.673 121.201 C 105.133 119.344,106.033 117.455,107.307 117.775 C 107.856 117.913,107.971 117.844,107.971 117.377 C 107.971 116.538,107.071 116.664,106.270 117.616 C 105.898 118.058,105.477 118.419,105.335 118.419 C 105.192 118.419,104.950 118.058,104.796 117.616 C 104.565 116.955,103.148 116.336,103.148 116.895 M141.889 117.036 C 141.802 117.177,141.885 117.350,142.073 117.423 C 143.848 118.104,142.476 122.840,140.503 122.840 C 139.578 122.840,139.395 123.597,140.288 123.725 C 140.692 123.783,141.177 123.434,141.950 122.529 C 142.551 121.826,143.087 121.307,143.141 121.376 C 143.196 121.444,143.417 121.983,143.633 122.572 C 144.127 123.920,144.909 124.112,145.720 123.082 C 146.373 122.252,146.271 121.876,145.580 122.567 C 145.145 123.002,145.102 122.992,144.798 122.398 C 143.684 120.220,144.532 117.368,146.172 117.779 C 146.702 117.912,146.818 117.840,146.818 117.377 C 146.818 116.531,145.951 116.668,144.974 117.668 C 144.114 118.547,143.741 118.498,143.560 117.482 C 143.459 116.910,142.178 116.569,141.889 117.036 M165.609 117.057 C 165.381 117.198,165.479 117.530,165.953 118.229 C 167.288 120.195,167.285 120.157,166.245 121.782 C 165.721 122.602,165.362 123.386,165.448 123.525 C 165.772 124.049,166.270 123.739,166.975 122.572 C 167.375 121.909,167.821 121.366,167.966 121.366 C 168.111 121.366,168.547 121.909,168.936 122.572 C 169.610 123.722,170.183 124.069,170.517 123.529 C 170.601 123.393,170.255 122.591,169.747 121.747 L 168.823 120.214 169.743 118.776 C 170.821 117.091,170.823 117.080,170.131 117.080 C 169.807 117.080,169.322 117.499,168.890 118.151 C 168.016 119.471,167.955 119.472,167.228 118.180 C 166.605 117.071,166.125 116.738,165.609 117.057 M80.986 117.816 C 81.061 118.222,81.517 119.578,82.000 120.831 C 82.887 123.133,82.974 123.742,82.641 125.318 C 82.287 126.998,83.391 126.452,83.995 124.648 C 84.279 123.801,84.967 121.903,85.524 120.429 C 86.674 117.388,86.724 117.080,86.062 117.080 C 85.623 117.080,84.126 120.359,84.126 121.321 C 84.126 122.400,83.310 121.319,82.645 119.357 C 81.852 117.023,80.630 115.887,80.986 117.816 M109.846 117.616 C 109.846 117.763,110.419 117.869,111.119 117.852 C 112.255 117.823,112.305 117.798,111.587 117.616 C 110.402 117.314,109.846 117.314,109.846 117.616 M87.747 118.144 C 87.652 118.298,87.742 118.487,87.947 118.566 C 88.597 118.815,93.369 118.568,93.369 118.285 C 93.369 117.916,87.972 117.780,87.747 118.144 M119.134 119.402 C 118.617 119.919,119.326 120.027,123.242 120.027 C 126.874 120.027,127.528 119.965,127.528 119.625 C 127.528 119.203,119.544 118.991,119.134 119.402 M162.023 120.024 C 163.100 120.681,163.233 121.902,162.298 122.557 C 160.386 123.896,158.420 121.723,160.119 120.148 C 160.972 119.358,160.935 119.360,162.023 120.024 M153.583 120.094 C 153.656 120.311,154.246 120.429,155.258 120.429 C 156.270 120.429,156.860 120.311,156.932 120.094 C 157.014 119.848,156.568 119.759,155.258 119.759 C 153.948 119.759,153.502 119.848,153.583 120.094 M87.676 120.898 C 87.756 121.137,88.579 121.232,90.556 121.232 C 92.533 121.232,93.356 121.137,93.436 120.898 C 93.521 120.643,92.830 120.563,90.556 120.563 C 88.282 120.563,87.591 120.643,87.676 120.898 M103.684 144.034 C 103.684 145.616,103.634 145.783,103.215 145.607 C 100.814 144.598,99.132 145.792,99.130 148.506 C 99.128 151.264,101.062 152.762,102.991 151.497 C 103.556 151.127,103.635 151.127,103.777 151.497 C 103.864 151.724,104.120 151.909,104.345 151.909 C 104.698 151.909,104.756 151.238,104.756 147.086 C 104.756 142.443,104.736 142.264,104.220 142.264 C 103.738 142.264,103.684 142.443,103.684 144.034 M107.264 142.932 C 107.172 143.174,107.212 143.488,107.354 143.630 C 107.729 144.005,108.547 143.612,108.449 143.104 C 108.336 142.514,107.473 142.389,107.264 142.932 M142.869 143.135 C 142.122 144.080,139.585 148.806,139.585 149.251 C 139.585 149.712,139.791 149.766,141.578 149.766 L 143.571 149.766 143.654 150.768 C 143.774 152.216,144.608 152.335,144.725 150.921 C 144.793 150.097,144.926 149.883,145.412 149.814 C 145.790 149.760,146.015 149.543,146.015 149.230 C 146.015 148.917,145.790 148.699,145.412 148.646 C 144.835 148.564,144.806 148.436,144.733 145.680 L 144.657 142.800 143.895 142.800 C 143.476 142.800,143.014 142.950,142.869 143.135 M125.564 143.514 C 125.466 143.612,125.385 144.020,125.385 144.421 C 125.385 144.945,125.216 145.198,124.782 145.324 L 124.180 145.499 124.782 145.924 C 125.317 146.300,125.386 146.579,125.389 148.392 C 125.394 151.100,125.742 151.775,127.131 151.775 C 127.927 151.775,128.213 151.658,128.281 151.306 C 128.348 150.959,128.195 150.837,127.691 150.837 C 126.768 150.837,126.457 150.141,126.457 148.070 C 126.457 146.267,126.624 146.015,127.818 146.015 C 128.720 146.015,128.401 145.252,127.461 145.161 C 126.696 145.087,126.581 144.972,126.507 144.206 C 126.429 143.402,125.995 143.083,125.564 143.514 M143.603 146.551 L 143.603 148.694 142.264 148.694 C 141.527 148.694,140.924 148.626,140.924 148.542 C 140.924 148.156,143.229 144.407,143.466 144.407 C 143.542 144.407,143.603 145.372,143.603 146.551 M82.426 145.241 C 81.014 145.621,80.901 145.996,80.905 150.301 C 80.905 150.670,80.762 151.439,80.586 152.010 C 79.997 153.927,82.864 155.125,85.178 153.929 C 87.189 152.888,86.117 150.579,83.617 150.566 C 82.507 150.560,81.715 150.269,81.715 149.868 C 81.715 149.606,82.086 149.495,82.987 149.489 C 84.791 149.477,86.036 148.194,85.595 146.803 C 85.499 146.503,85.622 146.221,85.923 146.051 C 87.001 145.443,84.141 144.781,82.426 145.241 M89.899 145.393 C 89.347 145.691,89.076 145.729,89.005 145.516 C 88.526 144.079,88.145 145.438,88.145 148.580 C 88.145 151.643,88.187 151.940,88.614 151.859 C 89.010 151.783,89.094 151.409,89.160 149.439 C 89.240 147.014,89.962 145.729,91.017 146.134 C 91.515 146.326,91.796 145.482,91.332 145.188 C 90.851 144.884,90.835 144.886,89.899 145.393 M93.992 145.255 C 93.451 145.402,92.936 145.711,92.847 145.941 C 92.612 146.553,92.874 146.679,93.648 146.326 C 95.139 145.647,96.450 146.074,96.450 147.239 C 96.450 147.732,96.253 147.847,95.168 147.991 C 93.343 148.233,92.699 148.759,92.699 150.007 C 92.699 151.682,94.391 152.496,95.953 151.574 C 96.407 151.306,96.544 151.306,96.641 151.574 C 97.127 152.915,97.522 151.747,97.522 148.968 C 97.522 145.349,96.726 144.513,93.992 145.255 M111.807 145.463 C 109.733 146.405,109.484 150.301,111.424 151.447 C 112.775 152.245,115.472 151.936,115.472 150.983 C 115.472 150.688,115.279 150.666,114.517 150.876 C 112.727 151.371,111.453 150.693,111.453 149.247 C 111.453 148.734,111.609 148.694,113.597 148.694 L 115.740 148.694 115.740 147.816 C 115.740 145.716,113.802 144.557,111.807 145.463 M119.899 145.428 C 119.128 145.735,118.826 145.761,118.748 145.528 C 118.265 144.080,117.883 145.428,117.883 148.580 C 117.883 151.643,117.926 151.940,118.352 151.859 C 118.749 151.783,118.833 151.409,118.898 149.439 C 119.059 144.592,122.170 144.648,122.170 149.498 C 122.170 151.730,122.210 151.909,122.706 151.909 C 123.408 151.909,123.523 147.072,122.844 146.102 C 122.206 145.191,121.117 144.942,119.899 145.428 M107.283 145.563 C 106.901 146.559,107.304 151.769,107.770 151.858 C 108.196 151.940,108.238 151.643,108.238 148.580 C 108.238 145.339,107.845 144.098,107.283 145.563 M84.276 146.569 C 84.734 147.075,84.743 147.186,84.376 147.841 C 83.641 149.155,81.983 148.831,81.983 147.375 C 81.983 146.005,83.336 145.530,84.276 146.569 M102.978 146.570 C 104.102 147.455,104.019 149.769,102.836 150.518 C 101.302 151.489,100.078 150.380,100.292 148.214 C 100.491 146.200,101.625 145.506,102.978 146.570 M114.251 146.610 C 114.998 147.676,114.798 147.890,113.061 147.890 C 111.737 147.890,111.453 147.811,111.453 147.442 C 111.453 146.119,113.485 145.515,114.251 146.610 M132.619 146.417 C 132.619 146.748,133.110 146.818,135.432 146.818 C 137.754 146.818,138.245 146.748,138.245 146.417 C 138.245 146.085,137.754 146.015,135.432 146.015 C 133.110 146.015,132.619 146.085,132.619 146.417 M96.399 149.548 C 96.515 150.551,95.384 151.316,94.430 150.881 C 93.556 150.483,93.522 149.315,94.374 148.964 C 95.477 148.510,96.307 148.749,96.399 149.548 M132.619 149.096 C 132.619 149.427,133.110 149.498,135.432 149.498 C 137.754 149.498,138.245 149.427,138.245 149.096 C 138.245 148.764,137.754 148.694,135.432 148.694 C 133.110 148.694,132.619 148.764,132.619 149.096 M84.506 151.536 C 85.099 151.763,85.036 152.905,84.411 153.239 C 83.385 153.789,81.447 153.342,81.447 152.556 C 81.447 151.611,83.189 151.030,84.506 151.536 " stroke="none" fill="#151515" fill-rule="evenodd"></path><path id="path2" d="M100.842 86.269 C 100.842 88.259,100.884 89.072,100.935 88.078 C 100.987 87.083,100.987 85.455,100.935 84.461 C 100.884 83.466,100.842 84.280,100.842 86.269 M111.029 87.743 C 111.030 90.543,111.069 91.651,111.118 90.207 C 111.166 88.763,111.166 86.472,111.117 85.117 C 111.069 83.761,111.029 84.943,111.029 87.743 M112.562 84.311 C 112.542 85.223,112.616 86.026,112.726 86.094 C 112.837 86.162,112.892 85.657,112.849 84.971 C 112.715 82.845,112.600 82.580,112.562 84.311 M158.925 84.477 C 158.888 85.634,158.789 85.984,158.540 85.844 C 158.274 85.694,158.273 85.728,158.535 86.011 C 159.049 86.565,159.179 86.195,159.074 84.491 L 158.976 82.920 158.925 84.477 M86.032 83.903 C 86.015 84.296,85.851 84.678,85.666 84.752 C 85.404 84.858,85.406 84.892,85.675 84.909 C 86.100 84.935,86.356 84.318,86.189 83.673 C 86.104 83.346,86.053 83.421,86.032 83.903 M163.996 83.903 C 163.979 84.296,163.814 84.678,163.630 84.752 C 163.368 84.858,163.370 84.892,163.639 84.909 C 164.064 84.935,164.320 84.318,164.153 83.673 C 164.068 83.346,164.017 83.421,163.996 83.903 M208.544 83.972 C 208.463 84.183,208.442 84.635,208.497 84.977 C 208.570 85.435,208.632 85.334,208.732 84.595 C 208.872 83.555,208.798 83.309,208.544 83.972 M78.072 88.145 C 78.072 90.429,78.113 91.363,78.163 90.221 C 78.213 89.079,78.213 87.210,78.163 86.068 C 78.113 84.926,78.072 85.861,78.072 88.145 M106.425 84.930 C 106.425 85.445,106.480 85.656,106.548 85.399 C 106.615 85.141,106.615 84.719,106.548 84.461 C 106.480 84.203,106.425 84.414,106.425 84.930 M79.679 85.035 C 79.600 85.241,79.584 85.874,79.642 86.442 C 79.745 87.434,79.751 87.425,79.794 86.216 L 79.839 84.956 81.380 84.860 L 82.920 84.763 81.371 84.712 C 80.257 84.676,79.782 84.767,79.679 85.035 M84.510 86.084 C 84.436 86.277,84.411 87.874,84.453 89.634 L 84.531 92.833 84.663 89.283 C 84.794 85.781,84.775 85.393,84.510 86.084 M86.000 89.296 L 86.133 92.833 86.210 89.506 C 86.252 87.676,86.192 86.085,86.077 85.969 C 85.962 85.853,85.927 87.350,86.000 89.296 M87.725 86.084 C 87.651 86.277,87.626 87.874,87.668 89.634 L 87.746 92.833 87.878 89.283 C 88.009 85.781,87.990 85.393,87.725 86.084 M132.919 86.135 C 133.157 86.430,133.419 86.852,133.500 87.073 C 133.626 87.414,133.651 87.410,133.669 87.048 C 133.681 86.813,133.419 86.391,133.088 86.110 C 132.490 85.604,132.489 85.604,132.919 86.135 M135.529 86.285 L 134.896 86.837 135.700 86.366 C 136.758 85.747,136.774 85.733,136.444 85.733 C 136.288 85.733,135.877 85.982,135.529 86.285 M162.474 86.084 C 162.400 86.277,162.375 87.874,162.417 89.634 L 162.495 92.833 162.627 89.283 C 162.758 85.781,162.739 85.393,162.474 86.084 M163.964 89.296 L 164.097 92.833 164.174 89.506 C 164.216 87.676,164.156 86.085,164.041 85.969 C 163.926 85.853,163.891 87.350,163.964 89.296 M165.689 86.084 C 165.615 86.277,165.590 87.874,165.632 89.634 L 165.710 92.833 165.842 89.283 C 165.973 85.781,165.954 85.393,165.689 86.084 M231.061 86.084 C 230.987 86.277,230.961 87.874,231.004 89.634 L 231.081 92.833 231.214 89.283 C 231.344 85.781,231.326 85.393,231.061 86.084 M232.551 89.296 L 232.684 92.833 232.760 89.506 C 232.803 87.676,232.743 86.085,232.627 85.969 C 232.512 85.853,232.478 87.350,232.551 89.296 M234.276 86.084 C 234.202 86.277,234.176 87.874,234.219 89.634 L 234.296 92.833 234.429 89.283 C 234.559 85.781,234.541 85.393,234.276 86.084 M153.805 86.451 C 153.794 86.771,153.573 87.089,153.315 87.156 C 152.876 87.271,152.877 87.281,153.324 87.310 C 153.844 87.344,154.185 86.759,153.965 86.211 C 153.889 86.022,153.817 86.130,153.805 86.451 M106.406 89.401 C 106.382 90.756,106.453 91.920,106.564 91.989 C 106.674 92.058,106.732 91.311,106.691 90.330 C 106.562 87.223,106.450 86.858,106.406 89.401 M108.062 89.082 C 108.063 90.261,108.110 90.710,108.167 90.080 C 108.224 89.450,108.223 88.485,108.165 87.937 C 108.108 87.388,108.061 87.904,108.062 89.082 M114.885 87.475 C 115.021 87.770,115.199 88.192,115.281 88.413 C 115.410 88.760,115.433 88.758,115.451 88.397 C 115.463 88.167,115.285 87.745,115.056 87.459 C 114.646 86.947,114.643 86.948,114.885 87.475 M188.331 87.524 C 188.751 88.393,188.727 88.413,187.245 88.413 C 186.053 88.413,185.900 88.352,186.056 87.944 C 186.199 87.568,186.167 87.541,185.897 87.810 C 185.339 88.364,186.001 88.721,187.417 88.630 C 188.841 88.538,189.099 88.252,188.468 87.464 C 188.060 86.954,188.056 86.956,188.331 87.524 M208.540 89.886 C 208.540 91.507,208.584 92.136,208.638 91.283 C 208.691 90.430,208.690 89.104,208.637 88.336 C 208.583 87.568,208.539 88.265,208.540 89.886 M210.146 89.752 C 210.146 91.299,210.190 91.932,210.244 91.159 C 210.299 90.385,210.299 89.119,210.244 88.346 C 210.190 87.572,210.146 88.205,210.146 89.752 M81.313 87.535 C 82.151 87.596,82.778 87.797,82.987 88.074 C 83.171 88.316,83.322 88.396,83.322 88.249 C 83.322 87.650,82.610 87.343,81.326 87.389 L 79.973 87.438 81.313 87.535 M176.465 87.820 C 176.591 88.301,176.470 88.392,175.579 88.484 L 174.548 88.590 175.561 88.635 C 176.627 88.683,177.173 88.118,176.608 87.552 C 176.402 87.346,176.361 87.423,176.465 87.820 M178.264 90.020 C 178.264 91.567,178.308 92.200,178.362 91.427 C 178.416 90.653,178.416 89.387,178.362 88.614 C 178.308 87.840,178.264 88.473,178.264 90.020 M229.203 89.216 C 229.203 90.220,229.293 90.985,229.404 90.916 C 229.514 90.848,229.605 90.083,229.605 89.216 C 229.605 88.350,229.514 87.585,229.404 87.516 C 229.293 87.448,229.203 88.213,229.203 89.216 M200.038 88.201 C 199.947 88.538,199.886 89.176,199.901 89.618 C 199.920 90.173,199.998 90.009,200.152 89.091 C 200.386 87.691,200.317 87.157,200.038 88.201 M122.438 88.100 C 122.438 88.292,121.897 88.431,121.031 88.461 L 119.625 88.509 120.935 88.611 C 122.167 88.707,123.030 88.379,122.621 87.971 C 122.520 87.870,122.438 87.928,122.438 88.100 M124.082 88.595 C 124.054 89.251,123.907 89.474,123.443 89.563 L 122.840 89.679 123.451 89.716 C 124.139 89.757,124.413 89.286,124.237 88.365 C 124.145 87.881,124.110 87.932,124.082 88.595 M112.620 90.422 C 112.619 91.748,112.665 92.324,112.721 91.703 C 112.777 91.081,112.778 89.996,112.722 89.291 C 112.667 88.587,112.621 89.096,112.620 90.422 M134.303 89.350 C 134.305 90.087,134.357 90.357,134.419 89.949 C 134.480 89.542,134.479 88.939,134.415 88.610 C 134.351 88.280,134.301 88.614,134.303 89.350 M151.467 90.288 C 151.467 91.541,151.513 92.053,151.569 91.427 C 151.626 90.800,151.626 89.776,151.569 89.149 C 151.513 88.523,151.467 89.035,151.467 90.288 M158.922 89.195 C 158.895 89.856,158.672 90.626,158.416 90.937 C 157.958 91.492,157.958 91.492,158.567 90.933 C 159.067 90.474,159.159 90.158,159.073 89.191 L 158.968 88.011 158.922 89.195 M235.862 90.422 C 235.861 91.748,235.906 92.324,235.963 91.703 C 236.019 91.081,236.020 89.996,235.964 89.291 C 235.909 88.587,235.863 89.096,235.862 90.422 M89.310 90.556 C 89.310 91.808,89.356 92.321,89.413 91.695 C 89.469 91.068,89.469 90.044,89.413 89.417 C 89.356 88.791,89.310 89.303,89.310 90.556 M93.595 90.422 C 93.596 91.601,93.643 92.050,93.700 91.420 C 93.756 90.789,93.755 89.825,93.698 89.276 C 93.640 88.728,93.594 89.243,93.595 90.422 M117.951 89.350 C 117.954 89.940,118.009 90.149,118.073 89.816 C 118.137 89.483,118.135 89.001,118.068 88.744 C 118.000 88.488,117.948 88.761,117.951 89.350 M128.137 89.484 C 128.137 90.147,128.190 90.419,128.253 90.087 C 128.317 89.756,128.317 89.213,128.253 88.881 C 128.190 88.550,128.137 88.821,128.137 89.484 M135.901 89.350 C 135.904 89.940,135.959 90.149,136.023 89.816 C 136.087 89.483,136.085 89.001,136.018 88.744 C 135.951 88.488,135.898 88.761,135.901 89.350 M143.671 89.350 C 143.674 89.940,143.729 90.149,143.793 89.816 C 143.857 89.483,143.855 89.001,143.788 88.744 C 143.721 88.488,143.668 88.761,143.671 89.350 M167.274 90.556 C 167.274 91.808,167.320 92.321,167.376 91.695 C 167.433 91.068,167.433 90.044,167.376 89.417 C 167.320 88.791,167.274 89.303,167.274 90.556 M171.559 90.422 C 171.560 91.601,171.607 92.050,171.663 91.420 C 171.720 90.789,171.719 89.825,171.662 89.276 C 171.604 88.728,171.558 89.243,171.559 90.422 M205.019 89.216 C 205.019 89.732,205.074 89.943,205.141 89.685 C 205.209 89.427,205.209 89.005,205.141 88.747 C 205.074 88.490,205.019 88.701,205.019 89.216 M227.797 89.350 C 227.800 89.940,227.855 90.149,227.919 89.816 C 227.983 89.483,227.981 89.001,227.913 88.744 C 227.846 88.488,227.794 88.761,227.797 89.350 M79.683 89.044 C 79.606 89.243,79.587 90.178,79.640 91.120 L 79.736 92.833 79.788 90.904 L 79.839 88.975 81.380 88.878 L 82.920 88.782 81.371 88.731 C 80.278 88.695,79.781 88.787,79.683 89.044 M94.594 89.373 C 94.604 89.802,94.719 90.395,94.850 90.690 C 95.008 91.048,95.034 90.825,94.927 90.020 C 94.740 88.600,94.567 88.265,94.594 89.373 M146.972 89.637 C 146.873 90.030,146.844 90.403,146.907 90.466 C 146.970 90.529,147.103 90.260,147.201 89.867 C 147.300 89.474,147.329 89.101,147.266 89.038 C 147.202 88.975,147.070 89.245,146.972 89.637 M195.681 89.406 C 195.810 89.598,196.008 90.147,196.122 90.625 C 196.311 91.421,196.331 91.435,196.356 90.787 C 196.371 90.398,196.172 89.849,195.914 89.568 C 195.656 89.287,195.551 89.214,195.681 89.406 M172.706 90.164 C 172.614 90.404,172.549 90.801,172.562 91.047 C 172.574 91.293,172.691 91.138,172.821 90.703 C 173.073 89.858,172.984 89.439,172.706 90.164 M175.737 89.902 C 176.170 89.984,176.580 90.228,176.647 90.443 C 176.726 90.692,176.755 90.662,176.729 90.360 C 176.699 90.029,176.426 89.866,175.818 89.819 C 174.990 89.755,174.986 89.759,175.737 89.902 M100.799 91.092 C 100.799 91.608,100.854 91.818,100.921 91.561 C 100.989 91.303,100.989 90.881,100.921 90.623 C 100.854 90.365,100.799 90.576,100.799 91.092 M243.627 90.821 C 243.656 91.274,243.843 91.506,244.206 91.542 C 244.592 91.582,244.615 91.559,244.290 91.462 C 244.041 91.388,243.780 91.063,243.710 90.740 C 243.603 90.249,243.590 90.262,243.627 90.821 M182.001 90.955 C 182.033 91.267,182.276 91.510,182.588 91.542 C 182.975 91.582,182.997 91.560,182.669 91.462 C 182.420 91.388,182.156 91.123,182.081 90.874 C 181.983 90.546,181.961 90.568,182.001 90.955 M120.536 91.440 C 120.660 91.565,121.170 91.625,121.667 91.573 C 122.550 91.483,122.544 91.477,121.440 91.347 C 120.818 91.273,120.411 91.315,120.536 91.440 M123.292 91.258 C 123.541 91.332,123.805 91.596,123.880 91.845 C 123.978 92.173,124.000 92.151,123.960 91.765 C 123.928 91.452,123.685 91.209,123.373 91.177 C 122.986 91.138,122.964 91.160,123.292 91.258 M189.484 91.276 C 190.034 91.420,190.089 91.897,189.620 92.445 C 189.437 92.658,189.514 92.632,189.791 92.385 C 190.379 91.861,190.194 91.077,189.493 91.123 C 189.045 91.152,189.045 91.162,189.484 91.276 M187.210 91.549 C 187.543 91.613,188.026 91.611,188.282 91.544 C 188.538 91.477,188.265 91.424,187.676 91.427 C 187.086 91.430,186.877 91.485,187.210 91.549 M192.967 91.544 C 193.225 91.612,193.647 91.612,193.905 91.544 C 194.163 91.477,193.952 91.422,193.436 91.422 C 192.920 91.422,192.709 91.477,192.967 91.544 M228.265 92.118 C 227.659 92.709,227.651 92.742,228.183 92.466 C 228.507 92.298,228.850 92.033,228.947 91.876 C 229.277 91.343,228.936 91.463,228.265 92.118 M176.691 92.699 C 176.986 92.826,177.408 92.930,177.629 92.930 C 177.882 92.930,177.833 92.844,177.495 92.699 C 177.200 92.573,176.778 92.469,176.557 92.469 C 176.304 92.469,176.353 92.554,176.691 92.699 M97.053 92.884 C 97.311 92.951,97.733 92.951,97.991 92.884 C 98.248 92.817,98.038 92.761,97.522 92.761 C 97.006 92.761,96.795 92.817,97.053 92.884 M108.038 92.884 C 108.295 92.951,108.717 92.951,108.975 92.884 C 109.233 92.817,109.022 92.761,108.506 92.761 C 107.991 92.761,107.780 92.817,108.038 92.884 M130.676 92.888 C 131.008 92.952,131.551 92.952,131.882 92.888 C 132.214 92.824,131.942 92.772,131.279 92.772 C 130.616 92.772,130.345 92.824,130.676 92.888 M137.110 92.889 C 137.443 92.953,137.925 92.950,138.181 92.883 C 138.437 92.816,138.165 92.764,137.575 92.767 C 136.986 92.770,136.776 92.825,137.110 92.889 M144.879 92.889 C 145.212 92.953,145.695 92.950,145.951 92.883 C 146.207 92.816,145.934 92.764,145.345 92.767 C 144.756 92.770,144.546 92.825,144.879 92.889 M156.530 92.884 C 156.788 92.951,157.210 92.951,157.468 92.884 C 157.726 92.817,157.515 92.761,156.999 92.761 C 156.484 92.761,156.273 92.817,156.530 92.884 M174.618 92.889 C 174.951 92.953,175.434 92.950,175.690 92.883 C 175.946 92.816,175.673 92.764,175.084 92.767 C 174.494 92.770,174.285 92.825,174.618 92.889 M181.852 92.889 C 182.185 92.953,182.667 92.950,182.923 92.883 C 183.180 92.816,182.907 92.764,182.317 92.767 C 181.728 92.770,181.518 92.825,181.852 92.889 M187.077 92.892 C 187.484 92.953,188.087 92.951,188.416 92.888 C 188.746 92.824,188.413 92.774,187.676 92.776 C 186.939 92.778,186.669 92.830,187.077 92.892 M202.749 92.889 C 203.083 92.953,203.565 92.950,203.821 92.883 C 204.077 92.816,203.804 92.764,203.215 92.767 C 202.626 92.770,202.416 92.825,202.749 92.889 M218.824 92.889 C 219.158 92.953,219.640 92.950,219.896 92.883 C 220.152 92.816,219.879 92.764,219.290 92.767 C 218.701 92.770,218.491 92.825,218.824 92.889 M225.519 92.888 C 225.851 92.952,226.393 92.952,226.725 92.888 C 227.056 92.824,226.785 92.772,226.122 92.772 C 225.459 92.772,225.188 92.824,225.519 92.888 M243.473 92.889 C 243.806 92.953,244.288 92.950,244.544 92.883 C 244.800 92.816,244.528 92.764,243.938 92.767 C 243.349 92.770,243.139 92.825,243.473 92.889 M149.498 110.394 C 149.204 110.593,149.313 110.617,149.900 110.486 C 150.885 110.266,151.098 110.112,150.413 110.118 C 150.131 110.120,149.719 110.244,149.498 110.394 M152.020 111.120 C 152.155 111.319,152.352 111.927,152.458 112.472 C 152.649 113.450,152.651 113.452,152.682 112.622 C 152.699 112.156,152.503 111.553,152.244 111.270 C 151.986 110.988,151.885 110.921,152.020 111.120 M148.928 111.922 C 148.608 112.330,148.612 112.351,148.962 112.082 C 149.183 111.912,149.665 111.717,150.033 111.650 L 150.703 111.526 149.999 111.490 C 149.611 111.470,149.130 111.664,148.928 111.922 M96.785 114.317 C 97.043 114.385,97.465 114.385,97.723 114.317 C 97.981 114.250,97.770 114.195,97.254 114.195 C 96.738 114.195,96.527 114.250,96.785 114.317 M160.683 114.322 C 161.015 114.386,161.557 114.386,161.889 114.322 C 162.220 114.258,161.949 114.206,161.286 114.206 C 160.623 114.206,160.352 114.258,160.683 114.322 M178.796 114.806 C 178.463 115.674,179.207 116.010,181.346 115.959 L 183.389 115.910 181.246 115.758 C 179.238 115.616,179.104 115.568,179.124 115.003 C 179.148 114.305,179.018 114.227,178.796 114.806 M94.896 114.990 C 94.442 115.444,94.497 116.263,94.995 116.454 C 95.226 116.543,95.544 116.485,95.703 116.327 C 95.909 116.120,95.827 116.081,95.417 116.188 C 94.763 116.359,94.594 115.560,95.164 114.990 C 95.341 114.813,95.425 114.668,95.352 114.668 C 95.278 114.668,95.073 114.813,94.896 114.990 M132.806 115.028 C 132.570 115.644,133.067 116.204,133.478 115.786 C 133.762 115.498,133.752 115.450,133.423 115.520 C 133.166 115.575,133.049 115.437,133.099 115.137 C 133.192 114.584,133.004 114.514,132.806 115.028 M149.230 116.142 C 148.579 116.805,148.107 117.348,148.180 117.348 C 148.254 117.348,148.847 116.805,149.498 116.142 C 150.148 115.479,150.621 114.936,150.547 114.936 C 150.473 114.936,149.881 115.479,149.230 116.142 M99.928 116.892 L 100.057 118.285 100.146 117.110 C 100.195 116.464,100.137 115.837,100.017 115.717 C 99.897 115.596,99.857 116.125,99.928 116.892 M163.831 116.544 C 163.831 117.105,163.922 117.508,164.032 117.440 C 164.143 117.372,164.233 116.969,164.233 116.544 C 164.233 116.119,164.143 115.716,164.032 115.648 C 163.922 115.579,163.831 115.983,163.831 116.544 M149.944 116.455 C 149.518 116.880,149.843 117.077,150.904 117.035 L 152.043 116.990 151.033 116.884 C 150.477 116.826,150.092 116.666,150.178 116.527 C 150.357 116.238,150.208 116.191,149.944 116.455 M103.148 116.649 C 103.148 116.706,103.562 116.801,104.067 116.860 C 104.572 116.919,104.927 116.872,104.855 116.756 C 104.725 116.546,103.148 116.447,103.148 116.649 M175.264 117.683 L 175.218 118.955 176.236 118.955 C 176.796 118.955,177.423 119.106,177.629 119.290 C 177.949 119.575,177.952 119.555,177.650 119.156 C 177.437 118.875,176.939 118.687,176.406 118.687 C 175.554 118.687,175.512 118.639,175.414 117.549 L 175.311 116.410 175.264 117.683 M134.723 118.755 C 134.858 118.890,135.254 118.956,135.602 118.901 C 136.138 118.816,136.101 118.779,135.357 118.655 C 134.824 118.567,134.574 118.606,134.723 118.755 M82.831 119.505 C 82.988 119.954,83.166 120.272,83.227 120.212 C 83.359 120.079,82.854 118.687,82.673 118.687 C 82.603 118.687,82.675 119.055,82.831 119.505 M171.520 119.009 C 171.149 119.380,171.099 119.934,171.420 120.132 C 171.541 120.207,171.632 120.003,171.621 119.679 C 171.604 119.178,171.783 119.065,172.806 118.928 L 174.012 118.768 172.927 118.727 C 172.330 118.705,171.697 118.832,171.520 119.009 M122.103 119.154 C 123.171 119.205,124.920 119.205,125.988 119.154 C 127.056 119.103,126.182 119.062,124.046 119.062 C 121.909 119.062,121.035 119.103,122.103 119.154 M81.325 120.094 C 81.425 120.425,81.617 120.814,81.752 120.958 C 81.887 121.102,81.862 120.831,81.696 120.356 C 81.356 119.382,81.043 119.161,81.325 120.094 M139.089 120.072 C 139.067 120.465,138.980 121.008,138.895 121.277 C 138.749 121.741,138.757 121.742,139.046 121.293 C 139.214 121.031,139.301 120.488,139.240 120.087 L 139.129 119.357 139.089 120.072 M156.865 120.135 C 156.865 120.489,156.956 120.723,157.066 120.655 C 157.177 120.587,157.267 120.297,157.267 120.011 C 157.267 119.725,157.177 119.491,157.066 119.491 C 156.956 119.491,156.865 119.781,156.865 120.135 M161.889 120.302 C 162.294 120.617,162.640 121.136,162.657 121.456 C 162.682 121.928,162.711 121.946,162.813 121.554 C 162.956 121.003,162.519 120.386,161.710 119.997 C 161.361 119.830,161.428 119.944,161.889 120.302 M118.921 120.369 C 119.036 120.483,121.110 120.543,123.530 120.502 L 127.930 120.427 123.321 120.294 C 120.787 120.221,118.806 120.254,118.921 120.369 M176.356 120.223 L 175.218 120.326 175.263 121.449 L 175.308 122.572 175.413 121.567 C 175.511 120.625,175.574 120.563,176.424 120.563 C 176.922 120.563,177.404 120.442,177.495 120.295 C 177.586 120.147,177.623 120.048,177.578 120.074 C 177.532 120.099,176.983 120.167,176.356 120.223 M172.475 120.484 C 172.808 120.548,173.290 120.546,173.546 120.479 C 173.802 120.412,173.530 120.359,172.940 120.362 C 172.351 120.365,172.141 120.420,172.475 120.484 M164.295 121.366 C 164.295 121.882,164.350 122.093,164.418 121.835 C 164.485 121.577,164.485 121.155,164.418 120.898 C 164.350 120.640,164.295 120.851,164.295 121.366 M157.803 121.618 C 157.803 122.052,157.898 122.465,158.015 122.537 C 158.132 122.609,158.179 122.255,158.120 121.749 C 157.988 120.623,157.803 120.547,157.803 121.618 M87.575 121.433 C 87.960 121.924,93.043 122.161,93.328 121.701 C 93.397 121.591,92.251 121.539,90.781 121.585 C 88.867 121.646,87.981 121.571,87.658 121.318 C 87.253 121.001,87.245 121.012,87.575 121.433 M82.129 122.237 C 82.229 122.569,82.421 122.958,82.556 123.102 C 82.691 123.246,82.665 122.974,82.499 122.499 C 82.160 121.526,81.847 121.304,82.129 122.237 M107.035 121.899 C 106.937 122.057,107.058 122.092,107.333 121.987 C 107.705 121.844,107.757 121.911,107.599 122.325 C 107.450 122.718,107.477 122.766,107.717 122.528 C 108.039 122.209,107.858 121.634,107.435 121.634 C 107.305 121.634,107.125 121.753,107.035 121.899 M142.639 121.969 C 142.533 122.153,142.549 122.210,142.676 122.095 C 142.802 121.980,143.071 122.160,143.273 122.497 C 143.510 122.891,143.586 122.934,143.488 122.617 C 143.404 122.347,143.336 122.016,143.336 121.880 C 143.336 121.520,142.862 121.580,142.639 121.969 M145.516 122.179 C 144.686 122.871,145.061 122.863,145.942 122.170 C 146.316 121.875,146.516 121.638,146.386 121.643 C 146.255 121.648,145.864 121.889,145.516 122.179 M133.691 124.042 C 133.912 124.187,134.384 124.307,134.740 124.309 C 135.600 124.315,135.382 124.162,134.226 123.950 C 133.567 123.829,133.408 123.856,133.691 124.042 M160.549 123.962 C 160.807 124.030,161.229 124.030,161.487 123.962 C 161.745 123.895,161.534 123.840,161.018 123.840 C 160.502 123.840,160.291 123.895,160.549 123.962 M82.233 125.029 C 81.870 125.985,82.091 126.457,82.902 126.457 C 83.522 126.457,84.363 125.532,84.038 125.208 C 83.966 125.136,83.828 125.327,83.730 125.633 C 83.616 125.995,83.327 126.189,82.902 126.189 C 82.183 126.189,82.126 126.016,82.512 125.001 C 82.655 124.623,82.713 124.313,82.639 124.313 C 82.565 124.313,82.383 124.636,82.233 125.029 M103.373 143.872 C 103.323 144.756,103.372 145.480,103.483 145.479 C 103.593 145.479,103.684 144.756,103.684 143.871 C 103.684 141.796,103.490 141.796,103.373 143.872 M125.179 144.139 C 125.179 144.655,125.235 144.866,125.302 144.608 C 125.369 144.350,125.369 143.928,125.302 143.670 C 125.235 143.413,125.179 143.624,125.179 144.139 M126.693 144.198 C 126.816 144.942,126.854 144.980,126.938 144.443 C 126.993 144.095,126.928 143.699,126.793 143.564 C 126.644 143.416,126.605 143.665,126.693 144.198 M142.934 145.243 C 142.537 145.708,142.520 145.777,142.867 145.508 C 143.302 145.172,143.336 145.263,143.336 146.770 L 143.336 148.395 142.197 148.498 L 141.058 148.600 142.205 148.647 C 143.575 148.703,143.659 148.555,143.550 146.291 L 143.470 144.615 142.934 145.243 M87.725 145.294 C 87.651 145.486,87.626 147.084,87.668 148.843 L 87.746 152.043 87.878 148.492 C 88.009 144.991,87.990 144.603,87.725 145.294 M106.947 148.493 C 106.996 152.063,107.096 151.634,107.229 147.287 C 107.268 145.997,107.210 144.942,107.100 144.942 C 106.989 144.943,106.921 146.541,106.947 148.493 M92.702 145.609 C 92.520 145.829,92.441 146.190,92.527 146.413 C 92.693 146.846,93.645 146.970,93.881 146.589 C 93.959 146.463,93.725 146.417,93.361 146.487 C 92.637 146.625,92.451 146.103,93.021 145.532 C 93.198 145.356,93.273 145.211,93.188 145.211 C 93.102 145.211,92.884 145.390,92.702 145.609 M108.609 148.560 C 108.609 150.328,108.653 151.017,108.705 150.090 C 108.757 149.163,108.757 147.716,108.704 146.875 C 108.651 146.033,108.608 146.792,108.609 148.560 M102.813 146.836 C 103.557 147.683,103.624 149.342,102.947 150.146 C 102.479 150.703,102.479 150.703,103.081 150.193 C 103.994 149.420,103.924 147.660,102.947 146.798 L 102.210 146.149 102.813 146.836 M125.212 148.560 C 125.211 149.886,125.257 150.462,125.313 149.841 C 125.369 149.219,125.370 148.134,125.314 147.429 C 125.259 146.725,125.213 147.234,125.212 148.560 M126.815 148.158 C 126.815 149.263,126.862 149.715,126.920 149.163 C 126.978 148.610,126.978 147.706,126.920 147.153 C 126.862 146.601,126.815 147.053,126.815 148.158 M123.297 149.144 C 123.244 151.739,123.212 151.877,122.639 151.988 L 122.036 152.104 122.647 152.140 C 123.469 152.189,123.546 151.881,123.442 148.942 L 123.353 146.417 123.297 149.144 M82.014 147.234 C 81.981 147.808,82.436 148.426,82.891 148.426 C 83.037 148.426,82.963 148.275,82.726 148.091 C 82.489 147.907,82.239 147.515,82.170 147.220 C 82.047 146.696,82.044 146.696,82.014 147.234 M97.888 149.364 C 97.888 150.837,97.933 151.406,97.988 150.627 C 98.042 149.849,98.041 148.643,97.986 147.948 C 97.931 147.253,97.887 147.890,97.888 149.364 M111.632 146.997 C 111.534 147.095,111.453 147.343,111.453 147.547 C 111.453 148.100,114.251 147.910,114.290 147.354 C 114.306 147.122,114.271 147.094,114.206 147.287 C 114.138 147.489,113.612 147.622,112.879 147.622 C 111.909 147.622,111.695 147.541,111.818 147.220 C 111.984 146.789,111.919 146.711,111.632 146.997 M96.182 147.310 C 96.182 147.482,95.790 147.640,95.311 147.662 C 94.455 147.702,94.453 147.704,95.210 147.817 C 95.978 147.932,96.712 147.527,96.365 147.180 C 96.265 147.079,96.182 147.138,96.182 147.310 M89.310 149.766 C 89.310 151.018,89.356 151.530,89.413 150.904 C 89.469 150.278,89.469 149.253,89.413 148.627 C 89.356 148.001,89.310 148.513,89.310 149.766 M80.674 148.471 C 80.657 148.717,80.574 149.139,80.489 149.409 C 80.343 149.874,80.351 149.875,80.641 149.422 C 80.809 149.160,80.893 148.738,80.826 148.485 C 80.717 148.070,80.702 148.068,80.674 148.471 M134.035 148.624 C 134.888 148.678,136.214 148.677,136.982 148.623 C 137.751 148.569,137.053 148.526,135.432 148.526 C 133.811 148.527,133.183 148.571,134.035 148.624 M145.412 148.602 C 146.101 148.750,146.243 149.656,145.608 149.853 C 145.323 149.941,145.343 149.966,145.675 149.936 C 146.480 149.862,146.302 148.570,145.479 148.516 C 144.889 148.477,144.881 148.488,145.412 148.602 M95.362 149.112 C 95.795 149.194,96.204 149.437,96.272 149.653 C 96.351 149.902,96.380 149.872,96.354 149.570 C 96.324 149.238,96.051 149.076,95.443 149.029 C 94.615 148.965,94.611 148.969,95.362 149.112 M132.083 149.125 C 132.083 149.834,132.827 150.033,135.470 150.033 C 136.979 150.033,138.270 149.943,138.339 149.833 C 138.407 149.722,137.183 149.670,135.618 149.717 C 133.150 149.791,132.727 149.740,132.428 149.331 C 132.238 149.072,132.083 148.979,132.083 149.125 M81.983 149.900 C 81.983 150.121,82.110 150.301,82.266 150.301 C 82.422 150.301,82.482 150.191,82.399 150.056 C 82.315 149.922,82.399 149.750,82.584 149.676 C 82.787 149.594,82.734 149.532,82.451 149.519 C 82.194 149.507,81.983 149.678,81.983 149.900 M92.191 150.071 C 92.176 150.460,92.374 151.008,92.632 151.289 C 92.890 151.570,92.995 151.643,92.866 151.451 C 92.737 151.259,92.538 150.711,92.425 150.233 C 92.235 149.436,92.216 149.422,92.191 150.071 M139.557 149.846 C 139.676 149.964,140.545 150.023,141.487 149.977 L 143.202 149.893 141.271 149.763 C 140.210 149.691,139.438 149.728,139.557 149.846 M143.438 150.971 C 143.465 151.885,143.559 152.048,144.076 152.079 C 144.551 152.106,144.569 152.088,144.159 151.995 C 143.783 151.910,143.601 151.595,143.520 150.888 L 143.406 149.900 143.438 150.971 M115.344 150.674 C 115.792 151.002,115.808 151.107,115.477 151.545 C 115.127 152.007,115.133 152.013,115.564 151.622 C 116.098 151.136,115.905 150.301,115.258 150.301 C 114.912 150.301,114.928 150.370,115.344 150.674 M112.997 150.759 C 113.330 150.823,113.813 150.820,114.069 150.753 C 114.325 150.686,114.052 150.634,113.463 150.637 C 112.873 150.640,112.664 150.695,112.997 150.759 M127.328 150.754 C 127.585 150.821,128.007 150.821,128.265 150.754 C 128.523 150.687,128.312 150.631,127.796 150.631 C 127.281 150.631,127.070 150.687,127.328 150.754 M96.316 151.909 C 96.611 152.036,97.033 152.139,97.254 152.139 C 97.507 152.139,97.458 152.054,97.120 151.909 C 96.825 151.782,96.403 151.679,96.182 151.679 C 95.929 151.679,95.978 151.764,96.316 151.909 M84.683 152.230 C 84.671 152.481,84.451 152.809,84.193 152.959 C 83.935 153.109,83.860 153.236,84.026 153.240 C 84.468 153.252,85.003 152.518,84.842 152.119 C 84.753 151.897,84.697 151.937,84.683 152.230 M93.972 152.098 C 94.303 152.162,94.846 152.162,95.177 152.098 C 95.509 152.034,95.238 151.982,94.575 151.982 C 93.912 151.982,93.640 152.034,93.972 152.098 M101.072 152.094 C 101.330 152.161,101.752 152.161,102.009 152.094 C 102.267 152.026,102.056 151.971,101.541 151.971 C 101.025 151.971,100.814 152.026,101.072 152.094 M84.260 154.320 L 83.456 154.525 84.177 154.556 C 84.574 154.574,84.973 154.468,85.064 154.320 C 85.155 154.173,85.192 154.067,85.146 154.084 C 85.101 154.101,84.702 154.208,84.260 154.320 " stroke="none" fill="#a0a0a0" fill-rule="evenodd"></path><path id="path3" d="M111.305 83.131 C 111.232 83.320,111.209 85.581,111.253 88.154 L 111.333 92.833 111.393 87.963 C 111.447 83.580,111.500 83.081,111.922 82.971 C 112.362 82.856,112.361 82.847,111.914 82.817 C 111.651 82.800,111.377 82.941,111.305 83.131 M159.740 82.954 C 160.152 83.076,160.211 83.618,160.285 87.895 L 160.367 92.700 160.358 87.813 C 160.349 83.128,160.326 82.925,159.812 82.872 C 159.407 82.831,159.389 82.851,159.740 82.954 M211.359 83.031 C 211.591 83.178,211.661 83.456,211.544 83.764 C 211.398 84.147,211.427 84.188,211.674 83.943 C 212.053 83.567,211.818 82.785,211.328 82.790 C 211.071 82.794,211.079 82.854,211.359 83.031 M80.756 83.572 C 83.471 83.766,83.917 84.369,81.402 84.444 L 79.705 84.495 81.285 84.593 C 83.012 84.700,83.621 84.406,83.064 83.735 C 82.802 83.420,82.236 83.334,80.677 83.371 L 78.634 83.420 80.756 83.572 M78.341 88.279 C 78.341 90.784,78.381 91.844,78.431 90.636 C 78.480 89.428,78.481 87.378,78.431 86.081 C 78.382 84.785,78.342 85.774,78.341 88.279 M107.793 85.198 C 107.828 85.731,107.987 85.874,108.577 85.900 C 109.221 85.928,109.232 85.918,108.660 85.817 C 108.255 85.745,107.955 85.476,107.876 85.114 C 107.770 84.625,107.756 84.639,107.793 85.198 M180.308 85.088 C 180.308 85.322,180.037 85.751,179.705 86.041 L 179.102 86.569 179.839 86.120 C 180.451 85.748,180.900 84.662,180.442 84.662 C 180.368 84.662,180.308 84.853,180.308 85.088 M209.869 85.198 C 209.904 85.731,210.064 85.874,210.653 85.900 C 211.297 85.928,211.308 85.918,210.737 85.817 C 210.332 85.745,210.031 85.476,209.953 85.114 C 209.846 84.625,209.832 84.639,209.869 85.198 M241.929 85.088 C 241.929 85.322,241.658 85.751,241.326 86.041 L 240.723 86.569 241.460 86.120 C 242.072 85.748,242.521 84.662,242.063 84.662 C 241.989 84.662,241.929 84.853,241.929 85.088 M84.786 86.064 C 84.708 86.268,84.682 87.874,84.729 89.634 L 84.814 92.833 84.872 89.417 C 84.927 86.151,85.244 85.105,85.825 86.276 C 85.900 86.427,85.930 86.397,85.892 86.209 C 85.795 85.728,84.957 85.618,84.786 86.064 M87.993 86.084 C 87.919 86.277,87.897 87.874,87.944 89.634 L 88.029 92.833 88.087 89.437 C 88.138 86.456,88.202 86.026,88.614 85.918 C 89.053 85.803,89.052 85.794,88.605 85.765 C 88.343 85.747,88.067 85.891,87.993 86.084 M113.061 86.135 C 112.186 86.635,112.492 86.641,113.633 86.146 C 114.129 85.931,114.354 85.754,114.133 85.753 C 113.912 85.753,113.429 85.925,113.061 86.135 M162.750 86.064 C 162.672 86.268,162.646 87.874,162.693 89.634 L 162.778 92.833 162.836 89.417 C 162.883 86.616,162.964 86.001,163.287 86.001 C 163.608 86.001,163.697 86.614,163.768 89.283 L 163.855 92.565 163.843 89.220 C 163.833 86.250,163.778 85.864,163.362 85.784 C 163.103 85.734,162.828 85.860,162.750 86.064 M165.957 86.084 C 165.883 86.277,165.861 87.874,165.908 89.634 L 165.993 92.833 166.051 89.437 C 166.101 86.456,166.166 86.026,166.577 85.918 C 167.017 85.803,167.016 85.794,166.569 85.765 C 166.306 85.747,166.031 85.891,165.957 86.084 M181.916 85.837 C 181.916 85.894,182.271 85.993,182.705 86.056 C 183.139 86.120,183.434 86.074,183.359 85.953 C 183.226 85.738,181.916 85.633,181.916 85.837 M216.242 86.095 C 216.022 86.361,215.952 87.753,216.008 90.726 L 216.090 94.977 216.149 90.639 C 216.208 86.402,216.422 85.385,217.063 86.302 C 217.279 86.610,217.304 86.608,217.217 86.286 C 217.070 85.740,216.612 85.650,216.242 86.095 M231.337 86.064 C 231.258 86.268,231.233 87.874,231.280 89.634 L 231.365 92.833 231.423 89.417 C 231.470 86.616,231.551 86.001,231.874 86.001 C 232.194 86.001,232.284 86.614,232.355 89.283 L 232.442 92.565 232.430 89.220 C 232.419 86.250,232.365 85.864,231.948 85.784 C 231.690 85.734,231.415 85.860,231.337 86.064 M234.544 86.084 C 234.470 86.277,234.448 87.874,234.495 89.634 L 234.580 92.833 234.638 89.437 C 234.688 86.456,234.753 86.026,235.164 85.918 C 235.604 85.803,235.603 85.794,235.156 85.765 C 234.893 85.747,234.618 85.891,234.544 86.084 M109.578 86.476 C 109.578 86.638,109.186 86.809,108.707 86.855 L 107.837 86.939 107.819 88.814 L 107.801 90.690 107.898 88.881 C 107.993 87.087,108.000 87.073,108.770 87.073 C 109.525 87.073,110.064 86.666,109.739 86.341 C 109.650 86.252,109.578 86.313,109.578 86.476 M211.386 86.493 C 211.386 86.664,211.115 86.819,210.784 86.836 C 210.287 86.862,210.269 86.890,210.678 86.995 C 211.213 87.133,211.872 86.665,211.570 86.363 C 211.469 86.262,211.386 86.321,211.386 86.493 M119.891 87.343 C 119.206 88.099,119.498 88.170,120.218 87.421 C 120.544 87.082,120.714 86.805,120.595 86.805 C 120.475 86.805,120.159 87.047,119.891 87.343 M137.240 86.990 C 137.498 87.057,137.920 87.057,138.178 86.990 C 138.436 86.922,138.225 86.867,137.709 86.867 C 137.194 86.867,136.983 86.922,137.240 86.990 M145.010 86.990 C 145.268 87.057,145.690 87.057,145.948 86.990 C 146.206 86.922,145.995 86.867,145.479 86.867 C 144.963 86.867,144.752 86.922,145.010 86.990 M156.429 87.274 C 156.110 87.682,156.114 87.703,156.463 87.437 C 156.685 87.268,157.106 87.071,157.401 86.999 C 157.910 86.874,157.908 86.866,157.367 86.836 C 157.054 86.819,156.632 87.016,156.429 87.274 M179.828 86.972 C 180.186 87.079,180.306 87.495,180.381 88.899 L 180.477 90.690 180.460 88.817 C 180.444 87.148,180.384 86.939,179.906 86.890 C 179.511 86.850,179.490 86.872,179.828 86.972 M193.079 86.984 C 192.747 87.316,192.898 88.077,193.369 88.447 C 193.794 88.780,193.803 88.770,193.471 88.347 C 193.270 88.090,193.168 87.638,193.245 87.342 C 193.395 86.769,193.363 86.700,193.079 86.984 M202.446 87.017 C 202.374 87.134,202.728 87.181,203.234 87.122 C 203.739 87.063,204.153 86.967,204.153 86.910 C 204.153 86.708,202.576 86.807,202.446 87.017 M241.580 86.993 C 241.756 87.118,241.947 88.001,242.004 88.955 L 242.107 90.690 242.085 88.836 C 242.068 87.428,241.966 86.956,241.661 86.873 C 241.379 86.797,241.355 86.832,241.580 86.993 M85.834 89.886 C 85.834 91.507,85.878 92.136,85.932 91.283 C 85.985 90.430,85.985 89.104,85.931 88.336 C 85.877 87.568,85.833 88.265,85.834 89.886 M209.878 89.752 C 209.878 91.299,209.922 91.932,209.976 91.159 C 210.031 90.385,210.031 89.119,209.976 88.346 C 209.922 87.572,209.878 88.205,209.878 89.752 M116.643 90.020 C 116.643 91.567,116.687 92.200,116.741 91.427 C 116.796 90.653,116.796 89.387,116.741 88.614 C 116.687 87.840,116.643 88.473,116.643 90.020 M177.996 90.020 C 177.996 91.567,178.040 92.200,178.094 91.427 C 178.148 90.653,178.148 89.387,178.094 88.614 C 178.040 87.840,177.996 88.473,177.996 90.020 M221.916 89.216 C 221.916 90.027,221.966 90.358,222.027 89.953 C 222.089 89.548,222.089 88.885,222.027 88.480 C 221.966 88.074,221.916 88.406,221.916 89.216 M92.259 90.422 C 92.258 91.748,92.303 92.324,92.359 91.703 C 92.415 91.081,92.416 89.996,92.361 89.291 C 92.305 88.587,92.259 89.096,92.259 90.422 M140.729 89.216 C 140.729 89.879,140.782 90.151,140.845 89.819 C 140.909 89.488,140.909 88.945,140.845 88.614 C 140.782 88.282,140.729 88.553,140.729 89.216 M148.494 89.082 C 148.497 89.672,148.551 89.881,148.615 89.548 C 148.680 89.215,148.677 88.733,148.610 88.476 C 148.543 88.220,148.491 88.493,148.494 89.082 M217.357 89.350 C 217.359 90.087,217.411 90.357,217.473 89.949 C 217.534 89.542,217.533 88.939,217.469 88.610 C 217.406 88.280,217.355 88.614,217.357 89.350 M112.340 89.886 C 112.342 90.770,112.392 91.100,112.451 90.618 C 112.511 90.137,112.510 89.413,112.449 89.011 C 112.388 88.608,112.339 89.002,112.340 89.886 M118.219 89.350 C 118.222 89.940,118.277 90.149,118.341 89.816 C 118.405 89.483,118.403 89.001,118.335 88.744 C 118.268 88.488,118.216 88.761,118.219 89.350 M151.199 90.556 C 151.199 91.808,151.245 92.321,151.301 91.695 C 151.358 91.068,151.358 90.044,151.301 89.417 C 151.245 88.791,151.199 89.303,151.199 90.556 M170.221 90.556 C 170.221 91.808,170.267 92.321,170.323 91.695 C 170.380 91.068,170.380 90.044,170.323 89.417 C 170.267 88.791,170.221 89.303,170.221 90.556 M200.202 89.350 C 200.204 89.940,200.259 90.149,200.323 89.816 C 200.388 89.483,200.385 89.001,200.318 88.744 C 200.251 88.488,200.199 88.761,200.202 89.350 M228.040 89.127 C 228.017 89.594,227.928 90.197,227.843 90.467 C 227.698 90.930,227.706 90.931,227.994 90.483 C 228.161 90.222,228.250 89.619,228.191 89.144 L 228.083 88.279 228.040 89.127 M238.806 90.690 C 238.807 91.869,238.854 92.318,238.911 91.687 C 238.967 91.057,238.966 90.093,238.909 89.544 C 238.851 88.995,238.805 89.511,238.806 90.690 M175.553 89.669 C 175.810 89.736,176.232 89.736,176.490 89.669 C 176.748 89.602,176.537 89.546,176.021 89.546 C 175.506 89.546,175.295 89.602,175.553 89.669 M139.451 92.063 C 138.969 92.473,138.871 92.636,139.205 92.470 C 139.696 92.226,140.617 91.344,140.354 91.369 C 140.299 91.375,139.893 91.687,139.451 92.063 M147.220 92.063 C 146.739 92.473,146.640 92.636,146.974 92.470 C 147.466 92.226,148.387 91.344,148.124 91.369 C 148.069 91.375,147.662 91.687,147.220 92.063 M121.165 91.812 C 121.423 91.880,121.845 91.880,122.103 91.812 C 122.361 91.745,122.150 91.690,121.634 91.690 C 121.119 91.690,120.908 91.745,121.165 91.812 M217.389 92.535 C 217.311 92.739,217.294 93.432,217.351 94.075 C 217.452 95.208,217.456 95.199,217.502 93.809 C 217.540 92.633,217.624 92.403,217.964 92.534 C 218.203 92.625,218.310 92.580,218.216 92.428 C 217.981 92.047,217.555 92.102,217.389 92.535 M110.359 111.079 C 109.836 111.709,109.772 112.384,110.276 111.966 C 110.489 111.789,110.600 111.583,110.525 111.507 C 110.449 111.431,110.521 111.207,110.685 111.009 C 110.849 110.811,110.923 110.650,110.849 110.650 C 110.776 110.650,110.555 110.843,110.359 111.079 M112.994 110.917 C 113.394 111.366,113.439 112.694,113.061 112.927 C 112.914 113.018,112.793 113.229,112.793 113.396 C 112.793 113.563,112.970 113.465,113.186 113.179 C 113.725 112.468,113.695 111.326,113.128 110.896 C 112.729 110.595,112.709 110.598,112.994 110.917 M148.404 111.565 C 148.348 111.621,148.254 112.793,148.306 112.793 C 148.338 112.793,148.549 112.512,148.774 112.168 C 149.105 111.663,148.801 111.168,148.404 111.565 M152.239 112.525 C 152.239 113.041,152.294 113.252,152.362 112.994 C 152.429 112.736,152.429 112.314,152.362 112.056 C 152.294 111.798,152.239 112.009,152.239 112.525 M98.080 114.482 C 98.141 114.526,98.553 114.775,98.995 115.033 L 99.799 115.504 99.167 114.952 C 98.819 114.649,98.407 114.401,98.251 114.401 C 98.096 114.401,98.019 114.437,98.080 114.482 M162.112 114.482 C 162.173 114.526,162.585 114.775,163.027 115.033 L 163.831 115.504 163.199 114.952 C 162.851 114.649,162.439 114.401,162.283 114.401 C 162.128 114.401,162.051 114.437,162.112 114.482 M179.070 114.790 C 178.787 115.527,179.274 115.740,181.239 115.740 C 182.323 115.740,183.272 115.864,183.347 116.015 C 183.422 116.166,183.452 116.136,183.415 115.948 C 183.368 115.715,182.691 115.581,181.291 115.528 C 177.853 115.397,178.465 114.710,182.117 114.600 L 184.997 114.514 182.108 114.457 C 179.792 114.412,179.190 114.478,179.070 114.790 M150.840 115.335 C 150.658 115.555,150.421 115.680,150.315 115.614 C 150.208 115.548,149.649 116.001,149.072 116.620 C 148.433 117.307,148.345 117.458,148.846 117.007 C 149.299 116.601,149.729 116.329,149.804 116.403 C 149.878 116.478,150.284 116.178,150.706 115.737 C 151.128 115.297,151.405 114.936,151.322 114.936 C 151.239 114.936,151.022 115.116,150.840 115.335 M96.090 115.673 C 96.021 115.784,96.425 115.874,96.986 115.874 C 97.547 115.874,97.951 115.784,97.882 115.673 C 97.814 115.563,97.411 115.472,96.986 115.472 C 96.561 115.472,96.158 115.563,96.090 115.673 M174.066 116.445 C 173.963 116.549,173.878 117.149,173.878 117.779 L 173.878 118.924 172.739 119.036 L 171.601 119.148 172.806 119.119 L 174.012 119.089 174.094 117.816 C 174.198 116.185,174.868 116.042,175.028 117.618 L 175.136 118.691 175.110 117.553 C 175.085 116.460,174.583 115.928,174.066 116.445 M80.674 117.415 C 80.696 117.842,80.740 117.886,80.825 117.565 C 80.890 117.316,81.147 117.059,81.396 116.993 C 81.717 116.909,81.673 116.865,81.246 116.843 C 80.782 116.819,80.650 116.951,80.674 117.415 M102.462 117.205 C 101.964 117.582,101.972 117.599,102.671 117.607 C 103.210 117.613,103.359 117.511,103.245 117.214 C 103.057 116.725,103.097 116.725,102.462 117.205 M141.218 117.182 C 140.970 117.482,141.074 117.577,141.763 117.678 C 142.475 117.782,142.542 117.750,142.175 117.482 C 141.934 117.305,141.815 117.082,141.911 116.986 C 142.007 116.890,141.959 116.812,141.806 116.812 C 141.652 116.812,141.387 116.979,141.218 117.182 M149.738 117.160 C 149.863 117.285,150.373 117.345,150.870 117.293 C 151.753 117.203,151.747 117.197,150.643 117.067 C 150.021 116.993,149.614 117.035,149.738 117.160 M169.289 117.281 C 168.970 117.688,168.974 117.710,169.324 117.443 C 169.545 117.275,169.967 117.078,170.261 117.006 C 170.770 116.881,170.768 116.872,170.227 116.843 C 169.914 116.826,169.492 117.023,169.289 117.281 M87.784 117.816 C 87.716 117.927,88.963 118.017,90.556 118.017 C 92.149 118.017,93.396 117.927,93.328 117.816 C 93.259 117.706,92.012 117.616,90.556 117.616 C 89.100 117.616,87.852 117.706,87.784 117.816 M144.923 118.352 L 144.273 119.089 145.077 118.419 C 145.519 118.051,145.931 117.719,145.992 117.683 C 146.054 117.646,145.984 117.616,145.838 117.616 C 145.692 117.616,145.280 117.947,144.923 118.352 M110.315 118.073 C 110.646 118.136,111.189 118.136,111.520 118.073 C 111.852 118.009,111.581 117.956,110.918 117.956 C 110.255 117.956,109.983 118.009,110.315 118.073 M149.297 118.079 C 149.849 118.136,150.754 118.136,151.306 118.079 C 151.859 118.021,151.407 117.974,150.301 117.974 C 149.196 117.974,148.744 118.021,149.297 118.079 M87.784 118.754 C 87.852 118.865,89.100 118.955,90.556 118.955 C 92.012 118.955,93.259 118.865,93.328 118.754 C 93.396 118.644,92.149 118.553,90.556 118.553 C 88.963 118.553,87.716 118.644,87.784 118.754 M175.352 119.091 C 175.964 119.304,177.581 119.363,177.460 119.167 C 177.388 119.050,176.824 118.965,176.207 118.976 C 175.589 118.988,175.204 119.039,175.352 119.091 M127.528 119.574 C 127.528 119.960,127.001 120.023,123.175 120.094 L 118.821 120.175 123.183 120.235 C 127.487 120.294,128.483 120.088,127.696 119.301 C 127.604 119.209,127.528 119.332,127.528 119.574 M138.843 120.295 C 138.843 120.810,138.898 121.021,138.966 120.764 C 139.033 120.506,139.033 120.084,138.966 119.826 C 138.898 119.568,138.843 119.779,138.843 120.295 M154.526 119.685 C 155.007 119.745,155.731 119.744,156.133 119.682 C 156.536 119.621,156.142 119.572,155.258 119.574 C 154.374 119.575,154.044 119.625,154.526 119.685 M172.873 120.212 C 173.864 120.325,173.878 120.344,173.878 121.501 C 173.878 122.146,173.971 122.732,174.084 122.802 C 174.198 122.872,174.228 122.306,174.151 121.545 L 174.012 120.161 172.940 120.129 L 171.869 120.097 172.873 120.212 M175.687 120.216 C 176.018 120.280,176.561 120.280,176.892 120.216 C 177.224 120.152,176.952 120.100,176.289 120.100 C 175.626 120.100,175.355 120.152,175.687 120.216 M175.023 121.634 C 175.023 122.297,175.075 122.569,175.139 122.237 C 175.203 121.906,175.203 121.363,175.139 121.031 C 175.075 120.700,175.023 120.971,175.023 121.634 M87.784 121.433 C 87.852 121.544,89.100 121.634,90.556 121.634 C 92.012 121.634,93.259 121.544,93.328 121.433 C 93.396 121.323,92.149 121.232,90.556 121.232 C 88.963 121.232,87.716 121.323,87.784 121.433 M96.857 121.897 C 96.472 122.322,96.450 122.452,96.749 122.553 C 97.400 122.775,100.424 122.848,100.294 122.639 C 100.226 122.528,99.374 122.438,98.402 122.438 C 96.652 122.438,96.640 122.433,97.120 121.902 C 97.387 121.608,97.545 121.366,97.471 121.366 C 97.397 121.366,97.121 121.605,96.857 121.897 M94.995 122.150 C 94.738 122.434,94.585 122.886,94.654 123.155 C 94.771 123.607,94.783 123.605,94.812 123.129 C 94.829 122.846,95.042 122.394,95.286 122.124 C 95.530 121.855,95.669 121.634,95.595 121.634 C 95.522 121.634,95.251 121.866,94.995 122.150 M159.411 121.836 C 159.411 122.311,160.530 122.977,161.279 122.946 C 161.837 122.924,161.793 122.881,161.031 122.701 C 160.523 122.582,159.950 122.270,159.759 122.008 C 159.567 121.746,159.411 121.669,159.411 121.836 M107.020 122.388 C 107.134 122.590,107.012 122.990,106.734 123.326 C 106.260 123.899,106.263 123.898,106.898 123.312 C 107.440 122.811,107.487 122.656,107.184 122.374 C 106.890 122.101,106.859 122.104,107.020 122.388 M104.147 142.171 C 104.732 142.297,104.745 142.389,104.826 146.971 L 104.909 151.641 104.899 146.886 L 104.889 142.130 104.220 142.086 C 103.641 142.048,103.631 142.060,104.147 142.171 M144.774 145.747 C 144.774 147.294,144.819 147.927,144.873 147.153 C 144.927 146.380,144.927 145.114,144.873 144.340 C 144.819 143.567,144.774 144.200,144.774 145.747 M126.565 144.407 C 126.586 144.945,126.736 145.083,127.331 145.110 C 127.975 145.138,127.986 145.127,127.414 145.026 C 127.000 144.954,126.717 144.693,126.648 144.324 C 126.559 143.843,126.544 143.858,126.565 144.407 M84.656 145.142 C 85.317 145.200,86.040 145.390,86.264 145.564 C 86.620 145.841,86.625 145.822,86.303 145.412 C 86.036 145.071,85.598 144.956,84.696 144.990 L 83.456 145.037 84.656 145.142 M87.993 145.294 C 87.919 145.486,87.897 147.084,87.944 148.843 L 88.029 152.043 88.087 148.647 C 88.138 145.666,88.202 145.235,88.614 145.128 C 89.053 145.013,89.052 145.003,88.605 144.974 C 88.343 144.957,88.067 145.101,87.993 145.294 M101.005 145.048 C 101.005 145.105,101.418 145.201,101.924 145.260 C 102.429 145.319,102.784 145.272,102.712 145.155 C 102.582 144.945,101.005 144.846,101.005 145.048 M107.325 145.171 C 107.235 145.318,107.394 145.369,107.694 145.291 C 108.195 145.160,108.226 145.322,108.309 148.464 L 108.396 151.775 108.384 148.429 C 108.373 145.161,108.014 144.057,107.325 145.171 M111.572 145.360 C 111.060 145.770,111.060 145.772,111.587 145.530 C 111.882 145.394,112.304 145.216,112.525 145.134 C 112.872 145.006,112.870 144.982,112.509 144.964 C 112.280 144.953,111.858 145.131,111.572 145.360 M113.859 145.242 C 114.225 145.388,114.713 145.651,114.944 145.828 C 115.175 146.004,115.081 145.877,114.734 145.546 C 114.387 145.214,113.898 144.951,113.649 144.960 C 113.347 144.971,113.417 145.066,113.859 145.242 M121.620 145.239 C 121.980 145.383,122.408 145.586,122.570 145.691 C 122.732 145.795,122.635 145.670,122.354 145.412 C 122.073 145.154,121.645 144.951,121.404 144.960 C 121.126 144.971,121.206 145.073,121.620 145.239 M128.332 145.550 C 128.332 145.812,128.046 146.023,127.595 146.091 L 126.859 146.202 127.604 146.243 C 128.314 146.281,128.884 145.674,128.499 145.289 C 128.407 145.197,128.332 145.315,128.332 145.550 M117.718 148.560 C 117.718 150.328,117.762 151.017,117.814 150.090 C 117.867 149.163,117.866 147.716,117.813 146.875 C 117.760 146.033,117.717 146.792,117.718 148.560 M134.035 145.945 C 134.888 145.998,136.214 145.998,136.982 145.944 C 137.751 145.890,137.053 145.846,135.432 145.847 C 133.811 145.848,133.183 145.892,134.035 145.945 M126.547 148.158 C 126.547 149.263,126.594 149.715,126.652 149.163 C 126.710 148.610,126.710 147.706,126.652 147.153 C 126.594 146.601,126.547 147.053,126.547 148.158 M97.620 149.364 C 97.620 150.837,97.665 151.406,97.720 150.627 C 97.774 149.849,97.773 148.643,97.718 147.948 C 97.663 147.253,97.619 147.890,97.620 149.364 M134.035 147.017 C 134.888 147.070,136.214 147.070,136.982 147.016 C 137.751 146.962,137.053 146.918,135.432 146.919 C 133.811 146.919,133.183 146.963,134.035 147.017 M121.997 149.364 C 121.996 150.690,122.042 151.266,122.098 150.644 C 122.154 150.023,122.155 148.938,122.099 148.233 C 122.044 147.529,121.998 148.038,121.997 149.364 M100.269 148.560 C 100.271 149.149,100.326 149.359,100.390 149.026 C 100.455 148.692,100.452 148.210,100.385 147.954 C 100.318 147.698,100.266 147.971,100.269 148.560 M94.843 148.797 C 94.843 148.854,95.198 148.953,95.632 149.017 C 96.066 149.081,96.361 149.034,96.286 148.913 C 96.153 148.699,94.843 148.593,94.843 148.797 M132.419 149.230 C 132.508 149.555,133.090 149.635,135.454 149.647 L 138.379 149.662 135.576 149.570 C 133.781 149.511,132.689 149.361,132.541 149.153 C 132.376 148.921,132.341 148.943,132.419 149.230 M144.743 150.971 C 144.746 151.561,144.801 151.770,144.865 151.437 C 144.929 151.104,144.926 150.621,144.859 150.365 C 144.792 150.109,144.740 150.382,144.743 150.971 M82.990 150.491 C 83.324 150.555,83.806 150.553,84.062 150.485 C 84.318 150.418,84.046 150.366,83.456 150.369 C 82.867 150.372,82.657 150.427,82.990 150.491 M82.589 151.565 C 82.996 151.627,83.599 151.625,83.929 151.562 C 84.258 151.498,83.925 151.448,83.188 151.450 C 82.451 151.452,82.182 151.504,82.589 151.565 " stroke="none" fill="#7c7c7c" fill-rule="evenodd"></path><path id="path4" d="M99.480 84.528 C 99.482 85.412,99.532 85.741,99.591 85.260 C 99.651 84.778,99.650 84.055,99.589 83.652 C 99.527 83.250,99.479 83.644,99.480 84.528 M243.357 88.814 C 243.358 89.846,243.406 90.235,243.464 89.679 C 243.522 89.123,243.521 88.279,243.462 87.804 C 243.403 87.328,243.355 87.783,243.357 88.814 M99.465 89.350 C 99.468 89.940,99.523 90.149,99.587 89.816 C 99.651 89.483,99.648 89.001,99.581 88.744 C 99.514 88.488,99.462 88.761,99.465 89.350 M149.839 89.752 C 149.839 90.415,149.891 90.687,149.955 90.355 C 150.019 90.023,150.019 89.481,149.955 89.149 C 149.891 88.818,149.839 89.089,149.839 89.752 M120.496 89.678 C 120.975 89.738,121.758 89.738,122.237 89.678 C 122.716 89.619,122.324 89.570,121.366 89.570 C 120.409 89.570,120.017 89.619,120.496 89.678 M187.207 89.678 C 187.686 89.738,188.470 89.738,188.948 89.678 C 189.427 89.619,189.035 89.570,188.078 89.570 C 187.120 89.570,186.728 89.619,187.207 89.678 M88.608 120.488 C 89.083 120.547,89.927 120.548,90.483 120.490 C 91.039 120.432,90.650 120.384,89.618 120.383 C 88.587 120.381,88.132 120.429,88.608 120.488 M154.253 120.752 C 154.585 120.816,155.127 120.816,155.459 120.752 C 155.790 120.688,155.519 120.636,154.856 120.636 C 154.193 120.636,153.922 120.688,154.253 120.752 M112.592 148.889 C 113.145 148.947,114.049 148.947,114.601 148.889 C 115.154 148.831,114.702 148.784,113.597 148.784 C 112.492 148.784,112.040 148.831,112.592 148.889 M119.028 150.569 C 119.028 151.232,119.080 151.504,119.144 151.172 C 119.208 150.841,119.208 150.298,119.144 149.967 C 119.080 149.635,119.028 149.906,119.028 150.569 " stroke="none" fill="#848484" fill-rule="evenodd"></path></g></svg>