<svg id="svg" version="1.1" xmlns="http://www.w3.org/2000/svg" xmlns:xlink="http://www.w3.org/1999/xlink" width="400" height="263.4958382877527" viewBox="0, 0, 400,263.4958382877527"><g id="svgg"><path id="path0" d="M244.901 105.640 C 243.687 106.192,242.843 107.225,242.568 108.498 C 242.330 109.595,242.699 109.592,243.230 108.492 C 244.145 106.596,246.851 106.219,247.997 107.828 C 249.433 109.845,248.462 112.313,244.628 116.391 C 241.716 119.488,241.646 119.368,246.373 119.368 L 250.322 119.368 250.690 118.488 C 250.892 118.005,251.145 117.323,251.253 116.973 L 251.449 116.337 250.806 116.930 C 250.190 117.499,244.796 117.891,244.796 117.367 C 244.796 117.281,245.699 116.243,246.803 115.061 C 249.865 111.782,250.908 109.729,250.327 108.128 C 249.367 105.482,247.319 104.543,244.901 105.640 M68.116 112.705 C 67.536 112.926,66.715 113.184,66.291 113.279 C 65.191 113.526,65.096 114.097,66.155 114.097 C 67.683 114.097,67.703 114.211,67.712 123.064 C 67.722 131.907,67.694 132.070,66.139 132.411 C 64.382 132.797,65.527 133.070,68.906 133.070 C 72.793 133.070,72.932 133.031,71.476 132.345 L 70.487 131.880 70.356 122.132 C 70.207 111.120,70.379 111.845,68.116 112.705 M76.163 112.901 C 75.612 113.487,75.586 113.628,75.886 114.354 C 76.524 115.893,78.788 115.514,78.788 113.869 C 78.788 112.347,77.224 111.771,76.163 112.901 M314.475 112.508 C 314.334 112.648,312.680 112.797,310.799 112.838 L 307.378 112.912 306.447 114.756 C 303.882 119.834,303.722 120.685,305.333 120.685 C 312.078 120.685,315.590 129.053,309.984 131.766 L 308.736 132.371 306.856 131.403 C 304.274 130.074,303.030 130.160,303.030 131.667 C 303.030 132.774,304.153 133.204,306.972 133.179 C 317.110 133.087,318.131 120.583,308.190 118.272 C 305.356 117.613,306.432 115.415,309.588 115.415 C 313.428 115.415,314.087 115.230,314.650 113.992 C 315.335 112.481,315.248 111.735,314.475 112.508 M125.539 113.413 C 121.061 116.429,118.189 123.590,119.600 128.222 C 119.728 128.642,119.990 129.519,120.181 130.171 C 121.019 133.026,125.217 138.340,126.635 138.340 C 127.289 138.340,127.044 137.855,125.819 136.727 C 120.787 132.088,120.654 119.969,125.578 114.650 C 127.368 112.717,127.351 112.193,125.539 113.413 M177.339 112.685 C 174.727 113.154,172.059 116.208,172.382 118.360 C 172.464 118.908,172.552 118.849,173.224 117.787 C 176.122 113.203,181.291 114.123,181.291 119.222 C 181.291 122.253,180.038 124.187,173.584 131.118 C 171.694 133.148,171.553 133.089,178.166 133.009 C 184.444 132.933,184.035 133.028,184.660 131.489 C 185.768 128.758,185.727 128.305,184.494 129.685 L 183.707 130.567 179.732 130.651 C 174.965 130.753,175.028 130.852,177.937 127.827 C 182.996 122.566,183.926 121.033,183.926 117.949 C 183.926 114.244,181.124 112.005,177.339 112.685 M326.746 112.881 C 326.746 113.082,327.039 113.438,327.397 113.673 C 332.864 117.255,333.366 131.185,328.216 136.377 C 326.095 138.515,326.382 139.233,328.609 137.356 C 332.652 133.948,334.387 130.421,334.387 125.608 C 334.387 120.669,332.117 116.126,328.221 113.270 C 327.076 112.430,326.746 112.343,326.746 112.881 M145.809 113.244 C 144.660 113.432,144.734 115.817,145.898 116.110 C 147.003 116.387,147.826 115.825,147.826 114.794 C 147.826 113.611,147.079 113.037,145.809 113.244 M192.240 117.773 C 191.534 118.490,190.412 119.356,189.747 119.698 C 188.192 120.499,187.985 121.212,189.309 121.212 C 190.513 121.212,190.542 120.828,188.891 126.746 C 188.750 127.253,188.531 128.083,188.406 128.590 C 188.280 129.097,188.044 130.042,187.882 130.690 C 187.015 134.147,190.169 134.214,192.567 130.789 C 193.565 129.363,193.202 129.190,191.961 130.501 C 190.601 131.937,190.248 132.046,190.257 131.028 C 190.262 130.392,190.504 129.392,191.609 125.428 C 191.881 124.452,192.221 123.135,192.509 121.937 C 192.670 121.269,192.784 121.212,193.970 121.212 C 195.715 121.212,195.896 120.267,194.203 119.996 C 192.998 119.803,193.022 119.870,193.541 118.158 C 194.198 115.994,194.038 115.947,192.240 117.773 M238.806 117.763 C 238.192 118.459,237.125 119.319,236.435 119.674 C 234.820 120.506,234.612 121.212,235.982 121.212 C 237.108 121.212,237.110 120.932,235.952 125.165 C 234.098 131.942,234.041 132.291,234.691 132.941 C 235.624 133.874,237.731 132.815,239.314 130.617 C 240.175 129.422,239.596 129.441,238.462 130.644 C 236.732 132.482,236.467 131.877,237.450 128.327 C 237.751 127.240,238.093 125.935,238.209 125.428 C 238.326 124.921,238.610 123.818,238.841 122.978 C 239.073 122.138,239.262 121.396,239.262 121.331 C 239.262 121.266,239.855 121.212,240.580 121.212 C 242.344 121.212,242.537 120.328,240.832 120.055 L 239.767 119.885 239.945 118.902 C 240.042 118.361,240.231 117.708,240.363 117.452 C 240.601 116.991,240.457 116.455,240.103 116.484 C 240.003 116.492,239.419 117.068,238.806 117.763 M322.893 117.861 C 322.151 118.625,320.991 119.534,320.317 119.881 C 319.015 120.550,318.865 121.029,319.915 121.159 C 321.292 121.329,321.273 121.014,320.157 125.033 C 320.036 125.468,319.644 126.971,319.285 128.373 C 318.926 129.776,318.549 131.057,318.448 131.221 C 318.151 131.701,318.538 132.767,319.123 133.080 C 320.254 133.685,322.397 132.432,323.680 130.414 C 324.432 129.232,323.814 129.343,322.644 130.600 C 320.737 132.647,320.599 132.076,321.869 127.404 C 322.263 125.955,322.785 123.999,323.029 123.057 L 323.473 121.344 324.780 121.212 C 325.867 121.103,326.087 120.992,326.087 120.553 C 326.087 120.161,325.938 120.047,325.504 120.107 C 324.594 120.233,323.792 119.701,324.077 119.159 C 324.427 118.491,324.718 116.469,324.463 116.471 C 324.342 116.472,323.635 117.097,322.893 117.861 M217.040 117.699 C 216.943 117.795,216.864 119.265,216.864 120.964 C 216.864 124.622,217.134 124.374,213.154 124.374 L 210.277 124.374 210.277 125.428 L 210.277 126.482 213.570 126.482 L 216.864 126.482 216.864 129.776 L 216.864 133.070 217.918 133.070 L 218.972 133.070 218.972 129.784 L 218.972 126.498 222.200 126.424 L 225.428 126.350 225.509 125.371 L 225.591 124.391 222.347 124.317 L 219.104 124.242 219.039 121.476 C 218.952 117.799,218.877 117.523,217.957 117.523 C 217.549 117.523,217.137 117.602,217.040 117.699 M76.294 119.886 C 74.305 120.592,73.123 121.453,74.681 121.062 C 76.060 120.716,76.153 121.066,76.153 126.594 C 76.153 131.770,76.058 132.279,75.096 132.279 C 74.863 132.279,74.442 132.453,74.161 132.666 C 73.704 133.012,74.054 133.053,77.470 133.053 C 80.886 133.053,81.237 133.012,80.780 132.666 C 80.498 132.453,80.073 132.279,79.834 132.279 C 78.957 132.279,78.788 131.108,78.788 125.021 C 78.788 121.766,78.699 119.113,78.590 119.123 C 78.482 119.133,77.448 119.477,76.294 119.886 M85.107 119.680 C 84.313 119.973,83.396 120.273,83.070 120.348 C 82.277 120.529,82.303 121.212,83.103 121.212 C 84.255 121.212,84.338 121.620,84.262 126.912 L 84.190 131.884 83.339 132.279 C 81.921 132.938,82.333 133.070,85.815 133.070 C 87.650 133.070,89.083 133.000,88.998 132.915 C 88.912 132.830,88.448 132.563,87.966 132.322 L 87.088 131.884 87.016 127.214 L 86.944 122.544 88.202 121.621 C 91.333 119.324,92.756 121.123,92.752 127.375 C 92.750 130.956,92.469 131.894,91.226 132.475 L 90.250 132.931 92.029 133.012 C 95.588 133.176,97.501 132.978,96.528 132.548 C 95.278 131.996,95.125 131.369,95.125 126.783 L 95.125 122.628 95.850 121.986 C 97.875 120.191,99.505 120.290,100.529 122.269 C 101.556 124.256,100.935 132.279,99.754 132.279 C 99.562 132.279,99.258 132.457,99.078 132.675 C 98.789 133.022,99.149 133.070,102.076 133.070 C 105.638 133.070,105.913 132.993,104.484 132.396 C 103.351 131.922,103.352 131.931,103.208 126.323 C 103.117 122.816,102.992 121.607,102.645 120.876 C 101.628 118.732,98.624 118.570,96.064 120.522 C 94.949 121.373,94.776 121.378,94.342 120.567 C 93.481 118.959,90.641 118.768,88.431 120.169 C 86.926 121.124,86.957 121.123,86.957 120.174 C 86.957 119.116,86.771 119.067,85.107 119.680 M133.931 119.805 C 132.966 120.010,131.752 121.704,131.752 122.845 C 131.752 123.900,132.035 124.492,133.953 127.451 C 135.443 129.751,135.587 131.008,134.483 132.112 C 132.986 133.609,130.556 132.028,130.120 129.271 C 129.911 127.952,129.465 128.744,129.232 130.847 C 128.992 133.020,129.095 134.008,129.495 133.361 C 129.715 133.006,131.057 132.983,132.210 133.313 C 133.867 133.789,136.391 132.761,137.229 131.270 C 138.212 129.522,137.880 128.323,135.465 124.884 C 134.422 123.398,134.124 122.751,134.124 121.971 C 134.124 119.525,137.719 120.149,138.194 122.677 C 138.539 124.519,139.335 123.031,139.379 120.459 C 139.391 119.717,139.320 119.605,138.933 119.766 C 138.368 120.000,138.350 120.001,136.232 119.823 C 135.290 119.744,134.254 119.736,133.931 119.805 M145.059 119.796 C 144.769 119.853,143.882 120.032,143.087 120.193 L 141.642 120.487 142.560 120.784 C 143.900 121.217,143.890 121.437,142.287 127.141 C 141.076 131.448,141.025 132.533,142.011 133.060 C 142.921 133.547,144.189 133.052,145.516 131.690 C 147.151 130.011,147.234 129.081,145.606 130.679 C 144.004 132.251,143.236 131.959,143.852 130.013 C 143.985 129.593,144.294 128.538,144.538 127.668 C 144.782 126.798,145.074 125.791,145.188 125.428 C 145.301 125.066,145.543 124.236,145.725 123.584 C 145.908 122.931,146.218 121.890,146.415 121.269 C 146.961 119.543,146.866 119.440,145.059 119.796 M153.228 119.930 C 152.648 120.061,151.670 120.240,151.054 120.329 C 149.683 120.526,149.614 120.830,150.888 121.069 L 151.842 121.248 151.697 122.482 C 151.573 123.532,151.135 125.269,149.926 129.513 C 149.802 129.947,149.589 130.718,149.452 131.225 C 149.316 131.733,149.119 132.355,149.014 132.609 C 148.849 133.008,148.984 133.070,150.017 133.070 L 151.209 133.070 151.645 131.686 C 154.295 123.261,160.938 116.969,158.947 124.769 C 158.799 125.349,158.372 127.009,157.998 128.458 C 156.948 132.529,157.083 133.212,158.929 133.164 C 160.030 133.135,162.846 130.811,162.846 129.931 C 162.846 129.411,162.441 129.630,161.429 130.698 C 159.922 132.289,159.114 131.698,159.914 129.591 C 160.974 126.798,162.115 121.788,161.864 121.031 C 161.093 118.709,158.978 119.175,155.893 122.347 C 154.266 124.019,153.608 124.556,153.737 124.103 C 153.840 123.745,154.153 122.716,154.432 121.816 C 155.184 119.397,155.235 119.477,153.228 119.930 M261.265 119.861 C 255.460 121.376,252.178 129.936,256.337 132.711 C 257.344 133.382,260.692 133.360,261.795 132.675 C 262.751 132.080,264.559 130.408,264.559 130.118 C 264.559 129.678,263.834 129.935,263.221 130.592 C 259.301 134.792,255.369 130.466,257.944 124.787 C 259.734 120.840,264.484 118.323,263.951 121.604 C 263.663 123.384,265.279 124.252,266.112 122.763 C 267.203 120.813,264.294 119.071,261.265 119.861 M275.131 119.805 C 271.659 120.553,268.248 125.020,268.248 128.820 C 268.248 135.497,277.475 134.410,280.673 127.357 C 282.915 122.413,280.199 118.714,275.131 119.805 M288.079 119.829 C 287.754 119.885,287.131 120.287,286.695 120.723 C 285.208 122.211,285.561 123.763,288.317 127.851 C 289.586 129.735,289.685 131.060,288.633 132.112 C 287.103 133.642,284.918 132.330,284.336 129.532 C 284.068 128.243,283.619 128.462,283.447 129.964 C 283.359 130.730,283.209 131.798,283.113 132.337 L 282.938 133.316 284.223 133.181 C 284.929 133.106,285.863 133.148,286.298 133.275 C 288.136 133.808,290.750 132.592,291.596 130.809 C 292.203 129.530,291.820 128.323,289.850 125.296 C 287.974 122.414,287.761 121.725,288.515 120.971 C 289.719 119.768,291.924 120.817,292.360 122.800 C 292.702 124.358,293.118 123.722,293.400 121.212 L 293.563 119.763 291.116 119.745 C 289.770 119.735,288.404 119.773,288.079 119.829 M277.554 120.465 C 280.732 122.158,277.495 131.937,273.582 132.462 C 271.557 132.734,270.438 131.358,270.722 128.944 C 271.291 124.106,275.224 119.224,277.554 120.465 M95.784 139.714 C 93.992 140.346,92.977 142.197,92.601 145.520 C 92.507 146.354,92.316 147.036,92.178 147.036 C 91.819 147.036,88.792 144.840,88.030 144.028 C 87.353 143.305,86.685 143.128,86.705 143.676 C 86.712 143.857,87.244 144.539,87.889 145.191 C 89.774 147.099,89.998 147.036,81.423 147.036 C 74.806 147.036,73.781 147.089,73.781 147.431 C 73.781 147.773,74.804 147.826,81.407 147.826 C 85.602 147.826,89.094 147.925,89.169 148.045 C 89.243 148.166,88.717 148.843,87.999 149.551 C 86.773 150.758,86.367 151.515,86.945 151.515 C 87.084 151.515,88.232 150.685,89.497 149.671 C 92.179 147.519,92.744 147.371,92.775 148.814 C 92.898 154.494,99.405 155.342,101.370 149.934 C 101.748 148.894,101.839 143.719,101.483 143.499 C 101.357 143.421,101.186 143.016,101.102 142.598 C 100.653 140.353,98.021 138.925,95.784 139.714 M99.048 141.471 C 100.338 143.817,100.088 151.055,98.668 152.476 C 95.867 155.277,93.145 147.684,95.018 142.292 C 95.909 139.726,97.868 139.327,99.048 141.471 M70.910 143.120 C 70.562 143.560,69.880 144.109,69.395 144.340 C 68.372 144.828,68.287 145.071,69.069 145.275 C 69.668 145.432,69.672 146.052,69.086 148.090 C 67.725 152.820,67.701 153.444,68.871 153.578 C 69.415 153.640,69.844 153.456,70.409 152.919 C 71.387 151.988,71.856 151.198,71.304 151.410 C 71.095 151.490,70.859 151.725,70.780 151.931 C 70.701 152.137,70.393 152.306,70.095 152.306 C 69.529 152.306,69.529 151.862,70.096 150.198 C 70.219 149.835,70.535 148.663,70.799 147.593 C 71.151 146.165,71.418 145.593,71.805 145.441 C 72.095 145.327,72.569 145.146,72.859 145.039 C 73.322 144.868,73.290 144.825,72.596 144.681 C 71.774 144.511,71.675 144.168,72.076 142.885 C 72.349 142.014,71.678 142.150,70.910 143.120 " stroke="none" fill="#0f0f0f" fill-rule="evenodd"></path><path id="path1" d="M0.000 131.752 L 0.000 263.505 200.000 263.505 L 400.000 263.505 400.000 131.752 L 400.000 0.000 200.000 0.000 L 0.000 0.000 0.000 131.752 M248.778 105.450 C 252.032 107.279,251.465 110.558,247.077 115.283 L 245.365 117.128 247.624 117.205 C 249.736 117.276,249.928 117.238,250.582 116.612 C 251.802 115.443,252.052 116.271,251.129 118.423 L 250.612 119.631 246.402 119.631 C 241.009 119.631,241.059 119.700,244.107 116.436 C 247.265 113.055,248.221 111.507,248.221 109.780 C 248.221 107.067,245.267 106.189,243.686 108.432 C 243.226 109.084,242.691 109.618,242.497 109.618 C 242.012 109.618,241.761 108.858,242.126 108.493 C 242.290 108.329,242.425 108.011,242.425 107.787 C 242.428 105.667,246.499 104.170,248.778 105.450 M70.459 112.143 C 70.547 112.372,70.619 116.795,70.619 121.971 C 70.619 131.728,70.650 132.016,71.707 132.016 C 72.265 132.016,73.052 132.758,72.846 133.091 C 72.464 133.709,65.044 133.372,65.133 132.740 C 65.194 132.315,65.423 132.124,65.944 132.064 C 67.355 131.902,67.458 131.270,67.449 122.872 C 67.440 114.535,67.408 114.361,65.913 114.361 C 65.206 114.361,65.086 114.265,65.086 113.702 C 65.086 113.254,65.233 113.041,65.547 113.036 C 65.800 113.031,66.838 112.744,67.852 112.398 C 70.095 111.632,70.257 111.616,70.459 112.143 M315.446 112.055 C 315.506 112.686,315.375 113.183,314.823 114.427 L 314.267 115.679 311.027 115.679 L 307.787 115.679 307.385 116.456 C 306.814 117.560,306.878 117.787,307.761 117.787 C 308.574 117.787,309.232 118.008,311.187 118.940 C 315.698 121.090,316.830 127.134,313.430 130.916 C 309.799 134.954,301.353 134.690,302.927 130.588 C 303.203 129.869,305.163 130.058,306.810 130.962 C 309.486 132.430,311.536 131.394,312.249 128.212 C 313.082 124.494,309.466 120.965,304.809 120.951 C 303.603 120.948,303.479 120.191,304.373 118.297 C 304.677 117.654,305.223 116.476,305.587 115.679 C 305.950 114.881,306.383 113.933,306.549 113.570 C 307.011 112.561,307.150 112.525,310.672 112.512 C 313.145 112.503,314.093 112.403,314.477 112.113 C 315.103 111.639,315.405 111.621,315.446 112.055 M78.466 112.400 C 79.184 112.903,79.268 114.476,78.615 115.197 C 77.723 116.183,75.825 115.640,75.489 114.303 C 75.048 112.547,76.945 111.334,78.466 112.400 M127.457 112.689 C 127.574 112.994,127.254 113.466,126.404 114.247 C 121.914 118.370,120.914 127.061,124.156 133.791 C 124.648 134.811,125.439 135.876,126.242 136.598 C 127.630 137.846,127.747 138.101,127.158 138.589 C 126.650 139.011,125.971 138.633,124.151 136.916 C 118.977 132.034,117.583 124.837,120.614 118.653 C 122.380 115.051,126.864 111.143,127.457 112.689 M180.456 112.415 C 182.743 112.873,184.307 115.226,184.288 118.182 C 184.269 121.205,183.516 122.446,178.454 127.800 L 176.337 130.040 179.934 130.114 L 183.531 130.189 184.361 129.258 C 185.908 127.524,186.336 128.174,185.358 130.772 C 184.311 133.552,184.928 133.333,178.112 133.333 C 170.612 133.333,170.848 133.558,174.353 129.746 C 177.482 126.343,177.786 125.985,179.028 124.242 C 180.974 121.512,181.477 119.371,180.642 117.374 C 179.320 114.209,175.696 114.396,173.781 117.727 C 172.178 120.516,171.290 118.749,172.777 115.727 C 174.118 113.002,177.055 111.735,180.456 112.415 M328.070 112.690 C 333.993 116.664,336.467 125.327,333.514 131.752 C 331.936 135.186,327.635 139.451,326.610 138.600 C 326.045 138.131,326.065 138.091,327.793 136.303 C 329.708 134.322,330.424 132.889,331.121 129.644 C 331.715 126.876,331.498 121.577,330.705 119.499 C 329.784 117.087,329.078 115.913,327.740 114.570 C 325.852 112.676,326.084 111.357,328.070 112.690 M147.504 113.190 C 148.378 113.802,148.339 115.718,147.440 116.307 C 146.337 117.030,145.371 116.744,144.707 115.498 C 143.786 113.769,145.872 112.047,147.504 113.190 M194.024 117.021 C 193.998 117.514,193.896 118.304,193.797 118.775 C 193.625 119.590,193.654 119.631,194.404 119.631 C 195.356 119.631,195.815 120.113,195.610 120.896 C 195.484 121.380,195.272 121.476,194.319 121.476 C 192.952 121.476,193.091 121.273,192.225 124.512 C 191.838 125.958,191.406 127.556,191.264 128.063 C 190.337 131.375,190.440 131.771,191.815 130.191 C 192.811 129.045,193.676 128.842,193.676 129.753 C 193.676 130.408,190.820 133.278,189.849 133.599 C 187.577 134.349,186.853 132.683,187.892 129.095 C 188.203 128.020,188.514 126.845,188.583 126.482 C 188.652 126.120,188.810 125.586,188.933 125.296 C 189.056 125.007,189.217 124.473,189.290 124.111 C 189.363 123.748,189.537 123.007,189.677 122.464 L 189.931 121.476 189.029 121.476 C 187.295 121.476,187.583 120.340,189.560 119.383 C 190.171 119.087,191.305 118.187,192.079 117.384 C 193.637 115.765,194.094 115.680,194.024 117.021 M240.664 117.021 C 240.639 117.514,240.537 118.295,240.440 118.756 C 240.270 119.556,240.302 119.597,241.145 119.678 C 242.744 119.831,242.617 121.476,241.007 121.476 C 239.583 121.476,239.656 121.372,238.832 124.573 C 238.469 125.986,238.055 127.556,237.911 128.063 C 236.940 131.507,236.997 131.774,238.367 130.211 C 239.850 128.520,240.914 128.885,239.683 130.662 C 236.183 135.712,232.971 134.580,234.549 128.854 C 235.130 126.747,235.235 126.361,236.046 123.386 L 236.567 121.476 235.666 121.476 C 233.935 121.476,234.225 120.339,236.200 119.383 C 236.812 119.087,237.945 118.187,238.719 117.384 C 240.278 115.765,240.735 115.680,240.664 117.021 M324.765 117.152 C 324.763 117.718,324.673 118.501,324.567 118.890 C 324.383 119.560,324.427 119.604,325.361 119.681 C 327.102 119.825,326.832 121.296,325.033 121.476 C 323.866 121.592,323.707 121.683,323.639 122.266 C 323.596 122.628,323.457 123.162,323.329 123.452 C 323.201 123.742,323.040 124.275,322.971 124.638 C 322.815 125.462,321.530 130.251,321.315 130.811 C 321.025 131.566,321.662 131.241,322.626 130.142 C 324.391 128.128,325.014 129.299,323.314 131.434 C 320.223 135.317,317.204 134.188,318.529 129.644 C 318.677 129.137,319.091 127.596,319.449 126.219 C 319.808 124.842,320.163 123.538,320.239 123.320 C 320.765 121.818,320.714 121.476,319.965 121.472 C 318.056 121.461,318.190 120.576,320.280 119.396 C 321.097 118.935,322.316 117.967,322.989 117.245 C 324.400 115.732,324.771 115.713,324.765 117.152 M219.236 120.685 L 219.368 123.979 222.661 124.111 L 225.955 124.242 226.039 125.116 C 226.182 126.604,225.862 126.746,222.366 126.746 L 219.236 126.746 219.236 130.053 L 219.236 133.361 217.852 133.281 L 216.469 133.202 216.395 129.974 L 216.321 126.746 213.365 126.742 C 209.896 126.737,209.684 126.650,209.797 125.270 L 209.881 124.242 213.109 124.168 L 216.337 124.094 216.337 120.993 C 216.337 117.462,216.461 117.196,218.049 117.313 L 219.104 117.391 219.236 120.685 M79.051 124.843 C 79.051 131.466,79.126 131.807,80.643 132.110 C 81.240 132.230,81.438 132.400,81.374 132.738 C 81.271 133.274,74.203 133.597,73.695 133.089 C 73.315 132.709,73.981 132.016,74.727 132.016 C 75.768 132.016,75.907 131.299,75.830 126.291 L 75.758 121.607 74.835 121.523 C 73.712 121.420,73.288 121.073,73.737 120.624 C 74.140 120.221,77.655 118.917,78.458 118.873 L 79.051 118.841 79.051 124.843 M87.251 119.895 C 87.341 120.402,87.430 120.687,87.449 120.529 C 87.645 118.903,92.350 118.350,93.996 119.760 L 95.071 120.680 96.598 119.760 C 99.138 118.230,102.091 118.623,103.016 120.613 C 103.228 121.068,103.436 123.255,103.567 126.406 C 103.801 132.042,103.766 131.886,104.869 132.107 C 105.445 132.222,105.665 132.416,105.665 132.807 C 105.665 133.330,105.545 133.346,102.064 133.275 C 98.201 133.196,97.399 132.887,99.154 132.154 C 99.657 131.944,100.142 131.580,100.232 131.345 C 100.498 130.652,100.418 123.151,100.137 122.412 C 99.603 121.007,97.489 120.867,96.110 122.145 L 95.389 122.814 95.415 126.559 C 95.446 130.983,95.558 131.503,96.586 131.991 C 98.725 133.006,97.949 133.362,93.787 133.275 C 90.243 133.201,89.361 132.905,90.711 132.242 C 90.965 132.118,91.380 131.914,91.634 131.790 C 92.041 131.590,92.103 131.046,92.167 127.092 L 92.239 122.620 91.556 121.884 C 90.675 120.933,89.140 121.053,87.981 122.163 L 87.220 122.892 87.220 126.778 C 87.220 131.217,87.382 131.894,88.500 132.139 C 89.337 132.323,89.806 133.004,89.244 133.220 C 89.057 133.291,87.370 133.316,85.493 133.276 C 81.791 133.195,81.198 132.904,83.004 132.051 L 83.926 131.616 83.998 126.910 C 84.075 121.898,83.985 121.476,82.840 121.476 C 82.347 121.476,82.213 121.335,82.213 120.817 C 82.213 120.455,82.366 120.158,82.552 120.158 C 82.739 120.158,83.598 119.870,84.463 119.518 C 86.557 118.664,87.045 118.730,87.251 119.895 M139.804 120.546 C 139.710 121.130,139.563 122.121,139.477 122.750 C 139.242 124.466,137.813 124.515,137.813 122.807 C 137.813 121.438,135.658 120.243,134.777 121.123 C 134.120 121.780,134.449 122.817,136.045 125.122 C 138.588 128.792,138.779 130.273,136.948 132.104 C 135.429 133.623,133.866 134.076,131.693 133.627 C 130.499 133.380,130.041 133.377,129.758 133.612 C 128.723 134.470,128.300 131.213,129.148 128.920 C 129.422 128.180,130.435 128.102,130.435 128.822 C 130.435 131.307,132.999 133.181,134.377 131.703 C 135.256 130.759,135.051 129.803,133.441 127.333 C 129.798 121.745,130.839 119.335,136.852 119.433 L 139.975 119.484 139.804 120.546 M146.959 120.224 C 146.837 121.010,146.336 122.957,145.706 125.099 C 144.149 130.397,143.961 131.225,144.321 131.225 C 144.587 131.225,145.309 130.573,146.072 129.645 C 147.094 128.401,147.571 129.661,146.593 131.022 C 143.068 135.932,140.096 134.230,141.655 128.194 C 142.030 126.745,142.394 125.264,142.466 124.901 C 142.537 124.539,142.696 124.005,142.818 123.715 C 143.462 122.188,143.376 121.468,142.528 121.299 C 139.886 120.770,142.171 119.500,145.945 119.398 L 147.093 119.368 146.959 120.224 M155.247 120.290 C 155.199 120.725,155.051 121.193,154.918 121.331 C 154.786 121.468,154.677 121.922,154.677 122.339 L 154.677 123.097 155.400 122.220 C 157.081 120.182,158.384 119.368,159.963 119.368 C 162.340 119.368,162.803 120.822,161.685 124.769 C 161.439 125.639,160.996 127.240,160.701 128.327 C 160.406 129.414,160.102 130.511,160.025 130.764 C 159.785 131.558,160.472 131.272,161.483 130.158 C 162.994 128.493,163.984 129.246,162.596 131.004 C 159.949 134.356,156.117 134.561,156.894 131.310 C 156.992 130.901,157.191 130.092,157.336 129.513 C 157.481 128.933,157.701 128.043,157.824 127.536 C 157.948 127.029,158.298 125.676,158.603 124.530 C 159.285 121.963,159.288 121.739,158.639 121.739 C 156.924 121.739,153.824 126.317,152.215 131.225 L 151.567 133.202 150.318 133.283 C 149.632 133.328,148.964 133.259,148.835 133.130 C 148.606 132.901,148.822 131.945,150.189 127.141 C 151.791 121.509,151.788 121.535,150.659 121.426 C 148.026 121.173,151.592 119.294,154.414 119.449 C 155.274 119.496,155.330 119.553,155.247 120.290 M265.226 119.683 C 266.438 120.235,267.067 121.850,266.470 122.876 C 265.465 124.604,263.408 123.904,263.543 121.881 L 263.614 120.817 262.464 120.871 C 259.124 121.028,256.032 128.139,258.116 130.871 C 259.228 132.329,260.979 132.112,263.050 130.259 C 263.991 129.419,265.086 129.346,265.086 130.125 C 265.086 130.447,262.640 132.676,261.924 133.007 C 254.696 136.346,251.096 128.016,257.167 122.003 C 259.582 119.611,262.944 118.643,265.226 119.683 M279.890 120.021 C 281.491 121.109,282.375 124.880,281.452 126.683 C 281.323 126.935,280.997 127.591,280.728 128.140 C 277.839 134.028,269.423 135.632,268.015 130.563 C 266.259 124.238,274.860 116.602,279.890 120.021 M293.934 120.420 C 293.832 120.928,293.673 121.936,293.580 122.659 C 293.348 124.482,291.984 124.706,291.966 122.925 C 291.951 121.485,289.851 120.309,288.807 121.155 C 288.101 121.726,288.304 122.329,290.038 124.817 C 290.662 125.712,291.173 126.572,291.173 126.727 C 291.173 126.882,291.272 127.009,291.394 127.009 C 291.676 127.009,292.227 128.824,292.227 129.754 C 292.227 132.452,288.372 134.602,285.394 133.564 C 284.744 133.337,284.398 133.345,283.930 133.595 C 282.693 134.257,282.483 133.023,283.175 129.169 C 283.427 127.768,284.250 128.127,284.869 129.908 C 285.667 132.206,287.308 133.011,288.527 131.703 C 289.394 130.772,289.194 129.862,287.566 127.348 C 283.905 121.692,284.934 119.319,290.999 119.436 L 294.119 119.496 293.934 120.420 M275.889 120.770 C 275.007 121.142,273.224 123.022,272.698 124.135 C 272.296 124.988,272.135 125.365,271.443 127.087 C 269.799 131.174,272.990 133.861,275.711 130.682 C 279.312 126.474,279.442 119.273,275.889 120.770 M99.245 139.636 C 103.691 142.347,102.974 152.625,98.250 153.897 C 95.612 154.607,93.289 152.748,92.378 149.198 L 92.088 148.066 89.775 149.923 C 86.630 152.446,84.808 152.151,87.473 149.550 C 88.968 148.089,88.970 148.090,80.872 148.090 C 74.423 148.090,73.481 148.038,73.343 147.677 C 73.018 146.830,73.707 146.737,80.860 146.668 C 88.942 146.589,88.665 146.653,87.383 145.156 C 85.919 143.446,86.677 141.982,88.167 143.642 C 88.443 143.949,89.440 144.783,90.382 145.495 L 92.095 146.789 92.246 145.134 C 92.670 140.509,96.168 137.760,99.245 139.636 M96.143 140.896 C 94.519 142.800,94.489 150.609,96.099 152.256 C 96.837 153.010,98.373 152.534,98.913 151.384 C 99.746 149.608,99.636 143.360,98.743 141.765 C 97.985 140.411,96.874 140.040,96.143 140.896 M72.285 143.012 C 72.246 143.900,72.342 144.117,72.878 144.361 C 73.890 144.823,73.598 145.614,72.362 145.760 C 71.605 145.850,70.869 147.763,70.201 151.383 L 70.055 152.174 70.677 151.449 C 71.391 150.616,71.937 150.509,71.937 151.204 C 71.937 151.898,70.221 153.797,69.411 154.001 C 68.374 154.261,67.367 153.515,67.534 152.612 C 67.656 151.952,68.801 147.584,69.179 146.333 C 69.318 145.872,69.232 145.744,68.737 145.674 C 67.716 145.529,67.830 144.754,68.956 144.174 C 69.508 143.889,70.371 143.229,70.872 142.707 C 71.985 141.548,72.346 141.626,72.285 143.012 " stroke="none" fill="#fbfbfb" fill-rule="evenodd"></path><path id="path2" d="M245.916 105.064 C 246.314 105.124,246.966 105.124,247.365 105.064 C 247.764 105.003,247.437 104.954,246.640 104.954 C 245.843 104.954,245.517 105.003,245.916 105.064 M244.928 107.116 C 245.530 107.326,247.120 107.384,247.002 107.191 C 246.931 107.077,246.376 106.992,245.768 107.004 C 245.161 107.015,244.783 107.066,244.928 107.116 M250.659 108.959 C 250.662 109.539,250.716 109.745,250.779 109.417 C 250.842 109.089,250.840 108.615,250.774 108.363 C 250.708 108.111,250.656 108.379,250.659 108.959 M241.997 108.683 C 241.721 109.404,242.671 110.022,243.068 109.379 C 243.149 109.248,242.959 109.207,242.646 109.289 C 242.166 109.414,242.101 109.349,242.226 108.869 C 242.393 108.231,242.224 108.093,241.997 108.683 M69.170 111.989 C 68.838 112.132,68.789 112.216,69.038 112.216 C 69.256 112.216,69.671 112.114,69.960 111.989 C 70.293 111.847,70.341 111.763,70.092 111.763 C 69.875 111.763,69.460 111.865,69.170 111.989 M76.746 112.171 C 76.999 112.237,77.414 112.237,77.668 112.171 C 77.922 112.105,77.714 112.051,77.207 112.051 C 76.700 112.051,76.492 112.105,76.746 112.171 M70.475 121.739 C 70.475 127.029,70.510 129.193,70.553 126.548 C 70.596 123.903,70.596 119.575,70.553 116.930 C 70.510 114.285,70.475 116.449,70.475 121.739 M127.178 112.650 C 127.279 112.914,127.054 113.393,126.582 113.916 L 125.823 114.756 126.680 113.982 C 127.551 113.195,127.745 112.676,127.276 112.387 C 127.124 112.293,127.083 112.403,127.178 112.650 M326.369 112.695 C 326.268 112.958,326.384 113.305,326.656 113.551 C 327.072 113.930,327.084 113.929,326.793 113.538 C 326.617 113.303,326.547 112.917,326.638 112.682 C 326.728 112.446,326.743 112.253,326.670 112.253 C 326.598 112.253,326.462 112.452,326.369 112.695 M327.273 112.320 C 327.273 112.374,327.628 112.680,328.063 113.002 C 328.498 113.323,328.854 113.490,328.854 113.372 C 328.854 113.254,328.498 112.947,328.063 112.690 C 327.628 112.433,327.273 112.267,327.273 112.320 M175.428 112.931 C 175.030 113.147,174.704 113.382,174.704 113.454 C 174.704 113.525,175.030 113.419,175.428 113.218 C 175.827 113.017,176.331 112.786,176.548 112.705 C 176.899 112.574,176.899 112.557,176.548 112.548 C 176.331 112.542,175.827 112.714,175.428 112.931 M308.904 112.712 C 309.889 112.763,311.430 112.763,312.330 112.711 C 313.230 112.660,312.424 112.618,310.540 112.619 C 308.656 112.619,307.920 112.661,308.904 112.712 M123.699 114.427 L 122.925 115.283 123.781 114.509 C 124.580 113.788,124.759 113.570,124.555 113.570 C 124.510 113.570,124.125 113.956,123.699 114.427 M173.570 114.427 C 172.855 115.394,172.373 116.226,172.769 115.810 C 173.258 115.297,174.465 113.570,174.335 113.570 C 174.263 113.570,173.918 113.956,173.570 114.427 M329.117 113.653 C 329.117 113.698,329.503 114.084,329.974 114.509 L 330.830 115.283 330.056 114.427 C 329.335 113.629,329.117 113.449,329.117 113.653 M65.862 114.292 C 66.362 114.353,66.931 114.600,67.128 114.843 C 67.442 115.229,67.451 115.210,67.199 114.690 C 66.971 114.219,66.711 114.106,65.933 114.140 L 64.954 114.182 65.862 114.292 M314.212 115.142 C 314.072 115.282,312.596 115.435,310.931 115.481 L 307.905 115.566 311.105 115.622 C 313.742 115.669,314.331 115.609,314.456 115.283 C 314.632 114.824,314.567 114.787,314.212 115.142 M243.486 117.092 L 242.045 118.709 243.684 117.136 C 244.585 116.271,245.323 115.530,245.323 115.489 C 245.323 115.182,244.719 115.708,243.486 117.092 M245.901 116.284 C 244.729 117.494,244.766 117.523,247.462 117.523 C 249.756 117.523,249.905 117.487,250.765 116.733 C 251.260 116.298,251.563 115.942,251.439 115.942 C 251.314 115.942,250.933 116.238,250.593 116.601 C 250.021 117.209,249.792 117.260,247.597 117.260 L 245.219 117.260 246.113 116.337 C 246.605 115.830,246.948 115.415,246.875 115.415 C 246.803 115.415,246.365 115.806,245.901 116.284 M174.525 116.271 C 174.232 116.597,173.897 117.042,173.782 117.260 C 173.559 117.679,173.620 117.622,174.688 116.403 C 175.037 116.005,175.263 115.679,175.191 115.679 C 175.118 115.679,174.819 115.945,174.525 116.271 M121.642 116.798 L 121.168 117.655 121.711 116.996 C 122.193 116.412,122.407 115.942,122.191 115.942 C 122.150 115.942,121.903 116.327,121.642 116.798 M193.149 116.292 C 192.931 116.475,192.280 117.153,191.701 117.798 C 190.745 118.864,190.782 118.845,192.105 117.589 C 193.867 115.915,194.051 115.887,193.860 117.325 C 193.750 118.148,193.780 118.321,193.973 117.977 C 194.581 116.898,193.953 115.616,193.149 116.292 M239.931 116.189 C 239.826 116.359,239.932 116.398,240.211 116.291 C 240.606 116.139,240.642 116.260,240.506 117.282 C 240.393 118.130,240.422 118.318,240.614 117.977 C 241.135 117.050,240.472 115.313,239.931 116.189 M323.435 116.784 L 322.661 117.625 323.540 116.914 C 324.023 116.522,324.546 116.280,324.701 116.376 C 324.867 116.479,324.906 116.426,324.795 116.246 C 324.506 115.779,324.275 115.871,323.435 116.784 M145.627 116.535 C 145.694 116.644,146.032 116.733,146.377 116.733 C 146.722 116.733,147.059 116.644,147.127 116.535 C 147.194 116.426,146.856 116.337,146.377 116.337 C 145.897 116.337,145.560 116.426,145.627 116.535 M184.261 118.050 C 184.261 118.702,184.313 118.969,184.376 118.643 C 184.438 118.317,184.438 117.783,184.376 117.457 C 184.313 117.131,184.261 117.398,184.261 118.050 M238.194 117.984 L 237.286 118.972 238.274 118.064 C 239.194 117.219,239.383 116.996,239.182 116.996 C 239.138 116.996,238.693 117.441,238.194 117.984 M216.653 117.576 C 216.436 117.793,216.354 118.885,216.391 121.067 L 216.444 124.242 216.588 120.949 L 216.733 117.655 217.960 117.655 C 218.635 117.655,219.132 117.566,219.064 117.457 C 218.866 117.139,216.999 117.230,216.653 117.576 M307.532 117.880 C 307.592 117.932,308.057 118.051,308.564 118.144 C 309.213 118.263,309.369 118.236,309.091 118.054 C 308.734 117.820,307.271 117.657,307.532 117.880 M171.871 118.577 C 171.930 118.794,172.265 118.994,172.616 119.021 C 173.119 119.059,173.143 119.039,172.727 118.925 C 172.437 118.845,172.102 118.645,171.983 118.481 C 171.839 118.283,171.801 118.316,171.871 118.577 M181.099 119.368 C 181.099 120.020,181.151 120.287,181.214 119.960 C 181.276 119.634,181.276 119.101,181.214 118.775 C 181.151 118.449,181.099 118.715,181.099 119.368 M250.731 118.821 C 250.536 119.436,242.368 119.697,242.071 119.097 C 241.997 118.949,241.967 118.979,242.005 119.163 C 242.140 119.837,250.502 119.766,250.865 119.088 C 251.029 118.782,251.105 118.474,251.034 118.403 C 250.963 118.332,250.826 118.520,250.731 118.821 M100.659 119.029 C 100.876 119.109,101.291 119.284,101.581 119.418 C 102.100 119.656,102.100 119.654,101.597 119.250 C 101.315 119.025,100.900 118.850,100.674 118.861 C 100.319 118.879,100.317 118.902,100.659 119.029 M87.018 119.895 C 87.018 120.402,87.072 120.609,87.138 120.356 C 87.204 120.102,87.204 119.687,87.138 119.433 C 87.072 119.180,87.018 119.387,87.018 119.895 M193.478 119.368 C 193.544 119.611,193.931 119.777,194.487 119.800 C 195.313 119.834,195.322 119.826,194.599 119.710 C 194.165 119.641,193.711 119.446,193.591 119.278 C 193.443 119.072,193.407 119.101,193.478 119.368 M240.119 119.368 C 240.184 119.611,240.572 119.777,241.127 119.800 C 241.953 119.834,241.963 119.826,241.239 119.710 C 240.805 119.641,240.351 119.446,240.231 119.278 C 240.084 119.072,240.047 119.101,240.119 119.368 M88.142 119.895 C 87.708 120.183,87.470 120.416,87.615 120.414 C 87.879 120.410,89.312 119.383,89.065 119.375 C 88.992 119.373,88.577 119.607,88.142 119.895 M94.068 120.026 C 94.428 120.461,94.792 120.909,94.877 121.021 C 94.962 121.133,95.261 120.957,95.540 120.630 C 95.965 120.132,95.971 120.094,95.577 120.400 C 95.161 120.723,95.007 120.676,94.260 120.001 L 93.414 119.236 94.068 120.026 M132.938 119.895 C 131.908 120.577,132.274 120.578,133.393 119.896 C 133.867 119.606,134.137 119.370,133.992 119.370 C 133.847 119.371,133.373 119.607,132.938 119.895 M137.233 119.710 C 137.905 119.867,138.460 119.878,138.599 119.737 C 138.737 119.596,138.275 119.488,137.466 119.472 L 136.100 119.446 137.233 119.710 M139.562 120.589 C 139.468 121.269,139.443 121.876,139.505 121.938 C 139.567 122.000,139.700 121.501,139.801 120.829 C 139.902 120.157,139.927 119.550,139.858 119.480 C 139.788 119.410,139.655 119.910,139.562 120.589 M143.742 119.631 L 142.688 119.820 143.610 119.839 C 144.117 119.849,144.769 119.756,145.059 119.631 C 145.680 119.364,145.232 119.364,143.742 119.631 M152.701 119.631 C 151.984 119.814,151.971 119.833,152.569 119.845 C 152.931 119.852,153.465 119.756,153.755 119.631 C 154.405 119.352,153.798 119.352,152.701 119.631 M161.390 119.936 C 162.060 120.464,162.105 120.617,162.001 122.047 C 161.940 122.895,161.984 123.439,162.100 123.257 C 162.810 122.138,161.943 119.368,160.883 119.368 C 160.764 119.368,160.992 119.623,161.390 119.936 M264.954 119.815 C 265.389 120.050,265.893 120.431,266.074 120.661 C 266.369 121.035,266.387 121.029,266.240 120.609 C 266.150 120.351,265.740 119.965,265.330 119.753 C 264.311 119.226,263.968 119.283,264.954 119.815 M287.336 119.777 C 286.833 120.181,286.833 120.183,287.352 119.945 C 287.642 119.811,288.057 119.636,288.274 119.556 C 288.615 119.429,288.613 119.406,288.259 119.388 C 288.033 119.377,287.618 119.552,287.336 119.777 M292.095 119.631 L 291.304 119.832 292.013 119.863 C 292.403 119.881,292.796 119.776,292.885 119.631 C 292.975 119.486,293.012 119.382,292.967 119.399 C 292.922 119.416,292.530 119.520,292.095 119.631 M293.640 120.489 C 293.615 121.296,293.665 121.461,293.819 121.080 C 294.096 120.401,294.129 119.367,293.874 119.369 C 293.765 119.370,293.660 119.874,293.640 120.489 M324.273 119.681 C 324.346 119.799,324.813 119.895,325.312 119.895 C 326.103 119.895,326.219 119.978,326.219 120.553 C 326.219 121.157,326.121 121.212,325.048 121.212 C 324.405 121.212,323.822 121.303,323.753 121.415 C 323.684 121.527,324.240 121.556,324.989 121.481 C 326.909 121.288,327.105 119.864,325.246 119.615 C 324.639 119.534,324.201 119.564,324.273 119.681 M102.687 120.550 C 102.928 121.055,103.172 121.422,103.229 121.365 C 103.349 121.245,102.549 119.631,102.369 119.631 C 102.303 119.631,102.446 120.045,102.687 120.550 M188.283 120.148 C 187.607 120.895,187.942 121.476,189.048 121.476 C 189.807 121.476,189.944 121.557,189.822 121.937 C 189.701 122.313,189.724 122.327,189.945 122.015 C 190.342 121.454,190.072 121.212,189.049 121.212 C 187.981 121.212,187.832 120.669,188.728 120.041 C 189.050 119.816,189.187 119.631,189.032 119.631 C 188.878 119.631,188.540 119.864,188.283 120.148 M234.923 120.148 C 234.216 120.929,234.579 121.484,235.762 121.431 L 236.759 121.387 235.771 121.284 C 234.637 121.165,234.476 120.666,235.368 120.041 C 235.690 119.816,235.827 119.631,235.673 119.631 C 235.518 119.631,235.181 119.864,234.923 120.148 M141.602 120.277 C 141.387 120.837,141.653 121.124,142.557 121.305 C 143.268 121.447,143.343 121.548,143.215 122.195 C 143.072 122.922,143.072 122.922,143.354 122.272 C 143.668 121.549,143.164 120.949,142.242 120.949 C 141.704 120.949,141.590 120.273,142.095 120.069 C 142.353 119.965,142.351 119.932,142.087 119.915 C 141.901 119.904,141.683 120.067,141.602 120.277 M149.759 120.571 C 149.539 121.145,150.018 121.543,150.760 121.402 C 151.332 121.294,151.324 121.281,150.659 121.248 C 149.915 121.211,149.644 120.583,150.264 120.333 C 150.521 120.229,150.520 120.195,150.255 120.179 C 150.070 120.167,149.846 120.344,149.759 120.571 M156.785 120.757 C 156.423 121.086,155.832 121.709,155.473 122.140 C 155.113 122.572,155.439 122.336,156.197 121.617 C 156.956 120.898,157.576 120.276,157.576 120.234 C 157.576 120.076,157.425 120.176,156.785 120.757 M286.048 120.832 C 285.805 121.203,285.659 121.707,285.724 121.952 C 285.829 122.350,285.845 122.347,285.872 121.927 C 285.889 121.669,286.094 121.165,286.328 120.808 C 286.562 120.450,286.694 120.158,286.622 120.158 C 286.549 120.158,286.291 120.462,286.048 120.832 M134.655 120.945 C 134.078 121.522,133.985 122.173,134.391 122.793 C 134.577 123.077,134.606 122.960,134.494 122.375 C 134.180 120.732,135.744 120.280,137.286 121.569 L 137.945 122.120 137.286 121.434 C 136.357 120.467,135.324 120.275,134.655 120.945 M261.962 120.656 C 261.731 120.802,261.964 120.870,262.621 120.849 C 263.495 120.821,263.626 120.890,263.559 121.344 C 263.498 121.767,263.534 121.795,263.742 121.484 C 264.271 120.696,262.904 120.059,261.962 120.656 M288.764 120.970 L 288.142 121.518 288.784 121.109 C 289.138 120.883,289.728 120.757,290.101 120.828 C 290.684 120.939,290.705 120.922,290.250 120.708 C 289.501 120.353,289.455 120.362,288.764 120.970 M333.897 120.685 C 333.897 120.903,333.999 121.318,334.124 121.607 C 334.267 121.940,334.350 121.988,334.350 121.739 C 334.350 121.522,334.248 121.107,334.124 120.817 C 333.981 120.485,333.897 120.436,333.897 120.685 M73.625 121.008 C 73.662 121.193,74.180 121.410,74.775 121.491 C 75.371 121.572,75.799 121.543,75.727 121.425 C 75.654 121.308,75.197 121.212,74.710 121.212 C 74.223 121.212,73.765 121.091,73.691 120.942 C 73.618 120.793,73.588 120.823,73.625 121.008 M122.413 121.622 C 122.313 122.151,122.285 122.636,122.349 122.701 C 122.414 122.765,122.548 122.385,122.647 121.856 C 122.746 121.327,122.774 120.842,122.710 120.778 C 122.646 120.713,122.512 121.093,122.413 121.622 M97.233 121.209 C 96.960 121.383,97.132 121.414,97.790 121.308 C 98.900 121.130,99.800 121.530,100.130 122.349 C 100.300 122.772,100.366 122.808,100.379 122.483 C 100.418 121.442,98.247 120.562,97.233 121.209 M192.938 121.528 C 192.764 121.702,192.630 122.028,192.640 122.253 C 192.653 122.535,192.722 122.498,192.863 122.134 C 193.015 121.743,193.399 121.567,194.360 121.451 L 195.652 121.295 194.453 121.254 C 193.794 121.231,193.112 121.354,192.938 121.528 M239.578 121.528 C 239.404 121.702,239.262 121.962,239.262 122.106 C 239.262 122.249,239.410 122.172,239.592 121.934 C 239.785 121.679,240.411 121.460,241.107 121.402 L 242.292 121.304 241.094 121.258 C 240.434 121.233,239.752 121.354,239.578 121.528 M256.773 122.332 L 255.731 123.452 256.851 122.410 C 257.467 121.837,257.971 121.333,257.971 121.290 C 257.971 121.091,257.742 121.291,256.773 122.332 M259.931 122.069 L 259.157 122.925 260.013 122.151 C 260.484 121.725,260.870 121.340,260.870 121.295 C 260.870 121.091,260.652 121.270,259.931 122.069 M266.491 122.003 C 266.491 122.622,266.550 122.728,266.724 122.418 C 266.858 122.178,266.858 121.827,266.724 121.587 C 266.550 121.277,266.491 121.383,266.491 122.003 M274.025 121.937 L 273.386 122.661 274.177 122.003 C 274.611 121.640,275.016 121.314,275.077 121.278 C 275.137 121.242,275.069 121.212,274.925 121.212 C 274.781 121.212,274.376 121.538,274.025 121.937 M319.830 121.403 C 320.601 121.499,320.673 121.580,320.548 122.217 C 320.414 122.899,320.419 122.903,320.680 122.308 C 321.043 121.478,320.818 121.204,319.813 121.254 L 318.972 121.296 319.830 121.403 M157.093 122.464 C 156.549 123.007,156.464 123.132,156.905 122.742 C 157.347 122.351,158.004 121.914,158.366 121.770 C 158.843 121.581,158.895 121.504,158.554 121.492 C 158.294 121.483,157.637 121.920,157.093 122.464 M75.998 126.482 C 75.998 129.018,76.037 130.056,76.086 128.788 C 76.134 127.520,76.134 125.445,76.086 124.177 C 76.037 122.908,75.998 123.946,75.998 126.482 M278.603 123.320 C 278.603 124.117,278.653 124.443,278.713 124.045 C 278.773 123.646,278.773 122.994,278.713 122.596 C 278.653 122.197,278.603 122.523,278.603 123.320 M146.008 123.215 C 145.856 123.764,145.780 124.260,145.838 124.318 C 145.896 124.376,146.067 123.974,146.219 123.426 C 146.370 122.877,146.447 122.380,146.389 122.322 C 146.331 122.264,146.159 122.666,146.008 123.215 M154.380 122.464 C 154.197 123.538,154.244 123.834,154.554 123.576 C 154.737 123.425,154.825 123.068,154.751 122.783 C 154.613 122.256,154.441 122.108,154.380 122.464 M182.344 123.123 C 181.956 123.652,181.893 123.837,182.177 123.605 C 182.610 123.254,183.263 122.266,183.063 122.266 C 183.012 122.266,182.689 122.652,182.344 123.123 M309.644 122.332 C 309.707 122.368,310.290 122.872,310.939 123.452 L 312.121 124.506 311.080 123.386 C 310.507 122.770,309.924 122.266,309.784 122.266 C 309.644 122.266,309.581 122.296,309.644 122.332 M84.165 126.614 C 84.165 128.933,84.205 129.846,84.254 128.644 C 84.303 127.441,84.303 125.544,84.254 124.428 C 84.204 123.311,84.164 124.295,84.165 126.614 M95.301 122.705 C 95.072 122.935,95.108 130.166,95.341 130.756 C 95.440 131.006,95.520 129.257,95.520 126.870 C 95.520 124.483,95.511 122.530,95.498 122.530 C 95.486 122.530,95.397 122.609,95.301 122.705 M103.330 125.955 C 103.327 127.912,103.415 129.987,103.526 130.567 C 103.638 131.151,103.680 129.685,103.622 127.273 C 103.491 121.892,103.337 121.199,103.330 125.955 M137.843 122.959 C 137.827 123.267,138.020 123.682,138.274 123.881 C 138.675 124.195,138.696 124.191,138.434 123.847 C 138.269 123.630,138.075 123.215,138.004 122.925 C 137.881 122.424,137.873 122.426,137.843 122.959 M119.062 124.308 C 119.013 125.142,119.040 126.298,119.123 126.877 C 119.219 127.550,119.289 127.001,119.316 125.362 C 119.361 122.552,119.204 121.897,119.062 124.308 M263.875 123.254 C 264.479 123.967,265.669 124.036,266.161 123.386 C 266.457 122.994,266.454 122.974,266.140 123.254 C 265.614 123.724,264.561 123.661,263.921 123.123 C 263.373 122.662,263.373 122.662,263.875 123.254 M291.984 123.057 C 291.950 124.101,293.355 124.536,293.448 123.510 C 293.478 123.182,293.454 123.163,293.366 123.447 C 293.181 124.045,292.506 123.930,292.235 123.254 C 292.102 122.923,291.991 122.836,291.984 123.057 M334.586 124.769 C 334.662 125.929,334.767 126.927,334.819 126.987 C 334.995 127.190,334.854 124.251,334.650 123.452 C 334.535 123.003,334.508 123.573,334.586 124.769 M100.501 127.009 C 100.501 129.256,100.542 130.175,100.591 129.051 C 100.641 127.928,100.641 126.090,100.591 124.967 C 100.542 123.844,100.501 124.763,100.501 127.009 M238.899 123.462 C 238.809 123.698,238.745 124.088,238.758 124.330 C 238.770 124.572,238.885 124.420,239.013 123.992 C 239.261 123.160,239.173 122.749,238.899 123.462 M315.058 124.111 C 315.267 125.247,315.416 125.461,315.411 124.616 C 315.409 124.265,315.290 123.801,315.148 123.584 C 314.966 123.306,314.939 123.462,315.058 124.111 M320.059 123.726 C 319.969 123.961,319.905 124.352,319.917 124.593 C 319.930 124.835,320.044 124.683,320.172 124.256 C 320.420 123.424,320.333 123.012,320.059 123.726 M92.329 127.141 C 92.329 129.025,92.371 129.761,92.422 128.777 C 92.473 127.793,92.473 126.251,92.421 125.351 C 92.370 124.452,92.329 125.257,92.329 127.141 M158.660 124.155 C 158.644 124.397,158.562 124.812,158.478 125.077 C 158.334 125.535,158.342 125.535,158.628 125.091 C 158.793 124.832,158.875 124.417,158.810 124.168 C 158.703 123.760,158.688 123.759,158.660 124.155 M180.879 124.967 L 180.105 125.823 180.962 125.050 C 181.433 124.624,181.818 124.238,181.818 124.193 C 181.818 123.990,181.601 124.169,180.879 124.967 M209.855 124.481 C 209.776 124.684,209.754 125.248,209.805 125.732 C 209.885 126.505,209.912 126.460,210.023 125.362 C 210.152 124.079,210.104 123.830,209.855 124.481 M225.692 125.255 L 225.692 126.350 222.530 126.495 L 219.368 126.640 222.411 126.693 C 224.491 126.729,225.555 126.646,225.771 126.430 C 226.117 126.083,226.206 124.479,225.889 124.283 C 225.781 124.215,225.692 124.653,225.692 125.255 M289.517 124.440 C 289.635 124.621,290.012 125.219,290.353 125.769 C 290.695 126.318,291.032 126.711,291.101 126.641 C 291.224 126.519,289.606 124.111,289.402 124.111 C 289.347 124.111,289.399 124.259,289.517 124.440 M145.485 124.946 C 145.468 125.187,145.386 125.602,145.303 125.868 C 145.159 126.325,145.167 126.326,145.452 125.881 C 145.618 125.623,145.700 125.208,145.635 124.959 C 145.527 124.551,145.513 124.549,145.485 124.946 M312.222 125.749 C 312.343 126.481,312.380 126.518,312.463 125.991 C 312.517 125.648,312.452 125.259,312.320 125.126 C 312.174 124.980,312.135 125.226,312.222 125.749 M238.239 126.000 C 238.222 126.241,238.140 126.656,238.057 126.922 C 237.913 127.379,237.921 127.380,238.206 126.935 C 238.372 126.677,238.454 126.262,238.388 126.013 C 238.281 125.605,238.266 125.604,238.239 126.000 M319.398 126.263 C 319.381 126.505,319.299 126.920,319.216 127.185 C 319.072 127.643,319.080 127.643,319.365 127.199 C 319.531 126.940,319.613 126.525,319.548 126.276 C 319.441 125.868,319.426 125.867,319.398 126.263 M315.187 126.658 C 315.168 126.973,315.083 127.447,315.000 127.712 C 314.856 128.169,314.864 128.170,315.149 127.726 C 315.314 127.468,315.399 126.994,315.336 126.672 C 315.223 126.088,315.223 126.088,315.187 126.658 M213.298 126.675 L 216.321 126.762 216.395 129.960 C 216.455 132.536,216.546 133.179,216.864 133.266 C 217.148 133.343,217.169 133.309,216.939 133.146 C 216.726 132.994,216.594 131.864,216.544 129.766 L 216.469 126.614 213.372 126.601 L 210.276 126.588 213.298 126.675 M267.887 127.075 C 267.686 127.824,267.719 129.583,267.949 130.402 C 268.045 130.747,268.123 130.006,268.120 128.756 C 268.116 126.246,268.113 126.230,267.887 127.075 M234.947 127.151 C 234.857 127.387,234.793 127.777,234.805 128.019 C 234.818 128.261,234.932 128.109,235.060 127.681 C 235.308 126.850,235.221 126.438,234.947 127.151 M287.621 127.422 C 287.866 127.866,288.301 128.518,288.588 128.871 L 289.109 129.513 288.663 128.705 C 288.418 128.260,287.983 127.608,287.697 127.255 L 287.176 126.614 287.621 127.422 M122.292 127.953 C 122.307 128.376,122.419 129.018,122.543 129.381 C 122.694 129.825,122.717 129.611,122.614 128.722 C 122.443 127.240,122.252 126.785,122.292 127.953 M175.743 128.261 L 174.835 129.249 175.823 128.341 C 176.743 127.496,176.933 127.273,176.732 127.273 C 176.687 127.273,176.243 127.717,175.743 128.261 M177.395 128.664 C 175.575 130.508,175.485 130.443,179.776 130.377 L 183.531 130.319 179.859 130.237 L 176.186 130.156 177.610 128.714 C 178.393 127.921,178.974 127.273,178.902 127.273 C 178.829 127.273,178.151 127.899,177.395 128.664 M254.085 128.458 C 254.088 129.038,254.142 129.244,254.205 128.917 C 254.268 128.589,254.265 128.114,254.199 127.863 C 254.134 127.611,254.082 127.879,254.085 128.458 M312.289 127.976 C 312.269 128.290,312.185 128.764,312.101 129.030 C 311.958 129.487,311.966 129.488,312.250 129.044 C 312.416 128.786,312.500 128.312,312.438 127.990 C 312.325 127.405,312.325 127.405,312.289 127.976 M137.710 128.458 C 137.927 129.427,138.078 129.638,138.072 128.964 C 138.070 128.686,137.948 128.281,137.801 128.063 C 137.606 127.775,137.581 127.881,137.710 128.458 M129.099 129.034 C 128.951 129.423,128.865 129.978,128.908 130.268 C 128.952 130.566,129.108 130.258,129.267 129.561 C 129.580 128.186,129.507 127.959,129.099 129.034 M185.321 128.618 C 185.643 128.805,185.744 129.076,185.638 129.466 C 185.498 129.982,185.512 129.992,185.780 129.562 C 186.161 128.953,185.924 128.324,185.318 128.335 C 184.870 128.342,184.870 128.355,185.321 128.618 M279.841 129.183 C 279.453 129.713,279.390 129.897,279.674 129.666 C 280.106 129.315,280.760 128.327,280.559 128.327 C 280.509 128.327,280.186 128.712,279.841 129.183 M270.949 129.513 C 270.952 130.092,271.006 130.298,271.069 129.971 C 271.132 129.643,271.130 129.168,271.064 128.917 C 270.998 128.665,270.946 128.933,270.949 129.513 M292.035 129.644 C 292.035 130.296,292.086 130.563,292.149 130.237 C 292.212 129.911,292.212 129.377,292.149 129.051 C 292.086 128.725,292.035 128.992,292.035 129.644 M331.108 129.527 C 331.009 130.056,330.981 130.541,331.045 130.606 C 331.109 130.670,331.243 130.290,331.342 129.761 C 331.442 129.233,331.470 128.747,331.406 128.683 C 331.341 128.618,331.207 128.998,331.108 129.527 M119.528 129.513 C 119.745 130.481,119.896 130.692,119.891 130.018 C 119.888 129.740,119.766 129.335,119.619 129.117 C 119.424 128.829,119.399 128.935,119.528 129.513 M160.241 129.162 C 160.225 129.403,160.143 129.818,160.059 130.084 C 159.915 130.541,159.923 130.542,160.209 130.097 C 160.374 129.839,160.456 129.424,160.391 129.175 C 160.284 128.767,160.269 128.766,160.241 129.162 M192.347 129.567 C 192.041 129.971,192.042 129.991,192.358 129.710 C 193.529 128.666,193.704 129.675,192.599 131.099 L 191.786 132.148 192.740 131.105 C 193.264 130.532,193.659 129.881,193.616 129.659 C 193.503 129.072,192.763 129.018,192.347 129.567 M238.724 129.833 L 238.076 130.567 238.752 129.974 C 239.899 128.967,240.407 129.236,239.636 130.442 L 239.220 131.094 239.777 130.461 C 240.083 130.113,240.290 129.698,240.237 129.539 C 240.050 128.975,239.362 129.109,238.724 129.833 M334.011 129.795 C 333.914 130.181,333.886 130.548,333.948 130.610 C 334.010 130.672,334.140 130.407,334.237 130.021 C 334.334 129.635,334.362 129.268,334.300 129.206 C 334.238 129.144,334.108 129.409,334.011 129.795 M234.286 129.689 C 234.269 129.930,234.187 130.345,234.104 130.611 C 233.960 131.068,233.968 131.069,234.253 130.624 C 234.419 130.366,234.501 129.951,234.436 129.702 C 234.329 129.294,234.314 129.293,234.286 129.689 M263.159 130.237 C 262.339 131.050,262.336 131.060,263.097 130.437 C 263.539 130.076,264.013 129.690,264.150 129.580 C 264.288 129.471,264.316 129.381,264.212 129.381 C 264.109 129.381,263.635 129.766,263.159 130.237 M149.308 130.050 C 149.218 130.285,149.154 130.676,149.166 130.917 C 149.179 131.159,149.293 131.007,149.421 130.580 C 149.669 129.748,149.582 129.337,149.308 130.050 M187.502 130.322 C 187.405 130.708,187.377 131.075,187.439 131.137 C 187.501 131.199,187.631 130.934,187.728 130.548 C 187.825 130.162,187.854 129.795,187.792 129.733 C 187.729 129.671,187.599 129.936,187.502 130.322 M264.685 129.928 C 264.791 130.205,264.407 130.751,263.526 131.575 C 262.802 132.252,262.298 132.806,262.406 132.806 C 262.986 132.806,265.179 130.160,264.861 129.844 C 264.593 129.577,264.558 129.594,264.685 129.928 M275.791 130.593 C 275.375 131.114,274.664 131.703,274.210 131.900 C 273.740 132.104,273.580 132.263,273.838 132.269 C 274.342 132.281,276.029 130.895,276.436 130.135 C 276.830 129.398,276.632 129.538,275.791 130.593 M284.729 130.237 C 284.827 130.563,285.016 130.946,285.149 131.088 C 285.281 131.229,285.256 130.962,285.093 130.495 C 284.760 129.537,284.451 129.320,284.729 130.237 M322.289 130.535 L 321.653 131.357 322.407 130.640 C 322.821 130.246,323.107 129.876,323.043 129.819 C 322.978 129.761,322.639 130.083,322.289 130.535 M173.123 131.094 C 172.482 131.746,172.018 132.279,172.091 132.279 C 172.163 132.279,172.746 131.746,173.386 131.094 C 174.026 130.441,174.490 129.908,174.418 129.908 C 174.346 129.908,173.763 130.441,173.123 131.094 M190.421 130.496 C 190.337 130.820,190.353 131.169,190.457 131.273 C 190.561 131.376,190.670 131.111,190.701 130.684 C 190.766 129.763,190.636 129.675,190.421 130.496 M237.014 130.461 C 236.917 130.766,236.939 131.115,237.062 131.238 C 237.185 131.360,237.299 131.111,237.314 130.684 C 237.347 129.768,237.256 129.700,237.014 130.461 M323.583 130.764 C 323.195 131.294,323.131 131.478,323.416 131.247 C 323.848 130.896,324.501 129.908,324.301 129.908 C 324.251 129.908,323.928 130.293,323.583 130.764 M257.684 130.654 C 257.826 130.920,258.149 131.305,258.402 131.510 C 258.687 131.742,258.623 131.558,258.235 131.028 C 257.543 130.082,257.284 129.906,257.684 130.654 M312.899 131.291 L 311.858 132.411 312.978 131.369 C 314.019 130.401,314.219 130.171,314.019 130.171 C 313.976 130.171,313.472 130.675,312.899 131.291 M318.210 130.588 C 317.854 131.515,318.053 132.728,318.643 133.227 L 319.236 133.729 318.740 133.142 C 318.357 132.689,318.274 132.284,318.378 131.364 C 318.519 130.108,318.474 129.899,318.210 130.588 M141.047 131.489 C 141.047 132.141,141.098 132.408,141.161 132.082 C 141.224 131.756,141.224 131.222,141.161 130.896 C 141.098 130.570,141.047 130.837,141.047 131.489 M143.904 130.749 C 143.862 131.360,144.384 131.630,144.757 131.191 C 144.925 130.992,144.950 130.919,144.811 131.028 C 144.412 131.340,144.185 131.261,144.055 130.764 C 143.947 130.348,143.932 130.347,143.904 130.749 M156.945 130.852 C 156.723 131.431,156.745 132.487,156.983 132.633 C 157.092 132.699,157.184 132.232,157.187 131.594 C 157.195 130.309,157.176 130.250,156.945 130.852 M184.966 131.130 C 184.821 131.513,184.751 131.874,184.811 131.934 C 184.870 131.994,185.045 131.681,185.200 131.239 C 185.542 130.256,185.335 130.159,184.966 131.130 M310.416 131.106 C 309.913 131.462,309.616 131.752,309.757 131.751 C 309.898 131.750,310.369 131.458,310.804 131.102 C 311.819 130.270,311.597 130.272,310.416 131.106 M79.051 131.126 C 79.051 131.536,79.946 132.279,80.440 132.279 C 81.032 132.279,81.301 132.813,80.864 133.119 C 80.565 133.328,80.571 133.354,80.896 133.266 C 81.677 133.053,81.509 132.283,80.643 132.110 C 80.192 132.020,79.649 131.698,79.437 131.395 C 79.225 131.092,79.051 130.971,79.051 131.126 M271.146 131.126 C 271.146 131.574,272.136 132.347,272.514 132.195 C 272.745 132.103,272.711 132.051,272.413 132.037 C 272.167 132.025,271.782 131.752,271.556 131.430 C 271.331 131.108,271.146 130.971,271.146 131.126 M100.132 131.453 C 100.132 131.627,99.865 131.877,99.539 132.008 C 99.138 132.169,99.085 132.251,99.375 132.263 C 99.862 132.282,100.558 131.564,100.301 131.307 C 100.208 131.214,100.132 131.280,100.132 131.453 M134.317 131.752 C 134.069 132.042,133.538 132.289,133.138 132.300 C 132.738 132.312,132.564 132.382,132.752 132.458 C 133.324 132.687,134.356 132.303,134.653 131.749 C 135.010 131.082,134.890 131.083,134.317 131.752 M238.021 132.286 C 237.410 132.862,237.001 133.333,237.111 133.333 C 237.221 133.333,237.774 132.859,238.340 132.279 C 239.664 130.923,239.460 130.927,238.021 132.286 M268.488 131.708 C 268.630 131.974,268.953 132.359,269.206 132.564 C 269.491 132.796,269.427 132.612,269.039 132.082 C 268.347 131.136,268.087 130.961,268.488 131.708 M70.849 131.818 C 71.048 132.072,71.463 132.266,71.771 132.249 C 72.304 132.220,72.306 132.212,71.805 132.089 C 71.515 132.017,71.100 131.824,70.883 131.658 C 70.539 131.396,70.535 131.417,70.849 131.818 M91.831 131.752 C 91.742 131.897,91.453 132.016,91.189 132.016 C 90.528 132.016,89.949 132.742,90.316 133.109 C 90.514 133.307,90.584 133.246,90.555 132.900 C 90.528 132.582,90.714 132.383,91.088 132.329 C 91.583 132.259,92.549 131.489,92.143 131.489 C 92.061 131.489,91.921 131.607,91.831 131.752 M282.786 132.485 C 282.735 133.753,283.298 134.246,283.948 133.502 C 284.154 133.265,284.181 133.190,284.006 133.334 C 283.369 133.862,283.034 133.594,282.933 132.477 L 282.833 131.357 282.786 132.485 M285.985 132.082 C 286.262 132.335,286.801 132.531,287.183 132.516 C 287.821 132.491,287.808 132.472,287.024 132.286 C 286.554 132.174,286.015 131.979,285.826 131.852 C 285.637 131.725,285.709 131.828,285.985 132.082 M302.784 132.041 C 302.766 132.483,303.559 133.339,303.973 133.325 C 304.107 133.321,304.001 133.192,303.738 133.039 C 303.475 132.886,303.157 132.505,303.030 132.191 C 302.875 131.805,302.795 131.756,302.784 132.041 M89.065 132.675 C 89.327 132.991,89.325 133.070,89.053 133.070 C 88.866 133.070,88.784 133.141,88.871 133.228 C 88.958 133.315,89.151 133.311,89.299 133.220 C 89.620 133.021,89.387 132.279,89.004 132.279 C 88.850 132.279,88.875 132.447,89.065 132.675 M160.511 132.829 C 160.169 133.106,159.991 133.330,160.116 133.325 C 160.437 133.313,161.381 132.571,161.246 132.436 C 161.184 132.375,160.853 132.552,160.511 132.829 M190.541 132.961 C 190.048 133.311,189.775 133.597,189.933 133.597 C 190.091 133.597,190.554 133.304,190.960 132.946 C 191.891 132.127,191.705 132.133,190.541 132.961 M128.626 133.012 C 128.586 133.684,129.263 134.084,129.700 133.647 C 129.903 133.444,129.828 133.403,129.440 133.505 C 129.024 133.614,128.870 133.503,128.780 133.029 L 128.662 132.411 128.626 133.012 M233.992 132.800 C 233.992 133.186,235.243 133.930,235.631 133.774 C 235.842 133.689,235.796 133.631,235.507 133.618 C 235.254 133.606,234.809 133.360,234.519 133.070 C 234.229 132.780,233.992 132.659,233.992 132.800 M132.477 133.783 C 132.803 133.846,133.337 133.846,133.663 133.783 C 133.989 133.720,133.722 133.669,133.070 133.669 C 132.418 133.669,132.151 133.720,132.477 133.783 M286.499 133.786 C 286.900 133.846,287.492 133.845,287.817 133.782 C 288.141 133.720,287.813 133.670,287.088 133.672 C 286.364 133.674,286.098 133.725,286.499 133.786 M306.126 133.783 C 306.453 133.846,306.986 133.846,307.312 133.783 C 307.638 133.720,307.372 133.669,306.719 133.669 C 306.067 133.669,305.800 133.720,306.126 133.783 M328.213 135.906 C 327.435 136.810,327.259 137.100,327.776 136.627 C 328.557 135.911,329.802 134.383,329.596 134.391 C 329.550 134.393,328.928 135.074,328.213 135.906 M125.165 135.787 C 125.165 135.833,125.550 136.218,126.021 136.644 L 126.877 137.418 126.104 136.561 C 125.382 135.763,125.165 135.584,125.165 135.787 M328.155 137.866 C 326.991 138.718,326.362 138.661,326.616 137.725 C 326.758 137.200,326.746 137.194,326.466 137.643 C 325.552 139.110,327.879 138.910,329.120 137.414 C 329.571 136.871,329.414 136.944,328.155 137.866 M127.179 137.745 C 127.361 138.442,126.911 138.703,126.158 138.338 C 125.582 138.058,125.579 138.062,126.076 138.461 C 126.877 139.102,128.056 138.228,127.347 137.519 C 127.111 137.283,127.072 137.336,127.179 137.745 M96.509 139.319 C 96.907 139.380,97.559 139.380,97.958 139.319 C 98.356 139.259,98.030 139.209,97.233 139.209 C 96.436 139.209,96.110 139.259,96.509 139.319 M98.946 139.561 C 99.091 139.689,99.624 140.148,100.131 140.582 L 101.052 141.370 100.394 140.621 C 100.033 140.210,99.499 139.750,99.209 139.601 C 98.920 139.452,98.801 139.434,98.946 139.561 M70.872 142.750 L 69.960 143.742 70.895 142.885 C 72.128 141.756,72.294 141.802,72.082 143.215 C 71.927 144.250,71.965 144.400,72.382 144.396 C 72.683 144.394,72.748 144.321,72.559 144.199 C 72.393 144.092,72.275 143.543,72.295 142.979 C 72.344 141.614,71.972 141.554,70.872 142.750 M87.484 143.165 C 87.484 143.211,87.869 143.596,88.340 144.022 L 89.196 144.796 88.422 143.939 C 87.701 143.141,87.484 142.962,87.484 143.165 M92.395 143.665 C 92.307 143.997,92.244 144.506,92.257 144.796 C 92.269 145.086,92.388 144.860,92.521 144.295 C 92.778 143.200,92.668 142.648,92.395 143.665 M99.356 144.422 C 99.365 144.918,99.476 145.797,99.604 146.377 C 99.782 147.187,99.801 147.004,99.688 145.586 C 99.530 143.623,99.331 142.923,99.356 144.422 M68.387 144.494 C 67.758 144.954,68.009 145.611,68.877 145.777 C 69.247 145.848,69.487 145.804,69.410 145.680 C 69.333 145.556,69.040 145.455,68.759 145.455 C 68.123 145.455,68.097 144.968,68.709 144.504 C 69.317 144.042,69.018 144.033,68.387 144.494 M94.692 146.640 C 94.691 147.945,94.735 148.511,94.791 147.900 C 94.846 147.288,94.847 146.221,94.792 145.528 C 94.738 144.836,94.692 145.336,94.692 146.640 M87.550 145.337 C 88.399 146.281,88.430 146.429,87.813 146.590 C 87.529 146.665,87.631 146.723,88.076 146.742 C 89.043 146.782,88.991 146.523,87.813 145.440 C 86.960 144.655,86.924 144.641,87.550 145.337 M102.037 145.718 C 102.037 146.225,102.092 146.433,102.158 146.179 C 102.224 145.926,102.224 145.511,102.158 145.257 C 102.092 145.003,102.037 145.211,102.037 145.718 M71.576 145.663 C 71.505 145.778,71.853 145.824,72.350 145.766 C 72.848 145.708,73.254 145.614,73.254 145.557 C 73.254 145.359,71.703 145.457,71.576 145.663 M68.939 146.914 C 68.849 147.150,68.785 147.540,68.797 147.782 C 68.810 148.024,68.924 147.872,69.052 147.444 C 69.301 146.612,69.213 146.201,68.939 146.914 M74.901 146.690 C 75.155 146.756,75.570 146.756,75.823 146.690 C 76.077 146.624,75.870 146.570,75.362 146.570 C 74.855 146.570,74.648 146.624,74.901 146.690 M84.250 146.699 C 84.718 146.757,85.548 146.758,86.094 146.701 C 86.641 146.644,86.258 146.596,85.244 146.595 C 84.229 146.594,83.782 146.641,84.250 146.699 M102.037 147.563 C 102.037 148.070,102.092 148.277,102.158 148.024 C 102.224 147.770,102.224 147.355,102.158 147.101 C 102.092 146.848,102.037 147.055,102.037 147.563 M99.413 148.617 C 99.413 149.269,99.464 149.536,99.527 149.209 C 99.590 148.883,99.590 148.350,99.527 148.024 C 99.464 147.698,99.413 147.964,99.413 148.617 M88.368 148.271 C 88.468 148.371,88.048 148.964,87.435 149.589 C 86.821 150.213,86.404 150.725,86.507 150.725 C 86.713 150.725,88.617 148.691,88.757 148.321 C 88.805 148.194,88.697 148.090,88.516 148.090 C 88.334 148.090,88.268 148.171,88.368 148.271 M90.990 148.768 L 90.250 149.446 91.107 148.850 C 91.578 148.522,91.963 148.217,91.963 148.172 C 91.963 147.964,91.672 148.142,90.990 148.768 M92.385 149.007 C 92.468 149.583,92.712 150.354,92.925 150.719 C 93.168 151.133,93.246 151.185,93.135 150.856 C 93.036 150.567,92.792 149.796,92.594 149.144 L 92.232 147.958 92.385 149.007 M101.743 149.188 C 101.727 149.430,101.645 149.845,101.561 150.110 C 101.417 150.568,101.425 150.568,101.711 150.123 C 101.876 149.865,101.958 149.450,101.893 149.201 C 101.786 148.793,101.771 148.792,101.743 149.188 M88.662 150.613 L 87.352 151.819 88.735 150.704 C 89.976 149.703,90.275 149.407,90.045 149.407 C 90.005 149.407,89.383 149.950,88.662 150.613 M67.617 151.932 C 66.820 154.010,69.166 154.807,70.788 153.009 L 71.542 152.174 70.751 152.869 C 69.124 154.299,67.539 154.053,67.806 152.412 C 67.961 151.456,67.879 151.249,67.617 151.932 M96.772 152.751 C 97.026 152.817,97.441 152.817,97.694 152.751 C 97.948 152.685,97.740 152.630,97.233 152.630 C 96.726 152.630,96.518 152.685,96.772 152.751 M96.311 153.975 C 96.691 154.101,97.411 154.095,97.965 153.959 C 98.867 153.739,98.814 153.721,97.292 153.735 C 96.015 153.747,95.791 153.801,96.311 153.975 " stroke="none" fill="#a0a0a0" fill-rule="evenodd"></path><path id="path3" d="M314.991 112.860 C 314.963 113.644,314.980 113.661,315.232 113.101 C 315.397 112.736,315.408 112.405,315.261 112.259 C 315.115 112.113,315.008 112.350,314.991 112.860 M126.591 112.553 C 126.472 112.746,126.515 112.791,126.705 112.673 C 127.281 112.317,127.008 113.148,126.285 113.951 L 125.560 114.756 126.416 113.982 C 126.887 113.557,127.273 113.060,127.273 112.878 C 127.273 112.405,126.817 112.188,126.591 112.553 M248.337 113.373 L 247.563 114.229 248.419 113.455 C 248.890 113.030,249.275 112.644,249.275 112.599 C 249.275 112.395,249.058 112.575,248.337 113.373 M327.273 113.653 C 327.273 113.698,327.658 114.084,328.129 114.509 L 328.986 115.283 328.212 114.427 C 327.490 113.629,327.273 113.449,327.273 113.653 M329.776 114.625 C 330.342 115.204,330.865 115.679,330.937 115.679 C 331.009 115.679,330.606 115.204,330.040 114.625 C 329.473 114.045,328.951 113.570,328.879 113.570 C 328.806 113.570,329.210 114.045,329.776 114.625 M123.569 114.822 L 122.661 115.810 123.650 114.902 C 124.193 114.403,124.638 113.958,124.638 113.914 C 124.638 113.713,124.415 113.902,123.569 114.822 M246.120 115.804 C 245.336 116.597,244.747 117.283,244.811 117.329 C 244.875 117.374,245.569 116.724,246.353 115.886 C 248.159 113.953,248.002 113.898,246.120 115.804 M67.575 123.057 C 67.575 127.622,67.610 129.489,67.654 127.207 C 67.698 124.924,67.698 121.189,67.654 118.906 C 67.610 116.624,67.575 118.491,67.575 123.057 M313.307 115.152 L 312.385 115.346 313.226 115.380 C 313.688 115.399,314.140 115.296,314.229 115.152 C 314.319 115.007,314.355 114.904,314.311 114.923 C 314.266 114.942,313.814 115.045,313.307 115.152 M145.627 116.271 C 145.694 116.380,146.032 116.469,146.377 116.469 C 146.722 116.469,147.059 116.380,147.127 116.271 C 147.194 116.163,146.856 116.074,146.377 116.074 C 145.897 116.074,145.560 116.163,145.627 116.271 M243.600 117.325 L 242.292 118.709 243.676 117.401 C 244.961 116.186,245.180 115.942,244.984 115.942 C 244.942 115.942,244.319 116.565,243.600 117.325 M250.573 116.930 L 249.934 117.655 250.691 116.996 L 251.449 116.337 251.267 116.996 C 251.128 117.499,251.151 117.561,251.362 117.260 C 252.131 116.161,251.488 115.892,250.573 116.930 M184.011 118.050 C 184.011 118.992,184.058 119.377,184.117 118.906 C 184.175 118.435,184.175 117.665,184.117 117.194 C 184.058 116.723,184.011 117.108,184.011 118.050 M191.953 117.852 L 190.646 119.236 192.029 117.928 C 193.314 116.713,193.533 116.469,193.337 116.469 C 193.295 116.469,192.672 117.092,191.953 117.852 M331.718 116.864 C 331.861 117.154,332.170 117.628,332.406 117.918 L 332.835 118.445 332.577 117.918 C 332.434 117.628,332.125 117.154,331.889 116.864 L 331.460 116.337 331.718 116.864 M238.194 118.248 L 237.286 119.236 238.274 118.328 C 239.194 117.483,239.383 117.260,239.182 117.260 C 239.138 117.260,238.693 117.704,238.194 118.248 M240.217 117.665 C 240.127 117.900,240.063 118.291,240.075 118.533 C 240.088 118.775,240.202 118.623,240.330 118.195 C 240.579 117.363,240.491 116.952,240.217 117.665 M216.701 121.080 C 216.702 122.819,216.745 123.497,216.796 122.585 C 216.848 121.674,216.847 120.251,216.795 119.423 C 216.743 118.595,216.701 119.341,216.701 121.080 M77.997 119.126 C 77.687 119.342,77.729 119.366,78.190 119.237 L 78.778 119.072 78.856 125.083 L 78.934 131.094 78.927 125.055 C 78.920 119.006,78.845 118.532,77.997 119.126 M138.746 119.614 C 138.646 119.776,138.735 119.827,138.964 119.740 C 139.202 119.648,139.396 119.776,139.465 120.072 C 139.565 120.502,139.575 120.499,139.552 120.047 C 139.522 119.476,139.004 119.197,138.746 119.614 M146.113 119.547 C 146.403 119.627,146.738 119.827,146.858 119.991 C 147.002 120.188,147.040 120.156,146.969 119.895 C 146.911 119.677,146.575 119.477,146.224 119.451 C 145.721 119.412,145.698 119.433,146.113 119.547 M158.893 119.635 C 158.615 119.817,158.771 119.844,159.420 119.725 C 160.557 119.516,160.771 119.366,159.925 119.372 C 159.575 119.374,159.111 119.492,158.893 119.635 M262.209 119.462 C 262.269 119.514,262.912 119.625,263.636 119.709 C 264.484 119.807,264.766 119.780,264.427 119.633 C 263.923 119.415,261.980 119.265,262.209 119.462 M276.350 119.554 C 276.677 119.616,277.210 119.616,277.536 119.554 C 277.862 119.491,277.596 119.439,276.943 119.439 C 276.291 119.439,276.024 119.491,276.350 119.554 M292.896 119.614 C 292.796 119.776,292.885 119.828,293.112 119.740 C 293.332 119.656,293.553 119.773,293.626 120.012 C 293.734 120.365,293.748 120.361,293.715 119.987 C 293.669 119.463,293.139 119.221,292.896 119.614 M132.628 120.487 C 132.334 120.814,132.000 121.258,131.885 121.476 C 131.662 121.895,131.723 121.838,132.790 120.619 C 133.140 120.221,133.366 119.895,133.293 119.895 C 133.221 119.895,132.922 120.161,132.628 120.487 M142.161 120.158 C 141.489 120.447,142.182 120.447,143.083 120.158 C 143.613 119.989,143.638 119.946,143.215 119.939 C 142.925 119.935,142.451 120.034,142.161 120.158 M156.564 121.387 L 155.072 122.879 156.653 121.468 C 157.523 120.692,158.284 120.021,158.344 119.976 C 158.405 119.931,158.365 119.895,158.255 119.895 C 158.146 119.895,157.385 120.566,156.564 121.387 M194.780 120.073 C 195.024 120.138,195.275 120.450,195.337 120.767 C 195.429 121.242,195.455 121.216,195.485 120.619 C 195.514 120.025,195.414 119.900,194.928 119.925 C 194.507 119.947,194.464 119.990,194.780 120.073 M241.288 120.083 C 241.605 120.142,241.919 120.363,241.986 120.574 C 242.063 120.818,242.092 120.788,242.066 120.493 C 242.039 120.190,241.794 120.017,241.368 120.001 C 240.827 119.980,240.813 119.994,241.288 120.083 M319.220 120.272 C 318.785 120.594,318.763 120.701,319.077 120.997 C 319.381 121.283,319.411 121.284,319.248 120.997 C 319.130 120.788,319.245 120.503,319.539 120.281 C 319.807 120.078,319.960 119.908,319.879 119.903 C 319.798 119.898,319.502 120.064,319.220 120.272 M89.237 120.883 C 89.170 120.991,89.567 121.080,90.119 121.080 C 90.671 121.080,91.067 120.991,91.000 120.883 C 90.933 120.774,90.536 120.685,90.119 120.685 C 89.701 120.685,89.304 120.774,89.237 120.883 M97.394 120.901 C 97.321 121.020,97.620 121.064,98.060 121.000 C 98.600 120.920,99.128 121.070,99.693 121.462 L 100.527 122.041 99.788 121.363 C 99.071 120.705,97.681 120.437,97.394 120.901 M137.309 121.375 C 137.658 121.827,137.998 122.149,138.062 122.092 C 138.127 122.034,137.841 121.664,137.426 121.270 L 136.672 120.553 137.309 121.375 M74.967 121.139 C 75.257 121.211,75.672 121.404,75.889 121.570 C 76.233 121.832,76.237 121.811,75.923 121.410 C 75.724 121.156,75.309 120.962,75.001 120.979 C 74.468 121.008,74.467 121.016,74.967 121.139 M293.342 121.739 C 293.342 122.246,293.396 122.454,293.462 122.200 C 293.529 121.947,293.529 121.532,293.462 121.278 C 293.396 121.024,293.342 121.232,293.342 121.739 M95.767 122.069 L 94.993 122.925 95.850 122.151 C 96.648 121.430,96.827 121.212,96.624 121.212 C 96.578 121.212,96.193 121.597,95.767 122.069 M157.996 121.436 C 157.905 121.583,158.072 121.629,158.393 121.545 C 158.714 121.461,159.055 121.554,159.204 121.767 C 159.417 122.072,159.442 122.068,159.354 121.739 C 159.231 121.283,158.228 121.059,157.996 121.436 M257.166 122.200 L 256.258 123.188 257.246 122.280 C 258.166 121.435,258.356 121.212,258.154 121.212 C 258.110 121.212,257.666 121.657,257.166 122.200 M263.768 121.454 C 263.768 121.587,263.704 121.864,263.625 122.069 C 263.546 122.275,263.733 122.729,264.041 123.079 L 264.601 123.715 264.192 123.074 C 263.957 122.707,263.848 122.172,263.936 121.822 C 264.020 121.487,264.017 121.212,263.928 121.212 C 263.840 121.212,263.768 121.321,263.768 121.454 M103.102 122.793 C 103.102 123.445,103.153 123.712,103.216 123.386 C 103.279 123.060,103.279 122.526,103.216 122.200 C 103.153 121.874,103.102 122.141,103.102 122.793 M156.378 122.859 L 155.336 123.979 156.456 122.937 C 157.497 121.969,157.697 121.739,157.497 121.739 C 157.454 121.739,156.950 122.243,156.378 122.859 M100.611 126.657 C 100.681 130.306,100.626 131.112,100.266 131.705 L 99.837 132.411 100.380 131.789 C 100.941 131.146,101.228 123.420,100.721 122.619 C 100.614 122.451,100.565 124.268,100.611 126.657 M310.935 123.188 C 311.427 123.696,311.889 124.111,311.961 124.111 C 312.034 124.111,311.691 123.696,311.199 123.188 C 310.707 122.681,310.246 122.266,310.173 122.266 C 310.101 122.266,310.444 122.681,310.935 123.188 M134.132 122.665 C 134.123 122.970,135.911 125.692,136.120 125.692 C 136.195 125.692,135.915 125.188,135.496 124.572 C 135.077 123.956,134.601 123.215,134.437 122.925 C 134.274 122.635,134.136 122.518,134.132 122.665 M331.573 124.111 C 331.573 125.053,331.621 125.438,331.679 124.967 C 331.738 124.496,331.738 123.725,331.679 123.254 C 331.621 122.783,331.573 123.169,331.573 124.111 M122.098 125.165 C 122.098 126.542,122.142 127.105,122.196 126.416 C 122.251 125.728,122.251 124.601,122.196 123.913 C 122.142 123.225,122.098 123.788,122.098 125.165 M292.311 123.188 C 292.371 123.766,293.064 123.919,293.173 123.379 C 293.210 123.195,293.181 123.165,293.107 123.314 C 292.901 123.730,292.544 123.634,292.393 123.123 C 292.287 122.764,292.269 122.779,292.311 123.188 M153.831 123.715 C 153.625 124.723,153.689 124.770,154.306 124.067 C 154.582 123.751,154.670 123.574,154.500 123.673 C 154.320 123.778,154.149 123.659,154.091 123.389 C 154.026 123.083,153.938 123.193,153.831 123.715 M281.498 124.242 C 281.500 124.967,281.551 125.232,281.612 124.832 C 281.673 124.431,281.671 123.838,281.608 123.514 C 281.546 123.190,281.496 123.518,281.498 124.242 M92.593 127.141 C 92.593 129.025,92.635 129.761,92.686 128.777 C 92.737 127.793,92.736 126.251,92.685 125.351 C 92.634 124.452,92.592 125.257,92.593 127.141 M219.204 124.185 C 219.318 124.299,220.824 124.358,222.552 124.316 L 225.692 124.240 222.344 124.109 C 220.503 124.038,219.090 124.072,219.204 124.185 M210.117 124.484 C 210.038 124.689,210.024 125.193,210.086 125.604 C 210.181 126.237,210.204 126.202,210.237 125.371 L 210.277 124.391 213.373 124.307 L 216.469 124.224 213.365 124.167 C 210.892 124.122,210.231 124.187,210.117 124.484 M178.231 125.614 C 177.672 126.295,177.353 126.768,177.521 126.664 C 177.880 126.442,179.548 124.374,179.369 124.374 C 179.302 124.374,178.790 124.932,178.231 125.614 M180.352 125.231 L 179.578 126.087 180.435 125.313 C 180.906 124.887,181.291 124.502,181.291 124.457 C 181.291 124.253,181.074 124.432,180.352 125.231 M189.227 124.682 C 189.210 124.924,189.128 125.339,189.045 125.604 C 188.901 126.062,188.909 126.062,189.194 125.618 C 189.360 125.359,189.442 124.944,189.376 124.695 C 189.269 124.287,189.254 124.286,189.227 124.682 M225.539 125.494 C 225.461 126.060,225.501 126.383,225.633 126.251 C 225.761 126.123,225.822 125.679,225.770 125.263 C 225.683 124.566,225.665 124.584,225.539 125.494 M334.454 125.560 C 334.457 126.140,334.511 126.346,334.574 126.018 C 334.637 125.690,334.634 125.216,334.568 124.964 C 334.502 124.712,334.451 124.980,334.454 125.560 M254.795 125.596 C 254.650 125.979,254.580 126.341,254.639 126.400 C 254.699 126.460,254.874 126.147,255.028 125.705 C 255.371 124.722,255.164 124.626,254.795 125.596 M278.555 125.209 C 278.538 125.451,278.456 125.866,278.373 126.131 C 278.229 126.589,278.237 126.589,278.522 126.145 C 278.688 125.886,278.770 125.471,278.704 125.222 C 278.597 124.814,278.582 124.813,278.555 125.209 M257.345 126.097 C 257.254 126.333,257.193 126.782,257.207 127.097 C 257.225 127.458,257.314 127.329,257.451 126.748 C 257.681 125.768,257.618 125.384,257.345 126.097 M331.568 127.273 C 331.568 128.070,331.617 128.396,331.678 127.997 C 331.738 127.599,331.738 126.947,331.678 126.548 C 331.617 126.150,331.568 126.476,331.568 127.273 M191.205 126.624 C 191.115 126.860,191.051 127.250,191.063 127.492 C 191.076 127.734,191.191 127.582,191.318 127.154 C 191.567 126.323,191.479 125.911,191.205 126.624 M216.556 127.536 C 216.611 128.116,216.703 128.590,216.760 128.590 C 216.817 128.590,216.864 128.116,216.864 127.536 C 216.864 126.957,216.772 126.482,216.660 126.482 C 216.547 126.482,216.500 126.957,216.556 127.536 M133.563 127.141 C 133.705 127.431,134.015 127.905,134.251 128.195 L 134.680 128.722 134.421 128.195 C 134.279 127.905,133.969 127.431,133.733 127.141 L 133.304 126.614 133.563 127.141 M177.397 128.400 C 175.844 129.967,175.411 130.698,176.037 130.698 C 176.190 130.698,176.235 130.568,176.136 130.408 C 176.036 130.246,176.694 129.375,177.628 128.432 C 178.548 127.505,179.240 126.746,179.168 126.746 C 179.095 126.746,178.298 127.490,177.397 128.400 M150.228 127.581 C 150.211 127.822,150.129 128.237,150.046 128.503 C 149.902 128.960,149.910 128.961,150.195 128.516 C 150.361 128.258,150.443 127.843,150.378 127.594 C 150.271 127.186,150.256 127.185,150.228 127.581 M254.357 128.458 C 254.359 129.183,254.410 129.448,254.471 129.048 C 254.532 128.647,254.530 128.054,254.467 127.730 C 254.405 127.406,254.355 127.734,254.357 128.458 M144.431 127.844 C 144.414 128.086,144.332 128.501,144.249 128.766 C 144.105 129.224,144.113 129.225,144.398 128.780 C 144.564 128.521,144.646 128.106,144.581 127.857 C 144.473 127.449,144.459 127.448,144.431 127.844 M268.056 128.590 C 268.056 129.242,268.107 129.509,268.170 129.183 C 268.233 128.857,268.233 128.323,268.170 127.997 C 268.107 127.671,268.056 127.938,268.056 128.590 M119.405 128.063 C 119.405 128.281,119.507 128.696,119.631 128.986 C 119.774 129.318,119.858 129.366,119.858 129.117 C 119.858 128.900,119.756 128.485,119.631 128.195 C 119.488 127.863,119.405 127.814,119.405 128.063 M175.609 128.656 L 174.835 129.513 175.692 128.739 C 176.163 128.313,176.548 127.928,176.548 127.882 C 176.548 127.679,176.331 127.858,175.609 128.656 M334.011 129.004 C 333.914 129.390,333.886 129.757,333.948 129.819 C 334.010 129.881,334.140 129.616,334.237 129.230 C 334.334 128.844,334.362 128.477,334.300 128.415 C 334.238 128.353,334.108 128.618,334.011 129.004 M270.623 129.534 C 270.625 130.102,270.731 130.731,270.858 130.931 C 271.000 131.155,271.036 130.796,270.951 130.009 C 270.778 128.404,270.618 128.172,270.623 129.534 M216.662 129.644 C 216.662 130.152,216.716 130.359,216.782 130.105 C 216.849 129.852,216.849 129.437,216.782 129.183 C 216.716 128.930,216.662 129.137,216.662 129.644 M145.576 130.446 C 144.249 131.804,143.763 131.821,143.970 130.501 C 144.080 129.796,144.056 129.664,143.886 130.040 C 143.073 131.834,144.056 132.200,145.606 130.679 C 146.726 129.580,147.263 129.679,146.311 130.809 C 145.850 131.356,145.850 131.357,146.443 130.855 C 146.769 130.579,147.036 130.201,147.036 130.014 C 147.036 129.300,146.557 129.441,145.576 130.446 M159.848 129.786 C 159.758 130.022,159.694 130.412,159.706 130.654 C 159.719 130.896,159.834 130.744,159.961 130.316 C 160.210 129.485,160.122 129.073,159.848 129.786 M161.772 130.105 L 161.133 130.830 161.809 130.237 C 162.619 129.526,162.966 129.477,162.727 130.105 C 162.593 130.457,162.624 130.494,162.860 130.260 C 163.165 129.957,163.003 129.381,162.613 129.381 C 162.502 129.381,162.123 129.707,161.772 130.105 M238.965 129.842 C 238.639 130.257,238.648 130.268,239.053 129.951 C 239.300 129.757,239.626 129.675,239.778 129.769 C 239.929 129.862,240.053 129.813,240.053 129.660 C 240.053 129.219,239.363 129.335,238.965 129.842 M173.280 131.199 C 172.561 131.929,172.069 132.646,172.149 132.846 C 172.260 133.126,172.295 133.119,172.311 132.815 C 172.323 132.603,172.891 131.862,173.574 131.168 C 174.257 130.475,174.756 129.908,174.684 129.908 C 174.611 129.908,173.979 130.489,173.280 131.199 M262.582 130.875 C 262.003 131.394,261.765 131.697,262.055 131.547 C 262.544 131.294,263.999 129.894,263.748 129.919 C 263.687 129.925,263.162 130.355,262.582 130.875 M331.010 131.010 C 330.853 131.626,330.771 132.176,330.826 132.232 C 330.882 132.287,331.061 131.834,331.225 131.225 C 331.389 130.616,331.472 130.067,331.409 130.003 C 331.346 129.940,331.166 130.393,331.010 131.010 M312.895 131.028 L 312.121 131.884 312.978 131.110 C 313.776 130.389,313.955 130.171,313.752 130.171 C 313.706 130.171,313.321 130.557,312.895 131.028 M137.216 131.293 L 136.751 132.148 137.282 131.525 C 137.734 130.996,137.975 130.431,137.747 130.436 C 137.711 130.437,137.472 130.823,137.216 131.293 M181.884 130.616 C 182.138 130.683,182.553 130.683,182.806 130.616 C 183.060 130.550,182.852 130.496,182.345 130.496 C 181.838 130.496,181.630 130.550,181.884 130.616 M234.112 131.329 C 233.806 132.958,234.921 133.957,236.370 133.351 C 236.942 133.112,236.906 133.097,236.075 133.228 C 234.746 133.437,234.145 132.811,234.364 131.444 C 234.563 130.197,234.343 130.097,234.112 131.329 M263.490 131.423 L 262.582 132.411 263.570 131.503 C 264.490 130.658,264.680 130.435,264.479 130.435 C 264.435 130.435,263.990 130.879,263.490 131.423 M86.987 131.127 C 86.970 131.435,87.164 131.851,87.418 132.049 C 87.819 132.364,87.840 132.360,87.578 132.016 C 87.412 131.798,87.218 131.383,87.147 131.094 C 87.024 130.593,87.016 130.595,86.987 131.127 M161.265 131.884 C 160.625 132.536,160.160 133.070,160.233 133.070 C 160.305 133.070,160.888 132.536,161.528 131.884 C 162.168 131.232,162.633 130.698,162.560 130.698 C 162.488 130.698,161.905 131.232,161.265 131.884 M187.516 131.104 C 187.426 131.339,187.362 131.730,187.374 131.971 C 187.387 132.213,187.502 132.061,187.629 131.634 C 187.878 130.802,187.790 130.391,187.516 131.104 M216.662 131.489 C 216.662 131.996,216.716 132.204,216.782 131.950 C 216.849 131.696,216.849 131.281,216.782 131.028 C 216.716 130.774,216.662 130.982,216.662 131.489 M238.064 132.082 L 237.022 133.202 238.142 132.160 C 239.184 131.191,239.383 130.962,239.184 130.962 C 239.141 130.962,238.637 131.466,238.064 132.082 M258.315 131.601 C 259.078 132.301,260.377 132.499,261.119 132.030 C 261.367 131.873,261.107 131.841,260.378 131.939 C 259.485 132.059,259.082 131.970,258.415 131.507 L 257.576 130.923 258.315 131.601 M128.915 132.016 C 128.915 132.523,128.969 132.731,129.035 132.477 C 129.102 132.223,129.102 131.808,129.035 131.555 C 128.969 131.301,128.915 131.509,128.915 132.016 M144.928 132.319 C 144.420 132.764,144.244 133.007,144.535 132.860 C 145.017 132.616,146.210 131.474,145.957 131.500 C 145.898 131.505,145.435 131.874,144.928 132.319 M290.382 132.319 C 289.875 132.764,289.698 133.007,289.990 132.860 C 290.471 132.616,291.665 131.474,291.411 131.500 C 291.352 131.505,290.889 131.874,290.382 132.319 M308.189 132.096 C 308.407 132.217,308.904 132.207,309.298 132.072 C 309.948 131.850,309.911 131.830,308.904 131.851 C 308.159 131.867,307.924 131.947,308.189 132.096 M133.202 132.543 L 132.411 132.744 133.120 132.775 C 133.510 132.792,133.903 132.688,133.992 132.543 C 134.082 132.398,134.118 132.293,134.074 132.310 C 134.029 132.328,133.636 132.432,133.202 132.543 M286.338 132.609 C 286.406 132.717,286.802 132.806,287.220 132.806 C 287.638 132.806,288.034 132.717,288.102 132.609 C 288.169 132.500,287.772 132.411,287.220 132.411 C 286.668 132.411,286.271 132.500,286.338 132.609 M318.314 132.537 C 318.314 132.923,319.565 133.666,319.952 133.511 C 320.164 133.426,320.118 133.367,319.829 133.354 C 319.575 133.343,319.130 133.096,318.841 132.806 C 318.551 132.516,318.314 132.395,318.314 132.537 M121.395 133.368 C 121.657 133.822,122.642 134.989,123.584 135.962 C 124.601 137.012,124.754 137.132,123.959 136.256 C 123.223 135.446,122.289 134.279,121.882 133.663 C 121.020 132.359,120.701 132.165,121.395 133.368 M141.882 133.187 C 142.457 133.648,142.721 133.669,143.478 133.311 C 143.913 133.106,143.877 133.087,143.275 133.204 C 142.874 133.282,142.281 133.218,141.958 133.062 C 141.393 132.788,141.390 132.793,141.882 133.187 M131.225 133.333 C 131.588 133.449,132.121 133.544,132.411 133.544 C 132.828 133.544,132.801 133.500,132.279 133.333 C 131.917 133.217,131.383 133.122,131.094 133.122 C 130.676 133.122,130.704 133.166,131.225 133.333 M188.377 133.429 C 188.671 133.561,189.201 133.550,189.634 133.404 C 190.307 133.178,190.256 133.155,189.125 133.177 C 188.188 133.195,187.997 133.260,188.377 133.429 M285.375 133.333 C 285.738 133.449,286.271 133.544,286.561 133.544 C 286.979 133.544,286.951 133.500,286.430 133.333 C 286.067 133.217,285.534 133.122,285.244 133.122 C 284.826 133.122,284.854 133.166,285.375 133.333 M306.126 133.519 C 306.453 133.582,306.986 133.582,307.312 133.519 C 307.638 133.456,307.372 133.405,306.719 133.405 C 306.067 133.405,305.800 133.456,306.126 133.519 M125.560 136.495 C 126.126 137.075,126.648 137.549,126.721 137.549 C 126.793 137.549,126.390 137.075,125.823 136.495 C 125.257 135.916,124.735 135.441,124.662 135.441 C 124.590 135.441,124.994 135.916,125.560 136.495 M328.178 136.298 L 327.404 137.154 328.261 136.380 C 329.059 135.659,329.238 135.441,329.035 135.441 C 328.989 135.441,328.604 135.827,328.178 136.298 M95.865 140.646 C 95.647 140.899,95.383 141.285,95.277 141.502 C 95.172 141.719,95.275 141.660,95.507 141.370 C 95.738 141.080,96.125 140.695,96.367 140.514 C 96.609 140.333,96.684 140.184,96.534 140.184 C 96.384 140.184,96.083 140.392,95.865 140.646 M70.471 143.412 L 69.697 144.269 70.553 143.495 C 71.352 142.773,71.531 142.556,71.327 142.556 C 71.282 142.556,70.897 142.941,70.471 143.412 M94.762 142.961 C 94.672 143.197,94.608 143.587,94.621 143.829 C 94.633 144.071,94.748 143.919,94.876 143.492 C 95.124 142.660,95.036 142.248,94.762 142.961 M71.757 144.005 C 71.793 144.363,72.021 144.546,72.466 144.575 C 73.016 144.612,73.029 144.598,72.546 144.493 C 72.229 144.424,71.909 144.168,71.836 143.923 C 71.741 143.603,71.718 143.626,71.757 144.005 M88.142 144.115 C 88.655 144.704,90.119 145.849,90.119 145.660 C 90.119 145.608,89.555 145.103,88.867 144.537 C 88.179 143.972,87.852 143.782,88.142 144.115 M68.347 144.962 C 68.380 145.133,68.673 145.371,68.999 145.492 C 69.375 145.631,69.533 145.616,69.431 145.451 C 69.343 145.308,69.110 145.191,68.913 145.191 C 68.716 145.191,68.495 145.069,68.421 144.921 C 68.347 144.772,68.314 144.791,68.347 144.962 M101.803 146.640 C 101.804 147.800,101.850 148.241,101.906 147.621 C 101.962 147.002,101.961 146.053,101.904 145.513 C 101.848 144.974,101.802 145.481,101.803 146.640 M72.464 145.191 L 71.805 145.402 72.530 145.428 C 72.928 145.443,73.254 145.336,73.254 145.191 C 73.254 145.046,73.225 144.939,73.188 144.954 C 73.152 144.968,72.826 145.075,72.464 145.191 M88.076 145.601 C 88.475 146.043,88.801 146.486,88.801 146.585 C 88.801 146.683,85.451 146.797,81.357 146.838 L 73.913 146.912 81.489 146.974 C 89.791 147.041,89.828 147.034,88.208 145.570 L 87.352 144.796 88.076 145.601 M73.602 147.431 C 73.655 147.943,73.876 147.960,81.408 148.028 L 89.160 148.098 88.256 149.082 L 87.352 150.066 88.330 149.168 C 89.772 147.843,89.684 147.826,81.427 147.826 C 74.410 147.826,73.809 147.790,73.684 147.365 C 73.578 147.006,73.560 147.021,73.602 147.431 M88.117 150.756 C 87.841 151.063,87.378 151.411,87.088 151.530 C 86.715 151.682,86.682 151.750,86.973 151.762 C 87.200 151.771,87.726 151.423,88.142 150.988 C 88.559 150.553,88.837 150.198,88.759 150.198 C 88.682 150.198,88.393 150.449,88.117 150.756 M98.745 152.110 L 98.280 152.964 98.810 152.342 C 99.262 151.813,99.504 151.248,99.275 151.253 C 99.239 151.254,99.000 151.640,98.745 152.110 M70.471 152.899 L 69.697 153.755 70.553 152.981 C 71.352 152.260,71.531 152.042,71.327 152.042 C 71.282 152.042,70.897 152.428,70.471 152.899 " stroke="none" fill="#7c7c7c" fill-rule="evenodd"></path><path id="path4" d="M219.066 120.026 C 219.065 121.331,219.110 121.898,219.165 121.286 C 219.220 120.674,219.221 119.607,219.166 118.914 C 219.112 118.222,219.067 118.722,219.066 120.026 M87.063 126.746 C 87.063 128.992,87.103 129.911,87.152 128.788 C 87.202 127.665,87.202 125.827,87.152 124.704 C 87.103 123.580,87.063 124.499,87.063 126.746 M219.073 130.040 C 219.073 131.779,219.116 132.456,219.168 131.544 C 219.219 130.633,219.219 129.210,219.167 128.382 C 219.115 127.555,219.072 128.300,219.073 130.040 M177.536 130.629 C 178.297 130.682,179.542 130.682,180.303 130.629 C 181.064 130.576,180.441 130.532,178.920 130.532 C 177.398 130.532,176.775 130.576,177.536 130.629 M66.996 133.265 C 67.974 133.316,69.575 133.316,70.553 133.265 C 71.532 133.215,70.731 133.173,68.775 133.173 C 66.818 133.173,66.018 133.215,66.996 133.265 M75.703 133.265 C 76.687 133.316,78.228 133.316,79.128 133.265 C 80.028 133.213,79.223 133.172,77.339 133.172 C 75.455 133.173,74.718 133.215,75.703 133.265 M83.992 133.265 C 84.898 133.316,86.380 133.316,87.286 133.265 C 88.192 133.213,87.451 133.171,85.639 133.171 C 83.827 133.171,83.086 133.213,83.992 133.265 M92.161 133.265 C 93.067 133.316,94.549 133.316,95.455 133.265 C 96.360 133.213,95.619 133.171,93.808 133.171 C 91.996 133.171,91.255 133.213,92.161 133.265 M100.603 133.265 C 101.515 133.317,102.938 133.316,103.765 133.264 C 104.593 133.212,103.847 133.170,102.108 133.170 C 100.369 133.171,99.692 133.214,100.603 133.265 M149.608 133.256 C 149.936 133.319,150.410 133.317,150.662 133.251 C 150.914 133.185,150.646 133.133,150.066 133.136 C 149.486 133.139,149.280 133.193,149.608 133.256 M175.165 133.267 C 176.795 133.313,179.463 133.313,181.094 133.267 C 182.724 133.220,181.390 133.182,178.129 133.182 C 174.868 133.182,173.534 133.220,175.165 133.267 M217.457 133.251 C 217.711 133.318,218.126 133.318,218.379 133.251 C 218.633 133.185,218.426 133.131,217.918 133.131 C 217.411 133.131,217.204 133.185,217.457 133.251 " stroke="none" fill="#848484" fill-rule="evenodd"></path></g></svg>