<svg id="svg" version="1.1" xmlns="http://www.w3.org/2000/svg" xmlns:xlink="http://www.w3.org/1999/xlink" width="400" height="431.1475409836065" viewBox="0, 0, 400,431.1475409836065"><g id="svgg"><path id="path0" d="M0.000 215.400 L 0.000 430.800 200.000 430.800 L 400.000 430.800 400.000 340.600 C 400.000 264.333,399.915 250.400,399.450 250.400 C 398.302 250.400,398.308 244.964,399.457 244.523 C 400.268 244.212,400.243 232.078,399.431 231.444 C 399.098 231.185,398.827 230.168,398.779 229.000 C 398.666 226.242,398.716 226.000,399.400 226.000 C 399.932 226.000,400.000 213.178,400.000 113.000 L 400.000 0.000 200.000 0.000 L 0.000 0.000 0.000 215.400 M358.535 182.545 C 365.498 186.247,367.404 196.753,362.382 203.739 C 359.506 207.739,355.746 212.289,353.318 214.709 C 351.933 216.090,350.800 217.376,350.800 217.568 C 350.800 217.760,350.151 218.487,349.358 219.183 C 347.542 220.778,347.392 220.693,352.645 221.026 C 359.899 221.485,362.198 221.079,364.347 218.959 C 366.326 217.008,366.618 216.917,367.932 217.838 C 368.785 218.435,368.803 218.536,368.221 219.424 C 367.880 219.945,367.595 220.783,367.589 221.286 C 367.573 222.546,365.423 227.244,364.668 227.666 C 364.329 227.856,358.145 227.964,350.926 227.905 L 337.800 227.800 337.681 226.384 C 337.558 224.929,338.876 222.800,339.899 222.800 C 340.159 222.800,340.583 222.395,340.841 221.900 C 341.099 221.405,342.590 219.737,344.155 218.193 C 345.720 216.649,347.325 214.886,347.721 214.275 C 348.118 213.664,348.883 212.963,349.421 212.718 C 349.960 212.472,350.400 212.036,350.400 211.749 C 350.400 211.462,351.210 210.315,352.200 209.200 C 353.190 208.085,354.000 206.904,354.000 206.574 C 354.000 206.245,354.254 205.878,354.564 205.759 C 354.874 205.639,355.248 205.060,355.395 204.471 C 355.542 203.882,355.953 203.077,356.309 202.683 C 357.821 201.004,357.456 192.830,355.795 191.190 C 355.243 190.646,354.451 189.869,354.034 189.466 C 353.173 188.631,349.339 188.135,347.059 188.563 C 345.064 188.937,341.883 192.246,341.039 194.824 C 340.097 197.705,337.600 197.031,337.600 193.895 C 337.600 184.797,350.063 178.040,358.535 182.545 M231.824 197.368 C 232.570 197.913,232.608 198.725,232.800 218.268 L 233.000 238.600 237.202 238.816 C 242.520 239.088,242.400 239.001,242.400 242.610 C 242.400 246.233,242.222 246.372,237.293 246.607 C 232.655 246.828,232.800 246.562,232.800 254.886 L 232.800 261.620 231.700 262.043 C 230.378 262.551,224.201 262.365,223.649 261.800 C 223.434 261.580,223.172 258.430,223.067 254.800 C 222.811 245.946,223.605 246.807,215.657 246.766 C 195.131 246.660,196.793 247.040,196.813 242.451 C 196.825 239.707,196.946 239.239,198.012 237.800 C 198.664 236.920,199.452 235.660,199.764 235.000 C 200.075 234.340,200.812 233.350,201.400 232.800 C 201.988 232.250,202.705 231.260,202.993 230.600 C 203.281 229.940,204.044 228.838,204.688 228.152 C 205.333 227.466,206.084 226.362,206.359 225.699 C 206.634 225.036,207.400 223.978,208.062 223.347 C 208.724 222.716,209.507 221.660,209.803 221.000 C 210.098 220.340,210.886 219.199,211.554 218.463 C 212.223 217.728,212.878 216.783,213.012 216.363 C 213.145 215.944,213.400 215.600,213.578 215.600 C 213.757 215.600,214.127 215.060,214.400 214.400 C 214.673 213.740,215.064 213.200,215.269 213.200 C 215.473 213.200,215.887 212.615,216.188 211.900 C 216.488 211.185,217.289 210.071,217.967 209.425 C 218.645 208.779,219.200 208.030,219.200 207.761 C 219.200 207.492,219.899 206.388,220.753 205.308 C 221.607 204.227,222.580 202.816,222.915 202.172 C 223.250 201.527,224.008 200.550,224.600 200.000 C 225.192 199.450,225.934 198.505,226.248 197.900 C 226.913 196.623,230.355 196.294,231.824 197.368 M331.958 207.762 C 333.121 208.815,333.166 212.176,332.026 212.786 C 330.823 213.430,295.146 213.349,294.305 212.700 C 292.851 211.577,293.238 208.121,294.900 207.390 C 297.162 206.395,330.822 206.733,331.958 207.762 M221.308 213.762 C 220.844 214.295,220.246 215.141,219.978 215.641 C 219.711 216.141,219.334 216.741,219.141 216.975 C 217.758 218.652,216.400 220.562,216.400 220.831 C 216.400 221.007,215.680 221.983,214.800 223.000 C 213.920 224.017,213.200 225.044,213.200 225.283 C 213.200 225.522,212.598 226.456,211.862 227.359 C 211.126 228.261,210.290 229.450,210.004 230.000 C 209.719 230.550,208.881 231.676,208.142 232.501 C 207.404 233.327,206.800 234.198,206.800 234.438 C 206.800 234.677,206.170 235.609,205.400 236.508 C 204.630 237.408,204.000 238.295,204.000 238.479 C 204.000 238.664,208.268 238.766,213.484 238.707 L 222.967 238.600 222.890 226.026 C 222.810 212.961,222.706 212.154,221.308 213.762 M262.568 219.443 C 263.765 219.902,265.502 223.032,265.794 225.255 C 266.252 228.741,267.945 230.450,268.775 228.265 C 268.971 227.750,269.668 226.877,270.324 226.326 C 270.980 225.774,271.810 224.755,272.168 224.061 C 272.527 223.367,272.985 222.800,273.186 222.800 C 273.387 222.800,274.374 222.088,275.380 221.217 C 279.431 217.711,285.013 218.666,285.495 222.947 C 285.938 226.879,281.923 229.208,278.611 226.940 C 278.177 226.643,277.547 226.402,277.211 226.405 C 276.443 226.411,272.400 230.288,272.400 231.018 C 272.400 231.316,271.953 232.063,271.406 232.679 C 269.707 234.595,269.599 234.749,269.171 235.875 C 268.640 237.274,269.036 241.468,269.996 244.600 C 270.400 245.920,271.017 247.927,271.368 249.060 C 271.718 250.192,272.119 251.955,272.259 252.976 C 272.777 256.757,276.254 255.952,278.633 251.500 C 279.797 249.321,282.745 250.377,282.260 252.800 C 281.721 255.497,276.158 261.669,273.264 262.780 C 269.901 264.071,265.881 263.092,265.333 260.848 C 265.192 260.272,264.745 259.173,264.339 258.406 C 263.932 257.639,263.600 256.643,263.600 256.192 C 263.600 255.741,263.240 254.348,262.800 253.096 C 262.360 251.844,262.000 250.470,262.000 250.043 C 262.000 248.273,261.615 248.059,260.378 249.144 C 259.730 249.713,259.200 250.397,259.200 250.665 C 259.200 250.932,258.525 251.968,257.700 252.966 C 256.875 253.964,255.300 255.964,254.200 257.410 C 249.709 263.312,246.197 264.781,241.727 262.624 C 236.997 260.343,239.466 253.050,244.355 254.861 C 248.089 256.245,250.283 255.387,252.699 251.600 C 253.471 250.390,254.351 249.255,254.655 249.078 C 254.959 248.901,255.462 248.181,255.774 247.478 C 256.085 246.775,256.893 245.591,257.570 244.846 C 258.246 244.101,258.800 243.268,258.800 242.995 C 258.800 242.722,259.047 242.293,259.349 242.042 C 259.812 241.658,259.814 241.196,259.363 239.093 C 259.069 237.722,258.814 235.880,258.796 235.000 C 258.779 234.120,258.490 232.680,258.154 231.800 C 257.818 230.920,257.345 229.480,257.102 228.600 C 256.118 225.024,254.658 224.211,251.125 225.270 C 249.674 225.705,249.484 225.666,248.571 224.752 L 247.584 223.765 248.773 222.626 C 251.127 220.371,259.782 218.374,262.568 219.443 M75.757 221.303 C 76.418 222.353,75.288 224.097,73.587 224.652 C 72.824 224.900,72.142 225.394,72.071 225.749 C 71.858 226.817,72.804 230.705,73.396 231.197 C 73.700 231.449,74.062 232.170,74.200 232.800 C 74.338 233.430,74.698 234.150,75.000 234.400 C 75.302 234.650,75.672 235.418,75.823 236.105 C 75.974 236.792,76.345 237.602,76.648 237.905 C 76.951 238.208,77.313 238.938,77.453 239.528 C 77.593 240.118,77.932 240.870,78.206 241.200 C 78.481 241.530,78.838 242.250,79.000 242.800 C 79.162 243.350,79.554 244.096,79.870 244.457 C 80.187 244.818,80.580 245.615,80.744 246.227 L 81.042 247.340 82.121 245.499 C 82.714 244.486,83.200 243.309,83.200 242.883 C 83.200 242.457,83.560 241.650,84.000 241.091 C 84.440 240.531,84.800 239.740,84.800 239.331 C 84.800 238.922,85.132 237.961,85.539 237.194 C 85.945 236.427,86.409 235.260,86.570 234.600 C 86.731 233.940,87.096 233.130,87.380 232.800 C 87.665 232.470,88.016 231.543,88.160 230.740 C 88.304 229.937,88.686 229.060,89.011 228.791 C 90.137 227.856,89.782 224.932,88.502 224.611 C 86.478 224.103,85.623 222.137,86.880 220.880 C 87.473 220.287,99.688 220.205,100.774 220.786 C 101.210 221.020,110.700 221.188,124.847 221.213 L 148.200 221.254 149.300 222.302 C 150.876 223.803,150.450 227.035,148.582 227.752 C 147.751 228.071,103.071 228.079,102.241 227.760 C 101.897 227.628,101.232 226.899,100.762 226.139 C 99.329 223.820,96.245 226.053,95.464 229.974 C 95.314 230.729,94.954 231.629,94.664 231.974 C 94.375 232.318,93.920 233.365,93.653 234.300 C 93.386 235.235,93.018 236.000,92.835 236.000 C 92.652 236.000,92.389 236.707,92.251 237.572 C 92.113 238.436,91.743 239.400,91.429 239.714 C 91.115 240.028,90.733 240.950,90.581 241.762 C 90.428 242.575,90.060 243.483,89.763 243.780 C 89.465 244.078,89.047 245.101,88.833 246.053 C 88.618 247.006,88.259 247.847,88.034 247.922 C 87.809 247.997,87.504 248.720,87.355 249.529 C 87.206 250.338,86.750 251.429,86.342 251.954 C 85.934 252.479,85.599 253.289,85.597 253.754 C 85.596 254.219,85.237 255.140,84.800 255.800 C 84.363 256.460,84.003 257.360,84.000 257.800 C 83.997 258.240,83.637 259.140,83.200 259.800 C 82.763 260.460,82.403 261.360,82.400 261.800 C 82.397 262.240,82.037 263.140,81.600 263.800 C 81.163 264.460,80.804 265.324,80.803 265.721 C 80.801 266.117,80.455 267.107,80.033 267.921 C 79.611 268.734,79.073 269.850,78.836 270.400 C 78.405 271.402,78.275 271.628,76.423 274.600 C 75.157 276.630,71.223 280.400,70.370 280.400 C 70.014 280.400,69.307 280.760,68.800 281.200 C 67.595 282.245,60.931 282.407,60.545 281.400 C 60.418 281.070,60.085 280.800,59.805 280.800 C 57.364 280.800,56.398 275.174,58.431 272.800 L 59.630 271.400 64.315 271.500 C 69.458 271.609,71.600 271.387,71.600 270.744 C 71.600 270.513,71.936 269.846,72.348 269.262 C 72.759 268.678,73.230 267.750,73.395 267.200 C 73.560 266.650,73.928 265.930,74.213 265.600 C 74.499 265.270,74.856 264.331,75.008 263.514 C 75.160 262.697,75.535 261.820,75.842 261.565 C 76.560 260.969,76.560 259.431,75.842 258.835 C 75.535 258.580,75.167 257.748,75.024 256.986 C 74.881 256.224,74.599 255.600,74.398 255.600 C 74.197 255.600,73.816 254.878,73.551 253.995 C 73.287 253.113,72.830 252.191,72.535 251.946 C 72.241 251.702,72.000 251.317,72.000 251.091 C 72.000 250.703,70.298 246.899,69.543 245.600 C 69.224 245.051,68.986 244.541,67.957 242.200 C 67.764 241.760,67.455 241.130,67.271 240.800 C 66.033 238.580,65.200 236.760,65.200 236.275 C 65.200 235.963,64.840 235.250,64.400 234.691 C 63.960 234.131,63.600 233.411,63.600 233.091 C 63.600 232.770,63.251 232.064,62.825 231.522 C 62.398 230.980,61.929 230.056,61.781 229.468 C 61.634 228.881,61.347 228.400,61.144 228.400 C 60.941 228.400,60.656 228.085,60.511 227.700 C 60.074 226.542,58.117 224.800,57.253 224.800 C 55.696 224.800,54.574 221.986,55.687 220.873 C 56.555 220.005,75.190 220.405,75.757 221.303 M149.604 236.900 C 150.654 238.622,150.607 239.830,149.442 240.994 L 148.484 241.952 125.510 241.987 C 102.752 242.021,102.525 242.014,101.468 241.182 C 100.139 240.137,100.035 238.171,101.229 236.654 L 102.058 235.600 125.435 235.600 L 148.812 235.600 149.604 236.900 " stroke="none" fill="#fbfbfb" fill-rule="evenodd"></path><path id="path1" d="M56.210 221.584 C 55.786 222.271,56.772 223.578,58.148 224.153 C 60.066 224.954,62.876 228.666,64.392 232.400 C 64.615 232.950,64.972 233.670,65.184 234.000 C 65.396 234.330,66.037 235.680,66.609 237.000 C 67.181 238.320,67.818 239.670,68.025 240.000 C 68.232 240.330,68.590 241.050,68.819 241.600 C 69.398 242.986,72.410 249.268,72.848 250.000 C 73.045 250.330,73.404 251.050,73.645 251.600 C 73.887 252.150,74.786 254.010,75.642 255.732 C 77.408 259.284,77.572 260.906,76.400 263.221 C 74.546 266.881,74.103 267.852,73.856 268.800 C 73.547 269.986,72.238 271.514,70.652 272.539 C 69.484 273.294,69.350 273.290,65.322 272.375 C 58.667 270.863,55.162 277.423,61.027 280.414 C 67.216 283.569,74.590 278.052,79.223 266.800 C 79.721 265.590,80.442 263.880,80.825 263.000 C 81.207 262.120,81.732 260.728,81.989 259.906 C 82.247 259.084,82.625 258.308,82.829 258.182 C 83.033 258.056,83.202 257.648,83.204 257.276 C 83.206 256.904,83.650 255.700,84.191 254.600 C 84.732 253.500,85.181 252.358,85.187 252.062 C 85.194 251.766,85.460 251.046,85.777 250.462 C 86.095 249.878,86.833 248.230,87.418 246.800 C 88.002 245.370,88.823 243.460,89.240 242.556 C 89.658 241.652,90.000 240.706,90.000 240.455 C 90.000 240.203,90.360 239.325,90.800 238.504 C 91.240 237.684,91.601 236.739,91.603 236.406 C 91.604 236.073,91.963 235.260,92.400 234.600 C 92.837 233.940,93.196 233.127,93.197 232.794 C 93.199 232.461,93.560 231.516,94.000 230.696 C 94.440 229.875,94.800 228.963,94.800 228.670 C 94.800 227.628,97.235 224.483,98.423 223.990 C 99.937 223.363,100.598 222.262,99.837 221.631 C 98.748 220.727,87.400 221.246,87.400 222.200 C 87.400 222.723,87.709 223.044,88.292 223.127 C 90.578 223.452,91.266 227.858,89.437 230.468 C 89.087 230.969,88.800 231.656,88.800 231.995 C 88.800 232.334,88.440 233.284,88.000 234.104 C 87.560 234.925,87.199 235.823,87.198 236.099 C 87.196 236.374,86.912 237.140,86.565 237.800 C 86.219 238.460,85.328 240.552,84.584 242.449 C 82.139 248.691,81.196 249.770,80.174 247.500 C 79.852 246.785,79.427 245.930,79.231 245.600 C 78.784 244.850,73.851 234.564,72.515 231.600 C 71.970 230.390,71.258 228.900,70.933 228.289 C 69.928 226.400,70.543 224.989,72.930 223.709 C 76.795 221.638,76.123 221.413,65.728 221.293 C 59.875 221.225,56.365 221.333,56.210 221.584 M101.870 223.063 C 101.425 223.508,101.565 225.405,102.080 225.920 C 102.442 226.282,108.176 226.400,125.431 226.400 C 150.388 226.400,149.401 226.495,149.129 224.124 L 149.000 223.000 125.570 222.897 C 112.683 222.840,102.018 222.915,101.870 223.063 M101.749 238.262 C 101.135 240.708,100.041 240.600,125.400 240.600 C 150.759 240.600,149.665 240.708,149.051 238.262 L 148.785 237.200 125.400 237.200 L 102.015 237.200 101.749 238.262 " stroke="none" fill="#161616" fill-rule="evenodd"></path><path id="path2" d="M348.800 183.021 C 347.810 183.333,346.636 183.591,346.191 183.594 C 344.330 183.608,339.600 189.490,339.600 191.791 C 339.600 192.072,339.330 192.526,339.000 192.800 C 338.670 193.074,338.400 193.722,338.400 194.240 C 338.400 195.898,340.255 194.669,340.551 192.816 C 340.711 191.818,341.149 191.066,341.866 190.560 C 342.458 190.142,343.405 189.328,343.971 188.750 C 346.920 185.741,351.465 185.791,355.200 188.873 C 355.970 189.508,356.808 190.192,357.061 190.394 C 357.315 190.595,357.641 191.534,357.786 192.480 C 357.930 193.426,358.247 194.713,358.490 195.340 C 358.812 196.173,358.810 196.983,358.484 198.340 C 358.239 199.363,357.839 201.224,357.596 202.475 C 357.274 204.132,356.780 205.158,355.777 206.253 C 355.020 207.080,354.400 208.177,354.400 208.691 C 354.400 209.220,354.097 209.731,353.700 209.871 C 352.856 210.167,351.700 211.470,351.192 212.700 C 350.987 213.195,350.545 213.600,350.210 213.600 C 349.874 213.600,349.600 213.743,349.600 213.918 C 349.600 214.092,348.317 215.577,346.749 217.218 C 345.181 218.858,343.630 220.605,343.303 221.100 C 342.976 221.595,342.533 222.000,342.318 222.000 C 341.831 222.000,340.431 223.647,340.413 224.242 C 340.406 224.484,339.959 225.159,339.419 225.742 L 338.438 226.800 339.319 226.812 C 360.785 227.094,364.420 226.768,364.987 224.511 C 365.131 223.934,365.598 223.020,366.025 222.478 C 367.852 220.155,366.725 218.622,364.637 220.591 C 362.631 222.483,361.144 222.795,354.129 222.798 C 344.673 222.801,344.494 221.307,352.953 212.972 C 353.639 212.296,354.470 211.378,354.800 210.931 C 355.130 210.484,355.805 209.905,356.300 209.645 C 356.795 209.385,357.200 208.951,357.200 208.682 C 357.200 208.091,359.078 206.000,359.609 206.000 C 359.815 206.000,360.106 205.505,360.253 204.900 C 360.401 204.295,360.855 203.371,361.261 202.846 C 361.667 202.321,362.000 201.729,362.000 201.530 C 362.000 201.331,362.374 200.661,362.832 200.042 C 363.596 199.009,363.653 198.475,363.532 193.533 L 363.400 188.149 361.919 186.850 C 361.105 186.135,360.334 185.221,360.205 184.817 C 360.061 184.362,359.414 183.979,358.500 183.808 C 357.690 183.656,356.535 183.277,355.934 182.966 C 354.557 182.254,351.151 182.280,348.800 183.021 M227.719 198.722 C 227.234 198.793,226.732 199.183,226.604 199.588 C 226.475 199.994,226.106 200.427,225.785 200.550 C 225.463 200.674,225.200 201.018,225.200 201.315 C 225.200 201.613,224.750 202.247,224.200 202.725 C 223.650 203.203,223.200 203.880,223.200 204.229 C 223.200 204.577,222.480 205.576,221.600 206.447 C 220.720 207.318,220.000 208.262,220.000 208.543 C 220.000 208.825,219.444 209.673,218.764 210.428 C 218.084 211.183,217.093 212.652,216.561 213.693 C 216.029 214.734,215.157 215.872,214.622 216.222 C 214.088 216.572,213.541 217.358,213.407 217.969 C 213.273 218.579,212.541 219.681,211.782 220.418 C 211.022 221.154,210.400 221.893,210.400 222.058 C 210.400 222.568,207.965 226.000,207.603 226.000 C 207.415 226.000,207.052 226.637,206.795 227.414 C 206.538 228.192,205.805 229.216,205.164 229.690 C 204.524 230.163,204.000 230.773,204.000 231.045 C 204.000 231.316,203.550 232.073,203.000 232.727 C 202.450 233.381,202.000 234.106,202.000 234.338 C 202.000 234.570,201.753 234.904,201.451 235.080 C 200.080 235.878,198.400 240.051,198.400 242.656 L 198.400 245.200 199.700 245.258 C 200.415 245.290,205.620 245.275,211.266 245.223 C 221.318 245.133,222.897 245.291,224.468 246.546 C 224.506 246.576,224.641 249.930,224.768 254.000 L 225.000 261.400 227.590 261.521 C 231.182 261.690,231.200 261.654,231.202 254.024 C 231.205 245.806,231.438 245.425,236.516 245.352 C 240.566 245.294,240.802 245.179,240.795 243.276 C 240.783 240.151,240.745 240.121,236.491 239.802 C 230.599 239.360,231.201 241.586,231.196 220.204 C 231.190 197.224,231.347 198.194,227.719 198.722 M296.400 208.772 C 295.562 208.990,295.380 209.304,295.277 210.716 L 295.154 212.400 312.990 212.400 C 332.569 212.400,331.569 212.537,330.898 209.949 L 330.549 208.600 313.974 208.556 C 304.858 208.532,296.950 208.629,296.400 208.772 M224.557 210.633 C 224.691 210.981,224.800 217.432,224.800 224.969 L 224.800 238.672 223.781 239.136 C 222.115 239.895,203.843 239.775,203.200 239.000 C 202.542 238.207,203.231 236.503,204.829 234.972 C 205.473 234.355,206.000 233.642,206.000 233.387 C 206.000 233.132,206.360 232.598,206.800 232.200 C 207.240 231.802,207.600 231.266,207.600 231.010 C 207.600 230.754,208.050 230.153,208.600 229.675 C 209.150 229.197,209.600 228.520,209.600 228.171 C 209.600 227.823,210.320 226.824,211.200 225.953 C 212.080 225.082,212.800 224.022,212.800 223.599 C 212.800 223.175,213.160 222.635,213.600 222.400 C 214.040 222.165,214.400 221.703,214.400 221.373 C 214.400 221.044,214.656 220.677,214.969 220.557 C 215.282 220.437,215.817 219.641,216.158 218.790 C 216.498 217.938,217.304 216.851,217.948 216.376 C 218.591 215.900,219.224 215.035,219.353 214.455 C 219.900 212.001,223.943 209.032,224.557 210.633 M257.000 220.689 C 256.340 221.050,255.189 221.448,254.442 221.573 C 252.953 221.822,252.683 222.524,253.997 222.730 C 254.977 222.883,257.975 225.936,257.992 226.800 C 257.999 227.130,258.257 227.884,258.566 228.476 C 258.875 229.067,259.259 230.957,259.420 232.676 C 259.581 234.394,259.969 236.191,260.282 236.669 C 261.297 238.218,261.429 241.752,260.506 242.638 C 260.070 243.057,259.595 243.890,259.452 244.488 C 259.308 245.087,258.833 245.768,258.395 246.003 C 257.958 246.237,257.600 246.692,257.600 247.014 C 257.600 247.336,257.424 247.600,257.210 247.600 C 256.995 247.600,256.452 248.407,256.003 249.393 C 255.554 250.379,254.649 251.583,253.993 252.068 C 253.337 252.553,252.800 253.249,252.800 253.613 C 252.800 255.162,248.703 257.278,247.188 256.512 C 243.047 254.417,238.445 257.461,241.009 260.600 C 241.947 261.749,242.124 261.800,245.139 261.800 L 248.288 261.800 250.444 259.543 C 251.630 258.302,252.923 256.817,253.319 256.243 C 253.714 255.670,254.285 255.200,254.587 255.200 C 254.889 255.200,255.257 254.649,255.405 253.976 C 255.553 253.303,256.287 252.194,257.037 251.512 C 257.787 250.830,258.402 250.075,258.404 249.836 C 258.411 249.103,261.145 246.693,261.720 246.914 C 262.318 247.143,263.919 251.312,264.366 253.800 C 264.523 254.680,264.865 255.791,265.124 256.269 C 265.383 256.747,265.791 258.049,266.029 259.162 C 266.439 261.075,266.553 261.210,268.094 261.625 C 270.697 262.326,274.350 261.748,274.897 260.548 C 275.139 260.016,275.930 259.214,276.655 258.766 C 277.586 258.190,278.049 257.548,278.231 256.576 C 278.373 255.819,278.705 255.200,278.969 255.200 C 279.408 255.200,281.200 253.124,281.200 252.616 C 281.200 252.497,280.750 252.400,280.200 252.400 C 279.568 252.400,279.200 252.626,279.200 253.013 C 279.200 253.778,276.972 256.000,276.206 256.000 C 275.895 256.000,275.466 256.310,275.254 256.689 C 274.692 257.694,272.781 256.920,272.058 255.395 C 271.747 254.738,271.156 253.534,270.746 252.721 C 270.336 251.907,270.000 250.786,270.000 250.229 C 270.000 249.672,269.733 248.538,269.406 247.708 C 269.079 246.879,268.626 244.760,268.399 243.000 C 268.172 241.240,267.880 239.123,267.749 238.294 C 267.618 237.466,267.690 236.566,267.909 236.294 C 268.128 236.023,268.427 235.242,268.572 234.561 C 268.718 233.879,269.459 232.719,270.218 231.982 C 270.978 231.246,271.600 230.427,271.600 230.163 C 271.600 229.900,272.426 228.810,273.436 227.742 L 275.272 225.800 279.467 225.800 C 284.255 225.800,286.518 224.221,284.300 222.427 C 284.025 222.205,283.279 221.568,282.642 221.011 C 281.245 219.792,280.053 219.728,278.691 220.800 C 278.131 221.240,277.424 221.600,277.119 221.600 C 276.531 221.600,273.076 224.804,271.906 226.434 C 267.253 232.916,265.721 232.930,265.054 226.493 C 264.554 221.666,260.522 218.761,257.000 220.689 M250.000 223.600 C 250.000 224.108,251.214 224.108,252.000 223.600 C 252.455 223.306,252.286 223.211,251.300 223.206 C 250.585 223.203,250.000 223.380,250.000 223.600 " stroke="none" fill="#ee391e" fill-rule="evenodd"></path><path id="path3" d="M348.300 181.460 C 347.695 181.566,347.200 181.909,347.200 182.222 C 347.200 182.566,346.844 182.764,346.300 182.722 C 342.816 182.456,337.600 189.155,337.600 193.895 C 337.600 197.031,340.097 197.705,341.039 194.824 C 341.883 192.246,345.064 188.937,347.059 188.563 C 349.507 188.103,353.180 188.628,354.049 189.561 C 354.474 190.017,355.245 190.496,355.761 190.626 C 356.865 190.903,356.921 191.223,356.967 197.459 C 356.994 201.096,356.877 202.054,356.331 202.659 C 355.963 203.066,355.542 203.882,355.395 204.471 C 355.248 205.060,354.884 205.636,354.586 205.750 C 354.288 205.864,353.924 206.597,353.778 207.378 C 353.591 208.373,353.195 208.949,352.456 209.299 C 351.875 209.575,351.130 210.374,350.800 211.075 C 350.470 211.776,349.805 212.532,349.321 212.756 C 348.838 212.980,348.118 213.664,347.721 214.275 C 347.325 214.886,345.720 216.649,344.155 218.193 C 342.590 219.737,341.099 221.405,340.841 221.900 C 340.583 222.395,340.159 222.800,339.899 222.800 C 338.876 222.800,337.558 224.929,337.681 226.384 L 337.800 227.800 350.900 227.905 C 362.710 228.001,364.000 227.948,364.000 227.368 C 364.000 227.014,364.368 226.629,364.818 226.511 C 366.483 226.076,368.495 220.152,367.362 219.019 C 366.907 218.564,366.928 218.436,367.499 218.217 C 368.082 217.994,368.094 217.904,367.589 217.585 C 366.603 216.961,366.201 217.132,364.347 218.959 C 362.198 221.079,359.899 221.485,352.645 221.026 C 347.392 220.693,347.542 220.778,349.358 219.183 C 350.151 218.487,350.800 217.760,350.800 217.568 C 350.800 217.376,351.933 216.090,353.318 214.709 C 356.590 211.448,361.200 205.747,361.200 204.961 C 361.200 204.623,361.805 203.773,362.544 203.073 C 365.758 200.030,365.673 187.214,362.432 186.161 C 361.661 185.910,361.271 185.603,361.525 185.446 C 362.219 185.018,360.487 183.283,359.051 182.967 C 358.369 182.818,357.622 182.437,357.391 182.121 C 356.955 181.524,350.578 181.060,348.300 181.460 M355.934 182.966 C 356.535 183.277,357.690 183.656,358.500 183.808 C 359.414 183.979,360.061 184.362,360.205 184.817 C 360.334 185.221,361.105 186.135,361.919 186.850 L 363.400 188.149 363.532 193.533 C 363.653 198.475,363.596 199.009,362.832 200.042 C 362.374 200.661,362.000 201.331,362.000 201.530 C 362.000 201.729,361.667 202.321,361.261 202.846 C 360.855 203.371,360.401 204.295,360.253 204.900 C 360.106 205.505,359.815 206.000,359.609 206.000 C 359.078 206.000,357.200 208.091,357.200 208.682 C 357.200 208.951,356.795 209.385,356.300 209.645 C 355.805 209.905,355.130 210.484,354.800 210.931 C 354.470 211.378,353.639 212.296,352.953 212.972 C 344.494 221.307,344.673 222.801,354.129 222.798 C 361.144 222.795,362.631 222.483,364.637 220.591 C 366.725 218.622,367.852 220.155,366.025 222.478 C 365.598 223.020,365.131 223.934,364.987 224.511 C 364.420 226.768,360.785 227.094,339.319 226.812 L 338.438 226.800 339.419 225.742 C 339.959 225.159,340.406 224.484,340.413 224.242 C 340.431 223.647,341.831 222.000,342.318 222.000 C 342.533 222.000,342.976 221.595,343.303 221.100 C 343.630 220.605,345.181 218.858,346.749 217.218 C 348.317 215.577,349.600 214.092,349.600 213.918 C 349.600 213.743,349.874 213.600,350.210 213.600 C 350.545 213.600,350.987 213.195,351.192 212.700 C 351.700 211.470,352.856 210.167,353.700 209.871 C 354.097 209.731,354.400 209.220,354.400 208.691 C 354.400 208.177,355.020 207.080,355.777 206.253 C 356.780 205.158,357.274 204.132,357.596 202.475 C 357.839 201.224,358.239 199.363,358.484 198.340 C 358.810 196.983,358.812 196.173,358.490 195.340 C 358.247 194.713,357.930 193.426,357.786 192.480 C 357.641 191.534,357.315 190.595,357.061 190.394 C 356.808 190.192,355.970 189.508,355.200 188.873 C 351.465 185.791,346.920 185.741,343.971 188.750 C 343.405 189.328,342.458 190.142,341.866 190.560 C 341.149 191.066,340.711 191.818,340.551 192.816 C 340.255 194.669,338.400 195.898,338.400 194.240 C 338.400 193.722,338.670 193.074,339.000 192.800 C 339.330 192.526,339.600 192.072,339.600 191.791 C 339.600 189.490,344.330 183.608,346.191 183.594 C 346.636 183.591,347.810 183.333,348.800 183.021 C 351.151 182.280,354.557 182.254,355.934 182.966 M226.248 197.900 C 225.934 198.505,225.192 199.450,224.600 200.000 C 224.008 200.550,223.250 201.527,222.915 202.172 C 222.580 202.816,221.607 204.227,220.753 205.308 C 219.899 206.388,219.200 207.582,219.200 207.961 C 219.200 208.340,218.660 209.049,218.001 209.536 C 217.341 210.024,216.540 211.048,216.221 211.812 C 215.902 212.575,215.464 213.200,215.247 213.200 C 215.031 213.200,214.746 213.539,214.615 213.952 C 214.484 214.366,214.009 215.129,213.559 215.647 C 213.110 216.165,212.650 217.050,212.537 217.614 C 212.424 218.178,211.942 218.811,211.466 219.020 C 210.990 219.229,210.310 219.981,209.955 220.690 C 209.601 221.400,208.674 222.685,207.896 223.546 C 207.118 224.407,206.360 225.495,206.212 225.963 C 206.063 226.432,205.396 227.396,204.729 228.107 C 204.062 228.818,203.281 229.940,202.993 230.600 C 202.705 231.260,201.988 232.250,201.400 232.800 C 200.812 233.350,200.075 234.340,199.764 235.000 C 199.452 235.660,198.664 236.920,198.012 237.800 C 196.631 239.664,196.213 245.015,197.374 245.978 C 197.922 246.434,201.653 246.578,217.257 246.746 C 223.350 246.811,222.815 246.069,223.067 254.800 C 223.172 258.430,223.434 261.580,223.649 261.800 C 224.201 262.365,230.378 262.551,231.700 262.043 L 232.800 261.620 232.800 254.886 C 232.800 246.548,232.648 246.825,237.369 246.562 C 242.310 246.287,242.400 246.216,242.400 242.610 C 242.400 239.001,242.520 239.088,237.202 238.816 L 233.000 238.600 232.800 218.268 C 232.572 195.063,232.885 196.800,228.934 196.800 C 227.034 196.800,226.763 196.911,226.248 197.900 M230.950 200.339 C 231.082 201.142,231.193 210.082,231.196 220.204 C 231.201 241.586,230.599 239.360,236.491 239.802 C 240.745 240.121,240.783 240.151,240.795 243.276 C 240.802 245.179,240.566 245.294,236.516 245.352 C 231.438 245.425,231.205 245.806,231.202 254.024 C 231.200 261.654,231.182 261.690,227.590 261.521 L 225.000 261.400 224.768 254.000 C 224.641 249.930,224.506 246.576,224.468 246.546 C 222.897 245.291,221.318 245.133,211.266 245.223 C 205.620 245.275,200.415 245.290,199.700 245.258 L 198.400 245.200 198.400 242.656 C 198.400 240.051,200.080 235.878,201.451 235.080 C 201.753 234.904,202.000 234.570,202.000 234.338 C 202.000 234.106,202.450 233.381,203.000 232.727 C 203.550 232.073,204.000 231.316,204.000 231.045 C 204.000 230.773,204.524 230.163,205.164 229.690 C 205.805 229.216,206.538 228.192,206.795 227.414 C 207.052 226.637,207.415 226.000,207.603 226.000 C 207.965 226.000,210.400 222.568,210.400 222.058 C 210.400 221.893,211.022 221.154,211.782 220.418 C 212.541 219.681,213.273 218.579,213.407 217.969 C 213.541 217.358,214.088 216.572,214.622 216.222 C 215.157 215.872,216.029 214.734,216.561 213.693 C 217.093 212.652,218.084 211.183,218.764 210.428 C 219.444 209.673,220.000 208.825,220.000 208.543 C 220.000 208.262,220.720 207.318,221.600 206.447 C 222.480 205.576,223.200 204.577,223.200 204.229 C 223.200 203.880,223.650 203.203,224.200 202.725 C 224.750 202.247,225.200 201.613,225.200 201.315 C 225.200 201.018,225.463 200.674,225.785 200.550 C 226.106 200.427,226.475 199.994,226.604 199.588 C 227.173 197.794,230.627 198.390,230.950 200.339 M295.101 207.265 C 294.227 207.584,294.048 207.850,294.226 208.563 C 294.361 209.101,294.218 209.653,293.867 209.944 C 293.178 210.516,293.422 211.976,294.328 212.700 C 295.139 213.349,330.822 213.430,332.026 212.786 C 332.849 212.346,333.171 209.600,332.400 209.600 C 332.180 209.600,332.000 209.146,332.000 208.590 C 332.000 207.874,331.701 207.467,330.974 207.190 C 329.586 206.662,296.561 206.731,295.101 207.265 M330.898 209.949 C 331.569 212.537,332.569 212.400,312.990 212.400 L 295.154 212.400 295.277 210.716 C 295.444 208.429,294.784 208.505,313.974 208.556 L 330.549 208.600 330.898 209.949 M222.405 210.721 C 220.853 211.779,219.611 213.300,219.353 214.455 C 219.224 215.035,218.591 215.900,217.948 216.376 C 217.304 216.851,216.498 217.938,216.158 218.790 C 215.817 219.641,215.282 220.437,214.969 220.557 C 214.656 220.677,214.400 221.044,214.400 221.373 C 214.400 221.703,214.040 222.165,213.600 222.400 C 213.160 222.635,212.800 223.175,212.800 223.599 C 212.800 224.022,212.080 225.082,211.200 225.953 C 210.320 226.824,209.600 227.823,209.600 228.171 C 209.600 228.520,209.150 229.197,208.600 229.675 C 208.050 230.153,207.600 230.754,207.600 231.010 C 207.600 231.266,207.240 231.802,206.800 232.200 C 206.360 232.598,206.000 233.132,206.000 233.387 C 206.000 233.642,205.473 234.355,204.829 234.972 C 203.231 236.503,202.542 238.207,203.200 239.000 C 203.843 239.775,222.115 239.895,223.781 239.136 L 224.800 238.672 224.800 224.969 C 224.800 208.914,224.826 209.069,222.405 210.721 M222.890 226.026 L 222.967 238.600 213.550 238.707 L 204.133 238.814 204.133 237.607 C 204.133 236.744,204.325 236.400,204.805 236.400 C 205.624 236.400,206.601 235.341,207.007 234.015 C 207.172 233.474,207.737 232.693,208.262 232.280 C 208.787 231.867,209.509 230.960,209.867 230.265 C 210.225 229.569,211.107 228.279,211.827 227.398 C 212.547 226.517,213.257 225.312,213.406 224.719 C 213.555 224.127,214.105 223.361,214.630 223.017 C 215.154 222.674,215.882 221.809,216.248 221.096 C 216.613 220.383,217.292 219.321,217.756 218.736 C 219.791 216.169,220.060 215.745,220.258 214.780 C 220.469 213.758,221.932 212.730,222.506 213.201 C 222.675 213.340,222.848 219.111,222.890 226.026 M253.207 220.393 C 248.701 221.910,247.163 223.518,248.801 225.001 C 249.496 225.629,249.808 225.664,251.148 225.263 C 254.640 224.217,256.387 225.194,257.016 228.545 C 257.166 229.345,257.494 230.000,257.745 230.000 C 257.995 230.000,258.224 230.405,258.253 230.900 C 258.351 232.561,259.208 238.585,259.561 240.088 C 259.821 241.197,259.772 241.692,259.366 242.028 C 259.066 242.277,258.713 243.055,258.582 243.758 C 258.435 244.537,258.002 245.185,257.471 245.418 C 256.992 245.628,256.286 246.430,255.903 247.200 C 255.520 247.970,254.961 248.781,254.661 249.002 C 254.361 249.223,253.481 250.393,252.706 251.602 C 250.312 255.333,249.537 255.739,245.918 255.155 C 241.126 254.383,239.200 255.428,239.200 258.800 C 239.200 261.054,240.019 262.217,241.890 262.618 C 242.500 262.748,243.413 263.023,243.919 263.228 C 245.695 263.947,249.629 262.736,251.307 260.952 C 253.677 258.433,256.400 254.607,256.400 253.795 C 256.400 253.125,256.659 252.819,257.300 252.728 C 257.845 252.650,258.459 252.082,258.856 251.287 C 260.340 248.316,262.000 247.659,262.000 250.043 C 262.000 250.470,262.360 251.844,262.800 253.096 C 263.240 254.348,263.600 255.741,263.600 256.192 C 263.600 256.643,263.932 257.639,264.339 258.406 C 264.745 259.173,265.193 260.272,265.334 260.849 C 265.505 261.553,266.020 262.058,266.895 262.383 C 267.613 262.649,268.513 263.032,268.895 263.233 C 271.529 264.624,279.200 259.966,279.200 256.976 C 279.200 256.432,279.435 256.000,279.730 256.000 C 280.409 256.000,281.832 254.452,282.164 253.353 C 282.950 250.753,279.890 249.147,278.633 251.500 C 276.208 256.038,272.763 256.760,272.243 252.838 C 272.097 251.743,271.713 250.212,271.389 249.436 C 271.065 248.660,270.800 247.629,270.800 247.144 C 270.800 246.660,270.546 245.979,270.235 245.631 C 268.776 244.000,268.638 234.400,270.074 234.400 C 270.300 234.400,270.386 234.139,270.263 233.820 C 270.127 233.465,270.356 233.141,270.857 232.982 C 271.306 232.839,271.924 232.123,272.230 231.389 C 273.523 228.295,277.098 225.833,278.624 226.987 C 279.532 227.675,281.200 227.792,281.200 227.169 C 281.200 226.919,281.802 226.791,282.641 226.863 C 285.493 227.109,286.761 222.584,284.479 220.302 C 282.662 218.484,277.308 219.006,275.479 221.179 C 274.958 221.798,274.141 222.428,273.662 222.580 C 273.183 222.732,272.504 223.411,272.154 224.089 C 271.803 224.767,270.980 225.774,270.324 226.326 C 269.668 226.877,268.971 227.750,268.775 228.265 C 268.408 229.231,267.780 229.429,266.883 228.860 C 266.598 228.679,266.160 227.291,265.909 225.776 C 264.813 219.167,261.287 217.672,253.207 220.393 M263.123 222.193 C 264.498 223.953,264.879 224.802,265.054 226.493 C 265.721 232.930,267.253 232.916,271.906 226.434 C 273.076 224.804,276.531 221.600,277.119 221.600 C 277.424 221.600,278.131 221.240,278.691 220.800 C 280.053 219.728,281.245 219.792,282.642 221.011 C 283.279 221.568,284.025 222.205,284.300 222.427 C 286.518 224.221,284.255 225.800,279.467 225.800 L 275.272 225.800 273.436 227.742 C 272.426 228.810,271.600 229.900,271.600 230.163 C 271.600 230.427,270.978 231.246,270.218 231.982 C 269.459 232.719,268.718 233.879,268.572 234.561 C 268.427 235.242,268.128 236.023,267.909 236.294 C 267.690 236.566,267.618 237.466,267.749 238.294 C 267.880 239.123,268.172 241.240,268.399 243.000 C 268.626 244.760,269.079 246.879,269.406 247.708 C 269.733 248.538,270.000 249.672,270.000 250.229 C 270.000 250.786,270.336 251.907,270.746 252.721 C 271.156 253.534,271.747 254.738,272.058 255.395 C 272.781 256.920,274.692 257.694,275.254 256.689 C 275.466 256.310,275.895 256.000,276.206 256.000 C 276.972 256.000,279.200 253.778,279.200 253.013 C 279.200 252.626,279.568 252.400,280.200 252.400 C 280.750 252.400,281.200 252.497,281.200 252.616 C 281.200 253.124,279.408 255.200,278.969 255.200 C 278.705 255.200,278.373 255.819,278.231 256.576 C 278.049 257.548,277.586 258.190,276.655 258.766 C 275.930 259.214,275.139 260.016,274.897 260.548 C 274.350 261.748,270.697 262.326,268.094 261.625 C 266.553 261.210,266.439 261.075,266.029 259.162 C 265.791 258.049,265.383 256.747,265.124 256.269 C 264.865 255.791,264.523 254.680,264.366 253.800 C 263.919 251.312,262.318 247.143,261.720 246.914 C 261.145 246.693,258.411 249.103,258.404 249.836 C 258.402 250.075,257.787 250.830,257.037 251.512 C 256.287 252.194,255.553 253.303,255.405 253.976 C 255.257 254.649,254.889 255.200,254.587 255.200 C 254.285 255.200,253.714 255.670,253.319 256.243 C 252.923 256.817,251.630 258.302,250.444 259.543 L 248.288 261.800 245.139 261.800 C 242.124 261.800,241.947 261.749,241.009 260.600 C 238.445 257.461,243.047 254.417,247.188 256.512 C 248.703 257.278,252.800 255.162,252.800 253.613 C 252.800 253.249,253.337 252.553,253.993 252.068 C 254.649 251.583,255.554 250.379,256.003 249.393 C 256.452 248.407,256.995 247.600,257.210 247.600 C 257.424 247.600,257.600 247.336,257.600 247.014 C 257.600 246.692,257.958 246.237,258.395 246.003 C 258.833 245.768,259.308 245.087,259.452 244.488 C 259.595 243.890,260.070 243.057,260.506 242.638 C 261.429 241.752,261.297 238.218,260.282 236.669 C 259.969 236.191,259.581 234.394,259.420 232.676 C 259.259 230.957,258.875 229.067,258.566 228.476 C 258.257 227.884,257.999 227.130,257.992 226.800 C 257.975 225.936,254.977 222.883,253.997 222.730 C 252.683 222.524,252.953 221.822,254.442 221.573 C 255.189 221.448,256.340 221.050,257.000 220.689 C 259.501 219.320,261.206 219.739,263.123 222.193 M252.000 223.600 C 251.214 224.108,250.000 224.108,250.000 223.600 C 250.000 223.380,250.585 223.203,251.300 223.206 C 252.286 223.211,252.455 223.306,252.000 223.600 M398.709 226.500 C 398.379 227.432,398.997 231.336,399.500 231.502 C 399.868 231.623,400.000 230.921,400.000 228.833 C 400.000 226.157,399.286 224.866,398.709 226.500 M398.666 246.869 C 398.395 247.906,398.639 248.400,399.424 248.400 C 399.797 248.400,400.000 247.978,400.000 247.200 C 400.000 245.787,399.013 245.543,398.666 246.869 " stroke="none" fill="#f08672" fill-rule="evenodd"></path><path id="path4" d="M346.000 182.400 C 346.000 182.620,346.270 182.800,346.600 182.800 C 346.930 182.800,347.200 182.620,347.200 182.400 C 347.200 182.180,346.930 182.000,346.600 182.000 C 346.270 182.000,346.000 182.180,346.000 182.400 M364.914 193.400 C 364.917 194.500,364.995 194.903,365.087 194.295 C 365.179 193.686,365.177 192.786,365.082 192.295 C 364.987 191.803,364.911 192.300,364.914 193.400 M293.600 209.000 C 293.600 209.596,293.772 209.941,294.000 209.800 C 294.220 209.664,294.400 209.304,294.400 209.000 C 294.400 208.696,294.220 208.336,294.000 208.200 C 293.772 208.059,293.600 208.404,293.600 209.000 M332.000 208.776 C 332.000 209.229,332.180 209.600,332.400 209.600 C 332.620 209.600,332.800 209.341,332.800 209.024 C 332.800 208.707,332.620 208.336,332.400 208.200 C 332.180 208.064,332.000 208.323,332.000 208.776 M367.304 218.264 C 366.933 218.414,366.967 218.624,367.440 219.097 C 367.964 219.621,368.130 219.636,368.410 219.184 C 368.979 218.263,368.432 217.808,367.304 218.264 M55.687 220.873 C 54.574 221.986,55.696 224.800,57.253 224.800 C 58.117 224.800,60.074 226.542,60.511 227.700 C 60.656 228.085,60.941 228.400,61.144 228.400 C 61.347 228.400,61.634 228.881,61.781 229.468 C 61.929 230.056,62.398 230.980,62.825 231.522 C 63.251 232.064,63.600 232.770,63.600 233.091 C 63.600 233.411,63.960 234.131,64.400 234.691 C 64.840 235.250,65.200 235.963,65.200 236.275 C 65.200 236.760,66.033 238.580,67.271 240.800 C 67.455 241.130,67.764 241.760,67.957 242.200 C 68.986 244.541,69.224 245.051,69.543 245.600 C 70.298 246.899,72.000 250.703,72.000 251.091 C 72.000 251.317,72.241 251.702,72.535 251.946 C 72.830 252.191,73.287 253.113,73.551 253.995 C 73.816 254.878,74.197 255.600,74.398 255.600 C 74.599 255.600,74.881 256.224,75.024 256.986 C 75.167 257.748,75.535 258.580,75.842 258.835 C 76.560 259.431,76.560 260.969,75.842 261.565 C 75.535 261.820,75.160 262.697,75.008 263.514 C 74.856 264.331,74.499 265.270,74.213 265.600 C 73.928 265.930,73.560 266.650,73.395 267.200 C 73.230 267.750,72.759 268.678,72.348 269.262 C 71.936 269.846,71.600 270.513,71.600 270.744 C 71.600 271.387,69.458 271.609,64.315 271.500 L 59.630 271.400 58.431 272.800 C 56.398 275.174,57.364 280.800,59.805 280.800 C 60.085 280.800,60.418 281.070,60.545 281.400 C 60.931 282.407,67.595 282.245,68.800 281.200 C 69.307 280.760,70.014 280.400,70.370 280.400 C 71.223 280.400,75.157 276.630,76.423 274.600 C 78.275 271.628,78.405 271.402,78.836 270.400 C 79.073 269.850,79.611 268.734,80.033 267.921 C 80.455 267.107,80.801 266.117,80.803 265.721 C 80.804 265.324,81.163 264.460,81.600 263.800 C 82.037 263.140,82.397 262.240,82.400 261.800 C 82.403 261.360,82.763 260.460,83.200 259.800 C 83.637 259.140,83.997 258.240,84.000 257.800 C 84.003 257.360,84.363 256.460,84.800 255.800 C 85.237 255.140,85.596 254.219,85.597 253.754 C 85.599 253.289,85.934 252.479,86.342 251.954 C 86.750 251.429,87.206 250.338,87.355 249.529 C 87.504 248.720,87.809 247.997,88.034 247.922 C 88.259 247.847,88.618 247.006,88.833 246.053 C 89.047 245.101,89.465 244.078,89.763 243.780 C 90.060 243.483,90.428 242.575,90.581 241.762 C 90.733 240.950,91.115 240.028,91.429 239.714 C 91.743 239.400,92.113 238.436,92.251 237.572 C 92.389 236.707,92.652 236.000,92.835 236.000 C 93.018 236.000,93.386 235.235,93.653 234.300 C 93.920 233.365,94.375 232.318,94.664 231.974 C 94.954 231.629,95.314 230.729,95.464 229.974 C 96.245 226.053,99.329 223.820,100.762 226.139 C 101.232 226.899,101.897 227.628,102.241 227.760 C 103.071 228.079,147.751 228.071,148.582 227.752 C 150.450 227.035,150.876 223.803,149.300 222.302 L 148.200 221.254 124.847 221.213 C 110.700 221.188,101.210 221.020,100.774 220.786 C 99.688 220.205,87.473 220.287,86.880 220.880 C 85.623 222.137,86.478 224.103,88.502 224.611 C 89.782 224.932,90.137 227.856,89.011 228.791 C 88.686 229.060,88.304 229.937,88.160 230.740 C 88.016 231.543,87.665 232.470,87.380 232.800 C 87.096 233.130,86.731 233.940,86.570 234.600 C 86.409 235.260,85.945 236.427,85.539 237.194 C 85.132 237.961,84.800 238.922,84.800 239.331 C 84.800 239.740,84.440 240.531,84.000 241.091 C 83.560 241.650,83.200 242.457,83.200 242.883 C 83.200 243.309,82.714 244.486,82.121 245.499 L 81.042 247.340 80.744 246.227 C 80.580 245.615,80.187 244.818,79.870 244.457 C 79.554 244.096,79.162 243.350,79.000 242.800 C 78.838 242.250,78.481 241.530,78.206 241.200 C 77.932 240.870,77.593 240.118,77.453 239.528 C 77.313 238.938,76.951 238.208,76.648 237.905 C 76.345 237.602,75.974 236.792,75.823 236.105 C 75.672 235.418,75.302 234.650,75.000 234.400 C 74.698 234.150,74.338 233.430,74.200 232.800 C 74.062 232.170,73.700 231.449,73.396 231.197 C 72.804 230.705,71.858 226.817,72.071 225.749 C 72.142 225.394,72.824 224.900,73.587 224.652 C 75.288 224.097,76.418 222.353,75.757 221.303 C 75.190 220.405,56.555 220.005,55.687 220.873 M75.000 222.000 C 75.000 222.330,74.068 223.099,72.930 223.709 C 70.543 224.989,69.928 226.400,70.933 228.289 C 71.258 228.900,71.970 230.390,72.515 231.600 C 73.851 234.564,78.784 244.850,79.231 245.600 C 79.427 245.930,79.852 246.785,80.174 247.500 C 81.196 249.770,82.139 248.691,84.584 242.449 C 85.328 240.552,86.219 238.460,86.565 237.800 C 86.912 237.140,87.196 236.374,87.198 236.099 C 87.199 235.823,87.560 234.925,88.000 234.104 C 88.440 233.284,88.800 232.334,88.800 231.995 C 88.800 231.656,89.087 230.969,89.437 230.468 C 91.266 227.858,90.578 223.452,88.292 223.127 C 87.709 223.044,87.400 222.723,87.400 222.200 C 87.400 221.246,98.748 220.727,99.837 221.631 C 100.598 222.262,99.937 223.363,98.423 223.990 C 97.235 224.483,94.800 227.628,94.800 228.670 C 94.800 228.963,94.440 229.875,94.000 230.696 C 93.560 231.516,93.199 232.461,93.197 232.794 C 93.196 233.127,92.837 233.940,92.400 234.600 C 91.963 235.260,91.604 236.073,91.603 236.406 C 91.601 236.739,91.240 237.684,90.800 238.504 C 90.360 239.325,90.000 240.203,90.000 240.455 C 90.000 240.706,89.658 241.652,89.240 242.556 C 88.823 243.460,88.002 245.370,87.418 246.800 C 86.833 248.230,86.095 249.878,85.777 250.462 C 85.460 251.046,85.194 251.766,85.187 252.062 C 85.181 252.358,84.732 253.500,84.191 254.600 C 83.650 255.700,83.206 256.904,83.204 257.276 C 83.202 257.648,83.033 258.056,82.829 258.182 C 82.625 258.308,82.247 259.084,81.989 259.906 C 81.732 260.728,81.207 262.120,80.825 263.000 C 80.442 263.880,79.721 265.590,79.223 266.800 C 74.590 278.052,67.216 283.569,61.027 280.414 C 55.162 277.423,58.667 270.863,65.322 272.375 C 69.350 273.290,69.484 273.294,70.652 272.539 C 72.238 271.514,73.547 269.986,73.856 268.800 C 74.103 267.852,74.546 266.881,76.400 263.221 C 77.572 260.906,77.408 259.284,75.642 255.732 C 74.786 254.010,73.887 252.150,73.645 251.600 C 73.404 251.050,73.045 250.330,72.848 250.000 C 72.410 249.268,69.398 242.986,68.819 241.600 C 68.590 241.050,68.232 240.330,68.025 240.000 C 67.818 239.670,67.181 238.320,66.609 237.000 C 66.037 235.680,65.396 234.330,65.184 234.000 C 64.972 233.670,64.615 232.950,64.392 232.400 C 62.876 228.666,60.066 224.954,58.148 224.153 C 56.772 223.578,55.786 222.271,56.210 221.584 C 56.653 220.867,75.000 221.273,75.000 222.000 M149.129 224.124 C 149.401 226.495,150.388 226.400,125.431 226.400 C 108.176 226.400,102.442 226.282,102.080 225.920 C 101.565 225.405,101.425 223.508,101.870 223.063 C 102.018 222.915,112.683 222.840,125.570 222.897 L 149.000 223.000 149.129 224.124 M364.267 226.667 C 363.603 227.330,364.001 228.027,364.800 227.600 C 365.240 227.365,365.600 226.998,365.600 226.786 C 365.600 226.347,364.669 226.264,364.267 226.667 M281.038 227.444 C 280.834 227.976,280.984 228.041,281.895 227.816 C 283.587 227.398,283.956 226.800,282.523 226.800 C 281.754 226.800,281.192 227.044,281.038 227.444 M101.229 236.654 C 100.035 238.171,100.139 240.137,101.468 241.182 C 102.525 242.014,102.752 242.021,125.510 241.987 L 148.484 241.952 149.442 240.994 C 150.607 239.830,150.654 238.622,149.604 236.900 L 148.812 235.600 125.435 235.600 L 102.058 235.600 101.229 236.654 M204.000 236.776 C 204.000 237.447,204.709 237.613,204.946 236.998 C 205.085 236.635,204.944 236.400,204.587 236.400 C 204.264 236.400,204.000 236.569,204.000 236.776 M149.051 238.262 C 149.665 240.708,150.759 240.600,125.400 240.600 C 100.041 240.600,101.135 240.708,101.749 238.262 L 102.015 237.200 125.400 237.200 L 148.785 237.200 149.051 238.262 M399.067 244.667 C 398.579 245.154,398.791 246.000,399.400 246.000 C 399.733 246.000,400.000 245.644,400.000 245.200 C 400.000 244.403,399.574 244.160,399.067 244.667 M202.305 246.683 C 202.802 246.779,203.522 246.775,203.905 246.675 C 204.287 246.575,203.880 246.496,203.000 246.501 C 202.120 246.505,201.807 246.587,202.305 246.683 M398.568 248.662 C 398.696 248.994,398.800 249.521,398.800 249.833 C 398.800 250.145,399.070 250.400,399.400 250.400 C 400.361 250.400,400.157 248.534,399.168 248.276 C 398.544 248.113,398.394 248.209,398.568 248.662 M256.400 253.449 C 256.400 253.980,256.509 254.008,257.000 253.600 C 257.330 253.326,257.600 253.034,257.600 252.951 C 257.600 252.868,257.330 252.800,257.000 252.800 C 256.670 252.800,256.400 253.092,256.400 253.449 M279.200 256.649 C 279.200 257.180,279.309 257.208,279.800 256.800 C 280.130 256.526,280.400 256.234,280.400 256.151 C 280.400 256.068,280.130 256.000,279.800 256.000 C 279.470 256.000,279.200 256.292,279.200 256.649 " stroke="none" fill="#9a9a9a" fill-rule="evenodd"></path></g></svg>