<svg id="svg" version="1.1" xmlns="http://www.w3.org/2000/svg" xmlns:xlink="http://www.w3.org/1999/xlink" width="400" height="358.05243445692884" viewBox="0, 0, 400,358.05243445692884"><g id="svgg"><path id="path0" d="M0.000 179.051 L 0.000 358.102 200.000 358.102 L 400.000 358.102 400.000 257.918 L 400.000 157.735 399.194 157.381 C 398.462 157.060,398.389 156.784,398.389 154.342 C 398.389 151.900,398.462 151.624,399.194 151.303 C 400.239 150.844,400.487 140.734,399.454 140.734 C 398.713 140.734,398.209 139.267,398.209 137.106 C 398.209 135.115,398.682 133.930,399.475 133.930 C 399.934 133.930,400.000 125.536,400.000 66.965 L 400.000 0.000 200.000 0.000 L 0.000 0.000 0.000 179.051 M360.576 88.424 C 361.000 88.692,361.068 91.380,361.003 105.258 C 360.905 126.010,360.945 126.498,362.813 127.472 C 363.583 127.873,364.504 128.201,364.862 128.201 C 365.914 128.201,366.895 129.500,366.344 130.163 C 365.704 130.935,349.296 130.976,348.247 130.209 C 347.152 129.408,348.895 127.997,352.235 126.981 C 353.344 126.643,353.447 125.224,353.447 110.290 C 353.447 95.238,353.415 94.897,352.013 94.897 C 351.471 94.897,350.827 95.139,350.582 95.434 C 349.981 96.159,347.858 96.139,347.577 95.406 C 347.171 94.348,347.751 93.179,348.912 92.714 C 349.535 92.464,350.429 91.967,350.899 91.609 C 351.368 91.251,351.988 90.958,352.275 90.958 C 352.562 90.958,353.206 90.636,353.707 90.242 C 354.208 89.848,354.852 89.526,355.140 89.526 C 355.427 89.526,356.071 89.203,356.572 88.809 C 357.523 88.061,359.677 87.854,360.576 88.424 M240.848 108.296 C 241.819 108.575,243.298 108.911,244.134 109.043 C 244.970 109.175,245.747 109.433,245.860 109.616 C 245.973 109.799,246.578 110.163,247.204 110.425 C 249.414 111.348,253.533 116.312,253.538 118.058 C 253.540 118.417,253.800 119.194,254.117 119.785 C 254.879 121.206,255.157 125.125,254.651 127.330 C 253.810 131.001,253.173 132.985,252.647 133.565 C 252.348 133.895,252.104 134.517,252.104 134.947 C 252.104 135.376,251.782 136.004,251.388 136.341 C 250.994 136.678,250.669 137.120,250.665 137.322 C 250.658 137.716,248.969 140.313,248.133 141.215 C 247.855 141.515,247.027 142.456,246.293 143.306 C 242.693 147.477,241.764 148.531,240.107 150.326 C 238.355 152.225,233.040 157.845,231.823 159.087 C 231.238 159.683,231.675 159.714,240.896 159.714 C 249.070 159.714,250.653 159.630,251.030 159.176 C 251.275 158.881,251.673 158.639,251.914 158.639 C 252.155 158.639,253.062 157.810,253.929 156.796 C 256.146 154.204,256.385 153.984,256.987 153.984 C 258.619 153.984,259.779 156.026,258.791 157.159 C 258.511 157.481,258.177 158.332,258.048 159.051 C 257.920 159.770,257.594 160.541,257.324 160.765 C 257.055 160.988,256.725 161.752,256.592 162.461 C 256.459 163.170,256.040 164.330,255.660 165.039 C 255.280 165.748,254.969 166.607,254.969 166.947 C 254.969 168.227,253.891 168.308,236.998 168.303 C 214.704 168.297,215.402 168.699,223.425 160.482 C 225.608 158.246,227.395 156.363,227.395 156.297 C 227.395 156.231,228.765 154.774,230.439 153.058 C 232.113 151.341,233.483 149.800,233.483 149.633 C 233.483 149.466,233.724 149.329,234.020 149.329 C 234.315 149.329,234.557 149.156,234.557 148.944 C 234.557 148.733,235.421 147.541,236.478 146.295 C 237.534 145.050,238.622 143.761,238.895 143.431 C 239.168 143.101,239.673 142.521,240.018 142.141 C 240.363 141.761,240.645 141.230,240.645 140.961 C 240.645 140.693,240.937 140.088,241.295 139.619 C 242.921 137.484,243.816 135.021,245.021 129.358 C 245.412 127.517,243.979 121.397,243.156 121.397 C 243.020 121.397,242.734 121.014,242.520 120.545 C 242.307 120.077,241.355 119.151,240.404 118.486 L 238.675 117.278 234.378 117.278 C 229.751 117.278,230.020 117.187,227.522 119.592 C 225.946 121.109,224.888 122.483,224.888 123.013 C 224.888 123.278,224.681 123.707,224.427 123.967 C 224.173 124.228,223.725 125.080,223.431 125.863 C 223.020 126.956,222.633 127.360,221.755 127.612 C 219.355 128.300,218.040 126.160,219.335 123.676 C 219.630 123.112,219.871 122.222,219.872 121.698 C 219.875 120.641,221.569 117.082,222.283 116.634 C 222.534 116.476,222.739 116.136,222.739 115.877 C 222.739 115.160,224.824 112.686,225.902 112.125 C 226.427 111.851,226.987 111.408,227.144 111.140 C 227.302 110.872,227.658 110.654,227.936 110.654 C 228.214 110.654,228.746 110.327,229.118 109.927 C 229.523 109.493,230.571 109.072,231.728 108.881 C 232.791 108.705,234.064 108.397,234.557 108.197 C 235.863 107.667,238.821 107.714,240.848 108.296 M171.924 111.232 C 172.200 111.450,172.899 111.742,173.476 111.881 C 174.054 112.019,174.962 112.485,175.493 112.915 C 176.025 113.345,176.962 114.098,177.576 114.589 C 178.190 115.079,178.693 115.630,178.693 115.814 C 178.693 115.997,178.970 116.454,179.309 116.829 C 180.757 118.429,181.588 123.614,180.698 125.491 C 180.383 126.154,180.125 127.014,180.125 127.401 C 180.125 127.787,179.803 128.514,179.409 129.014 C 179.015 129.515,178.693 130.043,178.693 130.188 C 178.693 130.333,177.956 131.313,177.056 132.367 C 175.269 134.459,175.168 135.541,176.724 135.932 C 177.715 136.181,181.558 140.082,181.558 140.838 C 181.558 141.122,181.881 141.765,182.276 142.267 C 183.747 144.137,183.740 154.786,182.266 157.207 C 181.966 157.699,181.520 158.424,181.274 158.818 C 181.028 159.212,180.584 160.065,180.286 160.714 C 179.988 161.363,179.508 161.984,179.219 162.095 C 178.930 162.206,178.693 162.526,178.693 162.807 C 178.693 163.087,178.435 163.416,178.120 163.537 C 177.805 163.658,177.176 164.096,176.722 164.510 C 175.288 165.819,174.768 166.188,173.582 166.740 C 172.946 167.035,172.023 167.506,171.531 167.787 C 171.038 168.068,170.106 168.300,169.459 168.303 C 168.812 168.306,167.880 168.572,167.388 168.894 C 164.476 170.802,154.169 169.404,151.707 166.768 C 148.209 163.023,154.730 157.398,158.639 160.788 C 159.093 161.182,159.741 161.504,160.078 161.504 C 160.415 161.504,161.076 161.806,161.545 162.175 C 163.972 164.081,169.338 163.545,171.766 161.155 C 175.152 157.821,174.933 158.337,174.932 153.690 C 174.932 147.967,171.917 143.694,167.183 142.705 C 166.521 142.567,165.623 142.228,165.187 141.952 C 164.751 141.676,163.835 141.450,163.151 141.450 C 159.095 141.450,158.587 137.911,162.571 137.404 C 163.453 137.291,164.229 137.037,164.295 136.838 C 164.361 136.640,164.974 136.293,165.656 136.068 C 169.980 134.640,173.957 125.664,171.398 123.106 C 171.128 122.836,170.641 122.099,170.315 121.469 C 169.989 120.838,169.535 120.322,169.307 120.322 C 169.078 120.322,168.513 119.967,168.051 119.533 C 166.782 118.340,161.349 118.329,160.161 119.517 C 159.718 119.960,159.175 120.322,158.955 120.322 C 158.579 120.322,156.718 122.133,155.330 123.849 C 154.634 124.710,152.627 124.910,151.907 124.190 C 151.399 123.682,151.335 122.243,151.808 121.951 C 151.990 121.838,152.246 121.254,152.379 120.652 C 152.511 120.050,152.831 119.476,153.090 119.377 C 153.349 119.278,153.654 118.825,153.768 118.372 C 154.147 116.862,159.221 112.086,160.447 112.086 C 160.636 112.086,161.394 111.754,162.132 111.348 C 163.637 110.521,170.918 110.434,171.924 111.232 M338.180 112.186 C 339.220 112.946,338.868 116.403,337.690 116.996 C 336.398 117.647,304.606 117.647,303.312 116.996 C 302.148 116.410,301.828 113.490,302.810 112.406 C 303.594 111.539,337.011 111.331,338.180 112.186 M282.264 130.422 C 282.833 131.348,283.382 132.717,283.484 133.465 C 283.899 136.495,285.390 138.542,285.934 136.828 C 286.053 136.452,286.386 136.055,286.674 135.944 C 286.962 135.834,287.198 135.562,287.198 135.342 C 287.198 134.605,291.640 129.991,292.349 129.991 C 292.606 129.991,293.108 129.669,293.465 129.275 C 294.552 128.073,299.175 128.235,300.518 129.521 C 301.530 130.491,301.985 133.801,301.248 134.838 C 299.989 136.611,297.296 137.295,295.424 136.318 C 293.732 135.435,292.944 135.378,292.552 136.111 C 292.351 136.487,291.969 136.795,291.703 136.795 C 291.438 136.795,291.125 137.077,291.008 137.422 C 290.891 137.766,290.228 138.774,289.534 139.660 C 288.840 140.546,288.164 141.513,288.032 141.808 C 287.900 142.104,287.497 142.730,287.137 143.200 C 286.248 144.358,286.253 147.997,287.147 150.300 C 287.513 151.243,287.918 152.950,288.048 154.095 C 288.177 155.239,288.505 156.528,288.776 156.959 C 289.047 157.391,289.378 158.519,289.512 159.466 C 289.898 162.203,291.579 162.229,293.644 159.531 C 295.561 157.026,295.771 156.849,296.821 156.849 C 298.704 156.849,299.407 159.322,297.941 160.788 C 297.547 161.182,297.225 161.645,297.225 161.816 C 297.225 162.262,293.667 166.667,293.166 166.843 C 292.936 166.923,292.538 167.286,292.280 167.648 C 292.023 168.011,291.633 168.308,291.413 168.308 C 291.194 168.308,290.737 168.559,290.399 168.865 C 287.342 171.632,281.952 167.877,281.247 162.489 C 281.111 161.455,280.773 160.259,280.495 159.831 C 280.217 159.403,279.897 158.155,279.784 157.057 L 279.578 155.061 278.732 155.974 C 278.266 156.476,277.640 157.362,277.340 157.942 C 277.040 158.523,276.637 158.997,276.446 158.997 C 276.254 158.997,276.097 159.238,276.097 159.531 C 276.097 159.825,275.774 160.267,275.380 160.513 C 274.987 160.759,274.664 161.100,274.664 161.270 C 274.664 161.440,274.262 162.086,273.771 162.706 C 273.279 163.325,272.514 164.289,272.070 164.847 C 268.376 169.493,264.130 170.833,260.711 168.432 C 256.612 165.554,259.953 158.805,264.426 160.927 C 266.118 161.730,268.886 161.701,269.182 160.877 C 269.306 160.533,269.664 159.981,269.977 159.650 C 270.290 159.320,270.949 158.458,271.441 157.734 C 271.934 157.010,272.578 156.151,272.874 155.825 C 273.549 155.079,276.121 151.332,276.743 150.188 C 277.000 149.715,277.362 149.329,277.549 149.329 C 277.999 149.329,277.984 147.778,277.529 147.324 C 277.333 147.127,277.014 145.721,276.821 144.199 C 276.628 142.677,276.295 141.105,276.081 140.705 C 275.867 140.306,275.532 138.981,275.336 137.762 C 275.137 136.527,274.751 135.418,274.463 135.257 C 274.180 135.099,273.948 134.735,273.948 134.450 C 273.948 133.818,270.379 133.704,269.766 134.316 C 269.073 135.010,267.386 134.539,266.799 133.488 C 266.029 132.111,267.588 130.518,270.188 130.024 C 271.173 129.837,272.462 129.429,273.053 129.117 C 273.867 128.688,274.987 128.573,277.679 128.644 L 281.230 128.738 282.264 130.422 M58.728 130.347 C 59.372 131.550,58.484 133.156,56.946 133.570 C 55.006 134.092,54.869 137.106,56.670 139.650 C 57.014 140.137,57.296 140.756,57.296 141.026 C 57.296 141.296,57.619 141.926,58.013 142.427 C 58.406 142.928,58.729 143.616,58.729 143.957 C 58.729 144.298,59.051 144.986,59.445 145.487 C 59.839 145.988,60.161 146.633,60.161 146.920 C 60.161 147.207,60.473 147.838,60.855 148.324 C 61.237 148.809,61.664 149.677,61.805 150.252 C 61.946 150.827,62.359 151.682,62.722 152.152 C 63.086 152.622,63.384 153.226,63.384 153.495 C 63.384 153.764,63.545 153.984,63.742 153.984 C 63.939 153.984,64.100 153.754,64.100 153.472 C 64.100 153.191,64.338 152.723,64.628 152.433 C 64.918 152.143,65.306 151.234,65.491 150.413 C 65.675 149.591,66.062 148.649,66.350 148.318 C 66.639 147.988,66.980 147.129,67.108 146.410 C 67.237 145.691,67.567 144.917,67.842 144.689 C 68.117 144.461,68.447 143.648,68.577 142.883 C 68.706 142.118,69.024 141.315,69.283 141.100 C 69.543 140.885,69.866 140.110,70.002 139.378 C 70.138 138.647,70.485 137.785,70.773 137.464 C 71.749 136.375,71.595 133.772,70.546 133.629 C 68.722 133.380,67.677 131.212,68.827 130.063 C 69.511 129.379,80.060 129.482,82.050 130.192 C 83.413 130.678,86.337 130.740,104.532 130.667 L 125.446 130.582 126.285 131.629 C 127.272 132.863,127.298 133.329,126.479 135.004 L 125.866 136.258 104.311 136.350 C 87.343 136.423,82.674 136.347,82.376 135.992 C 82.168 135.744,81.665 135.098,81.259 134.557 C 80.853 134.015,80.396 133.572,80.244 133.572 C 79.318 133.572,77.126 136.610,76.801 138.345 C 76.668 139.054,76.338 139.817,76.069 140.041 C 75.799 140.265,75.470 141.036,75.338 141.755 C 75.206 142.474,74.799 143.446,74.433 143.916 C 74.068 144.386,73.769 145.166,73.769 145.650 C 73.769 146.134,73.447 146.940,73.053 147.440 C 72.659 147.941,72.336 148.692,72.335 149.108 C 72.335 149.525,72.045 150.349,71.692 150.940 C 71.339 151.531,70.850 152.699,70.605 153.536 C 70.360 154.373,70.023 155.058,69.855 155.058 C 69.688 155.058,69.441 155.662,69.306 156.401 C 69.171 157.140,68.844 158.081,68.579 158.493 C 68.314 158.904,67.917 159.911,67.697 160.731 C 67.476 161.550,67.148 162.220,66.968 162.220 C 66.787 162.220,66.532 162.825,66.401 163.563 C 66.269 164.302,65.859 165.408,65.489 166.023 C 65.119 166.637,64.816 167.461,64.816 167.854 C 64.816 168.248,64.518 168.954,64.152 169.424 C 63.787 169.893,63.380 170.866,63.247 171.584 C 63.115 172.303,62.789 173.072,62.522 173.293 C 62.256 173.515,61.939 174.188,61.819 174.791 C 61.698 175.393,61.276 176.298,60.880 176.801 C 60.485 177.304,60.161 177.865,60.161 178.049 C 60.161 179.091,55.293 184.215,53.894 184.645 C 53.500 184.766,52.889 185.119,52.536 185.430 C 51.415 186.415,45.761 186.495,44.805 185.539 C 44.388 185.122,43.880 184.781,43.677 184.781 C 43.474 184.781,43.202 184.499,43.073 184.154 C 42.943 183.809,42.586 183.339,42.278 183.109 C 41.287 182.366,41.544 179.459,42.739 177.897 C 43.993 176.257,45.055 176.016,49.526 176.351 C 53.263 176.631,54.672 176.405,54.966 175.477 C 55.078 175.126,55.486 174.473,55.875 174.025 C 56.263 173.578,56.580 172.899,56.580 172.517 C 56.580 172.135,56.902 171.413,57.296 170.912 C 57.690 170.412,58.013 169.693,58.013 169.315 C 58.013 168.938,58.365 168.016,58.796 167.268 L 59.580 165.906 58.796 164.910 C 58.365 164.362,58.013 163.599,58.013 163.213 C 58.013 162.828,57.690 162.103,57.296 161.602 C 56.902 161.101,56.580 160.456,56.580 160.169 C 56.580 159.882,56.258 159.238,55.864 158.737 C 55.470 158.236,55.148 157.548,55.148 157.207 C 55.148 156.866,54.846 156.203,54.478 155.733 C 54.110 155.263,53.697 154.367,53.560 153.740 C 53.423 153.114,53.080 152.409,52.797 152.174 C 52.514 151.940,52.283 151.550,52.283 151.308 C 52.283 151.066,51.880 150.110,51.388 149.184 C 50.895 148.258,50.492 147.333,50.492 147.128 C 50.492 146.923,50.170 146.346,49.776 145.845 C 49.382 145.344,49.060 144.656,49.060 144.315 C 49.060 143.974,48.738 143.286,48.344 142.785 C 47.950 142.284,47.628 141.640,47.628 141.353 C 47.628 141.066,47.327 140.446,46.961 139.977 C 46.594 139.507,46.175 138.744,46.030 138.282 C 45.885 137.819,45.500 137.145,45.175 136.785 C 44.850 136.424,44.199 135.646,43.728 135.056 C 43.257 134.466,42.452 133.877,41.939 133.749 C 40.540 133.397,40.107 132.890,40.107 131.603 C 40.107 129.758,40.479 129.658,47.678 129.552 C 56.641 129.419,58.295 129.538,58.728 130.347 M126.444 144.852 C 127.321 146.349,127.270 147.279,126.248 148.381 L 125.370 149.329 104.029 149.329 L 82.689 149.329 81.810 148.450 C 80.637 147.277,81.001 144.871,82.503 143.871 C 82.722 143.726,92.556 143.645,104.358 143.692 L 125.815 143.778 126.444 144.852 M213.452 145.402 C 214.661 146.049,214.468 151.529,213.201 152.525 C 211.921 153.533,192.778 153.693,191.789 152.705 C 191.213 152.129,190.957 146.866,191.444 145.598 C 191.707 144.911,212.195 144.729,213.452 145.402 " stroke="none" fill="#fbfbfb" fill-rule="evenodd"></path><path id="path1" d="M357.794 89.538 C 357.329 89.925,356.664 90.242,356.316 90.242 C 355.968 90.242,355.483 90.482,355.239 90.776 C 354.995 91.070,354.170 91.479,353.405 91.685 C 352.640 91.891,352.014 92.202,352.014 92.376 C 352.014 92.550,351.450 92.879,350.761 93.107 C 348.890 93.724,349.189 94.303,351.276 94.102 C 354.885 93.755,354.879 93.728,354.879 110.794 C 354.879 118.572,354.739 125.022,354.567 125.128 C 354.396 125.234,354.157 125.811,354.037 126.411 C 353.917 127.011,353.534 127.603,353.185 127.726 C 352.837 127.850,352.310 128.147,352.014 128.386 C 351.719 128.625,351.034 128.926,350.492 129.055 C 347.798 129.695,349.979 129.991,357.386 129.991 C 362.399 129.991,365.264 129.861,365.264 129.633 C 365.264 129.436,364.885 129.275,364.422 129.275 C 362.987 129.275,361.543 128.559,360.609 127.385 L 359.714 126.260 359.534 107.654 C 359.348 88.276,359.345 88.247,357.794 89.538 M231.873 109.825 C 231.480 109.934,230.773 110.327,230.302 110.697 C 229.832 111.067,229.294 111.370,229.108 111.370 C 228.712 111.370,225.554 113.855,225.149 114.485 C 224.997 114.722,224.674 115.125,224.432 115.381 C 223.631 116.227,222.023 118.866,222.023 119.335 C 222.023 119.588,221.699 120.401,221.302 121.141 C 220.577 122.495,220.168 126.106,220.682 126.620 C 221.100 127.038,222.676 125.365,222.923 124.241 C 223.044 123.689,223.375 123.045,223.658 122.810 C 223.941 122.575,224.172 122.228,224.172 122.038 C 224.172 120.310,227.881 117.173,231.317 115.995 L 233.629 115.203 236.783 115.986 C 241.107 117.060,242.744 118.253,244.945 121.934 C 246.188 124.013,246.451 131.232,245.372 133.671 C 244.979 134.560,244.548 135.786,244.414 136.395 C 244.280 137.005,244.015 137.599,243.825 137.717 C 243.635 137.834,243.227 138.561,242.918 139.332 C 242.610 140.103,242.229 140.734,242.073 140.734 C 241.917 140.734,241.620 141.218,241.414 141.808 C 241.208 142.399,240.870 142.883,240.663 142.883 C 240.456 142.883,240.286 143.084,240.286 143.330 C 240.286 143.577,239.871 144.261,239.364 144.852 C 238.857 145.443,237.769 146.709,236.947 147.666 C 236.125 148.622,234.485 150.424,233.303 151.670 C 232.122 152.916,229.463 155.757,227.395 157.982 C 225.327 160.208,222.869 162.854,221.934 163.861 C 218.398 167.666,218.103 167.592,236.711 167.592 C 253.919 167.592,253.696 167.621,254.284 165.287 C 254.507 164.400,254.914 163.489,255.188 163.262 C 255.461 163.034,255.686 162.506,255.688 162.087 C 255.690 161.668,256.088 160.519,256.572 159.534 C 258.028 156.575,257.630 154.149,256.029 156.225 C 252.624 160.641,252.137 160.783,240.432 160.786 C 229.144 160.788,228.657 160.629,231.395 157.834 C 232.248 156.964,234.557 154.500,236.526 152.358 C 238.496 150.216,240.671 147.879,241.361 147.166 C 245.676 142.697,249.014 138.362,250.585 135.184 C 253.136 130.025,252.999 130.616,252.999 124.786 C 252.999 117.781,250.110 112.098,246.062 111.138 C 245.544 111.016,244.822 110.655,244.457 110.337 C 243.781 109.748,233.632 109.336,231.873 109.825 M166.148 111.859 C 166.044 111.962,164.880 112.219,163.560 112.430 C 158.607 113.221,151.514 120.791,153.214 123.470 C 153.426 123.804,154.314 123.144,156.408 121.097 C 158.650 118.907,159.620 118.204,160.675 118.007 C 161.426 117.866,162.240 117.587,162.484 117.386 C 163.356 116.665,167.943 117.819,169.578 119.171 C 173.338 122.279,174.240 128.859,171.414 132.564 C 170.200 134.155,167.242 136.795,166.672 136.795 C 166.438 136.795,166.050 137.032,165.809 137.323 C 165.568 137.613,164.783 137.953,164.064 138.079 C 160.492 138.704,160.209 140.194,163.608 140.479 C 165.060 140.600,166.637 140.989,167.452 141.426 C 168.213 141.833,169.006 142.167,169.215 142.167 C 169.615 142.167,170.472 142.765,172.440 144.420 C 173.682 145.463,175.198 147.796,175.632 149.329 C 175.771 149.821,176.133 150.773,176.437 151.443 C 177.030 152.755,176.882 155.938,176.196 156.624 C 175.994 156.827,175.828 157.243,175.828 157.549 C 175.828 158.405,173.614 161.700,172.607 162.343 C 169.735 164.177,168.292 164.736,166.319 164.778 C 165.274 164.801,164.032 164.571,163.382 164.235 C 162.763 163.915,162.042 163.653,161.781 163.653 C 161.519 163.653,160.907 163.373,160.420 163.031 C 157.103 160.703,151.922 160.919,151.794 163.391 C 151.635 166.464,152.858 167.366,157.923 167.908 C 161.260 168.265,169.286 167.539,170.504 166.770 C 170.970 166.475,171.730 166.121,172.191 165.983 C 174.310 165.349,178.254 161.974,179.309 159.893 C 179.609 159.302,180.050 158.577,180.289 158.281 C 182.170 155.962,183.275 145.661,181.817 144.043 C 181.508 143.700,181.148 142.988,181.016 142.460 C 180.664 141.050,177.025 137.196,175.451 136.567 C 173.188 135.661,173.264 134.685,175.817 131.857 C 177.005 130.541,177.977 129.282,177.977 129.060 C 177.977 128.837,178.335 128.200,178.773 127.643 C 179.955 126.140,179.943 119.325,178.756 118.062 C 178.327 117.605,177.977 117.049,177.977 116.826 C 177.977 116.351,175.805 114.239,175.314 114.236 C 175.130 114.235,174.646 113.928,174.240 113.553 C 173.443 112.819,166.617 111.389,166.148 111.859 M303.844 113.170 C 303.716 113.376,303.720 114.185,303.852 114.967 L 304.093 116.390 320.623 116.297 L 337.153 116.204 337.153 114.593 L 337.153 112.981 320.614 112.888 C 309.386 112.825,304.001 112.915,303.844 113.170 M275.474 129.807 C 274.836 130.085,273.452 130.471,272.400 130.665 C 267.733 131.528,266.839 133.347,271.262 132.982 C 274.293 132.732,275.554 133.449,275.952 135.647 C 276.084 136.377,276.404 137.392,276.662 137.903 C 276.920 138.414,277.235 139.703,277.362 140.768 C 277.489 141.832,277.901 143.631,278.277 144.764 C 279.082 147.188,279.163 149.432,278.465 150.011 C 278.192 150.238,277.365 151.386,276.627 152.562 C 275.890 153.738,275.147 154.700,274.975 154.700 C 274.804 154.700,274.664 154.876,274.664 155.091 C 274.664 155.306,274.334 155.910,273.930 156.434 C 270.362 161.062,269.473 162.085,268.521 162.664 C 267.548 163.256,267.342 163.272,266.634 162.808 C 264.927 161.689,261.917 161.670,260.896 162.771 C 259.315 164.477,260.035 167.298,262.160 167.723 C 266.155 168.522,268.256 167.627,271.262 163.845 C 271.853 163.101,272.659 162.108,273.053 161.637 C 274.349 160.088,275.009 159.197,276.072 157.565 C 278.515 153.814,280.028 153.253,280.591 155.889 C 280.725 156.515,280.986 157.216,281.171 157.446 C 281.355 157.675,281.668 158.903,281.866 160.173 C 282.887 166.733,285.324 168.951,290.027 167.602 C 291.132 167.285,294.017 164.699,294.897 163.237 C 295.094 162.909,295.779 161.894,296.419 160.980 C 298.889 157.456,297.358 156.623,294.747 160.072 C 292.086 163.585,290.346 164.025,289.110 161.495 C 288.008 159.239,287.585 157.948,287.352 156.128 C 287.214 155.047,286.890 153.745,286.632 153.234 C 286.374 152.723,286.060 151.434,285.933 150.369 C 285.807 149.305,285.523 147.869,285.304 147.180 C 284.693 145.265,285.080 144.137,287.670 140.274 C 291.339 134.803,293.818 133.375,296.448 135.217 C 299.152 137.111,302.007 132.911,299.631 130.536 C 296.808 127.712,291.506 130.595,286.979 137.416 C 284.854 140.617,283.498 140.139,282.894 135.975 C 282.092 130.448,279.313 128.138,275.474 129.807 M40.824 131.065 C 40.824 131.553,41.893 132.508,43.558 133.509 C 44.929 134.333,47.388 137.673,48.218 139.839 C 48.445 140.430,49.210 142.013,49.919 143.356 C 50.628 144.700,51.209 146.008,51.209 146.262 C 51.209 146.517,51.510 147.110,51.878 147.579 C 52.246 148.049,52.660 148.946,52.796 149.572 C 52.933 150.199,53.266 150.895,53.536 151.119 C 53.806 151.343,54.129 151.988,54.252 152.551 C 54.376 153.115,54.699 153.760,54.969 153.984 C 55.239 154.208,55.572 154.904,55.709 155.531 C 55.845 156.157,56.259 157.054,56.627 157.524 C 56.995 157.993,57.296 158.613,57.296 158.900 C 57.296 159.187,57.619 159.831,58.013 160.332 C 58.406 160.833,58.730 161.503,58.731 161.821 C 58.732 162.139,59.054 162.883,59.445 163.474 C 59.890 164.146,60.156 165.151,60.156 166.159 C 60.156 167.168,59.890 168.173,59.445 168.845 C 59.054 169.436,58.732 170.260,58.731 170.677 C 58.730 171.093,58.431 171.819,58.067 172.288 C 57.703 172.758,57.299 173.545,57.170 174.038 C 56.446 176.787,52.927 178.871,50.835 177.789 C 49.752 177.230,46.135 177.004,44.840 177.415 C 43.595 177.810,42.839 180.299,43.393 182.176 C 44.346 185.403,50.413 186.015,53.975 183.245 C 56.446 181.322,59.264 177.928,59.643 176.416 C 59.770 175.912,60.095 175.315,60.366 175.091 C 60.637 174.866,60.960 174.140,61.084 173.477 C 61.209 172.815,61.525 172.095,61.787 171.877 C 62.049 171.659,62.372 170.969,62.504 170.342 C 62.637 169.716,63.050 168.701,63.423 168.087 C 63.795 167.473,64.101 166.667,64.103 166.296 C 64.104 165.925,64.425 165.139,64.816 164.548 C 65.208 163.957,65.530 163.232,65.533 162.936 C 65.535 162.641,65.794 161.916,66.108 161.325 C 66.423 160.734,66.911 159.485,67.194 158.550 C 67.477 157.614,67.846 156.849,68.013 156.849 C 68.181 156.849,68.430 156.244,68.567 155.506 C 68.704 154.767,69.124 153.660,69.502 153.046 C 69.879 152.432,70.188 151.598,70.188 151.192 C 70.188 150.786,70.432 150.210,70.730 149.912 C 71.028 149.614,71.371 148.837,71.493 148.186 C 71.615 147.534,71.998 146.517,72.345 145.927 C 72.692 145.336,73.084 144.340,73.216 143.713 C 73.349 143.087,73.676 142.393,73.943 142.171 C 74.210 141.949,74.535 141.141,74.664 140.376 C 74.794 139.611,75.118 138.803,75.385 138.581 C 75.653 138.359,75.977 137.698,76.106 137.111 C 76.462 135.491,78.038 133.313,79.202 132.830 C 80.266 132.390,81.085 131.339,80.680 130.933 C 80.306 130.560,69.534 130.674,69.299 131.055 C 69.181 131.246,69.634 131.631,70.306 131.912 C 72.550 132.850,73.231 136.953,71.468 138.920 C 71.191 139.228,70.854 140.079,70.718 140.811 C 70.582 141.542,70.257 142.319,69.995 142.537 C 69.732 142.754,69.405 143.445,69.268 144.071 C 69.131 144.698,68.717 145.772,68.350 146.458 C 67.982 147.145,67.681 147.911,67.681 148.161 C 67.681 148.411,67.359 149.216,66.965 149.951 C 66.571 150.686,66.249 151.540,66.249 151.849 C 66.249 152.717,64.181 155.774,63.594 155.774 C 63.307 155.774,62.868 155.210,62.619 154.521 C 62.370 153.832,62.044 153.268,61.894 153.268 C 61.745 153.268,61.429 152.621,61.192 151.831 C 60.955 151.041,60.546 150.215,60.282 149.997 C 60.019 149.778,59.803 149.433,59.803 149.231 C 59.803 148.883,58.279 145.478,57.603 144.315 C 57.432 144.020,57.150 143.456,56.976 143.062 C 56.050 140.952,55.842 140.509,55.551 140.018 C 53.115 135.908,53.187 134.214,55.862 132.611 C 58.986 130.740,58.876 130.707,49.448 130.707 C 43.937 130.707,40.824 130.837,40.824 131.065 M82.518 132.612 C 82.417 132.875,82.498 133.521,82.698 134.047 L 83.062 135.004 103.976 135.004 C 126.566 135.004,125.904 135.061,125.632 133.144 L 125.515 132.319 104.108 132.226 C 86.518 132.150,82.669 132.219,82.518 132.612 M82.866 145.528 C 82.757 145.813,82.720 146.502,82.784 147.060 L 82.901 148.075 103.491 148.174 C 114.816 148.229,124.445 148.185,124.888 148.078 C 126.069 147.792,126.029 145.857,124.832 145.402 C 123.253 144.802,83.099 144.923,82.866 145.528 M192.170 146.548 C 191.891 147.589,191.890 149.991,192.168 151.030 L 192.384 151.835 202.178 151.835 C 213.484 151.835,212.827 152.067,212.640 148.157 L 212.534 145.927 202.460 145.832 L 192.387 145.737 192.170 146.548 " stroke="none" fill="#101010" fill-rule="evenodd"></path><path id="path2" d="M356.132 89.709 C 354.951 90.349,352.805 91.462,351.364 92.182 C 347.922 93.902,347.896 94.718,351.284 94.718 C 353.433 94.718,353.603 94.777,353.839 95.613 C 354.246 97.057,354.206 124.270,353.794 125.753 C 353.442 127.022,351.611 128.559,350.451 128.559 C 349.503 128.559,348.562 129.585,349.150 129.979 C 349.940 130.508,365.148 130.469,365.477 129.937 C 365.806 129.404,364.648 128.559,363.590 128.559 C 363.138 128.559,362.242 128.089,361.599 127.514 L 360.430 126.469 360.335 107.908 C 360.223 85.981,360.533 87.326,356.132 89.709 M359.534 107.654 L 359.714 126.260 360.609 127.385 C 361.543 128.559,362.987 129.275,364.422 129.275 C 364.885 129.275,365.264 129.436,365.264 129.633 C 365.264 129.861,362.399 129.991,357.386 129.991 C 349.979 129.991,347.798 129.695,350.492 129.055 C 351.034 128.926,351.719 128.625,352.014 128.386 C 352.310 128.147,352.837 127.850,353.185 127.726 C 353.534 127.603,353.917 127.011,354.037 126.411 C 354.157 125.811,354.396 125.234,354.567 125.128 C 354.739 125.022,354.879 118.572,354.879 110.794 C 354.879 93.728,354.885 93.755,351.276 94.102 C 349.189 94.303,348.890 93.724,350.761 93.107 C 351.450 92.879,352.014 92.550,352.014 92.376 C 352.014 92.202,352.640 91.891,353.405 91.685 C 354.170 91.479,354.995 91.070,355.239 90.776 C 355.483 90.482,355.968 90.242,356.316 90.242 C 356.664 90.242,357.329 89.925,357.794 89.538 C 359.345 88.247,359.348 88.276,359.534 107.654 M233.045 109.251 C 226.769 110.170,220.321 117.920,220.117 124.787 C 220.027 127.837,222.500 127.765,223.271 124.694 C 224.668 119.126,230.717 115.443,236.705 116.512 C 248.044 118.537,248.795 132.194,238.282 145.210 C 235.319 148.880,235.137 149.082,228.451 156.132 C 219.113 165.981,218.838 166.339,219.847 167.349 C 220.352 167.855,251.028 168.154,252.907 167.673 C 253.872 167.425,254.166 167.099,254.611 165.782 C 254.906 164.906,255.349 163.838,255.595 163.408 C 255.842 162.977,256.044 162.413,256.045 162.154 C 256.046 161.895,256.304 161.200,256.619 160.609 C 258.173 157.686,258.394 154.700,257.056 154.700 C 256.605 154.700,255.160 156.181,254.612 157.205 C 254.408 157.585,253.479 158.426,252.546 159.073 L 250.850 160.251 241.564 160.363 C 236.457 160.424,231.905 160.381,231.448 160.266 C 230.546 160.040,230.342 159.205,231.077 158.747 C 232.491 157.866,247.411 141.285,249.052 138.770 C 251.595 134.875,253.083 131.394,253.519 128.319 C 253.716 126.932,253.976 125.540,254.096 125.226 C 254.433 124.347,253.182 118.555,252.256 116.707 C 249.244 110.696,242.100 107.924,233.045 109.251 M244.457 110.337 C 244.822 110.655,245.544 111.016,246.062 111.138 C 250.110 112.098,252.999 117.781,252.999 124.786 C 252.999 130.616,253.136 130.025,250.585 135.184 C 249.014 138.362,245.676 142.697,241.361 147.166 C 240.671 147.879,238.496 150.216,236.526 152.358 C 234.557 154.500,232.248 156.964,231.395 157.834 C 228.657 160.629,229.144 160.788,240.432 160.786 C 252.137 160.783,252.624 160.641,256.029 156.225 C 257.630 154.149,258.028 156.575,256.572 159.534 C 256.088 160.519,255.690 161.668,255.688 162.087 C 255.686 162.506,255.461 163.034,255.188 163.262 C 254.914 163.489,254.507 164.400,254.284 165.287 C 253.696 167.621,253.919 167.592,236.711 167.592 C 218.103 167.592,218.398 167.666,221.934 163.861 C 222.869 162.854,225.327 160.208,227.395 157.982 C 229.463 155.757,232.122 152.916,233.303 151.670 C 234.485 150.424,236.125 148.622,236.947 147.666 C 237.769 146.709,238.857 145.443,239.364 144.852 C 239.871 144.261,240.286 143.577,240.286 143.330 C 240.286 143.084,240.456 142.883,240.663 142.883 C 240.870 142.883,241.208 142.399,241.414 141.808 C 241.620 141.218,241.917 140.734,242.073 140.734 C 242.229 140.734,242.610 140.103,242.918 139.332 C 243.227 138.561,243.635 137.834,243.825 137.717 C 244.015 137.599,244.280 137.005,244.414 136.395 C 244.548 135.786,244.979 134.560,245.372 133.671 C 246.451 131.232,246.188 124.013,244.945 121.934 C 242.744 118.253,241.107 117.060,236.783 115.986 L 233.629 115.203 231.317 115.995 C 227.881 117.173,224.172 120.310,224.172 122.038 C 224.172 122.228,223.941 122.575,223.658 122.810 C 223.375 123.045,223.044 123.689,222.923 124.241 C 222.676 125.365,221.100 127.038,220.682 126.620 C 220.168 126.106,220.577 122.495,221.302 121.141 C 221.699 120.401,222.023 119.588,222.023 119.335 C 222.023 118.866,223.631 116.227,224.432 115.381 C 224.674 115.125,224.997 114.722,225.149 114.485 C 225.554 113.855,228.712 111.370,229.108 111.370 C 229.294 111.370,229.832 111.067,230.302 110.697 C 231.938 109.410,243.068 109.127,244.457 110.337 M163.901 111.743 C 159.111 112.933,156.079 115.300,153.715 119.694 C 151.349 124.095,152.603 125.542,155.848 122.154 C 159.371 118.474,162.335 117.320,166.156 118.139 C 176.321 120.320,173.518 136.200,162.643 138.037 C 161.456 138.238,161.024 138.503,160.763 139.188 C 160.284 140.448,160.514 140.627,162.841 140.805 C 175.024 141.739,180.816 156.478,171.369 162.503 C 167.893 164.719,165.091 164.739,160.788 162.576 C 156.593 160.468,154.809 160.220,152.795 161.464 C 151.491 162.270,151.277 162.787,151.442 164.727 C 151.913 170.250,168.320 170.043,175.804 164.420 C 185.065 157.462,185.275 141.074,176.163 136.425 C 174.050 135.347,174.055 134.628,176.189 132.203 C 179.475 128.470,179.901 127.401,179.926 122.829 C 179.964 115.727,177.015 112.982,167.413 111.183 C 167.019 111.109,165.439 111.361,163.901 111.743 M170.994 112.442 C 172.461 112.694,173.807 113.154,174.240 113.553 C 174.646 113.928,175.130 114.235,175.314 114.236 C 175.805 114.239,177.977 116.351,177.977 116.826 C 177.977 117.049,178.327 117.605,178.756 118.062 C 179.943 119.325,179.955 126.140,178.773 127.643 C 178.335 128.200,177.977 128.837,177.977 129.060 C 177.977 129.282,177.005 130.541,175.817 131.857 C 173.264 134.685,173.188 135.661,175.451 136.567 C 177.025 137.196,180.664 141.050,181.016 142.460 C 181.148 142.988,181.508 143.700,181.817 144.043 C 183.275 145.661,182.170 155.962,180.289 158.281 C 180.050 158.577,179.609 159.302,179.309 159.893 C 178.254 161.974,174.310 165.349,172.191 165.983 C 171.730 166.121,170.970 166.475,170.504 166.770 C 168.649 167.942,158.239 168.366,154.444 167.423 C 151.572 166.710,150.802 163.120,153.253 161.869 C 155.223 160.865,157.967 161.309,160.420 163.031 C 160.907 163.373,161.519 163.653,161.781 163.653 C 162.042 163.653,162.763 163.915,163.382 164.235 C 164.032 164.571,165.274 164.801,166.319 164.778 C 168.292 164.736,169.735 164.177,172.607 162.343 C 173.614 161.700,175.828 158.405,175.828 157.549 C 175.828 157.243,175.994 156.827,176.196 156.624 C 176.882 155.938,177.030 152.755,176.437 151.443 C 176.133 150.773,175.771 149.821,175.632 149.329 C 175.198 147.796,173.682 145.463,172.440 144.420 C 170.472 142.765,169.615 142.167,169.215 142.167 C 169.006 142.167,168.213 141.833,167.452 141.426 C 166.637 140.989,165.060 140.600,163.608 140.479 C 160.209 140.194,160.492 138.704,164.064 138.079 C 164.783 137.953,165.568 137.613,165.809 137.323 C 166.050 137.032,166.438 136.795,166.672 136.795 C 167.242 136.795,170.200 134.155,171.414 132.564 C 174.240 128.859,173.338 122.279,169.578 119.171 C 167.943 117.819,163.356 116.665,162.484 117.386 C 162.240 117.587,161.426 117.866,160.675 118.007 C 159.620 118.204,158.650 118.907,156.408 121.097 C 154.314 123.144,153.426 123.804,153.214 123.470 C 151.514 120.791,158.607 113.221,163.560 112.430 C 164.880 112.219,166.044 111.962,166.148 111.859 C 166.342 111.665,166.720 111.710,170.994 112.442 M303.310 112.984 C 302.770 113.634,303.071 116.009,303.747 116.438 C 304.531 116.936,337.116 116.814,337.619 116.312 C 338.272 115.658,338.170 112.925,337.482 112.661 C 336.080 112.123,303.771 112.429,303.310 112.984 M337.153 114.593 L 337.153 116.204 320.623 116.297 L 304.093 116.390 303.852 114.967 C 303.467 112.683,302.631 112.787,320.614 112.888 L 337.153 112.981 337.153 114.593 M275.201 129.290 C 274.611 129.455,273.061 129.895,271.758 130.269 C 266.494 131.778,265.748 133.854,270.633 133.396 C 275.066 132.981,274.962 132.809,277.915 145.407 L 278.716 148.827 277.073 151.137 C 268.830 162.726,268.754 162.798,265.605 161.981 C 259.880 160.496,256.810 164.768,261.387 167.852 C 265.196 170.419,268.322 168.608,274.749 160.112 C 278.804 154.752,279.319 154.185,279.730 154.625 C 279.985 154.900,280.900 158.232,281.665 161.683 C 282.083 163.566,282.634 165.060,283.568 166.843 C 283.985 167.637,286.177 168.666,287.454 168.666 C 290.133 168.666,292.116 167.382,294.917 163.832 C 298.395 159.423,298.943 157.825,297.038 157.638 C 296.082 157.544,295.787 157.772,294.491 159.610 C 291.592 163.721,290.051 163.454,288.500 158.574 C 287.979 156.936,287.551 155.273,287.550 154.879 C 287.548 154.485,287.230 153.153,286.843 151.918 C 286.456 150.683,286.040 148.427,285.920 146.905 L 285.700 144.136 287.708 141.092 C 291.446 135.426,293.328 134.133,295.792 135.542 C 299.324 137.560,302.859 133.047,299.992 130.180 C 296.986 127.174,291.213 130.139,286.632 137.041 C 285.548 138.674,285.270 138.895,284.691 138.585 C 283.748 138.081,283.625 137.807,283.225 135.325 C 282.339 129.824,279.889 127.981,275.201 129.290 M280.231 129.913 C 281.323 130.831,282.554 133.633,282.894 135.975 C 283.498 140.139,284.854 140.617,286.979 137.416 C 291.506 130.595,296.808 127.712,299.631 130.536 C 302.007 132.911,299.152 137.111,296.448 135.217 C 293.818 133.375,291.339 134.803,287.670 140.274 C 285.080 144.137,284.693 145.265,285.304 147.180 C 285.523 147.869,285.807 149.305,285.933 150.369 C 286.060 151.434,286.374 152.723,286.632 153.234 C 286.890 153.745,287.214 155.047,287.352 156.128 C 287.585 157.948,288.008 159.239,289.110 161.495 C 290.346 164.025,292.086 163.585,294.747 160.072 C 297.358 156.623,298.889 157.456,296.419 160.980 C 295.779 161.894,295.094 162.909,294.897 163.237 C 294.017 164.699,291.132 167.285,290.027 167.602 C 285.324 168.951,282.887 166.733,281.866 160.173 C 281.668 158.903,281.355 157.675,281.171 157.446 C 280.986 157.216,280.725 156.515,280.591 155.889 C 280.028 153.253,278.515 153.814,276.072 157.565 C 275.009 159.197,274.349 160.088,273.053 161.637 C 272.659 162.108,271.853 163.101,271.262 163.845 C 268.256 167.627,266.155 168.522,262.160 167.723 C 260.035 167.298,259.315 164.477,260.896 162.771 C 261.917 161.670,264.927 161.689,266.634 162.808 C 267.342 163.272,267.548 163.256,268.521 162.664 C 269.473 162.085,270.362 161.062,273.930 156.434 C 274.334 155.910,274.664 155.306,274.664 155.091 C 274.664 154.876,274.804 154.700,274.975 154.700 C 275.147 154.700,275.890 153.738,276.627 152.562 C 277.365 151.386,278.192 150.238,278.465 150.011 C 279.163 149.432,279.082 147.188,278.277 144.764 C 277.901 143.631,277.489 141.832,277.362 140.768 C 277.235 139.703,276.920 138.414,276.662 137.903 C 276.404 137.392,276.084 136.377,275.952 135.647 C 275.554 133.449,274.293 132.732,271.262 132.982 C 266.839 133.347,267.733 131.528,272.400 130.665 C 273.452 130.471,274.836 130.085,275.474 129.807 C 277.070 129.113,279.338 129.164,280.231 129.913 M40.647 130.704 C 40.216 131.400,40.895 132.564,42.022 133.062 C 44.702 134.245,47.314 138.403,51.901 148.791 C 52.336 149.776,52.842 150.824,53.025 151.119 C 53.209 151.415,53.531 152.059,53.741 152.551 C 54.412 154.125,58.351 162.350,59.090 163.724 C 59.935 165.293,59.999 166.796,59.280 168.189 C 58.437 169.823,56.938 173.254,56.938 173.549 C 56.938 175.655,53.316 177.901,50.975 177.245 C 46.967 176.123,44.098 176.694,43.033 178.826 C 42.084 180.728,42.080 180.884,42.957 182.602 C 46.065 188.694,56.172 184.973,60.396 176.181 C 62.034 172.771,63.026 170.486,63.026 170.119 C 63.026 169.909,63.348 169.136,63.742 168.401 C 64.136 167.667,64.459 166.821,64.461 166.523 C 64.462 166.224,64.783 165.497,65.175 164.906 C 65.566 164.315,65.887 163.588,65.888 163.289 C 65.890 162.991,66.213 162.145,66.607 161.410 C 67.001 160.676,67.328 159.872,67.334 159.625 C 67.341 159.378,67.742 158.371,68.226 157.386 C 68.711 156.401,69.109 155.407,69.110 155.177 C 69.112 154.947,69.351 154.302,69.640 153.744 C 70.122 152.818,70.723 151.384,72.767 146.285 C 73.162 145.300,73.708 144.011,73.980 143.420 C 74.253 142.829,74.722 141.634,75.023 140.765 C 75.323 139.896,75.706 139.009,75.873 138.795 C 76.040 138.582,76.282 137.967,76.410 137.431 C 76.925 135.273,79.124 132.900,80.638 132.869 C 81.416 132.852,81.833 131.542,81.275 130.869 C 80.667 130.137,69.286 130.100,69.006 130.829 C 68.734 131.537,69.268 132.205,70.609 132.836 C 72.127 133.550,72.416 135.638,71.320 137.980 C 70.933 138.805,70.428 140.083,70.197 140.819 C 69.967 141.554,69.628 142.249,69.446 142.362 C 69.263 142.475,69.112 142.839,69.110 143.172 C 69.109 143.505,68.711 144.584,68.226 145.568 C 67.742 146.553,67.341 147.561,67.334 147.808 C 67.328 148.055,67.001 148.858,66.607 149.593 C 66.213 150.328,65.888 151.174,65.884 151.472 C 65.880 151.770,65.381 152.804,64.775 153.769 L 63.674 155.524 62.634 153.623 C 62.062 152.577,61.594 151.641,61.594 151.543 C 61.594 151.446,60.528 149.175,59.226 146.498 C 57.080 142.084,56.405 140.644,54.698 136.844 C 53.883 135.028,54.337 133.981,56.418 132.881 C 57.629 132.241,58.192 131.719,58.192 131.236 C 58.192 130.424,41.139 129.907,40.647 130.704 M57.951 131.070 C 57.885 131.269,56.945 131.963,55.862 132.611 C 53.187 134.214,53.115 135.908,55.551 140.018 C 55.842 140.509,56.050 140.952,56.976 143.062 C 57.150 143.456,57.432 144.020,57.603 144.315 C 58.279 145.478,59.803 148.883,59.803 149.231 C 59.803 149.433,60.019 149.778,60.282 149.997 C 60.546 150.215,60.955 151.041,61.192 151.831 C 61.429 152.621,61.745 153.268,61.894 153.268 C 62.044 153.268,62.370 153.832,62.619 154.521 C 62.868 155.210,63.307 155.774,63.594 155.774 C 64.181 155.774,66.249 152.717,66.249 151.849 C 66.249 151.540,66.571 150.686,66.965 149.951 C 67.359 149.216,67.681 148.411,67.681 148.161 C 67.681 147.911,67.982 147.145,68.350 146.458 C 68.717 145.772,69.131 144.698,69.268 144.071 C 69.405 143.445,69.732 142.754,69.995 142.537 C 70.257 142.319,70.582 141.542,70.718 140.811 C 70.854 140.079,71.191 139.228,71.468 138.920 C 73.231 136.953,72.550 132.850,70.306 131.912 C 69.634 131.631,69.181 131.246,69.299 131.055 C 69.534 130.674,80.306 130.560,80.680 130.933 C 81.085 131.339,80.266 132.390,79.202 132.830 C 78.038 133.313,76.462 135.491,76.106 137.111 C 75.977 137.698,75.653 138.359,75.385 138.581 C 75.118 138.803,74.794 139.611,74.664 140.376 C 74.535 141.141,74.210 141.949,73.943 142.171 C 73.676 142.393,73.349 143.087,73.216 143.713 C 73.084 144.340,72.692 145.336,72.345 145.927 C 71.998 146.517,71.615 147.534,71.493 148.186 C 71.371 148.837,71.028 149.614,70.730 149.912 C 70.432 150.210,70.188 150.786,70.188 151.192 C 70.188 151.598,69.879 152.432,69.502 153.046 C 69.124 153.660,68.704 154.767,68.567 155.506 C 68.430 156.244,68.181 156.849,68.013 156.849 C 67.846 156.849,67.477 157.614,67.194 158.550 C 66.911 159.485,66.423 160.734,66.108 161.325 C 65.794 161.916,65.535 162.641,65.533 162.936 C 65.530 163.232,65.208 163.957,64.816 164.548 C 64.425 165.139,64.104 165.925,64.103 166.296 C 64.101 166.667,63.795 167.473,63.423 168.087 C 63.050 168.701,62.637 169.716,62.504 170.342 C 62.372 170.969,62.049 171.659,61.787 171.877 C 61.525 172.095,61.209 172.815,61.084 173.477 C 60.960 174.140,60.637 174.866,60.366 175.091 C 60.095 175.315,59.770 175.912,59.643 176.416 C 59.264 177.928,56.446 181.322,53.975 183.245 C 50.413 186.015,44.346 185.403,43.393 182.176 C 42.839 180.299,43.595 177.810,44.840 177.415 C 46.135 177.004,49.752 177.230,50.835 177.789 C 52.927 178.871,56.446 176.787,57.170 174.038 C 57.299 173.545,57.703 172.758,58.067 172.288 C 58.431 171.819,58.730 171.093,58.731 170.677 C 58.732 170.260,59.054 169.436,59.445 168.845 C 59.890 168.173,60.156 167.168,60.156 166.159 C 60.156 165.151,59.890 164.146,59.445 163.474 C 59.054 162.883,58.732 162.139,58.731 161.821 C 58.730 161.503,58.406 160.833,58.013 160.332 C 57.619 159.831,57.296 159.187,57.296 158.900 C 57.296 158.613,56.995 157.993,56.627 157.524 C 56.259 157.054,55.845 156.157,55.709 155.531 C 55.572 154.904,55.239 154.208,54.969 153.984 C 54.699 153.760,54.376 153.115,54.252 152.551 C 54.129 151.988,53.806 151.343,53.536 151.119 C 53.266 150.895,52.933 150.199,52.796 149.572 C 52.660 148.946,52.246 148.049,51.878 147.579 C 51.510 147.110,51.209 146.517,51.209 146.262 C 51.209 146.008,50.628 144.700,49.919 143.356 C 49.210 142.013,48.445 140.430,48.218 139.839 C 47.388 137.673,44.929 134.333,43.558 133.509 C 41.893 132.508,40.824 131.553,40.824 131.065 C 40.824 130.837,43.937 130.707,49.448 130.707 C 55.108 130.707,58.031 130.832,57.951 131.070 M82.244 131.662 C 81.818 132.088,81.992 134.133,82.514 134.847 C 83.109 135.659,124.618 135.748,125.593 134.940 C 126.172 134.459,126.192 132.423,125.622 131.853 C 125.154 131.385,82.708 131.198,82.244 131.662 M125.632 133.144 C 125.904 135.061,126.566 135.004,103.976 135.004 L 83.062 135.004 82.698 134.047 C 81.935 132.041,80.931 132.126,104.108 132.226 L 125.515 132.319 125.632 133.144 M399.284 136.974 C 399.284 137.860,399.445 138.585,399.642 138.585 C 399.839 138.585,400.000 137.860,400.000 136.974 C 400.000 136.088,399.839 135.363,399.642 135.363 C 399.445 135.363,399.284 136.088,399.284 136.974 M82.563 145.111 C 81.783 146.225,81.850 147.788,82.698 148.242 C 83.753 148.806,125.055 148.750,125.622 148.183 C 126.274 147.530,126.140 145.581,125.397 144.908 C 124.803 144.371,122.793 144.315,103.931 144.315 L 83.120 144.315 82.563 145.111 M124.832 145.402 C 126.029 145.857,126.069 147.792,124.888 148.078 C 124.445 148.185,114.816 148.229,103.491 148.174 L 82.901 148.075 82.784 147.060 C 82.535 144.878,81.192 145.009,103.517 145.043 C 114.932 145.061,124.351 145.219,124.832 145.402 M191.911 146.164 C 191.484 146.963,191.617 151.376,192.092 152.145 C 192.528 152.850,211.793 152.703,212.508 151.989 C 213.321 151.176,213.318 145.919,212.504 145.607 C 210.656 144.897,192.324 145.394,191.911 146.164 M212.640 148.157 C 212.827 152.067,213.484 151.835,202.178 151.835 L 192.384 151.835 192.168 151.030 C 191.890 149.991,191.891 147.589,192.170 146.548 L 192.387 145.737 202.460 145.832 L 212.534 145.927 212.640 148.157 M399.284 154.521 C 399.284 155.604,399.445 156.491,399.642 156.491 C 399.839 156.491,400.000 155.604,400.000 154.521 C 400.000 153.438,399.839 152.551,399.642 152.551 C 399.445 152.551,399.284 153.438,399.284 154.521 " stroke="none" fill="#747474" fill-rule="evenodd"></path><path id="path3" d="M356.572 88.809 C 356.071 89.203,355.427 89.526,355.140 89.526 C 354.852 89.526,354.208 89.848,353.707 90.242 C 353.206 90.636,352.562 90.958,352.275 90.958 C 351.988 90.958,351.368 91.251,350.899 91.609 C 350.429 91.967,349.535 92.464,348.912 92.714 C 347.751 93.179,347.171 94.348,347.577 95.406 C 347.858 96.139,349.981 96.159,350.582 95.434 C 350.827 95.139,351.471 94.897,352.013 94.897 C 353.415 94.897,353.447 95.238,353.447 110.290 C 353.447 125.224,353.344 126.643,352.235 126.981 C 348.895 127.997,347.152 129.408,348.247 130.209 C 349.296 130.976,365.704 130.935,366.344 130.163 C 366.895 129.500,365.914 128.201,364.862 128.201 C 364.504 128.201,363.583 127.873,362.813 127.472 C 360.945 126.498,360.905 126.010,361.003 105.258 C 361.068 91.380,361.000 88.692,360.576 88.424 C 359.677 87.854,357.523 88.061,356.572 88.809 M359.684 88.669 C 360.190 88.863,360.251 90.784,360.253 106.663 C 360.255 127.847,360.383 128.552,364.235 128.557 C 365.264 128.559,366.178 129.381,365.811 129.975 C 365.662 130.217,362.749 130.349,357.573 130.349 C 347.351 130.349,346.597 130.114,350.761 128.226 C 354.018 126.750,353.880 127.535,353.870 110.594 C 353.861 93.211,354.030 93.907,350.061 94.968 C 347.726 95.593,347.458 93.712,349.751 92.787 C 350.306 92.563,352.372 91.514,354.342 90.457 C 357.968 88.510,358.664 88.277,359.684 88.669 M234.557 108.197 C 234.064 108.397,232.791 108.705,231.728 108.881 C 230.571 109.072,229.523 109.493,229.118 109.927 C 228.746 110.327,228.214 110.654,227.936 110.654 C 227.658 110.654,227.302 110.872,227.144 111.140 C 226.987 111.408,226.427 111.851,225.902 112.125 C 224.824 112.686,222.739 115.160,222.739 115.877 C 222.739 116.136,222.534 116.476,222.283 116.634 C 221.569 117.082,219.875 120.641,219.872 121.698 C 219.871 122.222,219.630 123.112,219.335 123.676 C 218.040 126.160,219.355 128.300,221.755 127.612 C 222.633 127.360,223.020 126.956,223.431 125.863 C 223.725 125.080,224.173 124.228,224.427 123.967 C 224.681 123.707,224.888 123.278,224.888 123.013 C 224.888 122.483,225.946 121.109,227.522 119.592 C 230.020 117.187,229.751 117.278,234.378 117.278 L 238.675 117.278 240.404 118.486 C 241.355 119.151,242.307 120.077,242.520 120.545 C 242.734 121.014,243.020 121.397,243.156 121.397 C 243.979 121.397,245.412 127.517,245.021 129.358 C 243.816 135.021,242.921 137.484,241.295 139.619 C 240.937 140.088,240.645 140.693,240.645 140.961 C 240.645 141.230,240.363 141.761,240.018 142.141 C 239.673 142.521,239.168 143.101,238.895 143.431 C 238.622 143.761,237.534 145.050,236.478 146.295 C 235.421 147.541,234.557 148.733,234.557 148.944 C 234.557 149.156,234.315 149.329,234.020 149.329 C 233.724 149.329,233.483 149.466,233.483 149.633 C 233.483 149.800,232.113 151.341,230.439 153.058 C 228.765 154.774,227.395 156.231,227.395 156.297 C 227.395 156.363,225.608 158.246,223.425 160.482 C 218.720 165.301,218.293 165.875,218.578 167.009 C 218.898 168.284,219.088 168.298,236.998 168.303 C 253.891 168.308,254.969 168.227,254.969 166.947 C 254.969 166.607,255.280 165.748,255.660 165.039 C 256.040 164.330,256.459 163.170,256.592 162.461 C 256.725 161.752,257.055 160.988,257.324 160.765 C 257.594 160.541,257.920 159.770,258.048 159.051 C 258.177 158.332,258.511 157.481,258.791 157.159 C 259.779 156.026,258.619 153.984,256.987 153.984 C 256.385 153.984,256.146 154.204,253.929 156.796 C 253.062 157.810,252.155 158.639,251.914 158.639 C 251.673 158.639,251.275 158.881,251.030 159.176 C 250.653 159.630,249.070 159.714,240.896 159.714 C 231.675 159.714,231.238 159.683,231.823 159.087 C 233.040 157.845,238.355 152.225,240.107 150.326 C 241.764 148.531,242.693 147.477,246.293 143.306 C 247.027 142.456,247.855 141.515,248.133 141.215 C 248.969 140.313,250.658 137.716,250.665 137.322 C 250.669 137.120,250.994 136.678,251.388 136.341 C 251.782 136.004,252.104 135.376,252.104 134.947 C 252.104 134.517,252.348 133.895,252.647 133.565 C 253.173 132.985,253.810 131.001,254.651 127.330 C 255.157 125.125,254.879 121.206,254.117 119.785 C 253.800 119.194,253.540 118.417,253.538 118.058 C 253.533 116.312,249.414 111.348,247.204 110.425 C 246.578 110.163,245.973 109.799,245.860 109.616 C 245.747 109.433,244.970 109.175,244.134 109.043 C 243.298 108.911,241.819 108.575,240.848 108.296 C 238.821 107.714,235.863 107.667,234.557 108.197 M241.182 109.023 C 250.815 110.534,255.634 118.056,253.679 128.531 C 253.364 130.220,252.886 132.005,252.616 132.498 C 252.347 132.990,251.880 133.957,251.579 134.646 C 251.277 135.336,250.713 136.383,250.324 136.974 C 249.935 137.565,249.301 138.612,248.915 139.302 C 248.528 139.991,247.597 141.212,246.846 142.015 C 246.094 142.818,244.936 144.108,244.271 144.880 C 242.498 146.942,236.579 153.368,233.423 156.658 C 231.913 158.232,230.754 159.644,230.848 159.796 C 230.941 159.948,235.480 160.071,240.934 160.069 C 252.336 160.067,251.545 160.272,255.010 156.413 C 258.054 153.022,259.352 155.111,257.161 159.875 C 256.794 160.673,255.965 162.723,255.319 164.431 C 253.854 168.302,255.798 167.939,236.505 167.945 C 216.423 167.951,216.859 168.129,222.450 162.220 C 227.167 157.235,234.442 149.517,235.783 148.075 C 243.690 139.573,247.315 129.390,244.635 123.210 C 243.798 121.282,242.495 119.176,241.999 118.953 C 241.858 118.890,241.162 118.444,240.453 117.963 C 237.559 115.999,231.297 116.035,228.416 118.031 C 226.983 119.024,224.530 121.949,224.530 122.665 C 224.530 122.904,224.299 123.291,224.016 123.526 C 223.733 123.761,223.398 124.423,223.272 124.998 C 222.841 126.960,220.210 128.058,219.620 126.522 C 219.349 125.815,220.187 121.927,221.071 119.785 C 223.450 114.026,228.298 109.875,233.620 109.042 C 237.466 108.440,237.462 108.440,241.182 109.023 M162.132 111.348 C 161.394 111.754,160.636 112.086,160.447 112.086 C 159.221 112.086,154.147 116.862,153.768 118.372 C 153.654 118.825,153.349 119.278,153.090 119.377 C 152.831 119.476,152.511 120.050,152.379 120.652 C 152.246 121.254,151.990 121.838,151.808 121.951 C 151.335 122.243,151.399 123.682,151.907 124.190 C 152.627 124.910,154.634 124.710,155.330 123.849 C 156.718 122.133,158.579 120.322,158.955 120.322 C 159.175 120.322,159.718 119.960,160.161 119.517 C 161.349 118.329,166.782 118.340,168.051 119.533 C 168.513 119.967,169.078 120.322,169.307 120.322 C 169.535 120.322,169.989 120.838,170.315 121.469 C 170.641 122.099,171.128 122.836,171.398 123.106 C 173.957 125.664,169.980 134.640,165.656 136.068 C 164.974 136.293,164.361 136.640,164.295 136.838 C 164.229 137.037,163.453 137.291,162.571 137.404 C 158.587 137.911,159.095 141.450,163.151 141.450 C 163.835 141.450,164.751 141.676,165.187 141.952 C 165.623 142.228,166.521 142.567,167.183 142.705 C 171.917 143.694,174.932 147.967,174.932 153.690 C 174.933 158.337,175.152 157.821,171.766 161.155 C 169.338 163.545,163.972 164.081,161.545 162.175 C 161.076 161.806,160.415 161.504,160.078 161.504 C 159.741 161.504,159.093 161.182,158.639 160.788 C 154.730 157.398,148.209 163.023,151.707 166.768 C 154.169 169.404,164.476 170.802,167.388 168.894 C 167.880 168.572,168.812 168.306,169.459 168.303 C 170.106 168.300,171.038 168.068,171.531 167.787 C 172.023 167.506,172.946 167.035,173.582 166.740 C 174.768 166.188,175.288 165.819,176.722 164.510 C 177.176 164.096,177.805 163.658,178.120 163.537 C 178.435 163.416,178.693 163.087,178.693 162.807 C 178.693 162.526,178.930 162.206,179.219 162.095 C 179.508 161.984,179.988 161.363,180.286 160.714 C 180.584 160.065,181.028 159.212,181.274 158.818 C 181.520 158.424,181.966 157.699,182.266 157.207 C 183.740 154.786,183.747 144.137,182.276 142.267 C 181.881 141.765,181.558 141.122,181.558 140.838 C 181.558 140.082,177.715 136.181,176.724 135.932 C 175.168 135.541,175.269 134.459,177.056 132.367 C 177.956 131.313,178.693 130.333,178.693 130.188 C 178.693 130.043,179.015 129.515,179.409 129.014 C 179.803 128.514,180.125 127.787,180.125 127.401 C 180.125 127.014,180.383 126.154,180.698 125.491 C 181.588 123.614,180.757 118.429,179.309 116.829 C 178.970 116.454,178.693 115.997,178.693 115.814 C 178.693 115.630,178.190 115.079,177.576 114.589 C 176.962 114.098,176.025 113.345,175.493 112.915 C 174.962 112.485,174.054 112.019,173.476 111.881 C 172.899 111.742,172.200 111.450,171.924 111.232 C 170.918 110.434,163.637 110.521,162.132 111.348 M171.261 111.772 C 180.271 114.108,183.154 122.874,177.547 130.886 C 177.409 131.083,176.724 131.909,176.025 132.720 C 174.337 134.680,174.411 135.121,176.665 136.563 C 181.319 139.540,182.823 142.772,182.774 149.687 C 182.731 155.812,181.768 158.485,178.156 162.514 C 171.339 170.116,151.119 171.513,151.119 164.381 C 151.119 160.121,155.203 159.423,161.325 162.636 C 171.867 168.169,180.548 155.187,172.705 145.616 C 170.980 143.510,166.091 141.092,163.558 141.092 C 162.848 141.092,161.854 140.935,161.348 140.743 C 159.648 140.096,160.547 137.875,162.514 137.864 C 163.042 137.861,163.876 137.629,164.369 137.348 C 164.861 137.068,165.748 136.601,166.338 136.312 C 171.588 133.744,174.121 126.272,171.224 121.898 C 167.766 116.678,160.765 116.852,155.983 122.277 C 152.819 125.866,151.029 124.410,153.311 120.104 C 157.215 112.737,163.582 109.782,171.261 111.772 M302.810 112.406 C 301.828 113.490,302.148 116.410,303.312 116.996 C 304.606 117.647,336.398 117.647,337.690 116.996 C 338.868 116.403,339.220 112.946,338.180 112.186 C 337.011 111.331,303.594 111.539,302.810 112.406 M337.669 112.713 C 338.765 113.600,338.376 116.276,337.080 116.769 C 335.899 117.218,305.057 117.200,303.873 116.750 C 302.570 116.255,302.483 112.968,303.760 112.455 C 305.456 111.773,336.803 112.012,337.669 112.713 M273.053 129.117 C 272.462 129.429,271.173 129.837,270.188 130.024 C 267.588 130.518,266.029 132.111,266.799 133.488 C 267.386 134.539,269.073 135.010,269.766 134.316 C 270.379 133.704,273.948 133.818,273.948 134.450 C 273.948 134.735,274.180 135.099,274.463 135.257 C 274.751 135.418,275.137 136.527,275.336 137.762 C 275.532 138.981,275.867 140.306,276.081 140.705 C 276.295 141.105,276.628 142.677,276.821 144.199 C 277.014 145.721,277.333 147.127,277.529 147.324 C 277.984 147.778,277.999 149.329,277.549 149.329 C 277.362 149.329,277.000 149.715,276.743 150.188 C 276.121 151.332,273.549 155.079,272.874 155.825 C 272.578 156.151,271.934 157.010,271.441 157.734 C 270.949 158.458,270.290 159.320,269.977 159.650 C 269.664 159.981,269.306 160.533,269.182 160.877 C 268.886 161.701,266.118 161.730,264.426 160.927 C 262.002 159.777,259.147 161.480,258.975 164.178 C 258.817 166.664,259.067 167.278,260.711 168.432 C 264.130 170.833,268.376 169.493,272.070 164.847 C 272.514 164.289,273.279 163.325,273.771 162.706 C 274.262 162.086,274.664 161.440,274.664 161.270 C 274.664 161.100,274.987 160.759,275.380 160.513 C 275.774 160.267,276.097 159.825,276.097 159.531 C 276.097 159.238,276.254 158.997,276.446 158.997 C 276.637 158.997,277.040 158.523,277.340 157.942 C 277.640 157.362,278.266 156.476,278.732 155.974 L 279.578 155.061 279.784 157.057 C 279.897 158.155,280.217 159.403,280.495 159.831 C 280.773 160.259,281.111 161.455,281.247 162.489 C 281.952 167.877,287.342 171.632,290.399 168.865 C 290.737 168.559,291.194 168.308,291.413 168.308 C 291.633 168.308,292.023 168.011,292.280 167.648 C 292.538 167.286,292.936 166.923,293.166 166.843 C 293.667 166.667,297.225 162.262,297.225 161.816 C 297.225 161.645,297.547 161.182,297.941 160.788 C 299.407 159.322,298.704 156.849,296.821 156.849 C 295.771 156.849,295.561 157.026,293.644 159.531 C 291.579 162.229,289.898 162.203,289.512 159.466 C 289.378 158.519,289.047 157.391,288.776 156.959 C 288.505 156.528,288.177 155.239,288.048 154.095 C 287.918 152.950,287.513 151.243,287.147 150.300 C 286.253 147.997,286.248 144.358,287.137 143.200 C 287.497 142.730,287.900 142.104,288.032 141.808 C 288.164 141.513,288.840 140.546,289.534 139.660 C 290.228 138.774,290.891 137.766,291.008 137.422 C 291.125 137.077,291.438 136.795,291.703 136.795 C 291.969 136.795,292.351 136.487,292.552 136.111 C 292.944 135.378,293.732 135.435,295.424 136.318 C 297.296 137.295,299.989 136.611,301.248 134.838 C 301.985 133.801,301.530 130.491,300.518 129.521 C 299.175 128.235,294.552 128.073,293.465 129.275 C 293.108 129.669,292.606 129.991,292.349 129.991 C 291.640 129.991,287.198 134.605,287.198 135.342 C 287.198 135.562,286.962 135.834,286.674 135.944 C 286.386 136.055,286.053 136.452,285.934 136.828 C 285.390 138.542,283.899 136.495,283.484 133.465 C 283.382 132.717,282.833 131.348,282.264 130.422 L 281.230 128.738 277.679 128.644 C 274.987 128.573,273.867 128.688,273.053 129.117 M280.982 129.722 C 282.350 131.269,282.869 132.437,283.273 134.876 C 283.946 138.932,284.908 139.351,286.840 136.431 C 290.992 130.153,296.920 127.200,300.062 129.844 C 303.566 132.792,299.383 137.786,295.255 135.582 C 293.127 134.446,291.527 135.634,288.085 140.902 C 285.481 144.887,285.362 146.128,287.016 152.014 C 287.293 152.999,287.754 154.772,288.040 155.953 C 289.869 163.503,290.865 164.065,294.369 159.523 C 295.967 157.451,296.950 156.891,297.779 157.579 C 298.512 158.188,298.425 159.459,297.583 160.430 C 297.189 160.884,296.867 161.377,296.867 161.526 C 296.867 162.716,292.000 167.513,289.914 168.377 C 285.578 170.176,283.016 168.097,281.438 161.504 C 279.417 153.056,280.131 153.193,274.897 160.251 C 268.923 168.307,266.023 170.165,262.028 168.496 C 256.520 166.194,259.204 160.285,265.133 161.660 C 268.548 162.452,269.338 161.937,273.105 156.465 C 273.841 155.396,274.902 153.876,275.462 153.089 C 278.685 148.557,278.552 149.304,277.211 143.241 C 275.112 133.748,274.894 133.410,271.060 133.670 C 268.288 133.858,267.144 133.567,267.144 132.674 C 267.144 132.082,269.942 130.356,270.936 130.334 C 271.312 130.326,272.426 130.018,273.411 129.649 C 276.121 128.635,280.053 128.673,280.982 129.722 M47.678 129.552 C 40.479 129.658,40.107 129.758,40.107 131.603 C 40.107 132.890,40.540 133.397,41.939 133.749 C 42.452 133.877,43.257 134.466,43.728 135.056 C 44.199 135.646,44.850 136.424,45.175 136.785 C 45.500 137.145,45.885 137.819,46.030 138.282 C 46.175 138.744,46.594 139.507,46.961 139.977 C 47.327 140.446,47.628 141.066,47.628 141.353 C 47.628 141.640,47.950 142.284,48.344 142.785 C 48.738 143.286,49.060 143.974,49.060 144.315 C 49.060 144.656,49.382 145.344,49.776 145.845 C 50.170 146.346,50.492 146.923,50.492 147.128 C 50.492 147.333,50.895 148.258,51.388 149.184 C 51.880 150.110,52.283 151.066,52.283 151.308 C 52.283 151.550,52.514 151.940,52.797 152.174 C 53.080 152.409,53.423 153.114,53.560 153.740 C 53.697 154.367,54.110 155.263,54.478 155.733 C 54.846 156.203,55.148 156.866,55.148 157.207 C 55.148 157.548,55.470 158.236,55.864 158.737 C 56.258 159.238,56.580 159.882,56.580 160.169 C 56.580 160.456,56.902 161.101,57.296 161.602 C 57.690 162.103,58.013 162.828,58.013 163.213 C 58.013 163.599,58.365 164.362,58.796 164.910 L 59.580 165.906 58.796 167.268 C 58.365 168.016,58.013 168.938,58.013 169.315 C 58.013 169.693,57.690 170.412,57.296 170.912 C 56.902 171.413,56.580 172.135,56.580 172.517 C 56.580 172.899,56.263 173.578,55.875 174.025 C 55.486 174.473,55.078 175.126,54.966 175.477 C 54.672 176.405,53.263 176.631,49.526 176.351 C 45.055 176.016,43.993 176.257,42.739 177.897 C 41.544 179.459,41.287 182.366,42.278 183.109 C 42.586 183.339,42.943 183.809,43.073 184.154 C 43.202 184.499,43.474 184.781,43.677 184.781 C 43.880 184.781,44.388 185.122,44.805 185.539 C 45.761 186.495,51.415 186.415,52.536 185.430 C 52.889 185.119,53.500 184.766,53.894 184.645 C 55.293 184.215,60.161 179.091,60.161 178.049 C 60.161 177.865,60.485 177.304,60.880 176.801 C 61.276 176.298,61.698 175.393,61.819 174.791 C 61.939 174.188,62.256 173.515,62.522 173.293 C 62.789 173.072,63.115 172.303,63.247 171.584 C 63.380 170.866,63.787 169.893,64.152 169.424 C 64.518 168.954,64.816 168.248,64.816 167.854 C 64.816 167.461,65.119 166.637,65.489 166.023 C 65.859 165.408,66.269 164.302,66.401 163.563 C 66.532 162.825,66.787 162.220,66.968 162.220 C 67.148 162.220,67.476 161.550,67.697 160.731 C 67.917 159.911,68.314 158.904,68.579 158.493 C 68.844 158.081,69.171 157.140,69.306 156.401 C 69.441 155.662,69.688 155.058,69.855 155.058 C 70.023 155.058,70.360 154.373,70.605 153.536 C 70.850 152.699,71.339 151.531,71.692 150.940 C 72.045 150.349,72.335 149.525,72.335 149.108 C 72.336 148.692,72.659 147.941,73.053 147.440 C 73.447 146.940,73.769 146.134,73.769 145.650 C 73.769 145.166,74.068 144.386,74.433 143.916 C 74.799 143.446,75.206 142.474,75.338 141.755 C 75.470 141.036,75.799 140.265,76.069 140.041 C 76.338 139.817,76.668 139.054,76.801 138.345 C 77.126 136.610,79.318 133.572,80.244 133.572 C 80.396 133.572,80.853 134.015,81.259 134.557 C 81.665 135.098,82.168 135.744,82.376 135.992 C 82.674 136.347,87.343 136.423,104.311 136.350 L 125.866 136.258 126.479 135.004 C 127.298 133.329,127.272 132.863,126.285 131.629 L 125.446 130.582 104.532 130.667 C 86.337 130.740,83.413 130.678,82.050 130.192 C 80.060 129.482,69.511 129.379,68.827 130.063 C 67.677 131.212,68.722 133.380,70.546 133.629 C 71.595 133.772,71.749 136.375,70.773 137.464 C 70.485 137.785,70.138 138.647,70.002 139.378 C 69.866 140.110,69.543 140.885,69.283 141.100 C 69.024 141.315,68.706 142.118,68.577 142.883 C 68.447 143.648,68.117 144.461,67.842 144.689 C 67.567 144.917,67.237 145.691,67.108 146.410 C 66.980 147.129,66.639 147.988,66.350 148.318 C 66.062 148.649,65.675 149.591,65.491 150.413 C 65.306 151.234,64.918 152.143,64.628 152.433 C 64.338 152.723,64.100 153.191,64.100 153.472 C 64.100 153.754,63.939 153.984,63.742 153.984 C 63.545 153.984,63.384 153.764,63.384 153.495 C 63.384 153.226,63.086 152.622,62.722 152.152 C 62.359 151.682,61.946 150.827,61.805 150.252 C 61.664 149.677,61.237 148.809,60.855 148.324 C 60.473 147.838,60.161 147.207,60.161 146.920 C 60.161 146.633,59.839 145.988,59.445 145.487 C 59.051 144.986,58.729 144.298,58.729 143.957 C 58.729 143.616,58.406 142.928,58.013 142.427 C 57.619 141.926,57.296 141.296,57.296 141.026 C 57.296 140.756,57.014 140.137,56.670 139.650 C 54.869 137.106,55.006 134.092,56.946 133.570 C 58.484 133.156,59.372 131.550,58.728 130.347 C 58.295 129.538,56.641 129.419,47.678 129.552 M58.322 130.608 C 58.839 131.532,58.217 132.374,56.432 133.163 C 53.953 134.260,53.943 134.873,56.319 140.018 C 60.171 148.362,63.482 155.056,63.757 155.057 C 64.047 155.059,65.891 151.306,65.891 150.715 C 65.891 150.434,66.110 149.886,66.377 149.498 C 66.644 149.109,67.070 148.147,67.323 147.359 C 67.576 146.571,68.002 145.609,68.269 145.220 C 68.537 144.832,68.756 144.265,68.756 143.962 C 68.756 143.658,69.078 142.808,69.472 142.073 C 69.866 141.338,70.188 140.532,70.188 140.282 C 70.188 140.033,70.499 139.248,70.879 138.539 C 72.446 135.615,72.254 133.479,70.367 132.856 C 69.030 132.414,68.453 131.324,69.128 130.511 C 69.873 129.614,80.062 129.776,81.468 130.707 C 82.510 131.397,83.191 131.419,103.914 131.421 C 122.862 131.423,125.348 131.487,125.847 131.986 C 126.564 132.703,126.566 133.906,125.853 134.925 L 125.295 135.721 103.991 135.721 L 82.687 135.721 82.073 134.350 C 81.735 133.595,81.300 133.017,81.105 133.065 C 80.911 133.112,80.320 133.246,79.792 133.362 C 78.861 133.567,76.648 136.289,76.623 137.261 C 76.616 137.497,76.215 138.496,75.731 139.481 C 75.246 140.466,74.848 141.473,74.847 141.720 C 74.845 141.967,74.521 142.770,74.127 143.505 C 73.733 144.240,73.411 145.094,73.411 145.402 C 73.411 145.710,73.246 146.127,73.045 146.328 C 72.844 146.529,72.361 147.528,71.971 148.548 C 70.090 153.471,67.055 160.897,66.457 162.041 C 66.148 162.632,65.894 163.318,65.893 163.564 C 65.892 163.811,65.568 164.615,65.175 165.350 C 64.781 166.085,64.458 166.890,64.458 167.140 C 64.458 167.390,64.136 168.196,63.742 168.931 C 63.348 169.666,63.026 170.479,63.026 170.738 C 63.026 170.998,62.717 171.806,62.338 172.534 C 61.960 173.263,61.143 174.921,60.523 176.219 C 56.330 184.996,46.391 188.883,42.969 183.084 C 40.481 178.867,43.632 175.994,49.790 176.865 C 53.535 177.395,56.580 176.033,56.580 173.829 C 56.580 173.688,56.964 172.750,57.432 171.746 C 60.274 165.654,60.201 166.332,58.406 162.711 C 56.750 159.371,54.273 154.170,53.739 152.910 C 53.530 152.417,53.212 151.773,53.032 151.477 C 52.746 151.009,52.197 149.826,50.539 146.106 C 50.319 145.613,49.997 144.969,49.823 144.673 C 49.648 144.378,48.727 142.525,47.774 140.555 C 45.690 136.246,43.766 133.771,42.063 133.209 C 40.685 132.754,40.075 131.430,40.827 130.524 C 41.545 129.659,57.835 129.738,58.322 130.608 M398.580 134.623 C 397.709 136.251,398.350 140.734,399.454 140.734 C 400.159 140.734,400.167 139.442,399.463 139.172 C 399.083 139.027,398.926 138.434,398.926 137.153 C 398.926 135.872,399.083 135.280,399.463 135.134 C 399.758 135.021,400.000 134.703,400.000 134.429 C 400.000 133.689,399.007 133.825,398.580 134.623 M82.503 143.871 C 81.001 144.871,80.637 147.277,81.810 148.450 L 82.689 149.329 104.029 149.329 L 125.370 149.329 126.248 148.381 C 127.270 147.279,127.321 146.349,126.444 144.852 L 125.815 143.778 104.358 143.692 C 92.556 143.645,82.722 143.726,82.503 143.871 M126.026 145.455 C 126.432 146.177,126.477 146.665,126.211 147.424 L 125.856 148.433 104.418 148.526 C 81.409 148.625,82.005 148.672,82.005 146.754 C 82.005 144.111,80.237 144.299,104.119 144.402 L 125.487 144.494 126.026 145.455 M191.444 145.598 C 190.957 146.866,191.213 152.129,191.789 152.705 C 192.778 153.693,211.921 153.533,213.201 152.525 C 214.468 151.529,214.661 146.049,213.452 145.402 C 212.195 144.729,191.707 144.911,191.444 145.598 M212.999 145.819 C 213.644 146.464,213.551 150.786,212.871 151.756 C 212.053 152.923,192.576 153.020,191.955 151.859 C 191.548 151.099,191.441 146.011,191.823 145.628 C 192.281 145.170,212.533 145.353,212.999 145.819 M398.639 151.549 C 397.538 152.650,398.269 157.565,399.534 157.565 C 399.791 157.565,400.000 157.404,400.000 157.207 C 400.000 157.010,399.758 156.849,399.463 156.849 C 399.037 156.849,398.926 156.331,398.926 154.342 C 398.926 152.353,399.037 151.835,399.463 151.835 C 399.758 151.835,400.000 151.674,400.000 151.477 C 400.000 150.983,399.161 151.027,398.639 151.549 " stroke="none" fill="#a1a1a1" fill-rule="evenodd"></path><path id="path4" d="M348.424 94.025 C 347.952 95.268,347.946 95.255,349.039 95.255 C 349.938 95.255,349.958 95.222,349.339 94.770 C 348.932 94.473,348.763 94.056,348.901 93.695 C 349.025 93.372,349.048 93.107,348.950 93.107 C 348.853 93.107,348.617 93.520,348.424 94.025 M353.939 100.090 C 353.940 102.256,353.999 103.096,354.070 101.956 C 354.141 100.817,354.140 99.044,354.068 98.017 C 353.996 96.991,353.938 97.923,353.939 100.090 M353.952 113.518 C 353.952 116.965,354.006 118.375,354.071 116.652 C 354.137 114.928,354.137 112.108,354.071 110.385 C 354.006 108.662,353.952 110.072,353.952 113.518 M236.978 108.758 C 237.424 108.844,238.068 108.841,238.411 108.751 C 238.753 108.661,238.389 108.591,237.601 108.595 C 236.813 108.599,236.533 108.673,236.978 108.758 M312.558 112.354 C 317.151 112.411,324.564 112.411,329.031 112.354 C 333.498 112.297,329.740 112.251,320.680 112.251 C 311.620 112.251,307.965 112.298,312.558 112.354 M312.355 117.010 C 316.835 117.066,324.167 117.066,328.648 117.010 C 333.129 116.953,329.463 116.906,320.501 116.906 C 311.540 116.906,307.874 116.953,312.355 117.010 M163.205 118.068 C 163.648 118.154,164.373 118.154,164.816 118.068 C 165.260 117.983,164.897 117.913,164.011 117.913 C 163.124 117.913,162.762 117.983,163.205 118.068 M180.228 123.008 C 180.230 123.993,180.300 124.353,180.382 123.809 C 180.465 123.265,180.462 122.459,180.377 122.018 C 180.292 121.578,180.225 122.023,180.228 123.008 M244.251 122.292 C 244.251 122.489,244.481 123.053,244.763 123.545 C 245.044 124.038,245.275 124.279,245.275 124.082 C 245.275 123.885,245.044 123.321,244.763 122.829 C 244.481 122.337,244.251 122.095,244.251 122.292 M219.517 125.673 C 219.517 126.252,219.644 126.805,219.800 126.901 C 219.956 126.997,220.019 126.523,219.940 125.848 C 219.764 124.343,219.517 124.240,219.517 125.673 M365.071 129.041 C 365.496 129.352,365.629 129.704,365.445 130.026 C 365.218 130.424,365.256 130.439,365.626 130.096 C 366.138 129.622,365.562 128.559,364.794 128.559 C 364.583 128.559,364.708 128.776,365.071 129.041 M300.120 130.212 C 300.596 130.827,301.057 131.265,301.145 131.186 C 301.233 131.108,300.844 130.605,300.280 130.070 L 299.256 129.096 300.120 130.212 M44.047 130.241 C 51.626 130.496,58.289 130.505,58.137 130.260 C 58.045 130.112,54.153 130.024,49.486 130.065 C 44.820 130.105,42.372 130.184,44.047 130.241 M72.264 130.258 C 73.898 130.324,76.477 130.324,77.994 130.257 C 79.511 130.190,78.174 130.136,75.022 130.136 C 71.871 130.136,70.630 130.191,72.264 130.258 M81.229 130.812 C 81.812 131.517,81.477 132.755,80.646 132.963 C 80.310 133.047,80.391 133.081,80.825 133.038 C 81.294 132.993,81.677 133.194,81.769 133.535 C 81.853 133.851,81.941 133.679,81.964 133.154 C 81.987 132.628,82.088 131.983,82.189 131.721 C 82.289 131.458,82.007 131.016,81.562 130.739 C 80.828 130.281,80.797 130.288,81.229 130.812 M175.500 133.004 C 174.848 133.676,174.401 134.442,174.506 134.705 C 174.656 135.079,174.703 135.070,174.726 134.663 C 174.741 134.377,175.269 133.612,175.898 132.962 C 176.528 132.313,176.962 131.782,176.864 131.782 C 176.765 131.782,176.152 132.332,175.500 133.004 M271.352 133.467 C 271.795 133.552,272.520 133.552,272.963 133.467 C 273.406 133.381,273.044 133.312,272.158 133.312 C 271.271 133.312,270.909 133.381,271.352 133.467 M300.834 133.552 C 300.818 133.837,300.366 134.562,299.829 135.164 L 298.853 136.258 300.051 135.134 C 300.716 134.510,301.164 133.792,301.056 133.522 C 300.900 133.130,300.857 133.136,300.834 133.552 M399.164 135.243 C 398.774 135.634,398.894 138.881,399.308 139.137 C 399.518 139.267,399.800 139.255,399.934 139.109 C 400.069 138.964,399.978 138.774,399.731 138.686 C 399.467 138.591,399.284 137.891,399.284 136.974 C 399.284 136.068,399.470 135.347,399.731 135.242 C 399.981 135.141,400.008 135.049,399.791 135.033 C 399.578 135.017,399.296 135.112,399.164 135.243 M102.172 135.631 C 105.878 135.689,111.840 135.689,115.422 135.631 C 119.003 135.572,115.971 135.525,108.684 135.525 C 101.397 135.525,98.466 135.572,102.172 135.631 M122.919 135.609 C 123.263 135.699,123.827 135.699,124.172 135.609 C 124.517 135.519,124.235 135.446,123.545 135.446 C 122.856 135.446,122.574 135.519,122.919 135.609 M178.693 138.406 C 179.361 139.096,179.988 139.660,180.087 139.660 C 180.185 139.660,179.719 139.096,179.051 138.406 C 178.383 137.717,177.756 137.153,177.657 137.153 C 177.559 137.153,178.025 137.717,178.693 138.406 M283.756 137.805 C 284.316 138.711,285.312 138.954,285.817 138.309 C 286.244 137.765,286.234 137.743,285.741 138.128 C 285.291 138.479,285.013 138.449,284.339 137.976 C 283.876 137.652,283.614 137.576,283.756 137.805 M162.493 140.987 C 162.938 141.073,163.583 141.070,163.925 140.980 C 164.268 140.891,163.903 140.820,163.115 140.824 C 162.328 140.828,162.048 140.902,162.493 140.987 M213.191 148.612 C 213.191 150.090,213.254 150.694,213.332 149.955 C 213.409 149.217,213.409 148.008,213.332 147.269 C 213.254 146.531,213.191 147.135,213.191 148.612 M278.294 148.272 C 278.267 148.774,278.124 149.340,277.977 149.528 C 277.829 149.717,277.923 149.689,278.187 149.466 C 278.450 149.244,278.593 148.679,278.504 148.211 C 278.344 147.368,278.342 147.368,278.294 148.272 M237.945 151.567 L 236.168 153.447 238.048 151.670 C 239.795 150.018,240.093 149.687,239.825 149.687 C 239.769 149.687,238.923 150.533,237.945 151.567 M398.926 154.342 C 398.926 156.501,399.013 156.845,399.552 156.820 C 399.927 156.804,399.999 156.719,399.731 156.612 C 399.191 156.394,399.106 152.551,399.642 152.551 C 399.839 152.551,400.000 152.390,400.000 152.193 C 400.000 151.996,399.758 151.835,399.463 151.835 C 399.037 151.835,398.926 152.353,398.926 154.342 M175.926 153.626 C 175.926 154.512,175.995 154.875,176.081 154.432 C 176.166 153.988,176.166 153.263,176.081 152.820 C 175.995 152.377,175.926 152.739,175.926 153.626 M233.483 156.312 C 232.613 157.198,231.982 157.923,232.080 157.923 C 232.179 157.923,232.971 157.198,233.841 156.312 C 234.710 155.425,235.342 154.700,235.243 154.700 C 235.145 154.700,234.352 155.425,233.483 156.312 M225.962 158.460 C 225.093 159.346,224.461 160.072,224.560 160.072 C 224.658 160.072,225.451 159.346,226.321 158.460 C 227.190 157.574,227.821 156.849,227.723 156.849 C 227.624 156.849,226.832 157.574,225.962 158.460 M235.900 160.339 C 238.509 160.400,242.780 160.400,245.389 160.339 C 247.999 160.278,245.864 160.228,240.645 160.228 C 235.425 160.228,233.290 160.278,235.900 160.339 M259.763 162.769 C 259.436 163.267,259.234 163.740,259.314 163.820 C 259.393 163.899,259.730 163.491,260.062 162.913 C 260.801 161.626,260.581 161.519,259.763 162.769 M220.747 164.100 L 219.696 165.264 220.859 164.212 C 221.500 163.634,222.023 163.110,222.023 163.048 C 222.023 162.772,221.728 163.015,220.747 164.100 M165.533 164.258 C 165.877 164.348,166.441 164.348,166.786 164.258 C 167.131 164.168,166.849 164.094,166.159 164.094 C 165.470 164.094,165.188 164.168,165.533 164.258 M260.419 167.425 C 260.955 167.988,261.457 168.377,261.536 168.289 C 261.614 168.201,261.176 167.740,260.562 167.264 L 259.445 166.400 260.419 167.425 M264.458 168.666 L 262.668 168.912 264.348 168.968 C 265.272 168.999,266.127 168.863,266.249 168.666 C 266.371 168.469,266.420 168.333,266.360 168.364 C 266.299 168.395,265.443 168.531,264.458 168.666 M158.013 168.913 C 158.357 169.003,158.921 169.003,159.266 168.913 C 159.611 168.823,159.329 168.749,158.639 168.749 C 157.950 168.749,157.668 168.823,158.013 168.913 M162.135 168.919 C 162.580 169.005,163.225 169.002,163.567 168.912 C 163.910 168.822,163.545 168.752,162.757 168.756 C 161.970 168.760,161.689 168.834,162.135 168.919 M286.929 168.913 C 287.274 169.003,287.838 169.003,288.183 168.913 C 288.527 168.823,288.245 168.749,287.556 168.749 C 286.867 168.749,286.585 168.823,286.929 168.913 M52.462 177.261 L 51.388 177.534 52.351 177.576 C 52.881 177.600,53.415 177.457,53.536 177.261 C 53.658 177.064,53.708 176.921,53.647 176.945 C 53.586 176.968,53.053 177.110,52.462 177.261 M47.180 185.750 C 47.623 185.835,48.348 185.835,48.791 185.750 C 49.235 185.664,48.872 185.594,47.986 185.594 C 47.099 185.594,46.737 185.664,47.180 185.750 " stroke="none" fill="#848484" fill-rule="evenodd"></path></g></svg>