<svg id="svg" version="1.1" xmlns="http://www.w3.org/2000/svg" xmlns:xlink="http://www.w3.org/1999/xlink" width="400" height="658.0645161290323" viewBox="0, 0, 400,658.0645161290323"><g id="svgg"><path id="path0" d="M0.000 329.000 L 0.000 658.000 200.000 658.000 L 400.000 658.000 400.000 329.000 L 400.000 0.000 200.000 0.000 L 0.000 0.000 0.000 329.000 M338.886 173.760 C 339.829 174.068,341.437 174.436,342.460 174.578 C 343.483 174.721,344.726 175.189,345.221 175.619 C 345.717 176.048,346.350 176.400,346.627 176.400 C 348.497 176.400,354.050 183.172,354.567 186.083 C 354.711 186.899,355.092 188.069,355.412 188.683 C 356.191 190.176,356.207 196.731,355.436 198.575 C 355.126 199.317,354.666 200.918,354.414 202.131 C 354.162 203.345,353.715 204.539,353.420 204.784 C 353.125 205.028,352.767 205.850,352.625 206.609 C 352.481 207.374,352.016 208.177,351.583 208.409 C 351.152 208.640,350.800 209.160,350.800 209.565 C 350.800 209.970,350.518 210.536,350.174 210.822 C 349.829 211.108,349.280 211.859,348.952 212.492 C 348.327 213.701,348.196 213.864,345.412 216.890 C 344.456 217.930,343.612 218.940,343.537 219.134 C 343.375 219.552,337.307 226.156,332.117 231.563 C 327.850 236.009,327.200 236.727,327.200 237.000 C 327.200 237.110,332.230 237.200,338.379 237.200 C 352.015 237.200,351.732 237.290,356.568 231.418 C 357.841 229.872,358.914 229.644,360.311 230.623 C 361.265 231.291,361.522 233.118,360.768 233.872 C 360.531 234.109,360.161 235.087,359.945 236.046 C 359.730 237.004,359.279 238.092,358.943 238.463 C 358.607 238.834,358.235 239.865,358.116 240.753 C 357.997 241.641,357.562 242.673,357.150 243.046 C 356.737 243.419,356.400 244.236,356.400 244.862 C 356.400 247.695,357.168 247.601,334.100 247.594 C 306.611 247.586,307.364 248.048,317.700 237.539 C 319.185 236.030,320.400 234.628,320.400 234.424 C 320.400 234.220,320.760 233.940,321.200 233.800 C 321.640 233.660,322.000 233.397,322.000 233.215 C 322.000 233.033,323.706 231.110,325.792 228.942 C 331.082 223.443,330.758 223.806,334.134 219.600 C 335.812 217.510,337.413 215.524,337.692 215.188 C 337.972 214.851,338.512 213.906,338.894 213.088 C 339.275 212.269,339.747 211.600,339.944 211.600 C 340.140 211.600,340.415 211.027,340.555 210.326 C 340.695 209.626,341.076 208.758,341.401 208.398 C 341.727 208.039,342.168 206.822,342.382 205.694 C 342.596 204.566,343.048 202.982,343.386 202.173 C 344.157 200.327,344.192 195.879,343.445 194.686 C 343.140 194.199,342.770 193.115,342.623 192.278 C 342.326 190.588,340.189 187.385,339.098 186.995 C 338.712 186.858,337.902 186.329,337.298 185.822 C 335.533 184.338,326.132 184.169,324.907 185.600 C 324.530 186.040,323.999 186.400,323.726 186.400 C 323.114 186.400,319.200 191.041,319.200 191.767 C 319.200 192.056,318.840 192.750,318.400 193.309 C 317.960 193.869,317.600 194.621,317.600 194.981 C 317.600 196.871,314.349 198.243,312.374 197.186 C 311.441 196.687,311.319 194.423,312.152 193.086 C 312.456 192.599,312.808 191.377,312.935 190.370 C 313.153 188.636,315.034 184.356,315.706 184.063 C 315.879 183.988,316.269 183.358,316.574 182.663 C 317.252 181.117,319.388 178.875,321.208 177.800 C 323.533 176.426,323.844 176.213,324.521 175.536 C 324.883 175.174,326.113 174.750,327.254 174.593 C 328.395 174.436,329.885 174.065,330.564 173.769 C 332.191 173.061,336.731 173.056,338.886 173.760 M186.200 251.347 C 186.860 251.704,187.700 251.996,188.066 251.998 C 188.699 252.000,189.797 252.774,191.812 254.642 C 192.311 255.105,193.008 255.594,193.360 255.729 C 193.712 255.864,194.000 256.223,194.000 256.525 C 194.000 256.828,194.356 257.399,194.792 257.793 C 195.228 258.187,195.702 259.160,195.846 259.955 C 195.989 260.750,196.353 261.886,196.653 262.480 C 197.384 263.924,197.359 267.636,196.613 268.624 C 196.290 269.051,196.020 269.881,196.013 270.469 C 196.006 271.057,195.550 272.073,195.000 272.727 C 194.450 273.381,194.000 274.135,194.000 274.403 C 194.000 274.672,193.109 275.920,192.020 277.177 C 189.846 279.687,189.683 280.933,191.472 281.382 C 192.886 281.737,197.480 286.542,197.800 288.001 C 197.945 288.661,198.207 289.200,198.383 289.200 C 199.084 289.200,200.090 294.309,200.078 297.800 C 200.064 301.377,199.157 306.928,198.437 307.844 C 197.976 308.429,197.600 309.145,197.600 309.434 C 197.600 309.723,197.349 310.104,197.043 310.280 C 196.737 310.456,196.206 311.275,195.863 312.100 C 195.521 312.925,195.047 313.600,194.811 313.600 C 194.574 313.600,194.209 314.050,194.000 314.600 C 193.791 315.150,193.366 315.600,193.056 315.600 C 192.746 315.600,192.197 316.050,191.837 316.600 C 191.476 317.150,190.935 317.600,190.634 317.600 C 190.332 317.600,189.989 317.852,189.871 318.160 C 189.753 318.468,188.968 318.946,188.128 319.223 C 187.288 319.500,186.417 319.975,186.193 320.280 C 185.969 320.585,184.709 320.990,183.393 321.180 C 182.077 321.370,180.460 321.811,179.800 322.160 C 177.848 323.193,167.103 323.076,165.096 322.000 C 164.275 321.560,163.377 321.198,163.101 321.196 C 160.046 321.170,158.654 314.606,161.237 312.398 C 162.966 310.920,167.588 310.655,169.246 311.939 C 169.771 312.345,170.740 312.809,171.400 312.970 C 172.060 313.131,172.891 313.524,173.247 313.845 C 174.957 315.386,182.553 315.339,184.330 313.777 C 189.147 309.542,189.400 309.012,189.400 303.139 C 189.400 298.372,189.342 297.992,188.500 297.207 C 188.005 296.746,187.592 296.151,187.583 295.884 C 187.555 295.101,184.711 292.145,183.300 291.434 C 182.585 291.074,182.000 290.640,182.000 290.469 C 182.000 290.298,181.145 289.961,180.100 289.719 C 179.055 289.478,177.480 289.000,176.600 288.658 C 175.720 288.315,174.241 288.027,173.314 288.018 C 169.062 287.973,170.336 283.378,174.638 283.240 C 175.319 283.218,176.187 282.856,176.567 282.436 C 176.948 282.016,177.739 281.551,178.326 281.404 C 178.913 281.257,179.665 280.886,179.997 280.580 C 182.706 278.081,183.521 277.157,183.970 276.073 C 184.254 275.388,184.737 274.619,185.043 274.364 C 186.130 273.462,185.799 266.552,184.600 265.127 C 184.050 264.473,183.600 263.685,183.600 263.375 C 183.600 263.065,183.015 262.566,182.300 262.267 C 181.585 261.968,180.753 261.426,180.451 261.062 C 179.470 259.879,172.711 260.122,171.036 261.400 C 170.314 261.950,169.598 262.400,169.442 262.400 C 169.039 262.400,166.400 265.015,166.400 265.415 C 166.400 267.175,162.606 268.272,161.131 266.938 C 160.226 266.118,160.233 265.803,161.200 263.800 C 161.625 262.920,161.979 261.969,161.986 261.687 C 161.994 261.406,162.254 261.078,162.564 260.959 C 162.874 260.839,163.229 260.339,163.353 259.847 C 163.837 257.917,170.342 252.027,172.011 252.007 C 172.347 252.003,173.067 251.685,173.611 251.300 C 175.487 249.972,183.710 250.003,186.200 251.347 M71.626 274.014 C 73.440 274.985,72.296 278.014,69.889 278.615 C 67.809 279.134,67.640 283.493,69.611 285.800 C 69.987 286.240,70.418 287.117,70.567 287.748 C 70.717 288.380,71.096 289.153,71.409 289.466 C 71.723 289.780,72.171 290.748,72.405 291.618 C 72.639 292.488,72.997 293.200,73.199 293.200 C 73.402 293.200,73.796 293.961,74.074 294.890 C 74.353 295.820,74.900 296.900,75.290 297.290 C 75.681 297.681,76.000 298.422,76.000 298.939 C 76.000 299.455,76.365 300.298,76.811 300.813 C 77.257 301.327,77.726 302.164,77.854 302.674 C 78.289 304.404,80.105 302.130,80.592 299.246 C 80.743 298.353,81.185 297.213,81.575 296.712 C 81.965 296.210,82.405 295.143,82.553 294.340 C 82.700 293.537,83.082 292.664,83.400 292.400 C 83.718 292.136,84.090 291.263,84.227 290.460 C 84.363 289.657,84.790 288.550,85.175 288.000 C 85.560 287.450,86.008 286.280,86.171 285.400 C 86.334 284.520,86.752 283.483,87.100 283.096 C 88.358 281.694,87.991 279.151,86.455 278.626 C 84.032 277.797,83.185 275.416,84.889 274.223 C 86.146 273.342,97.919 273.325,100.400 274.200 C 101.845 274.710,106.026 274.800,128.230 274.800 L 154.359 274.800 155.380 276.138 C 156.569 277.697,156.662 278.805,155.728 280.314 C 154.374 282.501,155.713 282.400,128.177 282.400 C 99.954 282.400,100.990 282.489,100.203 280.010 C 99.635 278.221,96.000 279.499,96.000 281.487 C 96.000 281.783,95.748 282.122,95.439 282.240 C 95.131 282.359,94.756 283.118,94.606 283.928 C 94.456 284.737,94.007 285.940,93.610 286.600 C 93.212 287.260,92.757 288.430,92.599 289.200 C 92.440 289.970,92.045 290.902,91.719 291.271 C 91.394 291.641,90.954 292.718,90.741 293.665 C 90.528 294.613,90.105 295.663,89.800 296.000 C 89.495 296.337,89.072 297.387,88.859 298.335 C 88.646 299.282,88.209 300.359,87.887 300.729 C 87.565 301.098,87.184 302.057,87.040 302.860 C 86.896 303.663,86.518 304.536,86.200 304.800 C 85.882 305.064,85.510 305.937,85.373 306.740 C 85.237 307.543,84.795 308.670,84.391 309.245 C 83.987 309.820,83.532 310.954,83.380 311.765 C 83.228 312.576,82.860 313.483,82.563 313.780 C 82.265 314.078,81.853 315.072,81.647 315.989 C 81.441 316.907,81.001 317.959,80.670 318.329 C 80.339 318.698,79.942 319.677,79.789 320.503 C 79.635 321.330,79.170 322.439,78.755 322.967 C 78.340 323.494,78.000 324.255,78.000 324.657 C 78.000 325.337,76.655 328.482,75.373 330.800 C 75.069 331.350,74.478 332.520,74.060 333.400 C 73.379 334.831,70.231 338.805,69.522 339.126 C 69.370 339.195,68.580 339.780,67.767 340.426 C 66.955 341.072,66.045 341.600,65.745 341.600 C 65.445 341.600,64.840 341.960,64.400 342.400 C 63.062 343.738,56.373 343.577,54.658 342.165 C 51.051 339.198,50.292 336.400,52.285 333.422 C 52.882 332.530,53.414 331.733,53.467 331.652 C 53.848 331.064,57.878 330.835,61.109 331.217 C 65.051 331.683,67.600 331.284,67.600 330.200 C 67.600 329.904,68.050 329.127,68.600 328.473 C 69.150 327.819,69.600 326.930,69.600 326.496 C 69.600 326.063,69.934 325.279,70.342 324.754 C 70.750 324.229,71.207 323.131,71.358 322.313 C 71.508 321.495,71.862 320.595,72.143 320.313 C 73.061 319.394,73.161 318.078,72.383 317.181 C 71.980 316.715,71.525 315.764,71.372 315.067 C 71.220 314.370,70.759 313.371,70.348 312.846 C 69.937 312.321,69.600 311.569,69.600 311.175 C 69.600 310.780,69.325 310.182,68.988 309.845 C 68.652 309.509,68.107 308.470,67.778 307.537 C 67.448 306.603,66.938 305.561,66.643 305.220 C 66.349 304.879,65.982 304.074,65.829 303.432 C 65.676 302.789,65.202 301.820,64.775 301.278 C 64.349 300.736,64.000 299.981,64.000 299.600 C 64.000 299.219,63.667 298.479,63.261 297.954 C 62.855 297.429,62.393 296.474,62.236 295.832 C 62.079 295.189,61.606 294.226,61.186 293.691 C 60.765 293.156,60.309 292.120,60.171 291.387 C 60.034 290.655,59.679 289.962,59.383 289.849 C 59.087 289.735,58.726 289.014,58.582 288.247 C 58.439 287.480,57.989 286.552,57.583 286.185 C 57.177 285.817,56.735 285.014,56.600 284.400 C 56.465 283.786,56.005 282.966,55.577 282.579 C 55.150 282.193,54.800 281.710,54.800 281.507 C 54.800 280.802,52.456 278.800,51.631 278.800 C 49.650 278.800,48.408 275.650,49.829 274.229 C 50.588 273.469,70.246 273.275,71.626 274.014 M373.200 289.316 C 374.346 289.894,374.932 295.477,373.969 296.638 C 373.458 297.253,299.874 297.504,298.960 296.894 C 297.607 295.990,298.138 289.562,299.600 289.157 C 301.570 288.611,372.105 288.764,373.200 289.316 M154.838 291.500 C 156.736 293.864,156.837 295.311,155.219 296.981 L 154.037 298.200 127.851 298.000 L 101.664 297.800 100.632 296.830 C 99.211 295.495,99.891 291.792,101.689 291.068 C 103.341 290.404,154.290 290.818,154.838 291.500 M262.420 293.010 C 264.107 293.883,264.249 300.187,262.618 301.818 L 261.636 302.800 249.067 302.800 C 237.872 302.800,236.438 302.728,235.949 302.140 C 235.065 301.076,234.942 293.915,235.793 293.064 C 236.753 292.105,260.575 292.056,262.420 293.010 M335.025 352.300 C 336.554 354.013,337.592 356.153,337.835 358.097 C 338.166 360.729,340.400 364.508,340.400 362.434 C 340.400 362.064,341.448 360.704,343.100 358.930 C 343.595 358.399,344.000 357.864,344.000 357.741 C 344.000 357.269,347.790 353.594,348.514 353.364 C 348.935 353.230,349.621 352.779,350.039 352.361 C 351.467 350.933,357.017 351.265,358.681 352.878 C 363.034 357.098,356.608 364.667,351.776 361.013 C 350.772 360.253,349.237 360.237,348.950 360.985 C 348.827 361.306,348.383 361.679,347.963 361.812 C 347.543 361.945,347.200 362.279,347.200 362.555 C 347.200 362.830,346.795 363.422,346.300 363.869 C 345.805 364.317,345.040 365.285,344.600 366.022 C 343.744 367.455,343.418 367.964,342.235 369.722 C 341.193 371.268,341.266 376.511,342.360 378.687 C 342.777 379.519,343.239 381.349,343.386 382.754 C 343.532 384.158,343.897 385.688,344.196 386.154 C 344.496 386.619,344.855 387.720,344.993 388.600 C 345.468 391.605,345.592 391.905,346.457 392.131 C 347.339 392.361,349.600 391.444,349.600 390.855 C 349.600 390.677,350.246 389.703,351.035 388.690 C 354.581 384.138,358.379 387.151,355.208 392.000 C 352.993 395.388,348.539 400.400,347.744 400.400 C 347.512 400.400,346.907 400.760,346.400 401.200 C 345.675 401.828,344.903 402.000,342.800 402.000 C 340.697 402.000,339.925 401.828,339.200 401.200 C 338.693 400.760,338.139 400.400,337.970 400.400 C 337.360 400.400,335.208 395.455,334.946 393.451 C 334.798 392.323,334.444 391.040,334.159 390.600 C 333.874 390.160,333.530 388.990,333.395 388.000 C 333.260 387.010,333.066 385.788,332.963 385.283 L 332.776 384.367 331.848 385.483 C 331.337 386.098,330.684 387.050,330.396 387.600 C 330.108 388.150,329.542 388.835,329.137 389.123 C 328.731 389.410,328.400 389.899,328.400 390.209 C 328.400 390.518,328.040 390.965,327.600 391.200 C 327.160 391.435,326.800 391.800,326.800 392.011 C 326.800 392.348,325.144 394.680,323.557 396.577 C 321.811 398.664,320.128 400.154,318.969 400.639 C 318.246 400.941,317.542 401.371,317.404 401.594 C 316.711 402.715,311.375 402.046,309.482 400.600 C 304.676 396.931,309.157 388.132,314.161 391.411 C 315.334 392.180,319.680 392.359,319.917 391.649 C 320.008 391.376,320.514 390.687,321.041 390.118 C 321.569 389.549,322.000 388.963,322.000 388.817 C 322.000 388.671,322.316 388.202,322.701 387.775 C 323.087 387.349,323.719 386.550,324.105 386.000 C 324.492 385.450,325.250 384.370,325.791 383.600 C 326.331 382.830,327.315 381.480,327.978 380.600 C 328.641 379.720,329.362 378.595,329.582 378.100 C 329.801 377.605,330.165 377.200,330.390 377.200 C 330.962 377.200,330.901 375.947,330.252 374.349 C 329.951 373.607,329.584 371.768,329.437 370.263 C 329.290 368.758,328.923 367.138,328.621 366.663 C 328.318 366.188,327.880 364.542,327.647 363.004 C 327.414 361.466,327.026 360.142,326.786 360.062 C 326.545 359.982,326.175 359.461,325.964 358.904 C 325.542 357.796,322.171 357.787,320.406 358.889 C 319.273 359.596,317.507 358.848,317.016 357.454 C 316.442 355.822,318.691 353.772,321.461 353.400 C 323.530 353.123,323.661 353.081,325.200 352.190 C 326.762 351.287,334.195 351.370,335.025 352.300 " stroke="none" fill="#fbfbfb" fill-rule="evenodd"></path><path id="path1" d="M328.800 175.560 C 326.966 175.877,323.671 177.550,322.789 178.613 C 322.521 178.936,322.061 179.200,321.766 179.200 C 321.132 179.200,317.382 183.598,317.006 184.781 C 316.863 185.232,316.585 185.600,316.388 185.600 C 316.192 185.600,315.829 186.365,315.583 187.300 C 315.336 188.235,314.872 189.410,314.551 189.910 C 313.810 191.067,313.332 195.787,313.920 196.150 C 314.563 196.548,316.220 194.788,316.761 193.132 C 317.025 192.325,317.502 191.448,317.820 191.183 C 318.139 190.918,318.400 190.499,318.401 190.251 C 318.401 190.003,318.941 189.170,319.600 188.400 C 320.259 187.630,320.799 186.900,320.799 186.777 C 320.806 185.178,329.219 182.061,331.763 182.714 C 332.664 182.945,334.390 183.389,335.600 183.700 C 339.010 184.576,342.645 187.514,343.393 190.000 C 343.559 190.550,343.988 191.334,344.347 191.742 C 345.468 193.017,345.278 203.283,344.094 205.394 C 343.602 206.271,343.200 207.462,343.200 208.040 C 343.200 208.619,342.865 209.521,342.455 210.046 C 342.045 210.571,341.591 211.381,341.445 211.847 C 341.299 212.313,340.824 213.016,340.390 213.409 C 339.955 213.802,339.600 214.340,339.600 214.605 C 339.600 215.132,335.993 220.101,334.644 221.433 C 334.180 221.891,332.630 223.564,331.200 225.151 C 329.770 226.738,327.340 229.365,325.800 230.988 C 315.697 241.636,313.638 244.026,313.504 245.254 L 313.400 246.200 333.564 246.304 C 356.022 246.419,354.859 246.559,355.394 243.674 C 355.544 242.863,355.990 241.660,356.385 241.000 C 356.780 240.340,357.219 239.143,357.362 238.340 C 357.505 237.537,357.882 236.664,358.200 236.400 C 358.924 235.799,359.371 233.535,359.031 232.183 C 358.782 231.190,358.718 231.228,356.813 233.508 C 355.734 234.799,354.091 236.383,353.161 237.028 L 351.470 238.200 339.374 238.335 C 326.975 238.473,325.600 238.333,325.600 236.934 C 325.600 236.286,325.924 235.909,332.247 229.200 C 334.217 227.110,336.542 224.615,337.414 223.655 C 338.286 222.695,339.860 220.985,340.912 219.855 C 341.963 218.725,343.071 217.530,343.374 217.200 C 344.987 215.443,347.996 211.441,348.209 210.771 C 348.344 210.347,348.619 210.000,348.822 210.000 C 349.024 210.000,349.443 209.392,349.754 208.649 C 350.064 207.906,350.512 207.178,350.748 207.032 C 350.985 206.886,351.380 206.009,351.626 205.083 C 351.873 204.157,352.334 203.109,352.652 202.753 C 353.948 201.298,354.348 188.932,353.183 186.306 C 352.039 183.727,349.166 179.658,348.287 179.371 C 347.895 179.243,347.104 178.702,346.529 178.169 C 345.954 177.636,345.174 177.200,344.796 177.200 C 344.417 177.200,343.635 176.828,343.058 176.374 C 341.891 175.456,332.507 174.920,328.800 175.560 M177.200 252.220 C 176.210 252.504,174.839 252.750,174.154 252.768 C 173.469 252.786,172.442 253.166,171.873 253.614 C 171.303 254.062,170.289 254.620,169.619 254.853 C 168.948 255.087,168.400 255.413,168.400 255.578 C 168.400 255.743,167.593 256.760,166.606 257.839 C 165.620 258.918,164.699 260.160,164.560 260.600 C 164.422 261.040,163.945 261.797,163.501 262.282 C 161.801 264.141,162.566 267.277,164.287 265.502 C 168.847 260.801,169.857 259.971,171.545 259.537 C 172.345 259.331,173.387 258.970,173.859 258.735 C 174.836 258.250,176.874 258.432,179.821 259.268 C 181.579 259.767,182.323 260.224,184.036 261.860 C 189.659 267.227,187.021 279.039,179.400 282.620 C 178.740 282.930,177.930 283.364,177.600 283.583 C 177.270 283.803,176.272 284.163,175.383 284.384 C 174.493 284.605,173.334 285.189,172.806 285.680 L 171.846 286.575 172.823 286.848 C 173.360 286.998,174.790 287.139,176.000 287.163 C 177.210 287.186,178.740 287.492,179.400 287.844 C 180.060 288.195,181.273 288.726,182.097 289.022 C 182.920 289.319,183.820 289.748,184.097 289.975 C 184.373 290.202,185.180 290.853,185.890 291.421 C 189.942 294.666,192.828 303.264,191.032 306.738 C 190.685 307.410,190.400 308.301,190.400 308.718 C 190.400 309.135,190.056 309.787,189.637 310.167 C 189.217 310.547,188.669 311.340,188.420 311.929 C 186.988 315.312,178.852 318.187,175.594 316.461 C 174.827 316.055,173.660 315.591,173.000 315.430 C 172.340 315.269,171.530 314.905,171.200 314.621 C 170.870 314.336,169.365 313.699,167.855 313.204 L 165.111 312.305 163.188 313.206 C 159.860 314.765,160.282 319.078,163.868 320.143 C 168.432 321.500,181.671 320.920,184.422 319.243 C 185.180 318.781,186.017 318.402,186.282 318.401 C 186.832 318.400,189.315 316.864,190.800 315.606 C 191.350 315.140,191.984 314.633,192.209 314.480 C 193.426 313.648,196.456 308.421,197.587 305.200 C 199.144 300.770,199.180 293.684,197.660 291.200 C 197.189 290.430,196.802 289.483,196.801 289.096 C 196.799 288.134,191.270 282.400,190.344 282.400 C 187.334 282.400,187.457 279.600,190.613 276.268 C 192.036 274.765,193.200 273.304,193.200 273.022 C 193.200 272.739,193.605 271.993,194.100 271.364 C 195.578 269.486,195.451 261.262,193.910 259.000 C 191.731 255.802,187.776 252.800,185.743 252.800 C 185.097 252.800,183.531 252.530,182.265 252.200 C 179.652 251.520,179.646 251.520,177.200 252.220 M50.545 275.398 C 50.232 276.215,51.101 277.199,52.741 277.884 C 54.608 278.665,59.200 284.355,59.200 285.889 C 59.200 286.125,59.740 287.345,60.400 288.600 C 61.060 289.855,61.600 291.111,61.600 291.392 C 61.600 291.672,61.858 292.117,62.174 292.379 C 62.490 292.641,62.863 293.374,63.002 294.009 C 63.141 294.643,63.575 295.576,63.967 296.081 C 64.358 296.587,64.807 297.526,64.964 298.168 C 65.121 298.811,65.598 299.780,66.025 300.322 C 66.451 300.864,66.800 301.619,66.800 302.000 C 66.800 302.381,67.149 303.136,67.575 303.678 C 68.002 304.220,68.479 305.189,68.636 305.832 C 68.793 306.474,69.255 307.429,69.661 307.954 C 70.067 308.479,70.400 309.219,70.400 309.600 C 70.400 309.981,70.749 310.736,71.175 311.278 C 71.602 311.820,72.079 312.789,72.236 313.432 C 72.393 314.074,72.855 315.029,73.261 315.554 C 74.197 316.762,74.266 320.242,73.379 321.508 C 73.038 321.996,72.491 323.296,72.164 324.397 C 71.837 325.499,71.410 326.400,71.216 326.400 C 71.022 326.400,70.749 326.922,70.609 327.559 C 69.775 331.358,65.159 334.427,62.415 333.008 C 57.057 330.237,51.666 333.470,53.436 338.391 C 54.914 342.502,62.639 343.030,66.730 339.300 C 67.273 338.805,67.859 338.400,68.033 338.400 C 68.527 338.400,73.200 332.529,73.200 331.909 C 73.200 331.605,73.650 330.745,74.200 330.000 C 74.750 329.255,75.200 328.311,75.200 327.904 C 75.200 327.497,75.650 326.318,76.200 325.285 C 76.750 324.252,77.200 323.156,77.200 322.850 C 77.200 322.545,77.538 321.733,77.951 321.047 C 78.365 320.361,78.819 319.143,78.962 318.340 C 79.105 317.537,79.471 316.673,79.775 316.420 C 80.080 316.167,80.541 315.078,80.800 314.000 C 81.059 312.922,81.510 311.840,81.804 311.597 C 82.097 311.353,82.456 310.455,82.600 309.600 C 82.744 308.745,83.103 307.847,83.396 307.603 C 83.690 307.360,84.141 306.278,84.400 305.200 C 84.659 304.122,85.120 303.033,85.425 302.780 C 85.729 302.527,86.095 301.663,86.238 300.860 C 86.381 300.057,86.816 298.860,87.206 298.200 C 87.595 297.540,88.035 296.427,88.183 295.728 C 88.330 295.028,88.705 294.245,89.015 293.987 C 89.325 293.730,89.690 292.863,89.827 292.060 C 89.963 291.257,90.395 290.143,90.787 289.584 C 91.179 289.026,91.631 287.946,91.793 287.184 C 91.954 286.423,92.407 285.260,92.800 284.600 C 93.193 283.940,93.629 282.854,93.770 282.186 C 94.031 280.949,96.095 278.557,98.368 276.858 C 100.710 275.107,99.619 274.766,92.076 274.891 C 85.092 275.006,83.714 275.420,86.473 276.573 C 89.386 277.790,90.054 281.601,87.958 285.047 C 87.541 285.733,87.200 286.550,87.200 286.863 C 87.200 287.175,86.836 288.144,86.390 289.015 C 85.945 289.887,85.388 291.320,85.153 292.200 C 84.918 293.080,84.483 294.073,84.186 294.406 C 83.889 294.739,83.472 295.787,83.259 296.735 C 83.046 297.682,82.611 298.759,82.291 299.129 C 81.971 299.498,81.604 300.363,81.475 301.050 C 81.187 302.581,78.939 306.000,78.220 306.000 C 77.932 306.000,77.462 305.415,77.176 304.700 C 76.889 303.985,76.327 302.971,75.927 302.446 C 75.527 301.921,75.200 301.181,75.200 300.800 C 75.200 300.419,74.851 299.664,74.425 299.122 C 73.998 298.580,73.524 297.611,73.371 296.968 C 73.218 296.326,72.849 295.518,72.551 295.174 C 72.254 294.830,71.799 293.930,71.541 293.174 C 71.283 292.418,70.741 291.371,70.336 290.846 C 69.931 290.321,69.600 289.581,69.600 289.200 C 69.600 288.819,69.240 288.050,68.800 287.491 C 68.360 286.931,68.000 286.266,68.000 286.012 C 68.000 285.758,67.536 284.570,66.969 283.371 C 65.425 280.108,67.398 276.455,70.729 276.408 C 71.020 276.403,71.198 276.085,71.124 275.700 C 70.931 274.696,50.928 274.402,50.545 275.398 M101.676 278.300 L 101.800 279.800 128.100 279.903 L 154.400 280.006 154.400 278.403 L 154.400 276.800 127.976 276.800 L 101.552 276.800 101.676 278.300 M300.623 290.889 C 299.594 292.358,299.778 295.847,300.900 296.148 C 302.080 296.464,370.944 296.473,371.767 296.157 C 372.512 295.871,372.667 292.047,371.986 290.774 C 371.581 290.018,370.764 290.000,336.409 290.000 L 301.245 290.000 300.623 290.889 M102.022 293.373 C 101.758 293.691,101.600 294.458,101.671 295.076 L 101.800 296.200 128.123 296.303 L 154.446 296.406 154.323 294.703 L 154.200 293.000 128.351 292.897 C 106.197 292.809,102.434 292.877,102.022 293.373 M236.484 297.094 L 236.600 300.600 240.600 300.908 C 246.998 301.400,260.806 301.031,261.244 300.356 C 261.443 300.050,261.559 298.450,261.503 296.800 L 261.400 293.800 248.884 293.694 L 236.369 293.589 236.484 297.094 M329.400 352.810 C 328.520 352.939,327.440 353.241,327.000 353.482 C 326.560 353.724,325.300 354.052,324.200 354.213 C 321.955 354.540,318.663 356.255,319.057 356.892 C 319.221 357.157,320.391 357.217,322.282 357.057 C 326.586 356.693,327.909 357.556,328.629 361.194 C 328.781 361.961,329.139 362.951,329.426 363.394 C 329.713 363.837,330.074 365.370,330.228 366.800 C 330.383 368.230,330.845 370.262,331.255 371.315 C 332.180 373.692,332.278 377.919,331.415 378.250 C 331.094 378.373,330.726 378.801,330.599 379.202 C 330.393 379.851,328.895 381.973,327.505 383.585 C 327.227 383.907,326.820 384.462,326.600 384.817 C 322.187 391.953,318.839 395.042,316.896 393.769 C 314.825 392.411,310.672 392.494,309.662 393.912 C 307.021 397.622,310.741 401.046,316.200 399.930 C 318.975 399.362,319.582 398.893,322.990 394.693 C 324.637 392.662,326.245 390.699,326.562 390.330 C 326.880 389.962,327.358 389.242,327.625 388.730 C 327.892 388.219,328.348 387.530,328.639 387.200 C 328.929 386.870,329.833 385.826,330.647 384.881 C 332.470 382.764,333.590 382.738,334.097 384.800 C 334.287 385.570,334.684 386.740,334.980 387.400 C 335.276 388.060,335.635 389.590,335.777 390.800 C 335.920 392.010,336.368 393.810,336.774 394.800 C 337.179 395.790,337.703 397.085,337.937 397.679 C 338.815 399.901,342.925 400.845,346.237 399.586 C 347.925 398.944,349.943 396.913,352.400 393.382 C 352.950 392.592,353.805 391.436,354.300 390.815 C 355.371 389.469,355.554 387.378,354.567 387.757 C 354.219 387.891,353.774 388.000,353.578 388.000 C 353.381 388.000,352.964 388.496,352.650 389.103 C 351.848 390.654,348.016 394.402,347.243 394.391 C 346.031 394.374,344.724 392.938,343.947 390.770 C 342.606 387.026,342.400 386.242,342.400 384.881 C 342.400 384.152,342.060 382.801,341.644 381.878 C 341.228 380.955,340.757 379.030,340.597 377.600 C 340.437 376.170,340.082 374.550,339.808 374.000 C 339.534 373.450,339.391 372.730,339.491 372.400 C 339.824 371.298,341.211 368.618,342.312 366.950 C 347.347 359.315,349.577 358.021,354.269 360.013 C 356.241 360.850,358.800 358.982,358.800 356.706 C 358.800 353.210,355.008 351.762,350.926 353.700 C 349.089 354.572,343.200 360.142,343.200 361.006 C 343.200 361.235,342.885 361.706,342.500 362.052 C 342.115 362.399,341.483 363.268,341.095 363.983 C 339.636 366.671,337.411 364.986,336.972 360.861 C 336.817 359.398,336.354 357.573,335.945 356.806 C 335.535 356.039,335.200 355.196,335.200 354.933 C 335.200 353.569,332.063 352.420,329.400 352.810 " stroke="none" fill="#0e0e0e" fill-rule="evenodd"></path><path id="path2" d="M329.840 174.855 C 327.126 175.204,323.553 176.811,322.398 178.203 C 322.125 178.531,321.689 178.800,321.429 178.800 C 320.295 178.800,314.800 186.119,314.800 187.629 C 314.800 188.027,314.634 188.455,314.431 188.581 C 314.006 188.844,312.800 193.864,312.800 195.371 C 312.800 197.784,316.337 196.700,316.993 194.086 C 317.136 193.516,317.601 192.560,318.027 191.963 C 318.452 191.365,318.800 190.771,318.800 190.642 C 318.800 189.040,323.844 184.778,326.600 184.051 C 339.374 180.681,348.191 192.115,343.371 205.800 C 340.709 213.358,336.788 218.713,324.651 231.367 C 312.653 243.877,311.154 245.836,313.033 246.557 C 313.381 246.691,322.818 246.800,334.004 246.800 C 355.709 246.800,355.600 246.810,355.600 244.898 C 355.600 244.543,355.950 243.521,356.377 242.626 C 357.124 241.062,357.560 239.948,359.269 235.234 C 360.096 232.951,359.986 231.323,358.977 230.936 C 358.356 230.698,357.444 231.528,355.486 234.112 C 354.874 234.921,353.524 236.081,352.486 236.691 L 350.600 237.800 338.720 237.800 C 324.470 237.800,324.813 237.923,328.463 234.112 C 329.892 232.621,332.565 229.780,334.404 227.800 C 336.243 225.820,338.843 223.030,340.182 221.600 C 343.483 218.073,348.400 212.134,348.400 211.673 C 348.400 211.467,348.680 211.065,349.023 210.781 C 349.366 210.496,349.909 209.709,350.230 209.032 C 350.551 208.354,351.073 207.350,351.390 206.800 C 352.698 204.527,353.918 201.276,354.168 199.400 C 354.314 198.300,354.625 196.498,354.859 195.395 C 355.919 190.402,352.491 181.594,348.324 178.602 C 343.287 174.986,337.680 173.849,329.840 174.855 M343.058 176.374 C 343.635 176.828,344.417 177.200,344.796 177.200 C 345.174 177.200,345.954 177.636,346.529 178.169 C 347.104 178.702,347.895 179.243,348.287 179.371 C 349.166 179.658,352.039 183.727,353.183 186.306 C 354.348 188.932,353.948 201.298,352.652 202.753 C 352.334 203.109,351.873 204.157,351.626 205.083 C 351.380 206.009,350.985 206.886,350.748 207.032 C 350.512 207.178,350.064 207.906,349.754 208.649 C 349.443 209.392,349.024 210.000,348.822 210.000 C 348.619 210.000,348.344 210.347,348.209 210.771 C 347.996 211.441,344.987 215.443,343.374 217.200 C 343.071 217.530,341.963 218.725,340.912 219.855 C 339.860 220.985,338.286 222.695,337.414 223.655 C 336.542 224.615,334.217 227.110,332.247 229.200 C 325.924 235.909,325.600 236.286,325.600 236.934 C 325.600 238.333,326.975 238.473,339.374 238.335 L 351.470 238.200 353.161 237.028 C 354.091 236.383,355.734 234.799,356.813 233.508 C 358.718 231.228,358.782 231.190,359.031 232.183 C 359.371 233.535,358.924 235.799,358.200 236.400 C 357.882 236.664,357.505 237.537,357.362 238.340 C 357.219 239.143,356.780 240.340,356.385 241.000 C 355.990 241.660,355.544 242.863,355.394 243.674 C 354.859 246.559,356.022 246.419,333.564 246.304 L 313.400 246.200 313.504 245.254 C 313.638 244.026,315.697 241.636,325.800 230.988 C 327.340 229.365,329.770 226.738,331.200 225.151 C 332.630 223.564,334.180 221.891,334.644 221.433 C 335.993 220.101,339.600 215.132,339.600 214.605 C 339.600 214.340,339.955 213.802,340.390 213.409 C 340.824 213.016,341.299 212.313,341.445 211.847 C 341.591 211.381,342.045 210.571,342.455 210.046 C 342.865 209.521,343.200 208.619,343.200 208.040 C 343.200 207.462,343.602 206.271,344.094 205.394 C 345.278 203.283,345.468 193.017,344.347 191.742 C 343.988 191.334,343.559 190.550,343.393 190.000 C 342.645 187.514,339.010 184.576,335.600 183.700 C 334.390 183.389,332.664 182.945,331.763 182.714 C 329.219 182.061,320.806 185.178,320.799 186.777 C 320.799 186.900,320.259 187.630,319.600 188.400 C 318.941 189.170,318.401 190.003,318.401 190.251 C 318.400 190.499,318.139 190.918,317.820 191.183 C 317.502 191.448,317.025 192.325,316.761 193.132 C 316.220 194.788,314.563 196.548,313.920 196.150 C 313.332 195.787,313.810 191.067,314.551 189.910 C 314.872 189.410,315.336 188.235,315.583 187.300 C 315.829 186.365,316.192 185.600,316.388 185.600 C 316.585 185.600,316.863 185.232,317.006 184.781 C 317.382 183.598,321.132 179.200,321.766 179.200 C 322.061 179.200,322.521 178.936,322.789 178.613 C 325.450 175.407,339.812 173.821,343.058 176.374 M177.386 251.424 C 171.478 252.633,169.170 253.885,166.209 257.486 C 160.515 264.412,160.160 270.662,165.799 264.720 C 170.065 260.225,173.005 258.912,177.634 259.436 C 186.862 260.480,189.667 272.158,182.439 279.433 C 180.333 281.553,176.922 283.486,174.276 284.060 C 170.181 284.947,170.822 287.111,175.328 287.617 C 176.983 287.802,178.666 288.126,179.069 288.335 C 179.471 288.545,181.021 289.305,182.514 290.025 C 186.616 292.004,189.066 295.190,190.356 300.225 C 193.190 311.286,181.302 320.316,171.905 314.240 C 168.421 311.987,164.387 311.395,162.327 312.834 C 160.560 314.069,160.413 314.327,160.406 316.222 C 160.379 323.348,179.755 323.937,189.860 317.118 C 201.794 309.063,202.302 287.970,190.706 281.964 C 189.025 281.093,188.323 279.474,189.282 278.680 C 190.149 277.961,193.600 273.758,193.600 273.420 C 193.600 273.258,193.944 272.688,194.365 272.153 C 199.220 265.982,193.917 254.006,185.510 252.151 C 180.127 250.964,179.783 250.933,177.386 251.424 M182.265 252.200 C 183.531 252.530,185.097 252.800,185.743 252.800 C 187.776 252.800,191.731 255.802,193.910 259.000 C 195.451 261.262,195.578 269.486,194.100 271.364 C 193.605 271.993,193.200 272.739,193.200 273.022 C 193.200 273.304,192.036 274.765,190.613 276.268 C 187.457 279.600,187.334 282.400,190.344 282.400 C 191.270 282.400,196.799 288.134,196.801 289.096 C 196.802 289.483,197.189 290.430,197.660 291.200 C 199.180 293.684,199.144 300.770,197.587 305.200 C 196.456 308.421,193.426 313.648,192.209 314.480 C 191.984 314.633,191.350 315.140,190.800 315.606 C 189.315 316.864,186.832 318.400,186.282 318.401 C 186.017 318.402,185.180 318.781,184.422 319.243 C 181.671 320.920,168.432 321.500,163.868 320.143 C 160.282 319.078,159.860 314.765,163.188 313.206 L 165.111 312.305 167.855 313.204 C 169.365 313.699,170.870 314.336,171.200 314.621 C 171.530 314.905,172.340 315.269,173.000 315.430 C 173.660 315.591,174.827 316.055,175.594 316.461 C 178.852 318.187,186.988 315.312,188.420 311.929 C 188.669 311.340,189.217 310.547,189.637 310.167 C 190.056 309.787,190.400 309.135,190.400 308.718 C 190.400 308.301,190.685 307.410,191.032 306.738 C 192.828 303.264,189.942 294.666,185.890 291.421 C 185.180 290.853,184.373 290.202,184.097 289.975 C 183.820 289.748,182.920 289.319,182.097 289.022 C 181.273 288.726,180.060 288.195,179.400 287.844 C 178.740 287.492,177.210 287.186,176.000 287.163 C 174.790 287.139,173.360 286.998,172.823 286.848 L 171.846 286.575 172.806 285.680 C 173.334 285.189,174.493 284.605,175.383 284.384 C 176.272 284.163,177.270 283.803,177.600 283.583 C 177.930 283.364,178.740 282.930,179.400 282.620 C 187.021 279.039,189.659 267.227,184.036 261.860 C 182.323 260.224,181.579 259.767,179.821 259.268 C 176.874 258.432,174.836 258.250,173.859 258.735 C 173.387 258.970,172.345 259.331,171.545 259.537 C 169.857 259.971,168.847 260.801,164.287 265.502 C 162.566 267.277,161.801 264.141,163.501 262.282 C 163.945 261.797,164.422 261.040,164.560 260.600 C 164.699 260.160,165.620 258.918,166.606 257.839 C 167.593 256.760,168.400 255.743,168.400 255.578 C 168.400 255.413,168.948 255.087,169.619 254.853 C 170.289 254.620,171.303 254.062,171.873 253.614 C 172.442 253.166,173.469 252.786,174.154 252.768 C 174.839 252.750,176.210 252.504,177.200 252.220 C 179.646 251.520,179.652 251.520,182.265 252.200 M50.267 274.667 C 49.311 275.623,50.462 277.620,52.290 278.176 C 52.779 278.325,53.965 279.345,54.925 280.442 C 56.876 282.673,58.561 285.930,66.700 303.200 C 67.685 305.290,69.280 308.586,70.245 310.524 C 71.210 312.462,72.004 314.262,72.009 314.524 C 72.014 314.786,72.370 315.450,72.800 316.000 C 74.188 317.774,73.941 319.031,70.952 325.440 C 70.428 326.562,70.000 327.651,70.000 327.861 C 70.000 330.059,65.539 333.141,63.300 332.490 C 55.387 330.189,50.049 333.408,52.808 338.816 C 56.374 345.807,68.795 342.049,73.429 332.577 C 74.019 331.371,74.652 330.291,74.836 330.178 C 75.020 330.064,75.342 329.393,75.551 328.686 C 75.760 327.978,76.592 325.870,77.400 324.000 C 78.208 322.130,79.051 319.982,79.273 319.226 C 79.496 318.470,79.911 317.480,80.195 317.026 C 80.479 316.572,80.937 315.480,81.212 314.600 C 81.488 313.720,81.958 312.645,82.257 312.211 C 82.556 311.777,82.800 311.146,82.800 310.808 C 82.800 310.470,83.250 309.348,83.800 308.315 C 84.350 307.282,84.806 306.203,84.813 305.918 C 84.819 305.633,85.268 304.500,85.809 303.400 C 86.350 302.300,86.796 301.130,86.799 300.800 C 86.802 300.470,87.163 299.660,87.600 299.000 C 88.037 298.340,88.398 297.530,88.401 297.200 C 88.404 296.870,88.850 295.700,89.391 294.600 C 89.932 293.500,90.382 292.330,90.390 292.000 C 90.398 291.670,90.763 290.860,91.200 290.200 C 91.637 289.540,91.998 288.730,92.001 288.400 C 92.004 288.070,92.450 286.900,92.991 285.800 C 93.532 284.700,93.981 283.528,93.987 283.195 C 94.018 281.738,96.703 278.560,98.367 278.011 C 100.325 277.365,100.983 275.927,99.748 274.992 C 98.630 274.145,85.908 274.147,85.204 274.995 C 84.493 275.852,84.989 276.753,86.526 277.395 C 89.332 278.567,89.350 280.501,86.610 286.800 C 85.797 288.670,84.971 290.740,84.774 291.400 C 84.578 292.060,84.053 293.313,83.608 294.185 C 83.164 295.056,82.800 296.057,82.800 296.408 C 82.800 296.760,82.533 297.396,82.206 297.824 C 81.880 298.251,81.411 299.320,81.164 300.200 C 80.651 302.032,78.890 305.200,78.385 305.200 C 78.198 305.200,77.037 303.085,75.805 300.500 C 73.618 295.910,73.390 295.451,72.487 293.800 C 71.801 292.545,68.544 285.608,67.628 283.449 C 66.220 280.130,66.808 278.587,69.868 277.577 C 71.478 277.046,72.282 275.822,71.579 274.974 C 71.076 274.368,50.857 274.076,50.267 274.667 M71.124 275.700 C 71.198 276.085,71.020 276.403,70.729 276.408 C 67.398 276.455,65.425 280.108,66.969 283.371 C 67.536 284.570,68.000 285.758,68.000 286.012 C 68.000 286.266,68.360 286.931,68.800 287.491 C 69.240 288.050,69.600 288.819,69.600 289.200 C 69.600 289.581,69.931 290.321,70.336 290.846 C 70.741 291.371,71.283 292.418,71.541 293.174 C 71.799 293.930,72.254 294.830,72.551 295.174 C 72.849 295.518,73.218 296.326,73.371 296.968 C 73.524 297.611,73.998 298.580,74.425 299.122 C 74.851 299.664,75.200 300.419,75.200 300.800 C 75.200 301.181,75.527 301.921,75.927 302.446 C 76.327 302.971,76.889 303.985,77.176 304.700 C 77.462 305.415,77.932 306.000,78.220 306.000 C 78.939 306.000,81.187 302.581,81.475 301.050 C 81.604 300.363,81.971 299.498,82.291 299.129 C 82.611 298.759,83.046 297.682,83.259 296.735 C 83.472 295.787,83.889 294.739,84.186 294.406 C 84.483 294.073,84.918 293.080,85.153 292.200 C 85.388 291.320,85.945 289.887,86.390 289.015 C 86.836 288.144,87.200 287.175,87.200 286.863 C 87.200 286.550,87.541 285.733,87.958 285.047 C 90.054 281.601,89.386 277.790,86.473 276.573 C 83.714 275.420,85.092 275.006,92.076 274.891 C 99.619 274.766,100.710 275.107,98.368 276.858 C 96.095 278.557,94.031 280.949,93.770 282.186 C 93.629 282.854,93.193 283.940,92.800 284.600 C 92.407 285.260,91.954 286.423,91.793 287.184 C 91.631 287.946,91.179 289.026,90.787 289.584 C 90.395 290.143,89.963 291.257,89.827 292.060 C 89.690 292.863,89.325 293.730,89.015 293.987 C 88.705 294.245,88.330 295.028,88.183 295.728 C 88.035 296.427,87.595 297.540,87.206 298.200 C 86.816 298.860,86.381 300.057,86.238 300.860 C 86.095 301.663,85.729 302.527,85.425 302.780 C 85.120 303.033,84.659 304.122,84.400 305.200 C 84.141 306.278,83.690 307.360,83.396 307.603 C 83.103 307.847,82.744 308.745,82.600 309.600 C 82.456 310.455,82.097 311.353,81.804 311.597 C 81.510 311.840,81.059 312.922,80.800 314.000 C 80.541 315.078,80.080 316.167,79.775 316.420 C 79.471 316.673,79.105 317.537,78.962 318.340 C 78.819 319.143,78.365 320.361,77.951 321.047 C 77.538 321.733,77.200 322.545,77.200 322.850 C 77.200 323.156,76.750 324.252,76.200 325.285 C 75.650 326.318,75.200 327.497,75.200 327.904 C 75.200 328.311,74.750 329.255,74.200 330.000 C 73.650 330.745,73.200 331.605,73.200 331.909 C 73.200 332.529,68.527 338.400,68.033 338.400 C 67.859 338.400,67.273 338.805,66.730 339.300 C 62.639 343.030,54.914 342.502,53.436 338.391 C 51.666 333.470,57.057 330.237,62.415 333.008 C 65.159 334.427,69.775 331.358,70.609 327.559 C 70.749 326.922,71.022 326.400,71.216 326.400 C 71.410 326.400,71.837 325.499,72.164 324.397 C 72.491 323.296,73.038 321.996,73.379 321.508 C 74.266 320.242,74.197 316.762,73.261 315.554 C 72.855 315.029,72.393 314.074,72.236 313.432 C 72.079 312.789,71.602 311.820,71.175 311.278 C 70.749 310.736,70.400 309.981,70.400 309.600 C 70.400 309.219,70.067 308.479,69.661 307.954 C 69.255 307.429,68.793 306.474,68.636 305.832 C 68.479 305.189,68.002 304.220,67.575 303.678 C 67.149 303.136,66.800 302.381,66.800 302.000 C 66.800 301.619,66.451 300.864,66.025 300.322 C 65.598 299.780,65.121 298.811,64.964 298.168 C 64.807 297.526,64.358 296.587,63.967 296.081 C 63.575 295.576,63.141 294.643,63.002 294.009 C 62.863 293.374,62.490 292.641,62.174 292.379 C 61.858 292.117,61.600 291.672,61.600 291.392 C 61.600 291.111,61.060 289.855,60.400 288.600 C 59.740 287.345,59.200 286.125,59.200 285.889 C 59.200 284.355,54.608 278.665,52.741 277.884 C 51.101 277.199,50.232 276.215,50.545 275.398 C 50.928 274.402,70.931 274.696,71.124 275.700 M101.067 276.267 C 100.520 276.813,100.826 279.144,101.565 280.056 L 102.330 281.000 128.162 281.072 L 153.994 281.144 154.597 280.283 C 155.415 279.115,155.356 277.465,154.469 276.662 C 153.711 275.976,101.742 275.591,101.067 276.267 M154.400 278.403 L 154.400 280.006 128.100 279.903 L 101.800 279.800 101.676 278.300 L 101.552 276.800 127.976 276.800 L 154.400 276.800 154.400 278.403 M300.100 290.012 C 298.639 290.600,298.742 295.846,300.226 296.410 C 301.841 297.024,371.273 296.932,372.629 296.314 C 373.956 295.709,373.907 291.107,372.563 290.124 C 371.706 289.497,301.650 289.389,300.100 290.012 M371.986 290.774 C 372.667 292.047,372.512 295.871,371.767 296.157 C 370.944 296.473,302.080 296.464,300.900 296.148 C 299.778 295.847,299.594 292.358,300.623 290.889 L 301.245 290.000 336.409 290.000 C 370.764 290.000,371.581 290.018,371.986 290.774 M101.614 292.774 C 100.893 294.120,101.106 296.321,102.003 296.801 C 103.445 297.574,153.628 297.291,154.500 296.506 C 155.367 295.725,155.403 294.067,154.577 292.889 L 153.955 292.000 127.991 292.000 C 102.732 292.000,102.017 292.021,101.614 292.774 M154.323 294.703 L 154.446 296.406 128.123 296.303 L 101.800 296.200 101.671 295.076 C 101.396 292.679,100.107 292.785,128.351 292.897 L 154.200 293.000 154.323 294.703 M236.267 293.467 C 235.837 293.896,235.961 300.379,236.414 301.226 C 236.845 302.031,259.880 302.468,261.040 301.694 C 262.363 300.811,263.024 294.784,261.920 293.680 C 261.399 293.159,236.779 292.954,236.267 293.467 M261.503 296.800 C 261.559 298.450,261.443 300.050,261.244 300.356 C 260.806 301.031,246.998 301.400,240.600 300.908 L 236.600 300.600 236.484 297.094 L 236.369 293.589 248.884 293.694 L 261.400 293.800 261.503 296.800 M328.349 352.387 C 327.330 352.570,326.160 352.896,325.749 353.112 C 325.337 353.328,324.054 353.704,322.897 353.949 C 316.735 355.250,316.363 358.119,322.410 357.704 C 326.177 357.446,327.298 358.100,328.014 360.974 C 328.237 361.868,328.775 363.729,329.210 365.108 C 329.644 366.488,330.000 368.130,330.000 368.756 C 330.000 369.383,330.360 371.023,330.800 372.400 C 331.721 375.282,331.813 376.918,331.098 377.671 C 330.822 377.962,329.877 379.279,328.998 380.597 C 328.119 381.916,327.220 383.210,327.000 383.473 C 326.780 383.737,326.150 384.603,325.600 385.399 C 320.501 392.774,319.364 393.552,315.058 392.613 C 311.533 391.844,310.134 392.164,308.867 394.027 C 305.170 399.469,314.510 403.558,320.030 398.914 C 321.522 397.658,326.214 391.899,328.800 388.149 C 331.589 384.104,333.600 382.710,333.600 384.822 C 333.600 385.248,333.950 386.633,334.378 387.898 C 334.806 389.164,335.334 391.190,335.551 392.400 C 337.570 403.666,346.192 404.014,353.325 393.118 C 354.147 391.862,354.995 390.727,355.210 390.594 C 355.735 390.270,355.709 387.714,355.177 387.386 C 354.258 386.818,352.926 387.669,351.400 389.800 C 347.759 394.885,345.862 394.658,344.013 388.915 C 343.346 386.843,342.800 384.704,342.800 384.163 C 342.800 383.623,342.462 382.219,342.050 381.045 C 339.714 374.400,339.983 371.451,343.384 366.413 C 347.744 359.954,349.891 358.537,352.800 360.200 C 357.225 362.730,361.628 357.043,358.030 353.445 C 354.417 349.832,344.826 355.324,340.818 363.300 C 340.169 364.591,339.970 364.632,338.838 363.700 C 338.249 363.216,337.820 362.117,337.447 360.137 C 336.143 353.224,333.972 351.375,328.349 352.387 M334.100 353.684 C 334.705 354.108,335.200 354.670,335.200 354.933 C 335.200 355.196,335.535 356.039,335.945 356.806 C 336.354 357.573,336.817 359.398,336.972 360.861 C 337.411 364.986,339.636 366.671,341.095 363.983 C 341.483 363.268,342.115 362.399,342.500 362.052 C 342.885 361.706,343.200 361.235,343.200 361.006 C 343.200 360.142,349.089 354.572,350.926 353.700 C 355.008 351.762,358.800 353.210,358.800 356.706 C 358.800 358.982,356.241 360.850,354.269 360.013 C 349.577 358.021,347.347 359.315,342.312 366.950 C 341.211 368.618,339.824 371.298,339.491 372.400 C 339.391 372.730,339.534 373.450,339.808 374.000 C 340.082 374.550,340.437 376.170,340.597 377.600 C 340.757 379.030,341.228 380.955,341.644 381.878 C 342.060 382.801,342.400 384.152,342.400 384.881 C 342.400 388.754,345.256 394.364,347.243 394.391 C 348.016 394.402,351.848 390.654,352.650 389.103 C 352.964 388.496,353.381 388.000,353.578 388.000 C 353.774 388.000,354.219 387.891,354.567 387.757 C 355.554 387.378,355.371 389.469,354.300 390.815 C 353.805 391.436,352.950 392.592,352.400 393.382 C 349.943 396.913,347.925 398.944,346.237 399.586 C 342.925 400.845,338.815 399.901,337.937 397.679 C 337.703 397.085,337.179 395.790,336.774 394.800 C 336.368 393.810,335.920 392.010,335.777 390.800 C 335.635 389.590,335.276 388.060,334.980 387.400 C 334.684 386.740,334.287 385.570,334.097 384.800 C 333.590 382.738,332.470 382.764,330.647 384.881 C 329.833 385.826,328.929 386.870,328.639 387.200 C 328.348 387.530,327.892 388.219,327.625 388.730 C 327.358 389.242,326.880 389.962,326.562 390.330 C 326.245 390.699,324.637 392.662,322.990 394.693 C 319.582 398.893,318.975 399.362,316.200 399.930 C 310.741 401.046,307.021 397.622,309.662 393.912 C 310.672 392.494,314.825 392.411,316.896 393.769 C 318.839 395.042,322.187 391.953,326.600 384.817 C 326.820 384.462,327.227 383.907,327.505 383.585 C 328.895 381.973,330.393 379.851,330.599 379.202 C 330.726 378.801,331.094 378.373,331.415 378.250 C 332.278 377.919,332.180 373.692,331.255 371.315 C 330.845 370.262,330.383 368.230,330.228 366.800 C 330.074 365.370,329.713 363.837,329.426 363.394 C 329.139 362.951,328.781 361.961,328.629 361.194 C 327.909 357.556,326.586 356.693,322.282 357.057 C 320.391 357.217,319.221 357.157,319.057 356.892 C 318.663 356.255,321.955 354.540,324.200 354.213 C 325.300 354.052,326.560 353.724,327.000 353.482 C 329.058 352.354,332.333 352.447,334.100 353.684 " stroke="none" fill="#747474" fill-rule="evenodd"></path><path id="path3" d="M330.564 173.769 C 329.885 174.065,328.395 174.436,327.254 174.593 C 326.113 174.750,324.883 175.174,324.521 175.536 C 323.844 176.213,323.533 176.426,321.208 177.800 C 319.388 178.875,317.252 181.117,316.574 182.663 C 316.269 183.358,315.879 183.988,315.706 184.063 C 315.034 184.356,313.153 188.636,312.935 190.370 C 312.808 191.377,312.456 192.599,312.152 193.086 C 311.319 194.423,311.441 196.687,312.374 197.186 C 314.349 198.243,317.600 196.871,317.600 194.981 C 317.600 194.621,317.960 193.869,318.400 193.309 C 318.840 192.750,319.200 192.056,319.200 191.767 C 319.200 191.041,323.114 186.400,323.726 186.400 C 323.999 186.400,324.530 186.040,324.907 185.600 C 326.132 184.169,335.533 184.338,337.298 185.822 C 337.902 186.329,338.712 186.858,339.098 186.995 C 340.189 187.385,342.326 190.588,342.623 192.278 C 342.770 193.115,343.140 194.199,343.445 194.686 C 344.192 195.879,344.157 200.327,343.386 202.173 C 343.048 202.982,342.596 204.566,342.382 205.694 C 342.168 206.822,341.727 208.039,341.401 208.398 C 341.076 208.758,340.695 209.626,340.555 210.326 C 340.415 211.027,340.140 211.600,339.944 211.600 C 339.747 211.600,339.275 212.269,338.894 213.088 C 338.512 213.906,337.972 214.851,337.692 215.188 C 337.413 215.524,335.812 217.510,334.134 219.600 C 330.758 223.806,331.082 223.443,325.792 228.942 C 323.706 231.110,322.000 233.033,322.000 233.215 C 322.000 233.397,321.640 233.660,321.200 233.800 C 320.760 233.940,320.400 234.220,320.400 234.424 C 320.400 234.628,319.185 236.030,317.700 237.539 C 312.126 243.207,311.148 244.424,311.278 245.534 C 311.515 247.565,311.772 247.588,334.100 247.594 C 357.168 247.601,356.400 247.695,356.400 244.862 C 356.400 244.236,356.737 243.419,357.150 243.046 C 357.562 242.673,357.997 241.641,358.116 240.753 C 358.235 239.865,358.607 238.834,358.943 238.463 C 359.279 238.092,359.730 237.004,359.945 236.046 C 360.161 235.087,360.531 234.109,360.768 233.872 C 361.522 233.118,361.265 231.291,360.311 230.623 C 358.914 229.644,357.841 229.872,356.568 231.418 C 351.732 237.290,352.015 237.200,338.379 237.200 C 332.230 237.200,327.200 237.110,327.200 237.000 C 327.200 236.727,327.850 236.009,332.117 231.563 C 337.307 226.156,343.375 219.552,343.537 219.134 C 343.612 218.940,344.456 217.930,345.412 216.890 C 348.196 213.864,348.327 213.701,348.952 212.492 C 349.280 211.859,349.829 211.108,350.174 210.822 C 350.518 210.536,350.800 209.970,350.800 209.565 C 350.800 209.160,351.152 208.640,351.583 208.409 C 352.016 208.177,352.481 207.374,352.625 206.609 C 352.767 205.850,353.125 205.028,353.420 204.784 C 353.715 204.539,354.162 203.345,354.414 202.131 C 354.666 200.918,355.126 199.317,355.436 198.575 C 356.207 196.731,356.191 190.176,355.412 188.683 C 355.092 188.069,354.711 186.899,354.567 186.083 C 354.050 183.172,348.497 176.400,346.627 176.400 C 346.350 176.400,345.717 176.048,345.221 175.619 C 344.726 175.189,343.483 174.721,342.460 174.578 C 341.437 174.436,339.829 174.068,338.886 173.760 C 336.731 173.056,332.191 173.061,330.564 173.769 M339.000 174.622 C 353.497 175.945,359.956 193.981,351.026 208.200 C 347.815 213.312,345.934 215.649,338.972 223.175 C 337.637 224.619,335.379 227.060,333.956 228.600 C 332.532 230.140,330.295 232.545,328.984 233.944 C 325.552 237.606,324.971 237.385,338.344 237.506 C 352.081 237.630,352.143 237.616,355.736 233.410 C 358.174 230.557,358.357 230.409,359.094 230.692 C 360.613 231.274,360.340 234.192,358.392 238.217 C 357.956 239.116,357.600 240.116,357.600 240.437 C 357.600 240.759,357.318 241.425,356.973 241.918 C 356.628 242.410,356.125 243.574,355.856 244.503 C 355.540 245.593,355.018 246.369,354.383 246.691 C 353.002 247.389,314.523 247.421,312.994 246.725 C 310.780 245.716,311.279 245.064,326.503 229.117 C 328.278 227.257,332.206 222.946,334.205 220.663 C 335.535 219.143,338.711 214.846,339.129 214.000 C 339.401 213.450,340.254 211.935,341.024 210.634 C 341.795 209.333,342.609 207.450,342.834 206.450 C 343.058 205.451,343.457 204.373,343.720 204.055 C 346.147 201.135,342.511 186.400,339.364 186.400 C 339.087 186.400,338.353 185.983,337.731 185.473 C 336.951 184.833,335.655 184.403,333.553 184.086 C 325.941 182.939,321.307 185.633,317.627 193.344 C 315.106 198.626,311.595 198.435,312.806 193.083 C 315.021 183.292,321.624 175.945,329.200 174.840 C 330.850 174.599,332.650 174.335,333.200 174.252 C 333.750 174.170,334.650 174.161,335.200 174.234 C 335.750 174.307,337.460 174.481,339.000 174.622 M177.200 250.400 C 175.652 250.519,174.200 250.883,173.611 251.300 C 173.067 251.685,172.347 252.003,172.011 252.007 C 170.342 252.027,163.837 257.917,163.353 259.847 C 163.229 260.339,162.874 260.839,162.564 260.959 C 162.254 261.078,161.994 261.406,161.986 261.687 C 161.979 261.969,161.625 262.920,161.200 263.800 C 160.233 265.803,160.226 266.118,161.131 266.938 C 162.606 268.272,166.400 267.175,166.400 265.415 C 166.400 265.015,169.039 262.400,169.442 262.400 C 169.598 262.400,170.314 261.950,171.036 261.400 C 172.711 260.122,179.470 259.879,180.451 261.062 C 180.753 261.426,181.585 261.968,182.300 262.267 C 183.015 262.566,183.600 263.065,183.600 263.375 C 183.600 263.685,184.050 264.473,184.600 265.127 C 185.799 266.552,186.130 273.462,185.043 274.364 C 184.737 274.619,184.254 275.388,183.970 276.073 C 183.521 277.157,182.706 278.081,179.997 280.580 C 179.665 280.886,178.913 281.257,178.326 281.404 C 177.739 281.551,176.948 282.016,176.567 282.436 C 176.187 282.856,175.319 283.218,174.638 283.240 C 170.336 283.378,169.062 287.973,173.314 288.018 C 174.241 288.027,175.720 288.315,176.600 288.658 C 177.480 289.000,179.055 289.478,180.100 289.719 C 181.145 289.961,182.000 290.298,182.000 290.469 C 182.000 290.640,182.585 291.074,183.300 291.434 C 184.711 292.145,187.555 295.101,187.583 295.884 C 187.592 296.151,188.005 296.746,188.500 297.207 C 189.342 297.992,189.400 298.372,189.400 303.139 C 189.400 309.012,189.147 309.542,184.330 313.777 C 182.553 315.339,174.957 315.386,173.247 313.845 C 172.891 313.524,172.060 313.131,171.400 312.970 C 170.740 312.809,169.771 312.345,169.246 311.939 C 167.588 310.655,162.966 310.920,161.237 312.398 C 158.654 314.606,160.046 321.170,163.101 321.196 C 163.377 321.198,164.275 321.560,165.096 322.000 C 167.103 323.076,177.848 323.193,179.800 322.160 C 180.460 321.811,182.077 321.370,183.393 321.180 C 184.709 320.990,185.969 320.585,186.193 320.280 C 186.417 319.975,187.288 319.500,188.128 319.223 C 188.968 318.946,189.753 318.468,189.871 318.160 C 189.989 317.852,190.332 317.600,190.634 317.600 C 190.935 317.600,191.476 317.150,191.837 316.600 C 192.197 316.050,192.746 315.600,193.056 315.600 C 193.366 315.600,193.791 315.150,194.000 314.600 C 194.209 314.050,194.574 313.600,194.811 313.600 C 195.047 313.600,195.521 312.925,195.863 312.100 C 196.206 311.275,196.737 310.456,197.043 310.280 C 197.349 310.104,197.600 309.723,197.600 309.434 C 197.600 309.145,197.976 308.429,198.437 307.844 C 200.454 305.280,200.408 289.200,198.383 289.200 C 198.207 289.200,197.945 288.661,197.800 288.001 C 197.480 286.542,192.886 281.737,191.472 281.382 C 189.683 280.933,189.846 279.687,192.020 277.177 C 193.109 275.920,194.000 274.672,194.000 274.403 C 194.000 274.135,194.450 273.381,195.000 272.727 C 195.550 272.073,196.006 271.057,196.013 270.469 C 196.020 269.881,196.290 269.051,196.613 268.624 C 197.359 267.636,197.384 263.924,196.653 262.480 C 196.353 261.886,195.989 260.750,195.846 259.955 C 195.702 259.160,195.228 258.187,194.792 257.793 C 194.356 257.399,194.000 256.828,194.000 256.525 C 194.000 256.223,193.712 255.864,193.360 255.729 C 193.008 255.594,192.311 255.105,191.812 254.642 C 189.797 252.774,188.699 252.000,188.066 251.998 C 187.700 251.996,186.860 251.704,186.200 251.347 C 184.734 250.556,180.698 250.131,177.200 250.400 M184.511 251.642 C 196.896 254.812,200.097 266.936,191.183 276.910 C 188.731 279.654,188.714 280.725,191.106 281.963 C 201.385 287.284,202.366 304.790,192.937 314.619 C 184.646 323.260,161.008 325.135,160.389 317.200 C 159.966 311.768,163.978 310.244,170.505 313.359 C 176.114 316.036,178.196 316.418,181.868 315.440 C 191.989 312.745,193.492 297.585,184.266 291.247 C 181.761 289.526,177.490 287.963,174.482 287.665 C 170.393 287.261,170.263 284.411,174.305 283.805 C 175.338 283.650,176.665 283.181,177.254 282.762 C 177.842 282.343,178.504 282.000,178.725 282.000 C 179.714 282.000,183.641 278.226,184.860 276.104 C 186.817 272.697,186.846 267.164,184.923 264.260 C 180.565 257.680,171.790 258.009,165.839 264.975 C 162.749 268.591,160.039 267.028,162.301 262.934 C 162.685 262.238,163.387 260.978,163.860 260.134 C 167.842 253.030,176.318 249.545,184.511 251.642 M49.829 274.229 C 48.408 275.650,49.650 278.800,51.631 278.800 C 52.456 278.800,54.800 280.802,54.800 281.507 C 54.800 281.710,55.150 282.193,55.577 282.579 C 56.005 282.966,56.465 283.786,56.600 284.400 C 56.735 285.014,57.177 285.817,57.583 286.185 C 57.989 286.552,58.439 287.480,58.582 288.247 C 58.726 289.014,59.087 289.735,59.383 289.849 C 59.679 289.962,60.034 290.655,60.171 291.387 C 60.309 292.120,60.765 293.156,61.186 293.691 C 61.606 294.226,62.079 295.189,62.236 295.832 C 62.393 296.474,62.855 297.429,63.261 297.954 C 63.667 298.479,64.000 299.219,64.000 299.600 C 64.000 299.981,64.349 300.736,64.775 301.278 C 65.202 301.820,65.676 302.789,65.829 303.432 C 65.982 304.074,66.349 304.879,66.643 305.220 C 66.938 305.561,67.448 306.603,67.778 307.537 C 68.107 308.470,68.652 309.509,68.988 309.845 C 69.325 310.182,69.600 310.780,69.600 311.175 C 69.600 311.569,69.937 312.321,70.348 312.846 C 70.759 313.371,71.220 314.370,71.372 315.067 C 71.525 315.764,71.980 316.715,72.383 317.181 C 73.161 318.078,73.061 319.394,72.143 320.313 C 71.862 320.595,71.508 321.495,71.358 322.313 C 71.207 323.131,70.750 324.229,70.342 324.754 C 69.934 325.279,69.600 326.063,69.600 326.496 C 69.600 326.930,69.150 327.819,68.600 328.473 C 68.050 329.127,67.600 329.904,67.600 330.200 C 67.600 331.284,65.051 331.683,61.109 331.217 C 57.878 330.835,53.848 331.064,53.467 331.652 C 53.414 331.733,52.882 332.530,52.285 333.422 C 50.292 336.400,51.051 339.198,54.658 342.165 C 56.373 343.577,63.062 343.738,64.400 342.400 C 64.840 341.960,65.445 341.600,65.745 341.600 C 66.045 341.600,66.955 341.072,67.767 340.426 C 68.580 339.780,69.370 339.195,69.522 339.126 C 70.231 338.805,73.379 334.831,74.060 333.400 C 74.478 332.520,75.069 331.350,75.373 330.800 C 76.655 328.482,78.000 325.337,78.000 324.657 C 78.000 324.255,78.340 323.494,78.755 322.967 C 79.170 322.439,79.635 321.330,79.789 320.503 C 79.942 319.677,80.339 318.698,80.670 318.329 C 81.001 317.959,81.441 316.907,81.647 315.989 C 81.853 315.072,82.265 314.078,82.563 313.780 C 82.860 313.483,83.228 312.576,83.380 311.765 C 83.532 310.954,83.987 309.820,84.391 309.245 C 84.795 308.670,85.237 307.543,85.373 306.740 C 85.510 305.937,85.882 305.064,86.200 304.800 C 86.518 304.536,86.896 303.663,87.040 302.860 C 87.184 302.057,87.565 301.098,87.887 300.729 C 88.209 300.359,88.646 299.282,88.859 298.335 C 89.072 297.387,89.495 296.337,89.800 296.000 C 90.105 295.663,90.528 294.613,90.741 293.665 C 90.954 292.718,91.394 291.641,91.719 291.271 C 92.045 290.902,92.440 289.970,92.599 289.200 C 92.757 288.430,93.212 287.260,93.610 286.600 C 94.007 285.940,94.456 284.737,94.606 283.928 C 94.756 283.118,95.131 282.359,95.439 282.240 C 95.748 282.122,96.000 281.783,96.000 281.487 C 96.000 279.499,99.635 278.221,100.203 280.010 C 100.990 282.489,99.954 282.400,128.177 282.400 C 155.713 282.400,154.374 282.501,155.728 280.314 C 156.662 278.805,156.569 277.697,155.380 276.138 L 154.359 274.800 128.230 274.800 C 106.026 274.800,101.845 274.710,100.400 274.200 C 97.919 273.325,86.146 273.342,84.889 274.223 C 83.185 275.416,84.032 277.797,86.455 278.626 C 87.991 279.151,88.358 281.694,87.100 283.096 C 86.752 283.483,86.334 284.520,86.171 285.400 C 86.008 286.280,85.560 287.450,85.175 288.000 C 84.790 288.550,84.363 289.657,84.227 290.460 C 84.090 291.263,83.718 292.136,83.400 292.400 C 83.082 292.664,82.700 293.537,82.553 294.340 C 82.405 295.143,81.965 296.210,81.575 296.712 C 81.185 297.213,80.743 298.353,80.592 299.246 C 80.105 302.130,78.289 304.404,77.854 302.674 C 77.726 302.164,77.257 301.327,76.811 300.813 C 76.365 300.298,76.000 299.455,76.000 298.939 C 76.000 298.422,75.681 297.681,75.290 297.290 C 74.900 296.900,74.353 295.820,74.074 294.890 C 73.796 293.961,73.402 293.200,73.199 293.200 C 72.997 293.200,72.639 292.488,72.405 291.618 C 72.171 290.748,71.723 289.780,71.409 289.466 C 71.096 289.153,70.717 288.380,70.567 287.748 C 70.418 287.117,69.987 286.240,69.611 285.800 C 67.640 283.493,67.809 279.134,69.889 278.615 C 72.296 278.014,73.440 274.985,71.626 274.014 C 70.246 273.275,50.588 273.469,49.829 274.229 M64.663 274.400 C 73.216 274.400,74.432 275.341,69.370 278.044 C 66.988 279.315,66.674 280.274,67.745 283.000 C 68.473 284.854,73.499 295.586,74.489 297.400 C 74.729 297.840,75.055 298.470,75.213 298.800 C 75.372 299.130,76.127 300.709,76.892 302.308 L 78.283 305.216 79.326 303.640 C 79.899 302.774,80.713 301.105,81.135 299.932 C 81.556 298.760,82.306 296.810,82.800 295.600 C 83.294 294.390,84.050 292.421,84.480 291.224 C 84.909 290.028,85.517 288.683,85.830 288.235 C 86.144 287.788,86.400 287.164,86.400 286.850 C 86.400 286.535,86.860 285.305,87.422 284.117 C 88.935 280.920,88.698 278.835,86.717 277.905 C 84.926 277.065,84.120 275.819,84.821 274.974 C 85.654 273.971,98.559 274.159,100.609 275.204 C 102.142 275.986,102.914 276.008,128.140 275.994 C 156.433 275.978,155.200 275.870,155.200 278.373 C 155.200 281.431,157.298 281.220,128.000 281.104 L 101.800 281.000 101.067 279.500 C 99.539 276.372,95.406 278.922,94.023 283.846 C 93.783 284.701,93.320 285.749,92.994 286.176 C 92.667 286.604,92.398 287.234,92.396 287.576 C 92.394 287.919,91.950 289.100,91.409 290.200 C 90.868 291.300,90.418 292.470,90.410 292.800 C 90.402 293.130,90.037 293.940,89.600 294.600 C 89.163 295.260,88.804 296.077,88.803 296.415 C 88.801 296.754,88.436 297.744,87.992 298.615 C 87.547 299.487,87.022 300.740,86.826 301.400 C 86.629 302.060,85.809 304.130,85.003 306.000 C 84.197 307.870,83.357 309.940,83.137 310.600 C 82.916 311.260,82.391 312.455,81.968 313.254 C 81.546 314.054,81.194 314.954,81.187 315.254 C 81.181 315.555,80.732 316.700,80.191 317.800 C 79.650 318.900,79.204 320.070,79.201 320.400 C 79.198 320.730,78.837 321.540,78.400 322.200 C 77.963 322.860,77.604 323.636,77.603 323.925 C 77.600 324.475,76.352 327.346,74.355 331.400 C 69.138 341.987,57.021 346.464,52.826 339.354 C 49.644 333.961,54.558 330.235,62.506 332.014 C 65.833 332.759,68.757 330.984,69.789 327.594 C 69.955 327.047,70.431 326.039,70.846 325.353 C 71.261 324.667,71.606 323.857,71.613 323.553 C 71.619 323.249,72.068 322.100,72.609 321.000 C 73.796 318.588,73.810 318.309,72.838 316.454 C 72.014 314.879,68.853 308.267,67.841 306.000 C 67.497 305.230,67.045 304.330,66.835 304.000 C 66.500 303.472,64.526 299.236,63.852 297.600 C 63.716 297.270,63.436 296.730,63.230 296.400 C 63.023 296.070,62.290 294.540,61.600 293.000 C 60.910 291.460,60.173 289.930,59.961 289.600 C 59.750 289.270,59.464 288.658,59.326 288.239 C 57.992 284.194,54.292 279.267,51.810 278.230 C 47.176 276.294,50.463 273.543,56.550 274.264 C 57.183 274.339,60.833 274.400,64.663 274.400 M299.600 289.157 C 298.138 289.562,297.607 295.990,298.960 296.894 C 299.874 297.504,373.458 297.253,373.969 296.638 C 374.932 295.477,374.346 289.894,373.200 289.316 C 372.105 288.764,301.570 288.611,299.600 289.157 M372.826 290.014 C 373.973 290.628,373.973 295.772,372.826 296.386 C 371.557 297.065,300.359 296.951,299.426 296.268 C 298.505 295.595,298.660 290.587,299.621 289.979 C 300.460 289.447,371.832 289.482,372.826 290.014 M101.689 291.068 C 99.891 291.792,99.211 295.495,100.632 296.830 L 101.664 297.800 127.851 298.000 L 154.037 298.200 155.219 296.981 C 156.837 295.311,156.736 293.864,154.838 291.500 C 154.290 290.818,103.341 290.404,101.689 291.068 M154.469 292.262 C 155.316 293.029,155.482 295.958,154.720 296.720 C 153.897 297.543,102.256 297.399,101.429 296.571 C 100.616 295.759,100.624 293.840,101.446 292.586 L 102.092 291.600 127.915 291.600 C 151.381 291.600,153.804 291.660,154.469 292.262 M235.793 293.064 C 234.942 293.915,235.065 301.076,235.949 302.140 C 236.438 302.728,237.872 302.800,249.067 302.800 L 261.636 302.800 262.618 301.818 C 264.249 300.187,264.107 293.883,262.420 293.010 C 260.575 292.056,236.753 292.105,235.793 293.064 M261.597 293.199 C 263.040 293.971,263.156 299.987,261.756 301.387 C 260.936 302.206,236.645 302.320,236.142 301.507 C 235.446 300.380,235.477 294.180,236.183 293.474 C 236.973 292.684,260.167 292.433,261.597 293.199 M325.200 352.190 C 323.661 353.081,323.530 353.123,321.461 353.400 C 318.691 353.772,316.442 355.822,317.016 357.454 C 317.507 358.848,319.273 359.596,320.406 358.889 C 322.171 357.787,325.542 357.796,325.964 358.904 C 326.175 359.461,326.545 359.982,326.786 360.062 C 327.026 360.142,327.414 361.466,327.647 363.004 C 327.880 364.542,328.318 366.188,328.621 366.663 C 328.923 367.138,329.290 368.758,329.437 370.263 C 329.584 371.768,329.951 373.607,330.252 374.349 C 330.901 375.947,330.962 377.200,330.390 377.200 C 330.165 377.200,329.801 377.605,329.582 378.100 C 329.362 378.595,328.641 379.720,327.978 380.600 C 327.315 381.480,326.331 382.830,325.791 383.600 C 325.250 384.370,324.492 385.450,324.105 386.000 C 323.719 386.550,323.087 387.349,322.701 387.775 C 322.316 388.202,322.000 388.671,322.000 388.817 C 322.000 388.963,321.569 389.549,321.041 390.118 C 320.514 390.687,320.008 391.376,319.917 391.649 C 319.680 392.359,315.334 392.180,314.161 391.411 C 309.157 388.132,304.676 396.931,309.482 400.600 C 311.375 402.046,316.711 402.715,317.404 401.594 C 317.542 401.371,318.246 400.941,318.969 400.639 C 320.128 400.154,321.811 398.664,323.557 396.577 C 325.144 394.680,326.800 392.348,326.800 392.011 C 326.800 391.800,327.160 391.435,327.600 391.200 C 328.040 390.965,328.400 390.518,328.400 390.209 C 328.400 389.899,328.731 389.410,329.137 389.123 C 329.542 388.835,330.108 388.150,330.396 387.600 C 330.684 387.050,331.337 386.098,331.848 385.483 L 332.776 384.367 332.963 385.283 C 333.066 385.788,333.260 387.010,333.395 388.000 C 333.530 388.990,333.874 390.160,334.159 390.600 C 334.444 391.040,334.798 392.323,334.946 393.451 C 335.208 395.455,337.360 400.400,337.970 400.400 C 338.139 400.400,338.693 400.760,339.200 401.200 C 339.925 401.828,340.697 402.000,342.800 402.000 C 344.903 402.000,345.675 401.828,346.400 401.200 C 346.907 400.760,347.512 400.400,347.744 400.400 C 348.539 400.400,352.993 395.388,355.208 392.000 C 358.379 387.151,354.581 384.138,351.035 388.690 C 350.246 389.703,349.600 390.677,349.600 390.855 C 349.600 391.444,347.339 392.361,346.457 392.131 C 345.592 391.905,345.468 391.605,344.993 388.600 C 344.855 387.720,344.496 386.619,344.196 386.154 C 343.897 385.688,343.532 384.158,343.386 382.754 C 343.239 381.349,342.777 379.519,342.360 378.687 C 341.266 376.511,341.193 371.268,342.235 369.722 C 343.418 367.964,343.744 367.455,344.600 366.022 C 345.040 365.285,345.805 364.317,346.300 363.869 C 346.795 363.422,347.200 362.830,347.200 362.555 C 347.200 362.279,347.543 361.945,347.963 361.812 C 348.383 361.679,348.827 361.306,348.950 360.985 C 349.237 360.237,350.772 360.253,351.776 361.013 C 356.608 364.667,363.034 357.098,358.681 352.878 C 357.017 351.265,351.467 350.933,350.039 352.361 C 349.621 352.779,348.935 353.230,348.514 353.364 C 347.790 353.594,344.000 357.269,344.000 357.741 C 344.000 357.864,343.595 358.399,343.100 358.930 C 341.448 360.704,340.400 362.064,340.400 362.434 C 340.400 364.508,338.166 360.729,337.835 358.097 C 337.592 356.153,336.554 354.013,335.025 352.300 C 334.195 351.370,326.762 351.287,325.200 352.190 M334.318 352.628 C 335.503 353.458,337.119 356.701,337.426 358.867 C 337.964 362.663,339.516 365.088,340.417 363.541 C 341.107 362.358,342.659 360.268,343.740 359.067 C 346.554 355.942,348.662 353.882,349.400 353.538 C 349.840 353.333,350.650 352.906,351.200 352.589 C 356.560 349.497,362.553 356.077,357.956 360.007 C 356.308 361.417,355.341 361.466,352.086 360.300 L 349.573 359.400 347.575 361.471 C 345.646 363.472,342.800 367.282,342.800 367.865 C 342.800 368.021,342.395 368.581,341.900 369.111 C 340.687 370.407,340.691 376.153,341.908 379.800 C 342.348 381.120,342.836 383.093,342.992 384.185 C 343.147 385.277,343.519 386.807,343.817 387.585 C 344.115 388.363,344.558 389.773,344.800 390.718 C 345.211 392.319,346.209 393.200,347.613 393.200 C 348.175 393.200,350.710 390.527,351.829 388.754 C 352.747 387.300,352.974 387.165,354.320 387.277 C 356.230 387.436,356.600 389.197,355.110 391.044 C 354.597 391.680,353.694 392.920,353.103 393.800 C 346.175 404.120,337.038 403.604,335.413 392.800 C 335.264 391.810,334.795 389.964,334.371 388.698 C 333.947 387.433,333.600 386.072,333.600 385.675 C 333.600 383.679,332.652 383.523,331.288 385.295 C 329.184 388.030,326.311 391.820,324.808 393.844 C 319.102 401.527,312.808 403.652,309.035 399.168 C 305.554 395.032,309.359 390.897,315.250 392.413 C 319.020 393.383,320.153 392.810,323.271 388.358 C 323.640 387.831,324.579 386.500,325.357 385.400 C 326.136 384.300,327.529 382.320,328.453 381.000 C 329.377 379.680,330.454 378.150,330.846 377.600 C 331.425 376.787,331.490 376.301,331.189 375.000 C 330.986 374.120,330.542 372.050,330.201 370.400 C 329.861 368.750,329.224 366.230,328.785 364.800 C 328.347 363.370,327.991 361.851,327.994 361.425 C 328.014 358.750,325.479 357.269,321.897 357.862 C 319.345 358.284,317.906 357.894,317.680 356.721 C 317.521 355.892,320.378 354.173,322.589 353.769 C 323.464 353.608,325.084 353.152,326.189 352.753 C 328.753 351.830,333.084 351.763,334.318 352.628 " stroke="none" fill="#a4a4a4" fill-rule="evenodd"></path><path id="path4" d="M325.144 176.024 L 324.200 176.847 325.400 176.145 C 326.979 175.220,327.003 175.200,326.511 175.200 C 326.279 175.200,325.664 175.571,325.144 176.024 M347.167 177.745 C 347.700 178.401,349.200 179.393,349.200 179.089 C 349.200 179.013,348.615 178.522,347.900 177.999 C 347.096 177.410,346.816 177.313,347.167 177.745 M319.375 180.100 L 318.200 181.400 319.500 180.225 C 320.215 179.579,320.800 178.994,320.800 178.925 C 320.800 178.616,320.470 178.888,319.375 180.100 M337.903 185.500 C 338.421 185.995,339.060 186.395,339.322 186.388 C 339.585 186.381,339.440 186.176,339.000 185.932 C 338.560 185.688,337.921 185.288,337.580 185.044 C 337.240 184.800,337.385 185.005,337.903 185.500 M344.520 198.000 C 344.520 199.210,344.595 199.705,344.687 199.100 C 344.778 198.495,344.778 197.505,344.687 196.900 C 344.595 196.295,344.520 196.790,344.520 198.000 M350.891 207.749 C 350.401 208.464,350.000 209.198,350.000 209.381 C 350.000 209.563,350.459 209.035,351.020 208.209 C 351.581 207.382,351.982 206.648,351.911 206.577 C 351.840 206.507,351.381 207.034,350.891 207.749 M339.900 212.597 C 339.295 213.536,338.800 214.446,338.800 214.620 C 338.800 214.795,339.362 214.088,340.049 213.051 C 340.736 212.014,341.231 211.103,341.149 211.027 C 341.067 210.951,340.505 211.658,339.900 212.597 M338.378 223.500 L 337.000 225.000 338.500 223.622 C 339.896 222.338,340.184 222.000,339.878 222.000 C 339.812 222.000,339.137 222.675,338.378 223.500 M333.586 228.700 L 331.400 231.000 333.700 228.814 C 335.837 226.782,336.183 226.400,335.886 226.400 C 335.824 226.400,334.789 227.435,333.586 228.700 M321.578 234.300 L 320.200 235.800 321.700 234.422 C 322.525 233.663,323.200 232.988,323.200 232.922 C 323.200 232.616,322.862 232.904,321.578 234.300 M328.575 234.100 L 327.400 235.400 328.700 234.225 C 329.415 233.579,330.000 232.994,330.000 232.925 C 330.000 232.616,329.670 232.888,328.575 234.100 M332.521 237.898 C 334.677 237.971,338.097 237.970,340.121 237.898 C 342.144 237.825,340.380 237.766,336.200 237.767 C 332.020 237.767,330.364 237.826,332.521 237.898 M344.900 237.887 C 345.505 237.978,346.495 237.978,347.100 237.887 C 347.705 237.795,347.210 237.720,346.000 237.720 C 344.790 237.720,344.295 237.795,344.900 237.887 M315.600 240.600 C 314.628 241.590,313.923 242.400,314.033 242.400 C 314.143 242.400,315.028 241.590,316.000 240.600 C 316.972 239.610,317.677 238.800,317.567 238.800 C 317.457 238.800,316.572 239.610,315.600 240.600 M323.500 247.100 C 329.055 247.162,338.145 247.162,343.700 247.100 C 349.255 247.037,344.710 246.986,333.600 246.986 C 322.490 246.986,317.945 247.037,323.500 247.100 M183.000 251.600 C 183.440 251.789,184.070 251.944,184.400 251.944 C 184.778 251.944,184.704 251.817,184.200 251.600 C 183.760 251.411,183.130 251.256,182.800 251.256 C 182.422 251.256,182.496 251.383,183.000 251.600 M175.105 259.483 C 175.602 259.579,176.322 259.575,176.705 259.475 C 177.087 259.375,176.680 259.296,175.800 259.301 C 174.920 259.305,174.607 259.387,175.105 259.483 M161.693 265.200 C 161.693 265.970,161.775 266.285,161.876 265.900 C 161.976 265.515,161.976 264.885,161.876 264.500 C 161.775 264.115,161.693 264.430,161.693 265.200 M196.093 265.600 C 196.093 266.370,196.175 266.685,196.276 266.300 C 196.376 265.915,196.376 265.285,196.276 264.900 C 196.175 264.515,196.093 264.830,196.093 265.600 M164.575 266.100 L 163.400 267.400 164.700 266.225 C 165.912 265.130,166.184 264.800,165.875 264.800 C 165.806 264.800,165.221 265.385,164.575 266.100 M100.257 276.416 C 100.130 277.048,99.721 277.601,99.317 277.687 C 98.803 277.796,98.912 277.904,99.700 278.064 C 100.648 278.258,100.800 278.161,100.800 277.364 C 100.800 276.856,101.091 276.277,101.446 276.078 C 102.011 275.762,101.992 275.691,101.286 275.507 C 100.651 275.341,100.433 275.533,100.257 276.416 M85.035 276.857 C 85.159 277.058,85.921 277.533,86.727 277.913 C 87.788 278.412,88.263 278.934,88.449 279.801 C 88.696 280.957,88.707 280.963,88.753 279.949 C 88.779 279.371,88.538 278.681,88.218 278.415 C 87.352 277.696,84.774 276.434,85.035 276.857 M188.834 279.424 C 188.815 279.876,189.083 280.596,189.430 281.024 C 189.776 281.451,189.937 281.561,189.787 281.269 C 189.637 280.976,189.369 280.256,189.191 279.669 C 188.933 278.811,188.862 278.763,188.834 279.424 M101.549 280.500 C 101.852 280.886,102.570 281.176,103.149 281.146 L 104.200 281.091 103.200 280.907 C 102.650 280.806,101.930 280.516,101.600 280.262 C 101.078 279.860,101.071 279.891,101.549 280.500 M149.905 281.083 C 150.402 281.179,151.122 281.175,151.505 281.075 C 151.887 280.975,151.480 280.896,150.600 280.901 C 149.720 280.905,149.407 280.987,149.905 281.083 M66.828 281.400 C 66.828 281.620,67.086 282.250,67.400 282.800 C 67.714 283.350,67.972 283.620,67.972 283.400 C 67.972 283.180,67.714 282.550,67.400 282.000 C 67.086 281.450,66.828 281.180,66.828 281.400 M194.200 284.800 C 195.506 286.120,196.665 287.200,196.775 287.200 C 196.885 287.200,195.906 286.120,194.600 284.800 C 193.294 283.480,192.135 282.400,192.025 282.400 C 191.915 282.400,192.894 283.480,194.200 284.800 M172.011 284.587 C 171.743 284.909,171.617 285.404,171.731 285.687 C 171.858 286.004,171.949 285.928,171.968 285.487 C 171.986 285.095,172.405 284.611,172.900 284.412 C 173.509 284.168,173.590 284.043,173.149 284.025 C 172.791 284.011,172.279 284.264,172.011 284.587 M184.200 291.052 C 184.420 291.245,185.320 292.032,186.199 292.801 L 187.798 294.200 186.599 292.866 C 185.940 292.132,185.040 291.345,184.600 291.117 C 184.160 290.889,183.980 290.860,184.200 291.052 M298.854 293.476 C 298.825 294.838,298.935 296.036,299.100 296.138 C 299.265 296.240,299.347 295.486,299.283 294.462 C 299.084 291.288,298.911 290.891,298.854 293.476 M101.862 291.900 C 101.760 292.065,113.404 292.151,127.738 292.090 L 153.800 291.980 154.500 292.834 C 154.885 293.304,155.200 293.517,155.200 293.306 C 155.200 291.605,155.114 291.600,127.892 291.600 C 113.677 291.600,101.964 291.735,101.862 291.900 M100.958 293.366 C 100.838 293.678,100.805 294.443,100.884 295.066 C 101.002 295.991,101.064 295.887,101.225 294.500 C 101.427 292.751,101.338 292.375,100.958 293.366 M242.925 293.099 C 246.404 293.166,251.984 293.166,255.325 293.099 C 258.666 293.032,255.820 292.978,249.000 292.978 C 242.180 292.978,239.446 293.033,242.925 293.099 M235.737 297.000 C 235.739 298.760,235.809 299.430,235.893 298.489 C 235.978 297.549,235.977 296.109,235.891 295.289 C 235.805 294.470,235.736 295.240,235.737 297.000 M262.520 297.600 C 262.520 298.810,262.595 299.305,262.687 298.700 C 262.778 298.095,262.778 297.105,262.687 296.500 C 262.595 295.895,262.520 296.390,262.520 297.600 M199.309 298.000 C 199.309 298.990,199.387 299.395,199.482 298.900 C 199.578 298.405,199.578 297.595,199.482 297.100 C 199.387 296.605,199.309 297.010,199.309 298.000 M177.905 316.283 C 178.402 316.379,179.122 316.375,179.505 316.275 C 179.887 316.175,179.480 316.096,178.600 316.101 C 177.720 316.105,177.407 316.187,177.905 316.283 M161.687 319.405 C 162.504 320.260,163.238 320.879,163.317 320.780 C 163.397 320.681,162.728 319.981,161.831 319.225 L 160.200 317.850 161.687 319.405 M175.105 321.883 C 175.602 321.979,176.322 321.975,176.705 321.875 C 177.087 321.775,176.680 321.696,175.800 321.701 C 174.920 321.705,174.607 321.787,175.105 321.883 M171.505 322.283 C 172.002 322.379,172.722 322.375,173.105 322.275 C 173.487 322.175,173.080 322.096,172.200 322.101 C 171.320 322.105,171.007 322.187,171.505 322.283 M68.744 329.500 C 67.593 330.889,67.106 331.600,67.304 331.600 C 67.414 331.600,67.986 330.970,68.573 330.200 C 69.663 328.771,69.795 328.232,68.744 329.500 M64.600 332.400 L 63.400 332.705 64.476 332.753 C 65.068 332.779,65.664 332.620,65.800 332.400 C 65.936 332.180,65.992 332.021,65.924 332.047 C 65.856 332.073,65.260 332.232,64.600 332.400 M63.200 341.800 C 62.650 342.114,62.380 342.372,62.600 342.372 C 62.820 342.372,63.450 342.114,64.000 341.800 C 64.550 341.486,64.820 341.228,64.600 341.228 C 64.380 341.228,63.750 341.486,63.200 341.800 M318.900 355.246 C 317.537 356.119,317.095 356.706,318.300 356.043 C 319.218 355.539,320.656 354.427,320.400 354.419 C 320.290 354.416,319.615 354.788,318.900 355.246 M347.578 361.100 L 346.200 362.600 347.700 361.222 C 349.096 359.938,349.384 359.600,349.078 359.600 C 349.012 359.600,348.337 360.275,347.578 361.100 M351.946 360.216 C 352.686 360.537,353.406 360.794,353.546 360.786 C 354.066 360.757,351.776 359.628,351.200 359.630 C 350.870 359.631,351.206 359.894,351.946 360.216 M357.219 360.178 C 356.955 360.495,356.078 360.825,355.270 360.910 L 353.800 361.066 355.238 361.133 C 356.230 361.179,356.901 360.952,357.400 360.400 C 357.798 359.960,358.028 359.600,357.911 359.600 C 357.794 359.600,357.482 359.860,357.219 360.178 M338.000 362.791 C 338.000 363.317,339.959 364.575,340.279 364.254 C 340.419 364.114,340.323 364.000,340.067 364.000 C 339.810 364.000,339.240 363.640,338.800 363.200 C 338.360 362.760,338.000 362.576,338.000 362.791 M340.509 372.800 C 340.509 373.790,340.587 374.195,340.682 373.700 C 340.778 373.205,340.778 372.395,340.682 371.900 C 340.587 371.405,340.509 371.810,340.509 372.800 M325.599 384.900 C 325.010 385.704,324.913 385.984,325.345 385.633 C 326.001 385.100,326.993 383.600,326.689 383.600 C 326.613 383.600,326.122 384.185,325.599 384.900 M352.511 387.700 C 351.830 388.581,351.517 389.430,352.170 388.624 C 352.517 388.197,353.025 387.704,353.300 387.530 C 353.627 387.322,353.644 387.210,353.349 387.206 C 353.101 387.203,352.724 387.425,352.511 387.700 M355.568 388.700 C 355.759 390.081,355.787 390.109,355.919 389.051 C 355.998 388.419,355.905 387.745,355.712 387.552 C 355.510 387.350,355.449 387.840,355.568 388.700 M308.829 393.454 C 308.373 394.034,308.005 394.709,308.012 394.954 C 308.019 395.199,308.224 395.040,308.468 394.600 C 308.712 394.160,309.185 393.485,309.518 393.100 C 309.851 392.715,310.019 392.400,309.891 392.400 C 309.763 392.400,309.285 392.874,308.829 393.454 M320.981 398.100 L 319.400 399.800 321.100 398.219 C 322.035 397.349,322.800 396.584,322.800 396.519 C 322.800 396.216,322.452 396.519,320.981 398.100 M339.200 400.253 C 339.200 400.523,342.055 401.678,342.248 401.486 C 342.336 401.397,341.687 401.041,340.804 400.695 C 339.922 400.348,339.200 400.149,339.200 400.253 " stroke="none" fill="#848484" fill-rule="evenodd"></path></g></svg>