<svg id="svg" version="1.1" xmlns="http://www.w3.org/2000/svg" xmlns:xlink="http://www.w3.org/1999/xlink" width="400" height="261.0644257703081" viewBox="0, 0, 400,261.0644257703081"><g id="svgg"><path id="path0" d="M133.943 90.694 C 129.701 91.578,125.024 94.284,122.108 97.539 C 120.423 99.420,119.221 101.039,118.342 102.611 C 117.821 103.544,117.311 104.367,117.209 104.439 C 117.108 104.510,116.884 105.098,116.712 105.744 C 116.539 106.390,116.275 107.069,116.124 107.253 C 115.646 107.836,114.625 113.883,114.623 116.140 C 114.617 124.245,119.269 131.233,125.370 132.281 C 127.765 132.692,132.452 132.295,132.873 131.645 C 132.958 131.513,133.412 131.208,133.879 130.969 C 135.234 130.275,137.419 127.871,138.396 126.000 C 138.890 125.053,139.440 124.015,139.618 123.693 C 139.795 123.371,139.953 122.578,139.969 121.932 C 139.985 121.286,140.137 120.170,140.308 119.452 C 140.552 118.426,140.547 117.838,140.287 116.710 C 140.105 115.920,139.952 114.863,139.948 114.360 C 139.944 113.858,139.770 113.153,139.563 112.794 C 139.355 112.435,139.104 111.965,139.004 111.749 C 138.611 110.896,137.237 108.877,137.050 108.877 C 136.941 108.877,136.697 108.730,136.507 108.550 C 134.167 106.333,126.706 105.459,124.805 107.179 C 123.243 108.593,121.791 107.687,122.715 105.875 C 123.003 105.311,123.238 104.691,123.238 104.495 C 123.238 104.176,124.345 102.094,124.865 101.436 C 125.120 101.113,126.452 99.311,127.080 98.439 C 127.824 97.405,131.397 93.995,131.736 93.995 C 131.906 93.995,132.325 93.775,132.667 93.507 C 133.010 93.238,133.699 92.929,134.200 92.820 C 134.700 92.710,135.347 92.466,135.636 92.277 C 135.925 92.088,136.961 91.851,137.938 91.751 C 139.659 91.576,139.712 91.549,139.635 90.889 C 139.528 89.969,137.717 89.906,133.943 90.694 M197.477 90.796 C 197.109 91.191,196.294 92.278,195.668 93.211 C 195.041 94.145,194.108 95.496,193.594 96.214 C 193.081 96.932,192.355 97.990,191.983 98.564 C 191.611 99.138,191.231 99.667,191.140 99.739 C 191.049 99.811,190.508 100.560,189.939 101.403 C 188.353 103.753,186.118 106.955,183.536 110.574 C 182.819 111.580,181.804 113.048,181.281 113.838 C 180.758 114.628,180.201 115.392,180.044 115.535 C 179.013 116.479,178.700 120.388,179.617 120.879 C 179.933 121.048,183.056 121.149,187.957 121.149 C 193.938 121.149,195.842 121.226,196.003 121.475 C 196.119 121.655,196.273 124.093,196.345 126.893 L 196.475 131.984 198.956 131.984 L 201.436 131.984 201.580 126.632 C 201.660 123.688,201.748 121.264,201.776 121.246 C 201.804 121.228,202.858 121.163,204.117 121.103 C 207.059 120.963,207.050 120.970,207.050 118.789 C 207.050 116.682,207.155 116.751,203.786 116.645 L 201.697 116.580 201.556 103.394 C 201.478 96.142,201.390 90.180,201.360 90.144 C 200.973 89.680,198.063 90.169,197.477 90.796 M159.475 95.366 C 159.445 95.401,159.357 98.662,159.279 102.611 L 159.138 109.791 151.958 109.922 L 144.778 110.052 144.778 111.358 L 144.778 112.663 151.676 112.733 C 156.231 112.779,158.691 112.901,158.921 113.091 C 159.194 113.318,159.269 114.824,159.269 120.115 C 159.269 128.261,159.230 128.134,161.554 127.512 L 162.141 127.354 162.141 120.387 C 162.141 115.317,162.226 113.335,162.454 113.107 C 162.682 112.879,164.666 112.794,169.742 112.794 L 176.717 112.794 176.894 111.740 C 177.204 109.909,177.321 109.939,169.358 109.861 L 162.272 109.791 162.202 102.754 C 162.150 97.524,162.050 95.665,161.810 95.513 C 161.519 95.328,159.608 95.207,159.475 95.366 M196.116 99.236 C 196.451 100.436,196.374 116.054,196.031 116.397 C 195.556 116.872,184.085 116.837,183.430 116.358 C 182.899 115.970,182.793 116.161,186.190 111.358 C 186.900 110.352,187.679 109.236,187.920 108.877 C 188.161 108.518,188.599 107.918,188.892 107.543 C 189.186 107.168,189.574 106.639,189.755 106.368 C 190.789 104.818,192.697 102.155,193.056 101.762 C 193.285 101.511,193.473 101.233,193.473 101.145 C 193.473 100.746,195.392 98.421,195.650 98.507 C 195.809 98.559,196.018 98.888,196.116 99.236 M15.927 104.678 C 15.927 105.332,16.343 105.788,17.339 106.229 C 18.802 106.876,20.970 109.793,21.753 112.166 C 21.843 112.440,22.027 112.839,22.162 113.055 C 22.393 113.425,23.121 114.950,25.963 121.018 C 26.636 122.454,27.300 123.805,27.439 124.021 C 27.578 124.236,27.765 124.634,27.854 124.906 C 27.944 125.177,28.293 125.917,28.630 126.551 C 28.967 127.185,29.243 127.858,29.243 128.046 C 29.243 128.235,29.478 128.688,29.765 129.053 C 30.740 130.292,30.492 131.727,28.686 135.300 C 28.418 135.831,28.198 136.432,28.198 136.635 C 28.198 138.327,25.245 140.210,23.548 139.599 C 19.545 138.160,16.514 139.925,17.720 142.994 C 18.945 146.113,23.862 145.957,27.298 142.689 C 28.087 141.939,30.026 139.359,30.026 139.059 C 30.026 138.869,30.254 138.423,30.532 138.069 C 30.810 137.716,31.122 137.083,31.225 136.663 C 31.328 136.244,31.629 135.491,31.894 134.991 C 32.159 134.490,32.376 133.917,32.376 133.716 C 32.376 133.516,32.598 132.985,32.870 132.537 C 33.142 132.090,33.443 131.350,33.540 130.893 C 33.636 130.436,33.871 129.932,34.063 129.774 C 34.254 129.615,34.488 129.070,34.583 128.562 C 34.679 128.054,34.984 127.265,35.262 126.809 C 35.541 126.352,35.769 125.738,35.769 125.444 C 35.770 125.149,35.890 124.789,36.037 124.642 C 36.302 124.377,37.034 122.599,37.798 120.366 C 38.019 119.719,38.342 119.014,38.516 118.799 C 38.691 118.584,38.913 118.055,39.010 117.624 C 39.181 116.865,39.756 115.523,40.765 113.525 C 41.034 112.994,41.254 112.348,41.254 112.089 C 41.255 111.831,41.470 111.266,41.732 110.836 C 41.995 110.405,42.295 109.700,42.401 109.269 C 42.687 108.094,43.803 106.616,44.677 106.254 C 45.420 105.946,45.953 105.304,45.953 104.717 C 45.953 104.387,37.442 104.319,37.239 104.647 C 37.035 104.976,37.402 105.356,38.258 105.701 C 39.752 106.305,39.919 108.425,38.662 110.825 C 38.364 111.394,38.120 112.012,38.120 112.197 C 38.120 112.383,37.885 112.973,37.598 113.509 C 37.311 114.045,37.075 114.661,37.074 114.879 C 37.073 115.096,36.839 115.627,36.554 116.057 C 36.268 116.488,36.034 117.019,36.033 117.236 C 36.032 117.454,35.814 118.041,35.549 118.542 C 35.284 119.042,34.989 119.773,34.893 120.166 C 34.647 121.170,33.346 123.256,33.030 123.151 C 32.886 123.103,32.415 122.359,31.984 121.498 C 31.554 120.636,31.084 119.697,30.940 119.410 C 30.796 119.124,30.519 118.546,30.325 118.126 C 30.130 117.706,29.865 117.187,29.735 116.971 C 29.606 116.756,29.369 116.286,29.209 115.927 C 29.049 115.568,28.476 114.334,27.936 113.185 C 27.395 112.037,26.697 110.545,26.384 109.870 C 25.456 107.869,25.691 106.867,27.285 106.035 C 28.667 105.312,29.028 104.986,28.819 104.647 C 28.636 104.352,15.927 104.383,15.927 104.678 M50.131 105.483 C 48.332 105.621,47.710 106.412,48.577 107.457 C 49.138 108.133,80.045 108.007,80.409 107.328 C 80.778 106.638,80.749 105.752,80.352 105.615 C 79.876 105.450,52.133 105.329,50.131 105.483 M128.578 109.118 C 128.660 109.251,129.086 109.438,129.526 109.535 C 131.098 109.880,133.106 112.284,133.554 114.356 C 133.662 114.857,133.940 115.557,134.173 115.912 C 134.917 117.048,134.787 125.227,134.008 126.217 C 133.685 126.627,133.420 127.076,133.420 127.213 C 133.420 128.119,131.141 129.970,129.501 130.395 C 127.306 130.964,125.890 130.375,123.742 127.999 C 121.660 125.695,120.772 122.382,120.785 116.971 C 120.798 111.884,120.892 111.519,122.398 110.703 C 122.931 110.414,123.544 110.068,123.760 109.934 C 125.007 109.160,128.263 108.609,128.578 109.118 M48.415 115.776 C 47.986 117.487,46.728 117.363,64.494 117.363 L 80.548 117.363 80.630 116.789 C 80.878 115.044,81.867 115.144,64.356 115.144 L 48.574 115.144 48.415 115.776 " stroke="none" fill="#101010" fill-rule="evenodd"></path><path id="path1" d="M0.000 130.548 L 0.000 261.097 200.000 261.097 L 400.000 261.097 400.000 130.548 L 400.000 0.000 200.000 0.000 L 0.000 0.000 0.000 130.548 M253.340 76.792 C 255.463 77.121,257.454 78.057,258.526 79.230 C 258.926 79.668,259.424 80.203,259.632 80.420 C 259.840 80.636,260.089 81.165,260.184 81.595 C 260.280 82.024,260.524 82.819,260.727 83.360 C 261.200 84.619,261.199 86.402,260.726 87.658 C 260.522 88.199,260.277 89.112,260.182 89.687 C 260.004 90.760,259.436 91.854,258.497 92.937 C 258.204 93.275,257.963 93.672,257.963 93.817 C 257.963 93.962,257.787 94.268,257.571 94.495 C 257.355 94.723,256.761 95.437,256.250 96.084 C 255.445 97.101,254.214 98.465,250.196 102.787 C 249.729 103.289,249.347 103.749,249.347 103.808 C 249.347 104.031,258.215 103.907,258.795 103.676 C 259.354 103.453,260.221 102.694,261.042 101.709 C 261.505 101.153,262.300 101.204,262.925 101.828 L 263.447 102.351 262.925 103.325 C 262.637 103.862,262.402 104.570,262.402 104.899 C 262.402 105.921,260.889 108.609,260.157 108.887 C 259.140 109.274,242.480 109.217,242.089 108.825 C 241.306 108.043,242.348 105.240,243.431 105.215 C 243.597 105.211,244.021 104.742,244.373 104.172 C 244.724 103.602,245.215 103.071,245.464 102.992 C 245.712 102.913,246.155 102.442,246.449 101.944 C 246.742 101.447,247.258 100.915,247.594 100.761 C 247.930 100.608,248.411 100.102,248.662 99.636 C 248.913 99.170,249.463 98.584,249.885 98.335 C 250.307 98.086,250.653 97.712,250.653 97.505 C 250.653 97.297,251.105 96.687,251.657 96.149 C 252.209 95.610,253.024 94.424,253.467 93.513 C 253.910 92.601,254.483 91.624,254.739 91.340 C 255.130 90.908,255.207 90.328,255.214 87.746 L 255.222 84.668 253.957 83.472 C 251.458 81.111,247.319 81.505,245.695 84.257 C 245.416 84.730,245.075 85.117,244.938 85.117 C 244.801 85.117,244.607 85.499,244.508 85.966 C 244.261 87.119,243.930 87.467,243.081 87.467 C 240.115 87.467,242.771 79.891,246.345 78.156 C 246.775 77.947,247.422 77.608,247.781 77.403 C 248.140 77.199,248.786 77.018,249.217 77.001 C 249.873 76.976,250.256 76.893,251.386 76.527 C 251.430 76.513,252.310 76.632,253.340 76.792 M383.867 77.559 C 384.256 77.839,384.702 78.068,384.858 78.068 C 385.337 78.068,387.735 80.768,387.874 81.462 C 387.946 81.821,388.138 82.467,388.301 82.898 C 388.791 84.196,388.861 86.604,388.439 87.675 C 388.229 88.207,387.978 89.192,387.880 89.864 C 387.782 90.536,387.480 91.368,387.210 91.712 C 386.939 92.056,386.209 93.092,385.588 94.015 C 384.311 95.913,384.160 96.090,381.009 99.404 C 378.316 102.235,378.225 102.342,377.998 102.937 C 377.902 103.189,377.643 103.394,377.423 103.394 C 377.203 103.394,377.023 103.512,377.023 103.655 C 377.023 103.984,385.615 104.012,386.473 103.686 C 386.806 103.559,387.548 102.972,388.122 102.381 C 389.727 100.726,391.920 101.224,390.769 102.982 C 390.553 103.310,390.296 104.037,390.197 104.596 C 389.821 106.710,388.647 108.785,387.722 108.970 C 385.959 109.323,370.367 109.162,369.853 108.786 C 368.887 108.080,369.869 105.683,371.345 105.144 C 371.596 105.052,371.802 104.809,371.802 104.604 C 371.802 104.399,372.242 103.846,372.781 103.376 C 373.319 102.905,373.960 102.193,374.205 101.795 C 374.450 101.396,375.008 100.885,375.445 100.659 C 375.883 100.433,376.239 100.104,376.237 99.928 C 376.235 99.752,376.703 99.138,377.276 98.564 C 379.331 96.503,380.591 94.881,381.432 93.211 C 381.902 92.278,382.459 91.221,382.669 90.862 C 382.955 90.373,383.031 89.512,382.971 87.435 L 382.892 84.661 381.646 83.484 C 378.583 80.591,373.455 82.044,372.198 86.162 C 371.795 87.481,370.458 87.974,369.714 87.077 C 369.289 86.565,369.603 83.445,370.123 83.013 C 370.328 82.843,370.498 82.571,370.501 82.409 C 370.507 82.021,371.871 79.916,372.581 79.200 C 374.856 76.904,381.593 75.925,383.867 77.559 M140.169 90.173 C 140.737 91.361,140.269 92.052,138.757 92.259 C 138.077 92.353,137.377 92.547,137.203 92.692 C 137.029 92.837,136.195 93.082,135.349 93.238 C 134.504 93.393,133.723 93.677,133.615 93.868 C 133.506 94.059,133.064 94.293,132.633 94.387 C 132.202 94.482,131.729 94.785,131.581 95.060 C 131.434 95.336,131.145 95.561,130.940 95.561 C 130.735 95.561,130.441 95.796,130.287 96.084 C 130.133 96.371,129.836 96.606,129.625 96.606 C 129.415 96.606,129.243 96.706,129.243 96.829 C 129.243 97.027,128.939 97.422,127.572 99.001 C 127.364 99.242,127.058 99.691,126.893 100.000 C 126.728 100.309,126.396 100.788,126.155 101.064 C 125.915 101.340,125.515 101.799,125.268 102.082 C 125.020 102.366,124.740 102.924,124.645 103.322 C 124.550 103.721,124.322 104.223,124.137 104.439 C 123.676 104.975,123.405 106.169,123.619 106.723 C 123.781 107.144,123.814 107.146,124.038 106.748 C 124.188 106.481,124.794 106.245,125.627 106.130 C 126.367 106.029,127.362 105.783,127.838 105.584 C 128.947 105.120,131.325 105.117,131.992 105.578 C 132.275 105.773,133.073 106.017,133.765 106.119 C 134.503 106.227,135.203 106.512,135.455 106.807 C 135.692 107.084,136.032 107.311,136.211 107.311 C 136.389 107.311,136.657 107.538,136.805 107.815 C 136.954 108.093,137.310 108.394,137.598 108.486 C 137.885 108.577,138.120 108.823,138.120 109.034 C 138.120 109.244,138.286 109.479,138.488 109.557 C 138.690 109.635,139.002 110.072,139.181 110.528 C 139.360 110.984,139.670 111.492,139.869 111.656 C 140.069 111.821,140.297 112.408,140.376 112.962 C 140.455 113.516,140.705 114.380,140.932 114.883 C 141.503 116.149,141.485 120.140,140.901 121.507 C 140.664 122.063,140.470 122.840,140.470 123.234 C 140.470 123.628,140.251 124.231,139.984 124.573 C 139.716 124.916,139.411 125.472,139.305 125.810 C 139.017 126.730,137.391 129.161,136.601 129.854 C 136.411 130.021,136.008 130.421,135.705 130.744 C 135.402 131.067,135.015 131.332,134.845 131.332 C 134.674 131.332,134.235 131.568,133.868 131.856 C 133.502 132.145,132.810 132.457,132.332 132.551 C 131.854 132.644,131.189 132.897,130.855 133.113 C 129.968 133.687,125.992 133.664,124.882 133.078 C 124.423 132.836,123.792 132.637,123.480 132.637 C 122.602 132.637,120.682 131.356,119.001 129.650 C 117.492 128.117,117.131 127.611,116.309 125.876 C 116.077 125.388,115.721 124.822,115.516 124.617 C 115.311 124.412,115.144 123.928,115.144 123.541 C 115.144 123.155,114.892 122.370,114.585 121.798 C 113.744 120.229,113.747 111.450,114.590 109.600 C 114.894 108.931,115.144 108.077,115.144 107.703 C 115.144 107.329,115.369 106.588,115.644 106.057 C 115.919 105.526,116.274 104.798,116.433 104.439 C 116.591 104.080,117.008 103.316,117.359 102.742 C 117.709 102.167,118.148 101.391,118.333 101.017 C 118.945 99.776,123.230 95.039,123.740 95.039 C 123.903 95.039,124.103 94.868,124.183 94.660 C 124.263 94.451,124.700 94.042,125.154 93.752 C 125.608 93.461,126.213 93.074,126.498 92.891 C 126.784 92.708,127.299 92.353,127.643 92.102 C 127.987 91.851,128.472 91.645,128.721 91.645 C 128.969 91.645,129.457 91.421,129.805 91.147 C 130.154 90.873,131.021 90.565,131.734 90.462 C 132.446 90.360,133.205 90.122,133.421 89.934 C 134.493 89.000,139.697 89.184,140.169 90.173 M201.682 89.875 C 202.037 90.381,202.089 92.099,202.089 103.322 L 202.089 116.188 204.517 116.188 C 207.525 116.188,207.572 116.230,207.572 118.932 C 207.572 121.895,207.432 122.040,204.460 122.154 L 202.089 122.245 202.089 127.031 C 202.089 132.870,202.219 132.637,198.958 132.637 C 195.551 132.637,195.822 133.067,195.822 127.670 C 195.822 125.112,195.751 122.833,195.664 122.606 C 195.524 122.242,194.567 122.193,187.590 122.193 L 179.675 122.193 178.871 121.517 C 177.949 120.742,177.643 117.388,178.434 116.731 C 178.635 116.564,178.872 116.139,178.961 115.786 C 179.050 115.433,179.234 115.144,179.372 115.144 C 179.509 115.144,179.815 114.762,180.052 114.295 C 180.289 113.828,180.859 112.977,181.318 112.402 C 181.777 111.828,182.233 111.181,182.330 110.966 C 182.427 110.751,182.917 110.046,183.419 109.399 C 183.921 108.753,184.447 107.960,184.588 107.637 C 184.728 107.314,184.942 107.050,185.063 107.050 C 185.183 107.050,185.478 106.638,185.718 106.136 C 185.957 105.633,186.243 105.220,186.353 105.217 C 186.464 105.214,186.906 104.612,187.337 103.878 C 187.768 103.144,188.326 102.324,188.577 102.055 C 188.828 101.786,189.034 101.450,189.034 101.308 C 189.034 101.165,189.269 100.902,189.556 100.723 C 189.843 100.543,190.080 100.278,190.082 100.133 C 190.085 99.988,190.499 99.282,191.003 98.564 C 191.508 97.846,192.121 96.965,192.367 96.606 C 192.612 96.247,192.961 95.798,193.143 95.608 C 193.324 95.418,193.473 95.154,193.473 95.021 C 193.473 94.887,193.678 94.572,193.930 94.319 C 194.181 94.067,194.820 93.205,195.350 92.405 C 197.205 89.604,197.625 89.295,199.568 89.295 C 201.037 89.295,201.333 89.376,201.682 89.875 M162.083 94.662 C 162.659 95.066,162.663 95.126,162.663 102.234 L 162.663 109.399 169.713 109.399 C 178.209 109.399,178.335 109.447,177.532 112.337 C 177.382 112.875,177.236 113.341,177.207 113.371 C 177.178 113.401,173.923 113.489,169.974 113.566 L 162.794 113.708 162.724 120.811 L 162.655 127.915 161.778 128.157 C 160.834 128.418,159.600 128.287,159.073 127.870 C 158.827 127.675,158.747 125.897,158.747 120.595 L 158.747 113.577 151.816 113.577 L 144.885 113.577 144.244 112.936 C 143.778 112.470,143.603 112.011,143.603 111.254 C 143.603 109.433,143.749 109.399,151.755 109.399 L 158.747 109.399 158.747 102.408 C 158.747 94.458,158.791 94.256,160.531 94.256 C 161.065 94.256,161.764 94.439,162.083 94.662 M302.602 96.589 C 302.771 96.905,302.872 100.032,302.872 104.944 L 302.872 112.794 310.817 112.794 C 317.691 112.794,318.817 112.849,319.172 113.204 C 319.806 113.838,319.743 117.236,319.083 118.052 L 318.585 118.668 310.739 118.748 L 302.894 118.827 302.818 126.633 C 302.760 132.506,302.660 134.521,302.410 134.770 C 301.810 135.370,298.686 135.352,297.715 134.744 L 296.867 134.211 296.867 126.818 C 296.867 121.417,296.782 119.341,296.554 119.112 C 296.326 118.884,294.350 118.799,289.308 118.797 C 279.914 118.796,280.032 118.842,280.055 115.174 C 280.070 112.691,279.699 112.794,288.699 112.794 L 296.358 112.794 296.612 112.124 C 296.756 111.747,296.867 108.273,296.867 104.175 C 296.867 95.546,296.647 96.084,300.179 96.084 C 302.040 96.084,302.368 96.152,302.602 96.589 M194.713 100.671 C 194.318 101.131,193.995 101.633,193.995 101.785 C 193.995 101.938,193.843 102.157,193.658 102.272 C 193.473 102.386,192.945 103.068,192.483 103.786 C 191.552 105.237,190.956 106.050,190.274 106.805 C 190.023 107.083,189.817 107.412,189.817 107.536 C 189.817 107.738,188.797 109.163,187.927 110.175 C 187.746 110.386,187.461 110.821,187.294 111.141 C 187.126 111.462,186.863 111.877,186.710 112.063 C 185.555 113.465,185.117 114.078,185.117 114.292 C 185.117 114.429,184.883 114.753,184.595 115.013 C 183.384 116.109,183.732 116.188,189.787 116.188 C 195.491 116.188,195.501 116.187,195.658 115.601 C 195.884 114.756,195.852 100.446,195.623 100.113 C 195.503 99.939,195.161 100.149,194.713 100.671 M222.270 103.113 C 223.197 103.465,224.180 105.355,224.385 107.180 C 224.505 108.251,224.731 108.912,225.099 109.269 L 225.637 109.791 225.938 109.269 C 226.104 108.982,226.667 108.324,227.189 107.807 C 227.711 107.289,228.217 106.620,228.313 106.318 C 228.408 106.017,228.862 105.532,229.322 105.241 C 229.781 104.950,230.445 104.403,230.797 104.026 C 233.066 101.599,237.553 102.584,237.800 105.564 C 238.009 108.074,234.599 110.221,233.159 108.486 C 232.803 108.056,231.070 107.941,231.070 108.346 C 231.070 108.671,229.597 110.183,229.280 110.183 C 229.147 110.183,228.959 110.498,228.863 110.883 C 228.710 111.491,228.382 111.992,227.146 113.505 C 226.315 114.522,226.326 118.300,227.165 119.862 C 227.502 120.489,227.864 121.866,228.648 125.503 C 228.992 127.098,229.144 127.399,229.675 127.533 C 230.328 127.696,231.332 127.309,231.332 126.892 C 231.332 126.759,231.713 126.245,232.180 125.750 C 232.647 125.255,233.180 124.664,233.365 124.436 C 233.551 124.208,233.968 124.021,234.292 124.021 C 235.925 124.021,236.024 126.346,234.465 128.038 C 233.890 128.661,233.420 129.254,233.420 129.356 C 233.420 130.455,229.031 133.420,227.404 133.420 C 226.186 133.420,224.050 132.196,223.852 131.384 C 223.758 130.996,223.463 130.399,223.198 130.056 C 222.932 129.714,222.717 129.185,222.719 128.881 C 222.721 128.577,222.490 127.565,222.206 126.632 C 221.921 125.698,221.621 124.496,221.538 123.960 C 221.355 122.771,220.646 123.015,219.841 124.543 C 219.576 125.046,218.998 125.846,218.557 126.322 C 218.116 126.797,217.755 127.233,217.755 127.289 C 217.755 127.471,216.462 129.304,215.935 129.870 C 215.654 130.171,215.020 130.859,214.525 131.398 C 214.019 131.951,213.275 132.449,212.824 132.540 C 212.383 132.628,211.888 132.862,211.723 133.060 C 211.372 133.483,208.734 133.561,208.483 133.155 C 208.393 133.010,207.891 132.711,207.367 132.492 C 206.123 131.973,206.014 131.761,206.009 129.862 C 206.005 128.071,206.124 127.903,207.815 127.320 C 208.831 126.970,209.139 126.968,210.417 127.301 C 212.105 127.740,213.494 127.567,213.709 126.890 C 213.791 126.631,214.018 126.358,214.213 126.283 C 214.409 126.208,214.892 125.552,215.287 124.827 C 215.682 124.101,216.281 123.327,216.619 123.105 C 216.956 122.884,217.233 122.500,217.235 122.252 C 217.236 122.004,217.643 121.373,218.140 120.849 C 219.587 119.322,219.943 118.135,219.605 115.957 C 219.449 114.952,219.321 113.764,219.321 113.317 C 219.321 112.870,219.097 112.011,218.823 111.409 C 218.548 110.806,218.239 109.843,218.135 109.269 C 218.031 108.695,217.739 108.026,217.485 107.782 C 217.232 107.539,216.974 107.187,216.912 107.001 C 216.819 106.724,216.516 106.726,215.253 107.012 C 212.975 107.528,211.749 107.212,211.749 106.109 C 211.749 105.558,213.340 104.237,214.343 103.955 C 214.855 103.811,215.744 103.513,216.319 103.294 C 217.489 102.847,221.268 102.732,222.270 103.113 M349.979 103.031 C 350.813 103.351,351.869 105.333,352.056 106.931 C 352.296 108.965,353.786 110.956,353.786 109.240 C 353.786 109.009,354.306 108.307,354.941 107.681 C 355.576 107.055,356.167 106.334,356.255 106.078 C 356.342 105.823,356.891 105.261,357.475 104.830 C 358.059 104.399,358.895 103.783,359.333 103.460 C 363.050 100.718,368.042 105.495,364.390 108.299 C 363.504 108.979,361.726 109.080,360.951 108.494 C 360.281 107.987,358.747 107.968,358.747 108.465 C 358.747 108.670,358.277 109.239,357.702 109.731 C 357.128 110.222,356.658 110.744,356.658 110.890 C 356.658 111.124,355.709 112.471,354.768 113.571 C 354.237 114.192,354.332 118.706,354.901 119.893 C 355.361 120.854,355.550 121.573,356.339 125.376 C 356.700 127.118,356.838 127.404,357.387 127.541 C 358.014 127.699,359.269 127.110,359.269 126.659 C 359.269 126.206,361.600 124.021,362.083 124.021 C 363.688 124.021,363.664 126.505,362.041 128.167 C 361.522 128.699,361.097 129.252,361.097 129.396 C 361.097 129.867,358.393 132.389,357.713 132.554 C 357.348 132.643,356.818 132.874,356.535 133.068 C 355.365 133.869,351.928 132.800,351.562 131.522 C 351.471 131.202,351.182 130.470,350.919 129.896 C 350.657 129.321,350.297 128.264,350.121 127.546 C 349.497 125.011,349.354 124.405,349.214 123.687 C 349.029 122.740,347.965 123.395,347.507 124.739 C 347.348 125.206,347.120 125.587,347.000 125.587 C 346.804 125.587,345.994 126.602,344.909 128.207 C 341.818 132.779,338.715 134.262,335.462 132.722 C 333.871 131.969,333.691 131.673,333.685 129.813 C 333.679 127.912,335.835 126.350,337.348 127.160 C 337.636 127.314,338.583 127.460,339.453 127.484 C 341.220 127.533,341.213 127.538,342.985 124.855 C 343.488 124.092,344.062 123.406,344.261 123.330 C 344.460 123.254,344.748 122.810,344.902 122.344 C 345.056 121.878,345.532 121.161,345.960 120.751 C 347.217 119.547,347.920 117.856,347.574 116.872 C 347.417 116.424,347.210 115.176,347.114 114.099 C 347.018 113.022,346.776 111.880,346.576 111.561 C 346.376 111.242,346.080 110.365,345.918 109.612 C 345.348 106.954,344.306 106.303,342.062 107.200 C 340.905 107.663,340.179 107.448,339.666 106.488 C 338.672 104.631,346.932 101.862,349.979 103.031 M29.191 103.969 C 29.982 104.760,29.220 106.376,27.921 106.661 C 26.990 106.866,26.478 107.840,26.893 108.616 C 27.037 108.884,27.154 109.387,27.154 109.733 C 27.154 110.080,27.377 110.565,27.650 110.812 C 27.923 111.059,28.220 111.653,28.310 112.132 C 28.400 112.611,28.635 113.136,28.832 113.300 C 29.030 113.464,29.269 113.907,29.364 114.285 C 29.459 114.663,29.764 115.261,30.042 115.615 C 30.321 115.969,30.549 116.448,30.550 116.680 C 30.551 116.912,30.785 117.454,31.070 117.885 C 31.356 118.316,31.590 118.866,31.591 119.107 C 31.592 119.348,31.774 119.726,31.995 119.948 C 32.217 120.169,32.552 120.794,32.740 121.337 C 33.072 122.295,33.088 122.305,33.282 121.671 C 33.392 121.312,33.655 120.821,33.866 120.580 C 34.078 120.339,34.361 119.652,34.495 119.053 C 34.630 118.454,34.897 117.807,35.088 117.616 C 35.280 117.424,35.514 116.785,35.608 116.196 C 35.702 115.606,35.942 115.061,36.140 114.985 C 36.338 114.910,36.576 114.336,36.670 113.711 C 36.764 113.087,37.008 112.436,37.212 112.267 C 37.417 112.097,37.661 111.529,37.755 111.005 C 37.848 110.481,38.100 109.851,38.315 109.606 C 38.529 109.360,38.763 108.634,38.836 107.992 L 38.967 106.824 38.014 106.645 C 36.698 106.398,36.020 104.816,36.867 103.969 C 37.871 102.964,47.258 103.749,47.258 104.837 C 47.258 105.331,47.496 105.324,48.060 104.814 C 48.793 104.151,80.077 104.243,80.745 104.911 C 81.617 105.783,81.715 106.815,81.030 107.898 L 80.410 108.877 64.506 108.877 C 46.812 108.877,48.270 109.032,47.257 107.047 L 46.751 106.054 45.798 106.540 C 44.634 107.134,43.864 107.807,43.864 108.233 C 43.864 108.409,43.696 108.692,43.489 108.863 C 43.283 109.034,43.036 109.548,42.939 110.005 C 42.842 110.462,42.556 111.188,42.303 111.619 C 42.050 112.050,41.760 112.755,41.658 113.185 C 41.557 113.616,41.321 114.145,41.135 114.360 C 40.949 114.576,40.720 115.181,40.627 115.705 C 40.533 116.229,40.286 116.799,40.078 116.971 C 39.871 117.144,39.628 117.714,39.539 118.238 C 39.450 118.762,39.153 119.509,38.879 119.898 C 38.605 120.287,38.381 120.888,38.381 121.234 C 38.381 121.579,38.163 122.142,37.897 122.484 C 37.630 122.827,37.334 123.536,37.237 124.060 C 37.141 124.584,36.898 125.149,36.698 125.315 C 36.497 125.481,36.256 126.074,36.162 126.632 C 36.068 127.190,35.827 127.782,35.626 127.949 C 35.426 128.115,35.189 128.680,35.100 129.204 C 35.011 129.728,34.733 130.450,34.481 130.809 C 34.230 131.168,33.941 131.909,33.839 132.455 C 33.736 133.001,33.497 133.508,33.306 133.581 C 33.116 133.654,32.882 134.203,32.786 134.800 C 32.690 135.398,32.456 136.066,32.266 136.286 C 32.076 136.505,31.781 137.115,31.612 137.642 C 31.443 138.169,31.135 138.742,30.927 138.914 C 30.719 139.087,30.548 139.404,30.548 139.618 C 30.548 140.620,27.195 144.179,25.561 144.911 C 25.217 145.066,24.641 145.362,24.282 145.569 C 23.213 146.185,19.526 146.090,18.930 145.431 C 18.670 145.144,18.328 144.908,18.171 144.907 C 17.843 144.905,16.954 143.525,16.659 142.560 C 16.424 141.792,16.765 140.378,17.318 139.825 C 17.532 139.611,17.751 139.305,17.804 139.146 C 17.890 138.888,20.100 138.297,20.757 138.356 C 20.901 138.369,21.924 138.497,23.032 138.639 C 25.326 138.934,26.258 138.713,26.609 137.788 C 26.735 137.456,27.015 137.039,27.230 136.860 C 27.445 136.681,27.696 136.140,27.786 135.657 C 27.877 135.174,28.115 134.642,28.315 134.476 C 28.516 134.310,28.757 133.717,28.851 133.159 C 28.945 132.601,29.190 132.006,29.394 131.837 C 29.873 131.439,29.871 130.439,29.390 130.040 C 29.184 129.869,28.934 129.355,28.834 128.898 C 28.734 128.442,28.433 127.788,28.164 127.445 C 27.896 127.103,27.676 126.651,27.676 126.442 C 27.676 126.233,27.441 125.763,27.154 125.398 C 26.867 125.032,26.632 124.470,26.632 124.148 C 26.632 123.826,26.462 123.421,26.254 123.249 C 26.046 123.076,25.737 122.504,25.568 121.977 C 25.399 121.449,25.108 120.842,24.922 120.627 C 24.736 120.411,24.498 119.883,24.393 119.452 C 24.288 119.021,23.985 118.388,23.720 118.046 C 23.455 117.703,23.238 117.220,23.238 116.971 C 23.238 116.723,23.002 116.219,22.713 115.853 C 22.425 115.486,22.118 114.831,22.031 114.398 C 21.944 113.965,21.722 113.552,21.536 113.481 C 21.350 113.410,21.113 112.966,21.010 112.495 C 20.907 112.025,20.580 111.282,20.284 110.846 C 19.005 108.957,18.799 108.629,18.799 108.476 C 18.799 108.086,17.223 106.789,16.749 106.789 C 15.618 106.789,14.890 104.797,15.718 103.969 C 16.164 103.523,28.745 103.523,29.191 103.969 M125.330 110.099 C 124.973 110.174,124.367 110.458,123.984 110.731 C 123.601 111.004,123.098 111.227,122.865 111.227 C 122.633 111.227,122.309 111.521,122.146 111.880 C 121.982 112.239,121.750 112.533,121.629 112.533 C 121.122 112.533,121.382 120.768,121.926 121.969 C 122.210 122.595,122.445 123.355,122.449 123.658 C 122.455 124.261,123.659 126.778,124.282 127.489 C 124.497 127.735,125.004 128.295,125.407 128.734 C 127.363 130.860,132.292 129.356,133.027 126.410 C 133.122 126.029,133.396 125.500,133.637 125.234 C 134.273 124.528,134.280 117.679,133.645 116.710 C 133.410 116.351,133.140 115.614,133.045 115.072 C 132.435 111.596,128.937 109.341,125.330 110.099 M80.791 114.601 C 81.602 115.497,81.632 117.086,80.853 117.865 L 80.180 118.538 64.478 118.538 C 49.021 118.538,48.763 118.529,48.017 117.998 C 47.094 117.341,47.006 116.214,47.778 114.948 L 48.295 114.099 64.316 114.099 C 79.790 114.099,80.352 114.116,80.791 114.601 " stroke="none" fill="#fbfbfb" fill-rule="evenodd"></path><path id="path2" d="M250.131 77.818 C 246.258 78.754,245.170 79.592,243.629 82.828 C 242.597 84.993,242.470 85.384,242.528 86.222 C 242.586 87.067,243.794 86.228,243.985 85.209 C 244.678 81.516,250.924 79.428,253.630 81.984 C 253.931 82.269,254.490 82.780,254.872 83.122 C 256.638 84.698,256.029 92.783,254.039 94.185 C 253.789 94.361,253.503 94.830,253.403 95.228 C 253.303 95.625,252.814 96.362,252.316 96.866 C 250.738 98.462,249.086 100.254,249.086 100.371 C 249.086 100.434,248.117 101.468,246.932 102.671 C 240.964 108.727,240.700 108.355,250.965 108.355 L 259.371 108.355 260.103 107.654 C 260.506 107.268,260.836 106.698,260.836 106.388 C 260.836 106.079,261.070 105.612,261.358 105.352 C 261.889 104.872,262.137 102.611,261.659 102.611 C 261.537 102.611,260.984 103.052,260.430 103.590 C 259.811 104.192,258.965 104.691,258.236 104.884 C 256.588 105.321,249.234 105.331,248.898 104.896 C 248.041 103.789,248.250 103.439,252.401 99.026 C 253.953 97.377,255.382 95.706,255.577 95.312 C 255.772 94.918,256.263 94.400,256.667 94.162 C 257.092 93.911,257.471 93.411,257.566 92.975 C 257.657 92.560,257.960 92.015,258.239 91.762 C 258.518 91.510,258.747 91.183,258.747 91.038 C 258.747 90.892,258.945 90.553,259.188 90.285 C 260.451 88.889,260.045 81.899,258.629 80.655 C 258.133 80.219,257.658 79.644,257.572 79.375 C 257.483 79.093,257.065 78.814,256.581 78.713 C 256.121 78.617,255.509 78.392,255.222 78.212 C 254.542 77.785,251.301 77.535,250.131 77.818 M378.198 77.722 C 374.123 78.386,370.235 82.374,370.235 85.890 C 370.235 87.100,371.367 86.472,371.793 85.025 C 372.134 83.868,372.983 82.768,373.535 82.768 C 373.720 82.768,374.003 82.523,374.163 82.223 C 375.110 80.454,380.052 80.273,381.269 81.962 C 381.447 82.209,381.791 82.484,382.034 82.575 C 384.334 83.432,384.071 93.000,381.713 94.262 C 381.431 94.412,381.201 94.764,381.201 95.044 C 381.201 95.323,380.672 96.104,380.026 96.778 C 379.380 97.453,378.851 98.152,378.851 98.332 C 378.851 98.512,378.616 98.734,378.329 98.825 C 378.042 98.916,377.807 99.079,377.807 99.187 C 377.807 99.368,376.727 100.545,372.889 104.545 C 371.128 106.381,370.235 107.548,370.235 108.014 C 370.235 108.288,371.902 108.355,378.658 108.355 L 387.081 108.355 387.796 107.692 C 388.194 107.323,388.512 106.749,388.512 106.401 C 388.512 106.056,388.736 105.617,389.009 105.425 C 389.469 105.104,389.692 104.201,389.596 103.062 C 389.549 102.514,388.563 103.011,387.598 104.069 C 386.817 104.924,385.049 105.222,380.746 105.222 C 376.593 105.222,376.240 105.121,376.240 103.929 C 376.240 103.276,376.505 102.940,379.976 99.187 C 380.722 98.381,381.919 97.057,382.637 96.245 C 383.355 95.434,384.266 94.420,384.661 93.993 C 385.055 93.566,385.379 92.998,385.379 92.732 C 385.379 92.466,385.614 92.035,385.901 91.775 C 386.188 91.516,386.423 91.193,386.423 91.058 C 386.423 90.924,386.645 90.531,386.917 90.185 C 388.242 88.501,387.829 81.878,386.323 80.636 C 385.821 80.222,385.341 79.667,385.257 79.402 C 384.956 78.453,380.387 77.366,378.198 77.722 M298.156 97.300 C 297.984 97.755,297.908 100.690,297.950 105.279 C 298.011 111.878,297.976 112.580,297.564 112.993 C 297.160 113.397,296.266 113.461,289.362 113.577 L 281.614 113.708 281.257 114.647 C 280.949 115.454,280.954 115.717,281.292 116.525 L 281.684 117.464 289.269 117.544 C 296.765 117.623,296.860 117.631,297.447 118.219 L 298.042 118.815 297.966 126.364 C 297.879 135.120,297.729 134.658,300.547 134.331 L 302.089 134.152 302.089 126.728 C 302.089 120.836,302.167 119.118,302.467 118.399 L 302.845 117.493 310.187 117.493 C 314.517 117.493,317.725 117.388,318.009 117.236 C 318.713 116.859,318.964 115.043,318.426 114.221 L 318.004 113.577 310.470 113.577 C 303.784 113.577,302.896 113.528,302.578 113.146 C 302.298 112.809,302.191 110.963,302.089 104.725 L 301.958 96.736 300.194 96.659 C 298.480 96.584,298.422 96.602,298.156 97.300 M218.418 103.585 C 218.137 103.656,217.667 103.864,217.374 104.047 C 217.081 104.230,216.400 104.457,215.862 104.552 C 215.323 104.646,214.883 104.832,214.883 104.965 C 214.883 105.098,214.523 105.300,214.083 105.414 C 212.685 105.776,213.360 106.140,215.274 106.055 C 217.980 105.934,219.360 107.810,219.752 112.141 C 219.843 113.146,220.136 114.531,220.403 115.219 C 221.050 116.886,221.036 118.323,220.366 118.930 C 220.078 119.189,219.843 119.610,219.843 119.865 C 219.843 120.120,219.428 120.769,218.919 121.308 C 218.411 121.847,217.822 122.652,217.611 123.097 C 217.400 123.542,216.765 124.466,216.199 125.150 C 215.634 125.834,215.102 126.612,215.017 126.879 C 214.844 127.425,213.269 128.261,212.430 128.253 C 212.127 128.250,210.979 128.161,209.877 128.056 C 207.019 127.783,205.964 128.827,206.969 130.934 C 208.267 133.656,213.165 132.492,215.350 128.943 C 215.672 128.420,216.228 127.800,216.584 127.567 C 216.941 127.333,217.232 126.966,217.232 126.751 C 217.232 126.535,217.702 125.849,218.277 125.226 C 218.851 124.603,219.322 123.989,219.324 123.861 C 219.332 123.215,221.170 121.841,221.531 122.212 C 221.946 122.639,222.893 125.190,223.245 126.831 C 223.377 127.444,223.592 128.149,223.723 128.398 C 223.855 128.647,224.097 129.508,224.262 130.310 L 224.562 131.769 225.888 132.075 C 227.436 132.432,230.548 132.032,230.548 131.475 C 230.548 131.297,231.077 130.670,231.723 130.082 C 232.369 129.493,232.898 128.854,232.898 128.660 C 232.898 128.467,233.355 127.804,233.912 127.187 C 234.568 126.463,234.882 125.896,234.801 125.584 C 234.623 124.904,233.684 125.292,233.146 126.268 C 232.916 126.683,232.326 127.286,231.834 127.606 C 231.342 127.927,230.781 128.325,230.587 128.491 C 229.920 129.058,228.518 128.124,228.303 126.969 C 228.202 126.425,227.962 125.736,227.768 125.439 C 227.575 125.142,227.313 124.378,227.185 123.742 C 227.057 123.105,226.763 121.885,226.531 121.029 C 226.299 120.173,226.110 119.079,226.110 118.599 C 226.110 118.118,225.981 117.215,225.825 116.592 C 225.465 115.164,226.278 112.673,227.444 111.635 C 227.859 111.265,228.198 110.797,228.198 110.595 C 228.198 110.394,228.850 109.572,229.646 108.770 C 231.210 107.193,231.460 107.120,233.666 107.593 C 236.761 108.257,238.429 106.159,236.349 104.220 C 235.167 103.118,231.070 103.722,231.070 104.998 C 231.070 105.128,230.788 105.342,230.442 105.474 C 230.096 105.605,229.596 106.028,229.332 106.413 C 229.068 106.798,228.616 107.370,228.329 107.683 C 228.042 107.996,227.396 108.860,226.893 109.603 C 225.352 111.879,224.219 111.293,223.883 108.047 C 223.705 106.322,223.558 106.011,222.101 104.280 C 221.346 103.383,220.122 103.152,218.418 103.585 M346.084 103.586 C 345.796 103.659,345.330 103.880,345.046 104.078 C 344.763 104.277,344.280 104.439,343.972 104.439 C 343.664 104.439,343.114 104.674,342.749 104.961 C 342.383 105.248,341.846 105.483,341.554 105.483 C 340.971 105.483,340.587 105.885,340.953 106.112 C 341.080 106.190,341.960 106.161,342.909 106.047 L 344.634 105.839 345.518 106.771 C 346.572 107.882,347.248 109.827,347.533 112.572 C 347.647 113.670,347.922 114.921,348.144 115.351 C 348.932 116.873,348.949 118.067,348.196 118.880 C 347.824 119.281,347.520 119.764,347.520 119.953 C 347.520 120.142,347.071 120.871,346.522 121.572 C 345.974 122.273,345.244 123.316,344.902 123.890 C 344.559 124.465,343.980 125.240,343.614 125.614 C 343.249 125.987,342.751 126.588,342.507 126.950 C 341.967 127.752,340.075 128.743,339.734 128.403 C 339.119 127.787,335.620 127.840,335.029 128.474 C 332.112 131.606,338.358 133.935,341.371 130.839 C 343.851 128.293,344.909 127.054,344.909 126.699 C 344.909 126.496,345.379 125.865,345.953 125.296 C 346.527 124.727,346.997 124.145,346.997 124.002 C 346.997 123.516,348.793 121.936,349.178 122.084 C 349.386 122.164,349.691 122.768,349.857 123.427 C 350.023 124.086,350.329 124.868,350.536 125.165 C 350.744 125.461,350.914 126.022,350.914 126.412 C 350.914 126.801,351.048 127.451,351.212 127.855 C 351.376 128.259,351.701 129.295,351.936 130.157 L 352.362 131.723 353.661 132.056 C 355.070 132.416,358.009 132.110,358.184 131.585 C 358.367 131.034,359.587 129.765,359.933 129.765 C 360.128 129.765,360.401 129.360,360.537 128.865 C 360.674 128.370,361.208 127.594,361.724 127.141 C 362.594 126.377,362.932 125.515,362.467 125.242 C 362.116 125.035,361.089 125.564,360.922 126.038 C 360.713 126.631,359.512 127.937,359.175 127.937 C 359.034 127.937,358.707 128.129,358.448 128.363 C 357.476 129.242,355.875 127.848,355.875 126.123 C 355.875 125.886,355.732 125.549,355.558 125.375 C 355.179 124.996,354.367 121.941,354.018 119.582 C 353.880 118.649,353.650 117.369,353.507 116.739 C 353.168 115.248,353.773 113.284,354.964 112.010 C 355.433 111.508,355.900 110.823,356.001 110.489 C 356.257 109.638,358.763 107.317,359.429 107.313 C 359.733 107.312,360.600 107.428,361.357 107.572 C 364.624 108.191,366.169 106.335,364.077 104.303 C 362.685 102.952,360.531 103.268,358.561 105.113 C 358.266 105.388,357.723 105.849,357.354 106.136 C 356.984 106.423,356.677 106.784,356.670 106.937 C 356.663 107.091,356.394 107.465,356.070 107.770 C 355.344 108.454,354.705 109.275,354.046 110.373 C 353.041 112.046,351.868 110.837,351.565 107.814 C 351.438 106.554,351.241 105.909,350.881 105.584 C 350.602 105.332,350.134 104.736,349.840 104.260 C 349.295 103.378,347.901 103.128,346.084 103.586 " stroke="none" fill="#eb391e" fill-rule="evenodd"></path><path id="path3" d="M133.860 89.938 C 133.456 90.151,132.546 90.403,131.838 90.497 C 131.130 90.591,130.297 90.887,129.988 91.156 C 129.678 91.425,129.223 91.645,128.977 91.645 C 128.731 91.645,128.248 91.851,127.904 92.102 C 127.560 92.353,127.092 92.676,126.864 92.820 C 125.068 93.950,124.080 94.730,122.649 96.147 C 120.495 98.279,118.649 100.504,118.422 101.240 C 118.323 101.563,118.145 101.828,118.026 101.828 C 117.908 101.828,117.617 102.268,117.380 102.807 C 117.143 103.345,116.793 104.080,116.602 104.439 C 115.849 105.852,115.405 106.970,115.153 108.094 C 115.007 108.740,114.716 109.739,114.505 110.313 C 113.859 112.076,113.943 120.213,114.621 121.478 C 114.909 122.014,115.144 122.789,115.144 123.201 C 115.144 123.613,115.371 124.240,115.650 124.594 C 115.928 124.948,116.237 125.560,116.336 125.956 C 116.435 126.351,116.677 126.736,116.874 126.811 C 117.071 126.887,117.233 127.083,117.234 127.247 C 117.236 127.794,120.196 130.874,121.070 131.240 C 121.544 131.438,121.932 131.711,121.932 131.847 C 121.932 131.983,122.431 132.231,123.042 132.398 C 123.652 132.566,124.649 132.879,125.257 133.095 C 126.501 133.537,130.274 133.450,130.860 132.966 C 131.048 132.811,131.638 132.602,132.172 132.502 C 132.706 132.403,133.399 132.098,133.713 131.826 C 134.027 131.554,134.423 131.332,134.593 131.332 C 135.002 131.332,138.120 128.207,138.120 127.797 C 138.120 127.622,138.290 127.338,138.498 127.165 C 138.706 126.992,139.018 126.423,139.191 125.900 C 139.363 125.377,139.652 124.801,139.833 124.621 C 140.013 124.440,140.241 123.791,140.339 123.177 C 140.437 122.564,140.682 121.559,140.885 120.944 C 141.356 119.514,141.358 116.788,140.889 115.349 C 140.688 114.733,140.445 113.773,140.348 113.215 C 140.251 112.657,139.963 111.893,139.708 111.518 C 139.453 111.143,138.962 110.390,138.617 109.846 C 137.648 108.318,134.969 106.362,133.554 106.150 C 132.905 106.053,132.051 105.805,131.657 105.599 C 130.745 105.124,129.814 105.124,128.403 105.599 C 127.788 105.806,126.670 106.056,125.918 106.154 C 125.167 106.252,124.418 106.494,124.255 106.691 C 122.379 108.950,123.766 103.951,125.712 101.436 C 126.529 100.381,127.328 99.244,127.807 98.458 C 128.190 97.828,130.540 95.561,130.810 95.561 C 130.937 95.561,131.194 95.343,131.382 95.077 C 131.570 94.810,132.017 94.500,132.376 94.388 C 132.735 94.276,133.309 93.965,133.651 93.698 C 133.994 93.430,134.548 93.211,134.882 93.211 C 135.216 93.211,136.086 92.977,136.815 92.689 C 137.543 92.402,138.458 92.165,138.848 92.163 C 139.963 92.157,140.254 91.834,140.162 90.704 L 140.078 89.687 137.337 89.618 C 135.308 89.568,134.404 89.651,133.860 89.938 M196.803 90.447 C 196.409 90.944,195.950 91.652,195.782 92.020 C 195.615 92.388,195.376 92.689,195.252 92.689 C 195.128 92.689,194.911 92.954,194.771 93.277 C 194.630 93.600,194.104 94.393,193.602 95.039 C 193.100 95.685,192.611 96.390,192.516 96.606 C 192.421 96.821,192.180 97.174,191.980 97.389 C 191.780 97.604,191.215 98.418,190.724 99.197 C 190.233 99.976,189.736 100.681,189.619 100.764 C 189.502 100.846,189.032 101.501,188.574 102.219 C 188.117 102.937,187.592 103.697,187.409 103.907 C 187.226 104.117,186.958 104.482,186.815 104.718 C 186.671 104.954,186.201 105.651,185.770 106.266 C 185.339 106.882,184.869 107.578,184.726 107.815 C 184.582 108.051,184.315 108.416,184.132 108.626 C 183.948 108.836,183.420 109.595,182.957 110.312 C 182.494 111.029,181.964 111.793,181.779 112.009 C 180.823 113.128,180.209 114.029,180.044 114.556 C 179.943 114.879,179.761 115.144,179.640 115.144 C 179.091 115.144,178.329 117.440,178.329 119.097 C 178.329 122.029,178.014 121.932,187.522 121.932 C 194.561 121.932,195.524 121.981,195.664 122.345 C 195.751 122.572,195.822 124.859,195.822 127.427 C 195.822 132.910,195.660 132.637,198.938 132.637 C 202.136 132.637,202.089 132.726,202.089 126.762 L 202.089 121.932 204.424 121.932 C 207.336 121.932,207.572 121.704,207.572 118.890 C 207.572 116.339,207.395 116.188,204.420 116.188 L 202.089 116.188 202.058 103.721 C 202.020 88.375,202.251 89.706,199.606 89.615 L 197.520 89.542 196.803 90.447 M139.635 90.889 C 139.712 91.549,139.659 91.576,137.938 91.751 C 136.961 91.851,135.925 92.088,135.636 92.277 C 135.347 92.466,134.700 92.710,134.200 92.820 C 133.699 92.929,133.010 93.238,132.667 93.507 C 132.325 93.775,131.906 93.995,131.736 93.995 C 131.397 93.995,127.824 97.405,127.080 98.439 C 126.452 99.311,125.120 101.113,124.865 101.436 C 124.345 102.094,123.238 104.176,123.238 104.495 C 123.238 104.691,123.003 105.311,122.715 105.875 C 121.791 107.687,123.243 108.593,124.805 107.179 C 126.706 105.459,134.167 106.333,136.507 108.550 C 136.697 108.730,136.941 108.877,137.050 108.877 C 137.237 108.877,138.611 110.896,139.004 111.749 C 139.104 111.965,139.355 112.435,139.563 112.794 C 139.770 113.153,139.944 113.858,139.948 114.360 C 139.952 114.863,140.105 115.920,140.287 116.710 C 140.547 117.838,140.552 118.426,140.308 119.452 C 140.137 120.170,139.985 121.286,139.969 121.932 C 139.953 122.578,139.795 123.371,139.618 123.693 C 139.440 124.015,138.890 125.053,138.396 126.000 C 137.419 127.871,135.234 130.275,133.879 130.969 C 133.412 131.208,132.958 131.513,132.873 131.645 C 132.452 132.295,127.765 132.692,125.370 132.281 C 119.269 131.233,114.617 124.245,114.623 116.140 C 114.625 113.883,115.646 107.836,116.124 107.253 C 116.275 107.069,116.539 106.390,116.712 105.744 C 116.884 105.098,117.108 104.510,117.209 104.439 C 117.311 104.367,117.821 103.544,118.342 102.611 C 121.704 96.598,127.738 91.988,133.943 90.694 C 137.717 89.906,139.528 89.969,139.635 90.889 M201.360 90.144 C 201.390 90.180,201.478 96.142,201.556 103.394 L 201.697 116.580 203.786 116.645 C 207.155 116.751,207.050 116.682,207.050 118.789 C 207.050 120.970,207.059 120.963,204.117 121.103 C 202.858 121.163,201.804 121.228,201.776 121.246 C 201.748 121.264,201.660 123.688,201.580 126.632 L 201.436 131.984 198.956 131.984 L 196.475 131.984 196.345 126.893 C 196.273 124.093,196.119 121.655,196.003 121.475 C 195.842 121.226,193.938 121.149,187.957 121.149 C 183.056 121.149,179.933 121.048,179.617 120.879 C 178.700 120.388,179.013 116.479,180.044 115.535 C 180.201 115.392,180.758 114.628,181.281 113.838 C 181.804 113.048,182.819 111.580,183.536 110.574 C 186.118 106.955,188.353 103.753,189.939 101.403 C 190.508 100.560,191.049 99.811,191.140 99.739 C 191.231 99.667,191.611 99.138,191.983 98.564 C 192.355 97.990,193.081 96.932,193.594 96.214 C 194.108 95.496,195.041 94.145,195.668 93.211 C 197.624 90.298,197.908 90.078,199.726 90.078 C 200.595 90.078,201.330 90.108,201.360 90.144 M159.236 94.948 C 158.959 95.281,158.848 96.993,158.747 102.455 L 158.616 109.530 151.578 109.608 C 143.399 109.699,143.052 109.840,144.117 112.642 L 144.370 113.308 151.493 113.377 L 158.616 113.446 158.747 120.571 C 158.892 128.496,158.812 128.187,160.720 128.194 C 162.705 128.202,162.651 128.411,162.726 120.496 L 162.794 113.446 169.843 113.379 C 177.772 113.303,177.546 113.364,177.546 111.340 C 177.546 109.682,177.595 109.693,169.831 109.607 L 162.794 109.530 162.729 102.480 C 162.666 95.663,162.646 95.416,162.113 94.974 C 161.404 94.387,159.714 94.372,159.236 94.948 M161.810 95.513 C 162.050 95.665,162.150 97.524,162.202 102.754 L 162.272 109.791 169.358 109.861 C 177.321 109.939,177.204 109.909,176.894 111.740 L 176.717 112.794 169.742 112.794 C 164.666 112.794,162.682 112.879,162.454 113.107 C 162.226 113.335,162.141 115.317,162.141 120.387 L 162.141 127.354 161.554 127.512 C 159.230 128.134,159.269 128.261,159.269 120.115 C 159.269 114.824,159.194 113.318,158.921 113.091 C 158.691 112.901,156.231 112.779,151.676 112.733 L 144.778 112.663 144.778 111.358 L 144.778 110.052 151.958 109.922 L 159.138 109.791 159.279 102.611 C 159.357 98.662,159.445 95.401,159.475 95.366 C 159.608 95.207,161.519 95.328,161.810 95.513 M194.417 99.697 C 193.898 100.405,193.473 101.056,193.473 101.145 C 193.473 101.233,193.285 101.511,193.056 101.762 C 192.697 102.155,190.789 104.818,189.755 106.368 C 189.574 106.639,189.186 107.168,188.892 107.543 C 188.599 107.918,188.161 108.518,187.920 108.877 C 187.679 109.236,186.900 110.352,186.190 111.358 C 182.793 116.161,182.899 115.970,183.430 116.358 C 184.085 116.837,195.556 116.872,196.031 116.397 C 196.263 116.165,196.338 113.964,196.319 107.977 C 196.286 97.763,196.179 97.297,194.417 99.697 M195.761 108.012 L 195.692 116.057 189.883 116.128 C 183.589 116.204,183.125 116.083,184.595 114.752 C 184.883 114.492,185.117 114.161,185.117 114.015 C 185.117 113.870,185.296 113.565,185.515 113.338 C 186.372 112.446,187.467 110.876,187.467 110.539 C 187.467 110.343,187.574 110.183,187.704 110.183 C 187.835 110.183,188.158 109.841,188.422 109.423 C 189.459 107.787,191.015 105.595,191.449 105.159 C 191.700 104.906,191.906 104.600,191.906 104.479 C 191.906 104.357,192.112 104.008,192.363 103.702 C 192.614 103.397,193.114 102.729,193.473 102.219 C 193.832 101.710,194.390 100.972,194.712 100.581 C 195.035 100.190,195.303 99.693,195.308 99.478 C 195.315 99.161,195.365 99.170,195.573 99.527 C 195.731 99.797,195.803 103.076,195.761 108.012 M15.815 104.066 C 14.944 104.937,15.491 106.417,16.779 106.674 C 17.576 106.833,19.843 109.198,19.843 109.871 C 19.843 110.004,20.071 110.402,20.349 110.756 C 20.628 111.109,20.939 111.742,21.042 112.162 C 21.145 112.581,21.446 113.204,21.711 113.547 C 21.976 113.889,22.193 114.373,22.193 114.621 C 22.193 114.870,22.428 115.372,22.715 115.737 C 23.003 116.102,23.238 116.572,23.238 116.781 C 23.238 116.991,23.457 117.442,23.726 117.785 C 23.994 118.127,24.296 118.781,24.395 119.238 C 24.495 119.695,24.745 120.208,24.952 120.379 C 25.158 120.551,25.327 120.823,25.327 120.985 C 25.328 121.147,25.680 121.984,26.110 122.846 C 26.539 123.708,26.891 124.545,26.892 124.707 C 26.893 124.869,27.050 125.132,27.242 125.291 C 27.435 125.451,27.733 126.053,27.906 126.629 C 28.078 127.205,28.327 127.676,28.458 127.676 C 28.590 127.676,28.773 128.083,28.867 128.581 C 28.960 129.078,29.200 129.621,29.401 129.788 C 29.869 130.176,29.873 131.700,29.407 132.087 C 29.210 132.251,28.980 132.808,28.896 133.326 C 28.812 133.845,28.577 134.459,28.373 134.693 C 28.170 134.926,27.862 135.556,27.690 136.093 C 27.518 136.629,27.261 137.140,27.119 137.228 C 26.977 137.316,26.756 137.664,26.628 138.001 C 26.314 138.827,25.093 139.029,22.513 138.681 C 21.384 138.529,20.234 138.451,19.956 138.508 C 19.679 138.565,19.146 138.675,18.772 138.752 C 17.265 139.066,16.044 142.378,17.061 143.394 C 17.253 143.587,17.551 144.006,17.723 144.327 C 17.894 144.647,18.164 144.909,18.322 144.909 C 18.481 144.909,18.762 145.114,18.946 145.366 C 19.432 146.028,23.744 146.024,24.478 145.360 C 24.752 145.112,25.076 144.909,25.198 144.909 C 26.379 144.909,29.663 141.415,30.880 138.865 C 31.315 137.953,31.888 136.762,32.154 136.219 C 32.420 135.676,32.641 135.089,32.645 134.914 C 32.650 134.739,32.942 134.008,33.296 133.290 C 33.649 132.572,33.939 131.793,33.940 131.559 C 33.941 131.326,34.116 130.991,34.327 130.815 C 34.539 130.640,34.788 130.067,34.881 129.543 C 34.974 129.019,35.259 128.238,35.513 127.807 C 35.767 127.376,36.054 126.650,36.150 126.193 C 36.247 125.736,36.485 125.230,36.680 125.068 C 36.875 124.906,37.112 124.318,37.206 123.760 C 37.301 123.202,37.542 122.609,37.742 122.443 C 37.942 122.277,38.183 121.712,38.277 121.188 C 38.371 120.664,38.598 120.059,38.782 119.843 C 38.965 119.628,39.255 118.923,39.426 118.277 C 39.596 117.631,39.891 116.926,40.081 116.710 C 40.270 116.495,40.507 115.882,40.606 115.349 C 40.705 114.815,40.942 114.249,41.133 114.090 C 41.324 113.932,41.560 113.428,41.656 112.972 C 41.753 112.515,42.054 111.775,42.326 111.327 C 42.598 110.879,42.820 110.302,42.820 110.044 C 42.820 109.202,44.437 107.002,45.331 106.628 C 45.797 106.434,46.253 106.153,46.345 106.005 C 46.605 105.584,46.953 105.935,47.661 107.331 L 48.314 108.620 64.416 108.553 L 80.519 108.486 80.986 107.686 C 81.526 106.762,81.295 105.418,80.493 104.809 C 79.613 104.142,48.783 104.286,48.172 104.961 C 47.576 105.620,47.337 105.619,47.127 104.958 C 46.689 103.578,38.096 102.906,36.959 104.162 C 36.268 104.926,36.725 106.050,37.879 106.430 C 39.028 106.807,39.268 108.356,38.397 109.766 C 38.101 110.245,37.858 110.857,37.857 111.127 C 37.856 111.398,37.622 111.971,37.337 112.402 C 37.052 112.833,36.814 113.362,36.808 113.577 C 36.803 113.792,36.509 114.556,36.156 115.274 C 35.803 115.992,35.513 116.724,35.512 116.900 C 35.510 117.076,35.275 117.604,34.988 118.075 C 34.701 118.545,34.466 119.144,34.466 119.405 C 34.465 119.667,34.155 120.409,33.777 121.055 L 33.088 122.229 31.173 118.360 C 30.119 116.232,29.254 114.392,29.250 114.271 C 29.246 114.150,29.008 113.752,28.721 113.387 C 28.433 113.022,28.198 112.520,28.198 112.272 C 28.198 112.023,27.987 111.540,27.729 111.197 C 26.443 109.492,26.430 106.868,27.705 106.613 C 28.483 106.457,29.504 105.436,29.504 104.814 C 29.504 103.749,28.932 103.655,22.454 103.655 C 17.140 103.655,16.165 103.716,15.815 104.066 M28.819 104.647 C 29.028 104.986,28.667 105.312,27.285 106.035 C 25.691 106.867,25.456 107.869,26.384 109.870 C 26.697 110.545,27.395 112.037,27.936 113.185 C 28.476 114.334,29.049 115.568,29.209 115.927 C 29.369 116.286,29.606 116.756,29.735 116.971 C 29.865 117.187,30.130 117.706,30.325 118.126 C 30.519 118.546,30.796 119.124,30.940 119.410 C 31.084 119.697,31.554 120.636,31.984 121.498 C 32.415 122.359,32.886 123.103,33.030 123.151 C 33.346 123.256,34.647 121.170,34.893 120.166 C 34.989 119.773,35.284 119.042,35.549 118.542 C 35.814 118.041,36.032 117.454,36.033 117.236 C 36.034 117.019,36.268 116.488,36.554 116.057 C 36.839 115.627,37.073 115.096,37.074 114.879 C 37.075 114.661,37.311 114.045,37.598 113.509 C 37.885 112.973,38.120 112.383,38.120 112.197 C 38.120 112.012,38.364 111.394,38.662 110.825 C 39.919 108.425,39.752 106.305,38.258 105.701 C 37.402 105.356,37.035 104.976,37.239 104.647 C 37.442 104.319,45.953 104.387,45.953 104.717 C 45.953 105.304,45.420 105.946,44.677 106.254 C 43.803 106.616,42.687 108.094,42.401 109.269 C 42.295 109.700,41.995 110.405,41.732 110.836 C 41.470 111.266,41.255 111.831,41.254 112.089 C 41.254 112.348,41.034 112.994,40.765 113.525 C 39.756 115.523,39.181 116.865,39.010 117.624 C 38.913 118.055,38.691 118.584,38.516 118.799 C 38.342 119.014,38.019 119.719,37.798 120.366 C 37.034 122.599,36.302 124.377,36.037 124.642 C 35.890 124.789,35.770 125.149,35.769 125.444 C 35.769 125.738,35.541 126.352,35.262 126.809 C 34.984 127.265,34.679 128.054,34.583 128.562 C 34.488 129.070,34.254 129.615,34.063 129.774 C 33.871 129.932,33.636 130.436,33.540 130.893 C 33.443 131.350,33.142 132.090,32.870 132.537 C 32.598 132.985,32.376 133.516,32.376 133.716 C 32.376 133.917,32.159 134.490,31.894 134.991 C 31.629 135.491,31.328 136.244,31.225 136.663 C 31.122 137.083,30.810 137.716,30.532 138.069 C 30.254 138.423,30.026 138.869,30.026 139.059 C 30.026 139.359,28.087 141.939,27.298 142.689 C 23.862 145.957,18.945 146.113,17.720 142.994 C 16.514 139.925,19.545 138.160,23.548 139.599 C 25.245 140.210,28.198 138.327,28.198 136.635 C 28.198 136.432,28.418 135.831,28.686 135.300 C 30.492 131.727,30.740 130.292,29.765 129.053 C 29.478 128.688,29.243 128.235,29.243 128.046 C 29.243 127.858,28.967 127.185,28.630 126.551 C 28.293 125.917,27.944 125.177,27.854 124.906 C 27.765 124.634,27.578 124.236,27.439 124.021 C 27.300 123.805,26.636 122.454,25.963 121.018 C 23.121 114.950,22.393 113.425,22.162 113.055 C 22.027 112.839,21.843 112.440,21.753 112.166 C 20.970 109.793,18.802 106.876,17.339 106.229 C 16.343 105.788,15.927 105.332,15.927 104.678 C 15.927 104.383,28.636 104.352,28.819 104.647 M80.352 105.615 C 80.749 105.752,80.778 106.638,80.409 107.328 C 80.045 108.007,49.138 108.133,48.577 107.457 C 47.710 106.412,48.332 105.621,50.131 105.483 C 52.133 105.329,79.876 105.450,80.352 105.615 M125.326 109.317 C 124.680 109.523,123.975 109.801,123.760 109.934 C 123.544 110.068,122.931 110.414,122.398 110.703 C 120.892 111.519,120.798 111.884,120.785 116.971 C 120.772 122.382,121.660 125.695,123.742 127.999 C 125.890 130.375,127.306 130.964,129.501 130.395 C 131.141 129.970,133.420 128.119,133.420 127.213 C 133.420 127.076,133.685 126.627,134.008 126.217 C 134.787 125.227,134.917 117.048,134.173 115.912 C 133.940 115.557,133.662 114.857,133.554 114.356 C 133.106 112.284,131.098 109.880,129.526 109.535 C 129.086 109.438,128.660 109.251,128.578 109.118 C 128.366 108.776,126.707 108.878,125.326 109.317 M130.656 110.973 C 131.283 111.551,131.941 112.373,132.118 112.800 C 132.295 113.227,132.532 113.577,132.646 113.577 C 132.759 113.577,132.936 114.071,133.038 114.675 C 133.140 115.278,133.453 116.213,133.733 116.751 C 134.418 118.064,134.352 124.696,133.647 125.496 C 133.413 125.762,133.135 126.260,133.031 126.602 C 132.675 127.765,130.565 129.596,129.392 129.760 C 127.900 129.969,126.087 129.660,125.801 129.148 C 125.669 128.913,125.391 128.721,125.183 128.721 C 124.975 128.721,124.804 128.609,124.804 128.473 C 124.804 128.337,124.510 127.908,124.151 127.521 C 123.792 127.134,123.499 126.673,123.499 126.498 C 123.499 126.323,123.279 125.900,123.010 125.557 C 122.741 125.215,122.436 124.406,122.332 123.760 C 122.228 123.114,121.950 122.291,121.714 121.932 C 121.360 121.395,121.284 120.539,121.284 117.102 C 121.284 112.454,121.465 111.847,123.080 111.077 C 123.526 110.865,124.184 110.520,124.543 110.310 C 124.970 110.061,125.942 109.928,127.356 109.926 L 129.516 109.922 130.656 110.973 M318.362 113.524 C 318.139 113.662,318.155 113.840,318.422 114.206 C 318.758 114.665,318.797 114.668,318.957 114.252 C 319.162 113.717,318.789 113.261,318.362 113.524 M49.540 114.309 C 47.611 114.433,46.582 116.662,47.955 117.743 C 48.962 118.534,80.055 118.588,80.769 117.799 C 81.281 117.233,81.345 115.432,80.875 114.816 C 80.570 114.417,54.454 113.994,49.540 114.309 M80.425 115.679 C 80.583 115.974,80.675 116.473,80.630 116.789 L 80.548 117.363 64.494 117.363 C 46.728 117.363,47.986 117.487,48.415 115.776 L 48.574 115.144 64.356 115.144 C 80.003 115.144,80.141 115.148,80.425 115.679 " stroke="none" fill="#999999" fill-rule="evenodd"></path><path id="path4" d="M250.653 76.762 C 250.294 76.877,249.648 76.985,249.217 77.001 C 248.786 77.018,248.140 77.199,247.781 77.403 C 247.422 77.608,246.775 77.947,246.345 78.156 C 242.771 79.891,240.115 87.467,243.081 87.467 C 243.930 87.467,244.261 87.119,244.508 85.966 C 244.607 85.499,244.801 85.117,244.938 85.117 C 245.075 85.117,245.416 84.730,245.695 84.257 C 247.319 81.505,251.458 81.111,253.957 83.472 L 255.222 84.668 255.214 87.746 C 255.207 90.328,255.130 90.908,254.739 91.340 C 254.483 91.624,253.910 92.601,253.467 93.513 C 253.024 94.424,252.209 95.610,251.657 96.149 C 251.105 96.687,250.653 97.297,250.653 97.505 C 250.653 97.712,250.307 98.086,249.885 98.335 C 249.463 98.584,248.913 99.170,248.662 99.636 C 248.411 100.102,247.930 100.608,247.594 100.761 C 247.258 100.915,246.742 101.447,246.449 101.944 C 246.155 102.442,245.712 102.913,245.464 102.992 C 245.215 103.071,244.724 103.602,244.373 104.172 C 244.021 104.742,243.597 105.211,243.431 105.215 C 242.348 105.240,241.306 108.043,242.089 108.825 C 242.480 109.217,259.140 109.274,260.157 108.887 C 260.889 108.609,262.402 105.921,262.402 104.899 C 262.402 104.570,262.637 103.862,262.925 103.325 L 263.447 102.351 262.925 101.828 C 262.300 101.204,261.505 101.153,261.042 101.709 C 260.221 102.694,259.354 103.453,258.795 103.676 C 258.215 103.907,249.347 104.031,249.347 103.808 C 249.347 103.749,249.729 103.289,250.196 102.787 C 254.214 98.465,255.445 97.101,256.250 96.084 C 256.761 95.437,257.355 94.723,257.571 94.495 C 257.787 94.268,257.963 93.962,257.963 93.817 C 257.963 93.672,258.204 93.275,258.497 92.937 C 259.436 91.854,260.004 90.760,260.182 89.687 C 260.277 89.112,260.522 88.199,260.726 87.658 C 261.199 86.402,261.200 84.619,260.727 83.360 C 260.524 82.819,260.280 82.024,260.184 81.595 C 260.089 81.165,259.840 80.636,259.632 80.420 C 259.424 80.203,258.926 79.668,258.526 79.230 C 257.282 77.869,252.654 76.118,251.386 76.527 C 251.342 76.542,251.012 76.647,250.653 76.762 M377.667 76.906 C 375.905 77.225,373.433 78.340,372.581 79.200 C 371.871 79.916,370.507 82.021,370.501 82.409 C 370.498 82.571,370.328 82.843,370.123 83.013 C 369.603 83.445,369.289 86.565,369.714 87.077 C 370.458 87.974,371.795 87.481,372.198 86.162 C 373.455 82.044,378.583 80.591,381.646 83.484 L 382.892 84.661 382.971 87.435 C 383.031 89.512,382.955 90.373,382.669 90.862 C 382.459 91.221,381.902 92.278,381.432 93.211 C 380.591 94.881,379.331 96.503,377.276 98.564 C 376.703 99.138,376.235 99.752,376.237 99.928 C 376.239 100.104,375.883 100.433,375.445 100.659 C 375.008 100.885,374.450 101.396,374.205 101.795 C 373.960 102.193,373.319 102.905,372.781 103.376 C 372.242 103.846,371.802 104.399,371.802 104.604 C 371.802 104.809,371.596 105.052,371.345 105.144 C 369.869 105.683,368.887 108.080,369.853 108.786 C 370.367 109.162,385.959 109.323,387.722 108.970 C 388.647 108.785,389.821 106.710,390.197 104.596 C 390.296 104.037,390.553 103.310,390.769 102.982 C 391.920 101.224,389.727 100.726,388.122 102.381 C 387.548 102.972,386.806 103.559,386.473 103.686 C 385.615 104.012,377.023 103.984,377.023 103.655 C 377.023 103.512,377.203 103.394,377.423 103.394 C 377.643 103.394,377.902 103.189,377.998 102.937 C 378.225 102.342,378.316 102.235,381.009 99.404 C 384.160 96.090,384.311 95.913,385.588 94.015 C 386.209 93.092,386.939 92.056,387.210 91.712 C 387.480 91.368,387.782 90.536,387.880 89.864 C 387.978 89.192,388.229 88.207,388.439 87.675 C 388.861 86.604,388.791 84.196,388.301 82.898 C 388.138 82.467,387.946 81.821,387.874 81.462 C 387.735 80.768,385.337 78.068,384.858 78.068 C 384.702 78.068,384.256 77.839,383.867 77.559 C 382.903 76.867,379.730 76.533,377.667 76.906 M255.222 78.212 C 255.509 78.392,256.121 78.617,256.581 78.713 C 257.077 78.817,257.483 79.093,257.578 79.392 C 257.666 79.669,257.906 79.896,258.112 79.896 C 258.317 79.896,258.486 80.065,258.486 80.272 C 258.486 80.480,258.718 80.812,259.003 81.011 C 260.067 81.757,260.215 89.150,259.188 90.285 C 258.945 90.553,258.747 90.892,258.747 91.038 C 258.747 91.183,258.522 91.506,258.248 91.754 C 257.974 92.002,257.672 92.514,257.577 92.890 C 257.483 93.267,257.024 93.935,256.558 94.375 C 256.092 94.814,255.600 95.364,255.466 95.595 C 255.332 95.827,253.953 97.369,252.401 99.021 C 248.248 103.444,248.042 103.790,248.898 104.896 C 249.234 105.331,256.589 105.322,258.233 104.884 C 258.995 104.681,259.827 104.174,260.570 103.460 C 261.205 102.849,261.788 102.350,261.867 102.350 C 262.253 102.349,261.793 104.959,261.334 105.374 C 261.060 105.622,260.836 106.079,260.836 106.388 C 260.836 106.698,260.506 107.268,260.103 107.654 L 259.371 108.355 250.965 108.355 C 240.700 108.355,240.964 108.727,246.932 102.671 C 248.117 101.468,249.086 100.434,249.086 100.371 C 249.086 100.254,250.738 98.462,252.316 96.866 C 252.814 96.362,253.303 95.625,253.403 95.228 C 253.503 94.830,253.789 94.361,254.039 94.185 C 256.029 92.783,256.638 84.698,254.872 83.122 C 254.490 82.780,253.931 82.269,253.630 81.984 C 250.924 79.428,244.678 81.516,243.985 85.209 C 243.877 85.786,243.605 86.196,243.214 86.374 C 242.319 86.782,242.238 86.034,242.980 84.210 C 243.318 83.381,243.534 82.605,243.461 82.487 C 243.387 82.369,243.566 82.144,243.857 81.988 C 244.148 81.832,244.386 81.539,244.386 81.337 C 244.386 81.134,244.922 80.467,245.577 79.853 C 246.702 78.799,247.442 78.468,250.131 77.818 C 251.301 77.535,254.542 77.785,255.222 78.212 M383.325 78.333 C 384.600 78.754,385.135 79.074,385.350 79.546 C 385.511 79.898,385.759 80.114,385.902 80.025 C 386.045 79.937,386.162 80.034,386.162 80.240 C 386.162 80.446,386.402 80.776,386.696 80.973 C 387.847 81.745,388.016 88.788,386.917 90.185 C 386.645 90.531,386.423 90.924,386.423 91.058 C 386.423 91.193,386.188 91.516,385.901 91.775 C 385.614 92.035,385.379 92.466,385.379 92.732 C 385.379 92.998,385.055 93.566,384.661 93.993 C 384.266 94.420,383.355 95.434,382.637 96.245 C 381.919 97.057,380.722 98.381,379.976 99.187 C 376.505 102.940,376.240 103.276,376.240 103.929 C 376.240 105.121,376.593 105.222,380.746 105.222 C 385.138 105.222,386.763 104.927,387.786 103.945 C 389.372 102.424,390.478 101.761,389.905 102.676 C 389.792 102.856,389.668 103.461,389.630 104.021 C 389.583 104.688,389.378 105.167,389.035 105.407 C 388.747 105.609,388.512 106.044,388.512 106.374 C 388.512 106.703,388.224 107.284,387.871 107.664 L 387.231 108.355 378.733 108.355 C 371.915 108.355,370.235 108.288,370.235 108.014 C 370.235 107.548,371.128 106.381,372.889 104.545 C 376.727 100.545,377.807 99.368,377.807 99.187 C 377.807 99.079,378.042 98.916,378.329 98.825 C 378.616 98.734,378.851 98.512,378.851 98.332 C 378.851 98.152,379.380 97.453,380.026 96.778 C 380.672 96.104,381.201 95.323,381.201 95.044 C 381.201 94.764,381.431 94.412,381.713 94.262 C 384.071 93.000,384.334 83.432,382.034 82.575 C 381.791 82.484,381.447 82.209,381.269 81.962 C 380.052 80.273,375.110 80.454,374.163 82.223 C 374.003 82.523,373.720 82.768,373.535 82.768 C 372.983 82.768,372.134 83.868,371.793 85.025 C 371.384 86.413,370.235 87.106,370.235 85.966 C 370.235 85.174,371.231 82.563,371.736 82.031 C 371.915 81.841,372.063 81.545,372.063 81.372 C 372.063 80.699,374.408 78.858,375.905 78.356 C 378.718 77.413,380.521 77.407,383.325 78.333 M136.880 89.485 C 137.418 89.542,138.300 89.542,138.838 89.485 C 139.377 89.429,138.936 89.383,137.859 89.383 C 136.782 89.383,136.341 89.429,136.880 89.485 M198.623 89.483 C 199.087 89.541,199.909 89.542,200.451 89.486 C 200.993 89.429,200.614 89.382,199.608 89.381 C 198.603 89.380,198.160 89.426,198.623 89.483 M159.248 94.713 C 158.954 95.102,158.957 95.121,159.268 94.843 C 159.779 94.388,161.376 94.436,162.148 94.930 L 162.794 95.342 162.177 94.799 C 161.396 94.110,159.741 94.061,159.248 94.713 M297.447 96.490 C 296.871 96.893,296.867 96.950,296.867 104.175 C 296.867 108.273,296.756 111.747,296.612 112.124 L 296.358 112.794 288.699 112.794 C 279.699 112.794,280.070 112.691,280.055 115.174 C 280.032 118.842,279.914 118.796,289.308 118.797 C 294.350 118.799,296.326 118.884,296.554 119.112 C 296.782 119.341,296.867 121.417,296.867 126.818 L 296.867 134.211 297.715 134.744 C 298.686 135.352,301.810 135.370,302.410 134.770 C 302.660 134.521,302.760 132.506,302.818 126.633 L 302.894 118.827 310.739 118.748 L 318.585 118.668 319.083 118.052 C 319.743 117.236,319.806 113.838,319.172 113.204 C 318.817 112.849,317.691 112.794,310.817 112.794 L 302.872 112.794 302.872 104.944 C 302.872 100.032,302.771 96.905,302.602 96.589 C 302.242 95.916,298.372 95.842,297.447 96.490 M302.089 104.725 C 302.192 111.026,302.296 112.807,302.583 113.153 C 302.910 113.546,303.764 113.589,310.938 113.573 L 318.930 113.556 318.876 114.154 C 318.847 114.483,318.788 115.301,318.746 115.973 C 318.646 117.545,318.944 117.493,310.006 117.493 L 302.845 117.493 302.467 118.399 C 302.167 119.118,302.089 120.836,302.089 126.728 L 302.089 134.152 300.547 134.331 C 297.729 134.658,297.879 135.120,297.966 126.364 L 298.042 118.815 297.447 118.219 C 296.860 117.631,296.765 117.623,289.269 117.544 L 281.684 117.464 281.305 116.555 C 280.997 115.819,280.983 115.452,281.232 114.623 L 281.538 113.599 289.324 113.523 C 296.310 113.454,297.157 113.400,297.564 112.993 C 297.976 112.580,298.011 111.878,297.950 105.279 C 297.868 96.323,297.807 96.555,300.194 96.659 L 301.958 96.736 302.089 104.725 M216.319 103.294 C 215.744 103.513,214.855 103.811,214.343 103.955 C 213.340 104.237,211.749 105.558,211.749 106.109 C 211.749 107.212,212.975 107.528,215.253 107.012 C 216.516 106.726,216.819 106.724,216.912 107.001 C 216.974 107.187,217.232 107.539,217.485 107.782 C 217.739 108.026,218.031 108.695,218.135 109.269 C 218.239 109.843,218.548 110.806,218.823 111.409 C 219.097 112.011,219.321 112.870,219.321 113.317 C 219.321 113.764,219.449 114.952,219.605 115.957 C 219.943 118.135,219.587 119.322,218.140 120.849 C 217.643 121.373,217.236 122.004,217.235 122.252 C 217.233 122.500,216.956 122.884,216.619 123.105 C 216.281 123.327,215.682 124.101,215.287 124.827 C 214.892 125.552,214.409 126.208,214.213 126.283 C 214.018 126.358,213.791 126.631,213.709 126.890 C 213.494 127.567,212.105 127.740,210.417 127.301 C 209.139 126.968,208.831 126.970,207.815 127.320 C 206.124 127.903,206.005 128.071,206.009 129.862 C 206.014 131.761,206.123 131.973,207.367 132.492 C 207.891 132.711,208.393 133.010,208.483 133.155 C 208.734 133.561,211.372 133.483,211.723 133.060 C 211.888 132.862,212.383 132.628,212.824 132.540 C 213.275 132.449,214.019 131.951,214.525 131.398 C 215.020 130.859,215.654 130.171,215.935 129.870 C 216.462 129.304,217.755 127.471,217.755 127.289 C 217.755 127.233,218.116 126.797,218.557 126.322 C 218.998 125.846,219.576 125.046,219.841 124.543 C 220.646 123.015,221.355 122.771,221.538 123.960 C 221.621 124.496,221.921 125.698,222.206 126.632 C 222.490 127.565,222.721 128.577,222.719 128.881 C 222.717 129.185,222.932 129.714,223.198 130.056 C 223.463 130.399,223.758 130.996,223.852 131.384 C 224.050 132.196,226.186 133.420,227.404 133.420 C 229.031 133.420,233.420 130.455,233.420 129.356 C 233.420 129.254,233.890 128.661,234.465 128.038 C 236.024 126.346,235.925 124.021,234.292 124.021 C 233.968 124.021,233.551 124.208,233.365 124.436 C 233.180 124.664,232.647 125.255,232.180 125.750 C 231.713 126.245,231.332 126.759,231.332 126.892 C 231.332 127.309,230.328 127.696,229.675 127.533 C 229.144 127.399,228.992 127.098,228.648 125.503 C 227.864 121.866,227.502 120.489,227.165 119.862 C 226.326 118.300,226.315 114.522,227.146 113.505 C 228.382 111.992,228.710 111.491,228.863 110.883 C 228.959 110.498,229.147 110.183,229.280 110.183 C 229.597 110.183,231.070 108.671,231.070 108.346 C 231.070 107.941,232.803 108.056,233.159 108.486 C 234.599 110.221,238.009 108.074,237.800 105.564 C 237.553 102.584,233.066 101.599,230.797 104.026 C 230.445 104.403,229.781 104.950,229.322 105.241 C 228.862 105.532,228.408 106.017,228.313 106.318 C 228.217 106.620,227.711 107.289,227.189 107.807 C 226.667 108.324,226.104 108.982,225.938 109.269 L 225.637 109.791 225.099 109.269 C 224.731 108.912,224.505 108.251,224.385 107.180 C 224.180 105.355,223.197 103.465,222.270 103.113 C 221.268 102.732,217.489 102.847,216.319 103.294 M343.106 103.648 C 340.481 104.546,339.195 105.608,339.666 106.488 C 340.179 107.448,340.905 107.663,342.062 107.200 C 344.306 106.303,345.348 106.954,345.918 109.612 C 346.080 110.365,346.376 111.242,346.576 111.561 C 346.776 111.880,347.018 113.022,347.114 114.099 C 347.210 115.176,347.417 116.424,347.574 116.872 C 347.920 117.856,347.217 119.547,345.960 120.751 C 345.532 121.161,345.056 121.878,344.902 122.344 C 344.748 122.810,344.460 123.254,344.261 123.330 C 344.062 123.406,343.488 124.092,342.985 124.855 C 341.213 127.538,341.220 127.533,339.453 127.484 C 338.583 127.460,337.636 127.314,337.348 127.160 C 335.835 126.350,333.679 127.912,333.685 129.813 C 333.691 131.673,333.871 131.969,335.462 132.722 C 338.715 134.262,341.818 132.779,344.909 128.207 C 345.994 126.602,346.804 125.587,347.000 125.587 C 347.120 125.587,347.348 125.206,347.507 124.739 C 347.965 123.395,349.029 122.740,349.214 123.687 C 349.354 124.405,349.497 125.011,350.121 127.546 C 350.297 128.264,350.657 129.321,350.919 129.896 C 351.182 130.470,351.471 131.202,351.562 131.522 C 351.928 132.800,355.365 133.869,356.535 133.068 C 356.818 132.874,357.348 132.643,357.713 132.554 C 358.393 132.389,361.097 129.867,361.097 129.396 C 361.097 129.252,361.522 128.699,362.041 128.167 C 363.664 126.505,363.688 124.021,362.083 124.021 C 361.600 124.021,359.269 126.206,359.269 126.659 C 359.269 127.110,358.014 127.699,357.387 127.541 C 356.838 127.404,356.700 127.118,356.339 125.376 C 355.550 121.573,355.361 120.854,354.901 119.893 C 354.332 118.706,354.237 114.192,354.768 113.571 C 355.709 112.471,356.658 111.124,356.658 110.890 C 356.658 110.744,357.128 110.222,357.702 109.731 C 358.277 109.239,358.747 108.670,358.747 108.465 C 358.747 107.968,360.281 107.987,360.951 108.494 C 362.047 109.323,364.403 108.763,365.335 107.450 C 365.877 106.688,365.539 104.403,364.772 103.635 C 363.737 102.600,360.634 102.500,359.333 103.460 C 358.895 103.783,358.059 104.399,357.475 104.830 C 356.891 105.261,356.342 105.823,356.255 106.078 C 356.167 106.334,355.576 107.055,354.941 107.681 C 354.306 108.307,353.786 109.009,353.786 109.240 C 353.786 110.956,352.296 108.965,352.056 106.931 C 351.580 102.875,348.581 101.775,343.106 103.648 M222.101 104.280 C 223.558 106.011,223.705 106.322,223.883 108.047 C 224.219 111.293,225.352 111.879,226.893 109.603 C 227.396 108.860,228.042 107.996,228.329 107.683 C 228.616 107.370,229.068 106.798,229.332 106.413 C 229.596 106.028,230.096 105.605,230.442 105.474 C 230.788 105.342,231.070 105.128,231.070 104.998 C 231.070 103.722,235.167 103.118,236.349 104.220 C 238.429 106.159,236.761 108.257,233.666 107.593 C 231.460 107.120,231.210 107.193,229.646 108.770 C 228.850 109.572,228.198 110.394,228.198 110.595 C 228.198 110.797,227.859 111.265,227.444 111.635 C 226.278 112.673,225.465 115.164,225.825 116.592 C 225.981 117.215,226.110 118.118,226.110 118.599 C 226.110 119.079,226.299 120.173,226.531 121.029 C 226.763 121.885,227.057 123.105,227.185 123.742 C 227.313 124.378,227.575 125.142,227.768 125.439 C 227.962 125.736,228.202 126.425,228.303 126.969 C 228.543 128.258,229.955 129.090,230.677 128.368 C 230.914 128.131,231.210 127.937,231.334 127.937 C 231.683 127.937,233.059 126.560,233.252 126.020 C 233.346 125.755,233.657 125.477,233.944 125.402 C 234.230 125.327,234.465 125.162,234.465 125.035 C 234.465 124.908,234.557 124.804,234.669 124.804 C 235.180 124.804,234.732 126.258,233.956 127.117 C 233.484 127.640,232.982 128.393,232.840 128.791 C 232.698 129.189,232.360 129.634,232.087 129.780 C 231.815 129.925,231.593 130.217,231.593 130.427 C 231.593 130.637,231.450 130.780,231.276 130.744 C 231.102 130.708,230.842 130.935,230.699 131.249 C 230.331 132.058,227.741 132.502,225.888 132.075 L 224.562 131.769 224.262 130.310 C 224.097 129.508,223.855 128.647,223.723 128.398 C 223.592 128.149,223.377 127.444,223.245 126.831 C 222.893 125.190,221.946 122.639,221.531 122.212 C 221.170 121.841,219.332 123.215,219.324 123.861 C 219.322 123.989,218.851 124.603,218.277 125.226 C 217.702 125.849,217.232 126.537,217.232 126.754 C 217.232 126.972,216.994 127.297,216.702 127.478 C 216.411 127.659,215.852 128.275,215.462 128.848 C 212.934 132.555,208.287 133.697,206.969 130.934 C 205.845 128.578,207.763 127.358,211.298 128.178 C 212.510 128.460,214.126 128.020,214.298 127.362 C 214.365 127.107,214.518 126.960,214.638 127.034 C 214.758 127.108,214.998 126.901,215.171 126.574 C 215.344 126.247,215.871 125.526,216.342 124.973 C 216.813 124.419,217.378 123.588,217.597 123.127 C 217.816 122.665,218.411 121.847,218.919 121.308 C 219.428 120.769,219.843 120.120,219.843 119.865 C 219.843 119.610,220.078 119.189,220.366 118.930 C 221.036 118.323,221.050 116.886,220.403 115.219 C 220.136 114.531,219.843 113.146,219.752 112.141 C 219.360 107.810,217.980 105.934,215.274 106.055 C 213.482 106.134,212.647 105.776,213.888 105.460 C 214.220 105.375,214.466 105.182,214.435 105.031 C 214.404 104.880,214.933 104.676,215.610 104.577 C 216.287 104.479,217.081 104.244,217.374 104.056 C 218.939 103.053,221.157 103.158,222.101 104.280 M349.774 104.060 C 350.114 104.427,350.392 104.820,350.392 104.934 C 350.392 105.048,350.616 105.344,350.889 105.591 C 351.239 105.908,351.439 106.566,351.565 107.814 C 351.868 110.837,353.041 112.046,354.046 110.373 C 354.705 109.275,355.344 108.454,356.070 107.770 C 356.394 107.465,356.663 107.091,356.670 106.937 C 356.677 106.784,356.984 106.423,357.354 106.136 C 357.723 105.849,358.266 105.388,358.561 105.113 C 360.531 103.268,362.685 102.952,364.077 104.303 C 366.169 106.335,364.624 108.191,361.357 107.572 C 360.600 107.428,359.733 107.312,359.429 107.313 C 358.737 107.317,356.201 109.701,355.989 110.547 C 355.902 110.894,355.550 111.441,355.208 111.763 C 354.865 112.084,354.649 112.451,354.727 112.577 C 354.805 112.703,354.729 112.774,354.559 112.735 C 353.962 112.597,353.220 115.399,353.507 116.710 C 353.648 117.356,353.877 118.649,354.016 119.582 C 354.369 121.949,355.180 124.997,355.558 125.375 C 355.732 125.549,355.875 125.886,355.875 126.123 C 355.875 127.848,357.476 129.242,358.448 128.363 C 358.707 128.129,359.027 127.937,359.160 127.937 C 359.472 127.937,360.692 126.629,360.899 126.073 C 360.987 125.838,361.396 125.476,361.809 125.270 C 363.045 124.654,362.984 126.035,361.726 127.139 C 361.209 127.593,360.678 128.357,360.545 128.836 C 360.401 129.357,360.097 129.761,359.787 129.842 C 359.502 129.916,359.269 130.171,359.269 130.409 C 359.269 130.646,359.152 130.768,359.009 130.680 C 358.866 130.591,358.615 130.813,358.451 131.173 C 358.279 131.550,357.863 131.885,357.470 131.963 C 353.952 132.656,352.473 132.236,352.035 130.418 C 351.862 129.700,351.596 128.904,351.442 128.650 C 351.289 128.395,351.093 127.631,351.007 126.953 C 350.922 126.274,350.694 125.465,350.501 125.155 C 350.308 124.845,350.016 124.060,349.853 123.410 C 349.689 122.760,349.386 122.164,349.178 122.084 C 348.793 121.936,346.997 123.516,346.997 124.002 C 346.997 124.145,346.527 124.727,345.953 125.296 C 345.379 125.865,344.909 126.496,344.909 126.699 C 344.909 127.054,343.851 128.293,341.371 130.839 C 338.358 133.935,332.112 131.606,335.029 128.474 C 335.620 127.840,339.119 127.787,339.734 128.403 C 340.075 128.743,341.967 127.752,342.507 126.950 C 342.751 126.588,343.249 125.987,343.614 125.614 C 343.980 125.240,344.559 124.465,344.902 123.890 C 345.244 123.316,345.974 122.273,346.522 121.572 C 347.071 120.871,347.520 120.142,347.520 119.953 C 347.520 119.764,347.824 119.281,348.196 118.880 C 348.949 118.067,348.932 116.873,348.144 115.351 C 347.922 114.921,347.647 113.670,347.533 112.572 C 347.248 109.827,346.572 107.882,345.518 106.771 L 344.634 105.839 342.909 106.047 C 341.960 106.161,341.080 106.190,340.953 106.112 C 340.587 105.885,340.971 105.483,341.554 105.483 C 341.846 105.483,342.383 105.248,342.749 104.961 C 343.114 104.674,343.664 104.439,343.972 104.439 C 344.280 104.439,344.763 104.277,345.046 104.078 C 346.361 103.159,348.930 103.149,349.774 104.060 M46.178 106.204 C 45.859 106.611,45.868 106.622,46.264 106.312 C 46.654 106.007,46.770 106.091,47.249 107.030 C 47.547 107.615,47.850 108.094,47.922 108.094 C 48.111 108.094,47.049 106.068,46.770 105.895 C 46.640 105.815,46.374 105.954,46.178 106.204 M80.524 108.353 C 80.360 108.517,74.433 108.638,64.349 108.681 L 48.433 108.751 64.394 108.814 C 78.314 108.869,80.395 108.827,80.679 108.486 C 81.042 108.048,80.927 107.950,80.524 108.353 M147.715 109.595 C 149.475 109.640,152.353 109.640,154.112 109.595 C 155.871 109.549,154.432 109.512,150.914 109.512 C 147.396 109.512,145.956 109.549,147.715 109.595 M163.384 109.584 C 163.709 109.647,164.179 109.644,164.429 109.579 C 164.678 109.514,164.413 109.462,163.838 109.465 C 163.264 109.468,163.059 109.522,163.384 109.584 M168.197 109.594 C 169.733 109.640,172.318 109.640,173.941 109.595 C 175.565 109.549,174.308 109.511,171.149 109.511 C 167.990 109.511,166.661 109.548,168.197 109.594 M143.916 109.974 C 143.554 110.337,143.504 111.972,143.840 112.503 C 143.981 112.725,144.017 112.398,143.933 111.656 C 143.846 110.886,143.915 110.305,144.124 110.054 C 144.513 109.586,144.363 109.527,143.916 109.974 M130.679 111.227 C 131.240 111.802,131.757 112.272,131.829 112.272 C 131.901 112.272,131.501 111.802,130.940 111.227 C 130.379 110.653,129.861 110.183,129.790 110.183 C 129.718 110.183,130.118 110.653,130.679 111.227 M148.238 113.511 C 150.140 113.556,153.254 113.556,155.157 113.511 C 157.059 113.466,155.503 113.430,151.697 113.430 C 147.892 113.430,146.335 113.466,148.238 113.511 M162.834 113.512 C 162.767 113.619,164.787 113.677,167.322 113.641 C 176.027 113.514,176.883 113.425,169.924 113.371 C 166.091 113.341,162.900 113.404,162.834 113.512 M48.008 114.556 C 47.695 114.955,47.700 114.974,48.047 114.705 C 48.265 114.535,48.970 114.350,49.613 114.293 L 50.783 114.190 49.575 114.145 C 48.696 114.112,48.269 114.224,48.008 114.556 M59.987 114.295 C 63.757 114.336,69.925 114.336,73.695 114.295 C 77.464 114.254,74.380 114.221,66.841 114.221 C 59.302 114.221,56.217 114.254,59.987 114.295 M113.916 115.927 C 113.916 116.717,113.965 117.040,114.025 116.645 C 114.085 116.250,114.085 115.604,114.025 115.209 C 113.965 114.814,113.916 115.137,113.916 115.927 M121.244 117.102 C 121.245 118.538,121.289 119.092,121.342 118.333 C 121.395 117.575,121.394 116.400,121.340 115.722 C 121.287 115.045,121.244 115.666,121.244 117.102 M29.932 115.796 C 30.535 116.827,30.548 116.843,30.548 116.522 C 30.548 116.370,30.306 115.968,30.011 115.629 L 29.473 115.013 29.932 115.796 M81.262 116.449 C 81.262 116.952,81.315 117.157,81.381 116.906 C 81.447 116.655,81.447 116.243,81.381 115.992 C 81.315 115.741,81.262 115.946,81.262 116.449 M178.381 116.762 C 177.702 117.441,177.987 120.726,178.786 121.430 L 179.504 122.063 178.916 121.393 C 178.244 120.627,178.050 117.354,178.642 116.762 C 178.815 116.590,178.897 116.449,178.825 116.449 C 178.753 116.449,178.554 116.590,178.381 116.762 M141.319 118.146 C 141.322 118.721,141.375 118.925,141.438 118.600 C 141.500 118.275,141.498 117.805,141.433 117.556 C 141.367 117.306,141.316 117.572,141.319 118.146 M48.527 118.344 C 48.636 118.453,55.826 118.512,64.506 118.475 L 80.287 118.407 64.308 118.277 C 55.519 118.205,48.418 118.235,48.527 118.344 M183.632 122.128 C 185.903 122.171,189.545 122.171,191.726 122.127 C 193.907 122.084,192.050 122.048,187.598 122.048 C 183.146 122.048,181.362 122.084,183.632 122.128 M203.068 122.123 C 203.678 122.178,204.677 122.178,205.287 122.123 C 205.898 122.068,205.398 122.023,204.178 122.023 C 202.957 122.023,202.458 122.068,203.068 122.123 M127.353 133.605 C 127.678 133.667,128.148 133.665,128.397 133.600 C 128.647 133.534,128.381 133.483,127.807 133.486 C 127.232 133.489,127.028 133.543,127.353 133.605 " stroke="none" fill="#e8a194" fill-rule="evenodd"></path></g></svg>