<svg id="svg" version="1.1" xmlns="http://www.w3.org/2000/svg" xmlns:xlink="http://www.w3.org/1999/xlink" width="400" height="243.11926605504587" viewBox="0, 0, 400,243.11926605504587"><g id="svgg"><path id="path0" d="M0.000 121.581 L 0.000 243.161 200.000 243.161 L 400.000 243.161 400.000 121.581 L 400.000 0.000 200.000 0.000 L 0.000 0.000 0.000 121.581 M275.919 84.842 C 277.761 85.827,278.735 87.037,279.360 89.116 L 279.922 90.989 279.389 93.267 C 279.095 94.520,278.702 95.672,278.516 95.827 C 278.329 95.981,278.176 96.237,278.176 96.394 C 278.176 96.687,277.649 97.460,276.900 98.266 C 276.666 98.518,276.474 98.793,276.474 98.879 C 276.474 99.085,274.303 101.527,271.906 104.017 C 269.592 106.420,269.415 106.255,274.322 106.283 L 278.298 106.305 279.182 105.311 C 280.570 103.749,282.059 104.154,281.244 105.871 C 281.028 106.327,280.851 106.850,280.851 107.034 C 280.851 107.218,280.701 107.585,280.517 107.849 C 280.334 108.112,280.105 108.690,280.009 109.133 C 279.748 110.330,279.322 110.395,271.737 110.395 C 261.845 110.395,262.015 110.948,269.490 103.090 C 271.691 100.775,274.043 97.801,274.043 97.331 C 274.043 97.224,274.274 96.704,274.556 96.177 C 274.976 95.393,275.072 94.785,275.079 92.852 L 275.087 90.485 274.061 89.409 C 272.930 88.222,271.568 87.875,269.515 88.251 C 268.270 88.478,266.261 90.498,266.261 91.523 C 266.261 92.223,264.797 93.028,264.346 92.577 C 263.966 92.197,264.004 90.420,264.405 89.841 C 264.588 89.578,264.817 89.104,264.916 88.790 C 266.104 84.985,272.137 82.821,275.919 84.842 M144.479 88.032 C 147.865 88.972,149.595 94.096,147.372 96.599 C 147.162 96.834,146.817 97.217,146.604 97.450 C 145.967 98.147,145.855 98.724,146.326 98.889 C 148.655 99.700,150.596 105.476,149.384 107.987 C 149.228 108.309,148.867 109.083,148.580 109.709 C 148.078 110.803,145.900 113.070,145.350 113.070 C 145.204 113.070,144.898 113.238,144.670 113.444 C 144.442 113.650,143.723 113.916,143.070 114.035 C 142.418 114.154,141.447 114.366,140.912 114.506 C 136.795 115.584,132.357 112.980,134.650 110.833 C 135.876 109.685,136.956 109.828,139.391 111.461 C 143.116 113.959,147.727 107.886,144.994 104.084 C 144.062 102.788,142.613 102.089,140.553 101.941 C 138.133 101.768,137.369 100.385,139.382 99.822 C 139.878 99.684,140.420 99.435,140.586 99.268 C 140.752 99.102,141.003 98.967,141.143 98.967 C 141.775 98.967,143.678 96.821,143.953 95.799 C 145.133 91.417,141.229 89.605,137.325 92.723 C 137.091 92.910,136.897 93.160,136.893 93.279 C 136.889 93.398,136.561 93.814,136.164 94.204 C 135.335 95.018,133.981 94.802,134.354 93.915 C 134.451 93.684,134.588 93.230,134.658 92.905 C 135.053 91.068,137.867 88.396,139.818 88.007 C 141.132 87.745,143.490 87.757,144.479 88.032 M226.280 96.914 C 232.073 98.048,235.062 103.424,233.436 109.783 C 233.169 110.826,232.854 111.801,232.736 111.949 C 232.618 112.098,232.445 112.469,232.351 112.774 C 232.100 113.593,229.989 116.659,228.715 118.055 C 228.104 118.723,227.521 119.383,227.419 119.520 C 227.100 119.950,222.625 124.790,221.064 126.394 C 220.245 127.236,219.574 127.974,219.574 128.035 C 219.574 128.096,222.203 128.146,225.415 128.146 C 232.083 128.146,232.152 128.128,234.003 125.868 C 235.526 124.010,237.249 124.699,236.264 126.772 C 236.045 127.234,235.863 127.759,235.859 127.939 C 235.854 128.120,235.690 128.480,235.494 128.739 C 235.297 128.999,235.137 129.384,235.137 129.594 C 235.137 129.805,234.918 130.385,234.650 130.884 C 234.383 131.383,234.164 131.948,234.164 132.140 C 234.164 133.237,234.006 133.252,223.008 133.252 C 214.949 133.252,212.520 133.182,212.190 132.941 C 211.366 132.338,211.813 131.745,217.751 125.568 C 220.478 122.731,221.633 121.461,222.817 120.000 C 223.467 119.198,224.070 118.486,224.157 118.419 C 224.477 118.175,225.347 116.815,225.507 116.310 C 225.598 116.024,225.832 115.728,226.027 115.653 C 226.223 115.578,226.383 115.344,226.383 115.132 C 226.383 114.920,226.593 114.342,226.849 113.848 C 228.397 110.857,228.490 107.141,227.076 104.802 C 226.259 103.451,225.987 103.103,225.747 103.102 C 225.598 103.101,225.200 102.883,224.863 102.618 C 224.145 102.053,221.470 101.727,219.715 101.991 C 218.211 102.216,216.309 104.069,215.223 106.366 C 214.361 108.192,213.652 108.710,212.644 108.251 C 212.031 107.971,211.759 106.705,212.248 106.403 C 212.364 106.331,212.533 105.805,212.623 105.233 C 212.812 104.036,213.676 102.097,214.147 101.812 C 214.323 101.705,214.468 101.474,214.468 101.298 C 214.468 100.930,216.260 99.020,217.110 98.480 C 217.427 98.280,217.938 97.923,218.246 97.687 C 218.768 97.289,220.010 96.949,222.371 96.559 C 223.427 96.385,223.702 96.410,226.280 96.914 M357.301 96.798 C 357.688 96.921,358.308 97.021,358.676 97.021 C 359.405 97.021,361.564 98.050,362.179 98.690 C 363.641 100.213,364.498 101.259,364.498 101.522 C 364.498 101.691,364.662 102.142,364.862 102.525 C 365.318 103.400,365.341 106.161,364.899 107.007 C 364.720 107.350,364.499 107.926,364.409 108.287 C 364.231 108.995,361.242 112.097,360.737 112.097 C 360.569 112.097,360.060 112.424,359.607 112.823 C 359.155 113.222,358.904 113.550,359.051 113.552 C 359.198 113.554,359.554 113.748,359.842 113.982 C 360.130 114.216,360.711 114.681,361.133 115.015 C 362.324 115.959,364.498 118.253,364.498 118.565 C 364.498 118.720,364.656 118.977,364.848 119.136 C 365.040 119.295,365.272 119.774,365.364 120.199 C 365.457 120.625,365.655 121.051,365.806 121.146 C 366.850 121.807,365.872 129.605,364.745 129.605 C 364.609 129.605,364.498 129.737,364.498 129.900 C 364.498 130.279,362.541 132.280,362.171 132.280 C 362.016 132.280,361.628 132.476,361.309 132.716 C 359.670 133.950,353.413 134.549,351.655 133.640 C 351.243 133.427,350.689 133.252,350.425 133.252 C 350.160 133.252,349.794 133.103,349.611 132.920 C 349.428 132.737,349.053 132.515,348.777 132.428 C 347.971 132.172,346.163 130.237,345.455 128.873 C 344.700 127.417,344.456 121.969,345.117 121.294 C 345.289 121.117,345.575 120.621,345.751 120.191 C 346.101 119.334,348.762 116.562,349.441 116.347 C 350.838 115.903,350.684 115.217,348.727 113.172 C 346.653 111.003,345.931 110.064,345.658 109.175 C 345.556 108.843,345.356 108.427,345.214 108.250 C 344.763 107.687,344.696 104.012,345.119 103.076 C 345.325 102.621,345.557 102.030,345.636 101.763 C 346.158 99.981,350.347 97.041,352.419 97.003 C 352.978 96.992,353.872 96.842,354.407 96.670 C 355.381 96.355,355.983 96.381,357.301 96.798 M353.799 99.429 C 351.044 100.253,349.489 102.739,350.303 105.018 C 350.476 105.501,350.622 106.069,350.628 106.281 C 350.666 107.662,355.037 111.178,356.349 110.882 C 357.128 110.707,359.392 108.661,359.392 108.133 C 359.392 108.025,359.624 107.428,359.907 106.806 C 360.833 104.774,359.543 100.182,358.046 100.182 C 357.938 100.182,357.677 100.028,357.466 99.840 C 357.011 99.434,354.663 99.171,353.799 99.429 M118.652 109.174 C 119.270 109.504,120.365 111.445,120.365 112.209 C 120.365 112.922,120.923 114.395,121.277 114.613 C 121.405 114.692,121.845 114.289,122.256 113.717 C 123.379 112.153,125.248 110.137,125.818 109.876 C 126.095 109.749,126.596 109.487,126.930 109.294 C 129.713 107.688,132.981 111.169,130.701 113.311 C 130.030 113.942,128.124 114.118,127.603 113.597 C 126.906 112.900,124.012 114.638,124.012 115.753 C 124.012 115.863,123.875 116.101,123.708 116.281 C 122.208 117.899,121.665 120.651,122.528 122.263 C 122.683 122.553,122.958 123.585,123.138 124.556 C 123.318 125.528,123.586 126.650,123.732 127.052 C 123.879 127.453,124.056 128.075,124.127 128.434 C 124.411 129.866,125.434 129.601,126.940 127.707 C 128.716 125.472,130.701 126.606,129.072 128.926 C 126.453 132.657,124.842 133.982,122.921 133.982 C 121.599 133.982,120.214 133.154,120.000 132.236 C 119.916 131.877,119.690 131.453,119.498 131.294 C 119.306 131.135,119.149 130.687,119.149 130.298 C 119.149 129.910,118.930 128.970,118.663 128.209 C 118.395 127.448,118.176 126.539,118.176 126.189 C 118.176 124.953,117.634 125.299,116.231 127.429 C 116.030 127.734,115.702 128.160,115.502 128.377 C 115.301 128.593,114.838 129.204,114.473 129.735 C 111.831 133.576,108.880 134.917,106.514 133.351 C 104.060 131.727,105.688 127.964,108.451 128.876 C 108.957 129.043,109.812 129.191,110.351 129.205 C 111.513 129.236,111.823 128.896,115.421 123.647 C 116.063 122.711,116.686 121.875,116.806 121.790 C 116.926 121.704,116.959 121.321,116.879 120.939 C 116.800 120.556,116.586 119.416,116.404 118.405 C 116.222 117.394,115.997 116.443,115.903 116.291 C 115.810 116.140,115.618 115.394,115.478 114.635 C 115.110 112.643,114.432 111.984,112.979 112.202 C 112.367 112.293,111.802 112.471,111.724 112.597 C 111.542 112.891,110.257 112.235,110.072 111.753 C 109.898 111.300,111.159 110.201,112.055 110.023 C 112.413 109.953,113.033 109.778,113.435 109.635 C 115.402 108.935,117.808 108.722,118.652 109.174 M249.658 109.087 C 250.327 109.267,251.333 110.937,251.548 112.226 C 251.906 114.373,252.599 115.233,253.095 114.145 C 253.243 113.821,253.475 113.556,253.612 113.556 C 253.748 113.556,253.860 113.434,253.860 113.285 C 253.860 112.930,256.516 110.171,257.143 109.875 C 257.410 109.748,257.903 109.487,258.237 109.294 C 259.333 108.662,261.031 108.832,261.876 109.657 C 263.916 111.652,261.737 114.800,259.084 113.692 C 257.400 112.988,256.622 113.518,254.455 116.839 L 253.345 118.541 253.440 120.412 C 253.492 121.441,253.663 122.437,253.819 122.625 C 253.975 122.813,254.168 123.503,254.247 124.158 C 254.327 124.813,254.601 125.979,254.856 126.749 C 255.111 127.518,255.319 128.354,255.319 128.607 C 255.319 128.895,255.548 129.123,255.932 129.220 C 256.540 129.372,257.508 129.033,257.508 128.668 C 257.508 128.066,259.120 126.444,259.718 126.444 C 261.682 126.444,260.887 128.859,257.896 131.982 C 254.669 135.350,250.885 134.289,250.291 129.848 C 250.210 129.246,250.010 128.480,249.845 128.146 C 249.681 127.812,249.469 127.004,249.373 126.350 L 249.201 125.163 248.552 125.905 C 248.195 126.313,247.191 127.613,246.322 128.794 C 242.624 133.820,240.266 135.077,237.749 133.367 C 235.272 131.684,236.986 127.961,239.810 128.893 C 241.493 129.448,242.350 129.323,243.104 128.409 C 243.470 127.965,243.933 127.420,244.134 127.197 C 244.334 126.974,244.827 126.303,245.228 125.706 C 245.629 125.109,246.094 124.475,246.261 124.299 C 246.429 124.122,246.565 123.884,246.565 123.769 C 246.565 123.654,246.702 123.413,246.869 123.233 C 248.183 121.815,248.356 121.316,247.936 120.145 C 247.716 119.530,247.536 118.695,247.537 118.289 C 247.537 117.884,247.319 116.929,247.052 116.168 C 246.784 115.407,246.565 114.503,246.565 114.160 C 246.565 112.556,245.176 111.759,243.436 112.366 C 242.444 112.712,241.535 112.478,241.327 111.823 C 241.103 111.115,242.192 110.258,243.752 109.915 C 244.412 109.770,245.069 109.556,245.211 109.439 C 245.720 109.022,248.573 108.796,249.658 109.087 M379.022 109.088 C 379.665 109.260,380.713 111.029,380.922 112.296 C 381.265 114.371,381.968 115.218,382.457 114.145 C 382.604 113.821,382.837 113.556,382.974 113.556 C 383.110 113.556,383.222 113.434,383.222 113.284 C 383.222 112.791,386.137 109.996,387.210 109.461 C 390.975 107.580,394.070 111.452,390.612 113.717 C 390.019 114.106,388.228 113.983,387.950 113.535 C 387.378 112.609,385.703 113.949,383.817 116.839 L 382.706 118.541 382.802 120.412 C 382.854 121.441,383.022 122.434,383.176 122.619 C 383.330 122.804,383.557 123.675,383.681 124.553 C 383.806 125.432,384.014 126.354,384.144 126.601 C 384.275 126.849,384.456 127.506,384.548 128.061 C 384.669 128.791,384.853 129.107,385.211 129.200 C 385.763 129.345,386.869 129.000,386.869 128.682 C 386.869 128.069,388.475 126.444,389.080 126.444 C 391.029 126.444,390.493 128.262,387.561 131.593 C 384.206 135.405,380.280 134.539,379.653 129.848 C 379.572 129.246,379.372 128.480,379.207 128.146 C 379.043 127.812,378.829 126.993,378.732 126.326 L 378.555 125.114 377.910 125.874 C 377.555 126.291,376.553 127.603,375.684 128.788 C 372.249 133.469,369.895 134.899,367.583 133.708 C 364.603 132.174,365.949 127.917,369.119 128.851 C 370.795 129.344,371.031 129.379,371.651 129.224 C 371.997 129.137,372.280 128.950,372.280 128.809 C 372.280 128.667,372.448 128.378,372.654 128.166 C 372.860 127.954,373.516 127.125,374.112 126.322 C 374.708 125.520,375.290 124.747,375.407 124.605 C 375.523 124.463,375.757 124.086,375.927 123.769 C 376.253 123.160,376.510 122.814,377.204 122.049 C 377.724 121.476,377.733 121.159,377.264 120.038 C 377.064 119.557,376.900 118.802,376.900 118.358 C 376.900 117.914,376.681 116.929,376.413 116.168 C 376.146 115.407,375.923 114.481,375.918 114.109 C 375.896 112.352,374.819 111.884,372.137 112.466 C 371.361 112.634,370.578 112.158,370.578 111.518 C 370.578 111.034,371.948 110.156,373.070 109.920 C 373.638 109.800,374.541 109.535,375.076 109.330 C 376.070 108.949,378.051 108.828,379.022 109.088 M39.381 110.017 C 39.940 110.691,39.577 111.460,38.457 111.976 L 37.400 112.462 37.547 113.541 C 37.668 114.435,39.058 117.742,39.904 119.149 C 40.024 119.350,40.232 119.787,40.365 120.122 C 40.499 120.456,40.717 120.894,40.851 121.094 C 40.986 121.295,41.212 121.733,41.354 122.067 C 41.497 122.401,41.848 123.187,42.135 123.812 L 42.656 124.950 43.212 123.970 C 43.519 123.431,43.769 122.863,43.769 122.707 C 43.769 122.552,43.988 122.016,44.255 121.517 C 44.523 121.018,44.742 120.471,44.742 120.301 C 44.742 120.132,44.960 119.584,45.228 119.085 C 45.495 118.586,45.714 117.972,45.714 117.721 C 45.714 117.469,45.878 117.127,46.079 116.960 C 46.280 116.794,46.444 116.475,46.444 116.253 C 46.444 116.030,46.663 115.418,46.930 114.894 C 47.683 113.416,47.594 112.175,46.721 111.983 C 46.153 111.858,45.471 111.062,45.471 110.523 C 45.471 109.606,51.516 109.246,53.739 110.030 C 54.607 110.337,56.814 110.395,67.549 110.395 C 79.097 110.395,80.369 110.434,80.771 110.798 C 81.317 111.292,81.350 112.527,80.837 113.259 L 80.459 113.799 67.487 113.799 L 54.515 113.799 53.777 112.888 C 52.613 111.450,51.948 111.995,50.231 115.790 C 49.886 116.551,49.605 117.324,49.605 117.507 C 49.605 117.690,49.444 118.053,49.248 118.312 C 49.052 118.572,48.887 118.936,48.883 119.122 C 48.875 119.468,48.221 120.997,47.394 122.601 C 47.139 123.096,46.930 123.704,46.930 123.953 C 46.930 124.202,46.769 124.618,46.573 124.878 C 46.377 125.137,46.213 125.515,46.208 125.718 C 46.204 125.920,45.996 126.468,45.747 126.934 C 45.497 127.400,45.216 128.129,45.123 128.555 C 45.030 128.980,44.796 129.458,44.604 129.618 C 44.412 129.777,44.255 130.140,44.254 130.425 C 44.253 130.709,44.035 131.271,43.769 131.672 C 43.503 132.073,43.285 132.623,43.284 132.894 C 43.283 133.165,43.133 133.603,42.951 133.867 C 42.768 134.131,42.539 134.620,42.442 134.954 C 42.236 135.663,41.405 137.587,41.076 138.116 C 40.952 138.316,40.734 138.750,40.593 139.080 C 38.533 143.896,31.842 145.893,29.650 142.346 C 28.254 140.086,29.873 138.191,33.070 138.343 C 36.783 138.518,36.710 138.530,37.474 137.616 C 37.860 137.155,38.242 136.532,38.324 136.230 C 38.406 135.929,38.679 135.277,38.932 134.781 C 39.185 134.285,39.392 133.734,39.392 133.557 C 39.392 133.380,39.576 132.955,39.800 132.613 C 40.179 132.034,40.180 131.938,39.806 131.223 C 39.586 130.801,39.293 130.182,39.156 129.848 C 39.019 129.514,38.811 129.076,38.693 128.875 C 38.576 128.675,38.015 127.526,37.447 126.322 C 36.879 125.119,36.318 123.970,36.200 123.769 C 36.083 123.568,35.872 123.131,35.732 122.796 C 35.194 121.517,34.485 119.985,34.268 119.635 C 34.143 119.435,33.929 118.997,33.792 118.663 C 33.439 117.800,32.793 116.417,32.543 115.988 C 32.426 115.787,32.167 115.267,31.968 114.833 C 31.768 114.398,31.496 114.043,31.365 114.043 C 31.233 114.043,31.125 113.899,31.125 113.723 C 31.125 113.280,29.846 112.097,29.366 112.097 C 28.355 112.097,27.788 110.420,28.632 109.928 C 29.352 109.509,39.026 109.589,39.381 110.017 M196.425 119.266 C 196.485 120.881,196.426 121.258,196.074 121.515 C 195.376 122.025,167.353 121.959,166.619 121.445 C 165.985 121.001,165.789 117.605,166.383 117.364 C 166.550 117.296,173.362 117.259,181.520 117.283 L 196.353 117.325 196.425 119.266 M327.489 117.495 C 328.048 118.054,327.862 121.010,327.241 121.445 C 326.545 121.933,298.955 122.026,298.039 121.544 C 297.015 121.005,296.668 117.991,297.568 117.466 C 298.222 117.086,327.108 117.114,327.489 117.495 M353.244 117.633 C 352.542 117.788,351.419 119.073,350.856 120.365 C 350.710 120.699,350.446 121.301,350.269 121.702 C 349.045 124.472,350.262 128.811,352.709 130.395 C 354.132 131.317,357.415 131.385,358.559 130.517 C 359.835 129.548,360.365 129.017,360.365 128.708 C 360.365 128.542,360.540 127.890,360.754 127.258 C 361.539 124.948,359.838 121.552,356.960 119.683 C 356.626 119.466,355.915 118.945,355.380 118.527 C 354.283 117.668,353.868 117.494,353.244 117.633 M80.979 119.043 C 81.974 121.662,82.411 121.581,67.376 121.581 C 52.670 121.581,53.226 121.650,53.587 119.847 C 53.889 118.337,53.087 118.419,67.513 118.419 L 80.742 118.419 80.979 119.043 " stroke="none" fill="#fbfbfb" fill-rule="evenodd"></path><path id="path1" d="M269.787 85.151 C 267.346 86.007,265.639 87.767,265.178 89.906 C 265.085 90.339,264.907 90.756,264.784 90.832 C 264.660 90.909,264.559 91.173,264.559 91.420 C 264.559 92.069,265.508 91.766,265.789 91.027 C 268.026 85.143,275.825 86.589,275.824 92.888 C 275.824 94.879,274.839 97.923,274.012 98.487 C 273.908 98.558,273.736 98.854,273.628 99.145 C 273.435 99.667,271.695 101.665,268.293 105.271 C 265.317 108.425,264.572 109.291,264.566 109.605 C 264.561 109.841,266.126 109.909,271.601 109.909 C 279.256 109.909,279.635 109.838,279.635 108.403 C 279.635 108.160,279.854 107.553,280.122 107.054 C 280.648 106.072,280.752 105.163,280.365 104.924 C 280.231 104.841,280.122 104.881,280.122 105.013 C 280.122 105.431,278.643 106.748,278.172 106.748 C 277.923 106.748,277.651 106.857,277.568 106.991 C 277.407 107.251,269.370 107.344,269.115 107.088 C 268.790 106.764,269.649 105.524,271.880 103.100 C 273.172 101.696,274.598 100.118,275.048 99.594 C 275.498 99.070,276.053 98.446,276.280 98.208 C 276.508 97.969,277.161 96.921,277.732 95.878 L 278.770 93.982 278.769 91.307 C 278.767 86.106,274.808 83.392,269.787 85.151 M139.588 88.841 C 138.029 89.393,135.927 91.099,135.927 91.813 C 135.927 91.984,135.781 92.269,135.603 92.447 C 135.186 92.865,134.891 94.035,135.161 94.202 C 135.276 94.273,135.723 93.839,136.155 93.236 C 136.588 92.634,137.233 91.955,137.589 91.728 C 137.946 91.500,138.382 91.175,138.558 91.006 C 139.560 90.049,144.195 90.962,144.195 92.117 C 144.195 92.240,144.359 92.478,144.559 92.644 C 146.448 94.212,143.095 99.488,139.699 100.292 C 138.723 100.523,139.240 100.812,141.700 101.413 C 145.322 102.296,146.952 104.767,146.228 108.278 C 146.066 109.064,145.761 109.899,145.550 110.132 C 145.340 110.364,145.167 110.638,145.167 110.740 C 145.167 111.713,140.925 113.392,140.442 112.611 C 140.369 112.492,140.015 112.321,139.657 112.231 C 139.298 112.141,138.742 111.861,138.422 111.608 C 136.461 110.066,133.944 111.354,135.300 113.206 C 135.849 113.955,142.423 113.885,143.826 113.115 C 144.359 112.823,144.911 112.584,145.053 112.584 C 145.522 112.584,147.383 110.660,147.933 109.607 C 149.139 107.297,149.270 104.056,148.244 101.903 C 147.612 100.577,147.424 100.360,146.189 99.538 L 144.900 98.681 145.803 97.547 C 146.300 96.924,146.873 96.277,147.078 96.109 C 147.343 95.892,147.478 95.189,147.552 93.642 L 147.656 91.480 146.671 90.411 C 144.687 88.258,142.566 87.788,139.588 88.841 M220.685 97.427 C 220.159 97.491,219.460 97.753,219.132 98.011 C 218.805 98.269,218.430 98.480,218.300 98.480 C 218.023 98.480,216.091 99.958,215.957 100.272 C 215.907 100.390,215.661 100.691,215.410 100.942 C 215.160 101.193,214.954 101.472,214.954 101.561 C 214.954 101.651,214.799 101.897,214.609 102.109 C 213.704 103.115,212.633 107.263,213.146 107.776 C 213.346 107.976,214.468 106.872,214.468 106.475 C 214.468 104.975,217.504 101.977,219.733 101.276 C 222.552 100.389,227.842 102.778,227.842 104.938 C 227.842 105.098,228.006 105.365,228.207 105.532 C 228.814 106.036,228.722 111.332,228.085 112.520 C 227.818 113.019,227.599 113.662,227.599 113.948 C 227.599 114.235,227.435 114.606,227.234 114.772 C 227.033 114.939,226.869 115.187,226.869 115.324 C 226.869 115.664,225.332 117.953,223.991 119.610 C 222.791 121.092,222.196 121.755,219.856 124.215 C 219.007 125.106,217.311 126.921,216.087 128.247 C 214.862 129.573,213.678 130.832,213.454 131.044 C 213.231 131.255,212.973 131.731,212.880 132.100 L 212.712 132.771 223.012 132.708 L 233.313 132.644 233.678 131.550 C 233.878 130.948,234.179 130.217,234.347 129.925 C 234.514 129.633,234.650 129.248,234.650 129.070 C 234.650 128.892,234.869 128.338,235.137 127.839 C 235.610 126.957,235.780 125.709,235.469 125.399 C 235.385 125.314,234.888 125.782,234.366 126.438 C 232.603 128.652,232.683 128.632,225.594 128.632 C 218.884 128.632,218.004 128.468,219.218 127.443 C 219.481 127.221,220.181 126.495,220.774 125.829 C 221.630 124.870,225.409 120.772,227.599 118.431 C 228.704 117.249,231.003 114.195,231.003 113.908 C 231.003 113.824,231.222 113.476,231.489 113.136 C 231.757 112.796,231.976 112.295,231.976 112.023 C 231.976 111.750,232.145 111.340,232.352 111.111 C 232.585 110.854,232.814 109.875,232.951 108.546 C 233.790 100.410,229.353 96.387,220.685 97.427 M353.070 97.488 C 352.201 97.582,351.161 97.844,350.760 98.068 C 350.359 98.293,349.894 98.478,349.726 98.479 C 349.559 98.480,349.422 98.576,349.422 98.694 C 349.422 98.811,349.122 99.035,348.754 99.191 C 346.608 100.103,345.229 103.739,345.780 107.036 C 346.164 109.337,346.843 110.461,349.332 112.917 C 351.794 115.346,351.783 115.050,349.483 117.098 C 348.447 118.022,347.473 118.943,347.320 119.145 C 347.166 119.348,346.811 119.777,346.530 120.098 C 346.248 120.419,346.018 120.802,346.017 120.949 C 346.016 121.096,345.846 121.540,345.640 121.936 C 345.117 122.938,345.112 126.549,345.632 127.538 C 345.843 127.939,346.016 128.450,346.017 128.674 C 346.019 129.192,348.848 132.036,349.362 132.036 C 349.575 132.036,349.927 132.198,350.145 132.395 C 351.389 133.521,359.313 133.532,360.608 132.410 C 360.809 132.236,361.197 132.026,361.471 131.943 C 362.001 131.782,364.012 130.010,364.012 129.704 C 364.012 129.604,364.167 129.349,364.356 129.138 C 367.540 125.583,365.130 118.469,359.366 114.407 C 358.029 113.466,358.151 113.059,360.186 111.670 C 361.880 110.513,363.040 109.537,363.040 109.267 C 363.040 109.169,363.248 108.863,363.502 108.587 C 365.686 106.220,363.722 99.317,360.593 98.361 C 360.267 98.261,359.836 98.039,359.635 97.867 C 359.183 97.480,355.243 97.253,353.070 97.488 M358.622 99.871 C 359.202 100.346,359.738 100.911,359.814 101.127 C 359.890 101.343,360.125 101.720,360.336 101.965 C 360.918 102.641,360.893 107.002,360.304 107.653 C 360.070 107.912,359.878 108.259,359.878 108.424 C 359.878 108.693,357.892 110.768,356.886 111.550 C 356.353 111.964,355.383 111.933,355.015 111.489 C 354.849 111.289,354.558 111.125,354.370 111.125 C 354.181 111.125,353.964 110.960,353.887 110.760 C 353.810 110.559,353.606 110.395,353.433 110.395 C 352.943 110.395,350.823 107.943,350.087 106.524 C 348.862 104.163,349.548 100.889,351.489 99.838 C 351.757 99.693,352.046 99.477,352.133 99.358 C 352.850 98.369,357.210 98.714,358.622 99.871 M115.399 109.784 C 114.875 109.970,114.013 110.196,113.483 110.286 C 110.910 110.721,110.245 111.987,112.729 111.721 C 114.689 111.511,115.369 111.884,115.741 113.373 C 115.883 113.942,116.106 114.598,116.237 114.831 C 116.368 115.063,116.575 115.955,116.696 116.812 C 116.817 117.669,117.025 118.572,117.158 118.820 C 117.721 119.873,117.752 121.436,117.223 122.109 C 116.945 122.462,116.717 122.854,116.717 122.979 C 116.717 123.105,116.498 123.405,116.231 123.647 C 115.964 123.889,115.745 124.229,115.745 124.403 C 115.745 124.576,115.604 124.805,115.432 124.912 C 115.260 125.019,114.702 125.742,114.193 126.520 C 112.387 129.277,110.881 130.504,110.007 129.932 C 109.254 129.439,106.793 129.387,106.487 129.858 C 105.175 131.880,106.835 133.599,109.628 133.110 C 111.218 132.832,111.116 132.937,116.480 126.018 C 117.605 124.567,118.329 124.355,118.551 125.410 C 118.629 125.778,118.805 126.286,118.944 126.538 C 119.082 126.791,119.295 127.704,119.417 128.567 C 119.540 129.431,119.803 130.370,120.002 130.655 C 120.202 130.939,120.365 131.362,120.365 131.595 C 120.365 132.206,121.250 132.939,122.206 133.118 C 124.145 133.482,125.926 132.356,127.780 129.596 C 128.181 128.999,128.646 128.423,128.814 128.316 C 129.244 128.042,129.204 126.930,128.763 126.930 C 128.386 126.930,128.298 127.016,127.187 128.463 C 125.358 130.844,124.350 130.762,123.369 128.152 C 123.054 127.314,122.796 126.348,122.796 126.006 C 122.796 125.664,122.587 124.720,122.330 123.908 C 121.172 120.238,121.175 118.493,122.342 117.105 C 122.465 116.959,122.912 116.303,123.336 115.648 C 125.135 112.865,126.089 112.330,128.101 112.980 C 130.501 113.755,132.015 111.345,129.997 109.962 C 128.131 108.683,125.276 110.416,122.553 114.478 C 121.249 116.425,120.315 116.097,120.022 113.591 C 119.614 110.109,118.065 108.834,115.399 109.784 M246.664 109.769 C 246.251 109.949,245.430 110.176,244.841 110.273 C 242.033 110.737,241.410 111.979,244.127 111.695 C 245.713 111.529,247.052 112.378,247.052 113.550 C 247.052 113.834,247.202 114.362,247.385 114.723 C 247.569 115.084,247.797 116.017,247.891 116.795 C 247.986 117.574,248.219 118.583,248.409 119.037 C 248.877 120.158,248.866 122.039,248.389 122.222 C 248.188 122.299,248.024 122.495,248.024 122.658 C 248.024 122.821,247.531 123.603,246.928 124.395 C 246.325 125.188,245.696 126.029,245.530 126.266 C 243.167 129.636,242.239 130.373,241.002 129.860 C 239.658 129.303,238.084 129.409,237.560 130.091 C 236.146 131.932,238.407 133.765,241.173 133.021 C 242.209 132.742,244.619 130.346,246.079 128.144 C 248.147 125.024,249.726 123.838,249.726 125.403 C 249.726 125.601,249.887 126.107,250.084 126.529 C 250.280 126.950,250.544 127.897,250.671 128.632 C 251.708 134.657,255.330 134.938,259.215 129.293 C 260.463 127.480,260.507 126.002,259.271 127.417 C 258.228 128.610,256.469 130.334,256.294 130.334 C 255.399 130.334,254.501 128.621,253.996 125.955 C 253.831 125.085,253.583 124.154,253.444 123.888 C 253.305 123.622,253.113 122.758,253.017 121.969 C 252.922 121.180,252.726 120.276,252.582 119.961 C 252.274 119.284,252.450 118.862,254.087 116.354 C 256.323 112.930,258.202 111.811,259.562 113.095 C 260.265 113.758,262.128 112.520,262.128 111.390 C 262.128 110.652,261.275 109.766,260.338 109.531 C 258.790 109.142,255.747 111.410,253.711 114.468 C 252.492 116.300,251.544 116.085,251.288 113.921 C 250.857 110.276,249.108 108.705,246.664 109.769 M376.026 109.769 C 375.613 109.949,374.792 110.176,374.202 110.273 C 371.336 110.747,370.796 111.952,373.566 111.693 C 375.254 111.535,376.413 112.336,376.413 113.659 C 376.413 113.963,376.567 114.529,376.755 114.917 C 376.943 115.305,377.175 116.214,377.270 116.937 C 377.364 117.659,377.593 118.613,377.779 119.057 C 378.240 120.162,378.224 122.041,377.751 122.222 C 377.550 122.299,377.386 122.472,377.386 122.607 C 377.386 122.869,376.196 124.577,373.901 127.610 C 372.166 129.903,371.590 130.262,370.323 129.844 C 367.444 128.894,365.509 130.284,366.932 132.282 C 368.084 133.900,370.807 133.465,372.766 131.350 C 374.267 129.729,375.109 128.677,376.413 126.795 C 377.926 124.611,379.088 124.007,379.088 125.403 C 379.088 125.601,379.249 126.107,379.445 126.529 C 379.642 126.950,379.905 127.897,380.030 128.632 C 380.666 132.372,381.815 133.553,384.327 133.049 C 386.064 132.700,389.544 128.938,389.544 127.409 C 389.544 126.714,388.895 126.822,388.399 127.599 C 387.923 128.345,385.918 130.334,385.642 130.334 C 384.761 130.334,383.859 128.604,383.358 125.955 C 383.193 125.085,382.944 124.154,382.803 123.888 C 382.663 123.622,382.470 122.720,382.375 121.884 C 382.279 121.048,382.103 120.303,381.982 120.228 C 381.490 119.924,381.961 118.521,383.169 116.693 C 385.683 112.887,386.511 112.302,388.452 112.961 C 390.881 113.786,392.520 111.724,390.716 110.113 C 388.986 108.568,385.787 110.391,383.073 114.468 C 381.854 116.300,380.905 116.085,380.650 113.921 C 380.219 110.276,378.470 108.705,376.026 109.769 M29.240 110.351 C 28.401 110.470,29.301 111.854,30.218 111.854 C 30.426 111.854,31.137 112.560,31.812 113.435 C 32.099 113.807,33.031 115.549,33.308 116.231 C 33.444 116.565,33.657 117.003,33.782 117.204 C 33.906 117.404,34.465 118.553,35.023 119.757 C 35.580 120.960,36.136 122.109,36.256 122.310 C 36.377 122.511,36.590 122.948,36.730 123.283 C 37.271 124.569,37.977 126.095,38.195 126.444 C 38.320 126.644,38.485 126.973,38.560 127.173 C 38.636 127.374,39.128 128.395,39.653 129.442 C 40.740 131.611,40.802 132.167,40.122 133.651 C 39.854 134.234,39.416 135.188,39.149 135.771 C 38.881 136.354,38.659 136.929,38.655 137.048 C 38.612 138.250,35.435 139.879,34.638 139.108 C 34.411 138.887,33.241 138.775,31.658 138.821 C 30.953 138.842,30.797 138.973,30.390 139.894 C 28.838 143.403,33.278 144.899,37.086 142.149 C 38.220 141.330,40.122 139.074,40.122 138.547 C 40.122 138.346,40.340 137.903,40.608 137.563 C 40.875 137.223,41.094 136.825,41.094 136.678 C 41.094 136.532,41.313 136.003,41.581 135.504 C 41.848 135.005,42.067 134.458,42.067 134.288 C 42.067 134.119,42.286 133.572,42.553 133.073 C 42.821 132.574,43.040 131.993,43.040 131.783 C 43.040 131.572,43.200 131.188,43.397 130.928 C 43.593 130.668,43.757 130.304,43.761 130.118 C 43.766 129.932,43.988 129.303,44.255 128.720 C 44.523 128.137,44.960 127.183,45.228 126.600 C 45.495 126.016,45.714 125.414,45.714 125.261 C 45.714 125.108,45.933 124.575,46.201 124.076 C 46.468 123.577,46.687 123.030,46.687 122.860 C 46.687 122.690,46.906 122.143,47.173 121.644 C 47.441 121.145,47.660 120.607,47.660 120.449 C 47.660 120.176,47.841 119.769,48.910 117.642 C 49.158 117.147,49.362 116.545,49.363 116.304 C 49.364 116.063,49.582 115.538,49.848 115.137 C 50.114 114.736,50.333 114.188,50.335 113.921 C 50.338 113.431,51.298 112.325,52.644 111.258 C 53.046 110.940,53.283 110.588,53.171 110.477 C 52.959 110.264,47.693 110.151,46.748 110.339 C 46.081 110.472,46.015 111.125,46.669 111.125 C 48.009 111.125,48.435 113.669,47.387 115.409 C 47.136 115.826,46.930 116.392,46.930 116.668 C 46.930 116.943,46.774 117.325,46.583 117.516 C 46.392 117.707,46.162 118.258,46.071 118.741 C 45.981 119.223,45.754 119.745,45.567 119.900 C 45.381 120.054,45.228 120.363,45.228 120.586 C 45.228 120.809,45.009 121.421,44.742 121.945 C 44.474 122.470,44.255 123.048,44.255 123.230 C 44.255 123.773,43.019 125.714,42.673 125.714 C 42.497 125.714,41.845 124.647,41.223 123.343 C 40.602 122.040,39.990 120.809,39.864 120.608 C 39.738 120.407,39.521 119.970,39.384 119.635 C 39.246 119.301,38.768 118.261,38.322 117.325 C 36.531 113.569,36.483 113.436,36.675 112.721 C 36.806 112.230,37.192 111.855,38.004 111.429 C 39.255 110.774,39.450 110.421,38.602 110.348 C 37.666 110.266,29.817 110.269,29.240 110.351 M54.318 111.475 C 53.827 112.756,53.255 112.700,67.420 112.768 L 80.486 112.831 80.486 111.978 L 80.486 111.125 67.470 111.125 C 56.358 111.125,54.433 111.176,54.318 111.475 M354.359 117.116 C 354.787 117.335,355.191 117.581,355.258 117.663 C 355.325 117.745,355.927 118.184,356.596 118.640 C 361.946 122.284,363.180 127.484,359.454 130.688 C 358.674 131.359,356.190 132.144,355.436 131.957 C 355.138 131.883,354.391 131.701,353.776 131.553 C 352.509 131.248,350.554 129.619,350.270 128.632 C 350.173 128.298,349.938 127.845,349.746 127.627 C 349.249 127.059,349.242 121.703,349.739 121.131 C 349.930 120.910,350.151 120.456,350.230 120.122 C 350.440 119.238,352.559 117.051,353.508 116.741 C 353.548 116.728,353.931 116.897,354.359 117.116 M166.971 117.852 C 166.691 118.132,166.795 120.497,167.100 120.802 C 167.321 121.023,170.888 121.094,181.663 121.094 L 195.934 121.094 196.093 120.243 C 196.181 119.775,196.181 119.009,196.093 118.541 L 195.934 117.690 181.533 117.690 C 173.613 117.690,167.060 117.763,166.971 117.852 M297.956 118.066 C 297.724 118.669,298.032 120.649,298.393 120.879 C 298.575 120.994,305.125 121.063,312.948 121.031 L 327.173 120.973 327.245 119.331 L 327.317 117.690 312.709 117.690 C 299.753 117.690,298.084 117.733,297.956 118.066 M54.325 119.754 C 53.977 121.143,53.317 121.079,67.405 121.024 L 80.365 120.973 80.365 120.122 L 80.365 119.271 67.422 119.208 L 54.478 119.145 54.325 119.754 " stroke="none" fill="#101010" fill-rule="evenodd"></path><path id="path2" d="M140.489 90.871 C 140.792 90.929,141.229 90.927,141.462 90.866 C 141.694 90.805,141.447 90.758,140.912 90.760 C 140.377 90.763,140.187 90.813,140.489 90.871 M364.798 104.559 C 364.798 105.027,364.848 105.219,364.909 104.985 C 364.970 104.751,364.970 104.368,364.909 104.134 C 364.848 103.900,364.798 104.091,364.798 104.559 M345.102 105.289 C 345.102 105.757,345.152 105.948,345.213 105.714 C 345.274 105.480,345.274 105.097,345.213 104.863 C 345.152 104.629,345.102 104.821,345.102 105.289 M29.609 110.085 C 30.046 110.139,30.703 110.138,31.068 110.083 C 31.434 110.027,31.076 109.983,30.274 109.984 C 29.471 109.986,29.172 110.031,29.609 110.085 M33.012 110.081 C 33.314 110.139,33.752 110.137,33.985 110.076 C 34.217 110.015,33.970 109.967,33.435 109.970 C 32.900 109.973,32.709 110.023,33.012 110.081 M34.957 110.081 C 35.260 110.139,35.697 110.137,35.930 110.076 C 36.162 110.015,35.915 109.967,35.380 109.970 C 34.845 109.973,34.655 110.023,34.957 110.081 " stroke="none" fill="#7c7c7c" fill-rule="evenodd"></path><path id="path3" d="M271.915 84.551 C 272.283 84.607,272.884 84.607,273.252 84.551 C 273.620 84.495,273.319 84.450,272.584 84.450 C 271.848 84.450,271.547 84.495,271.915 84.551 M268.815 85.217 C 266.369 86.408,263.889 90.186,264.432 91.896 C 264.672 92.652,266.018 91.957,266.018 91.076 C 266.018 89.167,269.313 87.361,271.843 87.882 C 277.877 89.126,276.776 95.964,269.275 103.830 C 262.674 110.752,262.459 110.152,271.549 110.152 C 278.760 110.152,279.635 110.040,279.635 109.120 C 279.635 108.968,279.412 109.084,279.139 109.377 C 278.540 110.020,264.552 110.239,264.566 109.605 C 264.572 109.291,265.317 108.425,268.293 105.271 C 271.695 101.665,273.435 99.667,273.628 99.145 C 273.736 98.854,273.908 98.558,274.012 98.487 C 274.839 97.923,275.824 94.879,275.824 92.888 C 275.825 86.589,268.026 85.143,265.789 91.027 C 265.508 91.766,264.559 92.069,264.559 91.420 C 264.559 91.173,264.660 90.909,264.784 90.832 C 264.907 90.756,265.085 90.339,265.178 89.906 C 265.639 87.767,267.346 86.007,269.787 85.151 C 270.726 84.822,271.030 84.638,270.638 84.633 C 270.304 84.628,269.483 84.891,268.815 85.217 M275.189 85.239 C 277.964 86.508,278.768 87.870,278.769 91.307 L 278.770 93.982 277.762 95.822 C 276.880 97.433,276.195 98.374,274.772 99.934 C 274.571 100.154,273.310 101.531,271.969 102.994 C 269.656 105.516,268.788 106.762,269.115 107.088 C 269.370 107.344,277.407 107.251,277.568 106.991 C 277.651 106.857,277.923 106.748,278.172 106.748 C 278.643 106.748,280.122 105.431,280.122 105.013 C 280.122 104.881,280.231 104.841,280.365 104.924 C 280.752 105.163,280.648 106.072,280.122 107.054 C 279.854 107.553,279.638 108.154,279.641 108.388 C 279.647 108.886,280.480 107.128,280.818 105.905 C 281.223 104.438,280.560 104.276,279.420 105.562 L 278.476 106.626 274.136 106.626 C 269.235 106.626,269.055 106.549,270.450 105.046 C 270.884 104.578,271.952 103.428,272.823 102.492 C 278.183 96.730,279.015 95.229,279.022 91.307 C 279.028 88.459,278.671 87.383,277.347 86.253 C 276.670 85.674,274.625 84.615,274.233 84.640 C 274.061 84.651,274.492 84.921,275.189 85.239 M141.702 88.196 C 142.003 88.254,142.495 88.254,142.796 88.196 C 143.097 88.138,142.851 88.091,142.249 88.091 C 141.647 88.091,141.401 88.138,141.702 88.196 M138.732 88.797 C 136.993 89.714,135.239 91.826,134.850 93.472 C 134.533 94.814,135.195 94.623,136.886 92.885 C 137.905 91.837,138.809 91.137,139.341 90.984 C 140.111 90.764,140.127 90.741,139.531 90.721 C 139.173 90.709,138.735 90.837,138.558 91.006 C 138.382 91.175,137.946 91.500,137.589 91.728 C 137.233 91.955,136.588 92.634,136.155 93.236 C 135.723 93.839,135.276 94.273,135.161 94.202 C 134.891 94.035,135.186 92.865,135.603 92.447 C 135.781 92.269,135.927 91.984,135.927 91.813 C 135.927 91.099,138.029 89.393,139.588 88.841 C 140.801 88.413,140.990 88.287,140.426 88.288 C 140.024 88.289,139.262 88.518,138.732 88.797 M144.642 88.814 C 146.728 89.882,147.595 91.152,147.627 93.186 C 147.651 94.699,147.681 94.818,147.838 94.006 C 147.938 93.484,147.987 92.883,147.946 92.669 C 147.669 91.226,147.510 90.858,146.828 90.081 C 146.079 89.228,144.520 88.264,143.900 88.271 C 143.728 88.273,144.061 88.517,144.642 88.814 M142.128 90.906 C 144.226 91.588,145.136 93.773,144.320 96.170 C 144.157 96.650,144.160 96.650,144.539 96.185 C 145.055 95.552,145.069 93.067,144.559 92.644 C 144.359 92.478,144.195 92.240,144.195 92.117 C 144.195 91.675,142.846 90.715,142.249 90.731 C 141.719 90.745,141.703 90.768,142.128 90.906 M147.356 95.562 C 147.356 95.830,147.272 96.049,147.170 96.049 C 147.068 96.049,146.520 96.644,145.952 97.371 L 144.919 98.694 146.198 99.545 C 147.424 100.360,147.612 100.577,148.244 101.903 C 149.270 104.056,149.139 107.297,147.933 109.607 C 147.383 110.660,145.522 112.584,145.053 112.584 C 144.911 112.584,144.359 112.823,143.826 113.115 C 142.423 113.885,135.849 113.955,135.300 113.206 C 133.944 111.354,136.461 110.066,138.422 111.608 C 138.742 111.861,139.298 112.141,139.657 112.231 C 140.015 112.321,140.369 112.492,140.442 112.611 C 140.925 113.392,145.167 111.713,145.167 110.740 C 145.167 110.638,145.340 110.364,145.550 110.132 C 145.761 109.899,146.066 109.064,146.228 108.278 C 146.952 104.767,145.322 102.296,141.700 101.413 C 139.240 100.812,138.723 100.523,139.699 100.292 C 141.010 99.982,144.195 97.595,144.195 96.923 C 144.195 96.833,143.729 97.213,143.161 97.767 C 141.857 99.038,140.633 99.828,139.629 100.049 C 137.935 100.421,138.571 101.259,140.793 101.583 C 144.626 102.142,146.025 103.602,146.007 107.025 C 145.983 111.678,142.830 113.535,138.579 111.400 C 136.063 110.137,134.468 110.315,134.468 111.860 C 134.468 115.047,142.322 115.071,146.337 111.896 C 150.400 108.685,150.179 101.230,145.954 98.994 C 145.294 98.645,145.487 98.132,146.785 96.785 C 147.478 96.067,147.879 95.076,147.477 95.076 C 147.410 95.076,147.356 95.295,147.356 95.562 M220.547 97.219 C 220.073 97.312,221.259 97.388,223.222 97.390 C 228.136 97.396,230.607 98.677,232.249 102.069 C 232.531 102.650,232.822 103.064,232.898 102.989 C 233.068 102.819,232.093 101.032,231.318 100.093 C 230.679 99.318,229.529 98.488,228.056 97.736 C 227.006 97.200,222.291 96.875,220.547 97.219 M352.948 97.226 C 348.631 97.700,345.358 101.139,345.308 105.251 C 345.269 108.390,345.999 109.838,349.414 113.402 L 351.246 115.315 350.152 116.198 C 346.634 119.040,345.007 121.448,345.088 123.693 L 345.131 124.863 345.219 123.769 C 345.268 123.167,345.468 122.330,345.663 121.909 C 345.859 121.487,346.018 121.039,346.018 120.912 C 346.018 120.786,346.248 120.419,346.530 120.098 C 346.811 119.777,347.166 119.348,347.320 119.145 C 347.473 118.943,348.447 118.022,349.483 117.098 C 351.783 115.050,351.794 115.346,349.332 112.917 C 346.843 110.461,346.164 109.337,345.780 107.036 C 345.229 103.739,346.608 100.103,348.754 99.191 C 349.122 99.035,349.422 98.811,349.422 98.694 C 349.422 98.576,349.561 98.480,349.730 98.480 C 349.899 98.480,350.474 98.246,351.007 97.961 C 352.294 97.271,358.823 97.145,359.563 97.796 C 359.803 98.007,360.267 98.261,360.593 98.361 C 363.722 99.317,365.686 106.220,363.502 108.587 C 363.248 108.863,363.040 109.169,363.040 109.267 C 363.040 109.537,361.880 110.513,360.186 111.670 C 358.151 113.059,358.029 113.466,359.366 114.407 C 365.130 118.469,367.540 125.583,364.356 129.138 C 364.167 129.349,364.012 129.604,364.012 129.704 C 364.012 130.010,362.001 131.782,361.471 131.943 C 361.197 132.026,360.809 132.236,360.608 132.410 C 359.313 133.532,351.389 133.521,350.145 132.395 C 349.927 132.198,349.575 132.036,349.362 132.036 C 349.149 132.036,348.289 131.353,347.450 130.517 C 346.310 129.380,346.075 129.218,346.519 129.874 C 350.739 136.112,363.137 134.485,365.464 127.388 C 366.988 122.738,365.396 119.106,359.758 114.366 L 358.552 113.352 359.033 112.820 C 359.297 112.528,359.933 112.075,360.446 111.813 C 366.140 108.907,366.104 100.896,360.385 97.929 C 359.013 97.217,355.793 96.913,352.948 97.226 M217.612 98.595 C 215.021 100.318,213.285 103.109,212.669 106.541 C 212.281 108.702,213.827 108.507,214.895 106.261 C 218.231 99.241,227.161 99.888,228.332 107.234 L 228.506 108.328 228.539 107.081 C 228.561 106.238,228.454 105.737,228.207 105.532 C 228.006 105.365,227.842 105.098,227.842 104.938 C 227.842 102.778,222.552 100.389,219.733 101.276 C 217.504 101.977,214.468 104.975,214.468 106.475 C 214.468 106.872,213.346 107.976,213.146 107.776 C 212.633 107.263,213.704 103.115,214.609 102.109 C 214.799 101.897,214.954 101.596,214.954 101.440 C 214.954 101.283,215.066 101.155,215.203 101.155 C 215.339 101.155,215.565 100.909,215.703 100.608 C 215.972 100.025,217.557 98.785,218.627 98.322 C 219.259 98.048,219.796 97.496,219.406 97.520 C 219.298 97.527,218.491 98.010,217.612 98.595 M354.468 98.895 C 354.769 98.953,355.261 98.953,355.562 98.895 C 355.863 98.837,355.617 98.790,355.015 98.790 C 354.413 98.790,354.167 98.837,354.468 98.895 M352.287 99.271 C 352.104 99.438,351.741 99.693,351.479 99.838 C 349.706 100.819,348.798 104.462,349.909 106.140 C 350.487 107.012,350.524 106.873,350.030 105.691 C 349.000 103.225,350.816 99.603,353.313 99.144 L 353.921 99.033 353.270 99.000 C 352.911 98.981,352.469 99.103,352.287 99.271 M356.717 99.178 C 358.328 99.585,359.781 101.084,360.400 102.979 C 360.536 103.394,360.563 103.371,360.584 102.826 C 360.597 102.475,360.444 102.051,360.243 101.884 C 360.043 101.718,359.878 101.440,359.878 101.266 C 359.878 100.653,357.621 98.968,356.839 98.997 C 356.144 99.023,356.139 99.031,356.717 99.178 M233.030 106.505 C 233.033 108.310,233.071 109.568,233.116 109.301 C 233.160 109.033,233.305 108.267,233.438 107.599 C 233.614 106.707,233.592 105.962,233.352 104.802 L 233.025 103.222 233.030 106.505 M360.562 105.167 C 360.320 107.798,358.616 110.418,356.599 111.261 C 355.505 111.718,353.877 110.756,351.730 108.383 C 350.996 107.572,350.395 107.017,350.395 107.151 C 350.395 107.532,353.073 110.395,353.429 110.395 C 353.604 110.395,353.810 110.559,353.887 110.760 C 353.964 110.960,354.181 111.125,354.370 111.125 C 354.558 111.125,354.849 111.289,355.015 111.489 C 355.383 111.933,356.353 111.964,356.886 111.550 C 357.971 110.706,359.878 108.682,359.878 108.374 C 359.878 108.181,360.036 107.893,360.228 107.733 C 360.608 107.417,360.946 105.343,360.806 104.187 C 360.755 103.770,360.652 104.184,360.562 105.167 M228.374 110.063 C 228.349 110.750,228.165 111.626,227.965 112.009 C 227.765 112.392,227.601 112.868,227.600 113.066 C 227.599 113.265,227.823 113.009,228.097 112.499 C 228.474 111.794,228.573 111.238,228.507 110.192 L 228.420 108.815 228.374 110.063 M117.252 109.410 C 118.812 109.714,119.730 111.099,120.022 113.591 C 120.315 116.097,121.249 116.425,122.553 114.478 C 123.843 112.554,125.707 110.653,126.929 110.016 C 127.531 109.702,127.873 109.440,127.688 109.434 C 126.712 109.401,123.535 112.270,122.266 114.330 C 121.302 115.894,120.570 115.484,120.235 113.191 C 119.865 110.665,118.630 109.138,117.010 109.207 C 116.472 109.230,116.516 109.267,117.252 109.410 M248.268 109.396 C 249.463 109.604,250.065 110.103,250.644 111.368 C 250.919 111.970,251.154 112.268,251.165 112.032 C 251.226 110.753,249.559 109.157,248.223 109.214 L 247.416 109.248 248.268 109.396 M258.967 109.391 C 257.442 109.776,255.453 111.531,253.626 114.103 C 252.462 115.741,251.872 115.585,251.426 113.521 C 251.199 112.470,251.199 112.472,251.309 113.799 C 251.499 116.091,252.454 116.357,253.711 114.468 C 255.747 111.410,258.790 109.142,260.338 109.531 C 261.275 109.766,262.128 110.652,262.128 111.390 C 262.128 112.520,260.265 113.758,259.562 113.095 C 258.202 111.811,256.323 112.930,254.087 116.354 C 252.429 118.895,252.286 119.249,252.599 120.049 C 252.745 120.423,252.916 121.003,252.977 121.337 C 253.039 121.672,253.038 121.234,252.974 120.365 C 252.840 118.556,254.155 115.997,256.316 113.860 C 257.477 112.711,257.635 112.670,258.882 113.191 C 261.307 114.205,263.600 111.824,261.824 110.138 C 260.899 109.261,260.201 109.078,258.967 109.391 M377.630 109.396 C 378.845 109.607,379.476 110.139,379.966 111.364 C 380.202 111.953,380.435 112.312,380.485 112.162 C 380.834 111.115,378.946 109.161,377.636 109.214 L 376.778 109.248 377.630 109.396 M114.286 109.803 C 113.818 109.980,113.225 110.131,112.970 110.138 C 112.714 110.146,112.012 110.441,111.409 110.794 C 110.209 111.497,110.427 112.139,111.840 112.064 L 112.462 112.031 111.854 111.922 C 110.425 111.666,111.458 110.628,113.483 110.286 C 114.852 110.055,116.545 109.438,115.745 109.462 C 115.410 109.472,114.754 109.625,114.286 109.803 M130.030 109.970 C 130.460 110.271,130.827 110.736,130.845 111.003 C 130.874 111.443,130.888 111.447,130.992 111.042 C 131.126 110.525,130.196 109.422,129.627 109.422 C 129.402 109.422,129.566 109.646,130.030 109.970 M245.836 109.663 C 245.635 109.791,244.923 110.011,244.253 110.151 C 241.294 110.769,241.032 112.220,243.928 111.948 C 246.299 111.725,246.681 112.276,247.660 117.325 C 247.841 118.261,248.107 119.335,248.250 119.712 C 248.723 120.955,247.798 123.357,246.314 124.742 C 246.242 124.809,245.784 125.465,245.295 126.201 C 243.188 129.372,242.410 129.890,240.438 129.435 C 236.707 128.573,235.161 132.275,238.800 133.356 C 241.304 134.100,242.622 133.185,246.434 128.059 C 248.947 124.679,249.155 124.487,249.465 125.261 C 249.614 125.632,249.701 125.695,249.711 125.440 C 249.775 123.805,248.158 125.009,246.079 128.144 C 243.001 132.788,239.232 134.616,237.565 132.275 C 236.159 130.301,238.350 128.762,241.002 129.860 C 242.239 130.373,243.167 129.636,245.530 126.266 C 245.696 126.029,246.325 125.188,246.928 124.395 C 247.531 123.603,248.024 122.821,248.024 122.658 C 248.024 122.495,248.188 122.299,248.389 122.222 C 248.866 122.039,248.877 120.158,248.409 119.037 C 248.219 118.583,247.986 117.574,247.891 116.795 C 247.797 116.017,247.569 115.084,247.385 114.723 C 247.202 114.362,247.052 113.834,247.052 113.550 C 247.052 112.378,245.713 111.529,244.127 111.695 C 241.410 111.979,242.033 110.737,244.841 110.273 C 246.310 110.031,247.688 109.444,246.809 109.436 C 246.474 109.433,246.036 109.535,245.836 109.663 M375.198 109.663 C 374.997 109.791,374.285 110.011,373.615 110.151 C 371.354 110.623,370.307 112.131,372.280 112.072 C 372.795 112.056,372.761 112.017,372.057 111.815 L 371.226 111.576 372.178 111.013 C 372.702 110.704,373.613 110.371,374.202 110.273 C 375.672 110.031,377.050 109.444,376.170 109.436 C 375.836 109.433,375.398 109.535,375.198 109.663 M386.860 110.015 C 385.855 110.675,383.363 113.328,382.677 114.468 C 381.898 115.762,381.196 115.410,380.788 113.521 C 380.561 112.470,380.560 112.472,380.671 113.799 C 380.861 116.091,381.816 116.357,383.073 114.468 C 384.311 112.608,386.343 110.595,387.599 109.985 C 388.278 109.654,388.509 109.452,388.207 109.452 C 387.939 109.451,387.333 109.705,386.860 110.015 M390.716 110.113 C 392.520 111.724,390.881 113.786,388.452 112.961 C 386.730 112.377,385.763 112.905,384.073 115.355 C 381.985 118.382,381.431 119.683,381.987 120.255 C 382.111 120.382,382.255 120.815,382.308 121.216 C 382.361 121.617,382.397 121.125,382.387 120.122 C 382.371 118.318,382.384 118.278,383.612 116.474 C 385.878 113.144,386.713 112.552,388.244 113.191 C 390.075 113.957,391.733 113.086,391.733 111.359 C 391.733 110.686,390.714 109.422,390.171 109.422 C 390.046 109.422,390.291 109.733,390.716 110.113 M36.474 110.023 C 36.675 110.077,37.359 110.189,37.994 110.273 C 39.442 110.463,39.444 110.675,38.004 111.429 C 37.192 111.855,36.806 112.230,36.675 112.721 C 36.483 113.436,36.531 113.569,38.322 117.325 C 38.768 118.261,39.246 119.301,39.384 119.635 C 39.521 119.970,39.738 120.407,39.864 120.608 C 39.990 120.809,40.602 122.040,41.223 123.343 C 41.845 124.647,42.497 125.714,42.673 125.714 C 43.019 125.714,44.255 123.773,44.255 123.230 C 44.255 123.048,44.474 122.470,44.742 121.945 C 45.009 121.421,45.228 120.809,45.228 120.586 C 45.228 120.363,45.381 120.054,45.567 119.900 C 45.754 119.745,45.981 119.223,46.071 118.741 C 46.162 118.258,46.392 117.707,46.583 117.516 C 46.774 117.325,46.930 116.935,46.930 116.649 C 46.930 116.261,46.806 116.372,46.444 117.082 C 46.176 117.607,45.957 118.138,45.957 118.262 C 45.957 118.386,45.752 118.937,45.500 119.487 C 45.017 120.544,44.237 122.432,43.782 123.647 C 43.632 124.049,43.300 124.650,43.044 124.985 L 42.580 125.593 42.198 124.742 C 41.988 124.274,41.716 123.726,41.593 123.526 C 41.344 123.120,39.185 118.615,37.819 115.651 C 36.656 113.129,36.711 112.391,38.109 111.742 C 39.976 110.874,39.746 110.178,37.542 110.024 C 36.754 109.970,36.274 109.969,36.474 110.023 M46.505 110.080 C 45.668 110.242,45.800 111.082,46.722 111.470 C 47.143 111.647,47.632 112.052,47.808 112.370 C 47.984 112.688,48.133 112.826,48.137 112.677 C 48.153 112.187,47.148 111.125,46.669 111.125 C 46.031 111.125,46.074 110.485,46.723 110.315 C 47.010 110.240,47.585 110.226,48.000 110.284 C 48.687 110.379,48.700 110.370,48.146 110.173 C 47.476 109.935,47.307 109.926,46.505 110.080 M49.263 110.228 C 49.461 110.339,50.193 110.328,50.890 110.205 L 52.158 109.980 50.531 110.004 C 49.532 110.018,49.042 110.105,49.263 110.228 M232.733 110.305 C 232.718 110.589,232.541 110.958,232.340 111.125 C 232.140 111.291,231.976 111.673,231.976 111.973 C 231.976 112.273,231.757 112.796,231.489 113.136 C 231.222 113.476,231.003 113.824,231.003 113.908 C 231.003 114.195,228.704 117.249,227.599 118.431 C 225.409 120.772,221.630 124.870,220.774 125.829 C 220.181 126.495,219.481 127.221,219.218 127.443 C 218.599 127.965,219.075 128.646,220.030 128.603 C 220.656 128.575,220.654 128.572,219.953 128.421 C 218.830 128.180,218.584 128.534,223.708 123.024 C 229.271 117.043,232.219 113.280,232.219 112.159 C 232.219 111.982,232.392 111.573,232.604 111.250 C 232.815 110.927,232.938 110.465,232.875 110.225 C 232.781 109.863,232.757 109.876,232.733 110.305 M28.575 110.390 C 28.320 110.802,28.922 111.599,29.751 111.945 C 31.173 112.539,31.816 113.628,36.229 122.918 C 38.332 127.343,38.525 127.706,38.625 127.409 C 38.673 127.264,38.537 126.951,38.323 126.715 C 38.108 126.478,37.933 126.190,37.933 126.076 C 37.933 125.961,37.720 125.423,37.459 124.879 C 37.199 124.335,36.871 123.617,36.730 123.283 C 36.590 122.948,36.377 122.511,36.256 122.310 C 36.136 122.109,35.580 120.960,35.023 119.757 C 34.465 118.553,33.906 117.404,33.782 117.204 C 33.657 117.003,33.444 116.565,33.308 116.231 C 33.031 115.549,32.099 113.807,31.812 113.435 C 31.137 112.560,30.426 111.854,30.218 111.854 C 29.288 111.854,28.413 110.483,29.240 110.324 C 29.787 110.218,29.787 110.218,29.254 110.185 C 28.961 110.167,28.655 110.259,28.575 110.390 M52.705 110.311 C 53.423 110.466,53.396 110.760,52.615 111.296 C 51.508 112.054,50.336 113.416,50.355 113.921 C 50.368 114.274,50.411 114.308,50.513 114.043 C 50.834 113.207,51.960 112.003,52.716 111.687 C 53.727 111.265,53.760 110.299,52.766 110.234 C 52.230 110.199,52.223 110.208,52.705 110.311 M53.838 111.216 C 53.767 111.402,53.874 111.951,54.077 112.436 L 54.445 113.317 67.396 113.254 L 80.346 113.191 80.720 112.525 C 81.005 112.017,81.030 111.756,80.825 111.431 C 80.455 110.845,54.061 110.635,53.838 111.216 M80.486 111.978 L 80.486 112.831 67.420 112.768 C 55.036 112.708,54.349 112.682,54.268 112.265 C 54.041 111.084,53.568 111.125,67.470 111.125 L 80.486 111.125 80.486 111.978 M113.465 111.787 C 115.045 111.932,115.954 113.679,116.599 117.812 C 116.683 118.347,116.908 119.253,117.099 119.826 C 117.595 121.311,117.624 121.227,115.646 124.021 C 111.819 129.426,111.414 129.831,110.030 129.635 L 109.544 129.566 110.030 129.934 C 110.830 130.541,112.412 129.238,114.211 126.493 C 114.711 125.730,115.260 125.019,115.432 124.912 C 115.604 124.805,115.745 124.576,115.745 124.403 C 115.745 124.229,115.964 123.889,116.231 123.647 C 116.498 123.405,116.717 123.105,116.717 122.979 C 116.717 122.854,116.945 122.462,117.223 122.109 C 117.752 121.436,117.721 119.873,117.158 118.820 C 117.025 118.572,116.817 117.669,116.696 116.812 C 116.575 115.955,116.368 115.063,116.237 114.831 C 116.106 114.598,115.884 113.946,115.743 113.383 C 115.429 112.122,114.730 111.598,113.441 111.653 L 112.462 111.696 113.465 111.787 M130.821 111.930 C 130.821 112.833,129.369 113.389,128.090 112.976 C 126.090 112.330,125.132 112.869,123.336 115.648 C 122.912 116.303,122.465 116.959,122.342 117.105 C 121.447 118.170,121.274 118.982,121.575 120.715 C 121.946 122.856,122.614 125.168,122.746 124.772 C 122.800 124.608,122.726 124.178,122.580 123.817 C 121.067 120.079,121.709 117.527,125.085 113.860 C 126.108 112.749,126.641 112.616,127.748 113.193 C 128.765 113.723,129.642 113.639,130.398 112.938 C 130.977 112.401,131.301 111.611,130.942 111.611 C 130.875 111.611,130.821 111.754,130.821 111.930 M374.022 111.835 C 375.248 112.006,376.147 112.785,376.162 113.687 C 376.175 114.469,377.124 116.957,377.133 116.231 C 377.137 115.897,376.976 115.310,376.777 114.927 C 376.577 114.544,376.413 113.977,376.413 113.669 C 376.413 112.556,375.292 111.607,374.021 111.643 L 372.888 111.676 374.022 111.835 M47.690 113.678 C 47.664 114.079,47.486 114.681,47.295 115.015 C 46.759 115.952,46.875 116.209,47.437 115.331 C 47.766 114.817,47.902 114.280,47.836 113.751 L 47.737 112.948 47.690 113.678 M227.025 114.512 C 225.602 117.467,223.866 119.632,217.703 126.139 C 212.713 131.407,212.475 131.694,212.565 132.329 L 212.644 132.888 222.614 132.955 C 233.691 133.030,233.556 133.040,233.790 132.108 C 233.882 131.744,234.167 130.983,234.425 130.417 C 234.683 129.851,234.894 129.308,234.894 129.209 C 234.894 129.110,235.120 128.562,235.396 127.991 C 236.741 125.213,235.866 124.364,233.859 126.501 C 232.235 128.229,231.980 128.345,229.544 128.462 C 227.971 128.538,227.973 128.539,229.880 128.585 C 232.156 128.641,232.893 128.288,234.366 126.438 C 234.888 125.782,235.385 125.314,235.469 125.399 C 235.780 125.709,235.610 126.957,235.137 127.839 C 234.869 128.338,234.650 128.892,234.650 129.070 C 234.650 129.248,234.514 129.633,234.347 129.925 C 234.179 130.217,233.878 130.948,233.678 131.550 L 233.313 132.644 223.012 132.708 L 212.712 132.771 212.880 132.100 C 212.973 131.731,213.231 131.255,213.454 131.044 C 213.678 130.832,214.862 129.573,216.087 128.247 C 217.311 126.921,219.007 125.106,219.856 124.215 C 222.196 121.755,222.791 121.092,223.991 119.610 C 225.247 118.058,226.869 115.671,226.869 115.374 C 226.869 115.265,227.043 114.983,227.255 114.748 C 227.468 114.514,227.604 114.153,227.559 113.947 C 227.509 113.718,227.301 113.937,227.025 114.512 M49.784 115.226 C 49.552 115.619,49.362 116.139,49.362 116.381 C 49.362 116.632,49.570 116.411,49.850 115.863 C 50.435 114.714,50.384 114.211,49.784 115.226 M352.919 117.052 C 352.040 117.541,350.372 119.479,350.229 120.177 C 350.154 120.542,349.942 120.965,349.758 121.119 C 349.573 121.272,349.435 121.739,349.451 122.157 C 349.478 122.872,349.490 122.881,349.644 122.310 C 350.341 119.721,352.557 117.040,353.795 117.288 C 356.898 117.909,361.337 123.075,361.337 126.066 C 361.337 133.353,350.444 133.252,349.599 125.957 C 349.513 125.217,349.495 125.253,349.461 126.232 C 349.437 126.941,349.548 127.461,349.763 127.640 C 349.951 127.795,350.176 128.219,350.264 128.581 C 350.507 129.584,352.460 131.236,353.776 131.553 C 354.391 131.701,355.138 131.883,355.436 131.957 C 356.190 132.144,358.674 131.359,359.454 130.688 C 363.180 127.484,361.946 122.284,356.596 118.640 C 355.927 118.184,355.325 117.745,355.258 117.663 C 355.121 117.495,353.619 116.705,353.508 116.741 C 353.467 116.754,353.203 116.894,352.919 117.052 M48.763 117.871 C 48.525 118.373,48.179 119.094,47.995 119.473 C 47.810 119.851,47.660 120.291,47.660 120.449 C 47.660 120.607,47.441 121.145,47.173 121.644 C 46.906 122.143,46.687 122.690,46.687 122.860 C 46.687 123.030,46.468 123.577,46.201 124.076 C 45.933 124.575,45.714 125.108,45.714 125.261 C 45.714 125.524,45.542 125.934,44.286 128.659 C 44.002 129.275,43.769 129.908,43.769 130.066 C 43.769 130.223,43.595 130.618,43.381 130.943 C 43.168 131.268,43.036 131.661,43.088 131.816 C 43.139 131.971,43.380 131.619,43.623 131.033 C 43.866 130.448,44.272 129.520,44.525 128.970 C 44.778 128.421,44.985 127.813,44.985 127.621 C 44.985 127.428,45.085 127.167,45.207 127.040 C 45.329 126.912,45.831 125.769,46.322 124.498 C 46.813 123.228,47.315 122.084,47.437 121.957 C 47.560 121.830,47.660 121.573,47.660 121.386 C 47.660 121.199,47.815 120.701,48.004 120.280 C 49.264 117.480,49.887 115.504,48.763 117.871 M377.171 117.469 C 377.155 117.815,377.306 118.636,377.505 119.293 C 378.048 121.083,377.341 123.188,375.676 124.742 C 375.604 124.809,375.147 125.465,374.661 126.201 C 372.467 129.516,371.829 129.913,369.524 129.395 C 366.000 128.602,364.705 132.231,368.109 133.362 C 370.557 134.175,371.975 133.197,375.795 128.059 C 378.309 124.679,378.517 124.487,378.827 125.261 C 378.976 125.632,379.063 125.695,379.073 125.440 C 379.129 123.989,377.936 124.597,376.413 126.795 C 375.109 128.677,374.267 129.729,372.766 131.350 C 370.807 133.465,368.084 133.900,366.932 132.282 C 365.509 130.284,367.444 128.894,370.323 129.844 C 371.590 130.262,372.166 129.903,373.901 127.610 C 376.196 124.577,377.386 122.869,377.386 122.607 C 377.386 122.472,377.550 122.299,377.751 122.222 C 378.196 122.051,378.249 120.240,377.839 119.226 C 377.687 118.849,377.480 118.158,377.381 117.690 C 377.230 116.985,377.194 116.947,377.171 117.469 M166.748 117.708 C 166.425 117.897,166.322 118.277,166.322 119.277 C 166.322 121.483,165.297 121.351,181.784 121.279 L 196.109 121.216 196.149 120.608 C 196.184 120.072,196.175 120.065,196.072 120.547 L 195.954 121.094 181.654 121.094 C 165.534 121.094,166.733 121.255,166.856 119.108 L 166.930 117.812 181.442 117.749 C 195.836 117.687,195.954 117.690,196.064 118.178 C 196.156 118.591,196.169 118.581,196.142 118.119 L 196.109 117.568 181.641 117.514 C 172.114 117.478,167.028 117.544,166.748 117.708 M297.933 117.607 C 297.391 117.827,297.532 120.782,298.100 121.086 C 298.900 121.514,326.919 121.426,327.277 120.994 C 327.449 120.787,327.533 120.036,327.489 119.109 L 327.416 117.568 312.827 117.526 C 304.802 117.502,298.100 117.539,297.933 117.607 M327.245 119.331 L 327.173 120.973 312.948 121.031 C 297.472 121.094,298.118 121.158,297.937 119.555 C 297.707 117.517,296.339 117.690,312.709 117.690 L 327.317 117.690 327.245 119.331 M54.705 118.983 C 54.027 119.320,53.769 120.424,54.237 120.987 C 54.695 121.539,80.037 121.508,80.591 120.955 C 81.076 120.470,81.076 119.891,80.591 119.198 L 80.209 118.653 67.758 118.669 C 58.439 118.681,55.155 118.760,54.705 118.983 M80.365 120.122 L 80.365 120.973 67.405 121.024 C 53.317 121.079,53.977 121.143,54.325 119.754 L 54.478 119.145 67.422 119.208 L 80.365 119.271 80.365 120.122 M253.144 122.630 C 253.137 123.007,253.258 123.553,253.414 123.843 C 253.569 124.134,253.831 125.085,253.996 125.955 C 254.501 128.621,255.399 130.334,256.294 130.334 C 256.469 130.334,258.228 128.610,259.271 127.417 C 260.507 126.002,260.463 127.480,259.215 129.293 C 256.930 132.613,255.335 133.603,253.196 133.027 C 251.780 132.645,251.173 131.577,250.660 128.565 C 250.528 127.792,250.265 126.862,250.075 126.498 C 249.609 125.604,249.621 126.376,250.091 127.500 C 250.292 127.981,250.456 128.649,250.456 128.987 C 250.456 132.902,254.337 134.839,257.109 132.307 C 258.317 131.204,260.426 128.182,260.426 127.555 C 260.426 126.218,259.394 126.487,258.295 128.111 C 256.671 130.509,255.559 130.321,254.648 127.493 C 254.348 126.562,254.102 125.590,254.100 125.332 C 254.093 124.497,253.159 121.855,253.144 122.630 M382.509 122.630 C 382.500 123.007,382.620 123.553,382.775 123.843 C 382.931 124.134,383.193 125.085,383.358 125.955 C 383.859 128.604,384.761 130.334,385.642 130.334 C 385.918 130.334,387.923 128.345,388.399 127.599 C 388.895 126.822,389.544 126.714,389.544 127.409 C 389.544 128.938,386.064 132.700,384.327 133.049 C 381.800 133.556,380.659 132.369,380.019 128.565 C 379.888 127.792,379.627 126.862,379.437 126.498 C 378.970 125.604,378.983 126.376,379.453 127.500 C 379.653 127.981,379.818 128.649,379.818 128.987 C 379.818 132.902,383.699 134.839,386.471 132.307 C 387.679 131.204,389.787 128.182,389.787 127.555 C 389.787 126.242,388.752 126.483,387.720 128.035 C 385.763 130.982,384.271 130.063,383.460 125.412 C 383.125 123.487,382.530 121.747,382.509 122.630 M116.480 126.018 C 111.116 132.937,111.218 132.832,109.628 133.110 C 107.330 133.512,105.671 132.418,106.105 130.786 C 106.405 129.655,106.649 129.503,108.131 129.521 C 109.387 129.536,109.449 129.515,108.693 129.334 C 106.355 128.776,104.844 130.787,106.254 132.580 C 107.889 134.658,110.904 133.696,113.614 130.230 C 114.944 128.529,114.776 128.751,116.353 126.626 C 117.655 124.872,118.180 124.674,118.444 125.837 C 118.972 128.168,119.360 129.246,119.376 128.426 C 119.385 127.978,119.238 127.267,119.050 126.845 C 118.862 126.424,118.641 125.778,118.559 125.410 C 118.324 124.357,117.605 124.568,116.480 126.018 M345.085 126.141 C 345.061 126.776,345.233 127.525,345.532 128.082 C 346.090 129.124,346.195 128.724,345.665 127.575 C 345.471 127.153,345.269 126.426,345.218 125.957 C 345.129 125.157,345.121 125.168,345.085 126.141 M122.816 125.989 C 122.805 126.340,123.054 127.314,123.369 128.152 C 124.350 130.762,125.358 130.844,127.187 128.463 C 128.298 127.016,128.386 126.930,128.763 126.930 C 129.204 126.930,129.244 128.042,128.814 128.316 C 128.646 128.423,128.181 128.999,127.780 129.596 C 125.926 132.356,124.145 133.482,122.206 133.118 C 121.246 132.938,120.365 132.205,120.365 131.587 C 120.365 131.350,120.204 130.944,120.008 130.685 C 119.811 130.425,119.635 129.994,119.615 129.726 C 119.590 129.388,119.548 129.354,119.477 129.616 C 119.286 130.325,120.544 132.720,121.318 133.121 C 123.467 134.232,125.822 133.029,128.040 129.687 C 128.506 128.985,128.994 128.344,129.124 128.264 C 129.436 128.071,129.430 127.001,129.116 126.807 C 128.648 126.518,127.997 126.938,127.110 128.101 C 125.299 130.475,124.377 130.348,123.534 127.608 C 123.235 126.633,122.955 125.726,122.912 125.593 C 122.870 125.459,122.826 125.637,122.816 125.989 M38.663 127.957 C 38.663 128.032,39.046 128.867,39.514 129.815 C 40.499 131.809,40.539 132.200,39.878 133.432 C 39.611 133.931,39.391 134.450,39.390 134.586 C 39.389 134.722,39.142 135.325,38.843 135.927 C 37.497 138.630,36.572 139.315,34.903 138.848 C 34.341 138.690,33.562 138.609,33.172 138.667 C 32.615 138.749,32.682 138.780,33.481 138.809 C 34.042 138.829,34.568 138.954,34.650 139.088 C 35.203 139.982,38.612 138.245,38.655 137.048 C 38.659 136.929,38.881 136.354,39.149 135.771 C 39.416 135.188,39.854 134.234,40.122 133.651 C 40.794 132.186,40.738 131.592,39.750 129.697 C 38.907 128.080,38.663 127.688,38.663 127.957 M221.945 128.567 C 222.514 128.618,223.444 128.618,224.012 128.567 C 224.581 128.516,224.116 128.474,222.979 128.474 C 221.842 128.474,221.377 128.516,221.945 128.567 M226.079 128.561 C 226.380 128.619,226.872 128.619,227.173 128.561 C 227.474 128.503,227.228 128.455,226.626 128.455 C 226.024 128.455,225.778 128.503,226.079 128.561 M42.492 133.164 C 42.258 133.625,42.067 134.136,42.067 134.299 C 42.067 134.463,41.848 135.005,41.581 135.504 C 41.313 136.003,41.094 136.532,41.094 136.678 C 41.094 136.825,40.875 137.223,40.608 137.563 C 40.340 137.903,40.122 138.346,40.122 138.547 C 40.122 139.074,38.220 141.330,37.086 142.149 C 33.278 144.899,28.838 143.403,30.390 139.894 C 30.796 138.976,30.954 138.841,31.658 138.817 C 32.106 138.801,32.265 138.738,32.017 138.674 C 30.345 138.242,29.146 140.402,30.051 142.217 C 31.807 145.737,38.057 143.435,40.529 138.359 C 41.797 135.754,42.310 134.574,42.310 134.261 C 42.310 134.098,42.484 133.698,42.698 133.373 C 42.911 133.048,43.048 132.679,43.002 132.554 C 42.956 132.429,42.726 132.703,42.492 133.164 " stroke="none" fill="#747474" fill-rule="evenodd"></path><path id="path4" d="M269.787 84.347 C 267.792 84.866,265.483 86.971,264.916 88.790 C 264.817 89.104,264.588 89.578,264.405 89.841 C 264.004 90.420,263.966 92.197,264.346 92.577 C 264.797 93.028,266.261 92.223,266.261 91.523 C 266.261 90.498,268.270 88.478,269.515 88.251 C 271.568 87.875,272.930 88.222,274.061 89.409 L 275.087 90.485 275.079 92.852 C 275.072 94.785,274.976 95.393,274.556 96.177 C 274.274 96.704,274.043 97.224,274.043 97.331 C 274.043 97.801,271.691 100.775,269.490 103.090 C 262.015 110.948,261.845 110.395,271.737 110.395 C 279.322 110.395,279.748 110.330,280.009 109.133 C 280.105 108.690,280.334 108.112,280.517 107.849 C 280.701 107.585,280.851 107.218,280.851 107.034 C 280.851 106.850,281.028 106.327,281.244 105.871 C 282.059 104.154,280.570 103.749,279.182 105.311 L 278.298 106.305 274.322 106.283 C 269.415 106.255,269.592 106.420,271.906 104.017 C 274.303 101.527,276.474 99.085,276.474 98.879 C 276.474 98.793,276.666 98.518,276.900 98.266 C 277.649 97.460,278.176 96.687,278.176 96.394 C 278.176 96.237,278.329 95.981,278.516 95.827 C 278.702 95.672,279.095 94.520,279.389 93.267 L 279.922 90.989 279.360 89.116 C 278.204 85.267,274.102 83.223,269.787 84.347 M275.623 85.062 C 278.477 86.521,279.675 89.163,279.114 92.762 C 278.657 95.701,277.288 97.787,272.340 103.091 C 268.955 106.720,268.921 106.609,273.435 106.700 C 277.700 106.787,278.631 106.589,279.536 105.402 C 280.225 104.499,280.312 104.456,280.810 104.772 C 281.162 104.995,280.829 106.591,280.220 107.599 C 280.058 107.866,279.851 108.447,279.758 108.890 C 279.504 110.106,279.086 110.166,271.403 110.095 C 263.312 110.020,263.379 110.045,265.450 107.842 C 273.282 99.506,273.082 99.743,274.288 97.412 C 276.661 92.826,275.499 88.363,271.812 87.902 C 269.032 87.555,267.444 88.378,266.287 90.767 C 265.421 92.557,264.138 92.943,264.389 91.339 C 265.219 86.029,271.093 82.747,275.623 85.062 M139.818 88.007 C 137.867 88.396,135.053 91.068,134.658 92.905 C 134.588 93.230,134.451 93.684,134.354 93.915 C 133.981 94.802,135.335 95.018,136.164 94.204 C 136.561 93.814,136.889 93.398,136.893 93.279 C 136.897 93.160,137.091 92.910,137.325 92.723 C 141.229 89.605,145.133 91.417,143.953 95.799 C 143.678 96.821,141.775 98.967,141.143 98.967 C 141.003 98.967,140.752 99.102,140.586 99.268 C 140.420 99.435,139.878 99.684,139.382 99.822 C 137.369 100.385,138.133 101.768,140.553 101.941 C 145.712 102.311,147.624 107.466,143.956 111.122 C 143.131 111.944,140.413 112.146,139.391 111.461 C 136.956 109.828,135.876 109.685,134.650 110.833 C 132.357 112.980,136.795 115.584,140.912 114.506 C 141.447 114.366,142.418 114.154,143.070 114.035 C 143.723 113.916,144.442 113.650,144.670 113.444 C 144.898 113.238,145.204 113.070,145.350 113.070 C 145.900 113.070,148.078 110.803,148.580 109.709 C 148.867 109.083,149.228 108.309,149.384 107.987 C 150.596 105.476,148.655 99.700,146.326 98.889 C 145.855 98.724,145.967 98.147,146.604 97.450 C 146.817 97.217,147.162 96.834,147.372 96.599 C 148.236 95.626,148.612 93.281,148.146 91.769 C 147.181 88.633,143.962 87.180,139.818 88.007 M145.291 88.808 C 148.438 90.820,148.915 94.271,146.458 97.261 C 145.451 98.486,145.399 98.615,145.812 98.842 C 151.000 101.687,150.233 110.478,144.569 113.077 C 141.221 114.614,135.626 114.604,134.827 113.059 C 133.745 110.967,135.531 109.762,137.872 111.005 C 138.474 111.324,139.240 111.722,139.574 111.890 C 142.272 113.241,145.552 111.176,146.004 107.841 C 146.483 104.309,144.730 102.197,140.851 101.634 C 138.981 101.362,138.845 101.303,138.845 100.762 C 138.845 100.437,138.989 100.182,139.174 100.182 C 141.148 100.182,144.681 96.499,144.681 94.440 C 144.681 90.273,139.611 89.589,136.468 93.332 C 134.844 95.266,134.117 94.573,135.339 92.255 C 137.314 88.507,142.182 86.820,145.291 88.808 M222.371 96.559 C 220.010 96.949,218.768 97.289,218.246 97.687 C 217.938 97.923,217.427 98.280,217.110 98.480 C 216.260 99.020,214.468 100.930,214.468 101.298 C 214.468 101.474,214.323 101.705,214.147 101.812 C 213.676 102.097,212.812 104.036,212.623 105.233 C 212.533 105.805,212.364 106.331,212.248 106.403 C 211.759 106.705,212.031 107.971,212.644 108.251 C 213.652 108.710,214.361 108.192,215.223 106.366 C 216.309 104.069,218.211 102.216,219.715 101.991 C 221.470 101.727,224.145 102.053,224.863 102.618 C 225.200 102.883,225.598 103.101,225.747 103.102 C 225.987 103.103,226.259 103.451,227.076 104.802 C 228.490 107.141,228.397 110.857,226.849 113.848 C 226.593 114.342,226.383 114.920,226.383 115.132 C 226.383 115.344,226.223 115.578,226.027 115.653 C 225.832 115.728,225.598 116.024,225.507 116.310 C 225.347 116.815,224.477 118.175,224.157 118.419 C 224.070 118.486,223.467 119.198,222.817 120.000 C 221.633 121.461,220.478 122.731,217.751 125.568 C 211.813 131.745,211.366 132.338,212.190 132.941 C 212.520 133.182,214.949 133.252,223.008 133.252 C 234.006 133.252,234.164 133.237,234.164 132.140 C 234.164 131.948,234.383 131.383,234.650 130.884 C 234.918 130.385,235.137 129.805,235.137 129.594 C 235.137 129.384,235.297 128.999,235.494 128.739 C 235.690 128.480,235.854 128.120,235.859 127.939 C 235.863 127.759,236.045 127.234,236.264 126.772 C 237.249 124.699,235.526 124.010,234.003 125.868 C 232.152 128.128,232.083 128.146,225.415 128.146 C 222.203 128.146,219.574 128.096,219.574 128.035 C 219.574 127.974,220.245 127.236,221.064 126.394 C 222.625 124.790,227.100 119.950,227.419 119.520 C 227.521 119.383,228.104 118.723,228.715 118.055 C 229.989 116.659,232.100 113.593,232.351 112.774 C 232.445 112.469,232.618 112.098,232.736 111.949 C 232.854 111.801,233.169 110.826,233.436 109.783 C 235.062 103.424,232.073 98.048,226.280 96.914 C 223.702 96.410,223.427 96.385,222.371 96.559 M354.407 96.670 C 353.872 96.842,352.978 96.992,352.419 97.003 C 350.347 97.041,346.158 99.981,345.636 101.763 C 345.557 102.030,345.325 102.621,345.119 103.076 C 344.696 104.012,344.763 107.687,345.214 108.250 C 345.356 108.427,345.556 108.843,345.658 109.175 C 345.931 110.064,346.653 111.003,348.727 113.172 C 350.684 115.217,350.838 115.903,349.441 116.347 C 348.762 116.562,346.101 119.334,345.751 120.191 C 345.575 120.621,345.289 121.117,345.117 121.294 C 344.456 121.969,344.700 127.417,345.455 128.873 C 346.163 130.237,347.971 132.172,348.777 132.428 C 349.053 132.515,349.428 132.737,349.611 132.920 C 349.794 133.103,350.160 133.252,350.425 133.252 C 350.689 133.252,351.243 133.427,351.655 133.640 C 353.413 134.549,359.670 133.950,361.309 132.716 C 361.628 132.476,362.016 132.280,362.171 132.280 C 362.541 132.280,364.498 130.279,364.498 129.900 C 364.498 129.737,364.609 129.605,364.745 129.605 C 365.872 129.605,366.850 121.807,365.806 121.146 C 365.655 121.051,365.457 120.625,365.364 120.199 C 365.272 119.774,365.040 119.295,364.848 119.136 C 364.656 118.977,364.498 118.720,364.498 118.565 C 364.498 118.253,362.324 115.959,361.133 115.015 C 360.711 114.681,360.130 114.216,359.842 113.982 C 359.554 113.748,359.198 113.554,359.051 113.552 C 358.904 113.550,359.155 113.222,359.607 112.823 C 360.060 112.424,360.569 112.097,360.737 112.097 C 361.242 112.097,364.231 108.995,364.409 108.287 C 364.499 107.926,364.720 107.350,364.899 107.007 C 365.341 106.161,365.318 103.400,364.862 102.525 C 364.662 102.142,364.498 101.691,364.498 101.522 C 364.498 101.259,363.641 100.213,362.179 98.690 C 361.564 98.050,359.405 97.021,358.676 97.021 C 358.308 97.021,357.688 96.921,357.301 96.798 C 355.983 96.381,355.381 96.355,354.407 96.670 M228.679 98.070 C 234.293 101.059,235.150 108.161,230.710 114.916 C 229.280 117.093,228.995 117.418,220.509 126.543 C 219.752 127.357,219.184 128.105,219.247 128.206 C 219.309 128.307,222.104 128.389,225.457 128.389 C 232.417 128.389,232.262 128.428,234.134 126.208 C 235.297 124.829,235.524 124.745,235.894 125.556 C 236.158 126.135,235.691 127.682,234.395 130.523 C 234.134 131.095,233.921 131.717,233.921 131.904 C 233.921 132.990,233.734 133.009,223.022 133.005 C 217.448 133.003,212.734 132.905,212.547 132.786 C 211.950 132.408,212.915 131.088,216.657 127.167 C 221.514 122.076,221.807 121.750,223.786 119.271 C 230.311 111.092,229.882 102.883,222.866 101.661 C 219.112 101.007,216.326 102.743,214.638 106.789 C 213.709 109.018,212.268 108.450,212.742 106.041 C 214.206 98.602,222.183 94.611,228.679 98.070 M360.475 97.964 C 366.489 101.182,366.285 108.200,360.061 112.172 C 358.323 113.281,358.292 113.126,360.626 115.015 C 369.793 122.436,367.058 132.882,355.745 133.656 C 345.137 134.382,340.741 122.021,349.666 116.562 C 351.324 115.547,351.281 115.305,349.037 113.053 C 344.572 108.575,343.877 103.959,347.110 100.264 C 349.855 97.125,356.705 95.947,360.475 97.964 M353.574 99.130 C 349.421 100.007,348.556 104.800,351.878 108.528 C 354.258 111.198,355.903 111.861,357.370 110.742 C 363.197 106.297,360.384 97.693,353.574 99.130 M357.466 99.840 C 357.677 100.028,357.938 100.182,358.046 100.182 C 359.543 100.182,360.833 104.774,359.907 106.806 C 359.624 107.428,359.392 108.025,359.392 108.133 C 359.392 108.661,357.128 110.707,356.349 110.882 C 355.037 111.178,350.666 107.662,350.628 106.281 C 350.622 106.069,350.476 105.501,350.303 105.018 C 349.692 103.307,350.817 100.657,352.462 99.932 C 354.204 99.165,356.658 99.120,357.466 99.840 M114.894 109.181 C 114.492 109.288,113.836 109.492,113.435 109.635 C 113.033 109.778,112.413 109.953,112.055 110.023 C 111.159 110.201,109.898 111.300,110.072 111.753 C 110.257 112.235,111.542 112.891,111.724 112.597 C 111.802 112.471,112.367 112.293,112.979 112.202 C 114.432 111.984,115.110 112.643,115.478 114.635 C 115.618 115.394,115.810 116.140,115.903 116.291 C 115.997 116.443,116.222 117.394,116.404 118.405 C 116.586 119.416,116.800 120.556,116.879 120.939 C 116.959 121.321,116.926 121.704,116.806 121.790 C 116.686 121.875,116.063 122.711,115.421 123.647 C 111.823 128.896,111.513 129.236,110.351 129.205 C 109.812 129.191,108.957 129.043,108.451 128.876 C 105.688 127.964,104.060 131.727,106.514 133.351 C 108.880 134.917,111.831 133.576,114.473 129.735 C 114.838 129.204,115.301 128.593,115.502 128.377 C 115.702 128.160,116.030 127.734,116.231 127.429 C 117.634 125.299,118.176 124.953,118.176 126.189 C 118.176 126.539,118.395 127.448,118.663 128.209 C 118.930 128.970,119.149 129.910,119.149 130.298 C 119.149 130.687,119.306 131.135,119.498 131.294 C 119.690 131.453,119.916 131.877,120.000 132.236 C 120.214 133.154,121.599 133.982,122.921 133.982 C 124.842 133.982,126.453 132.657,129.072 128.926 C 130.701 126.606,128.716 125.472,126.940 127.707 C 125.434 129.601,124.411 129.866,124.127 128.434 C 124.056 128.075,123.879 127.453,123.732 127.052 C 123.586 126.650,123.318 125.528,123.138 124.556 C 122.958 123.585,122.683 122.553,122.528 122.263 C 121.665 120.651,122.208 117.899,123.708 116.281 C 123.875 116.101,124.012 115.863,124.012 115.753 C 124.012 114.638,126.906 112.900,127.603 113.597 C 128.584 114.578,131.340 113.468,131.279 112.116 C 131.256 111.613,131.227 111.585,131.133 111.976 C 131.068 112.243,130.780 112.717,130.492 113.029 C 129.943 113.624,129.983 113.622,126.995 113.174 C 125.797 112.994,124.848 113.822,122.997 116.661 C 121.700 118.652,121.583 119.329,122.130 121.702 C 122.376 122.772,122.722 124.304,122.897 125.106 C 124.028 130.271,124.863 130.924,126.919 128.250 C 128.106 126.707,128.167 126.656,128.716 126.734 C 129.912 126.904,128.997 128.972,126.508 131.722 C 123.442 135.110,120.015 133.937,119.262 129.240 C 119.176 128.705,118.959 127.830,118.779 127.295 C 118.600 126.760,118.389 126.021,118.310 125.653 C 118.100 124.672,117.685 124.837,116.596 126.334 C 111.554 133.264,109.987 134.447,107.287 133.367 C 105.552 132.673,105.061 131.011,106.243 129.829 C 107.039 129.033,107.537 128.972,109.365 129.447 C 111.360 129.964,111.852 129.520,115.883 123.574 C 117.502 121.186,117.505 120.782,115.942 115.137 C 115.054 111.927,114.676 111.579,112.550 112.014 C 109.507 112.637,110.069 110.915,113.199 110.026 C 118.215 108.601,119.720 109.262,120.251 113.129 C 120.339 113.767,120.621 114.534,120.879 114.834 L 121.346 115.380 122.011 114.535 C 125.109 110.594,126.436 109.487,128.329 109.263 C 129.644 109.107,130.929 109.880,131.136 110.951 C 131.227 111.417,131.245 111.403,131.274 110.842 C 131.351 109.329,128.581 108.342,126.930 109.294 C 126.596 109.487,126.095 109.749,125.818 109.876 C 125.248 110.137,123.379 112.153,122.256 113.717 C 121.845 114.289,121.405 114.692,121.277 114.613 C 120.923 114.395,120.365 112.922,120.365 112.209 C 120.365 109.741,117.901 108.378,114.894 109.181 M246.079 109.114 C 245.745 109.176,245.354 109.322,245.211 109.439 C 245.069 109.556,244.412 109.770,243.752 109.915 C 242.192 110.258,241.103 111.115,241.327 111.823 C 241.535 112.478,242.444 112.712,243.436 112.366 C 245.176 111.759,246.565 112.556,246.565 114.160 C 246.565 114.503,246.784 115.407,247.052 116.168 C 247.319 116.929,247.537 117.884,247.537 118.289 C 247.536 118.695,247.716 119.530,247.936 120.145 C 248.356 121.316,248.183 121.815,246.869 123.233 C 246.702 123.413,246.565 123.654,246.565 123.769 C 246.565 123.884,246.429 124.122,246.261 124.299 C 246.094 124.475,245.629 125.109,245.228 125.706 C 244.827 126.303,244.334 126.974,244.134 127.197 C 243.933 127.420,243.470 127.965,243.104 128.409 C 242.350 129.323,241.493 129.448,239.810 128.893 C 236.986 127.961,235.272 131.684,237.749 133.367 C 240.266 135.077,242.624 133.820,246.322 128.794 C 247.191 127.613,248.195 126.313,248.552 125.905 L 249.201 125.163 249.373 126.350 C 249.469 127.004,249.681 127.812,249.845 128.146 C 250.010 128.480,250.210 129.246,250.291 129.848 C 250.885 134.289,254.669 135.350,257.896 131.982 C 260.887 128.859,261.682 126.444,259.718 126.444 C 259.120 126.444,257.508 128.066,257.508 128.668 C 257.508 129.033,256.540 129.372,255.932 129.220 C 255.548 129.123,255.319 128.895,255.319 128.607 C 255.319 128.354,255.111 127.518,254.856 126.749 C 254.601 125.979,254.327 124.813,254.247 124.158 C 254.168 123.503,253.975 122.813,253.819 122.625 C 253.663 122.437,253.492 121.441,253.440 120.412 L 253.345 118.541 254.455 116.839 C 256.622 113.518,257.400 112.988,259.084 113.692 C 261.737 114.800,263.916 111.652,261.876 109.657 C 261.031 108.832,259.333 108.662,258.237 109.294 C 257.903 109.487,257.410 109.748,257.143 109.875 C 256.516 110.171,253.860 112.930,253.860 113.285 C 253.860 113.434,253.748 113.556,253.612 113.556 C 253.475 113.556,253.243 113.821,253.095 114.145 C 252.599 115.233,251.906 114.373,251.548 112.226 C 251.078 109.409,249.466 108.491,246.079 109.114 M375.076 109.330 C 374.541 109.535,373.638 109.800,373.070 109.920 C 371.948 110.156,370.578 111.034,370.578 111.518 C 370.578 112.158,371.361 112.634,372.137 112.466 C 374.819 111.884,375.896 112.352,375.918 114.109 C 375.923 114.481,376.146 115.407,376.413 116.168 C 376.681 116.929,376.900 117.914,376.900 118.358 C 376.900 118.802,377.064 119.557,377.264 120.038 C 377.733 121.159,377.724 121.476,377.204 122.049 C 376.510 122.814,376.253 123.160,375.927 123.769 C 375.757 124.086,375.523 124.463,375.407 124.605 C 375.290 124.747,374.708 125.520,374.112 126.322 C 373.516 127.125,372.860 127.954,372.654 128.166 C 372.448 128.378,372.280 128.667,372.280 128.809 C 372.280 128.950,371.997 129.137,371.651 129.224 C 371.031 129.379,370.795 129.344,369.119 128.851 C 365.949 127.917,364.603 132.174,367.583 133.708 C 369.895 134.899,372.249 133.469,375.684 128.788 C 376.553 127.603,377.555 126.291,377.910 125.874 L 378.555 125.114 378.732 126.326 C 378.829 126.993,379.043 127.812,379.207 128.146 C 379.372 128.480,379.572 129.246,379.653 129.848 C 380.280 134.539,384.206 135.405,387.561 131.593 C 390.493 128.262,391.029 126.444,389.080 126.444 C 388.475 126.444,386.869 128.069,386.869 128.682 C 386.869 129.000,385.763 129.345,385.211 129.200 C 384.853 129.107,384.669 128.791,384.548 128.061 C 384.456 127.506,384.275 126.849,384.144 126.601 C 384.014 126.354,383.806 125.432,383.681 124.553 C 383.557 123.675,383.330 122.804,383.176 122.619 C 383.022 122.434,382.854 121.441,382.802 120.412 L 382.706 118.541 383.817 116.839 C 385.703 113.949,387.378 112.609,387.950 113.535 C 388.228 113.983,390.019 114.106,390.612 113.717 C 393.025 112.136,392.219 108.936,389.407 108.936 C 387.569 108.936,383.222 111.992,383.222 113.284 C 383.222 113.434,383.110 113.556,382.974 113.556 C 382.837 113.556,382.604 113.821,382.457 114.145 C 381.968 115.218,381.265 114.371,380.922 112.296 C 380.713 111.029,379.665 109.260,379.022 109.088 C 378.051 108.828,376.070 108.949,375.076 109.330 M249.503 109.433 C 250.306 109.863,251.150 111.490,251.443 113.175 C 251.637 114.285,251.861 114.856,252.168 115.020 C 252.792 115.355,252.834 115.338,253.223 114.590 C 255.235 110.723,259.788 108.200,261.702 109.892 C 263.221 111.234,262.009 113.796,260.018 113.454 C 257.314 112.990,257.257 112.992,256.610 113.590 C 255.987 114.166,254.103 116.591,254.103 116.818 C 254.103 116.884,253.822 117.353,253.478 117.860 C 252.757 118.923,252.805 120.474,253.642 123.161 C 253.892 123.964,254.098 124.852,254.100 125.135 C 254.102 125.419,254.366 126.456,254.687 127.440 C 255.583 130.189,256.453 130.437,258.007 128.384 C 259.011 127.058,259.433 126.687,259.939 126.687 C 261.846 126.687,258.269 132.075,255.562 133.280 C 254.028 133.964,251.452 133.293,251.420 132.202 C 251.416 132.044,251.201 131.477,250.942 130.942 C 250.684 130.407,250.470 129.751,250.467 129.483 C 250.458 128.597,249.366 124.987,249.107 124.986 C 248.812 124.985,248.429 125.439,245.931 128.754 C 242.123 133.806,239.276 135.069,237.316 132.577 C 235.579 130.369,237.417 128.865,241.127 129.460 C 242.204 129.633,242.439 129.595,242.829 129.189 C 243.553 128.438,244.464 127.345,244.916 126.687 C 245.146 126.353,245.645 125.641,246.025 125.106 C 248.927 121.025,248.716 121.866,247.822 117.933 C 246.477 112.021,246.290 111.747,243.762 111.984 C 241.413 112.204,240.901 111.715,242.499 110.779 C 243.087 110.434,243.778 110.145,244.034 110.136 C 244.289 110.127,245.100 109.915,245.836 109.666 C 247.351 109.151,248.804 109.059,249.503 109.433 M378.865 109.433 C 379.653 109.855,380.498 111.460,380.795 113.100 C 381.252 115.624,381.769 115.868,382.922 114.103 C 386.195 109.095,391.733 107.455,391.733 111.493 C 391.733 112.953,389.122 114.401,388.450 113.313 C 388.367 113.179,387.891 113.070,387.392 113.070 C 386.096 113.070,384.670 114.607,382.652 118.177 C 382.150 119.065,382.391 121.911,383.114 123.643 C 383.307 124.105,383.465 124.742,383.465 125.058 C 383.465 126.805,384.884 129.848,385.700 129.848 C 386.007 129.848,387.627 128.210,388.163 127.356 C 388.437 126.919,388.792 126.687,389.185 126.687 C 390.217 126.687,390.069 127.719,388.765 129.620 C 385.021 135.076,380.829 134.955,379.826 129.362 C 379.451 127.264,378.730 124.985,378.442 124.985 C 378.129 124.985,378.029 125.105,375.287 128.754 C 371.959 133.182,370.544 134.133,368.239 133.487 C 364.412 132.416,366.057 128.436,369.920 129.420 C 371.654 129.861,371.853 129.749,373.782 127.247 C 377.898 121.909,378.125 121.426,377.524 119.292 C 377.332 118.611,377.058 117.508,376.915 116.839 C 375.930 112.232,375.558 111.756,373.123 111.984 C 370.775 112.204,370.263 111.715,371.861 110.779 C 372.449 110.434,373.139 110.145,373.395 110.136 C 373.651 110.127,374.462 109.915,375.198 109.666 C 376.713 109.151,378.166 109.059,378.865 109.433 M28.632 109.928 C 27.788 110.420,28.355 112.097,29.366 112.097 C 29.846 112.097,31.125 113.280,31.125 113.723 C 31.125 113.899,31.233 114.043,31.365 114.043 C 31.496 114.043,31.768 114.398,31.968 114.833 C 32.167 115.267,32.426 115.787,32.543 115.988 C 32.793 116.417,33.439 117.800,33.792 118.663 C 33.929 118.997,34.143 119.435,34.268 119.635 C 34.485 119.985,35.194 121.517,35.732 122.796 C 35.872 123.131,36.083 123.568,36.200 123.769 C 36.318 123.970,36.879 125.119,37.447 126.322 C 38.015 127.526,38.576 128.675,38.693 128.875 C 38.811 129.076,39.019 129.514,39.156 129.848 C 39.293 130.182,39.586 130.801,39.806 131.223 C 40.180 131.938,40.179 132.034,39.800 132.613 C 39.576 132.955,39.392 133.380,39.392 133.557 C 39.392 133.734,39.185 134.285,38.932 134.781 C 38.679 135.277,38.406 135.929,38.324 136.230 C 38.242 136.532,37.860 137.155,37.474 137.616 C 36.710 138.530,36.783 138.518,33.070 138.343 C 30.782 138.234,30.404 138.372,29.726 139.562 C 27.327 143.773,34.147 145.950,38.127 142.243 C 38.931 141.494,40.326 139.705,40.593 139.080 C 40.734 138.750,40.952 138.316,41.076 138.116 C 41.405 137.587,42.236 135.663,42.442 134.954 C 42.539 134.620,42.768 134.131,42.951 133.867 C 43.133 133.603,43.283 133.165,43.284 132.894 C 43.285 132.623,43.503 132.073,43.769 131.672 C 44.035 131.271,44.253 130.709,44.254 130.425 C 44.255 130.140,44.412 129.777,44.604 129.618 C 44.796 129.458,45.030 128.980,45.123 128.555 C 45.216 128.129,45.497 127.400,45.747 126.934 C 45.996 126.468,46.204 125.920,46.208 125.718 C 46.213 125.515,46.377 125.137,46.573 124.878 C 46.769 124.618,46.930 124.202,46.930 123.953 C 46.930 123.704,47.139 123.096,47.394 122.601 C 48.221 120.997,48.875 119.468,48.883 119.122 C 48.887 118.936,49.052 118.572,49.248 118.312 C 49.444 118.053,49.605 117.690,49.605 117.507 C 49.605 117.324,49.886 116.551,50.231 115.790 C 51.948 111.995,52.613 111.450,53.777 112.888 L 54.515 113.799 67.487 113.799 L 80.459 113.799 80.837 113.259 C 81.350 112.527,81.317 111.292,80.771 110.798 C 80.369 110.434,79.097 110.395,67.549 110.395 C 56.814 110.395,54.607 110.337,53.739 110.030 C 51.516 109.246,45.471 109.606,45.471 110.523 C 45.471 111.062,46.153 111.858,46.721 111.983 C 47.594 112.175,47.683 113.416,46.930 114.894 C 46.663 115.418,46.444 116.030,46.444 116.253 C 46.444 116.475,46.280 116.794,46.079 116.960 C 45.878 117.127,45.714 117.469,45.714 117.721 C 45.714 117.972,45.495 118.586,45.228 119.085 C 44.960 119.584,44.742 120.132,44.742 120.301 C 44.742 120.471,44.523 121.018,44.255 121.517 C 43.988 122.016,43.769 122.552,43.769 122.707 C 43.769 122.863,43.519 123.431,43.212 123.970 L 42.656 124.950 42.135 123.812 C 41.848 123.187,41.497 122.401,41.354 122.067 C 41.212 121.733,40.986 121.295,40.851 121.094 C 40.717 120.894,40.499 120.456,40.365 120.122 C 40.232 119.787,40.024 119.350,39.904 119.149 C 39.058 117.742,37.668 114.435,37.547 113.541 L 37.400 112.462 38.457 111.976 C 39.577 111.460,39.940 110.691,39.381 110.017 C 39.026 109.589,29.352 109.509,28.632 109.928 M39.007 110.056 C 39.791 110.357,39.422 111.101,38.176 111.733 C 36.486 112.589,36.504 112.778,38.708 117.447 C 40.309 120.836,42.602 125.471,42.679 125.471 C 42.824 125.471,44.012 123.308,44.012 123.044 C 44.012 122.893,44.217 122.311,44.467 121.750 C 44.717 121.189,45.221 119.964,45.586 119.027 C 45.951 118.091,46.348 117.221,46.469 117.094 C 46.589 116.967,46.687 116.692,46.687 116.483 C 46.687 116.273,46.900 115.704,47.161 115.218 C 47.665 114.278,47.910 112.062,47.525 111.927 C 46.533 111.580,46.079 111.173,46.079 110.631 L 46.079 110.030 49.232 109.962 C 52.245 109.897,53.739 110.130,53.739 110.666 C 53.739 110.782,59.751 110.906,67.147 110.940 C 81.987 111.010,81.388 110.941,80.836 112.510 L 80.596 113.191 67.620 113.254 C 53.563 113.323,54.107 113.375,53.835 111.927 C 53.747 111.459,53.608 111.169,53.525 111.283 C 53.442 111.396,52.949 111.708,52.429 111.976 C 51.876 112.260,51.301 112.815,51.044 113.313 C 50.147 115.047,49.605 116.253,49.605 116.516 C 49.605 116.664,49.399 117.235,49.148 117.785 C 48.896 118.335,48.445 119.386,48.146 120.122 C 47.846 120.857,47.396 121.909,47.144 122.458 C 46.893 123.008,46.687 123.573,46.687 123.715 C 46.687 123.857,46.533 124.283,46.344 124.661 C 46.156 125.040,45.786 125.897,45.522 126.565 C 44.635 128.813,43.957 130.449,43.497 131.455 C 43.245 132.005,43.040 132.628,43.040 132.839 C 43.040 133.051,42.938 133.286,42.814 133.363 C 42.690 133.440,42.456 133.911,42.295 134.411 C 40.050 141.351,34.791 145.656,31.239 143.461 C 29.105 142.142,29.255 138.679,31.453 138.561 C 32.684 138.494,34.343 138.636,34.923 138.856 C 36.041 139.281,38.413 137.842,38.421 136.734 C 38.422 136.624,38.593 136.209,38.801 135.810 C 40.472 132.604,40.551 131.972,39.532 129.934 C 39.074 129.017,38.157 127.119,37.495 125.714 C 36.832 124.310,35.722 121.957,35.028 120.486 C 31.829 113.710,30.944 112.316,29.548 111.855 C 28.636 111.555,28.244 110.815,28.703 110.262 C 29.006 109.897,38.117 109.715,39.007 110.056 M166.383 117.364 C 165.789 117.605,165.985 121.001,166.619 121.445 C 167.353 121.959,195.376 122.025,196.074 121.515 C 196.426 121.258,196.485 120.881,196.425 119.266 L 196.353 117.325 181.520 117.283 C 173.362 117.259,166.550 117.296,166.383 117.364 M297.568 117.466 C 296.668 117.991,297.015 121.005,298.039 121.544 C 298.955 122.026,326.545 121.933,327.241 121.445 C 327.862 121.010,328.048 118.054,327.489 117.495 C 327.108 117.114,298.222 117.086,297.568 117.466 M352.920 117.442 C 351.661 117.951,349.633 121.379,349.699 122.888 C 349.727 123.536,349.747 123.558,349.832 123.040 C 349.887 122.705,350.080 122.103,350.261 121.702 C 350.443 121.301,350.710 120.699,350.856 120.365 C 352.034 117.661,353.525 117.021,355.310 118.452 C 355.883 118.912,356.626 119.466,356.960 119.683 C 359.838 121.552,361.539 124.948,360.754 127.258 C 360.540 127.890,360.365 128.542,360.365 128.708 C 360.365 129.017,359.835 129.548,358.559 130.517 C 357.415 131.385,354.132 131.317,352.709 130.395 C 351.217 129.429,350.332 127.816,349.877 125.237 C 349.550 123.381,349.392 123.387,349.574 125.248 C 350.221 131.840,357.690 133.948,360.811 128.418 C 362.327 125.733,360.541 121.703,356.657 119.044 C 356.155 118.700,355.346 118.146,354.860 117.812 C 353.909 117.159,353.714 117.122,352.920 117.442 M196.109 119.392 L 196.109 121.216 181.690 121.279 C 165.223 121.350,166.322 121.493,166.322 119.282 C 166.322 117.292,164.719 117.477,181.520 117.526 L 196.109 117.568 196.109 119.392 M327.489 119.109 C 327.533 120.036,327.449 120.787,327.277 120.994 C 326.856 121.502,298.684 121.507,297.990 121.000 C 297.429 120.590,297.371 118.004,297.915 117.657 C 298.092 117.544,304.802 117.478,312.827 117.510 L 327.416 117.568 327.489 119.109 M54.013 118.747 C 53.478 119.391,53.404 120.590,53.866 121.101 C 54.470 121.769,80.171 121.862,80.834 121.198 C 81.270 120.763,81.324 119.952,80.979 119.043 L 80.742 118.419 67.513 118.419 C 56.727 118.419,54.234 118.480,54.013 118.747 M80.594 119.203 C 81.046 119.848,81.083 120.643,80.681 121.046 C 80.260 121.466,54.694 121.466,54.274 121.046 C 53.915 120.687,53.896 119.764,54.233 119.133 C 54.477 118.677,54.880 118.663,67.350 118.663 L 80.216 118.663 80.594 119.203 " stroke="none" fill="#848484" fill-rule="evenodd"></path></g></svg>