<svg id="svg" version="1.1" xmlns="http://www.w3.org/2000/svg" xmlns:xlink="http://www.w3.org/1999/xlink" width="400" height="363.4854771784232" viewBox="0, 0, 400,363.4854771784232"><g id="svgg"><path id="path0" d="M0.000 181.818 L 0.000 363.636 200.000 363.636 L 400.000 363.636 400.000 181.818 L 400.000 0.000 200.000 0.000 L 0.000 0.000 0.000 181.818 M234.883 125.322 C 235.983 126.721,235.038 128.798,232.759 129.989 C 231.634 130.576,228.394 133.632,227.541 134.909 C 227.206 135.409,226.439 136.516,225.836 137.368 C 225.233 138.220,224.633 139.366,224.504 139.913 C 224.374 140.461,223.984 141.236,223.637 141.636 C 223.289 142.036,222.901 143.170,222.773 144.155 C 222.646 145.141,222.286 146.229,221.974 146.574 C 221.606 146.981,221.290 148.430,221.076 150.692 C 220.895 152.611,220.496 154.665,220.191 155.255 C 219.384 156.815,219.373 175.756,220.178 177.683 C 220.475 178.395,220.879 180.640,221.074 182.671 C 221.306 185.087,221.684 186.862,222.169 187.804 C 222.576 188.596,222.909 189.665,222.909 190.178 C 222.909 190.691,223.194 191.515,223.542 192.010 C 224.314 193.105,225.224 194.693,225.985 196.273 C 226.299 196.923,226.697 197.455,226.870 197.455 C 227.043 197.455,227.381 197.928,227.620 198.507 C 227.860 199.085,229.148 200.516,230.483 201.687 C 235.017 205.663,235.633 206.447,235.198 207.694 C 234.638 209.302,233.315 209.792,232.246 208.787 C 231.785 208.354,231.173 208.000,230.886 208.000 C 230.599 207.999,229.888 207.590,229.307 207.090 C 228.726 206.591,228.067 206.182,227.842 206.182 C 227.618 206.182,227.155 205.895,226.814 205.545 C 226.472 205.195,225.671 204.500,225.032 204.000 C 223.378 202.705,220.701 200.009,219.636 198.566 C 219.136 197.889,218.359 196.975,217.909 196.535 C 217.459 196.095,217.091 195.614,217.091 195.465 C 217.091 195.317,216.682 194.710,216.182 194.116 C 215.682 193.521,215.273 192.746,215.273 192.392 C 215.273 192.038,214.955 191.461,214.566 191.110 C 214.177 190.758,213.752 189.979,213.620 189.380 C 213.488 188.780,213.070 187.979,212.690 187.599 C 212.311 187.220,212.000 186.575,212.000 186.167 C 212.000 185.759,211.692 184.818,211.316 184.076 C 210.940 183.334,210.513 181.827,210.368 180.727 C 210.222 179.627,209.835 178.424,209.506 178.053 C 208.619 177.050,208.604 156.618,209.490 155.256 C 209.809 154.765,210.186 153.478,210.328 152.395 C 210.470 151.312,210.904 150.022,211.293 149.528 C 211.682 149.034,212.000 148.182,212.000 147.636 C 212.000 147.090,212.305 146.253,212.677 145.776 C 213.050 145.299,213.481 144.500,213.636 144.000 C 213.791 143.500,214.223 142.701,214.595 142.224 C 214.968 141.747,215.273 141.147,215.273 140.891 C 215.273 140.635,215.594 140.043,215.987 139.576 C 217.834 137.381,218.545 136.413,218.545 136.096 C 218.545 135.541,224.650 129.513,225.831 128.903 C 226.424 128.596,226.909 128.189,226.909 127.998 C 226.909 127.807,227.306 127.551,227.792 127.429 C 228.277 127.307,228.757 126.993,228.857 126.731 C 228.958 126.469,229.665 126.052,230.429 125.803 C 231.193 125.555,231.949 125.129,232.109 124.858 C 232.591 124.039,234.069 124.287,234.883 125.322 M362.810 125.091 C 363.318 125.491,363.932 125.818,364.174 125.818 C 364.417 125.818,364.911 126.145,365.273 126.545 C 365.635 126.945,366.142 127.273,366.401 127.273 C 366.873 127.273,370.572 130.193,372.464 132.059 C 373.313 132.896,375.194 135.160,378.006 138.727 C 378.739 139.658,379.469 140.940,380.181 142.545 C 380.491 143.245,380.906 144.064,381.102 144.364 C 381.299 144.664,381.636 145.318,381.851 145.818 C 382.066 146.318,382.536 147.300,382.894 148.000 C 383.253 148.700,383.663 150.009,383.804 150.909 C 383.946 151.809,384.358 153.200,384.720 154.000 C 385.154 154.960,385.450 156.769,385.592 159.325 C 385.710 161.453,385.973 163.632,386.176 164.166 C 386.643 165.395,386.650 168.177,386.191 170.437 C 385.996 171.396,385.684 173.924,385.497 176.053 C 385.299 178.312,384.931 180.280,384.614 180.780 C 384.315 181.251,383.951 182.373,383.807 183.273 C 383.662 184.173,383.237 185.299,382.863 185.776 C 382.488 186.253,382.182 187.031,382.182 187.504 C 382.182 187.977,381.871 188.674,381.492 189.054 C 381.112 189.434,380.692 190.240,380.559 190.847 C 380.426 191.453,380.065 192.159,379.757 192.414 C 379.449 192.670,379.046 193.213,378.862 193.621 C 378.530 194.357,377.356 196.121,376.105 197.763 C 373.877 200.687,367.348 206.545,366.317 206.545 C 366.043 206.545,365.818 206.696,365.818 206.881 C 365.818 207.260,361.594 209.455,360.864 209.455 C 360.218 209.455,359.636 208.277,359.636 206.971 C 359.636 205.909,360.130 205.356,363.099 203.091 C 363.623 202.691,364.572 201.817,365.208 201.150 C 365.844 200.482,366.732 199.563,367.182 199.108 C 367.632 198.653,368.000 198.120,368.000 197.924 C 368.000 197.728,368.318 197.279,368.707 196.928 C 369.095 196.576,369.516 195.822,369.641 195.252 C 369.766 194.682,370.163 193.840,370.523 193.381 C 370.883 192.921,371.297 191.973,371.443 191.273 C 371.589 190.573,371.937 189.638,372.217 189.196 C 372.497 188.753,372.885 187.272,373.079 185.904 C 373.273 184.536,373.721 182.771,374.076 181.981 C 375.065 179.777,375.036 154.374,374.042 152.182 C 373.679 151.382,373.241 149.519,373.067 148.042 C 372.894 146.565,372.519 145.093,372.234 144.769 C 371.950 144.446,371.600 143.609,371.456 142.909 C 371.312 142.209,370.903 141.309,370.548 140.909 C 370.193 140.509,369.785 139.797,369.642 139.328 C 369.500 138.858,369.143 138.203,368.849 137.873 C 367.981 136.896,366.560 134.775,366.323 134.103 C 366.202 133.760,365.802 133.383,365.434 133.266 C 365.066 133.149,364.663 132.735,364.540 132.345 C 364.416 131.955,364.138 131.636,363.923 131.636 C 363.707 131.636,363.187 131.313,362.766 130.919 C 362.344 130.524,361.468 129.718,360.818 129.128 C 358.191 126.744,360.070 122.936,362.810 125.091 M346.861 126.306 C 347.145 126.648,347.294 132.562,347.360 146.033 L 347.455 165.273 351.091 165.455 C 355.772 165.689,355.636 165.571,355.636 169.395 C 355.636 173.961,355.428 174.182,351.109 174.182 C 346.953 174.182,347.273 173.519,347.273 182.139 C 347.273 190.303,347.562 189.818,342.699 189.818 C 337.932 189.818,338.219 190.316,338.099 181.807 L 338.000 174.760 337.091 174.507 C 336.591 174.368,331.189 174.238,325.087 174.218 L 313.993 174.182 312.996 173.258 C 311.674 172.032,311.507 167.469,312.727 165.917 C 313.127 165.409,313.455 164.769,313.455 164.496 C 313.455 164.223,313.615 164.000,313.811 164.000 C 314.007 164.000,314.501 163.345,314.909 162.545 C 315.317 161.745,315.792 161.091,315.963 161.091 C 316.135 161.091,316.479 160.600,316.727 160.000 C 316.976 159.400,317.315 158.909,317.482 158.909 C 317.648 158.909,318.056 158.336,318.388 157.636 C 318.720 156.936,319.117 156.364,319.270 156.364 C 319.423 156.364,319.751 155.873,320.000 155.273 C 320.249 154.673,320.600 154.182,320.780 154.182 C 320.961 154.182,321.273 153.814,321.473 153.364 C 321.845 152.526,323.260 150.417,324.085 149.471 C 324.338 149.180,325.068 148.116,325.707 147.107 C 326.347 146.098,327.091 145.027,327.361 144.727 C 327.632 144.427,328.173 143.707,328.563 143.128 C 329.914 141.121,329.977 141.030,334.008 135.273 C 334.918 133.973,336.000 132.377,336.413 131.727 C 336.825 131.077,337.299 130.545,337.466 130.545 C 337.633 130.545,337.885 130.181,338.026 129.736 C 338.167 129.291,338.868 128.227,339.582 127.372 L 340.881 125.818 343.669 125.818 C 345.557 125.818,346.587 125.976,346.861 126.306 M337.466 141.118 C 337.460 141.434,337.045 142.076,336.545 142.545 C 336.045 143.015,335.636 143.615,335.636 143.878 C 335.636 144.142,335.309 144.562,334.909 144.812 C 334.509 145.061,334.182 145.449,334.182 145.674 C 334.182 146.032,333.005 147.750,331.568 149.486 C 331.069 150.090,330.634 150.727,329.478 152.545 C 328.581 153.956,327.657 155.160,326.636 156.250 C 326.186 156.731,325.818 157.297,325.818 157.509 C 325.818 157.722,325.450 158.357,325.000 158.922 C 324.550 159.488,323.773 160.550,323.273 161.284 C 322.773 162.018,322.093 162.914,321.763 163.274 C 321.433 163.634,321.053 164.275,320.918 164.698 L 320.674 165.468 329.337 165.370 L 338.000 165.273 338.096 153.522 C 338.155 146.295,338.054 141.536,337.834 141.159 C 337.525 140.628,337.475 140.623,337.466 141.118 M61.564 147.643 C 62.560 149.065,61.512 151.074,59.640 151.330 C 57.795 151.583,57.492 155.454,59.159 157.478 C 59.416 157.791,59.819 158.609,60.054 159.296 C 60.288 159.983,60.781 160.936,61.149 161.413 C 61.517 161.890,61.818 162.642,61.818 163.084 C 61.818 163.526,62.136 164.175,62.525 164.527 C 62.914 164.879,63.344 165.681,63.481 166.310 C 63.619 166.940,64.037 167.845,64.411 168.322 C 64.785 168.799,65.091 169.472,65.091 169.818 C 65.091 170.164,65.408 170.851,65.796 171.343 C 66.183 171.836,66.610 172.676,66.744 173.211 C 66.997 174.217,67.636 174.558,67.636 173.685 C 67.636 173.412,67.942 172.799,68.316 172.322 C 68.690 171.845,69.117 170.882,69.265 170.182 C 69.412 169.482,69.823 168.418,70.177 167.818 C 70.531 167.218,70.931 166.105,71.067 165.345 C 71.202 164.584,71.541 163.874,71.821 163.767 C 72.100 163.660,72.437 162.848,72.570 161.964 C 72.703 161.079,73.094 159.989,73.440 159.541 C 73.786 159.094,74.178 158.165,74.312 157.478 C 74.445 156.792,74.811 155.946,75.125 155.599 C 76.315 154.284,75.995 151.472,74.641 151.341 C 72.687 151.152,71.638 148.778,72.935 147.481 C 73.746 146.669,84.990 146.649,87.273 147.455 C 88.585 147.918,92.347 148.000,112.209 148.000 L 135.599 148.000 136.527 149.216 C 137.750 150.819,137.431 153.227,135.858 154.267 C 135.636 154.414,124.873 154.537,111.940 154.540 L 88.425 154.545 87.273 153.091 C 86.639 152.291,85.836 151.636,85.488 151.636 C 84.307 151.636,82.083 154.658,81.678 156.812 C 81.545 157.525,81.199 158.305,80.909 158.545 C 80.620 158.786,80.281 159.579,80.157 160.309 C 80.033 161.039,79.646 162.045,79.296 162.545 C 78.946 163.045,78.548 164.052,78.411 164.782 C 78.274 165.512,77.926 166.305,77.636 166.545 C 77.347 166.786,77.009 167.579,76.885 168.309 C 76.761 169.039,76.373 170.045,76.023 170.545 C 75.673 171.045,75.273 172.063,75.134 172.806 C 74.994 173.550,74.642 174.396,74.352 174.687 C 74.061 174.978,73.642 176.058,73.421 177.088 C 73.201 178.117,72.803 179.043,72.537 179.144 C 72.272 179.246,71.939 180.012,71.799 180.847 C 71.658 181.681,71.237 182.754,70.863 183.231 C 70.488 183.708,70.181 184.444,70.180 184.867 C 70.179 185.290,69.775 186.291,69.282 187.091 C 68.789 187.891,68.381 188.970,68.375 189.489 C 68.369 190.008,68.057 190.710,67.682 191.049 C 67.307 191.389,66.915 192.308,66.809 193.093 C 66.704 193.878,66.274 194.957,65.854 195.491 C 65.435 196.025,65.091 196.823,65.091 197.265 C 65.091 197.707,64.778 198.352,64.396 198.698 C 64.014 199.043,63.597 199.746,63.468 200.258 C 62.969 202.246,58.105 207.464,56.364 207.879 C 55.864 207.998,55.100 208.417,54.666 208.810 C 53.430 209.931,47.212 209.917,46.163 208.791 C 45.758 208.356,45.291 208.000,45.126 208.000 C 44.332 208.000,42.909 205.174,42.909 203.598 C 42.909 200.039,46.259 197.742,50.182 198.610 C 53.074 199.250,57.455 198.874,57.455 197.985 C 57.455 197.724,57.842 197.048,58.317 196.482 C 58.791 195.917,59.292 194.934,59.431 194.298 C 59.570 193.662,59.920 192.945,60.208 192.705 C 60.497 192.465,60.837 191.625,60.963 190.837 C 61.089 190.050,61.406 189.191,61.669 188.929 C 62.460 188.137,62.655 186.725,62.042 186.217 C 61.739 185.965,61.296 185.159,61.057 184.425 C 60.817 183.691,60.318 182.701,59.947 182.224 C 59.576 181.747,59.273 180.995,59.273 180.553 C 59.273 180.111,58.964 179.470,58.587 179.129 C 58.210 178.787,57.802 178.012,57.681 177.406 C 57.560 176.800,57.132 175.887,56.730 175.376 C 56.329 174.865,56.000 174.202,56.000 173.903 C 56.000 173.604,55.691 172.848,55.314 172.225 C 54.937 171.601,54.505 170.682,54.355 170.182 C 54.205 169.682,53.777 168.882,53.405 168.406 C 53.032 167.929,52.727 167.255,52.727 166.909 C 52.727 166.563,52.410 165.877,52.023 165.384 C 51.635 164.891,51.201 164.010,51.058 163.426 C 50.915 162.842,50.500 161.979,50.136 161.509 C 49.772 161.038,49.369 160.097,49.242 159.418 C 49.114 158.738,48.872 158.182,48.704 158.182 C 48.535 158.182,48.059 157.486,47.645 156.636 C 46.103 153.469,44.691 151.889,43.033 151.472 C 41.042 150.973,40.176 148.206,41.727 147.302 C 43.101 146.502,60.980 146.810,61.564 147.643 M182.395 147.799 C 183.256 148.978,182.171 151.119,180.598 151.343 C 179.606 151.485,179.691 153.145,180.744 154.198 C 181.135 154.589,181.455 155.155,181.455 155.455 C 181.455 155.755,181.621 156.000,181.824 156.000 C 182.027 156.000,182.472 156.614,182.813 157.364 C 183.154 158.114,183.456 158.773,183.484 158.828 C 183.625 159.105,185.455 158.144,185.455 157.794 C 185.455 157.415,185.797 156.916,187.909 154.214 C 188.973 152.854,188.945 151.863,187.823 151.128 C 186.059 149.972,185.581 148.803,186.497 147.886 C 187.481 146.901,199.732 146.475,201.455 147.366 C 203.422 148.384,202.295 151.014,199.681 151.504 C 198.501 151.726,194.545 155.071,194.545 155.847 C 194.545 155.989,194.205 156.450,193.790 156.871 C 193.374 157.292,192.553 158.291,191.966 159.091 C 190.283 161.382,189.695 162.142,188.818 163.158 C 187.809 164.327,187.772 165.499,188.718 166.355 C 189.113 166.713,189.543 167.352,189.673 167.775 C 189.804 168.199,190.139 168.791,190.418 169.091 C 191.649 170.414,193.091 172.506,193.091 172.971 C 193.091 173.249,193.349 173.576,193.664 173.697 C 193.980 173.818,194.393 174.263,194.583 174.686 C 194.996 175.607,196.489 177.774,197.263 178.576 C 197.568 178.893,197.818 179.312,197.818 179.508 C 197.818 180.614,203.006 185.455,204.192 185.455 C 206.179 185.455,207.326 187.895,205.974 189.247 C 205.484 189.737,204.051 189.818,195.865 189.818 C 185.367 189.818,185.455 189.837,185.455 187.585 C 185.455 186.107,185.721 185.821,187.421 185.473 C 188.791 185.193,189.062 184.229,188.075 183.149 C 187.680 182.717,187.245 181.995,187.108 181.545 C 186.972 181.095,186.726 180.727,186.562 180.727 C 186.399 180.727,185.995 180.195,185.665 179.545 C 185.335 178.895,184.499 177.627,183.807 176.727 C 183.115 175.827,182.386 174.717,182.187 174.259 L 181.826 173.427 180.731 174.237 C 180.129 174.682,179.636 175.251,179.636 175.502 C 179.636 175.753,179.350 176.175,179.000 176.439 C 178.650 176.704,178.200 177.180,178.000 177.497 C 176.731 179.509,175.615 181.061,175.297 181.258 C 173.708 182.240,173.548 185.100,175.060 185.504 C 176.837 185.979,177.493 188.656,176.024 189.442 C 174.659 190.172,162.755 189.923,161.793 189.143 C 160.658 188.224,161.368 186.333,163.124 185.599 C 163.773 185.328,165.340 183.935,166.606 182.503 C 169.885 178.798,170.257 178.351,171.273 176.903 C 172.079 175.752,172.596 175.048,174.736 172.182 C 175.035 171.782,175.687 170.940,176.185 170.311 C 177.367 168.820,177.365 167.159,176.182 165.752 C 175.682 165.158,175.273 164.439,175.273 164.154 C 175.273 163.869,175.125 163.636,174.945 163.636 C 174.634 163.636,173.587 162.171,172.338 159.987 C 172.024 159.437,171.492 158.713,171.156 158.377 C 170.820 158.041,170.545 157.591,170.545 157.376 C 170.545 157.161,170.211 156.641,169.802 156.220 C 169.394 155.799,168.244 154.613,167.248 153.585 C 165.775 152.065,165.135 151.671,163.819 151.474 C 161.479 151.123,159.849 148.802,161.182 147.720 C 162.560 146.601,181.572 146.672,182.395 147.799 M257.422 147.139 C 259.749 147.604,259.634 150.128,257.240 151.128 C 255.934 151.674,255.673 153.167,256.766 153.842 C 257.299 154.172,259.636 157.917,259.636 158.442 C 259.636 159.002,259.694 159.008,260.885 158.554 C 261.398 158.359,261.818 158.017,261.818 157.794 C 261.818 157.415,262.161 156.916,264.273 154.214 C 265.335 152.855,265.324 151.727,264.242 151.234 C 262.498 150.439,261.917 148.736,263.055 147.757 C 264.227 146.748,275.971 146.447,277.818 147.378 C 279.796 148.375,278.654 151.015,276.033 151.506 C 274.813 151.734,269.455 156.559,269.455 157.430 C 269.455 157.588,268.961 158.354,268.358 159.132 C 267.755 159.909,266.978 160.920,266.631 161.378 C 266.284 161.836,265.632 162.637,265.182 163.158 C 264.125 164.383,264.148 165.275,265.273 166.612 C 265.773 167.206,266.182 167.925,266.182 168.210 C 266.182 168.494,266.329 168.727,266.510 168.727 C 266.818 168.727,267.851 170.168,269.101 172.345 C 269.406 172.876,269.858 173.548,270.105 173.838 C 271.554 175.534,272.727 177.256,272.727 177.683 C 272.727 177.954,273.055 178.380,273.455 178.630 C 273.855 178.880,274.182 179.266,274.182 179.489 C 274.182 180.445,279.352 185.455,280.338 185.455 C 282.336 185.455,283.668 187.917,282.371 189.213 C 281.755 189.830,263.894 190.173,262.393 189.597 C 260.662 188.933,262.000 185.455,263.988 185.455 C 265.174 185.455,265.267 184.475,264.224 182.971 C 263.701 182.215,263.273 181.402,263.273 181.162 C 263.273 180.923,263.128 180.727,262.951 180.727 C 262.773 180.727,262.358 180.195,262.029 179.545 C 261.699 178.895,260.863 177.627,260.170 176.727 C 259.478 175.827,258.749 174.717,258.551 174.259 L 258.189 173.427 257.095 174.237 C 256.493 174.682,256.000 175.259,256.000 175.520 C 256.000 175.781,255.673 176.198,255.273 176.448 C 254.873 176.698,254.545 177.031,254.545 177.189 C 254.545 177.346,253.727 178.530,252.727 179.818 C 251.727 181.107,250.909 182.321,250.909 182.517 C 250.909 182.713,250.630 183.029,250.289 183.220 C 249.499 183.662,250.186 185.455,251.145 185.455 C 252.893 185.455,253.886 188.640,252.388 189.442 C 251.038 190.164,239.120 189.924,238.170 189.155 C 237.093 188.282,237.567 186.607,239.115 185.817 C 241.319 184.692,244.379 181.211,251.101 172.182 C 251.399 171.782,252.050 170.940,252.549 170.311 C 253.674 168.891,253.759 166.934,252.737 166.008 C 252.342 165.651,251.916 165.037,251.792 164.643 C 251.667 164.250,251.294 163.634,250.964 163.274 C 250.634 162.914,249.955 162.018,249.455 161.284 C 248.955 160.550,248.177 159.488,247.727 158.922 C 247.277 158.357,246.909 157.690,246.909 157.440 C 246.909 157.190,246.580 156.641,246.178 156.220 C 242.031 151.880,241.851 151.737,240.287 151.527 C 237.499 151.153,236.113 148.421,238.182 147.378 C 239.153 146.889,255.175 146.690,257.422 147.139 M136.797 164.000 C 137.657 165.759,137.602 166.643,136.563 167.765 L 135.671 168.727 112.001 168.727 L 88.331 168.727 87.438 167.835 C 86.350 166.746,86.292 165.329,87.270 163.725 L 87.992 162.540 112.084 162.634 L 136.175 162.727 136.797 164.000 M309.594 164.470 C 311.176 165.626,310.642 171.872,308.894 172.668 C 307.272 173.407,286.039 173.250,285.412 172.494 C 284.877 171.849,284.691 165.804,285.170 164.636 C 285.513 163.801,308.466 163.645,309.594 164.470 " stroke="none" fill="#fbfbfb" fill-rule="evenodd"></path><path id="path1" d="M231.636 126.722 C 230.736 127.184,229.468 127.816,228.818 128.126 C 228.168 128.436,227.636 128.851,227.636 129.048 C 227.636 129.245,227.318 129.507,226.929 129.630 C 226.139 129.881,219.273 136.701,219.273 137.235 C 219.273 137.422,219.023 137.835,218.717 138.151 C 217.872 139.026,216.014 141.946,216.007 142.410 C 216.003 142.636,215.763 143.017,215.473 143.257 C 215.183 143.498,214.754 144.295,214.518 145.029 C 214.283 145.763,213.874 146.612,213.611 146.915 C 213.348 147.218,212.956 148.251,212.741 149.211 C 212.526 150.170,212.114 151.316,211.824 151.758 C 211.535 152.199,211.200 153.538,211.079 154.734 C 210.957 155.931,210.590 157.645,210.263 158.545 C 209.412 160.883,209.407 170.764,210.254 174.545 C 210.591 176.045,210.973 178.009,211.104 178.909 C 211.235 179.809,211.569 180.902,211.845 181.338 C 212.121 181.774,212.449 182.838,212.573 183.702 C 212.698 184.566,213.088 185.685,213.440 186.189 C 213.792 186.693,214.207 187.511,214.363 188.007 C 214.518 188.503,214.950 189.299,215.323 189.776 C 215.695 190.253,216.000 190.926,216.000 191.272 C 216.000 191.897,217.428 193.945,220.364 197.528 C 223.930 201.881,227.878 205.140,231.957 207.096 C 234.232 208.188,234.199 205.904,231.921 204.685 C 230.424 203.884,227.116 200.285,225.645 197.858 C 224.004 195.148,223.440 194.241,222.898 193.440 C 222.554 192.932,222.149 191.953,221.998 191.264 C 221.847 190.575,221.503 189.675,221.235 189.266 C 220.966 188.856,220.593 187.438,220.406 186.116 C 220.219 184.793,219.882 183.368,219.658 182.949 C 218.290 180.393,218.216 155.302,219.563 150.909 C 219.961 149.609,220.395 147.809,220.526 146.909 C 220.657 146.009,220.989 144.928,221.265 144.508 C 221.540 144.087,221.877 143.145,222.015 142.414 C 222.152 141.683,222.550 140.718,222.900 140.270 C 223.250 139.821,223.657 139.069,223.805 138.599 C 224.595 136.076,229.083 130.860,232.078 128.983 C 234.586 127.410,234.195 125.408,231.636 126.722 M360.727 126.653 C 360.727 127.148,361.181 127.853,361.838 128.381 C 363.832 129.982,368.727 134.966,368.729 135.398 C 368.731 135.629,369.466 136.882,370.364 138.182 C 371.261 139.482,372.002 140.709,372.009 140.909 C 372.017 141.109,372.425 142.091,372.917 143.091 C 373.409 144.091,373.813 145.364,373.815 145.921 C 373.817 146.477,374.081 147.541,374.403 148.284 C 374.725 149.028,375.209 151.600,375.478 154.000 C 375.748 156.400,376.157 159.836,376.387 161.636 C 376.852 165.273,376.632 174.351,376.030 176.331 C 375.823 177.013,375.550 179.059,375.422 180.876 C 375.295 182.694,374.954 184.673,374.664 185.273 C 374.374 185.873,373.981 187.182,373.790 188.182 C 373.375 190.358,372.090 193.666,371.193 194.867 C 370.837 195.344,370.545 195.948,370.545 196.209 C 370.545 197.221,363.920 204.684,362.970 204.742 C 362.283 204.784,360.430 206.791,360.690 207.212 C 361.061 207.813,364.220 207.082,364.509 206.327 C 364.617 206.047,364.955 205.818,365.261 205.818 C 365.568 205.818,366.110 205.532,366.466 205.182 C 366.823 204.832,367.899 203.973,368.857 203.273 C 371.056 201.667,374.003 198.581,375.636 196.175 C 376.136 195.438,376.832 194.525,377.182 194.145 C 377.532 193.765,377.818 193.314,377.818 193.142 C 377.818 192.970,378.211 192.250,378.691 191.543 C 379.171 190.836,379.684 189.872,379.832 189.401 C 379.979 188.931,380.405 188.155,380.777 187.678 C 381.150 187.201,381.455 186.462,381.455 186.036 C 381.455 185.610,381.771 184.672,382.157 183.951 C 382.544 183.230,383.049 181.596,383.280 180.320 C 383.511 179.044,383.880 177.783,384.100 177.517 C 385.020 176.406,384.998 157.385,384.075 156.273 C 383.842 155.992,383.410 154.711,383.115 153.426 C 382.403 150.325,381.055 146.480,380.471 145.884 C 380.213 145.620,379.898 144.965,379.771 144.429 C 379.644 143.893,379.254 143.127,378.903 142.727 C 378.552 142.327,378.149 141.616,378.006 141.146 C 377.863 140.676,377.476 139.992,377.146 139.626 C 376.816 139.260,376.186 138.499,375.746 137.935 C 375.306 137.371,374.458 136.286,373.860 135.525 C 373.263 134.764,372.723 134.025,372.660 133.883 C 372.597 133.741,371.400 132.683,370.000 131.531 C 368.600 130.379,367.221 129.236,366.936 128.991 C 366.128 128.297,361.396 125.818,360.879 125.818 C 360.796 125.818,360.727 126.194,360.727 126.653 M341.636 127.344 C 341.236 127.570,340.827 127.872,340.727 128.015 C 340.122 128.875,338.987 130.406,338.345 131.228 C 337.935 131.752,336.953 133.142,336.163 134.315 C 335.373 135.488,334.358 136.961,333.908 137.588 C 332.986 138.869,331.367 141.169,330.545 142.364 C 330.245 142.800,329.509 143.861,328.909 144.721 C 328.309 145.582,327.620 146.628,327.379 147.046 C 327.137 147.464,326.728 147.975,326.470 148.182 C 326.211 148.388,325.755 148.988,325.455 149.514 C 324.806 150.653,321.916 154.863,320.380 156.909 C 319.780 157.709,319.125 158.732,318.926 159.182 C 318.727 159.632,318.407 160.000,318.215 160.000 C 318.024 160.000,317.768 160.313,317.646 160.695 C 317.419 161.413,315.779 163.679,314.645 164.844 C 313.830 165.681,313.479 171.335,314.189 172.190 C 314.565 172.644,316.465 172.727,326.395 172.727 C 340.481 172.727,338.909 171.640,338.909 181.381 L 338.909 188.628 340.551 188.853 C 341.454 188.977,343.172 188.976,344.369 188.851 L 346.545 188.624 346.545 181.379 C 346.545 172.565,346.485 172.727,349.786 172.727 C 351.153 172.727,352.784 172.625,353.409 172.500 L 354.545 172.273 354.545 169.409 L 354.545 166.545 351.249 166.545 C 346.002 166.545,346.546 168.787,346.540 147.169 C 346.538 136.926,346.437 128.177,346.316 127.727 C 346.067 126.796,343.040 126.547,341.636 127.344 M338.338 139.481 C 339.342 140.485,339.185 165.645,338.172 166.187 C 337.683 166.449,334.510 166.545,328.772 166.473 C 318.848 166.348,318.375 166.228,319.742 164.197 C 320.184 163.541,321.322 161.847,322.270 160.434 C 323.219 159.020,324.170 157.756,324.384 157.624 C 324.597 157.492,324.929 157.032,325.121 156.601 C 325.313 156.170,325.967 155.164,326.573 154.364 C 327.180 153.564,328.011 152.377,328.420 151.727 C 328.828 151.077,329.310 150.545,329.490 150.545 C 329.671 150.545,329.818 150.323,329.818 150.050 C 329.818 149.614,330.560 148.514,332.551 146.000 C 333.215 145.162,335.247 142.259,336.561 140.273 C 337.595 138.710,337.576 138.719,338.338 139.481 M42.106 148.197 C 41.577 148.726,42.395 149.838,43.801 150.499 C 45.241 151.176,48.364 154.382,48.364 155.183 C 48.364 155.379,48.665 155.929,49.033 156.406 C 49.401 156.882,49.894 157.835,50.128 158.522 C 50.363 159.209,50.776 160.027,51.047 160.340 C 51.317 160.653,51.653 161.387,51.792 161.971 C 51.931 162.556,52.362 163.437,52.750 163.929 C 53.137 164.422,53.455 165.108,53.455 165.455 C 53.455 165.801,53.759 166.474,54.132 166.951 C 54.504 167.428,54.932 168.227,55.082 168.727 C 55.233 169.227,55.664 170.147,56.041 170.770 C 56.419 171.394,56.727 172.149,56.727 172.448 C 56.727 172.748,57.044 173.396,57.432 173.889 C 57.820 174.382,58.254 175.263,58.397 175.847 C 58.539 176.431,58.947 177.285,59.303 177.744 C 59.659 178.204,60.053 179.052,60.180 179.628 C 60.307 180.205,60.635 180.863,60.909 181.091 C 61.183 181.319,61.521 182.025,61.660 182.661 C 61.799 183.298,62.219 184.208,62.593 184.685 C 63.440 185.766,63.525 188.986,62.733 190.021 C 62.436 190.410,62.012 191.382,61.790 192.182 C 61.568 192.982,61.180 193.882,60.927 194.182 C 60.674 194.482,60.290 195.256,60.073 195.901 C 59.611 197.281,57.816 199.636,57.226 199.636 C 57.001 199.636,56.613 199.882,56.364 200.182 C 55.783 200.881,53.835 200.882,52.496 200.184 C 51.214 199.515,46.930 199.453,46.076 200.091 C 42.020 203.122,46.087 209.881,51.076 208.401 C 51.884 208.161,53.209 207.768,54.020 207.528 C 55.758 207.013,58.668 204.794,60.192 202.823 C 60.786 202.054,61.536 201.145,61.858 200.803 C 62.180 200.461,62.543 199.762,62.666 199.249 C 62.789 198.736,63.221 197.933,63.626 197.466 C 64.032 196.998,64.365 196.355,64.367 196.035 C 64.369 195.716,64.773 194.636,65.265 193.636 C 65.757 192.636,66.165 191.573,66.173 191.273 C 66.180 190.973,66.512 190.236,66.909 189.636 C 67.306 189.036,67.634 188.300,67.637 188.000 C 67.640 187.700,68.045 186.636,68.537 185.636 C 69.029 184.636,69.438 183.573,69.446 183.273 C 69.453 182.973,69.784 182.236,70.182 181.636 C 70.579 181.036,70.905 180.294,70.907 179.986 C 70.908 179.678,71.240 178.778,71.645 177.986 C 72.050 177.194,72.556 175.891,72.770 175.091 C 72.984 174.291,73.371 173.391,73.630 173.091 C 73.889 172.791,74.219 171.973,74.364 171.273 C 74.508 170.573,74.838 169.755,75.098 169.455 C 75.357 169.155,75.763 168.173,76.000 167.273 C 76.237 166.373,76.652 165.388,76.922 165.086 C 77.192 164.783,77.571 163.830,77.764 162.969 C 77.958 162.107,78.376 161.115,78.694 160.764 C 79.013 160.412,79.273 159.809,79.273 159.423 C 79.273 159.037,79.682 157.953,80.182 157.014 C 80.682 156.075,81.091 154.991,81.091 154.607 C 81.091 154.222,81.347 153.695,81.660 153.435 C 81.974 153.175,82.467 152.503,82.758 151.941 C 83.048 151.379,83.680 150.821,84.162 150.700 C 85.316 150.410,86.325 149.262,86.052 148.550 C 85.864 148.061,84.991 147.996,79.765 148.082 C 73.355 148.187,72.162 148.541,74.674 149.591 C 77.204 150.648,77.622 154.018,75.674 157.654 C 75.253 158.438,74.909 159.309,74.909 159.588 C 74.909 159.867,74.599 160.606,74.221 161.230 C 73.843 161.853,73.415 162.936,73.271 163.636 C 73.128 164.336,72.768 165.184,72.472 165.519 C 72.176 165.855,71.776 166.835,71.583 167.696 C 71.389 168.557,71.013 169.510,70.747 169.813 C 70.481 170.116,70.146 170.912,70.004 171.582 C 69.687 173.070,67.765 176.000,67.105 176.000 C 66.841 176.000,66.360 175.386,66.038 174.636 C 65.715 173.886,65.304 173.027,65.123 172.727 C 64.943 172.427,64.267 171.036,63.622 169.636 C 62.976 168.236,62.305 166.845,62.131 166.545 C 61.956 166.245,61.650 165.632,61.452 165.182 C 61.253 164.732,60.928 163.995,60.730 163.545 C 60.531 163.095,60.219 162.482,60.035 162.182 C 59.851 161.882,59.263 160.655,58.728 159.455 C 58.193 158.255,57.442 156.668,57.059 155.928 C 55.471 152.857,56.437 150.878,60.229 149.437 C 60.736 149.244,61.082 148.883,60.999 148.634 C 60.844 148.166,42.560 147.743,42.106 148.197 M162.919 148.350 C 162.093 148.872,163.761 150.441,165.443 150.725 C 167.119 151.008,168.950 152.825,171.091 156.328 C 171.291 156.655,171.756 157.247,172.125 157.643 C 172.494 158.039,173.701 159.755,174.807 161.455 C 175.914 163.155,176.952 164.631,177.114 164.735 C 177.276 164.839,177.744 165.705,178.153 166.660 L 178.897 168.397 177.998 169.744 C 176.652 171.759,175.879 172.826,175.273 173.501 C 174.973 173.835,174.318 174.718,173.818 175.463 C 173.318 176.208,172.541 177.185,172.091 177.633 C 171.641 178.081,171.273 178.624,171.273 178.839 C 171.273 179.055,170.971 179.445,170.603 179.707 C 170.235 179.968,169.866 180.375,169.785 180.612 C 169.425 181.656,165.277 185.882,164.151 186.353 C 163.003 186.833,162.272 188.648,163.182 188.761 C 165.189 189.012,175.291 188.991,175.449 188.736 C 175.905 187.998,175.197 186.605,174.243 186.366 C 172.235 185.862,171.613 183.701,173.091 182.364 C 173.491 182.002,173.818 181.550,173.818 181.360 C 173.818 181.170,174.186 180.551,174.636 179.984 C 175.086 179.417,176.191 177.947,177.091 176.717 C 181.135 171.188,181.530 171.159,184.920 176.145 C 185.314 176.725,185.882 177.560,186.182 178.000 C 186.482 178.440,187.037 179.275,187.416 179.855 C 187.794 180.435,188.417 181.365,188.800 181.922 C 189.981 183.642,189.592 185.897,188.027 186.403 C 186.560 186.877,185.830 188.241,186.825 188.650 C 187.579 188.960,204.966 188.974,205.275 188.665 C 206.010 187.929,204.961 186.609,203.463 186.384 C 202.380 186.222,201.519 185.778,200.675 184.949 C 199.224 183.523,197.091 180.878,197.091 180.506 C 197.091 180.361,196.842 179.984,196.537 179.667 C 195.631 178.724,193.818 176.284,193.818 176.006 C 193.818 175.864,193.532 175.400,193.182 174.974 C 192.832 174.549,192.172 173.665,191.716 173.009 C 191.260 172.354,190.482 171.245,189.988 170.545 C 189.494 169.845,188.989 168.986,188.866 168.636 C 188.743 168.286,188.502 168.000,188.331 168.000 C 186.838 168.000,186.657 163.966,188.070 162.193 C 188.532 161.614,189.318 160.553,189.818 159.835 C 190.318 159.116,191.055 158.130,191.455 157.644 C 195.504 152.721,197.270 151.007,198.593 150.717 C 199.809 150.450,200.883 149.295,200.601 148.559 C 200.420 148.087,199.460 148.001,194.466 148.006 C 187.356 148.012,187.020 148.139,188.819 150.130 C 190.260 151.725,190.241 153.368,188.760 155.091 C 188.109 155.848,187.129 157.268,186.164 158.851 C 185.125 160.556,182.182 160.464,182.182 158.727 C 182.182 158.489,181.859 158.002,181.464 157.645 C 181.069 157.287,180.641 156.648,180.513 156.225 C 180.385 155.801,179.994 155.127,179.643 154.727 C 178.344 153.243,178.424 151.773,179.893 150.147 C 180.972 148.953,181.126 148.609,180.704 148.341 C 180.014 147.905,163.610 147.913,162.919 148.350 M239.330 148.320 C 238.207 149.033,240.668 150.896,242.747 150.907 C 243.413 150.911,247.636 155.908,247.636 156.693 C 247.636 156.898,247.964 157.240,248.364 157.455 C 248.764 157.669,249.091 157.992,249.091 158.173 C 249.091 158.538,253.045 164.435,253.491 164.735 C 253.646 164.839,254.107 165.705,254.517 166.660 L 255.261 168.397 254.362 169.744 C 253.016 171.759,252.243 172.826,251.636 173.501 C 251.336 173.835,250.682 174.718,250.182 175.463 C 249.682 176.208,248.905 177.185,248.455 177.633 C 248.005 178.081,247.636 178.624,247.636 178.839 C 247.636 179.055,247.335 179.445,246.967 179.707 C 246.598 179.968,246.230 180.375,246.148 180.612 C 245.785 181.667,241.635 185.885,240.490 186.363 C 239.417 186.812,239.241 187.048,239.339 187.901 L 239.455 188.909 245.515 188.909 C 248.849 188.909,251.679 188.806,251.806 188.679 C 252.341 188.144,251.541 186.600,250.607 186.366 C 248.599 185.862,247.977 183.701,249.455 182.364 C 249.855 182.002,250.182 181.550,250.182 181.360 C 250.182 181.170,250.550 180.548,251.000 179.977 C 251.450 179.407,252.555 177.932,253.455 176.699 C 257.475 171.192,257.896 171.162,261.283 176.145 C 261.678 176.725,262.245 177.560,262.545 178.000 C 262.845 178.440,263.401 179.275,263.779 179.855 C 264.158 180.435,264.781 181.365,265.163 181.922 C 266.344 183.642,265.956 185.897,264.391 186.403 C 263.222 186.780,262.227 188.166,262.750 188.689 C 263.043 188.983,281.329 188.973,281.624 188.679 C 282.373 187.931,281.338 186.611,279.824 186.384 C 278.767 186.225,277.858 185.769,277.040 184.987 C 275.548 183.561,273.455 180.853,273.455 180.349 C 273.455 180.145,273.197 179.878,272.881 179.757 C 272.566 179.636,272.153 179.191,271.963 178.769 C 271.773 178.346,271.210 177.427,270.712 176.727 C 270.214 176.027,269.605 175.150,269.358 174.777 C 269.111 174.404,268.500 173.561,268.000 172.903 C 267.500 172.244,266.809 171.240,266.465 170.671 C 265.458 169.007,264.950 168.288,264.282 167.587 C 262.946 166.182,263.025 163.968,264.478 162.140 C 264.915 161.591,265.682 160.545,266.182 159.815 C 267.151 158.402,267.702 157.711,270.000 155.025 C 272.356 152.272,273.935 150.892,274.981 150.670 C 276.206 150.411,277.249 149.300,276.965 148.559 C 276.705 147.883,264.587 147.708,264.175 148.374 C 264.048 148.580,264.464 149.342,265.100 150.066 C 266.402 151.549,266.418 153.630,265.140 155.087 C 264.475 155.844,263.511 157.235,262.516 158.872 C 261.568 160.433,258.545 160.389,258.545 158.814 C 258.545 158.624,258.136 157.982,257.636 157.388 C 257.136 156.794,256.727 156.111,256.727 155.871 C 256.727 155.631,256.400 155.154,256.000 154.812 C 255.600 154.469,255.273 153.873,255.273 153.488 C 255.273 153.102,255.179 152.542,255.064 152.243 C 254.939 151.917,255.405 151.090,256.222 150.185 C 257.327 148.962,257.489 148.608,257.067 148.341 C 256.407 147.923,239.987 147.904,239.330 148.320 M88.455 149.694 C 87.875 149.930,87.863 151.717,88.436 152.291 C 88.767 152.621,94.552 152.727,112.248 152.727 L 135.623 152.727 135.865 151.762 C 136.425 149.531,137.631 149.643,112.142 149.573 C 99.364 149.538,88.705 149.592,88.455 149.694 M103.915 164.250 L 88.376 164.371 88.134 165.333 C 87.576 167.557,86.383 167.445,111.817 167.548 C 136.142 167.646,136.006 167.655,135.994 166.046 C 135.980 163.992,136.095 163.998,103.915 164.250 M286.061 164.970 C 285.758 165.273,285.740 170.281,286.039 171.061 C 286.415 172.042,307.823 171.919,308.351 170.933 C 308.983 169.751,308.833 165.209,308.152 164.948 C 307.365 164.646,286.364 164.667,286.061 164.970 " stroke="none" fill="#0e0e0e" fill-rule="evenodd"></path><path id="path2" d="M232.109 124.858 C 231.949 125.129,231.193 125.555,230.429 125.803 C 229.665 126.052,228.958 126.469,228.857 126.731 C 228.757 126.993,228.277 127.307,227.792 127.429 C 227.306 127.551,226.909 127.807,226.909 127.998 C 226.909 128.189,226.424 128.596,225.831 128.903 C 224.650 129.513,218.545 135.541,218.545 136.096 C 218.545 136.413,217.834 137.381,215.987 139.576 C 215.594 140.043,215.273 140.635,215.273 140.891 C 215.273 141.147,214.968 141.747,214.595 142.224 C 214.223 142.701,213.791 143.500,213.636 144.000 C 213.481 144.500,213.050 145.299,212.677 145.776 C 212.305 146.253,212.000 147.090,212.000 147.636 C 212.000 148.182,211.682 149.034,211.293 149.528 C 210.904 150.022,210.470 151.312,210.328 152.395 C 210.186 153.478,209.809 154.765,209.490 155.256 C 208.604 156.618,208.619 177.050,209.506 178.053 C 209.835 178.424,210.222 179.627,210.368 180.727 C 210.513 181.827,210.940 183.334,211.316 184.076 C 211.692 184.818,212.000 185.759,212.000 186.167 C 212.000 186.575,212.311 187.220,212.690 187.599 C 213.070 187.979,213.488 188.780,213.620 189.380 C 213.752 189.979,214.177 190.758,214.566 191.110 C 214.955 191.461,215.273 192.038,215.273 192.392 C 215.273 192.746,215.682 193.521,216.182 194.116 C 216.682 194.710,217.091 195.317,217.091 195.465 C 217.091 195.614,217.459 196.095,217.909 196.535 C 218.359 196.975,219.136 197.889,219.636 198.566 C 220.701 200.009,223.378 202.705,225.032 204.000 C 225.671 204.500,226.472 205.195,226.814 205.545 C 227.155 205.895,227.618 206.182,227.842 206.182 C 228.067 206.182,228.726 206.591,229.307 207.090 C 229.888 207.590,230.599 207.999,230.886 208.000 C 231.173 208.000,231.785 208.354,232.246 208.787 C 233.315 209.792,234.638 209.302,235.198 207.694 C 235.633 206.447,235.017 205.663,230.483 201.687 C 229.148 200.516,227.860 199.085,227.620 198.507 C 227.381 197.928,227.043 197.455,226.870 197.455 C 226.697 197.455,226.299 196.923,225.985 196.273 C 225.224 194.693,224.314 193.105,223.542 192.010 C 223.194 191.515,222.909 190.691,222.909 190.178 C 222.909 189.665,222.576 188.596,222.169 187.804 C 221.684 186.862,221.306 185.087,221.074 182.671 C 220.879 180.640,220.475 178.395,220.178 177.683 C 219.373 175.756,219.384 156.815,220.191 155.255 C 220.496 154.665,220.895 152.611,221.076 150.692 C 221.290 148.430,221.606 146.981,221.974 146.574 C 222.286 146.229,222.646 145.141,222.773 144.155 C 222.901 143.170,223.289 142.036,223.637 141.636 C 223.984 141.236,224.374 140.461,224.504 139.913 C 224.633 139.366,225.233 138.220,225.836 137.368 C 226.439 136.516,227.206 135.409,227.541 134.909 C 228.394 133.632,231.634 130.576,232.759 129.989 C 233.713 129.490,235.636 127.238,235.636 126.619 C 235.636 125.121,232.791 123.700,232.109 124.858 M360.013 125.067 C 359.264 126.466,359.567 127.993,360.818 129.128 C 361.468 129.718,362.344 130.524,362.766 130.919 C 363.187 131.313,363.707 131.636,363.923 131.636 C 364.138 131.636,364.416 131.955,364.540 132.345 C 364.663 132.735,365.066 133.149,365.434 133.266 C 365.802 133.383,366.202 133.760,366.323 134.103 C 366.560 134.775,367.981 136.896,368.849 137.873 C 369.143 138.203,369.500 138.858,369.642 139.328 C 369.785 139.797,370.193 140.509,370.548 140.909 C 370.903 141.309,371.312 142.209,371.456 142.909 C 371.600 143.609,371.950 144.446,372.234 144.769 C 372.519 145.093,372.894 146.565,373.067 148.042 C 373.241 149.519,373.679 151.382,374.042 152.182 C 375.036 154.374,375.065 179.777,374.076 181.981 C 373.721 182.771,373.273 184.536,373.079 185.904 C 372.885 187.272,372.497 188.753,372.217 189.196 C 371.937 189.638,371.589 190.573,371.443 191.273 C 371.297 191.973,370.883 192.921,370.523 193.381 C 370.163 193.840,369.766 194.682,369.641 195.252 C 369.516 195.822,369.095 196.576,368.707 196.928 C 368.318 197.279,368.000 197.728,368.000 197.924 C 368.000 198.120,367.632 198.653,367.182 199.108 C 366.732 199.563,365.844 200.482,365.208 201.150 C 364.572 201.817,363.623 202.691,363.099 203.091 C 360.130 205.356,359.636 205.909,359.636 206.971 C 359.636 208.277,360.218 209.455,360.864 209.455 C 361.594 209.455,365.818 207.260,365.818 206.881 C 365.818 206.696,366.043 206.545,366.317 206.545 C 367.348 206.545,373.877 200.687,376.105 197.763 C 377.356 196.121,378.530 194.357,378.862 193.621 C 379.046 193.213,379.449 192.670,379.757 192.414 C 380.065 192.159,380.426 191.453,380.559 190.847 C 380.692 190.240,381.112 189.434,381.492 189.054 C 381.871 188.674,382.182 187.977,382.182 187.504 C 382.182 187.031,382.488 186.253,382.863 185.776 C 383.237 185.299,383.662 184.173,383.807 183.273 C 383.951 182.373,384.315 181.251,384.614 180.780 C 384.931 180.280,385.299 178.312,385.497 176.053 C 385.684 173.924,385.996 171.396,386.191 170.437 C 386.650 168.177,386.643 165.395,386.176 164.166 C 385.973 163.632,385.710 161.453,385.592 159.325 C 385.450 156.769,385.154 154.960,384.720 154.000 C 384.358 153.200,383.946 151.809,383.804 150.909 C 383.663 150.009,383.253 148.700,382.894 148.000 C 382.536 147.300,382.066 146.318,381.851 145.818 C 381.636 145.318,381.299 144.664,381.102 144.364 C 380.906 144.064,380.491 143.245,380.181 142.545 C 379.469 140.940,378.739 139.658,378.006 138.727 C 375.194 135.160,373.313 132.896,372.464 132.059 C 370.572 130.193,366.873 127.273,366.401 127.273 C 366.142 127.273,365.635 126.945,365.273 126.545 C 364.911 126.145,364.417 125.818,364.174 125.818 C 363.932 125.818,363.318 125.491,362.810 125.091 C 361.640 124.171,360.498 124.161,360.013 125.067 M361.818 125.273 C 362.067 125.573,362.474 125.818,362.722 125.818 C 363.412 125.818,369.416 129.932,371.372 131.746 C 376.352 136.361,382.361 146.526,383.643 152.501 C 383.852 153.476,384.211 154.621,384.441 155.046 C 385.696 157.369,385.793 174.649,384.573 178.545 C 384.292 179.445,383.879 180.918,383.656 181.818 C 381.076 192.226,372.106 203.473,362.917 207.819 C 359.907 209.242,358.698 207.278,361.316 205.218 C 363.378 203.595,368.135 198.842,368.904 197.636 C 370.774 194.706,372.894 189.821,373.413 187.247 C 373.592 186.361,373.991 184.655,374.300 183.455 C 375.934 177.108,375.900 154.669,374.250 150.503 C 374.043 149.979,373.698 148.603,373.483 147.444 C 372.945 144.531,371.493 141.052,369.795 138.606 C 369.008 137.473,368.364 136.324,368.364 136.052 C 368.364 135.781,366.482 133.709,364.182 131.447 C 359.786 127.124,359.794 127.136,360.355 125.660 C 360.759 124.597,361.167 124.489,361.818 125.273 M234.249 126.003 C 234.840 127.300,234.215 128.275,231.549 130.212 C 228.572 132.373,225.441 136.229,224.192 139.273 C 223.986 139.773,223.550 140.591,223.223 141.091 C 222.895 141.591,222.513 142.649,222.373 143.442 C 222.234 144.235,221.903 145.302,221.639 145.813 C 221.375 146.324,220.902 148.130,220.588 149.826 C 220.274 151.522,219.831 153.727,219.602 154.727 C 218.828 158.121,219.056 175.916,219.929 180.182 C 220.338 182.182,220.777 184.473,220.904 185.273 C 221.374 188.234,223.724 194.033,225.178 195.818 C 225.340 196.018,225.987 197.000,226.615 198.000 C 228.018 200.235,230.661 203.070,232.365 204.167 C 234.238 205.373,234.818 206.621,234.049 207.794 L 233.448 208.712 231.906 207.914 C 229.543 206.690,226.828 204.860,225.338 203.487 C 224.884 203.069,224.027 202.318,223.432 201.818 C 221.667 200.335,215.636 192.737,215.636 191.998 C 215.636 191.623,215.512 191.239,215.361 191.145 C 214.400 190.551,211.634 183.788,210.728 179.813 C 210.453 178.610,210.031 177.137,209.789 176.540 C 209.162 174.992,208.893 160.692,209.451 158.545 C 209.685 157.645,210.125 155.683,210.430 154.185 C 210.735 152.686,211.294 150.852,211.674 150.108 C 212.053 149.365,212.364 148.511,212.364 148.212 C 212.364 147.490,215.587 141.339,217.048 139.273 C 217.685 138.373,218.484 137.227,218.823 136.727 C 219.556 135.650,222.367 132.561,223.594 131.486 C 224.070 131.069,224.643 130.564,224.867 130.364 C 226.912 128.532,232.318 125.202,233.371 125.125 C 233.626 125.106,234.021 125.501,234.249 126.003 M339.582 127.372 C 338.868 128.227,338.167 129.291,338.026 129.736 C 337.885 130.181,337.633 130.545,337.466 130.545 C 337.299 130.545,336.825 131.077,336.413 131.727 C 336.000 132.377,334.918 133.973,334.008 135.273 C 329.977 141.030,329.914 141.121,328.563 143.128 C 328.173 143.707,327.632 144.427,327.361 144.727 C 327.091 145.027,326.347 146.098,325.707 147.107 C 325.068 148.116,324.338 149.180,324.085 149.471 C 323.260 150.417,321.845 152.526,321.473 153.364 C 321.273 153.814,320.961 154.182,320.780 154.182 C 320.600 154.182,320.249 154.673,320.000 155.273 C 319.751 155.873,319.423 156.364,319.270 156.364 C 319.117 156.364,318.720 156.936,318.388 157.636 C 318.056 158.336,317.648 158.909,317.482 158.909 C 317.315 158.909,316.976 159.400,316.727 160.000 C 316.479 160.600,316.135 161.091,315.963 161.091 C 315.792 161.091,315.317 161.745,314.909 162.545 C 314.501 163.345,314.007 164.000,313.811 164.000 C 313.615 164.000,313.455 164.223,313.455 164.496 C 313.455 164.769,313.127 165.409,312.727 165.917 C 311.507 167.469,311.674 172.032,312.996 173.258 L 313.993 174.182 325.087 174.218 C 331.189 174.238,336.591 174.368,337.091 174.507 L 338.000 174.760 338.099 181.807 C 338.219 190.316,337.932 189.818,342.699 189.818 C 347.562 189.818,347.273 190.303,347.273 182.139 C 347.273 173.519,346.953 174.182,351.109 174.182 C 355.428 174.182,355.636 173.961,355.636 169.395 C 355.636 165.571,355.772 165.689,351.091 165.455 L 347.455 165.273 347.360 146.033 C 347.253 124.043,347.577 125.818,343.669 125.818 L 340.881 125.818 339.582 127.372 M346.498 126.670 C 346.781 127.011,346.931 132.926,346.997 146.397 L 347.091 165.636 350.727 165.818 C 355.363 166.050,355.273 165.978,355.273 169.431 C 355.273 173.062,355.081 173.233,350.831 173.401 C 346.761 173.561,346.909 173.239,346.909 181.951 C 346.909 189.854,347.132 189.455,342.727 189.455 C 338.323 189.455,338.545 189.854,338.545 181.951 C 338.545 178.304,338.386 174.900,338.191 174.387 L 337.836 173.455 326.123 173.455 C 312.459 173.455,312.727 173.523,312.727 170.025 C 312.727 166.941,313.264 165.748,316.909 160.733 C 317.309 160.182,318.413 158.606,319.362 157.230 C 321.512 154.111,324.093 150.399,325.273 148.727 C 326.194 147.422,328.970 143.441,330.090 141.818 C 330.435 141.318,330.925 140.693,331.177 140.429 C 331.430 140.164,331.636 139.819,331.636 139.660 C 331.636 139.502,332.130 138.737,332.733 137.959 C 334.768 135.336,334.941 135.095,336.095 133.273 C 336.728 132.273,337.364 131.370,337.508 131.266 C 337.653 131.162,338.434 130.099,339.245 128.902 C 340.057 127.706,341.090 126.621,341.542 126.491 C 343.066 126.052,346.075 126.161,346.498 126.670 M336.135 142.088 C 335.361 143.237,334.564 144.373,334.364 144.612 C 334.164 144.852,333.622 145.589,333.160 146.251 C 332.697 146.913,331.112 149.173,329.636 151.273 C 328.161 153.373,326.612 155.582,326.196 156.182 C 325.779 156.782,324.370 158.730,323.066 160.510 C 318.887 166.213,318.416 165.840,329.636 165.725 L 338.364 165.636 338.469 154.000 C 338.607 138.729,338.560 138.492,336.135 142.088 M338.096 153.522 L 338.000 165.273 329.337 165.370 L 320.674 165.468 320.918 164.698 C 321.053 164.275,321.433 163.634,321.763 163.274 C 322.093 162.914,322.773 162.018,323.273 161.284 C 323.773 160.550,324.550 159.488,325.000 158.922 C 325.450 158.357,325.818 157.722,325.818 157.509 C 325.818 157.297,326.186 156.731,326.636 156.250 C 327.657 155.160,328.581 153.956,329.478 152.545 C 330.634 150.727,331.069 150.090,331.568 149.486 C 333.005 147.750,334.182 146.032,334.182 145.674 C 334.182 145.449,334.509 145.061,334.909 144.812 C 335.309 144.562,335.636 144.142,335.636 143.878 C 335.636 143.615,336.045 143.015,336.545 142.545 C 337.045 142.076,337.460 141.434,337.466 141.118 C 337.475 140.623,337.525 140.628,337.834 141.159 C 338.054 141.536,338.155 146.295,338.096 153.522 M41.727 147.302 C 40.176 148.206,41.042 150.973,43.033 151.472 C 44.691 151.889,46.103 153.469,47.645 156.636 C 48.059 157.486,48.535 158.182,48.704 158.182 C 48.872 158.182,49.114 158.738,49.242 159.418 C 49.369 160.097,49.772 161.038,50.136 161.509 C 50.500 161.979,50.915 162.842,51.058 163.426 C 51.201 164.010,51.635 164.891,52.023 165.384 C 52.410 165.877,52.727 166.563,52.727 166.909 C 52.727 167.255,53.032 167.929,53.405 168.406 C 53.777 168.882,54.205 169.682,54.355 170.182 C 54.505 170.682,54.937 171.601,55.314 172.225 C 55.691 172.848,56.000 173.604,56.000 173.903 C 56.000 174.202,56.329 174.865,56.730 175.376 C 57.132 175.887,57.560 176.800,57.681 177.406 C 57.802 178.012,58.210 178.787,58.587 179.129 C 58.964 179.470,59.273 180.111,59.273 180.553 C 59.273 180.995,59.576 181.747,59.947 182.224 C 60.318 182.701,60.817 183.691,61.057 184.425 C 61.296 185.159,61.739 185.965,62.042 186.217 C 62.655 186.725,62.460 188.137,61.669 188.929 C 61.406 189.191,61.089 190.050,60.963 190.837 C 60.837 191.625,60.497 192.465,60.208 192.705 C 59.920 192.945,59.570 193.662,59.431 194.298 C 59.292 194.934,58.791 195.917,58.317 196.482 C 57.842 197.048,57.455 197.724,57.455 197.985 C 57.455 198.874,53.074 199.250,50.182 198.610 C 46.259 197.742,42.909 200.039,42.909 203.598 C 42.909 205.174,44.332 208.000,45.126 208.000 C 45.291 208.000,45.758 208.356,46.163 208.791 C 47.212 209.917,53.430 209.931,54.666 208.810 C 55.100 208.417,55.864 207.998,56.364 207.879 C 58.105 207.464,62.969 202.246,63.468 200.258 C 63.597 199.746,64.014 199.043,64.396 198.698 C 64.778 198.352,65.091 197.707,65.091 197.265 C 65.091 196.823,65.435 196.025,65.854 195.491 C 66.274 194.957,66.704 193.878,66.809 193.093 C 66.915 192.308,67.307 191.389,67.682 191.049 C 68.057 190.710,68.369 190.008,68.375 189.489 C 68.381 188.970,68.789 187.891,69.282 187.091 C 69.775 186.291,70.179 185.290,70.180 184.867 C 70.181 184.444,70.488 183.708,70.863 183.231 C 71.237 182.754,71.658 181.681,71.799 180.847 C 71.939 180.012,72.272 179.246,72.537 179.144 C 72.803 179.043,73.201 178.117,73.421 177.088 C 73.642 176.058,74.061 174.978,74.352 174.687 C 74.642 174.396,74.994 173.550,75.134 172.806 C 75.273 172.063,75.673 171.045,76.023 170.545 C 76.373 170.045,76.761 169.039,76.885 168.309 C 77.009 167.579,77.347 166.786,77.636 166.545 C 77.926 166.305,78.274 165.512,78.411 164.782 C 78.548 164.052,78.946 163.045,79.296 162.545 C 79.646 162.045,80.033 161.039,80.157 160.309 C 80.281 159.579,80.620 158.786,80.909 158.545 C 81.199 158.305,81.545 157.525,81.678 156.812 C 82.083 154.658,84.307 151.636,85.488 151.636 C 85.836 151.636,86.639 152.291,87.273 153.091 L 88.425 154.545 111.940 154.540 C 124.873 154.537,135.636 154.414,135.858 154.267 C 137.431 153.227,137.750 150.819,136.527 149.216 L 135.599 148.000 112.209 148.000 C 92.347 148.000,88.585 147.918,87.273 147.455 C 84.990 146.649,73.746 146.669,72.935 147.481 C 71.638 148.778,72.687 151.152,74.641 151.341 C 75.995 151.472,76.315 154.284,75.125 155.599 C 74.811 155.946,74.445 156.792,74.312 157.478 C 74.178 158.165,73.786 159.094,73.440 159.541 C 73.094 159.989,72.703 161.079,72.570 161.964 C 72.437 162.848,72.100 163.660,71.821 163.767 C 71.541 163.874,71.202 164.584,71.067 165.345 C 70.931 166.105,70.531 167.218,70.177 167.818 C 69.823 168.418,69.412 169.482,69.265 170.182 C 69.117 170.882,68.690 171.845,68.316 172.322 C 67.942 172.799,67.636 173.412,67.636 173.685 C 67.636 174.558,66.997 174.217,66.744 173.211 C 66.610 172.676,66.183 171.836,65.796 171.343 C 65.408 170.851,65.091 170.164,65.091 169.818 C 65.091 169.472,64.785 168.799,64.411 168.322 C 64.037 167.845,63.619 166.940,63.481 166.310 C 63.344 165.681,62.914 164.879,62.525 164.527 C 62.136 164.175,61.818 163.526,61.818 163.084 C 61.818 162.642,61.517 161.890,61.149 161.413 C 60.781 160.936,60.288 159.983,60.054 159.296 C 59.819 158.609,59.416 157.791,59.159 157.478 C 57.492 155.454,57.795 151.583,59.640 151.330 C 61.512 151.074,62.560 149.065,61.564 147.643 C 60.980 146.810,43.101 146.502,41.727 147.302 M162.364 147.161 C 159.587 147.886,160.638 150.997,163.819 151.474 C 165.135 151.671,165.775 152.065,167.248 153.585 C 168.244 154.613,169.394 155.799,169.802 156.220 C 170.211 156.641,170.545 157.161,170.545 157.376 C 170.545 157.591,170.820 158.041,171.156 158.377 C 171.492 158.713,172.024 159.437,172.338 159.987 C 173.587 162.171,174.634 163.636,174.945 163.636 C 175.125 163.636,175.273 163.869,175.273 164.154 C 175.273 164.439,175.682 165.158,176.182 165.752 C 177.365 167.159,177.367 168.820,176.185 170.311 C 175.687 170.940,175.035 171.782,174.736 172.182 C 172.596 175.048,172.079 175.752,171.273 176.903 C 170.257 178.351,169.885 178.798,166.606 182.503 C 165.340 183.935,163.773 185.328,163.124 185.599 C 161.368 186.333,160.658 188.224,161.793 189.143 C 162.755 189.923,174.659 190.172,176.024 189.442 C 177.493 188.656,176.837 185.979,175.060 185.504 C 173.548 185.100,173.708 182.240,175.297 181.258 C 175.615 181.061,176.731 179.509,178.000 177.497 C 178.200 177.180,178.650 176.704,179.000 176.439 C 179.350 176.175,179.636 175.753,179.636 175.502 C 179.636 175.251,180.129 174.682,180.731 174.237 L 181.826 173.427 182.187 174.259 C 182.386 174.717,183.115 175.827,183.807 176.727 C 184.499 177.627,185.335 178.895,185.665 179.545 C 185.995 180.195,186.399 180.727,186.562 180.727 C 186.726 180.727,186.972 181.095,187.108 181.545 C 187.245 181.995,187.680 182.717,188.075 183.149 C 189.062 184.229,188.791 185.193,187.421 185.473 C 185.721 185.821,185.455 186.107,185.455 187.585 C 185.455 189.837,185.367 189.818,195.865 189.818 C 204.051 189.818,205.484 189.737,205.974 189.247 C 207.326 187.895,206.179 185.455,204.192 185.455 C 203.006 185.455,197.818 180.614,197.818 179.508 C 197.818 179.312,197.568 178.893,197.263 178.576 C 196.489 177.774,194.996 175.607,194.583 174.686 C 194.393 174.263,193.980 173.818,193.664 173.697 C 193.349 173.576,193.091 173.249,193.091 172.971 C 193.091 172.506,191.649 170.414,190.418 169.091 C 190.139 168.791,189.804 168.199,189.673 167.775 C 189.543 167.352,189.113 166.713,188.718 166.355 C 187.772 165.499,187.809 164.327,188.818 163.158 C 189.695 162.142,190.283 161.382,191.966 159.091 C 192.553 158.291,193.374 157.292,193.790 156.871 C 194.205 156.450,194.545 155.989,194.545 155.847 C 194.545 155.071,198.501 151.726,199.681 151.504 C 202.295 151.014,203.422 148.384,201.455 147.366 C 199.732 146.475,187.481 146.901,186.497 147.886 C 185.581 148.803,186.059 149.972,187.823 151.128 C 188.945 151.863,188.973 152.854,187.909 154.214 C 185.797 156.916,185.455 157.415,185.455 157.794 C 185.455 158.144,183.625 159.105,183.484 158.828 C 183.456 158.773,183.154 158.114,182.813 157.364 C 182.472 156.614,182.027 156.000,181.824 156.000 C 181.621 156.000,181.455 155.755,181.455 155.455 C 181.455 155.155,181.135 154.589,180.744 154.198 C 179.691 153.145,179.606 151.485,180.598 151.343 C 182.171 151.119,183.256 148.978,182.395 147.799 C 181.885 147.100,164.695 146.553,162.364 147.161 M238.182 147.378 C 236.113 148.421,237.499 151.153,240.287 151.527 C 241.851 151.737,242.031 151.880,246.178 156.220 C 246.580 156.641,246.909 157.190,246.909 157.440 C 246.909 157.690,247.277 158.357,247.727 158.922 C 248.177 159.488,248.955 160.550,249.455 161.284 C 249.955 162.018,250.634 162.914,250.964 163.274 C 251.294 163.634,251.667 164.250,251.792 164.643 C 251.916 165.037,252.342 165.651,252.737 166.008 C 253.759 166.934,253.674 168.891,252.549 170.311 C 252.050 170.940,251.399 171.782,251.101 172.182 C 244.379 181.211,241.319 184.692,239.115 185.817 C 237.567 186.607,237.093 188.282,238.170 189.155 C 239.120 189.924,251.038 190.164,252.388 189.442 C 253.886 188.640,252.893 185.455,251.145 185.455 C 250.186 185.455,249.499 183.662,250.289 183.220 C 250.630 183.029,250.909 182.713,250.909 182.517 C 250.909 182.321,251.727 181.107,252.727 179.818 C 253.727 178.530,254.545 177.346,254.545 177.189 C 254.545 177.031,254.873 176.698,255.273 176.448 C 255.673 176.198,256.000 175.781,256.000 175.520 C 256.000 175.259,256.493 174.682,257.095 174.237 L 258.189 173.427 258.551 174.259 C 258.749 174.717,259.478 175.827,260.170 176.727 C 260.863 177.627,261.699 178.895,262.029 179.545 C 262.358 180.195,262.773 180.727,262.951 180.727 C 263.128 180.727,263.273 180.923,263.273 181.162 C 263.273 181.402,263.701 182.215,264.224 182.971 C 265.267 184.475,265.174 185.455,263.988 185.455 C 262.000 185.455,260.662 188.933,262.393 189.597 C 263.894 190.173,281.755 189.830,282.371 189.213 C 283.668 187.917,282.336 185.455,280.338 185.455 C 279.352 185.455,274.182 180.445,274.182 179.489 C 274.182 179.266,273.855 178.880,273.455 178.630 C 273.055 178.380,272.727 177.954,272.727 177.683 C 272.727 177.256,271.554 175.534,270.105 173.838 C 269.858 173.548,269.406 172.876,269.101 172.345 C 267.851 170.168,266.818 168.727,266.510 168.727 C 266.329 168.727,266.182 168.494,266.182 168.210 C 266.182 167.925,265.773 167.206,265.273 166.612 C 264.148 165.275,264.125 164.383,265.182 163.158 C 265.632 162.637,266.284 161.836,266.631 161.378 C 266.978 160.920,267.755 159.909,268.358 159.132 C 268.961 158.354,269.455 157.588,269.455 157.430 C 269.455 156.559,274.813 151.734,276.033 151.506 C 278.654 151.015,279.796 148.375,277.818 147.378 C 275.971 146.447,264.227 146.748,263.055 147.757 C 261.917 148.736,262.498 150.439,264.242 151.234 C 265.324 151.727,265.335 152.855,264.273 154.214 C 262.161 156.916,261.818 157.415,261.818 157.794 C 261.818 158.017,261.398 158.359,260.885 158.554 C 259.694 159.008,259.636 159.002,259.636 158.442 C 259.636 157.917,257.299 154.172,256.766 153.842 C 255.673 153.167,255.934 151.674,257.240 151.128 C 259.634 150.128,259.749 147.604,257.422 147.139 C 255.175 146.690,239.153 146.889,238.182 147.378 M61.231 148.091 C 61.800 148.993,61.189 149.840,59.308 150.757 C 57.280 151.746,56.216 153.962,57.414 154.702 C 57.592 154.812,57.845 155.354,57.975 155.906 C 58.192 156.823,61.424 163.807,62.226 165.091 C 62.413 165.391,62.660 165.911,62.774 166.247 C 62.887 166.583,63.930 168.776,65.091 171.121 L 67.201 175.385 68.321 173.602 C 68.937 172.621,69.445 171.573,69.451 171.273 C 69.457 170.973,69.864 169.909,70.356 168.909 C 70.848 167.909,71.256 166.845,71.263 166.545 C 71.270 166.245,71.602 165.464,72.001 164.809 C 72.401 164.155,72.729 163.418,72.731 163.173 C 72.732 162.928,73.136 161.909,73.628 160.909 C 74.120 159.909,74.528 158.843,74.534 158.540 C 74.540 158.237,74.894 157.339,75.320 156.544 C 76.694 153.980,76.480 151.636,74.789 150.739 C 72.932 149.754,72.466 148.891,73.296 147.974 C 74.268 146.900,84.626 146.920,86.640 148.000 C 87.957 148.706,88.692 148.727,111.621 148.727 L 135.244 148.727 135.986 149.523 C 136.871 150.473,136.919 151.302,136.172 152.745 L 135.618 153.818 112.199 153.818 L 88.780 153.818 88.026 152.860 C 87.612 152.333,87.273 151.679,87.273 151.406 C 87.273 149.041,81.530 153.214,81.450 155.636 C 81.440 155.936,81.029 157.000,80.537 158.000 C 80.045 159.000,79.640 160.064,79.637 160.364 C 79.634 160.664,79.306 161.400,78.909 162.000 C 78.512 162.600,78.180 163.336,78.173 163.636 C 78.165 163.936,77.757 165.000,77.265 166.000 C 76.773 167.000,76.368 168.064,76.365 168.364 C 76.361 168.664,76.034 169.400,75.636 170.000 C 75.239 170.600,74.911 171.336,74.908 171.636 C 74.905 171.936,74.500 173.000,74.008 174.000 C 73.516 175.000,73.109 176.003,73.102 176.229 C 73.091 176.628,71.774 179.800,70.705 182.000 C 70.413 182.600,70.026 183.582,69.844 184.182 C 69.662 184.782,68.914 186.664,68.182 188.364 C 67.449 190.064,66.722 191.864,66.566 192.364 C 66.411 192.864,65.933 193.925,65.505 194.722 C 65.077 195.519,64.727 196.450,64.727 196.791 C 64.727 197.132,64.564 197.513,64.364 197.636 C 64.165 197.759,63.564 198.792,63.028 199.930 C 58.916 208.677,47.297 212.159,44.032 205.622 C 41.800 201.153,45.342 198.252,51.765 199.288 C 55.922 199.958,59.636 198.186,59.636 195.533 C 59.636 195.334,59.952 194.498,60.338 193.676 C 63.400 187.159,63.365 187.527,61.316 183.395 C 60.440 181.628,59.541 179.773,59.319 179.273 C 59.096 178.773,58.761 178.118,58.573 177.818 C 58.385 177.518,57.709 176.127,57.070 174.727 C 54.993 170.174,52.677 165.285,52.332 164.727 C 52.147 164.427,51.894 163.936,51.771 163.636 C 51.647 163.336,51.096 162.109,50.545 160.909 C 49.995 159.709,49.435 158.482,49.300 158.182 C 49.166 157.882,48.696 157.048,48.255 156.328 C 46.043 152.714,44.885 151.501,43.080 150.906 C 41.844 150.497,40.976 148.680,41.690 147.995 C 42.690 147.036,60.622 147.124,61.231 148.091 M181.109 147.828 C 182.576 148.586,182.358 149.170,179.852 151.196 C 178.816 152.035,179.078 152.907,181.328 156.116 C 181.959 157.015,182.586 158.102,182.723 158.532 C 183.192 160.009,185.013 159.386,186.406 157.273 C 187.066 156.273,187.914 155.045,188.292 154.545 C 189.470 152.984,189.576 151.785,188.603 151.020 C 187.013 149.769,186.687 148.696,187.657 147.910 C 188.815 146.973,200.325 147.076,201.280 148.032 C 202.217 148.971,201.317 150.452,199.486 150.983 C 197.894 151.444,194.716 154.386,192.364 157.576 C 191.664 158.525,190.314 160.298,189.364 161.515 C 187.222 164.260,187.150 165.291,188.923 167.818 C 189.624 168.818,190.927 170.700,191.817 172.000 C 192.708 173.300,193.928 175.018,194.529 175.818 C 195.129 176.618,195.786 177.600,195.988 178.000 C 197.770 181.526,201.727 185.256,204.545 186.064 C 206.030 186.490,206.393 188.936,205.021 189.272 C 202.906 189.790,186.451 189.287,186.077 188.693 C 185.373 187.576,186.060 186.283,187.543 185.934 C 189.193 185.546,189.543 184.259,188.437 182.652 C 187.686 181.563,185.987 179.018,183.568 175.364 C 181.361 172.028,181.010 172.218,176.011 179.455 C 175.043 180.855,173.991 182.286,173.672 182.636 C 172.562 183.853,172.921 185.278,174.494 185.895 C 176.180 186.558,176.858 188.193,175.775 188.986 C 174.900 189.626,163.254 189.654,162.618 189.018 C 161.709 188.109,162.096 186.545,163.364 186.006 C 165.205 185.223,168.483 181.529,174.182 173.814 C 175.082 172.596,176.082 171.321,176.405 170.981 C 178.598 168.674,178.303 167.339,174.467 162.226 C 173.810 161.350,173.027 160.190,172.727 159.649 C 172.047 158.421,169.719 155.351,167.878 153.257 C 166.822 152.055,166.007 151.531,164.517 151.098 C 161.603 150.251,160.646 148.452,162.674 147.634 C 164.154 147.036,179.899 147.202,181.109 147.828 M257.284 147.800 C 258.895 148.472,258.870 148.752,257.045 150.506 C 255.258 152.223,255.299 152.867,257.380 155.778 C 258.121 156.814,258.907 157.984,259.128 158.377 C 259.778 159.537,261.296 159.495,262.060 158.295 C 262.418 157.733,262.814 157.191,262.941 157.091 C 263.068 156.991,263.429 156.406,263.743 155.792 C 264.058 155.177,264.572 154.462,264.885 154.202 C 265.682 153.540,265.619 151.431,264.785 150.839 C 263.391 149.849,263.083 148.670,264.020 147.910 C 265.178 146.973,276.689 147.076,277.643 148.032 C 278.584 148.974,277.680 150.454,275.849 150.972 C 274.262 151.422,271.121 154.334,268.727 157.577 C 268.027 158.525,266.677 160.298,265.727 161.515 C 263.131 164.843,263.090 164.672,268.275 172.136 C 269.126 173.361,270.551 175.427,271.441 176.727 C 276.051 183.456,277.789 185.169,280.909 186.064 C 282.127 186.413,282.710 188.532,281.754 189.138 C 281.208 189.485,263.641 189.573,262.757 189.234 C 261.327 188.685,262.190 186.388,264.001 185.922 C 265.583 185.514,265.972 183.854,264.745 182.743 C 264.335 182.372,264.000 181.862,264.000 181.608 C 264.000 181.354,263.632 180.683,263.182 180.116 C 262.732 179.549,262.200 178.825,262.000 178.506 C 257.752 171.741,257.658 171.740,253.091 178.366 C 252.591 179.091,251.568 180.487,250.818 181.468 C 248.956 183.904,248.967 185.153,250.857 185.895 C 252.544 186.558,253.222 188.193,252.138 188.986 C 251.263 189.626,239.618 189.654,238.982 189.018 C 238.035 188.072,238.467 186.601,239.909 185.856 C 241.931 184.811,243.982 182.508,250.732 173.706 C 254.731 168.491,254.878 167.980,253.091 165.512 C 252.491 164.684,252.000 163.920,252.000 163.815 C 252.000 163.709,251.264 162.685,250.364 161.539 C 249.464 160.392,248.728 159.315,248.728 159.143 C 248.727 158.972,248.311 158.318,247.803 157.689 C 247.294 157.060,246.599 156.154,246.257 155.676 C 244.427 153.113,242.338 151.357,240.820 151.104 C 238.276 150.679,237.106 148.773,238.818 147.844 C 240.257 147.064,255.435 147.027,257.284 147.800 M87.270 163.725 C 86.292 165.329,86.350 166.746,87.438 167.835 L 88.331 168.727 112.001 168.727 L 135.671 168.727 136.563 167.765 C 137.602 166.643,137.657 165.759,136.797 164.000 L 136.175 162.727 112.084 162.634 L 87.992 162.540 87.270 163.725 M136.172 164.346 C 138.133 168.137,139.035 168.000,112.063 168.000 C 85.048 168.000,85.873 168.124,87.828 164.346 L 88.382 163.273 112.000 163.273 L 135.618 163.273 136.172 164.346 M285.170 164.636 C 284.691 165.804,284.877 171.849,285.412 172.494 C 286.039 173.250,307.272 173.407,308.894 172.668 C 310.642 171.872,311.176 165.626,309.594 164.470 C 308.466 163.645,285.513 163.801,285.170 164.636 M309.018 164.800 C 309.685 165.467,309.587 170.558,308.888 171.555 C 308.133 172.635,286.085 172.856,285.675 171.788 C 285.375 171.007,285.394 164.909,285.697 164.606 C 286.163 164.140,308.544 164.326,309.018 164.800 " stroke="none" fill="#9f9f9f" fill-rule="evenodd"></path><path id="path3" d="M230.545 126.610 C 226.014 129.077,222.365 132.403,218.343 137.734 C 216.372 140.346,212.364 147.642,212.364 148.617 C 212.364 148.893,212.058 149.727,211.684 150.469 C 211.310 151.211,210.893 152.636,210.756 153.636 C 210.619 154.636,210.229 156.273,209.890 157.273 C 209.003 159.885,209.021 173.419,209.915 176.364 C 210.249 177.464,210.762 179.264,211.055 180.364 C 212.240 184.820,212.735 186.147,214.445 189.455 C 216.627 193.677,217.722 195.382,219.463 197.273 C 220.199 198.073,221.218 199.265,221.727 199.922 C 222.775 201.276,227.715 205.432,229.091 206.117 C 229.591 206.366,230.655 206.971,231.455 207.461 C 233.280 208.579,233.603 208.580,234.110 207.466 C 234.567 206.463,234.162 205.948,230.096 202.364 C 228.961 201.364,227.512 199.727,226.876 198.727 C 226.239 197.727,225.350 196.336,224.899 195.636 C 222.927 192.573,221.242 188.427,220.750 185.426 C 220.572 184.342,220.127 182.064,219.760 180.364 C 218.020 172.301,219.170 150.634,221.623 145.273 C 221.897 144.673,222.234 143.574,222.372 142.831 C 222.509 142.088,222.841 141.298,223.110 141.075 C 223.379 140.852,223.791 140.087,224.026 139.376 C 224.993 136.445,229.041 131.529,232.082 129.592 C 234.174 128.260,234.782 127.142,234.033 126.000 C 233.706 125.500,233.401 125.099,233.355 125.108 C 233.310 125.118,232.045 125.794,230.545 126.610 M360.566 125.422 C 359.927 126.455,360.249 127.754,361.371 128.675 C 363.514 130.433,368.364 135.334,368.364 135.742 C 368.364 135.962,368.747 136.724,369.214 137.435 C 371.063 140.243,371.473 140.996,372.396 143.273 C 372.922 144.573,373.468 146.420,373.610 147.378 C 373.751 148.335,374.081 149.644,374.343 150.287 C 376.287 155.052,376.144 178.522,374.132 184.866 C 373.760 186.042,373.455 187.297,373.455 187.656 C 373.455 188.423,371.694 192.859,370.362 195.450 C 368.946 198.204,366.300 201.307,363.273 203.762 C 359.953 206.454,359.989 206.405,360.436 207.689 C 360.876 208.950,360.461 209.000,363.785 207.290 C 368.288 204.974,373.404 200.422,376.411 196.057 C 383.600 185.622,385.807 177.542,385.268 163.636 C 385.107 159.485,384.834 156.767,384.483 155.818 C 384.187 155.018,383.780 153.627,383.578 152.727 C 382.904 149.726,378.955 140.914,377.543 139.262 C 377.292 138.968,375.954 137.323,374.569 135.608 C 372.179 132.647,367.982 128.823,365.819 127.636 C 360.810 124.888,360.878 124.917,360.566 125.422 M233.457 127.632 C 233.242 128.034,232.621 128.642,232.078 128.983 C 229.083 130.860,224.595 136.076,223.805 138.599 C 223.657 139.069,223.250 139.821,222.900 140.270 C 222.550 140.718,222.152 141.683,222.015 142.414 C 221.877 143.145,221.540 144.087,221.265 144.508 C 220.989 144.928,220.657 146.009,220.526 146.909 C 220.395 147.809,219.961 149.609,219.563 150.909 C 218.216 155.302,218.290 180.393,219.658 182.949 C 219.882 183.368,220.219 184.793,220.406 186.116 C 220.593 187.438,220.966 188.856,221.235 189.266 C 221.503 189.675,221.847 190.575,221.998 191.264 C 222.149 191.953,222.554 192.932,222.898 193.440 C 223.440 194.241,224.004 195.148,225.645 197.858 C 227.116 200.285,230.424 203.884,231.921 204.685 C 234.199 205.904,234.232 208.188,231.957 207.096 C 227.300 204.862,223.136 201.214,218.806 195.573 C 218.449 195.108,217.672 194.091,217.078 193.314 C 216.485 192.536,216.000 191.617,216.000 191.272 C 216.000 190.926,215.695 190.253,215.323 189.776 C 214.950 189.299,214.518 188.503,214.363 188.007 C 214.207 187.511,213.792 186.693,213.440 186.189 C 213.088 185.685,212.698 184.566,212.573 183.702 C 212.449 182.838,212.121 181.774,211.845 181.338 C 211.569 180.902,211.235 179.809,211.104 178.909 C 210.973 178.009,210.591 176.045,210.254 174.545 C 209.407 170.764,209.412 160.883,210.263 158.545 C 210.590 157.645,210.957 155.931,211.079 154.734 C 211.200 153.538,211.535 152.199,211.824 151.758 C 212.114 151.316,212.526 150.170,212.741 149.211 C 212.956 148.251,213.348 147.218,213.611 146.915 C 213.874 146.612,214.283 145.763,214.518 145.029 C 214.754 144.295,215.183 143.498,215.473 143.257 C 215.763 143.017,216.003 142.636,216.007 142.410 C 216.014 141.946,217.872 139.026,218.717 138.151 C 219.023 137.835,219.273 137.422,219.273 137.235 C 219.273 136.701,226.139 129.881,226.929 129.630 C 227.318 129.507,227.636 129.245,227.636 129.048 C 227.636 128.851,228.168 128.436,228.818 128.126 C 229.468 127.816,230.736 127.184,231.636 126.722 C 233.443 125.794,234.230 126.187,233.457 127.632 M362.606 126.562 C 364.718 127.559,366.306 128.450,366.936 128.991 C 367.221 129.236,368.600 130.379,370.000 131.531 C 371.400 132.683,372.597 133.741,372.660 133.883 C 372.723 134.025,373.263 134.764,373.860 135.525 C 374.458 136.286,375.306 137.371,375.746 137.935 C 376.186 138.499,376.816 139.260,377.146 139.626 C 377.476 139.992,377.863 140.676,378.006 141.146 C 378.149 141.616,378.552 142.327,378.903 142.727 C 379.254 143.127,379.644 143.893,379.771 144.429 C 379.898 144.965,380.213 145.620,380.471 145.884 C 381.055 146.480,382.403 150.325,383.115 153.426 C 383.410 154.711,383.842 155.992,384.075 156.273 C 384.998 157.385,385.020 176.406,384.100 177.517 C 383.880 177.783,383.511 179.044,383.280 180.320 C 383.049 181.596,382.544 183.230,382.157 183.951 C 381.771 184.672,381.455 185.610,381.455 186.036 C 381.455 186.462,381.150 187.201,380.777 187.678 C 380.405 188.155,379.979 188.931,379.832 189.401 C 379.684 189.872,379.171 190.836,378.691 191.543 C 378.211 192.250,377.818 192.970,377.818 193.142 C 377.818 193.314,377.532 193.765,377.182 194.145 C 376.832 194.525,376.136 195.438,375.636 196.175 C 374.003 198.581,371.056 201.667,368.857 203.273 C 367.899 203.973,366.823 204.832,366.466 205.182 C 366.110 205.532,365.568 205.818,365.261 205.818 C 364.955 205.818,364.617 206.047,364.509 206.327 C 364.220 207.082,361.061 207.813,360.690 207.212 C 360.430 206.791,362.283 204.784,362.970 204.742 C 363.920 204.684,370.545 197.221,370.545 196.209 C 370.545 195.948,370.837 195.344,371.193 194.867 C 372.090 193.666,373.375 190.358,373.790 188.182 C 373.981 187.182,374.374 185.873,374.664 185.273 C 374.954 184.673,375.295 182.694,375.422 180.876 C 375.550 179.059,375.823 177.013,376.030 176.331 C 376.632 174.351,376.852 165.273,376.387 161.636 C 376.157 159.836,375.748 156.400,375.478 154.000 C 375.209 151.600,374.725 149.028,374.403 148.284 C 374.081 147.541,373.817 146.477,373.815 145.921 C 373.813 145.364,373.409 144.091,372.917 143.091 C 372.425 142.091,372.017 141.109,372.009 140.909 C 372.002 140.709,371.261 139.482,370.364 138.182 C 369.466 136.882,368.731 135.629,368.729 135.398 C 368.727 134.966,363.832 129.982,361.838 128.381 C 361.181 127.853,360.727 127.148,360.727 126.653 C 360.727 125.641,360.663 125.644,362.606 126.562 M340.134 127.895 C 339.560 128.637,338.845 129.607,338.545 130.050 C 338.245 130.493,337.273 131.891,336.385 133.155 C 332.436 138.778,331.697 139.839,327.818 145.455 C 326.920 146.755,325.243 149.146,324.093 150.770 C 322.942 152.393,321.514 154.439,320.919 155.315 C 320.325 156.192,319.463 157.400,319.005 158.000 C 317.861 159.496,317.825 159.548,316.187 162.006 C 315.389 163.203,314.635 164.264,314.510 164.364 C 313.007 165.568,312.456 171.998,313.794 172.714 C 314.237 172.952,318.818 173.091,326.167 173.091 L 337.836 173.091 338.191 174.024 C 338.386 174.537,338.545 178.022,338.545 181.769 C 338.545 186.583,338.673 188.710,338.982 189.018 C 339.513 189.549,344.637 189.609,345.976 189.100 L 346.909 188.745 346.909 181.851 C 346.909 172.723,346.734 173.091,351.069 173.091 C 355.238 173.091,355.491 172.850,355.150 169.195 C 354.861 166.100,354.969 166.182,351.142 166.182 C 346.477 166.182,346.909 168.176,346.909 146.631 C 346.909 125.123,347.139 126.545,343.667 126.545 C 341.224 126.545,341.157 126.571,340.134 127.895 M346.316 127.727 C 346.437 128.177,346.538 136.926,346.540 147.169 C 346.546 168.787,346.002 166.545,351.249 166.545 L 354.545 166.545 354.545 169.409 L 354.545 172.273 353.409 172.500 C 352.784 172.625,351.153 172.727,349.786 172.727 C 346.485 172.727,346.545 172.565,346.545 181.379 L 346.545 188.624 344.369 188.851 C 343.172 188.976,341.454 188.977,340.551 188.853 L 338.909 188.628 338.909 181.381 C 338.909 171.640,340.481 172.727,326.395 172.727 C 316.465 172.727,314.565 172.644,314.189 172.190 C 313.479 171.335,313.830 165.681,314.645 164.844 C 315.779 163.679,317.419 161.413,317.646 160.695 C 317.768 160.313,318.024 160.000,318.215 160.000 C 318.407 160.000,318.727 159.632,318.926 159.182 C 319.125 158.732,319.780 157.709,320.380 156.909 C 321.916 154.863,324.806 150.653,325.455 149.514 C 325.755 148.988,326.211 148.388,326.470 148.182 C 326.728 147.975,327.137 147.464,327.379 147.046 C 327.620 146.628,328.309 145.582,328.909 144.721 C 329.509 143.861,330.245 142.800,330.545 142.364 C 331.367 141.169,332.986 138.869,333.908 137.588 C 334.358 136.961,335.373 135.488,336.163 134.315 C 336.953 133.142,337.935 131.752,338.345 131.228 C 338.987 130.406,340.122 128.875,340.727 128.015 C 341.676 126.665,345.972 126.444,346.316 127.727 M336.561 140.273 C 335.247 142.259,333.215 145.162,332.551 146.000 C 330.560 148.514,329.818 149.614,329.818 150.050 C 329.818 150.323,329.671 150.545,329.490 150.545 C 329.310 150.545,328.828 151.077,328.420 151.727 C 328.011 152.377,327.180 153.564,326.573 154.364 C 325.967 155.164,325.313 156.170,325.121 156.601 C 324.929 157.032,324.597 157.492,324.384 157.624 C 324.170 157.756,323.219 159.020,322.270 160.434 C 321.322 161.847,320.184 163.541,319.742 164.197 C 318.375 166.228,318.848 166.348,328.772 166.473 C 334.510 166.545,337.683 166.449,338.172 166.187 C 339.185 165.645,339.342 140.485,338.338 139.481 C 337.576 138.719,337.595 138.710,336.561 140.273 M338.325 140.212 C 338.773 141.379,338.571 165.284,338.109 165.745 C 337.795 166.059,335.361 166.182,329.451 166.182 C 318.866 166.182,318.741 166.113,321.833 162.000 C 322.435 161.200,323.658 159.482,324.551 158.182 C 325.444 156.882,327.243 154.345,328.549 152.545 C 329.855 150.745,331.243 148.782,331.633 148.182 C 332.024 147.582,332.634 146.705,332.990 146.233 C 334.178 144.657,336.030 142.012,336.782 140.818 C 337.608 139.506,337.996 139.354,338.325 140.212 M41.878 148.110 C 41.146 148.992,41.844 150.219,43.478 150.919 C 46.166 152.071,47.740 154.555,53.265 166.364 C 54.201 168.364,55.119 170.245,55.304 170.545 C 55.490 170.845,55.821 171.500,56.040 172.000 C 56.769 173.663,58.296 176.901,58.612 177.455 C 58.784 177.755,59.176 178.573,59.485 179.273 C 59.794 179.973,60.691 181.833,61.478 183.407 C 63.439 187.329,63.447 187.252,60.539 193.636 C 60.083 194.636,59.601 195.823,59.467 196.273 C 59.333 196.723,59.097 197.091,58.943 197.091 C 58.789 197.091,58.481 197.488,58.260 197.974 C 57.516 199.606,55.574 200.194,52.781 199.633 C 45.581 198.186,41.505 201.365,44.493 206.098 C 48.124 211.850,59.412 207.989,62.971 199.777 C 63.221 199.200,63.718 198.337,64.076 197.860 C 64.434 197.383,64.727 196.746,64.727 196.445 C 64.727 196.144,65.043 195.225,65.429 194.403 C 66.799 191.488,68.000 188.635,68.000 188.297 C 68.000 188.109,68.382 187.106,68.848 186.068 C 69.315 185.031,70.035 183.364,70.449 182.364 C 70.863 181.364,71.626 179.543,72.146 178.318 C 72.666 177.093,73.092 175.866,73.093 175.591 C 73.095 175.316,73.421 174.600,73.818 174.000 C 74.216 173.400,74.542 172.647,74.543 172.327 C 74.544 172.007,74.955 170.975,75.455 170.035 C 75.955 169.095,76.364 168.127,76.364 167.884 C 76.364 167.642,76.691 166.833,77.091 166.087 C 77.491 165.341,77.818 164.508,77.818 164.237 C 77.818 163.966,78.227 162.975,78.727 162.035 C 79.227 161.095,79.638 160.129,79.640 159.890 C 79.642 159.650,80.045 158.636,80.537 157.636 C 81.029 156.636,81.437 155.594,81.443 155.320 C 81.481 153.643,84.665 150.545,86.349 150.545 C 86.628 150.545,86.931 150.259,87.022 149.909 C 87.145 149.437,87.199 149.487,87.231 150.103 C 87.254 150.559,87.510 151.500,87.800 152.193 L 88.327 153.455 111.969 153.455 C 138.357 153.455,136.364 153.655,136.364 151.006 C 136.364 149.019,137.291 149.091,111.548 149.091 C 88.021 149.091,87.592 149.078,86.817 148.356 C 86.077 147.667,85.623 147.626,79.650 147.719 L 73.273 147.818 73.273 148.724 C 73.273 149.413,73.621 149.810,74.727 150.383 C 76.869 151.491,76.908 153.238,74.899 158.045 C 74.073 160.020,73.250 162.127,73.070 162.727 C 72.890 163.327,72.412 164.466,72.008 165.259 C 71.603 166.051,71.273 166.961,71.273 167.280 C 71.273 167.600,71.030 168.179,70.733 168.567 C 70.436 168.955,70.026 169.868,69.821 170.596 C 69.380 172.162,67.696 175.273,67.290 175.273 C 67.007 175.273,65.823 172.944,60.638 162.182 C 55.911 152.372,55.901 152.293,59.232 150.691 C 60.968 149.855,61.576 149.103,61.234 148.213 C 60.934 147.430,42.524 147.331,41.878 148.110 M162.257 148.125 L 161.422 148.588 162.174 149.543 C 162.637 150.132,163.662 150.713,164.845 151.057 C 166.813 151.629,166.831 151.646,171.561 157.636 C 171.719 157.836,172.490 158.982,173.273 160.182 C 174.057 161.382,175.341 163.246,176.126 164.325 C 178.562 167.670,178.533 168.470,175.847 171.886 C 175.031 172.924,173.955 174.368,173.455 175.096 C 170.127 179.940,165.340 185.327,163.777 185.988 C 162.355 186.589,161.791 188.270,162.771 188.986 C 163.745 189.698,175.023 189.648,175.620 188.929 C 176.396 187.994,175.912 186.773,174.491 186.078 C 172.789 185.246,172.411 183.977,173.462 182.617 C 173.878 182.078,175.454 179.959,176.963 177.908 C 180.094 173.653,181.304 172.514,182.043 173.126 C 182.594 173.584,186.417 179.113,187.330 180.772 C 187.661 181.375,188.205 182.169,188.537 182.537 C 189.608 183.719,189.143 185.561,187.652 186.043 C 186.246 186.497,185.399 188.089,186.158 188.850 C 186.764 189.456,204.592 189.656,205.305 189.064 C 206.581 188.005,205.764 186.449,203.700 186.007 C 202.214 185.689,200.590 184.296,198.502 181.549 C 197.627 180.397,196.827 179.373,196.725 179.273 C 196.623 179.173,195.767 177.945,194.822 176.545 C 193.877 175.145,192.406 173.001,191.552 171.780 C 190.698 170.558,189.441 168.758,188.757 167.780 C 187.305 165.700,187.180 164.153,188.345 162.647 C 188.775 162.091,189.943 160.573,190.941 159.273 C 195.313 153.574,197.497 151.400,199.361 150.891 C 201.143 150.404,202.148 148.744,201.069 148.071 C 200.183 147.517,188.629 147.469,187.610 148.014 C 186.785 148.456,187.290 149.817,188.724 151.018 C 189.627 151.774,189.470 153.471,188.382 154.727 C 188.036 155.127,187.205 156.318,186.536 157.374 C 185.314 159.301,183.959 160.105,183.204 159.349 C 182.803 158.948,182.483 158.430,181.208 156.116 C 180.773 155.325,180.159 154.465,179.845 154.204 C 178.910 153.428,179.113 151.394,180.197 150.684 C 181.629 149.746,182.054 148.708,181.249 148.120 C 180.321 147.441,163.480 147.446,162.257 148.125 M238.726 148.138 C 237.990 148.676,238.679 150.407,239.748 150.705 C 239.987 150.772,240.836 151.006,241.636 151.225 C 243.196 151.654,245.659 154.366,249.091 159.433 C 249.991 160.762,251.440 162.846,252.312 164.064 C 254.996 167.815,254.989 168.365,252.214 171.889 C 251.397 172.927,250.155 174.564,249.455 175.525 C 248.755 176.486,248.062 177.436,247.916 177.636 C 245.606 180.802,241.671 185.076,240.441 185.754 C 238.635 186.751,238.039 188.185,239.107 188.966 C 240.106 189.697,251.373 189.665,251.983 188.929 C 252.780 187.970,252.272 186.777,250.727 185.979 C 248.994 185.084,248.713 184.051,249.817 182.634 C 251.140 180.937,255.062 175.582,255.618 174.713 C 256.846 172.794,257.961 172.601,259.143 174.101 C 260.404 175.702,262.861 179.279,263.647 180.660 C 263.953 181.197,264.497 182.076,264.855 182.613 C 265.881 184.149,265.531 185.553,264.000 186.045 C 262.507 186.525,261.761 187.964,262.527 188.887 C 263.142 189.628,281.014 189.750,281.745 189.018 C 282.947 187.817,282.151 186.560,279.755 185.876 C 278.215 185.436,275.851 183.189,273.955 180.364 C 273.486 179.664,272.112 177.700,270.903 176.000 C 269.694 174.300,268.139 172.091,267.448 171.091 C 266.757 170.091,265.612 168.455,264.904 167.455 C 263.466 165.425,263.429 164.308,264.744 162.607 C 265.156 162.073,265.978 160.982,266.571 160.182 C 268.432 157.668,268.871 157.111,270.364 155.369 C 272.786 152.543,274.296 151.282,275.725 150.891 C 277.507 150.404,278.511 148.744,277.432 148.071 C 276.545 147.516,264.993 147.469,263.971 148.015 C 263.149 148.455,263.443 149.307,264.989 150.966 C 266.128 152.188,265.978 152.716,263.376 156.657 C 261.246 159.881,259.993 160.486,259.099 158.720 C 258.895 158.316,258.359 157.472,257.909 156.845 C 257.459 156.219,257.091 155.552,257.091 155.364 C 257.091 155.176,256.764 154.726,256.364 154.364 C 255.161 153.275,255.399 151.540,256.909 150.388 C 258.340 149.297,258.515 148.568,257.478 148.013 C 256.337 147.402,239.580 147.514,238.726 148.138 M60.999 148.634 C 61.082 148.883,60.736 149.244,60.229 149.437 C 56.437 150.878,55.471 152.857,57.059 155.928 C 57.442 156.668,58.193 158.255,58.728 159.455 C 59.263 160.655,59.851 161.882,60.035 162.182 C 60.219 162.482,60.531 163.095,60.730 163.545 C 60.928 163.995,61.253 164.732,61.452 165.182 C 61.650 165.632,61.956 166.245,62.131 166.545 C 62.305 166.845,62.976 168.236,63.622 169.636 C 64.267 171.036,64.943 172.427,65.123 172.727 C 65.304 173.027,65.715 173.886,66.038 174.636 C 66.360 175.386,66.841 176.000,67.105 176.000 C 67.765 176.000,69.687 173.070,70.004 171.582 C 70.146 170.912,70.481 170.116,70.747 169.813 C 71.013 169.510,71.389 168.557,71.583 167.696 C 71.776 166.835,72.176 165.855,72.472 165.519 C 72.768 165.184,73.128 164.336,73.271 163.636 C 73.415 162.936,73.843 161.853,74.221 161.230 C 74.599 160.606,74.909 159.867,74.909 159.588 C 74.909 159.309,75.253 158.438,75.674 157.654 C 77.622 154.018,77.204 150.648,74.674 149.591 C 72.162 148.541,73.355 148.187,79.765 148.082 C 84.991 147.996,85.864 148.061,86.052 148.550 C 86.325 149.262,85.316 150.410,84.162 150.700 C 83.680 150.821,83.048 151.379,82.758 151.941 C 82.467 152.503,81.974 153.175,81.660 153.435 C 81.347 153.695,81.091 154.222,81.091 154.607 C 81.091 154.991,80.682 156.075,80.182 157.014 C 79.682 157.953,79.273 159.037,79.273 159.423 C 79.273 159.809,79.013 160.412,78.694 160.764 C 78.376 161.115,77.958 162.107,77.764 162.969 C 77.571 163.830,77.192 164.783,76.922 165.086 C 76.652 165.388,76.237 166.373,76.000 167.273 C 75.763 168.173,75.357 169.155,75.098 169.455 C 74.838 169.755,74.508 170.573,74.364 171.273 C 74.219 171.973,73.889 172.791,73.630 173.091 C 73.371 173.391,72.984 174.291,72.770 175.091 C 72.556 175.891,72.050 177.194,71.645 177.986 C 71.240 178.778,70.908 179.678,70.907 179.986 C 70.905 180.294,70.579 181.036,70.182 181.636 C 69.784 182.236,69.453 182.973,69.446 183.273 C 69.438 183.573,69.029 184.636,68.537 185.636 C 68.045 186.636,67.640 187.700,67.637 188.000 C 67.634 188.300,67.306 189.036,66.909 189.636 C 66.512 190.236,66.180 190.973,66.173 191.273 C 66.165 191.573,65.757 192.636,65.265 193.636 C 64.773 194.636,64.369 195.716,64.367 196.035 C 64.365 196.355,64.032 196.998,63.626 197.466 C 63.221 197.933,62.789 198.736,62.666 199.249 C 62.543 199.762,62.180 200.461,61.858 200.803 C 61.536 201.145,60.786 202.054,60.192 202.823 C 58.668 204.794,55.758 207.013,54.020 207.528 C 53.209 207.768,51.884 208.161,51.076 208.401 C 46.087 209.881,42.020 203.122,46.076 200.091 C 46.930 199.453,51.214 199.515,52.496 200.184 C 53.835 200.882,55.783 200.881,56.364 200.182 C 56.613 199.882,57.001 199.636,57.226 199.636 C 57.816 199.636,59.611 197.281,60.073 195.901 C 60.290 195.256,60.674 194.482,60.927 194.182 C 61.180 193.882,61.568 192.982,61.790 192.182 C 62.012 191.382,62.436 190.410,62.733 190.021 C 63.525 188.986,63.440 185.766,62.593 184.685 C 62.219 184.208,61.799 183.298,61.660 182.661 C 61.521 182.025,61.183 181.319,60.909 181.091 C 60.635 180.863,60.307 180.205,60.180 179.628 C 60.053 179.052,59.659 178.204,59.303 177.744 C 58.947 177.285,58.539 176.431,58.397 175.847 C 58.254 175.263,57.820 174.382,57.432 173.889 C 57.044 173.396,56.727 172.748,56.727 172.448 C 56.727 172.149,56.419 171.394,56.041 170.770 C 55.664 170.147,55.233 169.227,55.082 168.727 C 54.932 168.227,54.504 167.428,54.132 166.951 C 53.759 166.474,53.455 165.801,53.455 165.455 C 53.455 165.108,53.137 164.422,52.750 163.929 C 52.362 163.437,51.931 162.556,51.792 161.971 C 51.653 161.387,51.317 160.653,51.047 160.340 C 50.776 160.027,50.363 159.209,50.128 158.522 C 49.894 157.835,49.401 156.882,49.033 156.406 C 48.665 155.929,48.364 155.379,48.364 155.183 C 48.364 154.382,45.241 151.176,43.801 150.499 C 42.395 149.838,41.577 148.726,42.106 148.197 C 42.560 147.743,60.844 148.166,60.999 148.634 M180.704 148.341 C 181.126 148.609,180.972 148.953,179.893 150.147 C 178.424 151.773,178.344 153.243,179.643 154.727 C 179.994 155.127,180.385 155.801,180.513 156.225 C 180.641 156.648,181.069 157.287,181.464 157.645 C 181.859 158.002,182.182 158.489,182.182 158.727 C 182.182 160.464,185.125 160.556,186.164 158.851 C 187.129 157.268,188.109 155.848,188.760 155.091 C 190.241 153.368,190.260 151.725,188.819 150.130 C 187.020 148.139,187.356 148.012,194.466 148.006 C 199.460 148.001,200.420 148.087,200.601 148.559 C 200.883 149.295,199.809 150.450,198.593 150.717 C 197.270 151.007,195.504 152.721,191.455 157.644 C 191.055 158.130,190.318 159.116,189.818 159.835 C 189.318 160.553,188.532 161.614,188.070 162.193 C 186.657 163.966,186.838 168.000,188.331 168.000 C 188.502 168.000,188.743 168.286,188.866 168.636 C 188.989 168.986,189.494 169.845,189.988 170.545 C 190.482 171.245,191.260 172.354,191.716 173.009 C 192.172 173.665,192.832 174.549,193.182 174.974 C 193.532 175.400,193.818 175.864,193.818 176.006 C 193.818 176.284,195.631 178.724,196.537 179.667 C 196.842 179.984,197.091 180.361,197.091 180.506 C 197.091 180.878,199.224 183.523,200.675 184.949 C 201.519 185.778,202.380 186.222,203.463 186.384 C 204.961 186.609,206.010 187.929,205.275 188.665 C 204.966 188.974,187.579 188.960,186.825 188.650 C 185.830 188.241,186.560 186.877,188.027 186.403 C 189.592 185.897,189.981 183.642,188.800 181.922 C 188.417 181.365,187.794 180.435,187.416 179.855 C 187.037 179.275,186.482 178.440,186.182 178.000 C 185.882 177.560,185.314 176.725,184.920 176.145 C 181.530 171.159,181.135 171.188,177.091 176.717 C 176.191 177.947,175.086 179.417,174.636 179.984 C 174.186 180.551,173.818 181.170,173.818 181.360 C 173.818 181.550,173.491 182.002,173.091 182.364 C 171.613 183.701,172.235 185.862,174.243 186.366 C 175.197 186.605,175.905 187.998,175.449 188.736 C 175.291 188.991,165.189 189.012,163.182 188.761 C 162.272 188.648,163.003 186.833,164.151 186.353 C 165.277 185.882,169.425 181.656,169.785 180.612 C 169.866 180.375,170.235 179.968,170.603 179.707 C 170.971 179.445,171.273 179.055,171.273 178.839 C 171.273 178.624,171.641 178.081,172.091 177.633 C 172.541 177.185,173.318 176.208,173.818 175.463 C 174.318 174.718,174.973 173.835,175.273 173.501 C 175.879 172.826,176.652 171.759,177.998 169.744 L 178.897 168.397 178.153 166.660 C 177.744 165.705,177.276 164.839,177.114 164.735 C 176.952 164.631,175.914 163.155,174.807 161.455 C 173.701 159.755,172.494 158.039,172.125 157.643 C 171.756 157.247,171.291 156.655,171.091 156.328 C 168.950 152.825,167.119 151.008,165.443 150.725 C 163.761 150.441,162.093 148.872,162.919 148.350 C 163.610 147.913,180.014 147.905,180.704 148.341 M257.067 148.341 C 257.489 148.608,257.327 148.962,256.222 150.185 C 255.405 151.090,254.939 151.917,255.064 152.243 C 255.179 152.542,255.273 153.102,255.273 153.488 C 255.273 153.873,255.600 154.469,256.000 154.812 C 256.400 155.154,256.727 155.631,256.727 155.871 C 256.727 156.111,257.136 156.794,257.636 157.388 C 258.136 157.982,258.545 158.624,258.545 158.814 C 258.545 160.389,261.568 160.433,262.516 158.872 C 263.511 157.235,264.475 155.844,265.140 155.087 C 266.418 153.630,266.402 151.549,265.100 150.066 C 264.464 149.342,264.048 148.580,264.175 148.374 C 264.587 147.708,276.705 147.883,276.965 148.559 C 277.249 149.300,276.206 150.411,274.981 150.670 C 273.935 150.892,272.356 152.272,270.000 155.025 C 267.702 157.711,267.151 158.402,266.182 159.815 C 265.682 160.545,264.915 161.591,264.478 162.140 C 263.025 163.968,262.946 166.182,264.282 167.587 C 264.950 168.288,265.458 169.007,266.465 170.671 C 266.809 171.240,267.500 172.244,268.000 172.903 C 268.500 173.561,269.111 174.404,269.358 174.777 C 269.605 175.150,270.214 176.027,270.712 176.727 C 271.210 177.427,271.773 178.346,271.963 178.769 C 272.153 179.191,272.566 179.636,272.881 179.757 C 273.197 179.878,273.455 180.145,273.455 180.349 C 273.455 180.853,275.548 183.561,277.040 184.987 C 277.858 185.769,278.767 186.225,279.824 186.384 C 281.338 186.611,282.373 187.931,281.624 188.679 C 281.329 188.973,263.043 188.983,262.750 188.689 C 262.227 188.166,263.222 186.780,264.391 186.403 C 265.956 185.897,266.344 183.642,265.163 181.922 C 264.781 181.365,264.158 180.435,263.779 179.855 C 263.401 179.275,262.845 178.440,262.545 178.000 C 262.245 177.560,261.678 176.725,261.283 176.145 C 257.896 171.162,257.475 171.192,253.455 176.699 C 252.555 177.932,251.450 179.407,251.000 179.977 C 250.550 180.548,250.182 181.170,250.182 181.360 C 250.182 181.550,249.855 182.002,249.455 182.364 C 247.977 183.701,248.599 185.862,250.607 186.366 C 251.541 186.600,252.341 188.144,251.806 188.679 C 251.679 188.806,248.849 188.909,245.515 188.909 L 239.455 188.909 239.339 187.901 C 239.241 187.048,239.417 186.812,240.490 186.363 C 241.635 185.885,245.785 181.667,246.148 180.612 C 246.230 180.375,246.598 179.968,246.967 179.707 C 247.335 179.445,247.636 179.055,247.636 178.839 C 247.636 178.624,248.005 178.081,248.455 177.633 C 248.905 177.185,249.682 176.208,250.182 175.463 C 250.682 174.718,251.336 173.835,251.636 173.501 C 252.243 172.826,253.016 171.759,254.362 169.744 L 255.261 168.397 254.517 166.660 C 254.107 165.705,253.646 164.839,253.491 164.735 C 253.045 164.435,249.091 158.538,249.091 158.173 C 249.091 157.992,248.764 157.669,248.364 157.455 C 247.964 157.240,247.636 156.898,247.636 156.693 C 247.636 155.908,243.413 150.911,242.747 150.907 C 240.668 150.896,238.207 149.033,239.330 148.320 C 239.987 147.904,256.407 147.923,257.067 148.341 M135.741 150.216 C 135.942 150.535,135.998 151.231,135.865 151.762 L 135.623 152.727 112.248 152.727 C 94.552 152.727,88.767 152.621,88.436 152.291 C 87.863 151.717,87.875 149.930,88.455 149.694 C 89.809 149.143,135.382 149.647,135.741 150.216 M88.202 164.081 C 87.530 165.041,87.459 166.950,88.073 167.564 C 88.703 168.194,135.297 168.194,135.927 167.564 C 136.541 166.950,136.470 165.041,135.798 164.081 L 135.231 163.273 112.000 163.273 L 88.769 163.273 88.202 164.081 M135.660 164.753 C 136.147 165.522,136.069 166.763,135.505 167.231 C 135.146 167.529,128.646 167.616,111.817 167.548 C 86.383 167.445,87.576 167.557,88.134 165.333 L 88.376 164.371 103.915 164.250 C 129.210 164.052,135.277 164.148,135.660 164.753 M285.891 164.800 C 285.348 165.343,285.302 170.671,285.831 171.660 C 286.350 172.629,307.546 172.766,308.505 171.806 C 309.605 170.707,309.722 166.108,308.682 164.855 C 308.123 164.181,286.562 164.129,285.891 164.800 M308.152 164.948 C 308.833 165.209,308.983 169.751,308.351 170.933 C 307.823 171.919,286.415 172.042,286.039 171.061 C 285.740 170.281,285.758 165.273,286.061 164.970 C 286.364 164.667,307.365 164.646,308.152 164.948 " stroke="none" fill="#7c7c7c" fill-rule="evenodd"></path><path id="path4" d="M344.000 126.446 C 345.315 126.531,346.156 126.781,346.455 127.175 C 346.705 127.505,346.909 127.613,346.909 127.415 C 346.909 126.576,345.939 126.185,344.018 126.249 L 342.000 126.316 344.000 126.446 M220.886 134.273 L 219.818 135.455 221.000 134.387 C 221.650 133.799,222.182 133.267,222.182 133.205 C 222.182 132.924,221.882 133.171,220.886 134.273 M47.930 147.545 C 50.391 147.608,54.319 147.607,56.657 147.544 C 58.996 147.481,56.982 147.429,52.182 147.430 C 47.382 147.430,45.468 147.482,47.930 147.545 M76.636 147.543 C 78.286 147.611,80.986 147.611,82.636 147.543 C 84.286 147.476,82.936 147.421,79.636 147.421 C 76.336 147.421,74.986 147.476,76.636 147.543 M167.566 147.545 C 170.028 147.608,173.955 147.607,176.294 147.544 C 178.632 147.481,176.618 147.429,171.818 147.430 C 167.018 147.430,165.105 147.482,167.566 147.545 M191.182 147.543 C 192.832 147.611,195.532 147.611,197.182 147.543 C 198.832 147.476,197.482 147.421,194.182 147.421 C 190.882 147.421,189.532 147.476,191.182 147.543 M243.727 147.544 C 246.077 147.608,249.923 147.608,252.273 147.544 C 254.623 147.481,252.700 147.429,248.000 147.429 C 243.300 147.429,241.377 147.481,243.727 147.544 M267.545 147.543 C 269.195 147.611,271.895 147.611,273.545 147.543 C 275.195 147.476,273.845 147.421,270.545 147.421 C 267.245 147.421,265.895 147.476,267.545 147.543 M238.005 148.356 C 237.733 148.795,238.291 149.886,239.141 150.575 C 239.551 150.909,239.479 150.686,238.936 149.944 C 238.474 149.313,238.207 148.617,238.342 148.398 C 238.478 148.179,238.507 148.000,238.407 148.000 C 238.307 148.000,238.126 148.160,238.005 148.356 M87.273 148.818 C 87.273 148.968,98.114 149.053,111.364 149.007 C 124.614 148.961,131.609 148.879,126.909 148.826 C 104.757 148.574,87.273 148.571,87.273 148.818 M86.909 149.975 C 86.909 150.261,86.541 150.566,86.091 150.652 C 85.389 150.788,85.415 150.817,86.273 150.860 C 87.047 150.898,87.273 150.745,87.273 150.182 C 87.273 149.782,87.191 149.455,87.091 149.455 C 86.991 149.455,86.909 149.689,86.909 149.975 M112.182 153.455 L 88.545 153.644 112.069 153.731 C 127.454 153.788,135.671 153.692,135.818 153.455 C 135.942 153.255,135.992 153.130,135.931 153.178 C 135.869 153.226,125.182 153.350,112.182 153.455 M219.022 160.182 C 219.024 161.382,219.092 161.829,219.173 161.175 C 219.254 160.522,219.252 159.540,219.169 158.993 C 219.086 158.447,219.020 158.982,219.022 160.182 M259.244 159.000 C 259.509 159.350,260.094 159.636,260.545 159.636 C 260.996 159.636,261.582 159.350,261.847 159.000 C 262.257 158.459,262.252 158.431,261.819 158.818 C 261.538 159.068,260.965 159.273,260.545 159.273 C 260.125 159.273,259.552 159.068,259.272 158.818 C 258.838 158.431,258.834 158.459,259.244 159.000 M375.372 160.364 C 375.372 161.264,375.443 161.632,375.529 161.182 C 375.616 160.732,375.616 159.995,375.529 159.545 C 375.443 159.095,375.372 159.464,375.372 160.364 M375.771 167.636 C 375.771 169.736,375.831 170.595,375.904 169.545 C 375.978 168.495,375.978 166.777,375.904 165.727 C 375.831 164.677,375.771 165.536,375.771 167.636 M308.597 164.727 C 308.826 165.027,309.093 165.600,309.191 166.000 C 309.361 166.691,309.372 166.688,309.412 165.954 C 309.436 165.528,309.168 164.955,308.818 164.681 C 308.265 164.247,308.236 164.253,308.597 164.727 M325.182 166.090 C 327.532 166.153,331.377 166.153,333.727 166.090 C 336.077 166.026,334.155 165.975,329.455 165.975 C 324.755 165.975,322.832 166.026,325.182 166.090 M349.182 166.085 C 350.132 166.160,351.686 166.160,352.636 166.085 C 353.586 166.011,352.809 165.949,350.909 165.949 C 349.009 165.949,348.232 166.011,349.182 166.085 M354.866 167.352 C 355.033 168.362,355.084 168.413,355.199 167.685 C 355.273 167.212,355.184 166.675,355.001 166.492 C 354.799 166.290,354.746 166.630,354.866 167.352 M312.844 169.818 C 312.844 171.118,312.910 171.650,312.990 171.000 C 313.071 170.350,313.071 169.286,312.990 168.636 C 312.910 167.986,312.844 168.518,312.844 169.818 M219.025 172.364 C 219.025 173.664,219.091 174.195,219.172 173.545 C 219.253 172.895,219.253 171.832,219.172 171.182 C 219.091 170.532,219.025 171.064,219.025 172.364 M209.175 172.000 C 209.175 172.700,209.250 172.986,209.342 172.636 C 209.433 172.286,209.433 171.714,209.342 171.364 C 209.250 171.014,209.175 171.300,209.175 172.000 M314.117 173.172 C 314.262 173.316,319.727 173.480,326.263 173.536 C 332.799 173.591,338.028 173.518,337.883 173.374 C 337.738 173.229,332.273 173.065,325.737 173.010 C 319.201 172.954,313.972 173.027,314.117 173.172 M347.510 173.364 C 347.416 173.514,348.348 173.591,349.579 173.535 C 353.344 173.364,353.790 173.203,350.658 173.145 C 349.020 173.115,347.603 173.214,347.510 173.364 M375.364 174.727 C 375.368 175.527,375.443 175.812,375.530 175.359 C 375.617 174.907,375.614 174.253,375.523 173.905 C 375.432 173.557,375.360 173.927,375.364 174.727 M242.347 184.091 L 240.909 185.636 242.455 184.199 C 243.892 182.862,244.167 182.545,243.892 182.545 C 243.833 182.545,243.137 183.241,242.347 184.091 M165.250 184.818 L 164.182 186.000 165.364 184.932 C 166.465 183.936,166.713 183.636,166.432 183.636 C 166.369 183.636,165.837 184.168,165.250 184.818 M54.727 199.636 L 53.273 199.897 54.615 199.948 C 55.353 199.977,56.058 199.836,56.182 199.636 C 56.305 199.436,56.356 199.296,56.294 199.324 C 56.232 199.353,55.527 199.493,54.727 199.636 M365.435 201.727 L 364.182 203.091 365.545 201.838 C 366.815 200.671,367.076 200.364,366.799 200.364 C 366.738 200.364,366.124 200.977,365.435 201.727 " stroke="none" fill="#848484" fill-rule="evenodd"></path></g></svg>