<svg id="svg" version="1.1" xmlns="http://www.w3.org/2000/svg" xmlns:xlink="http://www.w3.org/1999/xlink" width="400" height="552" viewBox="0, 0, 400,552"><g id="svgg"><path id="path0" d="M368.400 231.162 C 366.038 231.684,364.244 232.620,362.790 234.086 C 360.747 236.147,360.481 236.563,360.181 238.159 C 360.032 238.956,359.750 239.707,359.555 239.828 C 359.360 239.949,359.200 240.380,359.200 240.786 C 359.200 241.817,360.690 241.387,361.036 240.257 C 364.051 230.398,377.150 235.141,375.258 245.407 C 374.397 250.080,373.061 251.920,362.047 263.600 C 358.031 267.859,357.544 267.600,369.577 267.600 C 380.946 267.600,381.173 267.549,381.213 265.011 C 381.220 264.565,381.490 263.851,381.813 263.424 C 383.146 261.661,382.441 259.732,381.090 261.448 C 379.548 263.409,377.481 263.750,367.900 263.625 C 365.022 263.587,365.352 262.713,370.300 257.274 C 379.348 247.329,379.721 246.678,379.767 240.764 L 379.800 236.528 378.241 234.624 C 375.900 231.766,371.950 230.376,368.400 231.162 M309.017 246.996 C 305.726 248.642,302.671 250.351,302.228 250.794 L 301.422 251.600 302.265 251.600 C 302.729 251.600,303.624 251.331,304.254 251.002 C 305.952 250.117,307.714 250.244,308.730 251.326 C 309.598 252.249,309.600 252.295,309.600 271.237 L 309.600 290.223 308.651 291.611 C 307.946 292.643,307.104 293.206,305.379 293.800 C 300.837 295.365,301.855 295.600,313.167 295.600 C 324.396 295.600,325.210 295.434,320.611 294.081 C 315.881 292.689,316.236 294.742,316.000 267.433 C 315.871 252.521,315.657 244.220,315.400 244.135 C 315.180 244.063,312.308 245.350,309.017 246.996 M333.471 244.262 C 332.928 244.806,333.243 245.322,335.500 247.582 C 339.501 251.588,340.956 253.502,342.354 256.600 C 342.851 257.700,343.416 258.899,343.610 259.265 C 343.804 259.631,344.090 260.891,344.245 262.065 C 344.400 263.239,344.769 264.779,345.064 265.487 C 345.833 267.335,345.830 286.275,345.059 288.119 C 344.762 288.831,344.385 290.310,344.220 291.407 C 343.925 293.381,342.072 297.614,340.971 298.831 C 340.657 299.179,340.400 299.663,340.400 299.908 C 340.400 300.152,338.780 302.004,336.800 304.022 C 334.820 306.040,333.200 307.941,333.200 308.246 C 333.200 309.153,334.384 308.880,336.000 307.600 C 336.833 306.940,337.655 306.400,337.827 306.400 C 339.369 306.400,349.166 294.294,349.213 292.330 C 349.220 292.039,349.490 291.451,349.813 291.024 C 350.136 290.596,350.400 289.823,350.400 289.304 C 350.400 288.785,350.666 287.847,350.990 287.219 C 352.825 283.671,352.475 269.921,350.420 264.800 C 349.934 263.590,349.351 261.970,349.125 261.200 C 348.506 259.096,343.827 252.267,341.522 250.104 C 340.405 249.057,339.291 248.011,339.046 247.781 C 335.752 244.684,334.095 243.639,333.471 244.262 M167.602 246.300 C 165.156 247.546,158.878 253.544,157.400 256.048 C 156.310 257.894,153.600 263.341,153.600 263.686 C 153.600 263.902,153.344 264.646,153.032 265.340 C 147.997 276.509,152.419 296.109,162.025 305.200 C 164.667 307.700,165.986 308.800,166.343 308.800 C 166.535 308.800,167.121 309.135,167.646 309.545 C 171.353 312.440,171.051 310.502,167.209 306.737 C 165.454 305.016,163.904 303.157,163.765 302.604 C 163.627 302.052,163.390 301.600,163.240 301.600 C 162.571 301.600,160.136 295.824,159.613 292.995 C 159.409 291.898,159.041 290.100,158.793 289.000 C 158.194 286.335,158.187 269.226,158.785 266.600 C 159.035 265.500,159.425 263.700,159.651 262.600 C 159.877 261.500,160.228 260.429,160.431 260.220 C 160.634 260.011,160.800 259.541,160.800 259.175 C 160.800 256.764,164.881 251.125,169.700 246.877 C 171.620 245.185,170.432 244.858,167.602 246.300 M37.500 247.076 C 36.209 247.413,36.892 248.428,38.800 249.004 C 41.000 249.670,48.400 258.449,48.400 260.394 C 48.400 260.581,48.535 260.793,48.700 260.867 C 49.051 261.023,51.865 265.234,53.792 268.489 C 54.016 268.869,54.965 270.269,55.900 271.602 C 56.835 272.935,57.600 274.177,57.600 274.364 C 57.600 274.550,57.870 274.926,58.200 275.200 C 60.186 276.848,58.637 292.738,56.429 293.372 C 56.083 293.471,55.054 293.745,54.141 293.981 C 53.229 294.216,52.379 294.677,52.254 295.004 C 52.055 295.522,53.364 295.600,62.298 295.600 C 73.422 295.600,74.232 295.380,69.200 293.724 C 66.063 292.692,65.641 291.331,65.618 282.169 L 65.600 275.337 66.872 273.369 C 67.571 272.286,68.651 270.626,69.272 269.680 C 69.892 268.734,70.400 267.887,70.400 267.798 C 70.400 267.709,70.805 267.035,71.300 266.301 C 71.795 265.567,73.010 263.657,74.000 262.057 C 74.990 260.457,76.115 258.772,76.500 258.313 C 76.885 257.853,77.200 257.311,77.200 257.108 C 77.200 255.482,83.344 249.475,85.472 249.020 C 86.884 248.719,87.808 247.860,87.411 247.218 C 87.130 246.764,71.527 246.606,71.081 247.053 C 70.535 247.598,71.651 248.721,72.988 248.971 C 75.974 249.532,76.212 252.772,73.557 256.720 C 72.921 257.666,72.400 258.523,72.400 258.624 C 72.400 258.725,71.770 259.705,71.000 260.800 C 70.230 261.895,69.600 262.876,69.600 262.978 C 69.600 263.081,69.195 263.764,68.700 264.497 C 68.205 265.230,67.170 266.854,66.400 268.107 C 64.398 271.362,63.474 270.986,60.245 265.600 C 58.626 262.901,58.315 262.408,56.900 260.324 C 56.185 259.270,55.600 258.241,55.600 258.037 C 55.600 257.834,55.451 257.607,55.269 257.533 C 54.728 257.316,51.999 252.415,52.009 251.679 C 52.024 250.506,53.337 249.279,55.059 248.827 C 56.605 248.421,57.460 247.593,56.906 247.039 C 56.631 246.765,38.560 246.799,37.500 247.076 M248.267 253.867 C 248.120 254.013,247.997 258.198,247.994 263.167 C 247.990 268.149,247.818 272.469,247.609 272.800 C 247.296 273.296,245.585 273.435,237.715 273.600 L 228.200 273.800 228.081 276.079 L 227.961 278.359 237.361 278.479 C 244.401 278.570,246.892 278.730,247.281 279.119 C 247.670 279.508,247.830 281.995,247.921 289.019 L 248.041 298.400 250.421 298.400 L 252.800 298.400 252.800 289.289 C 252.800 277.193,251.623 278.400,263.423 278.400 L 272.800 278.400 272.800 276.000 L 272.800 273.600 263.280 273.600 C 256.409 273.600,253.626 273.466,253.280 273.120 C 252.934 272.774,252.800 269.991,252.800 263.120 L 252.800 253.600 250.667 253.600 C 249.493 253.600,248.413 253.720,248.267 253.867 M184.000 262.050 C 183.450 262.270,182.102 262.643,181.004 262.879 C 176.838 263.774,176.048 265.459,180.009 264.999 C 182.629 264.695,183.766 265.369,184.214 267.490 C 184.343 268.100,184.618 268.913,184.825 269.296 C 185.033 269.679,185.366 271.146,185.565 272.555 C 185.765 273.965,186.124 275.485,186.364 275.933 C 187.226 277.544,186.875 279.502,185.327 281.704 C 178.796 290.998,177.228 292.668,176.094 291.534 C 175.141 290.581,171.347 290.655,170.658 291.639 C 168.969 294.050,170.482 296.133,173.920 296.133 C 177.151 296.133,177.608 295.778,182.456 289.505 C 187.348 283.176,188.400 282.427,188.400 285.275 C 188.400 285.703,188.593 286.413,188.828 286.853 C 189.064 287.293,189.411 288.496,189.600 289.527 C 191.176 298.137,196.131 298.865,201.542 291.282 C 204.407 287.266,204.075 285.140,201.173 288.920 C 198.175 292.826,196.631 292.749,195.238 288.625 C 194.777 287.260,194.400 285.649,194.400 285.046 C 194.400 284.442,194.193 283.560,193.939 283.086 C 192.284 279.994,192.301 274.823,193.973 272.546 C 194.318 272.077,194.870 271.291,195.200 270.799 C 197.942 266.716,199.863 265.688,202.348 266.973 C 204.288 267.976,207.258 265.451,206.169 263.724 C 203.846 260.040,198.508 262.156,194.400 268.390 C 193.032 270.465,192.515 270.930,191.856 270.677 C 191.058 270.371,190.400 268.793,190.400 267.186 C 190.400 263.324,187.213 260.766,184.000 262.050 M89.754 264.577 C 88.951 266.669,88.261 266.591,108.661 266.704 C 129.081 266.816,128.460 266.880,127.782 264.744 C 127.460 263.729,90.142 263.565,89.754 264.577 M91.100 275.924 C 89.734 276.037,89.600 276.154,89.600 277.228 L 89.600 278.408 108.700 278.304 L 127.800 278.200 127.800 277.200 L 127.800 276.200 110.200 276.000 C 100.520 275.890,91.925 275.856,91.100 275.924 " stroke="none" fill="#121212" fill-rule="evenodd"></path><path id="path1" d="M0.000 276.000 L 0.000 552.000 200.000 552.000 L 400.000 552.000 400.000 276.000 L 400.000 0.000 200.000 0.000 L 0.000 0.000 0.000 276.000 M375.953 231.275 C 377.914 232.461,380.387 235.215,380.394 236.220 C 380.397 236.671,380.599 237.239,380.842 237.482 C 381.431 238.071,381.447 242.391,380.864 243.481 C 380.609 243.958,380.400 244.787,380.400 245.325 C 380.400 245.862,380.130 246.526,379.800 246.800 C 379.470 247.074,379.200 247.527,379.200 247.808 C 379.200 248.088,378.181 249.641,376.934 251.259 C 374.783 254.052,373.473 255.526,369.100 260.076 C 368.055 261.164,367.200 262.131,367.200 262.227 C 367.200 262.322,369.870 262.400,373.134 262.400 L 379.069 262.400 380.483 260.824 C 382.687 258.369,384.793 259.322,383.444 262.164 C 383.090 262.910,382.800 263.704,382.800 263.928 C 382.800 264.152,382.500 264.935,382.133 265.668 C 381.765 266.400,381.341 267.270,381.189 267.600 C 380.953 268.112,379.284 268.200,369.756 268.200 L 358.600 268.200 358.473 267.093 C 358.369 266.193,358.830 265.485,360.944 263.293 C 368.417 255.548,370.874 252.789,371.860 251.036 C 375.166 245.163,375.470 240.912,372.788 238.036 L 371.177 236.308 368.179 236.289 C 365.522 236.272,365.080 236.378,364.293 237.223 C 362.984 238.628,361.600 240.759,361.600 241.369 C 361.600 242.187,360.548 242.876,359.522 242.731 C 358.339 242.563,357.993 239.681,358.975 238.181 C 359.319 237.657,359.600 237.050,359.600 236.832 C 359.600 235.705,363.295 231.600,364.309 231.600 C 364.525 231.600,364.926 231.330,365.200 231.000 C 366.069 229.953,374.106 230.158,375.953 231.275 M316.800 243.600 C 317.582 244.382,317.600 244.933,317.600 267.938 C 317.600 294.954,317.268 292.774,321.439 293.120 C 323.777 293.314,324.830 294.302,324.265 295.774 C 323.928 296.653,302.993 296.722,301.799 295.848 C 300.494 294.894,301.856 293.375,304.308 293.050 C 306.275 292.789,307.169 292.130,308.300 290.105 C 309.274 288.363,308.995 252.995,308.000 252.000 C 307.042 251.042,306.826 251.025,305.346 251.798 C 303.774 252.617,301.357 252.587,301.034 251.744 C 300.706 250.889,301.736 249.338,302.871 248.978 C 303.361 248.822,304.009 248.448,304.310 248.147 C 304.611 247.846,305.182 247.600,305.580 247.600 C 305.977 247.600,306.526 247.330,306.800 247.000 C 307.074 246.670,307.625 246.400,308.025 246.400 C 308.425 246.400,308.850 246.243,308.968 246.052 C 309.086 245.861,310.222 245.211,311.491 244.607 C 312.761 244.004,314.070 243.361,314.400 243.179 C 315.365 242.645,315.948 242.748,316.800 243.600 M334.905 243.300 C 337.853 244.948,345.600 252.267,345.600 253.404 C 345.600 253.746,345.870 254.129,346.200 254.255 C 346.530 254.382,346.800 254.708,346.800 254.981 C 346.800 255.253,347.160 255.802,347.600 256.200 C 348.040 256.598,348.400 257.144,348.400 257.413 C 348.400 257.682,348.670 258.126,349.000 258.400 C 349.330 258.674,349.600 259.292,349.600 259.773 C 349.600 260.254,349.864 260.996,350.187 261.424 C 350.510 261.851,350.786 262.470,350.801 262.800 C 350.815 263.130,351.175 264.120,351.600 265.000 C 352.025 265.880,352.379 267.163,352.386 267.851 C 352.394 268.539,352.670 269.749,353.000 270.538 C 353.691 272.193,353.796 278.726,353.178 281.600 C 352.965 282.590,352.625 284.447,352.422 285.727 C 352.219 287.007,351.887 288.267,351.683 288.527 C 351.479 288.787,351.209 289.540,351.082 290.200 C 350.757 291.895,349.236 295.200,348.781 295.200 C 348.572 295.200,348.400 295.478,348.400 295.817 C 348.400 298.019,338.071 308.500,334.697 309.723 C 333.366 310.205,332.000 309.337,332.000 308.010 C 332.000 307.344,332.135 306.798,332.300 306.796 C 332.864 306.788,336.773 302.818,338.688 300.307 C 341.516 296.599,343.012 293.210,343.641 289.079 C 343.836 287.802,344.176 286.419,344.397 286.005 C 344.942 284.988,344.930 268.590,344.384 267.570 C 344.155 267.143,343.816 265.670,343.630 264.297 C 343.256 261.541,342.766 259.994,341.317 257.000 C 339.457 253.156,338.198 251.410,335.441 248.848 C 331.605 245.283,331.281 244.599,332.900 243.470 C 334.015 242.692,333.844 242.707,334.905 243.300 M171.656 244.962 C 172.140 246.026,171.220 247.769,169.945 248.203 C 168.849 248.575,164.400 253.191,164.400 253.956 C 164.400 254.146,164.142 254.517,163.826 254.779 C 163.510 255.041,163.136 255.783,162.994 256.428 C 162.852 257.072,162.579 257.600,162.386 257.600 C 162.194 257.600,161.927 258.275,161.794 259.100 C 161.661 259.925,161.317 261.050,161.030 261.600 C 160.743 262.150,160.396 263.733,160.258 265.118 C 160.121 266.504,159.814 268.000,159.577 268.443 C 158.986 269.547,159.001 285.184,159.594 286.982 C 159.841 287.729,160.191 289.569,160.374 291.070 C 160.729 294.000,161.172 295.455,162.665 298.600 C 163.549 300.463,163.989 301.244,165.000 302.753 C 165.220 303.081,166.795 304.748,168.500 306.458 C 171.538 309.504,172.083 310.557,171.120 311.520 C 170.586 312.054,169.200 312.175,169.200 311.688 C 169.200 311.516,168.705 311.152,168.100 310.880 C 166.058 309.960,164.800 309.158,164.800 308.778 C 164.800 308.570,164.607 308.400,164.370 308.400 C 163.872 308.400,159.953 304.508,158.199 302.271 C 157.540 301.430,156.685 300.368,156.300 299.910 C 155.915 299.452,155.600 298.857,155.600 298.588 C 155.600 298.318,155.330 297.874,155.000 297.600 C 154.670 297.326,154.400 296.777,154.400 296.380 C 154.400 295.982,154.165 295.419,153.877 295.129 C 153.281 294.526,152.032 291.188,151.733 289.400 C 151.623 288.740,151.278 287.633,150.966 286.940 C 150.134 285.086,150.160 270.948,151.000 268.938 C 151.330 268.149,151.600 267.019,151.600 266.428 C 151.600 265.837,151.864 265.004,152.187 264.576 C 152.510 264.149,152.780 263.567,152.787 263.283 C 152.950 256.657,169.613 240.479,171.656 244.962 M58.330 247.330 C 58.540 248.423,57.253 249.599,55.838 249.606 C 53.211 249.619,52.707 251.788,54.605 254.909 C 55.171 255.839,55.852 256.960,56.117 257.400 C 56.383 257.840,56.825 258.344,57.100 258.520 C 57.375 258.696,57.600 259.088,57.600 259.391 C 57.600 259.695,57.837 260.181,58.126 260.471 C 58.576 260.923,59.442 262.259,61.405 265.526 C 63.708 269.360,64.343 269.832,65.140 268.300 C 65.398 267.805,65.922 266.927,66.304 266.349 C 66.687 265.771,67.540 264.376,68.200 263.249 C 68.860 262.123,69.514 261.201,69.652 261.200 C 69.791 261.200,70.406 260.210,71.018 259.000 C 71.630 257.790,72.281 256.800,72.465 256.800 C 72.649 256.800,72.800 256.554,72.800 256.254 C 72.800 255.954,73.160 255.250,73.600 254.691 C 75.286 252.548,74.332 249.815,71.800 249.533 C 70.731 249.415,70.586 249.237,70.476 247.900 L 70.352 246.400 79.343 246.400 C 88.850 246.400,88.842 246.398,88.481 248.289 C 88.366 248.892,87.942 249.283,87.253 249.425 C 84.725 249.945,79.200 254.310,79.200 255.787 C 79.200 255.909,78.615 256.870,77.900 257.924 C 76.514 259.967,76.303 260.296,74.400 263.400 C 72.497 266.504,72.286 266.833,70.900 268.876 C 70.185 269.930,69.600 270.903,69.600 271.038 C 69.600 271.174,69.015 272.023,68.300 272.926 L 67.000 274.568 67.000 282.873 C 67.000 292.578,67.064 292.751,70.800 293.110 C 73.128 293.333,74.230 294.558,73.210 295.788 C 72.459 296.693,51.952 296.706,51.202 295.802 C 50.293 294.708,51.630 293.352,53.917 293.049 C 55.015 292.903,56.152 292.480,56.485 292.094 C 58.109 290.210,58.643 278.401,57.226 275.684 C 56.208 273.730,52.665 268.241,51.100 266.191 C 50.715 265.686,50.400 265.165,50.400 265.033 C 50.400 264.900,49.770 263.895,49.000 262.800 C 48.230 261.705,47.600 260.626,47.600 260.404 C 47.600 260.182,47.432 260.000,47.227 260.000 C 47.022 260.000,46.740 259.641,46.601 259.202 C 46.462 258.764,46.134 258.174,45.874 257.892 C 44.940 256.881,43.600 254.824,43.600 254.404 C 43.600 254.168,43.330 253.871,43.000 253.745 C 42.670 253.618,42.400 253.354,42.400 253.157 C 42.400 252.194,38.640 249.600,37.244 249.600 C 36.273 249.600,35.352 248.023,35.737 247.019 C 36.137 245.979,58.128 246.281,58.330 247.330 M252.967 253.043 C 253.520 253.255,253.600 254.514,253.600 263.043 L 253.600 272.800 262.967 272.800 C 274.343 272.800,273.600 272.577,273.600 275.994 C 273.600 279.900,273.959 279.764,263.040 280.000 L 253.800 280.200 253.696 289.600 C 253.578 300.317,253.685 300.000,250.199 300.000 C 246.423 300.000,246.400 299.934,246.400 289.184 L 246.400 280.000 237.574 280.000 C 226.575 280.000,226.417 279.942,226.406 275.914 C 226.398 272.767,226.283 272.800,237.174 272.800 L 246.400 272.800 246.400 263.220 C 246.400 254.518,246.464 253.602,247.100 253.232 C 247.866 252.786,251.955 252.654,252.967 253.043 M189.642 262.448 C 190.337 263.297,190.847 264.507,191.012 265.702 C 191.477 269.054,192.361 269.621,193.869 267.532 C 198.381 261.283,203.579 259.038,206.277 262.172 C 208.994 265.329,204.671 270.304,201.376 267.813 C 200.949 267.490,200.361 267.220,200.069 267.213 C 199.536 267.200,196.400 270.312,196.400 270.854 C 196.400 271.013,196.168 271.381,195.885 271.671 C 193.714 273.900,192.913 277.898,194.153 280.320 C 194.457 280.914,194.837 282.390,194.998 283.600 C 195.158 284.810,195.456 286.006,195.658 286.257 C 195.861 286.509,196.160 287.499,196.323 288.457 C 196.776 291.130,198.172 291.110,200.237 288.403 C 201.575 286.648,201.960 286.380,202.996 286.482 C 204.576 286.637,204.897 288.625,203.614 290.304 C 199.164 296.129,197.328 297.600,194.507 297.600 C 191.887 297.600,189.509 294.936,188.980 291.408 C 188.821 290.349,188.447 289.014,188.148 288.441 C 187.849 287.869,187.604 286.804,187.602 286.076 C 187.599 284.483,187.141 284.676,185.770 286.847 C 185.222 287.716,184.464 288.742,184.086 289.127 C 183.709 289.512,182.908 290.541,182.306 291.413 C 178.372 297.118,174.202 298.958,170.704 296.533 C 167.260 294.146,170.184 287.883,173.850 289.795 C 176.273 291.059,177.690 290.643,179.430 288.157 C 180.294 286.923,181.315 285.623,181.700 285.268 C 182.085 284.913,182.400 284.471,182.400 284.287 C 182.400 283.987,184.453 281.063,185.656 279.650 C 186.006 279.240,186.012 278.783,185.681 277.850 C 185.438 277.163,185.116 275.610,184.966 274.400 C 184.816 273.190,184.538 272.002,184.347 271.760 C 184.157 271.517,183.881 270.442,183.734 269.370 C 183.295 266.168,182.204 265.327,179.370 266.007 C 174.462 267.185,174.685 263.582,179.608 262.177 C 185.912 260.378,187.994 260.434,189.642 262.448 M128.533 264.097 C 129.317 265.147,129.323 265.252,128.682 266.597 L 128.013 268.000 108.606 268.000 C 97.933 268.000,89.200 267.932,89.200 267.849 C 89.200 267.766,88.935 267.064,88.611 266.289 C 88.064 264.979,88.081 264.805,88.843 263.836 L 89.664 262.792 108.689 262.896 L 127.714 263.000 128.533 264.097 M127.808 274.706 C 128.226 275.007,129.200 276.993,129.200 277.543 C 129.200 277.712,128.833 278.243,128.384 278.725 L 127.569 279.600 108.654 279.600 L 89.739 279.600 88.857 278.660 C 87.948 277.693,88.100 276.326,89.272 274.913 C 89.746 274.343,127.025 274.142,127.808 274.706 " stroke="none" fill="#fbfbfb" fill-rule="evenodd"></path><path id="path2" d="M365.200 231.000 C 364.926 231.330,364.525 231.600,364.309 231.600 C 363.295 231.600,359.600 235.705,359.600 236.832 C 359.600 237.050,359.319 237.657,358.975 238.181 C 357.993 239.681,358.339 242.563,359.522 242.731 C 360.548 242.876,361.600 242.187,361.600 241.369 C 361.600 240.759,362.984 238.628,364.293 237.223 C 365.080 236.378,365.522 236.272,368.179 236.289 L 371.177 236.308 372.788 238.036 C 375.470 240.912,375.166 245.163,371.860 251.036 C 370.875 252.787,368.420 255.544,360.971 263.265 C 359.557 264.731,358.413 266.261,358.428 266.665 C 358.453 267.309,358.490 267.318,358.728 266.739 C 358.878 266.376,361.173 263.766,363.829 260.939 C 373.646 250.491,374.800 248.599,374.800 242.951 C 374.800 234.749,365.574 232.562,361.803 239.870 C 360.409 242.571,358.800 243.225,358.800 241.090 C 358.800 239.998,359.966 236.801,360.668 235.969 C 360.961 235.621,361.200 235.141,361.200 234.902 C 361.200 233.823,365.432 231.174,367.800 230.772 L 369.400 230.500 367.549 230.450 C 366.341 230.417,365.525 230.608,365.200 231.000 M373.000 230.771 C 380.311 232.393,382.903 240.603,378.485 248.142 C 376.905 250.838,376.634 251.170,370.900 257.442 C 365.437 263.417,365.293 263.171,374.050 262.819 L 379.499 262.600 380.639 261.300 C 381.689 260.102,382.741 259.675,383.290 260.224 C 383.413 260.347,383.160 261.382,382.728 262.524 C 382.296 263.666,381.749 265.140,381.513 265.800 C 380.685 268.116,381.161 268.033,369.360 267.912 C 363.354 267.850,358.577 267.938,358.746 268.107 C 359.383 268.743,380.887 268.257,381.189 267.600 C 381.341 267.270,381.765 266.400,382.133 265.668 C 382.500 264.935,382.800 264.152,382.800 263.928 C 382.800 263.704,383.090 262.910,383.444 262.164 C 384.793 259.322,382.687 258.369,380.483 260.824 L 379.069 262.400 373.134 262.400 C 369.870 262.400,367.200 262.322,367.200 262.227 C 367.200 262.131,368.055 261.164,369.100 260.076 C 373.473 255.526,374.783 254.052,376.934 251.259 C 378.181 249.641,379.200 248.088,379.200 247.808 C 379.200 247.527,379.470 247.074,379.800 246.800 C 380.130 246.526,380.400 245.862,380.400 245.325 C 380.400 244.787,380.609 243.958,380.864 243.481 C 381.447 242.391,381.431 238.071,380.842 237.482 C 380.599 237.239,380.397 236.671,380.394 236.220 C 380.381 234.248,375.501 230.361,373.153 230.453 L 371.800 230.505 373.000 230.771 M314.400 243.179 C 314.070 243.361,312.761 244.004,311.491 244.607 C 310.222 245.211,309.086 245.861,308.968 246.052 C 308.850 246.243,308.425 246.400,308.025 246.400 C 307.625 246.400,307.074 246.670,306.800 247.000 C 306.526 247.330,305.977 247.600,305.580 247.600 C 305.182 247.600,304.611 247.846,304.310 248.147 C 304.009 248.448,303.361 248.822,302.871 248.978 C 301.736 249.338,300.706 250.889,301.034 251.744 C 301.357 252.587,303.774 252.617,305.346 251.798 C 306.826 251.025,307.042 251.042,308.000 252.000 C 308.995 252.995,309.274 288.363,308.300 290.105 C 307.169 292.130,306.275 292.789,304.308 293.050 C 301.856 293.375,300.494 294.894,301.799 295.848 C 302.993 296.722,323.928 296.653,324.265 295.774 C 324.830 294.302,323.777 293.314,321.439 293.120 C 317.268 292.774,317.600 294.954,317.600 267.938 C 317.600 244.933,317.582 244.382,316.800 243.600 C 315.948 242.748,315.365 242.645,314.400 243.179 M332.900 243.470 C 331.281 244.599,331.605 245.283,335.441 248.848 C 338.198 251.410,339.457 253.156,341.317 257.000 C 342.766 259.994,343.256 261.541,343.630 264.297 C 343.816 265.670,344.155 267.143,344.384 267.570 C 344.930 268.590,344.942 284.988,344.397 286.005 C 344.176 286.419,343.836 287.802,343.641 289.079 C 343.012 293.210,341.516 296.599,338.688 300.307 C 336.773 302.818,332.864 306.788,332.300 306.796 C 332.135 306.798,332.000 307.344,332.000 308.010 C 332.000 309.337,333.366 310.205,334.697 309.723 C 338.071 308.500,348.400 298.019,348.400 295.817 C 348.400 295.478,348.572 295.200,348.781 295.200 C 349.228 295.200,350.745 291.930,351.093 290.218 C 351.225 289.567,351.572 288.577,351.864 288.018 C 352.156 287.458,352.375 286.370,352.352 285.600 L 352.308 284.200 351.978 285.600 C 349.888 294.476,345.537 301.084,338.052 306.746 C 334.107 309.730,334.150 309.708,333.244 309.224 C 332.067 308.594,332.639 307.288,335.062 305.074 C 340.445 300.154,342.257 296.860,344.580 287.774 C 345.448 284.377,345.466 269.003,344.604 266.164 C 344.277 265.084,344.007 263.796,344.004 263.302 C 343.986 259.587,340.356 253.161,335.596 248.420 C 332.213 245.051,332.056 244.784,332.995 244.004 C 334.125 243.066,337.974 245.574,342.782 250.382 C 343.701 251.301,347.821 257.270,348.809 259.113 C 349.415 260.243,349.600 260.391,349.600 259.743 C 349.600 259.278,349.330 258.674,349.000 258.400 C 348.670 258.126,348.400 257.682,348.400 257.413 C 348.400 257.144,348.040 256.598,347.600 256.200 C 347.160 255.802,346.800 255.253,346.800 254.981 C 346.800 254.708,346.530 254.382,346.200 254.255 C 345.870 254.129,345.600 253.746,345.600 253.404 C 345.600 252.267,337.853 244.948,334.905 243.300 C 333.844 242.707,334.015 242.692,332.900 243.470 M316.802 266.962 C 316.805 293.947,316.743 293.600,321.559 293.600 C 322.817 293.600,324.136 294.591,323.885 295.346 C 323.697 295.911,302.844 296.204,302.290 295.650 C 301.769 295.129,302.682 293.600,303.514 293.598 C 305.427 293.592,307.241 292.697,308.198 291.289 L 309.200 289.814 309.200 271.177 L 309.200 252.539 308.181 251.582 C 307.166 250.629,307.156 250.628,305.228 251.313 C 302.994 252.106,301.762 252.185,301.375 251.560 C 300.551 250.226,314.846 242.756,316.082 243.874 C 316.756 244.484,316.800 245.888,316.802 266.962 M167.903 244.932 C 161.207 248.813,152.895 258.904,152.787 263.283 C 152.780 263.567,152.510 264.149,152.187 264.576 C 151.864 265.004,151.618 265.904,151.641 266.576 L 151.682 267.800 152.010 266.600 C 153.576 260.876,158.261 253.059,162.093 249.777 C 162.849 249.130,163.958 248.187,164.557 247.683 C 166.967 245.653,170.061 244.289,170.733 244.961 C 171.514 245.743,170.856 247.155,169.269 248.102 C 163.465 251.561,158.654 263.077,158.867 273.000 L 158.945 276.600 159.214 272.600 C 159.362 270.400,159.685 267.880,159.932 267.000 C 160.179 266.120,160.385 264.798,160.390 264.062 C 160.396 263.326,160.659 262.246,160.976 261.662 C 161.293 261.078,161.661 259.925,161.794 259.100 C 161.927 258.275,162.194 257.600,162.386 257.600 C 162.579 257.600,162.852 257.072,162.994 256.428 C 163.136 255.783,163.510 255.041,163.826 254.779 C 164.142 254.517,164.400 254.146,164.400 253.956 C 164.400 253.191,168.849 248.575,169.945 248.203 C 171.220 247.769,172.140 246.026,171.656 244.962 C 171.110 243.765,169.934 243.755,167.903 244.932 M35.735 247.026 C 35.352 248.024,36.276 249.600,37.244 249.600 C 38.640 249.600,42.400 252.194,42.400 253.157 C 42.400 253.354,42.670 253.618,43.000 253.745 C 43.330 253.871,43.600 254.168,43.600 254.404 C 43.600 254.824,44.940 256.881,45.874 257.892 C 46.134 258.174,46.462 258.764,46.601 259.202 C 46.740 259.641,47.022 260.000,47.227 260.000 C 47.432 260.000,47.600 260.182,47.600 260.404 C 47.600 260.626,48.230 261.705,49.000 262.800 C 49.770 263.895,50.400 264.900,50.400 265.033 C 50.400 265.165,50.715 265.686,51.100 266.191 C 52.665 268.241,56.208 273.730,57.226 275.684 C 58.643 278.401,58.109 290.210,56.485 292.094 C 56.152 292.480,55.015 292.903,53.917 293.049 C 51.630 293.352,50.293 294.708,51.202 295.802 C 51.952 296.706,72.459 296.693,73.210 295.788 C 74.230 294.558,73.128 293.333,70.800 293.110 C 67.064 292.751,67.000 292.578,67.000 282.873 L 67.000 274.568 68.300 272.926 C 69.015 272.023,69.600 271.174,69.600 271.038 C 69.600 270.903,70.185 269.930,70.900 268.876 C 72.286 266.833,72.497 266.504,74.400 263.400 C 76.303 260.296,76.514 259.967,77.900 257.924 C 78.615 256.870,79.200 255.909,79.200 255.787 C 79.200 254.310,84.725 249.945,87.253 249.425 C 88.622 249.143,89.225 246.400,87.918 246.400 C 87.637 246.400,87.633 246.562,87.905 246.900 C 88.693 247.878,87.772 249.070,86.012 249.352 C 83.756 249.712,79.804 253.729,76.600 258.917 C 75.280 261.055,73.533 263.838,72.719 265.102 C 71.432 267.098,69.531 270.138,68.195 272.334 C 67.972 272.700,67.464 273.484,67.065 274.075 C 66.413 275.044,66.353 275.964,66.470 283.334 C 66.620 292.804,66.690 292.999,70.071 293.447 C 72.165 293.725,73.705 295.032,72.694 295.674 C 71.672 296.323,51.998 296.061,51.743 295.395 C 51.374 294.433,52.282 293.709,54.221 293.418 C 57.715 292.894,58.395 291.147,58.398 282.680 C 58.400 276.547,58.267 275.922,56.384 273.200 C 56.004 272.650,52.689 267.653,49.019 262.095 C 42.255 251.854,40.789 250.139,38.145 249.374 C 36.273 248.833,35.558 247.352,36.907 246.810 L 37.800 246.451 36.887 246.425 C 36.386 246.411,35.867 246.681,35.735 247.026 M57.308 246.864 C 58.262 247.588,57.285 249.073,55.696 249.314 C 54.631 249.475,54.636 249.482,55.838 249.540 C 58.005 249.645,59.433 246.829,57.395 246.469 C 56.648 246.337,56.643 246.361,57.308 246.864 M70.504 248.400 C 70.581 249.204,70.847 249.424,71.858 249.522 C 73.438 249.676,74.290 250.602,74.505 252.400 L 74.672 253.800 74.736 252.300 C 74.812 250.524,73.723 249.200,72.187 249.200 C 71.517 249.200,71.045 248.896,70.791 248.300 C 70.414 247.413,70.409 247.415,70.504 248.400 M53.214 250.374 C 52.400 251.895,53.087 253.582,56.811 259.200 C 57.613 260.410,59.008 262.570,59.910 264.000 C 64.418 271.141,63.821 271.127,68.221 264.200 C 69.059 262.880,69.918 261.571,70.129 261.291 C 70.403 260.927,70.353 260.843,69.955 260.996 C 69.648 261.114,68.857 262.130,68.198 263.254 C 67.539 264.378,66.687 265.771,66.304 266.349 C 65.922 266.927,65.398 267.805,65.140 268.300 C 64.343 269.832,63.708 269.360,61.405 265.526 C 59.442 262.259,58.576 260.923,58.126 260.471 C 57.837 260.181,57.600 259.695,57.600 259.391 C 57.600 259.088,57.375 258.696,57.100 258.520 C 56.825 258.344,56.383 257.840,56.117 257.400 C 55.852 256.960,55.171 255.839,54.605 254.909 C 53.449 253.007,53.161 250.523,54.034 249.971 C 54.411 249.732,54.438 249.610,54.114 249.606 C 53.847 249.603,53.442 249.948,53.214 250.374 M247.100 253.232 C 246.464 253.602,246.400 254.518,246.400 263.220 L 246.400 272.800 237.174 272.800 C 226.283 272.800,226.398 272.767,226.406 275.914 C 226.417 279.942,226.575 280.000,237.574 280.000 L 246.400 280.000 246.400 289.184 C 246.400 299.934,246.423 300.000,250.199 300.000 C 253.685 300.000,253.578 300.317,253.696 289.600 L 253.800 280.200 263.040 280.000 C 273.959 279.764,273.600 279.900,273.600 275.994 C 273.600 272.577,274.343 272.800,262.967 272.800 L 253.600 272.800 253.600 263.043 C 253.600 254.514,253.520 253.255,252.967 253.043 C 251.955 252.654,247.866 252.786,247.100 253.232 M253.200 263.200 L 253.400 273.000 263.200 273.200 L 273.000 273.400 273.121 275.734 C 273.307 279.332,273.695 279.200,262.951 279.200 C 257.808 279.200,253.566 279.245,253.525 279.300 C 253.484 279.355,253.349 283.810,253.225 289.200 L 253.000 299.000 250.666 299.121 C 247.084 299.307,247.200 299.627,247.200 289.525 C 247.200 278.038,248.285 279.200,237.560 279.200 C 227.098 279.200,227.200 279.231,227.200 276.029 C 227.200 273.045,226.650 273.200,237.200 273.200 C 242.004 273.200,246.219 273.091,246.567 272.957 C 247.120 272.745,247.200 271.506,247.200 263.191 C 247.200 252.469,246.946 253.206,250.600 253.323 L 253.000 253.400 253.200 263.200 M73.441 254.863 C 73.088 255.366,72.800 255.993,72.800 256.256 C 72.800 256.518,72.657 256.793,72.483 256.867 C 72.108 257.025,70.400 259.758,70.400 260.201 C 70.400 260.639,71.636 258.954,73.149 256.456 C 74.441 254.322,74.661 253.121,73.441 254.863 M183.200 261.201 C 176.865 262.786,175.084 263.885,176.222 265.510 C 176.867 266.430,178.013 266.604,179.400 265.990 C 180.027 265.713,179.875 265.650,178.702 265.700 C 175.216 265.848,176.133 263.663,180.028 262.539 C 187.767 260.305,189.714 261.075,190.799 266.793 C 191.178 268.795,191.765 270.000,192.359 270.000 C 192.503 270.000,193.505 268.830,194.585 267.400 C 198.925 261.654,202.744 259.858,205.569 262.236 C 208.739 264.903,205.680 268.828,201.581 267.354 L 199.601 266.642 198.206 267.994 C 195.190 270.917,193.463 273.984,193.358 276.600 L 193.263 279.000 193.540 276.800 C 193.794 274.783,194.601 273.025,195.895 271.671 C 196.173 271.381,196.400 271.013,196.400 270.854 C 196.400 270.312,199.536 267.200,200.069 267.213 C 200.361 267.220,200.949 267.490,201.376 267.813 C 204.671 270.304,208.994 265.329,206.277 262.172 C 203.579 259.038,198.381 261.283,193.869 267.532 C 192.361 269.621,191.477 269.054,191.012 265.702 C 190.468 261.773,187.575 260.106,183.200 261.201 M349.600 261.129 C 349.600 261.394,349.779 261.923,349.997 262.305 C 350.536 263.249,351.600 266.290,351.989 268.000 L 352.308 269.400 352.340 268.000 C 352.358 267.230,352.025 265.880,351.600 265.000 C 351.175 264.120,350.815 263.130,350.801 262.800 C 350.769 262.073,349.600 260.446,349.600 261.129 M88.843 263.836 C 88.081 264.805,88.064 264.979,88.611 266.289 C 88.935 267.064,89.200 267.766,89.200 267.849 C 89.200 267.932,97.933 268.000,108.606 268.000 L 128.013 268.000 128.682 266.597 C 129.323 265.252,129.317 265.147,128.533 264.097 L 127.714 263.000 108.689 262.896 L 89.664 262.792 88.843 263.836 M128.141 264.479 C 128.432 264.940,128.443 265.517,128.175 266.279 L 127.781 267.400 108.990 267.509 C 90.233 267.617,90.199 267.616,89.500 266.764 C 88.683 265.769,88.602 264.758,89.284 264.076 C 90.147 263.213,127.588 263.601,128.141 264.479 M181.096 265.482 C 181.590 265.577,182.260 266.037,182.587 266.503 C 182.914 266.970,183.291 267.243,183.424 267.109 C 183.863 266.670,182.019 265.199,181.100 265.254 L 180.200 265.309 181.096 265.482 M183.793 269.360 C 183.907 270.437,184.157 271.517,184.347 271.760 C 184.538 272.002,184.816 273.190,184.966 274.400 C 185.116 275.610,185.438 277.163,185.681 277.850 C 186.012 278.783,186.006 279.240,185.656 279.650 C 184.453 281.063,182.400 283.987,182.400 284.287 C 182.400 284.471,182.085 284.913,181.700 285.268 C 181.315 285.623,180.294 286.923,179.430 288.157 C 177.690 290.643,176.273 291.059,173.850 289.795 C 170.184 287.883,167.260 294.146,170.704 296.533 C 174.202 298.958,178.372 297.118,182.306 291.413 C 182.908 290.541,183.709 289.512,184.086 289.127 C 184.464 288.742,185.222 287.716,185.770 286.847 C 187.141 284.676,187.599 284.483,187.602 286.076 C 187.604 286.804,187.849 287.869,188.148 288.441 C 188.447 289.014,188.821 290.349,188.980 291.408 C 189.509 294.936,191.887 297.600,194.507 297.600 C 197.328 297.600,199.164 296.129,203.614 290.304 C 204.897 288.625,204.576 286.637,202.996 286.482 C 201.960 286.380,201.575 286.648,200.237 288.403 C 198.172 291.110,196.776 291.130,196.323 288.457 C 196.160 287.499,195.861 286.509,195.658 286.257 C 195.456 286.006,195.159 284.810,194.999 283.600 C 194.839 282.390,194.448 280.950,194.131 280.400 L 193.554 279.400 193.793 280.400 C 193.924 280.950,194.272 282.480,194.567 283.800 C 196.410 292.047,197.463 292.859,200.747 288.562 C 203.506 284.951,205.276 286.992,202.639 290.744 C 196.619 299.310,190.990 299.166,189.168 290.400 C 187.952 284.552,187.428 283.685,186.165 285.437 C 178.769 295.696,176.213 297.870,172.760 296.835 C 167.188 295.166,168.989 289.058,174.613 290.548 C 177.344 291.272,177.999 290.935,180.518 287.519 C 186.426 279.506,186.927 278.533,186.019 276.835 C 185.809 276.443,185.449 275.059,185.220 273.761 C 184.991 272.462,184.529 270.500,184.194 269.400 L 183.585 267.400 183.793 269.360 M150.839 269.260 C 150.598 269.953,150.428 271.708,150.463 273.160 L 150.526 275.800 150.801 273.200 C 150.952 271.770,151.217 270.015,151.388 269.300 C 151.787 267.638,151.414 267.610,150.839 269.260 M352.718 271.600 C 353.072 274.362,353.057 277.791,352.677 281.400 C 352.440 283.646,352.472 284.002,352.839 283.200 C 353.633 281.462,353.798 272.436,353.064 270.800 L 352.437 269.400 352.718 271.600 M89.272 274.913 C 88.100 276.326,87.948 277.693,88.857 278.660 L 89.739 279.600 108.654 279.600 L 127.569 279.600 128.384 278.725 C 128.833 278.243,129.200 277.712,129.200 277.543 C 129.200 276.993,128.226 275.007,127.808 274.706 C 127.025 274.142,89.746 274.343,89.272 274.913 M127.980 275.776 C 128.243 276.093,128.400 276.858,128.329 277.476 L 128.200 278.600 109.200 278.800 C 98.750 278.910,89.973 278.935,89.697 278.856 C 88.962 278.646,88.661 277.006,89.180 276.037 C 89.766 274.942,127.079 274.690,127.980 275.776 M158.869 282.000 C 158.684 292.124,161.909 300.781,168.132 306.864 C 170.931 309.601,171.218 310.018,170.819 310.764 C 170.257 311.815,170.403 311.836,167.906 310.325 C 161.165 306.246,155.147 298.946,153.168 292.448 C 152.925 291.652,152.367 289.830,151.928 288.400 C 151.489 286.970,150.993 284.360,150.827 282.600 L 150.524 279.400 150.462 282.540 C 150.423 284.514,150.610 286.147,150.966 286.940 C 151.278 287.633,151.623 288.740,151.733 289.400 C 152.032 291.188,153.281 294.526,153.877 295.129 C 154.165 295.419,154.400 295.982,154.400 296.380 C 154.400 296.777,154.670 297.326,155.000 297.600 C 155.330 297.874,155.600 298.318,155.600 298.588 C 155.600 298.857,155.915 299.452,156.300 299.910 C 156.685 300.368,157.540 301.430,158.199 302.271 C 159.953 304.508,163.872 308.400,164.370 308.400 C 164.607 308.400,164.800 308.570,164.800 308.778 C 164.800 309.158,166.058 309.960,168.100 310.880 C 168.705 311.152,169.200 311.516,169.200 311.688 C 169.200 312.175,170.586 312.054,171.120 311.520 C 172.083 310.557,171.538 309.504,168.500 306.458 C 166.795 304.748,165.220 303.081,165.000 302.753 C 162.355 298.808,160.850 294.999,160.370 291.033 C 160.185 289.512,159.904 287.982,159.745 287.633 C 159.586 287.285,159.340 285.020,159.197 282.600 L 158.938 278.200 158.869 282.000 " stroke="none" fill="#9e9e9e" fill-rule="evenodd"></path><path id="path3" d="M369.905 230.683 C 370.402 230.779,371.122 230.775,371.505 230.675 C 371.887 230.575,371.480 230.496,370.600 230.501 C 369.720 230.505,369.407 230.587,369.905 230.683 M374.901 243.000 C 374.905 243.880,374.987 244.193,375.083 243.695 C 375.179 243.198,375.175 242.478,375.075 242.095 C 374.975 241.713,374.896 242.120,374.901 243.000 M42.300 246.699 C 44.995 246.768,49.405 246.768,52.100 246.699 C 54.795 246.630,52.590 246.573,47.200 246.573 C 41.810 246.573,39.605 246.630,42.300 246.699 M75.322 246.699 C 77.699 246.770,81.479 246.769,83.722 246.698 C 85.965 246.627,84.020 246.569,79.400 246.569 C 74.780 246.570,72.945 246.628,75.322 246.699 M371.900 263.095 C 373.055 263.176,374.945 263.176,376.100 263.095 C 377.255 263.014,376.310 262.948,374.000 262.948 C 371.690 262.948,370.745 263.014,371.900 263.095 M108.800 267.200 L 89.800 267.412 108.676 267.506 C 120.932 267.567,127.639 267.460,127.800 267.200 C 127.936 266.980,127.992 266.842,127.924 266.894 C 127.856 266.946,119.250 267.084,108.800 267.200 M158.514 275.000 C 158.517 276.100,158.595 276.503,158.687 275.895 C 158.779 275.286,158.777 274.386,158.682 273.895 C 158.587 273.403,158.511 273.900,158.514 275.000 M352.893 275.200 C 352.893 275.970,352.975 276.285,353.076 275.900 C 353.176 275.515,353.176 274.885,353.076 274.500 C 352.975 274.115,352.893 274.430,352.893 275.200 M150.520 277.600 C 150.520 278.810,150.595 279.305,150.687 278.700 C 150.778 278.095,150.778 277.105,150.687 276.500 C 150.595 275.895,150.520 276.390,150.520 277.600 M66.161 282.000 C 66.161 285.410,66.222 286.805,66.297 285.100 C 66.372 283.395,66.372 280.605,66.297 278.900 C 66.222 277.195,66.161 278.590,66.161 282.000 M345.293 277.600 C 345.293 278.370,345.375 278.685,345.476 278.300 C 345.576 277.915,345.576 277.285,345.476 276.900 C 345.375 276.515,345.293 276.830,345.293 277.600 M158.520 280.000 C 158.520 281.210,158.595 281.705,158.687 281.100 C 158.778 280.495,158.778 279.505,158.687 278.900 C 158.595 278.295,158.520 278.790,158.520 280.000 " stroke="none" fill="#848484" fill-rule="evenodd"></path><path id="path4" d="M365.123 231.814 C 361.829 233.530,358.090 239.572,358.944 241.799 C 359.285 242.687,360.688 241.901,361.306 240.475 C 363.650 235.075,370.173 233.762,373.719 237.976 C 374.313 238.683,374.800 239.098,374.800 238.897 C 374.800 237.875,371.873 235.697,369.846 235.211 C 366.281 234.356,362.110 236.745,361.036 240.257 C 360.690 241.387,359.200 241.817,359.200 240.786 C 359.200 240.380,359.360 239.949,359.555 239.828 C 359.750 239.707,360.032 238.956,360.181 238.159 C 360.481 236.563,360.747 236.147,362.790 234.086 C 364.257 232.606,366.082 231.661,368.400 231.182 L 369.800 230.892 368.400 230.865 C 367.630 230.850,366.156 231.277,365.123 231.814 M374.000 231.604 C 381.432 234.222,382.194 243.633,375.600 251.374 C 375.050 252.020,372.665 254.675,370.300 257.274 C 365.352 262.713,365.022 263.587,367.900 263.625 C 372.833 263.689,377.728 263.527,378.407 263.277 C 378.820 263.124,376.502 263.061,373.257 263.135 C 365.895 263.304,365.498 263.068,368.242 260.157 C 378.800 248.957,380.582 246.034,380.464 240.114 C 380.369 235.392,376.506 230.755,372.716 230.814 C 372.178 230.823,372.707 231.148,374.000 231.604 M374.962 242.849 C 374.959 248.402,373.032 251.598,364.141 260.800 C 356.739 268.461,356.391 268.000,369.559 268.000 C 380.307 268.000,381.200 267.868,381.200 266.282 C 381.200 266.029,380.920 266.222,380.577 266.711 C 379.961 267.591,379.847 267.600,369.577 267.600 C 357.544 267.600,358.031 267.859,362.047 263.600 C 370.978 254.129,371.628 253.369,373.422 250.309 C 375.092 247.460,375.925 243.428,375.346 241.000 C 375.010 239.589,374.965 239.807,374.962 242.849 M308.341 246.900 C 304.767 248.715,301.764 250.470,301.667 250.800 C 301.542 251.225,301.769 251.160,302.445 250.576 C 303.871 249.345,315.093 243.887,315.579 244.187 C 315.865 244.364,316.003 251.702,316.009 267.124 C 316.019 294.092,315.787 292.608,320.211 293.974 C 323.173 294.889,323.600 294.952,323.600 294.471 C 323.600 294.289,322.484 293.934,321.121 293.680 C 316.637 292.846,317.017 295.140,316.891 268.119 C 316.780 244.516,316.724 243.600,315.370 243.600 C 315.078 243.600,311.915 245.085,308.341 246.900 M333.137 244.133 C 332.254 244.800,332.529 245.225,336.299 249.035 C 340.916 253.700,342.323 256.385,344.453 264.600 C 344.738 265.700,345.079 268.850,345.209 271.600 L 345.447 276.600 345.524 271.687 C 345.576 268.328,345.430 266.367,345.064 265.487 C 344.769 264.779,344.400 263.239,344.245 262.065 C 344.090 260.891,343.804 259.631,343.610 259.265 C 343.416 258.899,342.851 257.700,342.354 256.600 C 340.956 253.502,339.501 251.588,335.500 247.582 C 333.224 245.303,332.855 244.661,333.566 244.221 C 334.188 243.837,335.716 244.682,337.649 246.480 C 338.665 247.426,340.335 248.973,341.359 249.917 C 343.193 251.610,346.807 256.523,348.389 259.476 C 348.835 260.308,349.200 260.764,349.200 260.491 C 349.200 256.451,335.415 242.412,333.137 244.133 M167.800 245.702 C 158.213 251.660,151.615 262.468,151.011 273.200 L 150.865 275.800 151.202 273.600 C 151.844 269.402,152.467 266.593,153.032 265.340 C 153.344 264.646,153.600 263.902,153.600 263.686 C 153.600 263.341,156.310 257.894,157.400 256.048 C 160.068 251.530,170.400 243.308,170.400 245.703 C 170.400 246.009,170.085 246.538,169.700 246.877 C 164.881 251.125,160.800 256.764,160.800 259.175 C 160.800 259.541,160.634 260.011,160.431 260.220 C 160.228 260.429,159.876 261.500,159.649 262.600 C 159.423 263.700,159.057 265.410,158.836 266.400 C 158.615 267.390,158.455 269.370,158.479 270.800 L 158.524 273.400 158.815 270.200 C 159.748 259.971,163.194 252.552,169.122 248.016 C 172.279 245.600,171.149 243.621,167.800 245.702 M36.472 247.659 C 36.542 248.132,36.870 248.645,37.200 248.800 C 41.038 250.603,44.000 252.952,44.000 254.193 C 44.000 254.420,45.333 256.406,46.200 257.469 C 46.420 257.740,48.123 260.301,49.985 263.162 C 51.846 266.023,53.437 268.296,53.520 268.213 C 53.603 268.131,53.315 267.554,52.880 266.931 C 52.445 266.309,51.398 264.720,50.553 263.400 C 49.708 262.080,48.877 260.940,48.708 260.867 C 48.539 260.793,48.400 260.581,48.400 260.394 C 48.400 258.449,41.000 249.670,38.800 249.004 C 36.892 248.428,36.209 247.413,37.500 247.076 C 38.011 246.942,37.950 246.880,37.272 246.846 C 36.539 246.810,36.371 246.981,36.472 247.659 M56.837 247.070 C 57.001 248.010,56.681 248.411,55.500 248.752 C 54.261 249.110,54.250 249.130,55.271 249.164 C 56.846 249.217,58.238 247.642,57.190 246.994 C 56.965 246.855,56.806 246.889,56.837 247.070 M87.344 247.477 C 87.375 247.849,86.950 248.386,86.400 248.671 C 85.503 249.135,85.484 249.189,86.220 249.194 C 86.671 249.197,87.256 248.984,87.520 248.720 C 88.078 248.162,88.166 246.800,87.644 246.800 C 87.449 246.800,87.314 247.104,87.344 247.477 M70.867 248.200 C 70.967 248.769,71.352 249.021,72.203 249.072 C 72.901 249.114,73.066 249.058,72.600 248.938 C 72.160 248.825,71.559 248.433,71.264 248.066 C 70.775 247.458,70.740 247.470,70.867 248.200 M52.646 250.186 C 52.291 250.728,52.000 251.439,52.000 251.764 C 52.000 252.445,54.769 257.333,55.269 257.533 C 55.451 257.607,55.600 257.834,55.600 258.037 C 55.600 258.241,56.185 259.270,56.900 260.324 C 58.315 262.408,58.626 262.901,60.245 265.600 C 63.474 270.986,64.398 271.362,66.400 268.107 C 67.170 266.854,68.205 265.230,68.700 264.497 C 69.195 263.764,69.600 263.081,69.600 262.978 C 69.600 262.876,70.230 261.895,71.000 260.800 C 71.770 259.705,72.400 258.725,72.400 258.624 C 72.400 258.523,72.921 257.666,73.557 256.720 C 75.738 253.477,75.968 249.200,73.961 249.200 C 73.731 249.200,73.825 249.483,74.171 249.828 C 75.853 251.510,73.882 257.034,70.008 261.495 C 69.771 261.767,69.447 262.307,69.287 262.695 C 67.265 267.586,63.816 270.718,62.727 268.650 C 62.481 268.183,60.931 265.730,59.282 263.200 C 57.633 260.670,55.700 257.700,54.988 256.600 C 52.600 252.914,52.232 251.623,53.198 250.317 C 53.652 249.703,53.859 249.200,53.658 249.200 C 53.457 249.200,53.001 249.644,52.646 250.186 M82.494 250.646 C 80.751 252.107,77.200 256.442,77.200 257.108 C 77.200 257.311,76.885 257.853,76.500 258.313 C 76.115 258.772,74.990 260.457,74.000 262.057 C 73.010 263.657,71.795 265.567,71.300 266.301 C 70.805 267.035,70.400 267.709,70.400 267.798 C 70.400 267.887,69.892 268.734,69.272 269.680 C 68.651 270.626,67.571 272.286,66.872 273.369 L 65.600 275.337 65.618 282.169 C 65.641 291.328,66.063 292.689,69.200 293.729 C 70.410 294.130,71.715 294.743,72.100 295.091 C 72.702 295.635,72.800 295.641,72.800 295.130 C 72.800 294.415,71.524 293.743,69.555 293.421 C 66.695 292.953,66.006 290.692,66.002 281.760 C 65.999 275.079,66.259 274.424,72.447 265.516 C 72.861 264.920,73.200 264.328,73.200 264.200 C 73.200 264.072,73.542 263.480,73.959 262.884 C 74.377 262.288,75.569 260.450,76.607 258.800 C 80.047 253.334,80.582 252.670,82.944 250.928 C 84.233 249.978,85.043 249.204,84.744 249.208 C 84.445 249.212,83.432 249.859,82.494 250.646 M304.311 250.973 C 303.711 251.286,302.811 251.620,302.311 251.716 L 301.400 251.891 302.313 251.946 C 302.815 251.975,303.872 251.730,304.662 251.400 C 309.274 249.473,309.200 249.146,309.200 271.398 L 309.200 290.218 307.971 291.709 C 307.295 292.529,306.455 293.200,306.104 293.200 C 305.754 293.200,305.573 293.306,305.703 293.437 C 306.213 293.947,307.659 293.071,308.605 291.679 L 309.600 290.214 309.600 271.177 L 309.600 252.139 308.674 251.270 C 307.607 250.267,305.888 250.150,304.311 250.973 M247.880 253.700 C 247.289 254.140,247.195 255.334,247.104 263.600 L 247.000 273.000 237.600 273.200 C 226.867 273.428,227.200 273.334,227.200 276.159 C 227.200 279.146,227.392 279.200,237.976 279.200 C 245.575 279.200,246.746 279.282,246.957 279.833 C 247.091 280.181,247.200 284.436,247.200 289.289 C 247.200 299.616,247.673 300.521,252.174 298.810 L 253.200 298.420 253.200 289.443 C 253.200 284.505,253.309 280.181,253.443 279.833 C 253.654 279.283,254.824 279.200,262.417 279.200 C 273.280 279.200,273.224 279.217,273.123 275.910 L 273.046 273.400 272.904 275.900 L 272.762 278.400 263.404 278.400 C 251.626 278.400,252.800 277.195,252.800 289.289 L 252.800 298.400 250.421 298.400 L 248.041 298.400 247.921 289.019 C 247.830 281.995,247.670 279.508,247.281 279.119 C 246.892 278.730,244.401 278.570,237.361 278.479 L 227.961 278.359 228.081 276.079 L 228.200 273.800 237.668 273.600 C 242.875 273.490,247.285 273.250,247.468 273.068 C 247.650 272.885,247.890 268.475,248.000 263.268 L 248.200 253.800 250.400 253.565 L 252.600 253.330 250.576 253.265 C 249.464 253.229,248.250 253.425,247.880 253.700 M252.889 263.020 C 252.824 270.072,252.928 272.768,253.280 273.120 C 253.631 273.471,256.284 273.576,263.180 273.511 L 272.600 273.422 263.000 273.211 L 253.400 273.000 253.189 263.200 L 252.979 253.400 252.889 263.020 M380.665 261.493 L 379.530 263.000 380.759 261.700 C 381.435 260.985,382.081 260.400,382.194 260.400 C 382.651 260.400,382.361 262.699,381.813 263.424 C 381.490 263.851,381.226 264.560,381.227 265.000 C 381.230 266.126,382.707 262.893,382.871 261.403 C 383.062 259.665,382.009 259.708,380.665 261.493 M349.342 261.800 C 349.447 262.240,349.931 263.590,350.418 264.800 C 351.703 267.992,352.448 273.824,352.233 279.000 C 352.082 282.612,352.117 283.006,352.424 281.200 C 353.176 276.778,352.397 267.037,351.194 265.834 C 350.977 265.617,350.794 265.161,350.786 264.820 C 350.779 264.479,350.408 263.480,349.962 262.600 C 349.516 261.720,349.237 261.360,349.342 261.800 M182.400 261.966 C 182.070 262.154,181.170 262.438,180.400 262.597 C 176.834 263.334,175.358 265.684,178.549 265.546 C 179.637 265.498,179.670 265.468,178.800 265.312 C 176.385 264.878,177.518 263.627,181.004 262.879 C 182.102 262.643,183.450 262.270,184.000 262.050 L 185.000 261.651 184.000 261.638 C 183.450 261.630,182.730 261.778,182.400 261.966 M188.036 262.113 C 188.385 262.381,189.005 263.305,189.413 264.167 C 189.821 265.029,190.221 265.538,190.301 265.297 C 190.507 264.680,188.494 261.597,187.895 261.613 C 187.574 261.621,187.624 261.797,188.036 262.113 M200.224 262.213 C 199.241 262.956,199.547 262.957,201.254 262.216 C 202.186 261.811,202.354 261.630,201.800 261.628 C 201.360 261.627,200.651 261.890,200.224 262.213 M205.078 262.566 C 205.695 263.097,206.277 263.455,206.371 263.362 C 206.617 263.116,204.916 261.600,204.394 261.600 C 204.153 261.600,204.460 262.035,205.078 262.566 M197.034 264.724 C 196.007 265.783,194.571 267.487,193.843 268.512 C 192.251 270.750,191.404 270.493,190.839 267.600 C 190.534 266.040,190.482 265.970,190.444 267.074 C 190.386 268.741,191.019 270.356,191.856 270.677 C 192.513 270.929,193.009 270.486,194.400 268.401 C 195.182 267.230,195.460 266.904,197.583 264.673 C 198.564 263.643,199.262 262.800,199.134 262.800 C 199.006 262.800,198.061 263.666,197.034 264.724 M89.670 263.948 C 89.352 264.150,89.192 264.825,89.270 265.642 L 89.400 267.000 108.484 267.104 L 127.568 267.208 128.025 266.353 C 128.357 265.732,128.364 265.239,128.050 264.549 L 127.617 263.600 108.909 263.606 C 98.619 263.609,89.962 263.763,89.670 263.948 M127.782 264.744 C 128.460 266.880,129.081 266.816,108.661 266.704 C 88.261 266.591,88.951 266.669,89.754 264.577 C 90.142 263.565,127.460 263.729,127.782 264.744 M206.000 265.338 C 205.161 267.098,203.783 267.715,202.348 266.973 C 199.863 265.688,197.942 266.716,195.200 270.799 C 194.870 271.291,194.311 272.077,193.957 272.546 C 192.743 274.158,192.308 276.068,192.761 277.800 L 193.180 279.400 192.963 277.482 C 192.729 275.415,193.489 273.676,196.148 270.200 C 198.722 266.834,199.826 266.250,201.709 267.259 C 203.712 268.330,206.063 267.396,206.583 265.323 C 206.948 263.869,206.697 263.875,206.000 265.338 M181.058 265.086 C 183.131 265.347,183.695 266.388,185.238 272.800 C 185.525 273.993,185.551 273.894,185.410 272.131 C 185.319 270.992,185.066 269.732,184.847 269.331 C 184.628 268.929,184.343 268.100,184.214 267.490 C 183.865 265.838,182.622 264.789,181.100 264.864 L 179.800 264.928 181.058 265.086 M54.259 269.850 C 54.666 270.481,55.765 272.168,56.699 273.599 L 58.398 276.200 58.399 283.039 C 58.400 290.345,58.108 291.718,56.283 292.997 C 55.435 293.591,55.774 293.866,56.650 293.294 C 58.759 291.915,60.059 276.743,58.200 275.200 C 57.870 274.926,57.600 274.550,57.600 274.364 C 57.600 273.938,54.394 269.243,53.890 268.932 C 53.685 268.805,53.851 269.218,54.259 269.850 M185.813 275.400 C 186.351 277.971,186.478 279.706,186.145 279.948 C 185.954 280.086,185.258 281.010,184.599 282.000 C 183.939 282.990,183.262 283.980,183.093 284.200 C 182.924 284.420,181.884 285.815,180.780 287.299 C 177.965 291.088,177.424 291.388,174.693 290.675 C 170.449 289.566,167.673 292.850,170.561 295.563 C 173.972 298.768,177.698 296.765,183.891 288.400 C 187.768 283.162,187.745 283.155,189.168 290.000 C 190.940 298.526,196.205 299.168,201.866 291.548 C 204.117 288.517,204.461 287.095,202.994 286.884 C 202.426 286.803,201.738 287.359,200.664 288.767 C 197.592 292.796,196.177 291.814,194.661 284.600 C 194.549 284.068,194.477 284.192,194.446 284.972 C 194.421 285.616,194.777 287.260,195.238 288.625 C 196.631 292.749,198.175 292.826,201.173 288.920 C 204.075 285.140,204.407 287.266,201.542 291.282 C 196.131 298.865,191.176 298.137,189.600 289.527 C 189.411 288.496,189.064 287.293,188.828 286.853 C 188.593 286.413,188.400 285.703,188.400 285.275 C 188.400 282.427,187.348 283.176,182.456 289.505 C 177.608 295.778,177.151 296.133,173.920 296.133 C 170.482 296.133,168.969 294.050,170.658 291.639 C 171.347 290.655,175.141 290.581,176.094 291.534 C 177.228 292.668,178.796 290.998,185.327 281.704 C 186.970 279.366,187.194 277.749,186.181 275.546 C 185.565 274.207,185.563 274.206,185.813 275.400 M158.131 277.400 C 158.133 278.940,158.205 279.521,158.292 278.691 C 158.379 277.861,158.377 276.601,158.289 275.891 C 158.200 275.181,158.129 275.860,158.131 277.400 M89.372 276.168 C 88.720 278.767,87.401 278.600,108.562 278.600 C 129.683 278.600,129.193 278.659,128.087 276.231 L 127.617 275.200 108.616 275.200 L 89.615 275.200 89.372 276.168 M127.800 277.200 L 127.800 278.200 108.700 278.304 L 89.600 278.408 89.600 277.228 C 89.600 275.698,88.645 275.755,110.200 276.000 L 127.800 276.200 127.800 277.200 M345.284 282.474 C 345.238 284.605,345.007 286.855,344.771 287.474 C 344.535 288.093,344.187 289.416,343.998 290.413 C 343.044 295.434,340.409 299.961,335.780 304.530 C 332.739 307.532,332.151 308.826,333.693 309.123 C 335.112 309.396,341.893 303.914,344.951 300.021 C 346.819 297.643,349.335 293.601,349.095 293.362 C 349.018 293.284,348.251 294.431,347.391 295.910 C 345.980 298.337,338.629 306.400,337.827 306.400 C 337.655 306.400,336.833 306.940,336.000 307.600 C 334.384 308.880,333.200 309.153,333.200 308.246 C 333.200 307.941,334.820 306.040,336.800 304.022 C 338.780 302.004,340.400 300.152,340.400 299.908 C 340.400 299.663,340.657 299.179,340.971 298.831 C 342.015 297.677,343.904 293.425,344.184 291.600 C 344.336 290.610,344.723 289.080,345.046 288.200 C 345.457 287.077,345.592 285.407,345.500 282.600 L 345.367 278.600 345.284 282.474 M150.864 281.405 C 150.829 282.507,151.256 285.117,151.812 287.205 C 152.369 289.292,152.976 291.567,153.161 292.259 C 153.346 292.952,153.790 293.937,154.149 294.448 C 154.939 295.577,155.003 295.121,154.258 293.662 C 153.127 291.446,151.522 284.955,151.078 280.800 C 150.962 279.717,150.914 279.854,150.864 281.405 M193.255 280.600 C 193.240 281.260,193.503 282.250,193.839 282.800 L 194.450 283.800 194.195 282.800 C 194.054 282.250,193.791 281.260,193.611 280.600 L 193.282 279.400 193.255 280.600 M158.479 284.600 C 158.455 286.140,158.616 288.210,158.838 289.200 C 159.059 290.190,159.407 291.898,159.611 292.995 C 160.137 295.826,162.572 301.600,163.240 301.600 C 163.390 301.600,163.627 302.052,163.765 302.604 C 163.904 303.157,165.454 305.016,167.209 306.737 C 171.051 310.502,171.353 312.440,167.646 309.545 C 167.121 309.135,166.535 308.800,166.343 308.800 C 165.986 308.800,164.667 307.700,162.025 305.200 C 160.024 303.306,156.734 298.950,155.870 297.050 C 155.483 296.198,155.086 295.581,154.989 295.678 C 154.791 295.876,155.825 297.981,157.015 299.800 C 160.243 304.735,168.448 311.728,170.214 311.050 C 171.371 310.606,170.759 309.342,168.369 307.239 C 162.830 302.363,159.615 294.898,158.790 285.000 L 158.524 281.800 158.479 284.600 M351.650 284.800 C 351.607 285.570,351.314 286.650,351.000 287.200 C 350.686 287.750,350.428 288.650,350.429 289.200 C 350.429 289.866,350.695 289.465,351.226 288.000 C 351.665 286.790,351.957 285.260,351.876 284.600 C 351.735 283.453,351.725 283.462,351.650 284.800 M349.699 291.191 C 348.972 292.355,349.087 293.139,349.830 292.079 C 350.176 291.584,350.401 291.002,350.329 290.786 C 350.256 290.569,349.973 290.751,349.699 291.191 M52.014 294.374 C 51.422 295.479,51.526 295.931,52.175 295.076 C 52.477 294.677,53.236 294.198,53.862 294.010 L 55.000 293.669 53.714 293.634 C 52.828 293.611,52.299 293.841,52.014 294.374 M302.804 294.195 C 301.422 295.860,302.223 296.000,313.164 296.000 C 318.878 296.000,323.636 295.865,323.739 295.700 C 323.841 295.535,319.171 295.451,313.362 295.513 C 302.554 295.628,301.237 295.441,304.100 294.196 C 305.365 293.646,305.372 293.631,304.349 293.616 C 303.771 293.607,303.076 293.868,302.804 294.195 M57.323 295.899 C 60.141 295.968,64.641 295.968,67.323 295.899 C 70.005 295.830,67.700 295.773,62.200 295.773 C 56.700 295.774,54.505 295.830,57.323 295.899 " stroke="none" fill="#7c7c7c" fill-rule="evenodd"></path></g></svg>